<?xml version="1.0" encoding="utf-8" standalone="no"?>
<!DOCTYPE svg PUBLIC "-//W3C//DTD SVG 1.1//EN"
  "http://www.w3.org/Graphics/SVG/1.1/DTD/svg11.dtd">
<svg xmlns:xlink="http://www.w3.org/1999/xlink" width="402.360312pt" height="286.692549pt" viewBox="0 0 402.360312 286.692549" xmlns="http://www.w3.org/2000/svg" version="1.1">
 <metadata>
  <rdf:RDF xmlns:dc="http://purl.org/dc/elements/1.1/" xmlns:cc="http://creativecommons.org/ns#" xmlns:rdf="http://www.w3.org/1999/02/22-rdf-syntax-ns#">
   <cc:Work>
    <dc:type rdf:resource="http://purl.org/dc/dcmitype/StillImage"/>
    <dc:date>2024-08-12T16:08:09.232875</dc:date>
    <dc:format>image/svg+xml</dc:format>
    <dc:creator>
     <cc:Agent>
      <dc:title>Matplotlib v3.7.4, https://matplotlib.org/</dc:title>
     </cc:Agent>
    </dc:creator>
   </cc:Work>
  </rdf:RDF>
 </metadata>
 <defs>
  <style type="text/css">*{stroke-linejoin: round; stroke-linecap: butt}</style>
 </defs>
 <g id="figure_1">
  <g id="patch_1">
   <path d="M 0 286.692549 
L 402.360312 286.692549 
L 402.360312 0 
L 0 0 
L 0 286.692549 
z
" style="fill: none"/>
  </g>
  <g id="axes_1">
   <g id="patch_2">
    <path d="M 60.360313 240.526924 
L 395.160313 240.526924 
L 395.160313 18.766924 
L 60.360313 18.766924 
L 60.360313 240.526924 
z
" style="fill: none"/>
   </g>
   <g id="PathCollection_1">
    <defs>
     <path id="C0_0_dfea5f3925" d="M 0 2.5 
C 0.663008 2.5 1.29895 2.236584 1.767767 1.767767 
C 2.236584 1.29895 2.5 0.663008 2.5 -0 
C 2.5 -0.663008 2.236584 -1.29895 1.767767 -1.767767 
C 1.29895 -2.236584 0.663008 -2.5 0 -2.5 
C -0.663008 -2.5 -1.29895 -2.236584 -1.767767 -1.767767 
C -2.236584 -1.29895 -2.5 -0.663008 -2.5 0 
C -2.5 0.663008 -2.236584 1.29895 -1.767767 1.767767 
C -1.29895 2.236584 -0.663008 2.5 0 2.5 
z
"/>
    </defs>
    <g clip-path="url(#p30aec3dcc3)">
     <use xlink:href="#C0_0_dfea5f3925" x="86.657771" y="67.176544" style="fill: #fbc5f4"/>
    </g>
    <g clip-path="url(#p30aec3dcc3)">
     <use xlink:href="#C0_0_dfea5f3925" x="84.96061" y="67.749938" style="fill: #fbc5f4"/>
    </g>
    <g clip-path="url(#p30aec3dcc3)">
     <use xlink:href="#C0_0_dfea5f3925" x="86.595573" y="83.259462" style="fill: #fbc5f4"/>
    </g>
    <g clip-path="url(#p30aec3dcc3)">
     <use xlink:href="#C0_0_dfea5f3925" x="84.675406" y="65.011049" style="fill: #fbc5f4"/>
    </g>
    <g clip-path="url(#p30aec3dcc3)">
     <use xlink:href="#C0_0_dfea5f3925" x="87.598086" y="90.276034" style="fill: #fbc5f4"/>
    </g>
    <g clip-path="url(#p30aec3dcc3)">
     <use xlink:href="#C0_0_dfea5f3925" x="84.657415" y="69.85007" style="fill: #fbc5f4"/>
    </g>
    <g clip-path="url(#p30aec3dcc3)">
     <use xlink:href="#C0_0_dfea5f3925" x="86.028874" y="78.031409" style="fill: #fbc5f4"/>
    </g>
    <g clip-path="url(#p30aec3dcc3)">
     <use xlink:href="#C0_0_dfea5f3925" x="84.713266" y="62.763102" style="fill: #fbc5f4"/>
    </g>
    <g clip-path="url(#p30aec3dcc3)">
     <use xlink:href="#C0_0_dfea5f3925" x="85.333822" y="70.984359" style="fill: #fbc5f4"/>
    </g>
    <g clip-path="url(#p30aec3dcc3)">
     <use xlink:href="#C0_0_dfea5f3925" x="87.037056" y="71.652798" style="fill: #fbc5f4"/>
    </g>
   </g>
   <g id="PathCollection_2">
    <defs>
     <path id="C1_0_e69fcac04d" d="M 0 2.5 
C 0.663008 2.5 1.29895 2.236584 1.767767 1.767767 
C 2.236584 1.29895 2.5 0.663008 2.5 -0 
C 2.5 -0.663008 2.236584 -1.29895 1.767767 -1.767767 
C 1.29895 -2.236584 0.663008 -2.5 0 -2.5 
C -0.663008 -2.5 -1.29895 -2.236584 -1.767767 -1.767767 
C -2.236584 -1.29895 -2.5 -0.663008 -2.5 0 
C -2.5 0.663008 -2.236584 1.29895 -1.767767 1.767767 
C -1.29895 2.236584 -0.663008 2.5 0 2.5 
z
"/>
    </defs>
    <g clip-path="url(#p30aec3dcc3)">
     <use xlink:href="#C1_0_e69fcac04d" x="98.794491" y="69.132022" style="fill: #ffb7bc"/>
    </g>
    <g clip-path="url(#p30aec3dcc3)">
     <use xlink:href="#C1_0_e69fcac04d" x="98.963439" y="65.768654" style="fill: #ffb7bc"/>
    </g>
    <g clip-path="url(#p30aec3dcc3)">
     <use xlink:href="#C1_0_e69fcac04d" x="99.803475" y="64.057849" style="fill: #ffb7bc"/>
    </g>
    <g clip-path="url(#p30aec3dcc3)">
     <use xlink:href="#C1_0_e69fcac04d" x="99.042882" y="73.738052" style="fill: #ffb7bc"/>
    </g>
    <g clip-path="url(#p30aec3dcc3)">
     <use xlink:href="#C1_0_e69fcac04d" x="100.903877" y="64.734791" style="fill: #ffb7bc"/>
    </g>
    <g clip-path="url(#p30aec3dcc3)">
     <use xlink:href="#C1_0_e69fcac04d" x="101.190881" y="68.979949" style="fill: #ffb7bc"/>
    </g>
    <g clip-path="url(#p30aec3dcc3)">
     <use xlink:href="#C1_0_e69fcac04d" x="99.652769" y="67.559409" style="fill: #ffb7bc"/>
    </g>
    <g clip-path="url(#p30aec3dcc3)">
     <use xlink:href="#C1_0_e69fcac04d" x="99.989472" y="64.715706" style="fill: #ffb7bc"/>
    </g>
    <g clip-path="url(#p30aec3dcc3)">
     <use xlink:href="#C1_0_e69fcac04d" x="101.267951" y="66.56531" style="fill: #ffb7bc"/>
    </g>
    <g clip-path="url(#p30aec3dcc3)">
     <use xlink:href="#C1_0_e69fcac04d" x="99.885772" y="72.121357" style="fill: #ffb7bc"/>
    </g>
   </g>
   <g id="PathCollection_3">
    <defs>
     <path id="C2_0_ca3285af74" d="M 0 2.5 
C 0.663008 2.5 1.29895 2.236584 1.767767 1.767767 
C 2.236584 1.29895 2.5 0.663008 2.5 -0 
C 2.5 -0.663008 2.236584 -1.29895 1.767767 -1.767767 
C 1.29895 -2.236584 0.663008 -2.5 0 -2.5 
C -0.663008 -2.5 -1.29895 -2.236584 -1.767767 -1.767767 
C -2.236584 -1.29895 -2.5 -0.663008 -2.5 0 
C -2.5 0.663008 -2.236584 1.29895 -1.767767 1.767767 
C -1.29895 2.236584 -0.663008 2.5 0 2.5 
z
"/>
    </defs>
    <g clip-path="url(#p30aec3dcc3)">
     <use xlink:href="#C2_0_ca3285af74" x="114.36492" y="69.454246" style="fill: #bdc0ff"/>
    </g>
    <g clip-path="url(#p30aec3dcc3)">
     <use xlink:href="#C2_0_ca3285af74" x="113.113803" y="65.941749" style="fill: #bdc0ff"/>
    </g>
    <g clip-path="url(#p30aec3dcc3)">
     <use xlink:href="#C2_0_ca3285af74" x="112.452976" y="62.599084" style="fill: #bdc0ff"/>
    </g>
    <g clip-path="url(#p30aec3dcc3)">
     <use xlink:href="#C2_0_ca3285af74" x="112.346763" y="66.223892" style="fill: #bdc0ff"/>
    </g>
    <g clip-path="url(#p30aec3dcc3)">
     <use xlink:href="#C2_0_ca3285af74" x="113.518431" y="72.308872" style="fill: #bdc0ff"/>
    </g>
    <g clip-path="url(#p30aec3dcc3)">
     <use xlink:href="#C2_0_ca3285af74" x="112.673714" y="72.397426" style="fill: #bdc0ff"/>
    </g>
    <g clip-path="url(#p30aec3dcc3)">
     <use xlink:href="#C2_0_ca3285af74" x="112.315356" y="72.032566" style="fill: #bdc0ff"/>
    </g>
    <g clip-path="url(#p30aec3dcc3)">
     <use xlink:href="#C2_0_ca3285af74" x="114.477895" y="63.675464" style="fill: #bdc0ff"/>
    </g>
    <g clip-path="url(#p30aec3dcc3)">
     <use xlink:href="#C2_0_ca3285af74" x="113.13001" y="61.508283" style="fill: #bdc0ff"/>
    </g>
    <g clip-path="url(#p30aec3dcc3)">
     <use xlink:href="#C2_0_ca3285af74" x="113.322313" y="65.135242" style="fill: #bdc0ff"/>
    </g>
   </g>
   <g id="PathCollection_4">
    <defs>
     <path id="C3_0_67ecb9fec8" d="M 0 2.5 
C 0.663008 2.5 1.29895 2.236584 1.767767 1.767767 
C 2.236584 1.29895 2.5 0.663008 2.5 -0 
C 2.5 -0.663008 2.236584 -1.29895 1.767767 -1.767767 
C 1.29895 -2.236584 0.663008 -2.5 0 -2.5 
C -0.663008 -2.5 -1.29895 -2.236584 -1.767767 -1.767767 
C -2.236584 -1.29895 -2.5 -0.663008 -2.5 0 
C -2.5 0.663008 -2.236584 1.29895 -1.767767 1.767767 
C -1.29895 2.236584 -0.663008 2.5 0 2.5 
z
"/>
    </defs>
    <g clip-path="url(#p30aec3dcc3)">
     <use xlink:href="#C3_0_67ecb9fec8" x="136.988346" y="71.480416" style="fill: #fbc5f4"/>
    </g>
    <g clip-path="url(#p30aec3dcc3)">
     <use xlink:href="#C3_0_67ecb9fec8" x="137.731393" y="74.298205" style="fill: #fbc5f4"/>
    </g>
    <g clip-path="url(#p30aec3dcc3)">
     <use xlink:href="#C3_0_67ecb9fec8" x="137.411342" y="80.335821" style="fill: #fbc5f4"/>
    </g>
    <g clip-path="url(#p30aec3dcc3)">
     <use xlink:href="#C3_0_67ecb9fec8" x="138.168052" y="79.534427" style="fill: #fbc5f4"/>
    </g>
    <g clip-path="url(#p30aec3dcc3)">
     <use xlink:href="#C3_0_67ecb9fec8" x="138.713002" y="83.453943" style="fill: #fbc5f4"/>
    </g>
    <g clip-path="url(#p30aec3dcc3)">
     <use xlink:href="#C3_0_67ecb9fec8" x="138.931124" y="87.642651" style="fill: #fbc5f4"/>
    </g>
    <g clip-path="url(#p30aec3dcc3)">
     <use xlink:href="#C3_0_67ecb9fec8" x="137.797573" y="70.12394" style="fill: #fbc5f4"/>
    </g>
    <g clip-path="url(#p30aec3dcc3)">
     <use xlink:href="#C3_0_67ecb9fec8" x="136.612124" y="80.647465" style="fill: #fbc5f4"/>
    </g>
    <g clip-path="url(#p30aec3dcc3)">
     <use xlink:href="#C3_0_67ecb9fec8" x="137.022662" y="70.209437" style="fill: #fbc5f4"/>
    </g>
    <g clip-path="url(#p30aec3dcc3)">
     <use xlink:href="#C3_0_67ecb9fec8" x="137.406935" y="76.123203" style="fill: #fbc5f4"/>
    </g>
   </g>
   <g id="PathCollection_5">
    <defs>
     <path id="C4_0_5d2397aee5" d="M 0 2.5 
C 0.663008 2.5 1.29895 2.236584 1.767767 1.767767 
C 2.236584 1.29895 2.5 0.663008 2.5 -0 
C 2.5 -0.663008 2.236584 -1.29895 1.767767 -1.767767 
C 1.29895 -2.236584 0.663008 -2.5 0 -2.5 
C -0.663008 -2.5 -1.29895 -2.236584 -1.767767 -1.767767 
C -2.236584 -1.29895 -2.5 -0.663008 -2.5 0 
C -2.5 0.663008 -2.236584 1.29895 -1.767767 1.767767 
C -1.29895 2.236584 -0.663008 2.5 0 2.5 
z
"/>
    </defs>
    <g clip-path="url(#p30aec3dcc3)">
     <use xlink:href="#C4_0_5d2397aee5" x="151.9965" y="76.47254" style="fill: #ffb7bc"/>
    </g>
    <g clip-path="url(#p30aec3dcc3)">
     <use xlink:href="#C4_0_5d2397aee5" x="150.865371" y="75.341049" style="fill: #ffb7bc"/>
    </g>
    <g clip-path="url(#p30aec3dcc3)">
     <use xlink:href="#C4_0_5d2397aee5" x="151.475475" y="70.390196" style="fill: #ffb7bc"/>
    </g>
    <g clip-path="url(#p30aec3dcc3)">
     <use xlink:href="#C4_0_5d2397aee5" x="150.221689" y="84.109972" style="fill: #ffb7bc"/>
    </g>
    <g clip-path="url(#p30aec3dcc3)">
     <use xlink:href="#C4_0_5d2397aee5" x="149.547519" y="67.903633" style="fill: #ffb7bc"/>
    </g>
    <g clip-path="url(#p30aec3dcc3)">
     <use xlink:href="#C4_0_5d2397aee5" x="151.693681" y="68.245119" style="fill: #ffb7bc"/>
    </g>
    <g clip-path="url(#p30aec3dcc3)">
     <use xlink:href="#C4_0_5d2397aee5" x="152.392459" y="73.608498" style="fill: #ffb7bc"/>
    </g>
    <g clip-path="url(#p30aec3dcc3)">
     <use xlink:href="#C4_0_5d2397aee5" x="151.655914" y="74.48171" style="fill: #ffb7bc"/>
    </g>
    <g clip-path="url(#p30aec3dcc3)">
     <use xlink:href="#C4_0_5d2397aee5" x="151.919327" y="72.954671" style="fill: #ffb7bc"/>
    </g>
    <g clip-path="url(#p30aec3dcc3)">
     <use xlink:href="#C4_0_5d2397aee5" x="149.449104" y="74.490627" style="fill: #ffb7bc"/>
    </g>
   </g>
   <g id="PathCollection_6">
    <defs>
     <path id="C5_0_11ab472b50" d="M 0 2.5 
C 0.663008 2.5 1.29895 2.236584 1.767767 1.767767 
C 2.236584 1.29895 2.5 0.663008 2.5 -0 
C 2.5 -0.663008 2.236584 -1.29895 1.767767 -1.767767 
C 1.29895 -2.236584 0.663008 -2.5 0 -2.5 
C -0.663008 -2.5 -1.29895 -2.236584 -1.767767 -1.767767 
C -2.236584 -1.29895 -2.5 -0.663008 -2.5 0 
C -2.5 0.663008 -2.236584 1.29895 -1.767767 1.767767 
C -1.29895 2.236584 -0.663008 2.5 0 2.5 
z
"/>
    </defs>
    <g clip-path="url(#p30aec3dcc3)">
     <use xlink:href="#C5_0_11ab472b50" x="163.495567" y="79.371717" style="fill: #bdc0ff"/>
    </g>
    <g clip-path="url(#p30aec3dcc3)">
     <use xlink:href="#C5_0_11ab472b50" x="164.606849" y="71.773881" style="fill: #bdc0ff"/>
    </g>
    <g clip-path="url(#p30aec3dcc3)">
     <use xlink:href="#C5_0_11ab472b50" x="163.574069" y="65.485755" style="fill: #bdc0ff"/>
    </g>
    <g clip-path="url(#p30aec3dcc3)">
     <use xlink:href="#C5_0_11ab472b50" x="164.090053" y="81.570466" style="fill: #bdc0ff"/>
    </g>
    <g clip-path="url(#p30aec3dcc3)">
     <use xlink:href="#C5_0_11ab472b50" x="165.469745" y="70.333334" style="fill: #bdc0ff"/>
    </g>
    <g clip-path="url(#p30aec3dcc3)">
     <use xlink:href="#C5_0_11ab472b50" x="163.609123" y="78.725233" style="fill: #bdc0ff"/>
    </g>
    <g clip-path="url(#p30aec3dcc3)">
     <use xlink:href="#C5_0_11ab472b50" x="162.952649" y="79.732652" style="fill: #bdc0ff"/>
    </g>
    <g clip-path="url(#p30aec3dcc3)">
     <use xlink:href="#C5_0_11ab472b50" x="166.001913" y="67.971032" style="fill: #bdc0ff"/>
    </g>
    <g clip-path="url(#p30aec3dcc3)">
     <use xlink:href="#C5_0_11ab472b50" x="165.301382" y="68.777406" style="fill: #bdc0ff"/>
    </g>
    <g clip-path="url(#p30aec3dcc3)">
     <use xlink:href="#C5_0_11ab472b50" x="163.489231" y="78.421927" style="fill: #bdc0ff"/>
    </g>
   </g>
   <g id="PathCollection_7">
    <defs>
     <path id="C6_0_ef9aae31e5" d="M 0 2.5 
C 0.663008 2.5 1.29895 2.236584 1.767767 1.767767 
C 2.236584 1.29895 2.5 0.663008 2.5 -0 
C 2.5 -0.663008 2.236584 -1.29895 1.767767 -1.767767 
C 1.29895 -2.236584 0.663008 -2.5 0 -2.5 
C -0.663008 -2.5 -1.29895 -2.236584 -1.767767 -1.767767 
C -2.236584 -1.29895 -2.5 -0.663008 -2.5 0 
C -2.5 0.663008 -2.236584 1.29895 -1.767767 1.767767 
C -1.29895 2.236584 -0.663008 2.5 0 2.5 
z
"/>
    </defs>
    <g clip-path="url(#p30aec3dcc3)">
     <use xlink:href="#C6_0_ef9aae31e5" x="187.723793" y="51.105593" style="fill: #fbc5f4"/>
    </g>
    <g clip-path="url(#p30aec3dcc3)">
     <use xlink:href="#C6_0_ef9aae31e5" x="188.313776" y="71.951775" style="fill: #fbc5f4"/>
    </g>
    <g clip-path="url(#p30aec3dcc3)">
     <use xlink:href="#C6_0_ef9aae31e5" x="187.70164" y="62.39179" style="fill: #fbc5f4"/>
    </g>
    <g clip-path="url(#p30aec3dcc3)">
     <use xlink:href="#C6_0_ef9aae31e5" x="187.252036" y="59.906293" style="fill: #fbc5f4"/>
    </g>
    <g clip-path="url(#p30aec3dcc3)">
     <use xlink:href="#C6_0_ef9aae31e5" x="187.613845" y="63.893513" style="fill: #fbc5f4"/>
    </g>
    <g clip-path="url(#p30aec3dcc3)">
     <use xlink:href="#C6_0_ef9aae31e5" x="187.874121" y="57.306279" style="fill: #fbc5f4"/>
    </g>
    <g clip-path="url(#p30aec3dcc3)">
     <use xlink:href="#C6_0_ef9aae31e5" x="189.963075" y="65.075039" style="fill: #fbc5f4"/>
    </g>
    <g clip-path="url(#p30aec3dcc3)">
     <use xlink:href="#C6_0_ef9aae31e5" x="189.056561" y="54.00578" style="fill: #fbc5f4"/>
    </g>
    <g clip-path="url(#p30aec3dcc3)">
     <use xlink:href="#C6_0_ef9aae31e5" x="188.049104" y="63.465455" style="fill: #fbc5f4"/>
    </g>
    <g clip-path="url(#p30aec3dcc3)">
     <use xlink:href="#C6_0_ef9aae31e5" x="186.873238" y="63.724335" style="fill: #fbc5f4"/>
    </g>
   </g>
   <g id="PathCollection_8">
    <defs>
     <path id="C7_0_3751419506" d="M 0 2.5 
C 0.663008 2.5 1.29895 2.236584 1.767767 1.767767 
C 2.236584 1.29895 2.5 0.663008 2.5 -0 
C 2.5 -0.663008 2.236584 -1.29895 1.767767 -1.767767 
C 1.29895 -2.236584 0.663008 -2.5 0 -2.5 
C -0.663008 -2.5 -1.29895 -2.236584 -1.767767 -1.767767 
C -2.236584 -1.29895 -2.5 -0.663008 -2.5 0 
C -2.5 0.663008 -2.236584 1.29895 -1.767767 1.767767 
C -1.29895 2.236584 -0.663008 2.5 0 2.5 
z
"/>
    </defs>
    <g clip-path="url(#p30aec3dcc3)">
     <use xlink:href="#C7_0_3751419506" x="203.432411" y="58.71697" style="fill: #ffb7bc"/>
    </g>
    <g clip-path="url(#p30aec3dcc3)">
     <use xlink:href="#C7_0_3751419506" x="200.952572" y="61.263739" style="fill: #ffb7bc"/>
    </g>
    <g clip-path="url(#p30aec3dcc3)">
     <use xlink:href="#C7_0_3751419506" x="202.283444" y="56.775493" style="fill: #ffb7bc"/>
    </g>
    <g clip-path="url(#p30aec3dcc3)">
     <use xlink:href="#C7_0_3751419506" x="203.315447" y="72.120246" style="fill: #ffb7bc"/>
    </g>
    <g clip-path="url(#p30aec3dcc3)">
     <use xlink:href="#C7_0_3751419506" x="202.999789" y="63.247934" style="fill: #ffb7bc"/>
    </g>
    <g clip-path="url(#p30aec3dcc3)">
     <use xlink:href="#C7_0_3751419506" x="201.477766" y="58.978291" style="fill: #ffb7bc"/>
    </g>
    <g clip-path="url(#p30aec3dcc3)">
     <use xlink:href="#C7_0_3751419506" x="203.037267" y="62.897878" style="fill: #ffb7bc"/>
    </g>
    <g clip-path="url(#p30aec3dcc3)">
     <use xlink:href="#C7_0_3751419506" x="203.739082" y="65.343768" style="fill: #ffb7bc"/>
    </g>
    <g clip-path="url(#p30aec3dcc3)">
     <use xlink:href="#C7_0_3751419506" x="200.81703" y="62.717948" style="fill: #ffb7bc"/>
    </g>
    <g clip-path="url(#p30aec3dcc3)">
     <use xlink:href="#C7_0_3751419506" x="203.832372" y="62.681761" style="fill: #ffb7bc"/>
    </g>
   </g>
   <g id="PathCollection_9">
    <defs>
     <path id="C8_0_29f0cd37fb" d="M 0 2.5 
C 0.663008 2.5 1.29895 2.236584 1.767767 1.767767 
C 2.236584 1.29895 2.5 0.663008 2.5 -0 
C 2.5 -0.663008 2.236584 -1.29895 1.767767 -1.767767 
C 1.29895 -2.236584 0.663008 -2.5 0 -2.5 
C -0.663008 -2.5 -1.29895 -2.236584 -1.767767 -1.767767 
C -2.236584 -1.29895 -2.5 -0.663008 -2.5 0 
C -2.5 0.663008 -2.236584 1.29895 -1.767767 1.767767 
C -1.29895 2.236584 -0.663008 2.5 0 2.5 
z
"/>
    </defs>
    <g clip-path="url(#p30aec3dcc3)">
     <use xlink:href="#C8_0_29f0cd37fb" x="215.277462" y="62.823156" style="fill: #bdc0ff"/>
    </g>
    <g clip-path="url(#p30aec3dcc3)">
     <use xlink:href="#C8_0_29f0cd37fb" x="214.313196" y="58.38634" style="fill: #bdc0ff"/>
    </g>
    <g clip-path="url(#p30aec3dcc3)">
     <use xlink:href="#C8_0_29f0cd37fb" x="214.556521" y="58.421915" style="fill: #bdc0ff"/>
    </g>
    <g clip-path="url(#p30aec3dcc3)">
     <use xlink:href="#C8_0_29f0cd37fb" x="217.144261" y="59.558814" style="fill: #bdc0ff"/>
    </g>
    <g clip-path="url(#p30aec3dcc3)">
     <use xlink:href="#C8_0_29f0cd37fb" x="216.808782" y="65.905458" style="fill: #bdc0ff"/>
    </g>
    <g clip-path="url(#p30aec3dcc3)">
     <use xlink:href="#C8_0_29f0cd37fb" x="216.879051" y="62.168015" style="fill: #bdc0ff"/>
    </g>
    <g clip-path="url(#p30aec3dcc3)">
     <use xlink:href="#C8_0_29f0cd37fb" x="215.985094" y="61.501315" style="fill: #bdc0ff"/>
    </g>
    <g clip-path="url(#p30aec3dcc3)">
     <use xlink:href="#C8_0_29f0cd37fb" x="216.161435" y="59.503131" style="fill: #bdc0ff"/>
    </g>
    <g clip-path="url(#p30aec3dcc3)">
     <use xlink:href="#C8_0_29f0cd37fb" x="214.211511" y="61.55812" style="fill: #bdc0ff"/>
    </g>
    <g clip-path="url(#p30aec3dcc3)">
     <use xlink:href="#C8_0_29f0cd37fb" x="216.375427" y="64.476145" style="fill: #bdc0ff"/>
    </g>
   </g>
   <g id="PathCollection_10">
    <defs>
     <path id="C9_0_af88a378d1" d="M 0 2.5 
C 0.663008 2.5 1.29895 2.236584 1.767767 1.767767 
C 2.236584 1.29895 2.5 0.663008 2.5 -0 
C 2.5 -0.663008 2.236584 -1.29895 1.767767 -1.767767 
C 1.29895 -2.236584 0.663008 -2.5 0 -2.5 
C -0.663008 -2.5 -1.29895 -2.236584 -1.767767 -1.767767 
C -2.236584 -1.29895 -2.5 -0.663008 -2.5 0 
C -2.5 0.663008 -2.236584 1.29895 -1.767767 1.767767 
C -1.29895 2.236584 -0.663008 2.5 0 2.5 
z
"/>
    </defs>
    <g clip-path="url(#p30aec3dcc3)">
     <use xlink:href="#C9_0_af88a378d1" x="241.254943" y="59.06766" style="fill: #fbc5f4"/>
    </g>
    <g clip-path="url(#p30aec3dcc3)">
     <use xlink:href="#C9_0_af88a378d1" x="240.258086" y="61.668235" style="fill: #fbc5f4"/>
    </g>
    <g clip-path="url(#p30aec3dcc3)">
     <use xlink:href="#C9_0_af88a378d1" x="240.301866" y="59.09151" style="fill: #fbc5f4"/>
    </g>
    <g clip-path="url(#p30aec3dcc3)">
     <use xlink:href="#C9_0_af88a378d1" x="238.526939" y="60.473247" style="fill: #fbc5f4"/>
    </g>
    <g clip-path="url(#p30aec3dcc3)">
     <use xlink:href="#C9_0_af88a378d1" x="240.844715" y="59.406203" style="fill: #fbc5f4"/>
    </g>
    <g clip-path="url(#p30aec3dcc3)">
     <use xlink:href="#C9_0_af88a378d1" x="238.969204" y="52.29279" style="fill: #fbc5f4"/>
    </g>
    <g clip-path="url(#p30aec3dcc3)">
     <use xlink:href="#C9_0_af88a378d1" x="241.150762" y="55.479702" style="fill: #fbc5f4"/>
    </g>
    <g clip-path="url(#p30aec3dcc3)">
     <use xlink:href="#C9_0_af88a378d1" x="238.347504" y="55.037015" style="fill: #fbc5f4"/>
    </g>
    <g clip-path="url(#p30aec3dcc3)">
     <use xlink:href="#C9_0_af88a378d1" x="239.758326" y="54.992879" style="fill: #fbc5f4"/>
    </g>
    <g clip-path="url(#p30aec3dcc3)">
     <use xlink:href="#C9_0_af88a378d1" x="238.540586" y="64.343543" style="fill: #fbc5f4"/>
    </g>
   </g>
   <g id="PathCollection_11">
    <defs>
     <path id="Ca_0_87f9b1827f" d="M 0 2.5 
C 0.663008 2.5 1.29895 2.236584 1.767767 1.767767 
C 2.236584 1.29895 2.5 0.663008 2.5 -0 
C 2.5 -0.663008 2.236584 -1.29895 1.767767 -1.767767 
C 1.29895 -2.236584 0.663008 -2.5 0 -2.5 
C -0.663008 -2.5 -1.29895 -2.236584 -1.767767 -1.767767 
C -2.236584 -1.29895 -2.5 -0.663008 -2.5 0 
C -2.5 0.663008 -2.236584 1.29895 -1.767767 1.767767 
C -1.29895 2.236584 -0.663008 2.5 0 2.5 
z
"/>
    </defs>
    <g clip-path="url(#p30aec3dcc3)">
     <use xlink:href="#Ca_0_87f9b1827f" x="253.954932" y="60.353771" style="fill: #ffb7bc"/>
    </g>
    <g clip-path="url(#p30aec3dcc3)">
     <use xlink:href="#Ca_0_87f9b1827f" x="253.911095" y="56.947835" style="fill: #ffb7bc"/>
    </g>
    <g clip-path="url(#p30aec3dcc3)">
     <use xlink:href="#Ca_0_87f9b1827f" x="254.106373" y="51.829465" style="fill: #ffb7bc"/>
    </g>
    <g clip-path="url(#p30aec3dcc3)">
     <use xlink:href="#Ca_0_87f9b1827f" x="253.917268" y="60.644472" style="fill: #ffb7bc"/>
    </g>
    <g clip-path="url(#p30aec3dcc3)">
     <use xlink:href="#Ca_0_87f9b1827f" x="252.525965" y="55.212405" style="fill: #ffb7bc"/>
    </g>
    <g clip-path="url(#p30aec3dcc3)">
     <use xlink:href="#Ca_0_87f9b1827f" x="254.680023" y="58.8166" style="fill: #ffb7bc"/>
    </g>
    <g clip-path="url(#p30aec3dcc3)">
     <use xlink:href="#Ca_0_87f9b1827f" x="254.033705" y="55.380574" style="fill: #ffb7bc"/>
    </g>
    <g clip-path="url(#p30aec3dcc3)">
     <use xlink:href="#Ca_0_87f9b1827f" x="254.943301" y="60.149489" style="fill: #ffb7bc"/>
    </g>
    <g clip-path="url(#p30aec3dcc3)">
     <use xlink:href="#Ca_0_87f9b1827f" x="254.998893" y="56.347641" style="fill: #ffb7bc"/>
    </g>
    <g clip-path="url(#p30aec3dcc3)">
     <use xlink:href="#Ca_0_87f9b1827f" x="254.731121" y="56.910215" style="fill: #ffb7bc"/>
    </g>
   </g>
   <g id="PathCollection_12">
    <defs>
     <path id="Cb_0_3d55bbc847" d="M 0 2.5 
C 0.663008 2.5 1.29895 2.236584 1.767767 1.767767 
C 2.236584 1.29895 2.5 0.663008 2.5 -0 
C 2.5 -0.663008 2.236584 -1.29895 1.767767 -1.767767 
C 1.29895 -2.236584 0.663008 -2.5 0 -2.5 
C -0.663008 -2.5 -1.29895 -2.236584 -1.767767 -1.767767 
C -2.236584 -1.29895 -2.5 -0.663008 -2.5 0 
C -2.5 0.663008 -2.236584 1.29895 -1.767767 1.767767 
C -1.29895 2.236584 -0.663008 2.5 0 2.5 
z
"/>
    </defs>
    <g clip-path="url(#p30aec3dcc3)">
     <use xlink:href="#Cb_0_3d55bbc847" x="268.155987" y="57.986179" style="fill: #bdc0ff"/>
    </g>
    <g clip-path="url(#p30aec3dcc3)">
     <use xlink:href="#Cb_0_3d55bbc847" x="268.597982" y="64.938701" style="fill: #bdc0ff"/>
    </g>
    <g clip-path="url(#p30aec3dcc3)">
     <use xlink:href="#Cb_0_3d55bbc847" x="265.696149" y="56.282215" style="fill: #bdc0ff"/>
    </g>
    <g clip-path="url(#p30aec3dcc3)">
     <use xlink:href="#Cb_0_3d55bbc847" x="267.871227" y="58.207927" style="fill: #bdc0ff"/>
    </g>
    <g clip-path="url(#p30aec3dcc3)">
     <use xlink:href="#Cb_0_3d55bbc847" x="266.246314" y="59.269915" style="fill: #bdc0ff"/>
    </g>
    <g clip-path="url(#p30aec3dcc3)">
     <use xlink:href="#Cb_0_3d55bbc847" x="268.490977" y="55.801224" style="fill: #bdc0ff"/>
    </g>
    <g clip-path="url(#p30aec3dcc3)">
     <use xlink:href="#Cb_0_3d55bbc847" x="265.442015" y="52.384564" style="fill: #bdc0ff"/>
    </g>
    <g clip-path="url(#p30aec3dcc3)">
     <use xlink:href="#Cb_0_3d55bbc847" x="266.168385" y="54.316208" style="fill: #bdc0ff"/>
    </g>
    <g clip-path="url(#p30aec3dcc3)">
     <use xlink:href="#Cb_0_3d55bbc847" x="266.5493" y="54.915415" style="fill: #bdc0ff"/>
    </g>
    <g clip-path="url(#p30aec3dcc3)">
     <use xlink:href="#Cb_0_3d55bbc847" x="265.72415" y="60.835901" style="fill: #bdc0ff"/>
    </g>
   </g>
   <g id="PathCollection_13">
    <defs>
     <path id="Cc_0_2e2e59a1d5" d="M 0 2.5 
C 0.663008 2.5 1.29895 2.236584 1.767767 1.767767 
C 2.236584 1.29895 2.5 0.663008 2.5 -0 
C 2.5 -0.663008 2.236584 -1.29895 1.767767 -1.767767 
C 1.29895 -2.236584 0.663008 -2.5 0 -2.5 
C -0.663008 -2.5 -1.29895 -2.236584 -1.767767 -1.767767 
C -2.236584 -1.29895 -2.5 -0.663008 -2.5 0 
C -2.5 0.663008 -2.236584 1.29895 -1.767767 1.767767 
C -1.29895 2.236584 -0.663008 2.5 0 2.5 
z
"/>
    </defs>
    <g clip-path="url(#p30aec3dcc3)">
     <use xlink:href="#Cc_0_2e2e59a1d5" x="292.267604" y="85.189894" style="fill: #fbc5f4"/>
    </g>
    <g clip-path="url(#p30aec3dcc3)">
     <use xlink:href="#Cc_0_2e2e59a1d5" x="289.649037" y="85.478957" style="fill: #fbc5f4"/>
    </g>
    <g clip-path="url(#p30aec3dcc3)">
     <use xlink:href="#Cc_0_2e2e59a1d5" x="289.562317" y="80.89465" style="fill: #fbc5f4"/>
    </g>
    <g clip-path="url(#p30aec3dcc3)">
     <use xlink:href="#Cc_0_2e2e59a1d5" x="291.62146" y="86.918162" style="fill: #fbc5f4"/>
    </g>
    <g clip-path="url(#p30aec3dcc3)">
     <use xlink:href="#Cc_0_2e2e59a1d5" x="289.708028" y="80.714743" style="fill: #fbc5f4"/>
    </g>
    <g clip-path="url(#p30aec3dcc3)">
     <use xlink:href="#Cc_0_2e2e59a1d5" x="289.723543" y="80.854409" style="fill: #fbc5f4"/>
    </g>
    <g clip-path="url(#p30aec3dcc3)">
     <use xlink:href="#Cc_0_2e2e59a1d5" x="291.892301" y="84.397608" style="fill: #fbc5f4"/>
    </g>
    <g clip-path="url(#p30aec3dcc3)">
     <use xlink:href="#Cc_0_2e2e59a1d5" x="290.620691" y="87.547321" style="fill: #fbc5f4"/>
    </g>
    <g clip-path="url(#p30aec3dcc3)">
     <use xlink:href="#Cc_0_2e2e59a1d5" x="289.299126" y="82.450443" style="fill: #fbc5f4"/>
    </g>
    <g clip-path="url(#p30aec3dcc3)">
     <use xlink:href="#Cc_0_2e2e59a1d5" x="289.96126" y="83.913991" style="fill: #fbc5f4"/>
    </g>
   </g>
   <g id="PathCollection_14">
    <defs>
     <path id="Cd_0_1f12f4fe0d" d="M 0 2.5 
C 0.663008 2.5 1.29895 2.236584 1.767767 1.767767 
C 2.236584 1.29895 2.5 0.663008 2.5 -0 
C 2.5 -0.663008 2.236584 -1.29895 1.767767 -1.767767 
C 1.29895 -2.236584 0.663008 -2.5 0 -2.5 
C -0.663008 -2.5 -1.29895 -2.236584 -1.767767 -1.767767 
C -2.236584 -1.29895 -2.5 -0.663008 -2.5 0 
C -2.5 0.663008 -2.236584 1.29895 -1.767767 1.767767 
C -1.29895 2.236584 -0.663008 2.5 0 2.5 
z
"/>
    </defs>
    <g clip-path="url(#p30aec3dcc3)">
     <use xlink:href="#Cd_0_1f12f4fe0d" x="304.103896" y="73.810654" style="fill: #ffb7bc"/>
    </g>
    <g clip-path="url(#p30aec3dcc3)">
     <use xlink:href="#Cd_0_1f12f4fe0d" x="305.58794" y="77.33628" style="fill: #ffb7bc"/>
    </g>
    <g clip-path="url(#p30aec3dcc3)">
     <use xlink:href="#Cd_0_1f12f4fe0d" x="305.756814" y="69.044782" style="fill: #ffb7bc"/>
    </g>
    <g clip-path="url(#p30aec3dcc3)">
     <use xlink:href="#Cd_0_1f12f4fe0d" x="303.726677" y="89.945398" style="fill: #ffb7bc"/>
    </g>
    <g clip-path="url(#p30aec3dcc3)">
     <use xlink:href="#Cd_0_1f12f4fe0d" x="303.549484" y="65.183735" style="fill: #ffb7bc"/>
    </g>
    <g clip-path="url(#p30aec3dcc3)">
     <use xlink:href="#Cd_0_1f12f4fe0d" x="303.491444" y="75.404732" style="fill: #ffb7bc"/>
    </g>
    <g clip-path="url(#p30aec3dcc3)">
     <use xlink:href="#Cd_0_1f12f4fe0d" x="305.927447" y="71.819167" style="fill: #ffb7bc"/>
    </g>
    <g clip-path="url(#p30aec3dcc3)">
     <use xlink:href="#Cd_0_1f12f4fe0d" x="304.851461" y="72.374808" style="fill: #ffb7bc"/>
    </g>
    <g clip-path="url(#p30aec3dcc3)">
     <use xlink:href="#Cd_0_1f12f4fe0d" x="303.063905" y="77.152763" style="fill: #ffb7bc"/>
    </g>
    <g clip-path="url(#p30aec3dcc3)">
     <use xlink:href="#Cd_0_1f12f4fe0d" x="304.528781" y="76.519941" style="fill: #ffb7bc"/>
    </g>
   </g>
   <g id="PathCollection_15">
    <defs>
     <path id="Ce_0_d16a32752f" d="M 0 2.5 
C 0.663008 2.5 1.29895 2.236584 1.767767 1.767767 
C 2.236584 1.29895 2.5 0.663008 2.5 -0 
C 2.5 -0.663008 2.236584 -1.29895 1.767767 -1.767767 
C 1.29895 -2.236584 0.663008 -2.5 0 -2.5 
C -0.663008 -2.5 -1.29895 -2.236584 -1.767767 -1.767767 
C -2.236584 -1.29895 -2.5 -0.663008 -2.5 0 
C -2.5 0.663008 -2.236584 1.29895 -1.767767 1.767767 
C -1.29895 2.236584 -0.663008 2.5 0 2.5 
z
"/>
    </defs>
    <g clip-path="url(#p30aec3dcc3)">
     <use xlink:href="#Ce_0_d16a32752f" x="317.840487" y="76.629362" style="fill: #bdc0ff"/>
    </g>
    <g clip-path="url(#p30aec3dcc3)">
     <use xlink:href="#Ce_0_d16a32752f" x="318.804564" y="70.987463" style="fill: #bdc0ff"/>
    </g>
    <g clip-path="url(#p30aec3dcc3)">
     <use xlink:href="#Ce_0_d16a32752f" x="318.037354" y="73.15277" style="fill: #bdc0ff"/>
    </g>
    <g clip-path="url(#p30aec3dcc3)">
     <use xlink:href="#Ce_0_d16a32752f" x="317.466539" y="81.177535" style="fill: #bdc0ff"/>
    </g>
    <g clip-path="url(#p30aec3dcc3)">
     <use xlink:href="#Ce_0_d16a32752f" x="318.823744" y="71.631641" style="fill: #bdc0ff"/>
    </g>
    <g clip-path="url(#p30aec3dcc3)">
     <use xlink:href="#Ce_0_d16a32752f" x="317.250928" y="76.906525" style="fill: #bdc0ff"/>
    </g>
    <g clip-path="url(#p30aec3dcc3)">
     <use xlink:href="#Ce_0_d16a32752f" x="318.923035" y="73.353772" style="fill: #bdc0ff"/>
    </g>
    <g clip-path="url(#p30aec3dcc3)">
     <use xlink:href="#Ce_0_d16a32752f" x="318.196366" y="74.078538" style="fill: #bdc0ff"/>
    </g>
    <g clip-path="url(#p30aec3dcc3)">
     <use xlink:href="#Ce_0_d16a32752f" x="318.829496" y="72.753967" style="fill: #bdc0ff"/>
    </g>
    <g clip-path="url(#p30aec3dcc3)">
     <use xlink:href="#Ce_0_d16a32752f" x="316.868897" y="72.954745" style="fill: #bdc0ff"/>
    </g>
   </g>
   <g id="PathCollection_16">
    <defs>
     <path id="Cf_0_2d54db0250" d="M 0 2.5 
C 0.663008 2.5 1.29895 2.236584 1.767767 1.767767 
C 2.236584 1.29895 2.5 0.663008 2.5 -0 
C 2.5 -0.663008 2.236584 -1.29895 1.767767 -1.767767 
C 1.29895 -2.236584 0.663008 -2.5 0 -2.5 
C -0.663008 -2.5 -1.29895 -2.236584 -1.767767 -1.767767 
C -2.236584 -1.29895 -2.5 -0.663008 -2.5 0 
C -2.5 0.663008 -2.236584 1.29895 -1.767767 1.767767 
C -1.29895 2.236584 -0.663008 2.5 0 2.5 
z
"/>
    </defs>
    <g clip-path="url(#p30aec3dcc3)">
     <use xlink:href="#Cf_0_2d54db0250" x="341.963967" y="182.285502" style="fill: #fbc5f4"/>
    </g>
    <g clip-path="url(#p30aec3dcc3)">
     <use xlink:href="#Cf_0_2d54db0250" x="341.124812" y="203.830761" style="fill: #fbc5f4"/>
    </g>
    <g clip-path="url(#p30aec3dcc3)">
     <use xlink:href="#Cf_0_2d54db0250" x="343.109766" y="219.317832" style="fill: #fbc5f4"/>
    </g>
    <g clip-path="url(#p30aec3dcc3)">
     <use xlink:href="#Cf_0_2d54db0250" x="343.146866" y="193.003631" style="fill: #fbc5f4"/>
    </g>
    <g clip-path="url(#p30aec3dcc3)">
     <use xlink:href="#Cf_0_2d54db0250" x="343.699794" y="214.422437" style="fill: #fbc5f4"/>
    </g>
    <g clip-path="url(#p30aec3dcc3)">
     <use xlink:href="#Cf_0_2d54db0250" x="341.930926" y="196.409061" style="fill: #fbc5f4"/>
    </g>
    <g clip-path="url(#p30aec3dcc3)">
     <use xlink:href="#Cf_0_2d54db0250" x="340.800519" y="197.822687" style="fill: #fbc5f4"/>
    </g>
    <g clip-path="url(#p30aec3dcc3)">
     <use xlink:href="#Cf_0_2d54db0250" x="341.270908" y="193.823397" style="fill: #fbc5f4"/>
    </g>
    <g clip-path="url(#p30aec3dcc3)">
     <use xlink:href="#Cf_0_2d54db0250" x="341.133805" y="186.387392" style="fill: #fbc5f4"/>
    </g>
    <g clip-path="url(#p30aec3dcc3)">
     <use xlink:href="#Cf_0_2d54db0250" x="342.395976" y="204.444269" style="fill: #fbc5f4"/>
    </g>
   </g>
   <g id="PathCollection_17">
    <defs>
     <path id="C10_0_ab680ac8c7" d="M 0 2.5 
C 0.663008 2.5 1.29895 2.236584 1.767767 1.767767 
C 2.236584 1.29895 2.5 0.663008 2.5 -0 
C 2.5 -0.663008 2.236584 -1.29895 1.767767 -1.767767 
C 1.29895 -2.236584 0.663008 -2.5 0 -2.5 
C -0.663008 -2.5 -1.29895 -2.236584 -1.767767 -1.767767 
C -2.236584 -1.29895 -2.5 -0.663008 -2.5 0 
C -2.5 0.663008 -2.236584 1.29895 -1.767767 1.767767 
C -1.29895 2.236584 -0.663008 2.5 0 2.5 
z
"/>
    </defs>
    <g clip-path="url(#p30aec3dcc3)">
     <use xlink:href="#C10_0_ab680ac8c7" x="355.029434" y="136.535903" style="fill: #ffb7bc"/>
    </g>
    <g clip-path="url(#p30aec3dcc3)">
     <use xlink:href="#C10_0_ab680ac8c7" x="355.78359" y="130.837576" style="fill: #ffb7bc"/>
    </g>
    <g clip-path="url(#p30aec3dcc3)">
     <use xlink:href="#C10_0_ab680ac8c7" x="355.959348" y="123.219003" style="fill: #ffb7bc"/>
    </g>
    <g clip-path="url(#p30aec3dcc3)">
     <use xlink:href="#C10_0_ab680ac8c7" x="356.014756" y="151.929779" style="fill: #ffb7bc"/>
    </g>
    <g clip-path="url(#p30aec3dcc3)">
     <use xlink:href="#C10_0_ab680ac8c7" x="355.661457" y="124.083851" style="fill: #ffb7bc"/>
    </g>
    <g clip-path="url(#p30aec3dcc3)">
     <use xlink:href="#C10_0_ab680ac8c7" x="355.920547" y="129.211333" style="fill: #ffb7bc"/>
    </g>
    <g clip-path="url(#p30aec3dcc3)">
     <use xlink:href="#C10_0_ab680ac8c7" x="357.003612" y="131.818329" style="fill: #ffb7bc"/>
    </g>
    <g clip-path="url(#p30aec3dcc3)">
     <use xlink:href="#C10_0_ab680ac8c7" x="354.676647" y="131.38308" style="fill: #ffb7bc"/>
    </g>
    <g clip-path="url(#p30aec3dcc3)">
     <use xlink:href="#C10_0_ab680ac8c7" x="354.964175" y="133.563846" style="fill: #ffb7bc"/>
    </g>
    <g clip-path="url(#p30aec3dcc3)">
     <use xlink:href="#C10_0_ab680ac8c7" x="357.127614" y="138.25948" style="fill: #ffb7bc"/>
    </g>
   </g>
   <g id="PathCollection_18">
    <defs>
     <path id="C11_0_c316921654" d="M 0 2.5 
C 0.663008 2.5 1.29895 2.236584 1.767767 1.767767 
C 2.236584 1.29895 2.5 0.663008 2.5 -0 
C 2.5 -0.663008 2.236584 -1.29895 1.767767 -1.767767 
C 1.29895 -2.236584 0.663008 -2.5 0 -2.5 
C -0.663008 -2.5 -1.29895 -2.236584 -1.767767 -1.767767 
C -2.236584 -1.29895 -2.5 -0.663008 -2.5 0 
C -2.5 0.663008 -2.236584 1.29895 -1.767767 1.767767 
C -1.29895 2.236584 -0.663008 2.5 0 2.5 
z
"/>
    </defs>
    <g clip-path="url(#p30aec3dcc3)">
     <use xlink:href="#C11_0_c316921654" x="367.900193" y="139.026014" style="fill: #bdc0ff"/>
    </g>
    <g clip-path="url(#p30aec3dcc3)">
     <use xlink:href="#C11_0_c316921654" x="369.639653" y="128.352463" style="fill: #bdc0ff"/>
    </g>
    <g clip-path="url(#p30aec3dcc3)">
     <use xlink:href="#C11_0_c316921654" x="369.727939" y="127.095922" style="fill: #bdc0ff"/>
    </g>
    <g clip-path="url(#p30aec3dcc3)">
     <use xlink:href="#C11_0_c316921654" x="370.878827" y="137.51862" style="fill: #bdc0ff"/>
    </g>
    <g clip-path="url(#p30aec3dcc3)">
     <use xlink:href="#C11_0_c316921654" x="370.185385" y="133.081501" style="fill: #bdc0ff"/>
    </g>
    <g clip-path="url(#p30aec3dcc3)">
     <use xlink:href="#C11_0_c316921654" x="369.178891" y="141.486334" style="fill: #bdc0ff"/>
    </g>
    <g clip-path="url(#p30aec3dcc3)">
     <use xlink:href="#C11_0_c316921654" x="368.115714" y="138.278304" style="fill: #bdc0ff"/>
    </g>
    <g clip-path="url(#p30aec3dcc3)">
     <use xlink:href="#C11_0_c316921654" x="368.19976" y="125.789428" style="fill: #bdc0ff"/>
    </g>
    <g clip-path="url(#p30aec3dcc3)">
     <use xlink:href="#C11_0_c316921654" x="369.957975" y="123.725665" style="fill: #bdc0ff"/>
    </g>
    <g clip-path="url(#p30aec3dcc3)">
     <use xlink:href="#C11_0_c316921654" x="369.748113" y="139.491565" style="fill: #bdc0ff"/>
    </g>
   </g>
   <g id="patch_3">
    <path d="M 79.286761 76.436757 
L 92.678761 76.436757 
L 92.678761 67.319893 
L 79.286761 67.319893 
L 79.286761 76.436757 
z
" clip-path="url(#p30aec3dcc3)" style="fill: #f4ccef; stroke: #000000; stroke-linejoin: miter"/>
   </g>
   <g id="patch_4">
    <path d="M 92.952068 69.094003 
L 106.344068 69.094003 
L 106.344068 64.993256 
L 92.952068 64.993256 
L 92.952068 69.094003 
z
" clip-path="url(#p30aec3dcc3)" style="fill: #f6c0c4; stroke: #000000; stroke-linejoin: miter"/>
   </g>
   <g id="patch_5">
    <path d="M 106.617374 71.387986 
L 120.009374 71.387986 
L 120.009374 64.040409 
L 106.617374 64.040409 
L 106.617374 71.387986 
z
" clip-path="url(#p30aec3dcc3)" style="fill: #c5c7f7; stroke: #000000; stroke-linejoin: miter"/>
   </g>
   <g id="patch_6">
    <path d="M 130.531659 80.569554 
L 143.923659 80.569554 
L 143.923659 72.184863 
L 130.531659 72.184863 
L 130.531659 80.569554 
z
" clip-path="url(#p30aec3dcc3)" style="fill: #f4ccef; stroke: #000000; stroke-linejoin: miter"/>
   </g>
   <g id="patch_7">
    <path d="M 144.196966 75.128443 
L 157.588966 75.128443 
L 157.588966 71.031315 
L 144.196966 71.031315 
L 144.196966 75.128443 
z
" clip-path="url(#p30aec3dcc3)" style="fill: #f6c0c4; stroke: #000000; stroke-linejoin: miter"/>
   </g>
   <g id="patch_8">
    <path d="M 157.862272 79.210096 
L 171.254272 79.210096 
L 171.254272 69.166388 
L 157.862272 69.166388 
L 157.862272 79.210096 
z
" clip-path="url(#p30aec3dcc3)" style="fill: #c5c7f7; stroke: #000000; stroke-linejoin: miter"/>
   </g>
   <g id="patch_9">
    <path d="M 181.776557 63.851218 
L 195.168557 63.851218 
L 195.168557 57.956283 
L 181.776557 57.956283 
L 181.776557 63.851218 
z
" clip-path="url(#p30aec3dcc3)" style="fill: #f4ccef; stroke: #000000; stroke-linejoin: miter"/>
   </g>
   <g id="patch_10">
    <path d="M 195.441864 63.16042 
L 208.833864 63.16042 
L 208.833864 59.549653 
L 195.441864 59.549653 
L 195.441864 63.16042 
z
" clip-path="url(#p30aec3dcc3)" style="fill: #f6c0c4; stroke: #000000; stroke-linejoin: miter"/>
   </g>
   <g id="patch_11">
    <path d="M 209.10717 62.65937 
L 222.49917 62.65937 
L 222.49917 59.517052 
L 209.10717 59.517052 
L 209.10717 62.65937 
z
" clip-path="url(#p30aec3dcc3)" style="fill: #c5c7f7; stroke: #000000; stroke-linejoin: miter"/>
   </g>
   <g id="patch_12">
    <path d="M 233.021455 60.206486 
L 246.413455 60.206486 
L 246.413455 55.147686 
L 233.021455 55.147686 
L 233.021455 60.206486 
z
" clip-path="url(#p30aec3dcc3)" style="fill: #f4ccef; stroke: #000000; stroke-linejoin: miter"/>
   </g>
   <g id="patch_13">
    <path d="M 246.686761 59.816266 
L 260.078761 59.816266 
L 260.078761 55.62234 
L 246.686761 55.62234 
L 246.686761 59.816266 
z
" clip-path="url(#p30aec3dcc3)" style="fill: #f6c0c4; stroke: #000000; stroke-linejoin: miter"/>
   </g>
   <g id="patch_14">
    <path d="M 260.352068 59.004418 
L 273.744068 59.004418 
L 273.744068 55.136867 
L 260.352068 55.136867 
L 260.352068 59.004418 
z
" clip-path="url(#p30aec3dcc3)" style="fill: #c5c7f7; stroke: #000000; stroke-linejoin: miter"/>
   </g>
   <g id="patch_15">
    <path d="M 284.266353 85.406691 
L 297.658353 85.406691 
L 297.658353 81.283599 
L 284.266353 81.283599 
L 284.266353 85.406691 
z
" clip-path="url(#p30aec3dcc3)" style="fill: #f4ccef; stroke: #000000; stroke-linejoin: miter"/>
   </g>
   <g id="patch_16">
    <path d="M 297.931659 76.994558 
L 311.323659 76.994558 
L 311.323659 71.958078 
L 297.931659 71.958078 
L 297.931659 76.994558 
z
" clip-path="url(#p30aec3dcc3)" style="fill: #f6c0c4; stroke: #000000; stroke-linejoin: miter"/>
   </g>
   <g id="patch_17">
    <path d="M 311.596966 75.991656 
L 324.988966 75.991656 
L 324.988966 72.804162 
L 311.596966 72.804162 
L 311.596966 75.991656 
z
" clip-path="url(#p30aec3dcc3)" style="fill: #c5c7f7; stroke: #000000; stroke-linejoin: miter"/>
   </g>
   <g id="patch_18">
    <path d="M 335.511251 204.290892 
L 348.903251 204.290892 
L 348.903251 193.208573 
L 335.511251 193.208573 
L 335.511251 204.290892 
z
" clip-path="url(#p30aec3dcc3)" style="fill: #f4ccef; stroke: #000000; stroke-linejoin: miter"/>
   </g>
   <g id="patch_19">
    <path d="M 349.176557 135.792889 
L 362.568557 135.792889 
L 362.568557 129.617894 
L 349.176557 129.617894 
L 349.176557 135.792889 
z
" clip-path="url(#p30aec3dcc3)" style="fill: #f6c0c4; stroke: #000000; stroke-linejoin: miter"/>
   </g>
   <g id="patch_20">
    <path d="M 362.841864 138.839086 
L 376.233864 138.839086 
L 376.233864 127.410057 
L 362.841864 127.410057 
L 362.841864 138.839086 
z
" clip-path="url(#p30aec3dcc3)" style="fill: #c5c7f7; stroke: #000000; stroke-linejoin: miter"/>
   </g>
   <g id="patch_21">
    <path d="M 99.648068 3714.766924 
L 99.648068 3714.766924 
L 99.648068 3714.766924 
L 99.648068 3714.766924 
z
" clip-path="url(#p30aec3dcc3)" style="fill: #f4ccef; stroke: #838383; stroke-width: 0.75; stroke-linejoin: miter"/>
   </g>
   <g id="patch_22">
    <path d="M 99.648068 3714.766924 
L 99.648068 3714.766924 
L 99.648068 3714.766924 
L 99.648068 3714.766924 
z
" clip-path="url(#p30aec3dcc3)" style="fill: #f6c0c4; stroke: #838383; stroke-width: 0.75; stroke-linejoin: miter"/>
   </g>
   <g id="patch_23">
    <path d="M 99.648068 3714.766924 
L 99.648068 3714.766924 
L 99.648068 3714.766924 
L 99.648068 3714.766924 
z
" clip-path="url(#p30aec3dcc3)" style="fill: #c5c7f7; stroke: #838383; stroke-width: 0.75; stroke-linejoin: miter"/>
   </g>
   <g id="PathCollection_19"/>
   <g id="PathCollection_20"/>
   <g id="PathCollection_21"/>
   <g id="matplotlib.axis_1">
    <g id="xtick_1">
     <g id="line2d_1">
      <defs>
       <path id="m195ffedcee" d="M 0 0 
L 0 3.5 
" style="stroke: #000000; stroke-width: 1.5"/>
      </defs>
      <g>
       <use xlink:href="#m195ffedcee" x="99.648068" y="240.526924" style="stroke: #000000; stroke-width: 1.5"/>
      </g>
     </g>
     <g id="text_1">
      <!-- Parity -->
      <g transform="translate(81.755411 257.672549) scale(0.14 -0.14)">
       <defs>
        <path id="LiberationSans-50" d="M 3931 3078 
Q 3931 2453 3523 2084 
Q 3116 1716 2416 1716 
L 1122 1716 
L 1122 0 
L 525 0 
L 525 4403 
L 2378 4403 
Q 3119 4403 3525 4056 
Q 3931 3709 3931 3078 
z
M 3331 3072 
Q 3331 3925 2306 3925 
L 1122 3925 
L 1122 2188 
L 2331 2188 
Q 3331 2188 3331 3072 
z
" transform="scale(0.015625)"/>
        <path id="LiberationSans-61" d="M 1294 -63 
Q 784 -63 528 206 
Q 272 475 272 944 
Q 272 1469 617 1750 
Q 963 2031 1731 2050 
L 2491 2063 
L 2491 2247 
Q 2491 2659 2316 2837 
Q 2141 3016 1766 3016 
Q 1388 3016 1216 2887 
Q 1044 2759 1009 2478 
L 422 2531 
Q 566 3444 1778 3444 
Q 2416 3444 2737 3151 
Q 3059 2859 3059 2306 
L 3059 850 
Q 3059 600 3125 473 
Q 3191 347 3375 347 
Q 3456 347 3559 369 
L 3559 19 
Q 3347 -31 3125 -31 
Q 2813 -31 2670 133 
Q 2528 297 2509 647 
L 2491 647 
Q 2275 259 1989 98 
Q 1703 -63 1294 -63 
z
M 1422 359 
Q 1731 359 1972 500 
Q 2213 641 2352 886 
Q 2491 1131 2491 1391 
L 2491 1669 
L 1875 1656 
Q 1478 1650 1273 1575 
Q 1069 1500 959 1344 
Q 850 1188 850 934 
Q 850 659 998 509 
Q 1147 359 1422 359 
z
" transform="scale(0.015625)"/>
        <path id="LiberationSans-72" d="M 444 0 
L 444 2594 
Q 444 2950 425 3381 
L 956 3381 
Q 981 2806 981 2691 
L 994 2691 
Q 1128 3125 1303 3284 
Q 1478 3444 1797 3444 
Q 1909 3444 2025 3413 
L 2025 2897 
Q 1913 2928 1725 2928 
Q 1375 2928 1190 2626 
Q 1006 2325 1006 1763 
L 1006 0 
L 444 0 
z
" transform="scale(0.015625)"/>
        <path id="LiberationSans-69" d="M 428 4100 
L 428 4638 
L 991 4638 
L 991 4100 
L 428 4100 
z
M 428 0 
L 428 3381 
L 991 3381 
L 991 0 
L 428 0 
z
" transform="scale(0.015625)"/>
        <path id="LiberationSans-74" d="M 1731 25 
Q 1453 -50 1163 -50 
Q 488 -50 488 716 
L 488 2972 
L 97 2972 
L 97 3381 
L 509 3381 
L 675 4138 
L 1050 4138 
L 1050 3381 
L 1675 3381 
L 1675 2972 
L 1050 2972 
L 1050 838 
Q 1050 594 1129 495 
Q 1209 397 1406 397 
Q 1519 397 1731 441 
L 1731 25 
z
" transform="scale(0.015625)"/>
        <path id="LiberationSans-79" d="M 597 -1328 
Q 366 -1328 209 -1294 
L 209 -872 
Q 328 -891 472 -891 
Q 997 -891 1303 -119 
L 1356 16 
L 16 3381 
L 616 3381 
L 1328 1513 
Q 1344 1469 1366 1408 
Q 1388 1347 1506 1000 
Q 1625 653 1634 613 
L 1853 1228 
L 2594 3381 
L 3188 3381 
L 1888 0 
Q 1678 -541 1497 -805 
Q 1316 -1069 1095 -1198 
Q 875 -1328 597 -1328 
z
" transform="scale(0.015625)"/>
       </defs>
       <use xlink:href="#LiberationSans-50"/>
       <use xlink:href="#LiberationSans-61" x="66.699219"/>
       <use xlink:href="#LiberationSans-72" x="122.314453"/>
       <use xlink:href="#LiberationSans-69" x="155.615234"/>
       <use xlink:href="#LiberationSans-74" x="177.832031"/>
       <use xlink:href="#LiberationSans-79" x="205.615234"/>
      </g>
     </g>
    </g>
    <g id="xtick_2">
     <g id="line2d_2">
      <g>
       <use xlink:href="#m195ffedcee" x="150.892966" y="240.526924" style="stroke: #000000; stroke-width: 1.5"/>
      </g>
     </g>
     <g id="text_2">
      <!-- Value -->
      <g transform="translate(133.506716 257.672549) scale(0.14 -0.14)">
       <defs>
        <path id="LiberationSans-56" d="M 2444 0 
L 1825 0 
L 28 4403 
L 656 4403 
L 1875 1303 
L 2138 525 
L 2400 1303 
L 3613 4403 
L 4241 4403 
L 2444 0 
z
" transform="scale(0.015625)"/>
        <path id="LiberationSans-6c" d="M 431 0 
L 431 4638 
L 994 4638 
L 994 0 
L 431 0 
z
" transform="scale(0.015625)"/>
        <path id="LiberationSans-75" d="M 981 3381 
L 981 1238 
Q 981 903 1047 718 
Q 1113 534 1256 453 
Q 1400 372 1678 372 
Q 2084 372 2318 650 
Q 2553 928 2553 1422 
L 2553 3381 
L 3116 3381 
L 3116 722 
Q 3116 131 3134 0 
L 2603 0 
Q 2600 16 2597 84 
Q 2594 153 2589 242 
Q 2584 331 2578 578 
L 2569 578 
Q 2375 228 2120 82 
Q 1866 -63 1488 -63 
Q 931 -63 673 214 
Q 416 491 416 1128 
L 416 3381 
L 981 3381 
z
" transform="scale(0.015625)"/>
        <path id="LiberationSans-65" d="M 863 1572 
Q 863 991 1103 675 
Q 1344 359 1806 359 
Q 2172 359 2392 506 
Q 2613 653 2691 878 
L 3184 738 
Q 2881 -63 1806 -63 
Q 1056 -63 664 384 
Q 272 831 272 1713 
Q 272 2550 664 2997 
Q 1056 3444 1784 3444 
Q 3275 3444 3275 1647 
L 3275 1572 
L 863 1572 
z
M 2694 2003 
Q 2647 2538 2422 2783 
Q 2197 3028 1775 3028 
Q 1366 3028 1127 2754 
Q 888 2481 869 2003 
L 2694 2003 
z
" transform="scale(0.015625)"/>
       </defs>
       <use xlink:href="#LiberationSans-56"/>
       <use xlink:href="#LiberationSans-61" x="59.324219"/>
       <use xlink:href="#LiberationSans-6c" x="114.939453"/>
       <use xlink:href="#LiberationSans-75" x="137.15625"/>
       <use xlink:href="#LiberationSans-65" x="192.771484"/>
      </g>
     </g>
    </g>
    <g id="xtick_3">
     <g id="line2d_3">
      <g>
       <use xlink:href="#m195ffedcee" x="202.137864" y="240.526924" style="stroke: #000000; stroke-width: 1.5"/>
      </g>
     </g>
     <g id="text_3">
      <!-- Prime -->
      <g transform="translate(183.859114 257.672549) scale(0.14 -0.14)">
       <defs>
        <path id="LiberationSans-6d" d="M 2400 0 
L 2400 2144 
Q 2400 2634 2265 2821 
Q 2131 3009 1781 3009 
Q 1422 3009 1212 2734 
Q 1003 2459 1003 1959 
L 1003 0 
L 444 0 
L 444 2659 
Q 444 3250 425 3381 
L 956 3381 
Q 959 3366 962 3297 
Q 966 3228 970 3139 
Q 975 3050 981 2803 
L 991 2803 
Q 1172 3163 1406 3303 
Q 1641 3444 1978 3444 
Q 2363 3444 2586 3291 
Q 2809 3138 2897 2803 
L 2906 2803 
Q 3081 3144 3329 3294 
Q 3578 3444 3931 3444 
Q 4444 3444 4676 3166 
Q 4909 2888 4909 2253 
L 4909 0 
L 4353 0 
L 4353 2144 
Q 4353 2634 4218 2821 
Q 4084 3009 3734 3009 
Q 3366 3009 3161 2736 
Q 2956 2463 2956 1959 
L 2956 0 
L 2400 0 
z
" transform="scale(0.015625)"/>
       </defs>
       <use xlink:href="#LiberationSans-50"/>
       <use xlink:href="#LiberationSans-72" x="66.699219"/>
       <use xlink:href="#LiberationSans-69" x="100"/>
       <use xlink:href="#LiberationSans-6d" x="122.216797"/>
       <use xlink:href="#LiberationSans-65" x="205.517578"/>
      </g>
     </g>
    </g>
    <g id="xtick_4">
     <g id="line2d_4">
      <g>
       <use xlink:href="#m195ffedcee" x="253.382761" y="240.526924" style="stroke: #000000; stroke-width: 1.5"/>
      </g>
     </g>
     <g id="text_4">
      <!-- Fib. -->
      <g transform="translate(241.714636 257.672549) scale(0.14 -0.14)">
       <defs>
        <path id="LiberationSans-46" d="M 1122 3916 
L 1122 2278 
L 3578 2278 
L 3578 1784 
L 1122 1784 
L 1122 0 
L 525 0 
L 525 4403 
L 3653 4403 
L 3653 3916 
L 1122 3916 
z
" transform="scale(0.015625)"/>
        <path id="LiberationSans-62" d="M 3291 1706 
Q 3291 -63 2047 -63 
Q 1663 -63 1408 76 
Q 1153 216 994 525 
L 988 525 
Q 988 428 975 229 
Q 963 31 956 0 
L 413 0 
Q 431 169 431 697 
L 431 4638 
L 994 4638 
L 994 3316 
Q 994 3113 981 2838 
L 994 2838 
Q 1150 3163 1408 3303 
Q 1666 3444 2047 3444 
Q 2688 3444 2989 3012 
Q 3291 2581 3291 1706 
z
M 2700 1688 
Q 2700 2397 2512 2703 
Q 2325 3009 1903 3009 
Q 1428 3009 1211 2684 
Q 994 2359 994 1653 
Q 994 988 1206 670 
Q 1419 353 1897 353 
Q 2322 353 2511 667 
Q 2700 981 2700 1688 
z
" transform="scale(0.015625)"/>
        <path id="LiberationSans-2e" d="M 584 0 
L 584 684 
L 1194 684 
L 1194 0 
L 584 0 
z
" transform="scale(0.015625)"/>
       </defs>
       <use xlink:href="#LiberationSans-46"/>
       <use xlink:href="#LiberationSans-69" x="61.083984"/>
       <use xlink:href="#LiberationSans-62" x="83.300781"/>
       <use xlink:href="#LiberationSans-2e" x="138.916016"/>
      </g>
     </g>
    </g>
    <g id="xtick_5">
     <g id="line2d_5">
      <g>
       <use xlink:href="#m195ffedcee" x="304.627659" y="240.526924" style="stroke: #000000; stroke-width: 1.5"/>
      </g>
     </g>
     <g id="text_5">
      <!-- Mul. 3 -->
      <g transform="translate(285.566878 257.672549) scale(0.14 -0.14)">
       <defs>
        <path id="LiberationSans-4d" d="M 4269 0 
L 4269 2938 
Q 4269 3425 4297 3875 
Q 4144 3316 4022 3000 
L 2884 0 
L 2466 0 
L 1313 3000 
L 1138 3531 
L 1034 3875 
L 1044 3528 
L 1056 2938 
L 1056 0 
L 525 0 
L 525 4403 
L 1309 4403 
L 2481 1350 
Q 2544 1166 2601 955 
Q 2659 744 2678 650 
Q 2703 775 2783 1029 
Q 2863 1284 2891 1350 
L 4041 4403 
L 4806 4403 
L 4806 0 
L 4269 0 
z
" transform="scale(0.015625)"/>
        <path id="LiberationSans-20" transform="scale(0.015625)"/>
        <path id="LiberationSans-33" d="M 3278 1216 
Q 3278 606 2890 271 
Q 2503 -63 1784 -63 
Q 1116 -63 717 239 
Q 319 541 244 1131 
L 825 1184 
Q 938 403 1784 403 
Q 2209 403 2451 612 
Q 2694 822 2694 1234 
Q 2694 1594 2417 1795 
Q 2141 1997 1619 1997 
L 1300 1997 
L 1300 2484 
L 1606 2484 
Q 2069 2484 2323 2686 
Q 2578 2888 2578 3244 
Q 2578 3597 2370 3801 
Q 2163 4006 1753 4006 
Q 1381 4006 1151 3815 
Q 922 3625 884 3278 
L 319 3322 
Q 381 3863 767 4166 
Q 1153 4469 1759 4469 
Q 2422 4469 2789 4161 
Q 3156 3853 3156 3303 
Q 3156 2881 2920 2617 
Q 2684 2353 2234 2259 
L 2234 2247 
Q 2728 2194 3003 1916 
Q 3278 1638 3278 1216 
z
" transform="scale(0.015625)"/>
       </defs>
       <use xlink:href="#LiberationSans-4d"/>
       <use xlink:href="#LiberationSans-75" x="83.300781"/>
       <use xlink:href="#LiberationSans-6c" x="138.916016"/>
       <use xlink:href="#LiberationSans-2e" x="161.132812"/>
       <use xlink:href="#LiberationSans-20" x="188.916016"/>
       <use xlink:href="#LiberationSans-33" x="216.699219"/>
      </g>
     </g>
    </g>
    <g id="xtick_6">
     <g id="line2d_6">
      <g>
       <use xlink:href="#m195ffedcee" x="355.872557" y="240.526924" style="stroke: #000000; stroke-width: 1.5"/>
      </g>
     </g>
     <g id="text_6">
      <!-- Joint -->
      <g transform="translate(341.087245 257.672549) scale(0.14 -0.14)">
       <defs>
        <path id="LiberationSans-4a" d="M 1428 -63 
Q 309 -63 100 1094 
L 684 1191 
Q 741 828 937 625 
Q 1134 422 1431 422 
Q 1756 422 1943 645 
Q 2131 869 2131 1300 
L 2131 3916 
L 1284 3916 
L 1284 4403 
L 2725 4403 
L 2725 1313 
Q 2725 672 2378 304 
Q 2031 -63 1428 -63 
z
" transform="scale(0.015625)"/>
        <path id="LiberationSans-6f" d="M 3291 1694 
Q 3291 806 2900 371 
Q 2509 -63 1766 -63 
Q 1025 -63 647 389 
Q 269 841 269 1694 
Q 269 3444 1784 3444 
Q 2559 3444 2925 3017 
Q 3291 2591 3291 1694 
z
M 2700 1694 
Q 2700 2394 2492 2711 
Q 2284 3028 1794 3028 
Q 1300 3028 1079 2704 
Q 859 2381 859 1694 
Q 859 1025 1076 689 
Q 1294 353 1759 353 
Q 2266 353 2483 678 
Q 2700 1003 2700 1694 
z
" transform="scale(0.015625)"/>
        <path id="LiberationSans-6e" d="M 2578 0 
L 2578 2144 
Q 2578 2478 2512 2662 
Q 2447 2847 2303 2928 
Q 2159 3009 1881 3009 
Q 1475 3009 1240 2731 
Q 1006 2453 1006 1959 
L 1006 0 
L 444 0 
L 444 2659 
Q 444 3250 425 3381 
L 956 3381 
Q 959 3366 962 3297 
Q 966 3228 970 3139 
Q 975 3050 981 2803 
L 991 2803 
Q 1184 3153 1439 3298 
Q 1694 3444 2072 3444 
Q 2628 3444 2886 3167 
Q 3144 2891 3144 2253 
L 3144 0 
L 2578 0 
z
" transform="scale(0.015625)"/>
       </defs>
       <use xlink:href="#LiberationSans-4a"/>
       <use xlink:href="#LiberationSans-6f" x="50"/>
       <use xlink:href="#LiberationSans-69" x="105.615234"/>
       <use xlink:href="#LiberationSans-6e" x="127.832031"/>
       <use xlink:href="#LiberationSans-74" x="183.447266"/>
      </g>
     </g>
    </g>
    <g id="text_7">
     <!-- Task -->
     <g transform="translate(211.315313 276.172549) scale(0.16 -0.16)">
      <defs>
       <path id="LiberationSans-54" d="M 2250 3916 
L 2250 0 
L 1656 0 
L 1656 3916 
L 144 3916 
L 144 4403 
L 3763 4403 
L 3763 3916 
L 2250 3916 
z
" transform="scale(0.015625)"/>
       <path id="LiberationSans-73" d="M 2969 934 
Q 2969 456 2608 196 
Q 2247 -63 1597 -63 
Q 966 -63 623 145 
Q 281 353 178 794 
L 675 891 
Q 747 619 972 492 
Q 1197 366 1597 366 
Q 2025 366 2223 497 
Q 2422 628 2422 891 
Q 2422 1091 2284 1216 
Q 2147 1341 1841 1422 
L 1438 1528 
Q 953 1653 748 1773 
Q 544 1894 428 2066 
Q 313 2238 313 2488 
Q 313 2950 642 3192 
Q 972 3434 1603 3434 
Q 2163 3434 2492 3237 
Q 2822 3041 2909 2606 
L 2403 2544 
Q 2356 2769 2151 2889 
Q 1947 3009 1603 3009 
Q 1222 3009 1040 2893 
Q 859 2778 859 2544 
Q 859 2400 934 2306 
Q 1009 2213 1156 2147 
Q 1303 2081 1775 1966 
Q 2222 1853 2419 1758 
Q 2616 1663 2730 1547 
Q 2844 1431 2906 1279 
Q 2969 1128 2969 934 
z
" transform="scale(0.015625)"/>
       <path id="LiberationSans-6b" d="M 2550 0 
L 1406 1544 
L 994 1203 
L 994 0 
L 431 0 
L 431 4638 
L 994 4638 
L 994 1741 
L 2478 3381 
L 3138 3381 
L 1766 1928 
L 3209 0 
L 2550 0 
z
" transform="scale(0.015625)"/>
      </defs>
      <use xlink:href="#LiberationSans-54"/>
      <use xlink:href="#LiberationSans-61" x="49.958984"/>
      <use xlink:href="#LiberationSans-73" x="105.574219"/>
      <use xlink:href="#LiberationSans-6b" x="155.574219"/>
     </g>
    </g>
   </g>
   <g id="matplotlib.axis_2">
    <g id="ytick_1">
     <g id="line2d_7">
      <defs>
       <path id="m2bfad5c6b4" d="M 0 0 
L -3.5 0 
" style="stroke: #000000; stroke-width: 1.5"/>
      </defs>
      <g>
       <use xlink:href="#m2bfad5c6b4" x="60.360313" y="240.526924" style="stroke: #000000; stroke-width: 1.5"/>
      </g>
     </g>
     <g id="text_8">
      <!-- 0.94 -->
      <g transform="translate(26.115 245.599737) scale(0.14 -0.14)">
       <defs>
        <path id="LiberationSans-30" d="M 3309 2203 
Q 3309 1100 2920 518 
Q 2531 -63 1772 -63 
Q 1013 -63 631 515 
Q 250 1094 250 2203 
Q 250 3338 620 3903 
Q 991 4469 1791 4469 
Q 2569 4469 2939 3897 
Q 3309 3325 3309 2203 
z
M 2738 2203 
Q 2738 3156 2517 3584 
Q 2297 4013 1791 4013 
Q 1272 4013 1045 3591 
Q 819 3169 819 2203 
Q 819 1266 1048 831 
Q 1278 397 1778 397 
Q 2275 397 2506 840 
Q 2738 1284 2738 2203 
z
" transform="scale(0.015625)"/>
        <path id="LiberationSans-39" d="M 3256 2291 
Q 3256 1156 2842 546 
Q 2428 -63 1663 -63 
Q 1147 -63 836 154 
Q 525 372 391 856 
L 928 941 
Q 1097 391 1672 391 
Q 2156 391 2422 841 
Q 2688 1291 2700 2125 
Q 2575 1844 2272 1673 
Q 1969 1503 1606 1503 
Q 1013 1503 656 1909 
Q 300 2316 300 2988 
Q 300 3678 687 4073 
Q 1075 4469 1766 4469 
Q 2500 4469 2878 3925 
Q 3256 3381 3256 2291 
z
M 2644 2834 
Q 2644 3366 2400 3689 
Q 2156 4013 1747 4013 
Q 1341 4013 1106 3736 
Q 872 3459 872 2988 
Q 872 2506 1106 2226 
Q 1341 1947 1741 1947 
Q 1984 1947 2193 2058 
Q 2403 2169 2523 2372 
Q 2644 2575 2644 2834 
z
" transform="scale(0.015625)"/>
        <path id="LiberationSans-34" d="M 2753 997 
L 2753 0 
L 2222 0 
L 2222 997 
L 147 997 
L 147 1434 
L 2163 4403 
L 2753 4403 
L 2753 1441 
L 3372 1441 
L 3372 997 
L 2753 997 
z
M 2222 3769 
Q 2216 3750 2134 3603 
Q 2053 3456 2013 3397 
L 884 1734 
L 716 1503 
L 666 1441 
L 2222 1441 
L 2222 3769 
z
" transform="scale(0.015625)"/>
       </defs>
       <use xlink:href="#LiberationSans-30"/>
       <use xlink:href="#LiberationSans-2e" x="55.615234"/>
       <use xlink:href="#LiberationSans-39" x="83.398438"/>
       <use xlink:href="#LiberationSans-34" x="139.013672"/>
      </g>
     </g>
    </g>
    <g id="ytick_2">
     <g id="line2d_8">
      <g>
       <use xlink:href="#m2bfad5c6b4" x="60.360313" y="203.566924" style="stroke: #000000; stroke-width: 1.5"/>
      </g>
     </g>
     <g id="text_9">
      <!-- 0.95 -->
      <g transform="translate(26.115 208.639737) scale(0.14 -0.14)">
       <defs>
        <path id="LiberationSans-35" d="M 3291 1434 
Q 3291 738 2877 337 
Q 2463 -63 1728 -63 
Q 1113 -63 734 206 
Q 356 475 256 984 
L 825 1050 
Q 1003 397 1741 397 
Q 2194 397 2450 670 
Q 2706 944 2706 1422 
Q 2706 1838 2448 2094 
Q 2191 2350 1753 2350 
Q 1525 2350 1328 2278 
Q 1131 2206 934 2034 
L 384 2034 
L 531 4403 
L 3034 4403 
L 3034 3925 
L 1044 3925 
L 959 2528 
Q 1325 2809 1869 2809 
Q 2519 2809 2905 2428 
Q 3291 2047 3291 1434 
z
" transform="scale(0.015625)"/>
       </defs>
       <use xlink:href="#LiberationSans-30"/>
       <use xlink:href="#LiberationSans-2e" x="55.615234"/>
       <use xlink:href="#LiberationSans-39" x="83.398438"/>
       <use xlink:href="#LiberationSans-35" x="139.013672"/>
      </g>
     </g>
    </g>
    <g id="ytick_3">
     <g id="line2d_9">
      <g>
       <use xlink:href="#m2bfad5c6b4" x="60.360313" y="166.606924" style="stroke: #000000; stroke-width: 1.5"/>
      </g>
     </g>
     <g id="text_10">
      <!-- 0.96 -->
      <g transform="translate(26.115 171.679737) scale(0.14 -0.14)">
       <defs>
        <path id="LiberationSans-36" d="M 3278 1441 
Q 3278 744 2900 340 
Q 2522 -63 1856 -63 
Q 1113 -63 719 490 
Q 325 1044 325 2100 
Q 325 3244 734 3856 
Q 1144 4469 1900 4469 
Q 2897 4469 3156 3572 
L 2619 3475 
Q 2453 4013 1894 4013 
Q 1413 4013 1148 3564 
Q 884 3116 884 2266 
Q 1038 2550 1316 2698 
Q 1594 2847 1953 2847 
Q 2563 2847 2920 2465 
Q 3278 2084 3278 1441 
z
M 2706 1416 
Q 2706 1894 2472 2153 
Q 2238 2413 1819 2413 
Q 1425 2413 1183 2183 
Q 941 1953 941 1550 
Q 941 1041 1192 716 
Q 1444 391 1838 391 
Q 2244 391 2475 664 
Q 2706 938 2706 1416 
z
" transform="scale(0.015625)"/>
       </defs>
       <use xlink:href="#LiberationSans-30"/>
       <use xlink:href="#LiberationSans-2e" x="55.615234"/>
       <use xlink:href="#LiberationSans-39" x="83.398438"/>
       <use xlink:href="#LiberationSans-36" x="139.013672"/>
      </g>
     </g>
    </g>
    <g id="ytick_4">
     <g id="line2d_10">
      <g>
       <use xlink:href="#m2bfad5c6b4" x="60.360313" y="129.646924" style="stroke: #000000; stroke-width: 1.5"/>
      </g>
     </g>
     <g id="text_11">
      <!-- 0.97 -->
      <g transform="translate(26.115 134.719737) scale(0.14 -0.14)">
       <defs>
        <path id="LiberationSans-37" d="M 3238 3947 
Q 2563 2916 2284 2331 
Q 2006 1747 1867 1178 
Q 1728 609 1728 0 
L 1141 0 
Q 1141 844 1498 1776 
Q 1856 2709 2694 3925 
L 328 3925 
L 328 4403 
L 3238 4403 
L 3238 3947 
z
" transform="scale(0.015625)"/>
       </defs>
       <use xlink:href="#LiberationSans-30"/>
       <use xlink:href="#LiberationSans-2e" x="55.615234"/>
       <use xlink:href="#LiberationSans-39" x="83.398438"/>
       <use xlink:href="#LiberationSans-37" x="139.013672"/>
      </g>
     </g>
    </g>
    <g id="ytick_5">
     <g id="line2d_11">
      <g>
       <use xlink:href="#m2bfad5c6b4" x="60.360313" y="92.686924" style="stroke: #000000; stroke-width: 1.5"/>
      </g>
     </g>
     <g id="text_12">
      <!-- 0.98 -->
      <g transform="translate(26.115 97.759737) scale(0.14 -0.14)">
       <defs>
        <path id="LiberationSans-38" d="M 3281 1228 
Q 3281 619 2893 278 
Q 2506 -63 1781 -63 
Q 1075 -63 676 271 
Q 278 606 278 1222 
Q 278 1653 525 1947 
Q 772 2241 1156 2303 
L 1156 2316 
Q 797 2400 589 2681 
Q 381 2963 381 3341 
Q 381 3844 757 4156 
Q 1134 4469 1769 4469 
Q 2419 4469 2795 4162 
Q 3172 3856 3172 3334 
Q 3172 2956 2962 2675 
Q 2753 2394 2391 2322 
L 2391 2309 
Q 2813 2241 3047 1952 
Q 3281 1663 3281 1228 
z
M 2588 3303 
Q 2588 4050 1769 4050 
Q 1372 4050 1164 3862 
Q 956 3675 956 3303 
Q 956 2925 1170 2726 
Q 1384 2528 1775 2528 
Q 2172 2528 2380 2711 
Q 2588 2894 2588 3303 
z
M 2697 1281 
Q 2697 1691 2453 1898 
Q 2209 2106 1769 2106 
Q 1341 2106 1100 1882 
Q 859 1659 859 1269 
Q 859 359 1788 359 
Q 2247 359 2472 579 
Q 2697 800 2697 1281 
z
" transform="scale(0.015625)"/>
       </defs>
       <use xlink:href="#LiberationSans-30"/>
       <use xlink:href="#LiberationSans-2e" x="55.615234"/>
       <use xlink:href="#LiberationSans-39" x="83.398438"/>
       <use xlink:href="#LiberationSans-38" x="139.013672"/>
      </g>
     </g>
    </g>
    <g id="ytick_6">
     <g id="line2d_12">
      <g>
       <use xlink:href="#m2bfad5c6b4" x="60.360313" y="55.726924" style="stroke: #000000; stroke-width: 1.5"/>
      </g>
     </g>
     <g id="text_13">
      <!-- 0.99 -->
      <g transform="translate(26.115 60.799737) scale(0.14 -0.14)">
       <use xlink:href="#LiberationSans-30"/>
       <use xlink:href="#LiberationSans-2e" x="55.615234"/>
       <use xlink:href="#LiberationSans-39" x="83.398438"/>
       <use xlink:href="#LiberationSans-39" x="139.013672"/>
      </g>
     </g>
    </g>
    <g id="ytick_7">
     <g id="line2d_13">
      <g>
       <use xlink:href="#m2bfad5c6b4" x="60.360313" y="18.766924" style="stroke: #000000; stroke-width: 1.5"/>
      </g>
     </g>
     <g id="text_14">
      <!-- 1.00 -->
      <g transform="translate(26.115 23.839737) scale(0.14 -0.14)">
       <defs>
        <path id="LiberationSans-31" d="M 488 0 
L 488 478 
L 1609 478 
L 1609 3866 
L 616 3156 
L 616 3688 
L 1656 4403 
L 2175 4403 
L 2175 478 
L 3247 478 
L 3247 0 
L 488 0 
z
" transform="scale(0.015625)"/>
       </defs>
       <use xlink:href="#LiberationSans-31"/>
       <use xlink:href="#LiberationSans-2e" x="55.615234"/>
       <use xlink:href="#LiberationSans-30" x="83.398438"/>
       <use xlink:href="#LiberationSans-30" x="139.013672"/>
      </g>
     </g>
    </g>
    <g id="text_15">
     <!-- Accuracy -->
     <g transform="translate(18.795 162.544424) rotate(-90) scale(0.16 -0.16)">
      <defs>
       <path id="LiberationSans-41" d="M 3647 0 
L 3144 1288 
L 1138 1288 
L 631 0 
L 13 0 
L 1809 4403 
L 2488 4403 
L 4256 0 
L 3647 0 
z
M 2141 3953 
L 2113 3866 
Q 2034 3606 1881 3200 
L 1319 1753 
L 2966 1753 
L 2400 3206 
Q 2313 3422 2225 3694 
L 2141 3953 
z
" transform="scale(0.015625)"/>
       <path id="LiberationSans-63" d="M 859 1706 
Q 859 1031 1071 706 
Q 1284 381 1713 381 
Q 2013 381 2214 543 
Q 2416 706 2463 1044 
L 3031 1006 
Q 2966 519 2616 228 
Q 2266 -63 1728 -63 
Q 1019 -63 645 385 
Q 272 834 272 1694 
Q 272 2547 647 2995 
Q 1022 3444 1722 3444 
Q 2241 3444 2583 3175 
Q 2925 2906 3013 2434 
L 2434 2391 
Q 2391 2672 2212 2837 
Q 2034 3003 1706 3003 
Q 1259 3003 1059 2706 
Q 859 2409 859 1706 
z
" transform="scale(0.015625)"/>
      </defs>
      <use xlink:href="#LiberationSans-41"/>
      <use xlink:href="#LiberationSans-63" x="66.699219"/>
      <use xlink:href="#LiberationSans-63" x="116.699219"/>
      <use xlink:href="#LiberationSans-75" x="166.699219"/>
      <use xlink:href="#LiberationSans-72" x="222.314453"/>
      <use xlink:href="#LiberationSans-61" x="255.615234"/>
      <use xlink:href="#LiberationSans-63" x="311.230469"/>
      <use xlink:href="#LiberationSans-79" x="361.230469"/>
     </g>
    </g>
   </g>
   <g id="line2d_14">
    <path d="M 85.982761 76.436757 
L 85.982761 83.259462 
" clip-path="url(#p30aec3dcc3)" style="fill: none; stroke: #000000; stroke-linecap: square"/>
   </g>
   <g id="line2d_15">
    <path d="M 85.982761 67.319893 
L 85.982761 62.763102 
" clip-path="url(#p30aec3dcc3)" style="fill: none; stroke: #000000; stroke-linecap: square"/>
   </g>
   <g id="line2d_16">
    <path d="M 82.634761 83.259462 
L 89.330761 83.259462 
" clip-path="url(#p30aec3dcc3)" style="fill: none; stroke: #000000; stroke-linecap: square"/>
   </g>
   <g id="line2d_17">
    <path d="M 82.634761 62.763102 
L 89.330761 62.763102 
" clip-path="url(#p30aec3dcc3)" style="fill: none; stroke: #000000; stroke-linecap: square"/>
   </g>
   <g id="line2d_18">
    <path d="M 99.648068 69.094003 
L 99.648068 73.738052 
" clip-path="url(#p30aec3dcc3)" style="fill: none; stroke: #000000; stroke-linecap: square"/>
   </g>
   <g id="line2d_19">
    <path d="M 99.648068 64.993256 
L 99.648068 64.057849 
" clip-path="url(#p30aec3dcc3)" style="fill: none; stroke: #000000; stroke-linecap: square"/>
   </g>
   <g id="line2d_20">
    <path d="M 96.300068 73.738052 
L 102.996068 73.738052 
" clip-path="url(#p30aec3dcc3)" style="fill: none; stroke: #000000; stroke-linecap: square"/>
   </g>
   <g id="line2d_21">
    <path d="M 96.300068 64.057849 
L 102.996068 64.057849 
" clip-path="url(#p30aec3dcc3)" style="fill: none; stroke: #000000; stroke-linecap: square"/>
   </g>
   <g id="line2d_22">
    <path d="M 113.313374 71.387986 
L 113.313374 72.397426 
" clip-path="url(#p30aec3dcc3)" style="fill: none; stroke: #000000; stroke-linecap: square"/>
   </g>
   <g id="line2d_23">
    <path d="M 113.313374 64.040409 
L 113.313374 61.508283 
" clip-path="url(#p30aec3dcc3)" style="fill: none; stroke: #000000; stroke-linecap: square"/>
   </g>
   <g id="line2d_24">
    <path d="M 109.965374 72.397426 
L 116.661374 72.397426 
" clip-path="url(#p30aec3dcc3)" style="fill: none; stroke: #000000; stroke-linecap: square"/>
   </g>
   <g id="line2d_25">
    <path d="M 109.965374 61.508283 
L 116.661374 61.508283 
" clip-path="url(#p30aec3dcc3)" style="fill: none; stroke: #000000; stroke-linecap: square"/>
   </g>
   <g id="line2d_26">
    <path d="M 137.227659 80.569554 
L 137.227659 87.642651 
" clip-path="url(#p30aec3dcc3)" style="fill: none; stroke: #000000; stroke-linecap: square"/>
   </g>
   <g id="line2d_27">
    <path d="M 137.227659 72.184863 
L 137.227659 70.12394 
" clip-path="url(#p30aec3dcc3)" style="fill: none; stroke: #000000; stroke-linecap: square"/>
   </g>
   <g id="line2d_28">
    <path d="M 133.879659 87.642651 
L 140.575659 87.642651 
" clip-path="url(#p30aec3dcc3)" style="fill: none; stroke: #000000; stroke-linecap: square"/>
   </g>
   <g id="line2d_29">
    <path d="M 133.879659 70.12394 
L 140.575659 70.12394 
" clip-path="url(#p30aec3dcc3)" style="fill: none; stroke: #000000; stroke-linecap: square"/>
   </g>
   <g id="line2d_30">
    <path d="M 150.892966 75.128443 
L 150.892966 76.47254 
" clip-path="url(#p30aec3dcc3)" style="fill: none; stroke: #000000; stroke-linecap: square"/>
   </g>
   <g id="line2d_31">
    <path d="M 150.892966 71.031315 
L 150.892966 67.903633 
" clip-path="url(#p30aec3dcc3)" style="fill: none; stroke: #000000; stroke-linecap: square"/>
   </g>
   <g id="line2d_32">
    <path d="M 147.544966 76.47254 
L 154.240966 76.47254 
" clip-path="url(#p30aec3dcc3)" style="fill: none; stroke: #000000; stroke-linecap: square"/>
   </g>
   <g id="line2d_33">
    <path d="M 147.544966 67.903633 
L 154.240966 67.903633 
" clip-path="url(#p30aec3dcc3)" style="fill: none; stroke: #000000; stroke-linecap: square"/>
   </g>
   <g id="line2d_34">
    <path d="M 164.558272 79.210096 
L 164.558272 81.570466 
" clip-path="url(#p30aec3dcc3)" style="fill: none; stroke: #000000; stroke-linecap: square"/>
   </g>
   <g id="line2d_35">
    <path d="M 164.558272 69.166388 
L 164.558272 65.485755 
" clip-path="url(#p30aec3dcc3)" style="fill: none; stroke: #000000; stroke-linecap: square"/>
   </g>
   <g id="line2d_36">
    <path d="M 161.210272 81.570466 
L 167.906272 81.570466 
" clip-path="url(#p30aec3dcc3)" style="fill: none; stroke: #000000; stroke-linecap: square"/>
   </g>
   <g id="line2d_37">
    <path d="M 161.210272 65.485755 
L 167.906272 65.485755 
" clip-path="url(#p30aec3dcc3)" style="fill: none; stroke: #000000; stroke-linecap: square"/>
   </g>
   <g id="line2d_38">
    <path d="M 188.472557 63.851218 
L 188.472557 71.951775 
" clip-path="url(#p30aec3dcc3)" style="fill: none; stroke: #000000; stroke-linecap: square"/>
   </g>
   <g id="line2d_39">
    <path d="M 188.472557 57.956283 
L 188.472557 51.105593 
" clip-path="url(#p30aec3dcc3)" style="fill: none; stroke: #000000; stroke-linecap: square"/>
   </g>
   <g id="line2d_40">
    <path d="M 185.124557 71.951775 
L 191.820557 71.951775 
" clip-path="url(#p30aec3dcc3)" style="fill: none; stroke: #000000; stroke-linecap: square"/>
   </g>
   <g id="line2d_41">
    <path d="M 185.124557 51.105593 
L 191.820557 51.105593 
" clip-path="url(#p30aec3dcc3)" style="fill: none; stroke: #000000; stroke-linecap: square"/>
   </g>
   <g id="line2d_42">
    <path d="M 202.137864 63.16042 
L 202.137864 65.343768 
" clip-path="url(#p30aec3dcc3)" style="fill: none; stroke: #000000; stroke-linecap: square"/>
   </g>
   <g id="line2d_43">
    <path d="M 202.137864 59.549653 
L 202.137864 56.775493 
" clip-path="url(#p30aec3dcc3)" style="fill: none; stroke: #000000; stroke-linecap: square"/>
   </g>
   <g id="line2d_44">
    <path d="M 198.789864 65.343768 
L 205.485864 65.343768 
" clip-path="url(#p30aec3dcc3)" style="fill: none; stroke: #000000; stroke-linecap: square"/>
   </g>
   <g id="line2d_45">
    <path d="M 198.789864 56.775493 
L 205.485864 56.775493 
" clip-path="url(#p30aec3dcc3)" style="fill: none; stroke: #000000; stroke-linecap: square"/>
   </g>
   <g id="line2d_46">
    <path d="M 215.80317 62.65937 
L 215.80317 65.905458 
" clip-path="url(#p30aec3dcc3)" style="fill: none; stroke: #000000; stroke-linecap: square"/>
   </g>
   <g id="line2d_47">
    <path d="M 215.80317 59.517052 
L 215.80317 58.38634 
" clip-path="url(#p30aec3dcc3)" style="fill: none; stroke: #000000; stroke-linecap: square"/>
   </g>
   <g id="line2d_48">
    <path d="M 212.45517 65.905458 
L 219.15117 65.905458 
" clip-path="url(#p30aec3dcc3)" style="fill: none; stroke: #000000; stroke-linecap: square"/>
   </g>
   <g id="line2d_49">
    <path d="M 212.45517 58.38634 
L 219.15117 58.38634 
" clip-path="url(#p30aec3dcc3)" style="fill: none; stroke: #000000; stroke-linecap: square"/>
   </g>
   <g id="line2d_50">
    <path d="M 239.717455 60.206486 
L 239.717455 64.343543 
" clip-path="url(#p30aec3dcc3)" style="fill: none; stroke: #000000; stroke-linecap: square"/>
   </g>
   <g id="line2d_51">
    <path d="M 239.717455 55.147686 
L 239.717455 52.29279 
" clip-path="url(#p30aec3dcc3)" style="fill: none; stroke: #000000; stroke-linecap: square"/>
   </g>
   <g id="line2d_52">
    <path d="M 236.369455 64.343543 
L 243.065455 64.343543 
" clip-path="url(#p30aec3dcc3)" style="fill: none; stroke: #000000; stroke-linecap: square"/>
   </g>
   <g id="line2d_53">
    <path d="M 236.369455 52.29279 
L 243.065455 52.29279 
" clip-path="url(#p30aec3dcc3)" style="fill: none; stroke: #000000; stroke-linecap: square"/>
   </g>
   <g id="line2d_54">
    <path d="M 253.382761 59.816266 
L 253.382761 60.644472 
" clip-path="url(#p30aec3dcc3)" style="fill: none; stroke: #000000; stroke-linecap: square"/>
   </g>
   <g id="line2d_55">
    <path d="M 253.382761 55.62234 
L 253.382761 51.829465 
" clip-path="url(#p30aec3dcc3)" style="fill: none; stroke: #000000; stroke-linecap: square"/>
   </g>
   <g id="line2d_56">
    <path d="M 250.034761 60.644472 
L 256.730761 60.644472 
" clip-path="url(#p30aec3dcc3)" style="fill: none; stroke: #000000; stroke-linecap: square"/>
   </g>
   <g id="line2d_57">
    <path d="M 250.034761 51.829465 
L 256.730761 51.829465 
" clip-path="url(#p30aec3dcc3)" style="fill: none; stroke: #000000; stroke-linecap: square"/>
   </g>
   <g id="line2d_58">
    <path d="M 267.048068 59.004418 
L 267.048068 60.835901 
" clip-path="url(#p30aec3dcc3)" style="fill: none; stroke: #000000; stroke-linecap: square"/>
   </g>
   <g id="line2d_59">
    <path d="M 267.048068 55.136867 
L 267.048068 52.384564 
" clip-path="url(#p30aec3dcc3)" style="fill: none; stroke: #000000; stroke-linecap: square"/>
   </g>
   <g id="line2d_60">
    <path d="M 263.700068 60.835901 
L 270.396068 60.835901 
" clip-path="url(#p30aec3dcc3)" style="fill: none; stroke: #000000; stroke-linecap: square"/>
   </g>
   <g id="line2d_61">
    <path d="M 263.700068 52.384564 
L 270.396068 52.384564 
" clip-path="url(#p30aec3dcc3)" style="fill: none; stroke: #000000; stroke-linecap: square"/>
   </g>
   <g id="line2d_62">
    <path d="M 290.962353 85.406691 
L 290.962353 87.547321 
" clip-path="url(#p30aec3dcc3)" style="fill: none; stroke: #000000; stroke-linecap: square"/>
   </g>
   <g id="line2d_63">
    <path d="M 290.962353 81.283599 
L 290.962353 80.714743 
" clip-path="url(#p30aec3dcc3)" style="fill: none; stroke: #000000; stroke-linecap: square"/>
   </g>
   <g id="line2d_64">
    <path d="M 287.614353 87.547321 
L 294.310353 87.547321 
" clip-path="url(#p30aec3dcc3)" style="fill: none; stroke: #000000; stroke-linecap: square"/>
   </g>
   <g id="line2d_65">
    <path d="M 287.614353 80.714743 
L 294.310353 80.714743 
" clip-path="url(#p30aec3dcc3)" style="fill: none; stroke: #000000; stroke-linecap: square"/>
   </g>
   <g id="line2d_66">
    <path d="M 304.627659 76.994558 
L 304.627659 77.33628 
" clip-path="url(#p30aec3dcc3)" style="fill: none; stroke: #000000; stroke-linecap: square"/>
   </g>
   <g id="line2d_67">
    <path d="M 304.627659 71.958078 
L 304.627659 65.183735 
" clip-path="url(#p30aec3dcc3)" style="fill: none; stroke: #000000; stroke-linecap: square"/>
   </g>
   <g id="line2d_68">
    <path d="M 301.279659 77.33628 
L 307.975659 77.33628 
" clip-path="url(#p30aec3dcc3)" style="fill: none; stroke: #000000; stroke-linecap: square"/>
   </g>
   <g id="line2d_69">
    <path d="M 301.279659 65.183735 
L 307.975659 65.183735 
" clip-path="url(#p30aec3dcc3)" style="fill: none; stroke: #000000; stroke-linecap: square"/>
   </g>
   <g id="line2d_70">
    <path d="M 318.292966 75.991656 
L 318.292966 76.906525 
" clip-path="url(#p30aec3dcc3)" style="fill: none; stroke: #000000; stroke-linecap: square"/>
   </g>
   <g id="line2d_71">
    <path d="M 318.292966 72.804162 
L 318.292966 70.987463 
" clip-path="url(#p30aec3dcc3)" style="fill: none; stroke: #000000; stroke-linecap: square"/>
   </g>
   <g id="line2d_72">
    <path d="M 314.944966 76.906525 
L 321.640966 76.906525 
" clip-path="url(#p30aec3dcc3)" style="fill: none; stroke: #000000; stroke-linecap: square"/>
   </g>
   <g id="line2d_73">
    <path d="M 314.944966 70.987463 
L 321.640966 70.987463 
" clip-path="url(#p30aec3dcc3)" style="fill: none; stroke: #000000; stroke-linecap: square"/>
   </g>
   <g id="line2d_74">
    <path d="M 342.207251 204.290892 
L 342.207251 219.317832 
" clip-path="url(#p30aec3dcc3)" style="fill: none; stroke: #000000; stroke-linecap: square"/>
   </g>
   <g id="line2d_75">
    <path d="M 342.207251 193.208573 
L 342.207251 182.285502 
" clip-path="url(#p30aec3dcc3)" style="fill: none; stroke: #000000; stroke-linecap: square"/>
   </g>
   <g id="line2d_76">
    <path d="M 338.859251 219.317832 
L 345.555251 219.317832 
" clip-path="url(#p30aec3dcc3)" style="fill: none; stroke: #000000; stroke-linecap: square"/>
   </g>
   <g id="line2d_77">
    <path d="M 338.859251 182.285502 
L 345.555251 182.285502 
" clip-path="url(#p30aec3dcc3)" style="fill: none; stroke: #000000; stroke-linecap: square"/>
   </g>
   <g id="line2d_78">
    <path d="M 355.872557 135.792889 
L 355.872557 138.25948 
" clip-path="url(#p30aec3dcc3)" style="fill: none; stroke: #000000; stroke-linecap: square"/>
   </g>
   <g id="line2d_79">
    <path d="M 355.872557 129.617894 
L 355.872557 123.219003 
" clip-path="url(#p30aec3dcc3)" style="fill: none; stroke: #000000; stroke-linecap: square"/>
   </g>
   <g id="line2d_80">
    <path d="M 352.524557 138.25948 
L 359.220557 138.25948 
" clip-path="url(#p30aec3dcc3)" style="fill: none; stroke: #000000; stroke-linecap: square"/>
   </g>
   <g id="line2d_81">
    <path d="M 352.524557 123.219003 
L 359.220557 123.219003 
" clip-path="url(#p30aec3dcc3)" style="fill: none; stroke: #000000; stroke-linecap: square"/>
   </g>
   <g id="line2d_82">
    <path d="M 369.537864 138.839086 
L 369.537864 141.486334 
" clip-path="url(#p30aec3dcc3)" style="fill: none; stroke: #000000; stroke-linecap: square"/>
   </g>
   <g id="line2d_83">
    <path d="M 369.537864 127.410057 
L 369.537864 123.725665 
" clip-path="url(#p30aec3dcc3)" style="fill: none; stroke: #000000; stroke-linecap: square"/>
   </g>
   <g id="line2d_84">
    <path d="M 366.189864 141.486334 
L 372.885864 141.486334 
" clip-path="url(#p30aec3dcc3)" style="fill: none; stroke: #000000; stroke-linecap: square"/>
   </g>
   <g id="line2d_85">
    <path d="M 366.189864 123.725665 
L 372.885864 123.725665 
" clip-path="url(#p30aec3dcc3)" style="fill: none; stroke: #000000; stroke-linecap: square"/>
   </g>
   <g id="line2d_86">
    <path d="M 290.962353 54.081727 
L 290.962353 50.381058 
L 304.627659 50.381058 
L 304.627659 54.081727 
" style="fill: none; stroke: #333333; stroke-width: 1.5; stroke-linecap: square"/>
   </g>
   <g id="line2d_87">
    <path d="M 342.207251 112.116995 
L 342.207251 108.416326 
L 355.872557 108.416326 
L 355.872557 112.116995 
" style="fill: none; stroke: #333333; stroke-width: 1.5; stroke-linecap: square"/>
   </g>
   <g id="line2d_88">
    <path d="M 290.962353 25.883482 
L 290.962353 22.182812 
L 318.292966 22.182812 
L 318.292966 25.883482 
" style="fill: none; stroke: #333333; stroke-width: 1.5; stroke-linecap: square"/>
   </g>
   <g id="line2d_89">
    <path d="M 342.207251 83.91875 
L 342.207251 80.21808 
L 369.537864 80.21808 
L 369.537864 83.91875 
" style="fill: none; stroke: #333333; stroke-width: 1.5; stroke-linecap: square"/>
   </g>
   <g id="line2d_90">
    <path d="M 79.286761 70.417214 
L 92.678761 70.417214 
" clip-path="url(#p30aec3dcc3)" style="fill: none; stroke: #000000; stroke-linecap: square"/>
   </g>
   <g id="line2d_91">
    <path d="M 92.952068 67.062359 
L 106.344068 67.062359 
" clip-path="url(#p30aec3dcc3)" style="fill: none; stroke: #000000; stroke-linecap: square"/>
   </g>
   <g id="line2d_92">
    <path d="M 106.617374 66.08282 
L 120.009374 66.08282 
" clip-path="url(#p30aec3dcc3)" style="fill: none; stroke: #000000; stroke-linecap: square"/>
   </g>
   <g id="line2d_93">
    <path d="M 130.531659 77.828815 
L 143.923659 77.828815 
" clip-path="url(#p30aec3dcc3)" style="fill: none; stroke: #000000; stroke-linecap: square"/>
   </g>
   <g id="line2d_94">
    <path d="M 144.196966 74.045104 
L 157.588966 74.045104 
" clip-path="url(#p30aec3dcc3)" style="fill: none; stroke: #000000; stroke-linecap: square"/>
   </g>
   <g id="line2d_95">
    <path d="M 157.862272 75.097904 
L 171.254272 75.097904 
" clip-path="url(#p30aec3dcc3)" style="fill: none; stroke: #000000; stroke-linecap: square"/>
   </g>
   <g id="line2d_96">
    <path d="M 181.776557 62.928623 
L 195.168557 62.928623 
" clip-path="url(#p30aec3dcc3)" style="fill: none; stroke: #000000; stroke-linecap: square"/>
   </g>
   <g id="line2d_97">
    <path d="M 195.441864 62.699855 
L 208.833864 62.699855 
" clip-path="url(#p30aec3dcc3)" style="fill: none; stroke: #000000; stroke-linecap: square"/>
   </g>
   <g id="line2d_98">
    <path d="M 209.10717 61.529718 
L 222.49917 61.529718 
" clip-path="url(#p30aec3dcc3)" style="fill: none; stroke: #000000; stroke-linecap: square"/>
   </g>
   <g id="line2d_99">
    <path d="M 233.021455 59.079585 
L 246.413455 59.079585 
" clip-path="url(#p30aec3dcc3)" style="fill: none; stroke: #000000; stroke-linecap: square"/>
   </g>
   <g id="line2d_100">
    <path d="M 246.686761 56.929025 
L 260.078761 56.929025 
" clip-path="url(#p30aec3dcc3)" style="fill: none; stroke: #000000; stroke-linecap: square"/>
   </g>
   <g id="line2d_101">
    <path d="M 260.352068 57.134197 
L 273.744068 57.134197 
" clip-path="url(#p30aec3dcc3)" style="fill: none; stroke: #000000; stroke-linecap: square"/>
   </g>
   <g id="line2d_102">
    <path d="M 284.266353 84.1558 
L 297.658353 84.1558 
" clip-path="url(#p30aec3dcc3)" style="fill: none; stroke: #000000; stroke-linecap: square"/>
   </g>
   <g id="line2d_103">
    <path d="M 297.931659 74.607693 
L 311.323659 74.607693 
" clip-path="url(#p30aec3dcc3)" style="fill: none; stroke: #000000; stroke-linecap: square"/>
   </g>
   <g id="line2d_104">
    <path d="M 311.596966 73.253271 
L 324.988966 73.253271 
" clip-path="url(#p30aec3dcc3)" style="fill: none; stroke: #000000; stroke-linecap: square"/>
   </g>
   <g id="line2d_105">
    <path d="M 335.511251 197.115874 
L 348.903251 197.115874 
" clip-path="url(#p30aec3dcc3)" style="fill: none; stroke: #000000; stroke-linecap: square"/>
   </g>
   <g id="line2d_106">
    <path d="M 349.176557 131.600705 
L 362.568557 131.600705 
" clip-path="url(#p30aec3dcc3)" style="fill: none; stroke: #000000; stroke-linecap: square"/>
   </g>
   <g id="line2d_107">
    <path d="M 362.841864 135.30006 
L 376.233864 135.30006 
" clip-path="url(#p30aec3dcc3)" style="fill: none; stroke: #000000; stroke-linecap: square"/>
   </g>
   <g id="patch_24">
    <path d="M 60.360313 240.526924 
L 60.360313 18.766924 
" style="fill: none; stroke: #000000; stroke-width: 1.5; stroke-linejoin: miter; stroke-linecap: square"/>
   </g>
   <g id="patch_25">
    <path d="M 60.360313 240.526924 
L 395.160313 240.526924 
" style="fill: none; stroke: #000000; stroke-width: 1.5; stroke-linejoin: miter; stroke-linecap: square"/>
   </g>
   <g id="text_16">
    <!-- ** -->
    <g transform="translate(291.956725 46.268558) scale(0.15 -0.15)">
     <defs>
      <path id="LiberationSans-2a" d="M 1425 3481 
L 2250 3803 
L 2391 3391 
L 1509 3163 
L 2088 2381 
L 1716 2156 
L 1247 2963 
L 759 2163 
L 388 2388 
L 978 3163 
L 103 3391 
L 244 3809 
L 1078 3475 
L 1041 4403 
L 1466 4403 
L 1425 3481 
z
" transform="scale(0.015625)"/>
     </defs>
     <use xlink:href="#LiberationSans-2a"/>
     <use xlink:href="#LiberationSans-2a" x="38.916016"/>
    </g>
   </g>
   <g id="text_17">
    <!-- ** -->
    <g transform="translate(343.201623 104.303826) scale(0.15 -0.15)">
     <use xlink:href="#LiberationSans-2a"/>
     <use xlink:href="#LiberationSans-2a" x="38.916016"/>
    </g>
   </g>
   <g id="text_18">
    <!-- ** -->
    <g transform="translate(298.789378 18.070312) scale(0.15 -0.15)">
     <use xlink:href="#LiberationSans-2a"/>
     <use xlink:href="#LiberationSans-2a" x="38.916016"/>
    </g>
   </g>
   <g id="text_19">
    <!-- ** -->
    <g transform="translate(350.034276 76.10558) scale(0.15 -0.15)">
     <use xlink:href="#LiberationSans-2a"/>
     <use xlink:href="#LiberationSans-2a" x="38.916016"/>
    </g>
   </g>
   <g id="legend_1">
    <g id="patch_26">
     <path d="M 68.760313 234.526924 
L 187.179687 234.526924 
Q 189.579687 234.526924 189.579687 232.126924 
L 189.579687 181.768174 
Q 189.579687 179.368174 187.179687 179.368174 
L 68.760313 179.368174 
Q 66.360313 179.368174 66.360313 181.768174 
L 66.360313 232.126924 
Q 66.360313 234.526924 68.760313 234.526924 
z
" style="fill: #ffffff; opacity: 0.8; stroke: #cccccc; stroke-linejoin: miter"/>
    </g>
    <g id="patch_27">
     <path d="M 71.160313 192.864424 
L 95.160313 192.864424 
L 95.160313 184.464424 
L 71.160313 184.464424 
z
" style="fill: #f4ccef; stroke: #838383; stroke-width: 0.75; stroke-linejoin: miter"/>
    </g>
    <g id="text_20">
     <!-- Sequential -->
     <g transform="translate(104.760312 192.864424) scale(0.12 -0.12)">
      <defs>
       <path id="LiberationSans-53" d="M 3975 1216 
Q 3975 606 3498 271 
Q 3022 -63 2156 -63 
Q 547 -63 291 1056 
L 869 1172 
Q 969 775 1294 589 
Q 1619 403 2178 403 
Q 2756 403 3070 601 
Q 3384 800 3384 1184 
Q 3384 1400 3286 1534 
Q 3188 1669 3009 1756 
Q 2831 1844 2584 1903 
Q 2338 1963 2038 2031 
Q 1516 2147 1245 2262 
Q 975 2378 819 2520 
Q 663 2663 580 2853 
Q 497 3044 497 3291 
Q 497 3856 930 4162 
Q 1363 4469 2169 4469 
Q 2919 4469 3316 4239 
Q 3713 4009 3872 3456 
L 3284 3353 
Q 3188 3703 2916 3861 
Q 2644 4019 2163 4019 
Q 1634 4019 1356 3844 
Q 1078 3669 1078 3322 
Q 1078 3119 1186 2986 
Q 1294 2853 1497 2761 
Q 1700 2669 2306 2534 
Q 2509 2488 2711 2439 
Q 2913 2391 3097 2323 
Q 3281 2256 3442 2165 
Q 3603 2075 3722 1944 
Q 3841 1813 3908 1634 
Q 3975 1456 3975 1216 
z
" transform="scale(0.015625)"/>
       <path id="LiberationSans-71" d="M 1513 -63 
Q 869 -63 569 371 
Q 269 806 269 1675 
Q 269 3444 1513 3444 
Q 1897 3444 2147 3308 
Q 2397 3172 2566 2856 
L 2572 2856 
Q 2572 2950 2584 3179 
Q 2597 3409 2609 3425 
L 3150 3425 
Q 3128 3241 3128 2503 
L 3128 -1328 
L 2566 -1328 
L 2566 44 
L 2578 556 
L 2572 556 
Q 2403 222 2156 79 
Q 1909 -63 1513 -63 
z
M 2566 1731 
Q 2566 2391 2350 2709 
Q 2134 3028 1663 3028 
Q 1234 3028 1046 2709 
Q 859 2391 859 1694 
Q 859 984 1048 678 
Q 1238 372 1656 372 
Q 2134 372 2350 712 
Q 2566 1053 2566 1731 
z
" transform="scale(0.015625)"/>
      </defs>
      <use xlink:href="#LiberationSans-53"/>
      <use xlink:href="#LiberationSans-65" x="66.699219"/>
      <use xlink:href="#LiberationSans-71" x="122.314453"/>
      <use xlink:href="#LiberationSans-75" x="177.929688"/>
      <use xlink:href="#LiberationSans-65" x="233.544922"/>
      <use xlink:href="#LiberationSans-6e" x="289.160156"/>
      <use xlink:href="#LiberationSans-74" x="344.775391"/>
      <use xlink:href="#LiberationSans-69" x="372.558594"/>
      <use xlink:href="#LiberationSans-61" x="394.775391"/>
      <use xlink:href="#LiberationSans-6c" x="450.390625"/>
     </g>
    </g>
    <g id="patch_28">
     <path d="M 71.160313 210.050674 
L 95.160313 210.050674 
L 95.160313 201.650674 
L 71.160313 201.650674 
z
" style="fill: #f6c0c4; stroke: #838383; stroke-width: 0.75; stroke-linejoin: miter"/>
    </g>
    <g id="text_21">
     <!-- Parallel -->
     <g transform="translate(104.760312 210.050674) scale(0.12 -0.12)">
      <use xlink:href="#LiberationSans-50"/>
      <use xlink:href="#LiberationSans-61" x="66.699219"/>
      <use xlink:href="#LiberationSans-72" x="122.314453"/>
      <use xlink:href="#LiberationSans-61" x="155.615234"/>
      <use xlink:href="#LiberationSans-6c" x="211.230469"/>
      <use xlink:href="#LiberationSans-6c" x="233.447266"/>
      <use xlink:href="#LiberationSans-65" x="255.664062"/>
      <use xlink:href="#LiberationSans-6c" x="311.279297"/>
     </g>
    </g>
    <g id="patch_29">
     <path d="M 71.160313 227.236924 
L 95.160313 227.236924 
L 95.160313 218.836924 
L 71.160313 218.836924 
z
" style="fill: #c5c7f7; stroke: #838383; stroke-width: 0.75; stroke-linejoin: miter"/>
    </g>
    <g id="text_22">
     <!-- Task-Switching -->
     <g transform="translate(104.760312 227.236924) scale(0.12 -0.12)">
      <defs>
       <path id="LiberationSans-2d" d="M 284 1450 
L 284 1950 
L 1847 1950 
L 1847 1450 
L 284 1450 
z
" transform="scale(0.015625)"/>
       <path id="LiberationSans-77" d="M 3669 0 
L 3016 0 
L 2425 2391 
L 2313 2919 
Q 2284 2778 2225 2514 
Q 2166 2250 1588 0 
L 938 0 
L -9 3381 
L 547 3381 
L 1119 1084 
Q 1141 1009 1253 466 
L 1306 697 
L 2013 3381 
L 2616 3381 
L 3206 1059 
L 3350 466 
L 3447 900 
L 4088 3381 
L 4638 3381 
L 3669 0 
z
" transform="scale(0.015625)"/>
       <path id="LiberationSans-68" d="M 991 2803 
Q 1172 3134 1426 3289 
Q 1681 3444 2072 3444 
Q 2622 3444 2883 3170 
Q 3144 2897 3144 2253 
L 3144 0 
L 2578 0 
L 2578 2144 
Q 2578 2500 2512 2673 
Q 2447 2847 2297 2928 
Q 2147 3009 1881 3009 
Q 1484 3009 1245 2734 
Q 1006 2459 1006 1994 
L 1006 0 
L 444 0 
L 444 4638 
L 1006 4638 
L 1006 3431 
Q 1006 3241 995 3037 
Q 984 2834 981 2803 
L 991 2803 
z
" transform="scale(0.015625)"/>
       <path id="LiberationSans-67" d="M 1713 -1328 
Q 1159 -1328 831 -1111 
Q 503 -894 409 -494 
L 975 -413 
Q 1031 -647 1223 -773 
Q 1416 -900 1728 -900 
Q 2569 -900 2569 84 
L 2569 628 
L 2563 628 
Q 2403 303 2125 139 
Q 1847 -25 1475 -25 
Q 853 -25 561 387 
Q 269 800 269 1684 
Q 269 2581 583 3007 
Q 897 3434 1538 3434 
Q 1897 3434 2161 3270 
Q 2425 3106 2569 2803 
L 2575 2803 
Q 2575 2897 2587 3128 
Q 2600 3359 2613 3381 
L 3147 3381 
Q 3128 3213 3128 2681 
L 3128 97 
Q 3128 -1328 1713 -1328 
z
M 2569 1691 
Q 2569 2103 2456 2401 
Q 2344 2700 2139 2858 
Q 1934 3016 1675 3016 
Q 1244 3016 1047 2703 
Q 850 2391 850 1691 
Q 850 997 1034 694 
Q 1219 391 1666 391 
Q 1931 391 2137 547 
Q 2344 703 2456 995 
Q 2569 1288 2569 1691 
z
" transform="scale(0.015625)"/>
      </defs>
      <use xlink:href="#LiberationSans-54"/>
      <use xlink:href="#LiberationSans-61" x="49.958984"/>
      <use xlink:href="#LiberationSans-73" x="105.574219"/>
      <use xlink:href="#LiberationSans-6b" x="155.574219"/>
      <use xlink:href="#LiberationSans-2d" x="205.574219"/>
      <use xlink:href="#LiberationSans-53" x="238.875"/>
      <use xlink:href="#LiberationSans-77" x="305.574219"/>
      <use xlink:href="#LiberationSans-69" x="377.791016"/>
      <use xlink:href="#LiberationSans-74" x="400.007812"/>
      <use xlink:href="#LiberationSans-63" x="427.791016"/>
      <use xlink:href="#LiberationSans-68" x="477.791016"/>
      <use xlink:href="#LiberationSans-69" x="533.40625"/>
      <use xlink:href="#LiberationSans-6e" x="555.623047"/>
      <use xlink:href="#LiberationSans-67" x="611.238281"/>
     </g>
    </g>
   </g>
  </g>
 </g>
 <defs>
  <clipPath id="p30aec3dcc3">
   <rect x="60.360313" y="18.766924" width="334.8" height="221.76"/>
  </clipPath>
 </defs>
</svg>
