<?xml version="1.0" encoding="utf-8" standalone="no"?>
<!DOCTYPE svg PUBLIC "-//W3C//DTD SVG 1.1//EN"
  "http://www.w3.org/Graphics/SVG/1.1/DTD/svg11.dtd">
<svg height="216pt" version="1.1" viewBox="0 0 1008 216" width="1008pt" xmlns="http://www.w3.org/2000/svg" xmlns:xlink="http://www.w3.org/1999/xlink">
 <metadata>
  <rdf:RDF xmlns:cc="http://creativecommons.org/ns#" xmlns:dc="http://purl.org/dc/elements/1.1/" xmlns:rdf="http://www.w3.org/1999/02/22-rdf-syntax-ns#">
   <cc:Work>
    <dc:type rdf:resource="http://purl.org/dc/dcmitype/StillImage"/>
    <dc:date>2023-05-14T17:56:23.944304</dc:date>
    <dc:format>image/svg+xml</dc:format>
    <dc:creator>
     <cc:Agent>
      <dc:title>Matplotlib v3.4.3, https://matplotlib.org/</dc:title>
     </cc:Agent>
    </dc:creator>
   </cc:Work>
  </rdf:RDF>
 </metadata>
 <defs>
  <style type="text/css">*{stroke-linecap:butt;stroke-linejoin:round;}</style>
 </defs>
 <g id="figure_1">
  <g id="patch_1">
   <path d="M 0 216 
L 1008 216 
L 1008 0 
L 0 0 
z
" style="fill:#ffffff;"/>
  </g>
  <g id="axes_1">
   <g id="patch_2">
    <path d="M 126 192.24 
L 355.764706 192.24 
L 355.764706 25.92 
L 126 25.92 
z
" style="fill:#ffffff;"/>
   </g>
   <g id="matplotlib.axis_1">
    <g id="xtick_1">
     <g id="line2d_1">
      <defs>
       <path d="M 0 0 
L 0 6 
" id="mee5d75b2b3" style="stroke:#262626;stroke-width:1.25;"/>
      </defs>
      <g>
       <use style="fill:#262626;stroke:#262626;stroke-width:1.25;" x="136.44385" xlink:href="#mee5d75b2b3" y="192.24"/>
      </g>
     </g>
     <g id="text_1">
      <!-- 2 -->
      <g style="fill:#262626;" transform="translate(133.107288 210.43625)scale(0.12 -0.12)">
       <defs>
        <path d="M 322 0 
L 322 397 
Q 481 763 711 1042 
Q 941 1322 1194 1548 
Q 1447 1775 1695 1969 
Q 1944 2163 2144 2356 
Q 2344 2550 2467 2762 
Q 2591 2975 2591 3244 
Q 2591 3606 2378 3806 
Q 2166 4006 1788 4006 
Q 1428 4006 1195 3811 
Q 963 3616 922 3263 
L 347 3316 
Q 409 3844 795 4156 
Q 1181 4469 1788 4469 
Q 2453 4469 2811 4155 
Q 3169 3841 3169 3263 
Q 3169 3006 3051 2753 
Q 2934 2500 2703 2247 
Q 2472 1994 1819 1463 
Q 1459 1169 1246 933 
Q 1034 697 941 478 
L 3238 478 
L 3238 0 
L 322 0 
z
" id="LiberationSans-32" transform="scale(0.015625)"/>
       </defs>
       <use xlink:href="#LiberationSans-32"/>
      </g>
     </g>
    </g>
    <g id="xtick_2">
     <g id="line2d_2">
      <g>
       <use style="fill:#262626;stroke:#262626;stroke-width:1.25;" x="182.860963" xlink:href="#mee5d75b2b3" y="192.24"/>
      </g>
     </g>
     <g id="text_2">
      <!-- 4 -->
      <g style="fill:#262626;" transform="translate(179.5244 210.43625)scale(0.12 -0.12)">
       <defs>
        <path d="M 2753 997 
L 2753 0 
L 2222 0 
L 2222 997 
L 147 997 
L 147 1434 
L 2163 4403 
L 2753 4403 
L 2753 1441 
L 3372 1441 
L 3372 997 
L 2753 997 
z
M 2222 3769 
Q 2216 3750 2134 3603 
Q 2053 3456 2013 3397 
L 884 1734 
L 716 1503 
L 666 1441 
L 2222 1441 
L 2222 3769 
z
" id="LiberationSans-34" transform="scale(0.015625)"/>
       </defs>
       <use xlink:href="#LiberationSans-34"/>
      </g>
     </g>
    </g>
    <g id="xtick_3">
     <g id="line2d_3">
      <g>
       <use style="fill:#262626;stroke:#262626;stroke-width:1.25;" x="229.278075" xlink:href="#mee5d75b2b3" y="192.24"/>
      </g>
     </g>
     <g id="text_3">
      <!-- 6 -->
      <g style="fill:#262626;" transform="translate(225.941512 210.43625)scale(0.12 -0.12)">
       <defs>
        <path d="M 3278 1441 
Q 3278 744 2900 340 
Q 2522 -63 1856 -63 
Q 1113 -63 719 490 
Q 325 1044 325 2100 
Q 325 3244 734 3856 
Q 1144 4469 1900 4469 
Q 2897 4469 3156 3572 
L 2619 3475 
Q 2453 4013 1894 4013 
Q 1413 4013 1148 3564 
Q 884 3116 884 2266 
Q 1038 2550 1316 2698 
Q 1594 2847 1953 2847 
Q 2563 2847 2920 2465 
Q 3278 2084 3278 1441 
z
M 2706 1416 
Q 2706 1894 2472 2153 
Q 2238 2413 1819 2413 
Q 1425 2413 1183 2183 
Q 941 1953 941 1550 
Q 941 1041 1192 716 
Q 1444 391 1838 391 
Q 2244 391 2475 664 
Q 2706 938 2706 1416 
z
" id="LiberationSans-36" transform="scale(0.015625)"/>
       </defs>
       <use xlink:href="#LiberationSans-36"/>
      </g>
     </g>
    </g>
    <g id="xtick_4">
     <g id="line2d_4">
      <g>
       <use style="fill:#262626;stroke:#262626;stroke-width:1.25;" x="275.695187" xlink:href="#mee5d75b2b3" y="192.24"/>
      </g>
     </g>
     <g id="text_4">
      <!-- 8 -->
      <g style="fill:#262626;" transform="translate(272.358625 210.43625)scale(0.12 -0.12)">
       <defs>
        <path d="M 3281 1228 
Q 3281 619 2893 278 
Q 2506 -63 1781 -63 
Q 1075 -63 676 271 
Q 278 606 278 1222 
Q 278 1653 525 1947 
Q 772 2241 1156 2303 
L 1156 2316 
Q 797 2400 589 2681 
Q 381 2963 381 3341 
Q 381 3844 757 4156 
Q 1134 4469 1769 4469 
Q 2419 4469 2795 4162 
Q 3172 3856 3172 3334 
Q 3172 2956 2962 2675 
Q 2753 2394 2391 2322 
L 2391 2309 
Q 2813 2241 3047 1952 
Q 3281 1663 3281 1228 
z
M 2588 3303 
Q 2588 4050 1769 4050 
Q 1372 4050 1164 3862 
Q 956 3675 956 3303 
Q 956 2925 1170 2726 
Q 1384 2528 1775 2528 
Q 2172 2528 2380 2711 
Q 2588 2894 2588 3303 
z
M 2697 1281 
Q 2697 1691 2453 1898 
Q 2209 2106 1769 2106 
Q 1341 2106 1100 1882 
Q 859 1659 859 1269 
Q 859 359 1788 359 
Q 2247 359 2472 579 
Q 2697 800 2697 1281 
z
" id="LiberationSans-38" transform="scale(0.015625)"/>
       </defs>
       <use xlink:href="#LiberationSans-38"/>
      </g>
     </g>
    </g>
    <g id="xtick_5">
     <g id="line2d_5">
      <g>
       <use style="fill:#262626;stroke:#262626;stroke-width:1.25;" x="322.112299" xlink:href="#mee5d75b2b3" y="192.24"/>
      </g>
     </g>
     <g id="text_5">
      <!-- 10 -->
      <g style="fill:#262626;" transform="translate(315.439174 210.43625)scale(0.12 -0.12)">
       <defs>
        <path d="M 488 0 
L 488 478 
L 1609 478 
L 1609 3866 
L 616 3156 
L 616 3688 
L 1656 4403 
L 2175 4403 
L 2175 478 
L 3247 478 
L 3247 0 
L 488 0 
z
" id="LiberationSans-31" transform="scale(0.015625)"/>
        <path d="M 3309 2203 
Q 3309 1100 2920 518 
Q 2531 -63 1772 -63 
Q 1013 -63 631 515 
Q 250 1094 250 2203 
Q 250 3338 620 3903 
Q 991 4469 1791 4469 
Q 2569 4469 2939 3897 
Q 3309 3325 3309 2203 
z
M 2738 2203 
Q 2738 3156 2517 3584 
Q 2297 4013 1791 4013 
Q 1272 4013 1045 3591 
Q 819 3169 819 2203 
Q 819 1266 1048 831 
Q 1278 397 1778 397 
Q 2275 397 2506 840 
Q 2738 1284 2738 2203 
z
" id="LiberationSans-30" transform="scale(0.015625)"/>
       </defs>
       <use xlink:href="#LiberationSans-31"/>
       <use x="55.615234" xlink:href="#LiberationSans-30"/>
      </g>
     </g>
    </g>
    <g id="text_6">
     <!-- Layer -->
     <g style="fill:#262626;" transform="translate(223.373603 227.071875)scale(0.14 -0.14)">
      <defs>
       <path d="M 525 0 
L 525 4403 
L 1122 4403 
L 1122 488 
L 3347 488 
L 3347 0 
L 525 0 
z
" id="LiberationSans-4c" transform="scale(0.015625)"/>
       <path d="M 1294 -63 
Q 784 -63 528 206 
Q 272 475 272 944 
Q 272 1469 617 1750 
Q 963 2031 1731 2050 
L 2491 2063 
L 2491 2247 
Q 2491 2659 2316 2837 
Q 2141 3016 1766 3016 
Q 1388 3016 1216 2887 
Q 1044 2759 1009 2478 
L 422 2531 
Q 566 3444 1778 3444 
Q 2416 3444 2737 3151 
Q 3059 2859 3059 2306 
L 3059 850 
Q 3059 600 3125 473 
Q 3191 347 3375 347 
Q 3456 347 3559 369 
L 3559 19 
Q 3347 -31 3125 -31 
Q 2813 -31 2670 133 
Q 2528 297 2509 647 
L 2491 647 
Q 2275 259 1989 98 
Q 1703 -63 1294 -63 
z
M 1422 359 
Q 1731 359 1972 500 
Q 2213 641 2352 886 
Q 2491 1131 2491 1391 
L 2491 1669 
L 1875 1656 
Q 1478 1650 1273 1575 
Q 1069 1500 959 1344 
Q 850 1188 850 934 
Q 850 659 998 509 
Q 1147 359 1422 359 
z
" id="LiberationSans-61" transform="scale(0.015625)"/>
       <path d="M 597 -1328 
Q 366 -1328 209 -1294 
L 209 -872 
Q 328 -891 472 -891 
Q 997 -891 1303 -119 
L 1356 16 
L 16 3381 
L 616 3381 
L 1328 1513 
Q 1344 1469 1366 1408 
Q 1388 1347 1506 1000 
Q 1625 653 1634 613 
L 1853 1228 
L 2594 3381 
L 3188 3381 
L 1888 0 
Q 1678 -541 1497 -805 
Q 1316 -1069 1095 -1198 
Q 875 -1328 597 -1328 
z
" id="LiberationSans-79" transform="scale(0.015625)"/>
       <path d="M 863 1572 
Q 863 991 1103 675 
Q 1344 359 1806 359 
Q 2172 359 2392 506 
Q 2613 653 2691 878 
L 3184 738 
Q 2881 -63 1806 -63 
Q 1056 -63 664 384 
Q 272 831 272 1713 
Q 272 2550 664 2997 
Q 1056 3444 1784 3444 
Q 3275 3444 3275 1647 
L 3275 1572 
L 863 1572 
z
M 2694 2003 
Q 2647 2538 2422 2783 
Q 2197 3028 1775 3028 
Q 1366 3028 1127 2754 
Q 888 2481 869 2003 
L 2694 2003 
z
" id="LiberationSans-65" transform="scale(0.015625)"/>
       <path d="M 444 0 
L 444 2594 
Q 444 2950 425 3381 
L 956 3381 
Q 981 2806 981 2691 
L 994 2691 
Q 1128 3125 1303 3284 
Q 1478 3444 1797 3444 
Q 1909 3444 2025 3413 
L 2025 2897 
Q 1913 2928 1725 2928 
Q 1375 2928 1190 2626 
Q 1006 2325 1006 1763 
L 1006 0 
L 444 0 
z
" id="LiberationSans-72" transform="scale(0.015625)"/>
      </defs>
      <use xlink:href="#LiberationSans-4c"/>
      <use x="55.615234" xlink:href="#LiberationSans-61"/>
      <use x="111.230469" xlink:href="#LiberationSans-79"/>
      <use x="161.230469" xlink:href="#LiberationSans-65"/>
      <use x="216.845703" xlink:href="#LiberationSans-72"/>
     </g>
    </g>
   </g>
   <g id="matplotlib.axis_2">
    <g id="ytick_1">
     <g id="line2d_6">
      <defs>
       <path d="M 0 0 
L -6 0 
" id="mb20bd18807" style="stroke:#262626;stroke-width:1.25;"/>
      </defs>
      <g>
       <use style="fill:#262626;stroke:#262626;stroke-width:1.25;" x="126" xlink:href="#mb20bd18807" y="184.68"/>
      </g>
     </g>
     <g id="text_7">
      <!-- 0.0 -->
      <g style="fill:#262626;" transform="translate(101.21 188.665781)scale(0.11 -0.11)">
       <defs>
        <path d="M 584 0 
L 584 684 
L 1194 684 
L 1194 0 
L 584 0 
z
" id="LiberationSans-2e" transform="scale(0.015625)"/>
       </defs>
       <use xlink:href="#LiberationSans-30"/>
       <use x="55.615234" xlink:href="#LiberationSans-2e"/>
       <use x="83.398438" xlink:href="#LiberationSans-30"/>
      </g>
     </g>
    </g>
    <g id="ytick_2">
     <g id="line2d_7">
      <g>
       <use style="fill:#262626;stroke:#262626;stroke-width:1.25;" x="126" xlink:href="#mb20bd18807" y="154.44"/>
      </g>
     </g>
     <g id="text_8">
      <!-- 0.2 -->
      <g style="fill:#262626;" transform="translate(101.21 158.425781)scale(0.11 -0.11)">
       <use xlink:href="#LiberationSans-30"/>
       <use x="55.615234" xlink:href="#LiberationSans-2e"/>
       <use x="83.398438" xlink:href="#LiberationSans-32"/>
      </g>
     </g>
    </g>
    <g id="ytick_3">
     <g id="line2d_8">
      <g>
       <use style="fill:#262626;stroke:#262626;stroke-width:1.25;" x="126" xlink:href="#mb20bd18807" y="124.2"/>
      </g>
     </g>
     <g id="text_9">
      <!-- 0.4 -->
      <g style="fill:#262626;" transform="translate(101.21 128.185781)scale(0.11 -0.11)">
       <use xlink:href="#LiberationSans-30"/>
       <use x="55.615234" xlink:href="#LiberationSans-2e"/>
       <use x="83.398438" xlink:href="#LiberationSans-34"/>
      </g>
     </g>
    </g>
    <g id="ytick_4">
     <g id="line2d_9">
      <g>
       <use style="fill:#262626;stroke:#262626;stroke-width:1.25;" x="126" xlink:href="#mb20bd18807" y="93.96"/>
      </g>
     </g>
     <g id="text_10">
      <!-- 0.6 -->
      <g style="fill:#262626;" transform="translate(101.21 97.945781)scale(0.11 -0.11)">
       <use xlink:href="#LiberationSans-30"/>
       <use x="55.615234" xlink:href="#LiberationSans-2e"/>
       <use x="83.398438" xlink:href="#LiberationSans-36"/>
      </g>
     </g>
    </g>
    <g id="ytick_5">
     <g id="line2d_10">
      <g>
       <use style="fill:#262626;stroke:#262626;stroke-width:1.25;" x="126" xlink:href="#mb20bd18807" y="63.72"/>
      </g>
     </g>
     <g id="text_11">
      <!-- 0.8 -->
      <g style="fill:#262626;" transform="translate(101.21 67.705781)scale(0.11 -0.11)">
       <use xlink:href="#LiberationSans-30"/>
       <use x="55.615234" xlink:href="#LiberationSans-2e"/>
       <use x="83.398438" xlink:href="#LiberationSans-38"/>
      </g>
     </g>
    </g>
    <g id="ytick_6">
     <g id="line2d_11">
      <g>
       <use style="fill:#262626;stroke:#262626;stroke-width:1.25;" x="126" xlink:href="#mb20bd18807" y="33.48"/>
      </g>
     </g>
     <g id="text_12">
      <!-- 1.0 -->
      <g style="fill:#262626;" transform="translate(101.21 37.465781)scale(0.11 -0.11)">
       <use xlink:href="#LiberationSans-31"/>
       <use x="55.615234" xlink:href="#LiberationSans-2e"/>
       <use x="83.398438" xlink:href="#LiberationSans-30"/>
      </g>
     </g>
    </g>
    <g id="text_13">
     <!-- Accuracy -->
     <g style="fill:#262626;" transform="translate(94.305 137.865312)rotate(-90)scale(0.14 -0.14)">
      <defs>
       <path d="M 3647 0 
L 3144 1288 
L 1138 1288 
L 631 0 
L 13 0 
L 1809 4403 
L 2488 4403 
L 4256 0 
L 3647 0 
z
M 2141 3953 
L 2113 3866 
Q 2034 3606 1881 3200 
L 1319 1753 
L 2966 1753 
L 2400 3206 
Q 2313 3422 2225 3694 
L 2141 3953 
z
" id="LiberationSans-41" transform="scale(0.015625)"/>
       <path d="M 859 1706 
Q 859 1031 1071 706 
Q 1284 381 1713 381 
Q 2013 381 2214 543 
Q 2416 706 2463 1044 
L 3031 1006 
Q 2966 519 2616 228 
Q 2266 -63 1728 -63 
Q 1019 -63 645 385 
Q 272 834 272 1694 
Q 272 2547 647 2995 
Q 1022 3444 1722 3444 
Q 2241 3444 2583 3175 
Q 2925 2906 3013 2434 
L 2434 2391 
Q 2391 2672 2212 2837 
Q 2034 3003 1706 3003 
Q 1259 3003 1059 2706 
Q 859 2409 859 1706 
z
" id="LiberationSans-63" transform="scale(0.015625)"/>
       <path d="M 981 3381 
L 981 1238 
Q 981 903 1047 718 
Q 1113 534 1256 453 
Q 1400 372 1678 372 
Q 2084 372 2318 650 
Q 2553 928 2553 1422 
L 2553 3381 
L 3116 3381 
L 3116 722 
Q 3116 131 3134 0 
L 2603 0 
Q 2600 16 2597 84 
Q 2594 153 2589 242 
Q 2584 331 2578 578 
L 2569 578 
Q 2375 228 2120 82 
Q 1866 -63 1488 -63 
Q 931 -63 673 214 
Q 416 491 416 1128 
L 416 3381 
L 981 3381 
z
" id="LiberationSans-75" transform="scale(0.015625)"/>
      </defs>
      <use xlink:href="#LiberationSans-41"/>
      <use x="66.699219" xlink:href="#LiberationSans-63"/>
      <use x="116.699219" xlink:href="#LiberationSans-63"/>
      <use x="166.699219" xlink:href="#LiberationSans-75"/>
      <use x="222.314453" xlink:href="#LiberationSans-72"/>
      <use x="255.615234" xlink:href="#LiberationSans-61"/>
      <use x="311.230469" xlink:href="#LiberationSans-63"/>
      <use x="361.230469" xlink:href="#LiberationSans-79"/>
     </g>
    </g>
   </g>
   <g id="PolyCollection_1">
    <defs>
     <path d="M 136.44385 -178.914544 
L 136.44385 -177.794336 
L 159.652406 -176.399766 
L 182.860963 -175.506076 
L 206.069519 -171.973404 
L 229.278075 -164.496741 
L 252.486631 -149.786054 
L 275.695187 -138.4003 
L 298.903743 -124.27327 
L 322.112299 -111.655081 
L 345.320856 -101.717426 
L 345.320856 -112.319134 
L 345.320856 -112.319134 
L 322.112299 -123.352919 
L 298.903743 -136.24217 
L 275.695187 -148.33322 
L 252.486631 -158.614426 
L 229.278075 -167.627019 
L 206.069519 -173.849076 
L 182.860963 -176.545844 
L 159.652406 -178.298154 
L 136.44385 -178.914544 
z
" id="m7a80697ece" style="stroke:#ffffff;stroke-opacity:0.5;"/>
    </defs>
    <g clip-path="url(#p962b8dccbe)">
     <use style="fill:#a1c9f4;fill-opacity:0.5;stroke:#ffffff;stroke-opacity:0.5;" x="0" xlink:href="#m7a80697ece" y="216"/>
    </g>
   </g>
   <g id="PolyCollection_2">
    <defs>
     <path d="M 136.44385 -177.972845 
L 136.44385 -176.815795 
L 159.652406 -175.243749 
L 182.860963 -173.011396 
L 206.069519 -170.864304 
L 229.278075 -159.763904 
L 252.486631 -140.910055 
L 275.695187 -107.708035 
L 298.903743 -82.42261 
L 322.112299 -73.611159 
L 345.320856 -67.236695 
L 345.320856 -79.591465 
L 345.320856 -79.591465 
L 322.112299 -89.017401 
L 298.903743 -103.98971 
L 275.695187 -138.776045 
L 252.486631 -157.949705 
L 229.278075 -164.376496 
L 206.069519 -172.115616 
L 182.860963 -174.837164 
L 159.652406 -176.218491 
L 136.44385 -177.972845 
z
" id="ma3bcc7d864" style="stroke:#ffffff;stroke-opacity:0.5;"/>
    </defs>
    <g clip-path="url(#p962b8dccbe)">
     <use style="fill:#ffb482;fill-opacity:0.5;stroke:#ffffff;stroke-opacity:0.5;" x="0" xlink:href="#ma3bcc7d864" y="216"/>
    </g>
   </g>
   <g id="PolyCollection_3">
    <defs>
     <path d="M 136.44385 -179.112617 
L 136.44385 -177.928903 
L 159.652406 -175.840037 
L 182.860963 -173.766934 
L 206.069519 -169.3198 
L 229.278075 -161.357413 
L 252.486631 -142.709398 
L 275.695187 -129.209225 
L 298.903743 -112.491655 
L 322.112299 -99.616519 
L 345.320856 -89.176842 
L 345.320856 -105.748038 
L 345.320856 -105.748038 
L 322.112299 -118.487321 
L 298.903743 -130.907945 
L 275.695187 -145.095655 
L 252.486631 -156.740042 
L 229.278075 -166.124507 
L 206.069519 -172.4354 
L 182.860963 -175.381946 
L 159.652406 -176.877163 
L 136.44385 -179.112617 
z
" id="m0382ed07ef" style="stroke:#ffffff;stroke-opacity:0.5;"/>
    </defs>
    <g clip-path="url(#p962b8dccbe)">
     <use style="fill:#8de5a1;fill-opacity:0.5;stroke:#ffffff;stroke-opacity:0.5;" x="0" xlink:href="#m0382ed07ef" y="216"/>
    </g>
   </g>
   <g id="line2d_12">
    <path clip-path="url(#p962b8dccbe)" d="M 136.44385 37.64556 
L 159.652406 38.65104 
L 182.860963 39.97404 
L 206.069519 43.08876 
L 229.278075 49.93812 
L 252.486631 61.79976 
L 275.695187 72.63324 
L 298.903743 85.74228 
L 322.112299 98.496 
L 345.320856 108.98172 
" style="fill:none;stroke:#a1c9f4;stroke-linecap:round;stroke-width:1.5;"/>
   </g>
   <g id="line2d_13">
    <path clip-path="url(#p962b8dccbe)" d="M 136.44385 38.60568 
L 159.652406 40.26888 
L 182.860963 42.07572 
L 206.069519 44.51004 
L 229.278075 53.9298 
L 252.486631 66.57012 
L 275.695187 92.75796 
L 298.903743 122.79384 
L 322.112299 134.68572 
L 345.320856 142.58592 
" style="fill:none;stroke:#ffb482;stroke-linecap:round;stroke-width:1.5;"/>
   </g>
   <g id="line2d_14">
    <path clip-path="url(#p962b8dccbe)" d="M 136.44385 37.47924 
L 159.652406 39.6414 
L 182.860963 41.42556 
L 206.069519 45.1224 
L 229.278075 52.25904 
L 252.486631 66.27528 
L 275.695187 78.84756 
L 298.903743 94.3002 
L 322.112299 106.94808 
L 345.320856 118.53756 
" style="fill:none;stroke:#8de5a1;stroke-linecap:round;stroke-width:1.5;"/>
   </g>
   <g id="line2d_15">
    <path clip-path="url(#p962b8dccbe)" d="M 136.44385 169.56 
L 159.652406 169.56 
L 182.860963 169.56 
L 206.069519 169.56 
L 229.278075 169.56 
L 252.486631 169.56 
L 275.695187 169.56 
L 298.903743 169.56 
L 322.112299 169.56 
L 345.320856 169.56 
" style="fill:none;stroke:#1a1a1a;stroke-dasharray:5.55,2.4;stroke-dashoffset:0;stroke-width:1.5;"/>
   </g>
   <g id="patch_3">
    <path d="M 126 192.24 
L 126 25.92 
" style="fill:none;stroke:#262626;stroke-linecap:square;stroke-linejoin:miter;stroke-width:1.25;"/>
   </g>
   <g id="patch_4">
    <path d="M 126 192.24 
L 355.764706 192.24 
" style="fill:none;stroke:#262626;stroke-linecap:square;stroke-linejoin:miter;stroke-width:1.25;"/>
   </g>
   <g id="text_14">
    <!-- Number -->
    <g style="fill:#262626;" transform="translate(208.874697 19.92)scale(0.18 -0.18)">
     <defs>
      <path d="M 3381 0 
L 1025 3750 
L 1041 3447 
L 1056 2925 
L 1056 0 
L 525 0 
L 525 4403 
L 1219 4403 
L 3600 628 
Q 3563 1241 3563 1516 
L 3563 4403 
L 4100 4403 
L 4100 0 
L 3381 0 
z
" id="LiberationSans-4e" transform="scale(0.015625)"/>
      <path d="M 2400 0 
L 2400 2144 
Q 2400 2634 2265 2821 
Q 2131 3009 1781 3009 
Q 1422 3009 1212 2734 
Q 1003 2459 1003 1959 
L 1003 0 
L 444 0 
L 444 2659 
Q 444 3250 425 3381 
L 956 3381 
Q 959 3366 962 3297 
Q 966 3228 970 3139 
Q 975 3050 981 2803 
L 991 2803 
Q 1172 3163 1406 3303 
Q 1641 3444 1978 3444 
Q 2363 3444 2586 3291 
Q 2809 3138 2897 2803 
L 2906 2803 
Q 3081 3144 3329 3294 
Q 3578 3444 3931 3444 
Q 4444 3444 4676 3166 
Q 4909 2888 4909 2253 
L 4909 0 
L 4353 0 
L 4353 2144 
Q 4353 2634 4218 2821 
Q 4084 3009 3734 3009 
Q 3366 3009 3161 2736 
Q 2956 2463 2956 1959 
L 2956 0 
L 2400 0 
z
" id="LiberationSans-6d" transform="scale(0.015625)"/>
      <path d="M 3291 1706 
Q 3291 -63 2047 -63 
Q 1663 -63 1408 76 
Q 1153 216 994 525 
L 988 525 
Q 988 428 975 229 
Q 963 31 956 0 
L 413 0 
Q 431 169 431 697 
L 431 4638 
L 994 4638 
L 994 3316 
Q 994 3113 981 2838 
L 994 2838 
Q 1150 3163 1408 3303 
Q 1666 3444 2047 3444 
Q 2688 3444 2989 3012 
Q 3291 2581 3291 1706 
z
M 2700 1688 
Q 2700 2397 2512 2703 
Q 2325 3009 1903 3009 
Q 1428 3009 1211 2684 
Q 994 2359 994 1653 
Q 994 988 1206 670 
Q 1419 353 1897 353 
Q 2322 353 2511 667 
Q 2700 981 2700 1688 
z
" id="LiberationSans-62" transform="scale(0.015625)"/>
     </defs>
     <use xlink:href="#LiberationSans-4e"/>
     <use x="72.216797" xlink:href="#LiberationSans-75"/>
     <use x="127.832031" xlink:href="#LiberationSans-6d"/>
     <use x="211.132812" xlink:href="#LiberationSans-62"/>
     <use x="266.748047" xlink:href="#LiberationSans-65"/>
     <use x="322.363281" xlink:href="#LiberationSans-72"/>
    </g>
   </g>
   <g id="legend_1">
    <g id="patch_5">
     <path d="M 134.4 145.2525 
L 268.84125 145.2525 
Q 271.24125 145.2525 271.24125 142.8525 
L 271.24125 75.3075 
Q 271.24125 72.9075 268.84125 72.9075 
L 134.4 72.9075 
Q 132 72.9075 132 75.3075 
L 132 142.8525 
Q 132 145.2525 134.4 145.2525 
z
" style="fill:#ffffff;opacity:0.8;stroke:#cccccc;stroke-linejoin:miter;"/>
    </g>
    <g id="line2d_16">
     <path d="M 136.8 82.20375 
L 160.8 82.20375 
" style="fill:none;stroke:#a1c9f4;stroke-linecap:round;stroke-width:1.5;"/>
    </g>
    <g id="line2d_17"/>
    <g id="text_15">
     <!-- Context Removed -->
     <g style="fill:#262626;" transform="translate(170.4 86.40375)scale(0.12 -0.12)">
      <defs>
       <path d="M 2475 3981 
Q 1744 3981 1337 3511 
Q 931 3041 931 2222 
Q 931 1413 1354 920 
Q 1778 428 2500 428 
Q 3425 428 3891 1344 
L 4378 1100 
Q 4106 531 3614 234 
Q 3122 -63 2472 -63 
Q 1806 -63 1320 214 
Q 834 491 579 1005 
Q 325 1519 325 2222 
Q 325 3275 894 3872 
Q 1463 4469 2469 4469 
Q 3172 4469 3644 4194 
Q 4116 3919 4338 3378 
L 3772 3191 
Q 3619 3575 3280 3778 
Q 2941 3981 2475 3981 
z
" id="LiberationSans-43" transform="scale(0.015625)"/>
       <path d="M 3291 1694 
Q 3291 806 2900 371 
Q 2509 -63 1766 -63 
Q 1025 -63 647 389 
Q 269 841 269 1694 
Q 269 3444 1784 3444 
Q 2559 3444 2925 3017 
Q 3291 2591 3291 1694 
z
M 2700 1694 
Q 2700 2394 2492 2711 
Q 2284 3028 1794 3028 
Q 1300 3028 1079 2704 
Q 859 2381 859 1694 
Q 859 1025 1076 689 
Q 1294 353 1759 353 
Q 2266 353 2483 678 
Q 2700 1003 2700 1694 
z
" id="LiberationSans-6f" transform="scale(0.015625)"/>
       <path d="M 2578 0 
L 2578 2144 
Q 2578 2478 2512 2662 
Q 2447 2847 2303 2928 
Q 2159 3009 1881 3009 
Q 1475 3009 1240 2731 
Q 1006 2453 1006 1959 
L 1006 0 
L 444 0 
L 444 2659 
Q 444 3250 425 3381 
L 956 3381 
Q 959 3366 962 3297 
Q 966 3228 970 3139 
Q 975 3050 981 2803 
L 991 2803 
Q 1184 3153 1439 3298 
Q 1694 3444 2072 3444 
Q 2628 3444 2886 3167 
Q 3144 2891 3144 2253 
L 3144 0 
L 2578 0 
z
" id="LiberationSans-6e" transform="scale(0.015625)"/>
       <path d="M 1731 25 
Q 1453 -50 1163 -50 
Q 488 -50 488 716 
L 488 2972 
L 97 2972 
L 97 3381 
L 509 3381 
L 675 4138 
L 1050 4138 
L 1050 3381 
L 1675 3381 
L 1675 2972 
L 1050 2972 
L 1050 838 
Q 1050 594 1129 495 
Q 1209 397 1406 397 
Q 1519 397 1731 441 
L 1731 25 
z
" id="LiberationSans-74" transform="scale(0.015625)"/>
       <path d="M 2503 0 
L 1594 1388 
L 678 0 
L 72 0 
L 1275 1738 
L 128 3381 
L 750 3381 
L 1594 2066 
L 2431 3381 
L 3059 3381 
L 1913 1744 
L 3131 0 
L 2503 0 
z
" id="LiberationSans-78" transform="scale(0.015625)"/>
       <path id="LiberationSans-20" transform="scale(0.015625)"/>
       <path d="M 3638 0 
L 2494 1828 
L 1122 1828 
L 1122 0 
L 525 0 
L 525 4403 
L 2597 4403 
Q 3341 4403 3745 4070 
Q 4150 3738 4150 3144 
Q 4150 2653 3864 2318 
Q 3578 1984 3075 1897 
L 4325 0 
L 3638 0 
z
M 3550 3138 
Q 3550 3522 3289 3723 
Q 3028 3925 2538 3925 
L 1122 3925 
L 1122 2300 
L 2563 2300 
Q 3034 2300 3292 2520 
Q 3550 2741 3550 3138 
z
" id="LiberationSans-52" transform="scale(0.015625)"/>
       <path d="M 1916 0 
L 1250 0 
L 22 3381 
L 622 3381 
L 1366 1181 
Q 1406 1056 1581 441 
L 1691 806 
L 1813 1175 
L 2581 3381 
L 3178 3381 
L 1916 0 
z
" id="LiberationSans-76" transform="scale(0.015625)"/>
       <path d="M 2566 544 
Q 2409 219 2151 78 
Q 1894 -63 1513 -63 
Q 872 -63 570 368 
Q 269 800 269 1675 
Q 269 3444 1513 3444 
Q 1897 3444 2153 3303 
Q 2409 3163 2566 2856 
L 2572 2856 
L 2566 3234 
L 2566 4638 
L 3128 4638 
L 3128 697 
Q 3128 169 3147 0 
L 2609 0 
Q 2600 50 2589 231 
Q 2578 413 2578 544 
L 2566 544 
z
M 859 1694 
Q 859 984 1046 678 
Q 1234 372 1656 372 
Q 2134 372 2350 703 
Q 2566 1034 2566 1731 
Q 2566 2403 2350 2715 
Q 2134 3028 1663 3028 
Q 1238 3028 1048 2714 
Q 859 2400 859 1694 
z
" id="LiberationSans-64" transform="scale(0.015625)"/>
      </defs>
      <use xlink:href="#LiberationSans-43"/>
      <use x="72.216797" xlink:href="#LiberationSans-6f"/>
      <use x="127.832031" xlink:href="#LiberationSans-6e"/>
      <use x="183.447266" xlink:href="#LiberationSans-74"/>
      <use x="211.230469" xlink:href="#LiberationSans-65"/>
      <use x="266.845703" xlink:href="#LiberationSans-78"/>
      <use x="316.845703" xlink:href="#LiberationSans-74"/>
      <use x="344.628906" xlink:href="#LiberationSans-20"/>
      <use x="372.412109" xlink:href="#LiberationSans-52"/>
      <use x="444.628906" xlink:href="#LiberationSans-65"/>
      <use x="500.244141" xlink:href="#LiberationSans-6d"/>
      <use x="583.544922" xlink:href="#LiberationSans-6f"/>
      <use x="639.160156" xlink:href="#LiberationSans-76"/>
      <use x="689.160156" xlink:href="#LiberationSans-65"/>
      <use x="744.775391" xlink:href="#LiberationSans-64"/>
     </g>
    </g>
    <g id="line2d_18">
     <path d="M 136.8 99.39 
L 160.8 99.39 
" style="fill:none;stroke:#ffb482;stroke-linecap:round;stroke-width:1.5;"/>
    </g>
    <g id="line2d_19"/>
    <g id="text_16">
     <!-- Context First -->
     <g style="fill:#262626;" transform="translate(170.4 103.59)scale(0.12 -0.12)">
      <defs>
       <path d="M 1122 3916 
L 1122 2278 
L 3578 2278 
L 3578 1784 
L 1122 1784 
L 1122 0 
L 525 0 
L 525 4403 
L 3653 4403 
L 3653 3916 
L 1122 3916 
z
" id="LiberationSans-46" transform="scale(0.015625)"/>
       <path d="M 428 4100 
L 428 4638 
L 991 4638 
L 991 4100 
L 428 4100 
z
M 428 0 
L 428 3381 
L 991 3381 
L 991 0 
L 428 0 
z
" id="LiberationSans-69" transform="scale(0.015625)"/>
       <path d="M 2969 934 
Q 2969 456 2608 196 
Q 2247 -63 1597 -63 
Q 966 -63 623 145 
Q 281 353 178 794 
L 675 891 
Q 747 619 972 492 
Q 1197 366 1597 366 
Q 2025 366 2223 497 
Q 2422 628 2422 891 
Q 2422 1091 2284 1216 
Q 2147 1341 1841 1422 
L 1438 1528 
Q 953 1653 748 1773 
Q 544 1894 428 2066 
Q 313 2238 313 2488 
Q 313 2950 642 3192 
Q 972 3434 1603 3434 
Q 2163 3434 2492 3237 
Q 2822 3041 2909 2606 
L 2403 2544 
Q 2356 2769 2151 2889 
Q 1947 3009 1603 3009 
Q 1222 3009 1040 2893 
Q 859 2778 859 2544 
Q 859 2400 934 2306 
Q 1009 2213 1156 2147 
Q 1303 2081 1775 1966 
Q 2222 1853 2419 1758 
Q 2616 1663 2730 1547 
Q 2844 1431 2906 1279 
Q 2969 1128 2969 934 
z
" id="LiberationSans-73" transform="scale(0.015625)"/>
      </defs>
      <use xlink:href="#LiberationSans-43"/>
      <use x="72.216797" xlink:href="#LiberationSans-6f"/>
      <use x="127.832031" xlink:href="#LiberationSans-6e"/>
      <use x="183.447266" xlink:href="#LiberationSans-74"/>
      <use x="211.230469" xlink:href="#LiberationSans-65"/>
      <use x="266.845703" xlink:href="#LiberationSans-78"/>
      <use x="316.845703" xlink:href="#LiberationSans-74"/>
      <use x="344.628906" xlink:href="#LiberationSans-20"/>
      <use x="372.412109" xlink:href="#LiberationSans-46"/>
      <use x="433.496094" xlink:href="#LiberationSans-69"/>
      <use x="455.712891" xlink:href="#LiberationSans-72"/>
      <use x="489.013672" xlink:href="#LiberationSans-73"/>
      <use x="539.013672" xlink:href="#LiberationSans-74"/>
     </g>
    </g>
    <g id="line2d_20">
     <path d="M 136.8 116.57625 
L 160.8 116.57625 
" style="fill:none;stroke:#8de5a1;stroke-linecap:round;stroke-width:1.5;"/>
    </g>
    <g id="line2d_21"/>
    <g id="text_17">
     <!-- Context All -->
     <g style="fill:#262626;" transform="translate(170.4 120.77625)scale(0.12 -0.12)">
      <defs>
       <path d="M 431 0 
L 431 4638 
L 994 4638 
L 994 0 
L 431 0 
z
" id="LiberationSans-6c" transform="scale(0.015625)"/>
      </defs>
      <use xlink:href="#LiberationSans-43"/>
      <use x="72.216797" xlink:href="#LiberationSans-6f"/>
      <use x="127.832031" xlink:href="#LiberationSans-6e"/>
      <use x="183.447266" xlink:href="#LiberationSans-74"/>
      <use x="211.230469" xlink:href="#LiberationSans-65"/>
      <use x="266.845703" xlink:href="#LiberationSans-78"/>
      <use x="316.845703" xlink:href="#LiberationSans-74"/>
      <use x="344.628906" xlink:href="#LiberationSans-20"/>
      <use x="366.912109" xlink:href="#LiberationSans-41"/>
      <use x="433.611328" xlink:href="#LiberationSans-6c"/>
      <use x="455.828125" xlink:href="#LiberationSans-6c"/>
     </g>
    </g>
    <g id="line2d_22">
     <path d="M 136.8 133.7625 
L 160.8 133.7625 
" style="fill:none;stroke:#1a1a1a;stroke-dasharray:5.55,2.4;stroke-dashoffset:0;stroke-width:1.5;"/>
    </g>
    <g id="line2d_23"/>
    <g id="text_18">
     <!-- Random -->
     <g style="fill:#262626;" transform="translate(170.4 137.9625)scale(0.12 -0.12)">
      <use xlink:href="#LiberationSans-52"/>
      <use x="72.216797" xlink:href="#LiberationSans-61"/>
      <use x="127.832031" xlink:href="#LiberationSans-6e"/>
      <use x="183.447266" xlink:href="#LiberationSans-64"/>
      <use x="239.0625" xlink:href="#LiberationSans-6f"/>
      <use x="294.677734" xlink:href="#LiberationSans-6d"/>
     </g>
    </g>
   </g>
  </g>
  <g id="axes_2">
   <g id="patch_6">
    <path d="M 401.717647 192.24 
L 631.482353 192.24 
L 631.482353 25.92 
L 401.717647 25.92 
z
" style="fill:#ffffff;"/>
   </g>
   <g id="matplotlib.axis_3">
    <g id="xtick_6">
     <g id="line2d_24">
      <g>
       <use style="fill:#262626;stroke:#262626;stroke-width:1.25;" x="412.161497" xlink:href="#mee5d75b2b3" y="192.24"/>
      </g>
     </g>
     <g id="text_19">
      <!-- 2 -->
      <g style="fill:#262626;" transform="translate(408.824935 210.43625)scale(0.12 -0.12)">
       <use xlink:href="#LiberationSans-32"/>
      </g>
     </g>
    </g>
    <g id="xtick_7">
     <g id="line2d_25">
      <g>
       <use style="fill:#262626;stroke:#262626;stroke-width:1.25;" x="458.57861" xlink:href="#mee5d75b2b3" y="192.24"/>
      </g>
     </g>
     <g id="text_20">
      <!-- 4 -->
      <g style="fill:#262626;" transform="translate(455.242047 210.43625)scale(0.12 -0.12)">
       <use xlink:href="#LiberationSans-34"/>
      </g>
     </g>
    </g>
    <g id="xtick_8">
     <g id="line2d_26">
      <g>
       <use style="fill:#262626;stroke:#262626;stroke-width:1.25;" x="504.995722" xlink:href="#mee5d75b2b3" y="192.24"/>
      </g>
     </g>
     <g id="text_21">
      <!-- 6 -->
      <g style="fill:#262626;" transform="translate(501.659159 210.43625)scale(0.12 -0.12)">
       <use xlink:href="#LiberationSans-36"/>
      </g>
     </g>
    </g>
    <g id="xtick_9">
     <g id="line2d_27">
      <g>
       <use style="fill:#262626;stroke:#262626;stroke-width:1.25;" x="551.412834" xlink:href="#mee5d75b2b3" y="192.24"/>
      </g>
     </g>
     <g id="text_22">
      <!-- 8 -->
      <g style="fill:#262626;" transform="translate(548.076272 210.43625)scale(0.12 -0.12)">
       <use xlink:href="#LiberationSans-38"/>
      </g>
     </g>
    </g>
    <g id="xtick_10">
     <g id="line2d_28">
      <g>
       <use style="fill:#262626;stroke:#262626;stroke-width:1.25;" x="597.829947" xlink:href="#mee5d75b2b3" y="192.24"/>
      </g>
     </g>
     <g id="text_23">
      <!-- 10 -->
      <g style="fill:#262626;" transform="translate(591.156822 210.43625)scale(0.12 -0.12)">
       <use xlink:href="#LiberationSans-31"/>
       <use x="55.615234" xlink:href="#LiberationSans-30"/>
      </g>
     </g>
    </g>
    <g id="text_24">
     <!-- Layer -->
     <g style="fill:#262626;" transform="translate(499.09125 227.071875)scale(0.14 -0.14)">
      <use xlink:href="#LiberationSans-4c"/>
      <use x="55.615234" xlink:href="#LiberationSans-61"/>
      <use x="111.230469" xlink:href="#LiberationSans-79"/>
      <use x="161.230469" xlink:href="#LiberationSans-65"/>
      <use x="216.845703" xlink:href="#LiberationSans-72"/>
     </g>
    </g>
   </g>
   <g id="matplotlib.axis_4">
    <g id="ytick_7">
     <g id="line2d_29">
      <g>
       <use style="fill:#262626;stroke:#262626;stroke-width:1.25;" x="401.717647" xlink:href="#mb20bd18807" y="184.68"/>
      </g>
     </g>
     <g id="text_25">
      <!-- 0.0 -->
      <g style="fill:#262626;" transform="translate(375.537647 189.028125)scale(0.12 -0.12)">
       <use xlink:href="#LiberationSans-30"/>
       <use x="55.615234" xlink:href="#LiberationSans-2e"/>
       <use x="83.398438" xlink:href="#LiberationSans-30"/>
      </g>
     </g>
    </g>
    <g id="ytick_8">
     <g id="line2d_30">
      <g>
       <use style="fill:#262626;stroke:#262626;stroke-width:1.25;" x="401.717647" xlink:href="#mb20bd18807" y="154.44"/>
      </g>
     </g>
     <g id="text_26">
      <!-- 0.2 -->
      <g style="fill:#262626;" transform="translate(375.537647 158.788125)scale(0.12 -0.12)">
       <use xlink:href="#LiberationSans-30"/>
       <use x="55.615234" xlink:href="#LiberationSans-2e"/>
       <use x="83.398438" xlink:href="#LiberationSans-32"/>
      </g>
     </g>
    </g>
    <g id="ytick_9">
     <g id="line2d_31">
      <g>
       <use style="fill:#262626;stroke:#262626;stroke-width:1.25;" x="401.717647" xlink:href="#mb20bd18807" y="124.2"/>
      </g>
     </g>
     <g id="text_27">
      <!-- 0.4 -->
      <g style="fill:#262626;" transform="translate(375.537647 128.548125)scale(0.12 -0.12)">
       <use xlink:href="#LiberationSans-30"/>
       <use x="55.615234" xlink:href="#LiberationSans-2e"/>
       <use x="83.398438" xlink:href="#LiberationSans-34"/>
      </g>
     </g>
    </g>
    <g id="ytick_10">
     <g id="line2d_32">
      <g>
       <use style="fill:#262626;stroke:#262626;stroke-width:1.25;" x="401.717647" xlink:href="#mb20bd18807" y="93.96"/>
      </g>
     </g>
     <g id="text_28">
      <!-- 0.6 -->
      <g style="fill:#262626;" transform="translate(375.537647 98.308125)scale(0.12 -0.12)">
       <use xlink:href="#LiberationSans-30"/>
       <use x="55.615234" xlink:href="#LiberationSans-2e"/>
       <use x="83.398438" xlink:href="#LiberationSans-36"/>
      </g>
     </g>
    </g>
    <g id="ytick_11">
     <g id="line2d_33">
      <g>
       <use style="fill:#262626;stroke:#262626;stroke-width:1.25;" x="401.717647" xlink:href="#mb20bd18807" y="63.72"/>
      </g>
     </g>
     <g id="text_29">
      <!-- 0.8 -->
      <g style="fill:#262626;" transform="translate(375.537647 68.068125)scale(0.12 -0.12)">
       <use xlink:href="#LiberationSans-30"/>
       <use x="55.615234" xlink:href="#LiberationSans-2e"/>
       <use x="83.398438" xlink:href="#LiberationSans-38"/>
      </g>
     </g>
    </g>
    <g id="ytick_12">
     <g id="line2d_34">
      <g>
       <use style="fill:#262626;stroke:#262626;stroke-width:1.25;" x="401.717647" xlink:href="#mb20bd18807" y="33.48"/>
      </g>
     </g>
     <g id="text_30">
      <!-- 1.0 -->
      <g style="fill:#262626;" transform="translate(375.537647 37.828125)scale(0.12 -0.12)">
       <use xlink:href="#LiberationSans-31"/>
       <use x="55.615234" xlink:href="#LiberationSans-2e"/>
       <use x="83.398438" xlink:href="#LiberationSans-30"/>
      </g>
     </g>
    </g>
    <g id="text_31">
     <!-- Accuracy -->
     <g style="fill:#262626;" transform="translate(368.632647 137.865312)rotate(-90)scale(0.14 -0.14)">
      <use xlink:href="#LiberationSans-41"/>
      <use x="66.699219" xlink:href="#LiberationSans-63"/>
      <use x="116.699219" xlink:href="#LiberationSans-63"/>
      <use x="166.699219" xlink:href="#LiberationSans-75"/>
      <use x="222.314453" xlink:href="#LiberationSans-72"/>
      <use x="255.615234" xlink:href="#LiberationSans-61"/>
      <use x="311.230469" xlink:href="#LiberationSans-63"/>
      <use x="361.230469" xlink:href="#LiberationSans-79"/>
     </g>
    </g>
   </g>
   <g id="PolyCollection_4">
    <defs>
     <path d="M 412.161497 -95.716744 
L 412.161497 -94.596536 
L 435.370053 -93.965526 
L 458.57861 -93.684196 
L 481.787166 -95.322564 
L 504.995722 -97.152261 
L 528.204278 -96.866054 
L 551.412834 -96.87322 
L 574.62139 -97.48819 
L 597.829947 -98.946721 
L 621.038503 -99.351146 
L 621.038503 -109.952854 
L 621.038503 -109.952854 
L 597.829947 -110.644559 
L 574.62139 -109.45709 
L 551.412834 -106.80614 
L 528.204278 -105.694426 
L 504.995722 -100.282539 
L 481.787166 -97.198236 
L 458.57861 -94.723964 
L 435.370053 -95.863914 
L 412.161497 -95.716744 
z
" id="m6ebcd76c74" style="stroke:#ffffff;stroke-opacity:0.5;"/>
    </defs>
    <g clip-path="url(#p23fb521cd1)">
     <use style="fill:#a1c9f4;fill-opacity:0.5;stroke:#ffffff;stroke-opacity:0.5;" x="0" xlink:href="#m6ebcd76c74" y="216"/>
    </g>
   </g>
   <g id="PolyCollection_5">
    <defs>
     <path d="M 412.161497 -182.539907 
L 412.161497 -182.439613 
L 435.370053 -181.602998 
L 458.57861 -178.872837 
L 481.787166 -174.653736 
L 504.995722 -160.112571 
L 528.204278 -150.689003 
L 551.412834 -129.915514 
L 574.62139 -115.727282 
L 597.829947 -111.125649 
L 621.038503 -108.692324 
L 621.038503 -119.617516 
L 621.038503 -119.617516 
L 597.829947 -126.104991 
L 574.62139 -133.599358 
L 551.412834 -148.154246 
L 528.204278 -157.892917 
L 504.995722 -166.794789 
L 481.787166 -177.201624 
L 458.57861 -180.920523 
L 435.370053 -182.242522 
L 412.161497 -182.539907 
z
" id="mba349222f1" style="stroke:#ffffff;stroke-opacity:0.5;"/>
    </defs>
    <g clip-path="url(#p23fb521cd1)">
     <use style="fill:#ffb482;fill-opacity:0.5;stroke:#ffffff;stroke-opacity:0.5;" x="0" xlink:href="#mba349222f1" y="216"/>
    </g>
   </g>
   <g id="PolyCollection_6">
    <defs>
     <path d="M 412.161497 -126.516026 
L 412.161497 -121.994134 
L 435.370053 -173.051627 
L 458.57861 -181.055202 
L 481.787166 -181.547424 
L 504.995722 -179.411016 
L 528.204278 -174.914151 
L 551.412834 -166.78336 
L 574.62139 -162.774774 
L 597.829947 -161.375771 
L 621.038503 -161.146658 
L 621.038503 -185.235262 
L 621.038503 -185.235262 
L 597.829947 -182.269429 
L 574.62139 -178.844346 
L 551.412834 -179.67416 
L 528.204278 -179.587209 
L 504.995722 -181.198824 
L 481.787166 -182.252736 
L 458.57861 -182.170398 
L 435.370053 -178.607173 
L 412.161497 -126.516026 
z
" id="mf56656b2f2" style="stroke:#ffffff;stroke-opacity:0.5;"/>
    </defs>
    <g clip-path="url(#p23fb521cd1)">
     <use style="fill:#8de5a1;fill-opacity:0.5;stroke:#ffffff;stroke-opacity:0.5;" x="0" xlink:href="#mf56656b2f2" y="216"/>
    </g>
   </g>
   <g id="line2d_35">
    <path clip-path="url(#p23fb521cd1)" d="M 412.161497 120.84336 
L 435.370053 121.08528 
L 458.57861 121.79592 
L 481.787166 119.7396 
L 504.995722 117.2826 
L 528.204278 114.71976 
L 551.412834 114.16032 
L 574.62139 112.52736 
L 597.829947 111.20436 
L 621.038503 111.348 
" style="fill:none;stroke:#a1c9f4;stroke-linecap:round;stroke-width:1.5;"/>
   </g>
   <g id="line2d_36">
    <path clip-path="url(#p23fb521cd1)" d="M 412.161497 33.51024 
L 435.370053 34.07724 
L 458.57861 36.10332 
L 481.787166 40.07232 
L 504.995722 52.54632 
L 528.204278 61.70904 
L 551.412834 76.96512 
L 574.62139 91.33668 
L 597.829947 97.38468 
L 621.038503 101.84508 
" style="fill:none;stroke:#ffb482;stroke-linecap:round;stroke-width:1.5;"/>
   </g>
   <g id="line2d_37">
    <path clip-path="url(#p23fb521cd1)" d="M 412.161497 91.74492 
L 435.370053 40.1706 
L 458.57861 34.3872 
L 481.787166 34.09992 
L 504.995722 35.69508 
L 528.204278 38.74932 
L 551.412834 42.77124 
L 574.62139 45.19044 
L 597.829947 44.1774 
L 621.038503 42.80904 
" style="fill:none;stroke:#8de5a1;stroke-linecap:round;stroke-width:1.5;"/>
   </g>
   <g id="line2d_38">
    <path clip-path="url(#p23fb521cd1)" d="M 412.161497 109.08 
L 435.370053 109.08 
L 458.57861 109.08 
L 481.787166 109.08 
L 504.995722 109.08 
L 528.204278 109.08 
L 551.412834 109.08 
L 574.62139 109.08 
L 597.829947 109.08 
L 621.038503 109.08 
" style="fill:none;stroke:#1a1a1a;stroke-dasharray:5.55,2.4;stroke-dashoffset:0;stroke-width:1.5;"/>
   </g>
   <g id="patch_7">
    <path d="M 401.717647 192.24 
L 401.717647 25.92 
" style="fill:none;stroke:#262626;stroke-linecap:square;stroke-linejoin:miter;stroke-width:1.25;"/>
   </g>
   <g id="patch_8">
    <path d="M 401.717647 192.24 
L 631.482353 192.24 
" style="fill:none;stroke:#262626;stroke-linecap:square;stroke-linejoin:miter;stroke-width:1.25;"/>
   </g>
   <g id="text_32">
    <!-- Task -->
    <g style="fill:#262626;" transform="translate(498.099375 19.92)scale(0.18 -0.18)">
     <defs>
      <path d="M 2250 3916 
L 2250 0 
L 1656 0 
L 1656 3916 
L 144 3916 
L 144 4403 
L 3763 4403 
L 3763 3916 
L 2250 3916 
z
" id="LiberationSans-54" transform="scale(0.015625)"/>
      <path d="M 2550 0 
L 1406 1544 
L 994 1203 
L 994 0 
L 431 0 
L 431 4638 
L 994 4638 
L 994 1741 
L 2478 3381 
L 3138 3381 
L 1766 1928 
L 3209 0 
L 2550 0 
z
" id="LiberationSans-6b" transform="scale(0.015625)"/>
     </defs>
     <use xlink:href="#LiberationSans-54"/>
     <use x="49.958984" xlink:href="#LiberationSans-61"/>
     <use x="105.574219" xlink:href="#LiberationSans-73"/>
     <use x="155.574219" xlink:href="#LiberationSans-6b"/>
    </g>
   </g>
  </g>
  <g id="axes_3">
   <g id="patch_9">
    <path d="M 677.435294 192.24 
L 907.2 192.24 
L 907.2 25.92 
L 677.435294 25.92 
z
" style="fill:#ffffff;"/>
   </g>
   <g id="matplotlib.axis_5">
    <g id="xtick_11">
     <g id="line2d_39">
      <g>
       <use style="fill:#262626;stroke:#262626;stroke-width:1.25;" x="687.879144" xlink:href="#mee5d75b2b3" y="192.24"/>
      </g>
     </g>
     <g id="text_33">
      <!-- 2 -->
      <g style="fill:#262626;" transform="translate(684.542582 210.43625)scale(0.12 -0.12)">
       <use xlink:href="#LiberationSans-32"/>
      </g>
     </g>
    </g>
    <g id="xtick_12">
     <g id="line2d_40">
      <g>
       <use style="fill:#262626;stroke:#262626;stroke-width:1.25;" x="734.296257" xlink:href="#mee5d75b2b3" y="192.24"/>
      </g>
     </g>
     <g id="text_34">
      <!-- 4 -->
      <g style="fill:#262626;" transform="translate(730.959694 210.43625)scale(0.12 -0.12)">
       <use xlink:href="#LiberationSans-34"/>
      </g>
     </g>
    </g>
    <g id="xtick_13">
     <g id="line2d_41">
      <g>
       <use style="fill:#262626;stroke:#262626;stroke-width:1.25;" x="780.713369" xlink:href="#mee5d75b2b3" y="192.24"/>
      </g>
     </g>
     <g id="text_35">
      <!-- 6 -->
      <g style="fill:#262626;" transform="translate(777.376806 210.43625)scale(0.12 -0.12)">
       <use xlink:href="#LiberationSans-36"/>
      </g>
     </g>
    </g>
    <g id="xtick_14">
     <g id="line2d_42">
      <g>
       <use style="fill:#262626;stroke:#262626;stroke-width:1.25;" x="827.130481" xlink:href="#mee5d75b2b3" y="192.24"/>
      </g>
     </g>
     <g id="text_36">
      <!-- 8 -->
      <g style="fill:#262626;" transform="translate(823.793919 210.43625)scale(0.12 -0.12)">
       <use xlink:href="#LiberationSans-38"/>
      </g>
     </g>
    </g>
    <g id="xtick_15">
     <g id="line2d_43">
      <g>
       <use style="fill:#262626;stroke:#262626;stroke-width:1.25;" x="873.547594" xlink:href="#mee5d75b2b3" y="192.24"/>
      </g>
     </g>
     <g id="text_37">
      <!-- 10 -->
      <g style="fill:#262626;" transform="translate(866.874469 210.43625)scale(0.12 -0.12)">
       <use xlink:href="#LiberationSans-31"/>
       <use x="55.615234" xlink:href="#LiberationSans-30"/>
      </g>
     </g>
    </g>
    <g id="text_38">
     <!-- Layer -->
     <g style="fill:#262626;" transform="translate(774.808897 227.071875)scale(0.14 -0.14)">
      <use xlink:href="#LiberationSans-4c"/>
      <use x="55.615234" xlink:href="#LiberationSans-61"/>
      <use x="111.230469" xlink:href="#LiberationSans-79"/>
      <use x="161.230469" xlink:href="#LiberationSans-65"/>
      <use x="216.845703" xlink:href="#LiberationSans-72"/>
     </g>
    </g>
   </g>
   <g id="matplotlib.axis_6">
    <g id="ytick_13">
     <g id="line2d_44">
      <g>
       <use style="fill:#262626;stroke:#262626;stroke-width:1.25;" x="677.435294" xlink:href="#mb20bd18807" y="184.68"/>
      </g>
     </g>
     <g id="text_39">
      <!-- 0.0 -->
      <g style="fill:#262626;" transform="translate(651.255294 189.028125)scale(0.12 -0.12)">
       <use xlink:href="#LiberationSans-30"/>
       <use x="55.615234" xlink:href="#LiberationSans-2e"/>
       <use x="83.398438" xlink:href="#LiberationSans-30"/>
      </g>
     </g>
    </g>
    <g id="ytick_14">
     <g id="line2d_45">
      <g>
       <use style="fill:#262626;stroke:#262626;stroke-width:1.25;" x="677.435294" xlink:href="#mb20bd18807" y="154.44"/>
      </g>
     </g>
     <g id="text_40">
      <!-- 0.2 -->
      <g style="fill:#262626;" transform="translate(651.255294 158.788125)scale(0.12 -0.12)">
       <use xlink:href="#LiberationSans-30"/>
       <use x="55.615234" xlink:href="#LiberationSans-2e"/>
       <use x="83.398438" xlink:href="#LiberationSans-32"/>
      </g>
     </g>
    </g>
    <g id="ytick_15">
     <g id="line2d_46">
      <g>
       <use style="fill:#262626;stroke:#262626;stroke-width:1.25;" x="677.435294" xlink:href="#mb20bd18807" y="124.2"/>
      </g>
     </g>
     <g id="text_41">
      <!-- 0.4 -->
      <g style="fill:#262626;" transform="translate(651.255294 128.548125)scale(0.12 -0.12)">
       <use xlink:href="#LiberationSans-30"/>
       <use x="55.615234" xlink:href="#LiberationSans-2e"/>
       <use x="83.398438" xlink:href="#LiberationSans-34"/>
      </g>
     </g>
    </g>
    <g id="ytick_16">
     <g id="line2d_47">
      <g>
       <use style="fill:#262626;stroke:#262626;stroke-width:1.25;" x="677.435294" xlink:href="#mb20bd18807" y="93.96"/>
      </g>
     </g>
     <g id="text_42">
      <!-- 0.6 -->
      <g style="fill:#262626;" transform="translate(651.255294 98.308125)scale(0.12 -0.12)">
       <use xlink:href="#LiberationSans-30"/>
       <use x="55.615234" xlink:href="#LiberationSans-2e"/>
       <use x="83.398438" xlink:href="#LiberationSans-36"/>
      </g>
     </g>
    </g>
    <g id="ytick_17">
     <g id="line2d_48">
      <g>
       <use style="fill:#262626;stroke:#262626;stroke-width:1.25;" x="677.435294" xlink:href="#mb20bd18807" y="63.72"/>
      </g>
     </g>
     <g id="text_43">
      <!-- 0.8 -->
      <g style="fill:#262626;" transform="translate(651.255294 68.068125)scale(0.12 -0.12)">
       <use xlink:href="#LiberationSans-30"/>
       <use x="55.615234" xlink:href="#LiberationSans-2e"/>
       <use x="83.398438" xlink:href="#LiberationSans-38"/>
      </g>
     </g>
    </g>
    <g id="ytick_18">
     <g id="line2d_49">
      <g>
       <use style="fill:#262626;stroke:#262626;stroke-width:1.25;" x="677.435294" xlink:href="#mb20bd18807" y="33.48"/>
      </g>
     </g>
     <g id="text_44">
      <!-- 1.0 -->
      <g style="fill:#262626;" transform="translate(651.255294 37.828125)scale(0.12 -0.12)">
       <use xlink:href="#LiberationSans-31"/>
       <use x="55.615234" xlink:href="#LiberationSans-2e"/>
       <use x="83.398438" xlink:href="#LiberationSans-30"/>
      </g>
     </g>
    </g>
    <g id="text_45">
     <!-- Accuracy -->
     <g style="fill:#262626;" transform="translate(644.350294 137.865312)rotate(-90)scale(0.14 -0.14)">
      <use xlink:href="#LiberationSans-41"/>
      <use x="66.699219" xlink:href="#LiberationSans-63"/>
      <use x="116.699219" xlink:href="#LiberationSans-63"/>
      <use x="166.699219" xlink:href="#LiberationSans-75"/>
      <use x="222.314453" xlink:href="#LiberationSans-72"/>
      <use x="255.615234" xlink:href="#LiberationSans-61"/>
      <use x="311.230469" xlink:href="#LiberationSans-63"/>
      <use x="361.230469" xlink:href="#LiberationSans-79"/>
     </g>
    </g>
   </g>
   <g id="PolyCollection_7">
    <defs>
     <path d="M 687.879144 -179.05368 
L 687.879144 -177.86688 
L 711.087701 -180.072138 
L 734.296257 -180.111946 
L 757.504813 -179.82864 
L 780.713369 -179.765734 
L 803.921925 -178.289802 
L 827.130481 -177.450006 
L 850.339037 -176.258839 
L 873.547594 -174.070368 
L 896.75615 -172.74499 
L 896.75615 -176.84237 
L 896.75615 -176.84237 
L 873.547594 -177.149952 
L 850.339037 -177.804041 
L 827.130481 -178.790154 
L 803.921925 -179.764758 
L 780.713369 -180.239306 
L 757.504813 -180.87192 
L 734.296257 -180.921254 
L 711.087701 -180.794742 
L 687.879144 -179.05368 
z
" id="m47237f79bd" style="stroke:#ffffff;stroke-opacity:0.5;"/>
    </defs>
    <g clip-path="url(#p6e57fb87d7)">
     <use style="fill:#a1c9f4;fill-opacity:0.5;stroke:#ffffff;stroke-opacity:0.5;" x="0" xlink:href="#m47237f79bd" y="216"/>
    </g>
   </g>
   <g id="PolyCollection_8">
    <defs>
     <path d="M 687.879144 -178.351076 
L 687.879144 -177.148204 
L 711.087701 -179.445544 
L 734.296257 -179.276518 
L 757.504813 -178.914322 
L 780.713369 -175.286741 
L 803.921925 -168.674735 
L 827.130481 -152.745568 
L 850.339037 -141.360822 
L 873.547594 -128.975744 
L 896.75615 -125.526707 
L 896.75615 -134.429293 
L 896.75615 -134.429293 
L 873.547594 -144.482416 
L 850.339037 -155.775258 
L 827.130481 -173.783792 
L 803.921925 -177.903745 
L 780.713369 -178.897099 
L 757.504813 -180.077678 
L 734.296257 -180.456362 
L 711.087701 -180.347816 
L 687.879144 -178.351076 
z
" id="ma33a7465f8" style="stroke:#ffffff;stroke-opacity:0.5;"/>
    </defs>
    <g clip-path="url(#p6e57fb87d7)">
     <use style="fill:#ffb482;fill-opacity:0.5;stroke:#ffffff;stroke-opacity:0.5;" x="0" xlink:href="#ma33a7465f8" y="216"/>
    </g>
   </g>
   <g id="PolyCollection_9">
    <defs>
     <path d="M 687.879144 -178.547658 
L 687.879144 -177.405222 
L 711.087701 -180.139005 
L 734.296257 -179.92778 
L 757.504813 -179.861656 
L 780.713369 -179.648906 
L 803.921925 -179.170419 
L 827.130481 -177.78907 
L 850.339037 -170.080846 
L 873.547594 -163.446694 
L 896.75615 -156.692438 
L 896.75615 -163.547002 
L 896.75615 -163.547002 
L 873.547594 -173.893466 
L 850.339037 -180.202034 
L 827.130481 -179.75141 
L 803.921925 -180.426381 
L 780.713369 -180.719014 
L 757.504813 -180.929624 
L 734.296257 -180.92398 
L 711.087701 -180.561555 
L 687.879144 -178.547658 
z
" id="m1e477095a1" style="stroke:#ffffff;stroke-opacity:0.5;"/>
    </defs>
    <g clip-path="url(#p6e57fb87d7)">
     <use style="fill:#8de5a1;fill-opacity:0.5;stroke:#ffffff;stroke-opacity:0.5;" x="0" xlink:href="#m1e477095a1" y="216"/>
    </g>
   </g>
   <g id="line2d_50">
    <path clip-path="url(#p6e57fb87d7)" d="M 687.879144 37.53972 
L 711.087701 35.56656 
L 734.296257 35.4834 
L 757.504813 35.64972 
L 780.713369 35.99748 
L 803.921925 36.97272 
L 827.130481 37.87992 
L 850.339037 38.96856 
L 873.547594 40.38984 
L 896.75615 41.20632 
" style="fill:none;stroke:#a1c9f4;stroke-linecap:round;stroke-width:1.5;"/>
   </g>
   <g id="line2d_51">
    <path clip-path="url(#p6e57fb87d7)" d="M 687.879144 38.25036 
L 711.087701 36.10332 
L 734.296257 36.13356 
L 757.504813 36.504 
L 780.713369 38.90808 
L 803.921925 42.71076 
L 827.130481 52.73532 
L 850.339037 67.43196 
L 873.547594 79.27092 
L 896.75615 86.022 
" style="fill:none;stroke:#ffb482;stroke-linecap:round;stroke-width:1.5;"/>
   </g>
   <g id="line2d_52">
    <path clip-path="url(#p6e57fb87d7)" d="M 687.879144 38.02356 
L 711.087701 35.64972 
L 734.296257 35.57412 
L 757.504813 35.60436 
L 780.713369 35.81604 
L 803.921925 36.2016 
L 827.130481 37.22976 
L 850.339037 40.85856 
L 873.547594 47.32992 
L 896.75615 55.88028 
" style="fill:none;stroke:#8de5a1;stroke-linecap:round;stroke-width:1.5;"/>
   </g>
   <g id="line2d_53">
    <path clip-path="url(#p6e57fb87d7)" d="M 687.879144 109.08 
L 711.087701 109.08 
L 734.296257 109.08 
L 757.504813 109.08 
L 780.713369 109.08 
L 803.921925 109.08 
L 827.130481 109.08 
L 850.339037 109.08 
L 873.547594 109.08 
L 896.75615 109.08 
" style="fill:none;stroke:#1a1a1a;stroke-dasharray:5.55,2.4;stroke-dashoffset:0;stroke-width:1.5;"/>
   </g>
   <g id="patch_10">
    <path d="M 677.435294 192.24 
L 677.435294 25.92 
" style="fill:none;stroke:#262626;stroke-linecap:square;stroke-linejoin:miter;stroke-width:1.25;"/>
   </g>
   <g id="patch_11">
    <path d="M 677.435294 192.24 
L 907.2 192.24 
" style="fill:none;stroke:#262626;stroke-linecap:square;stroke-linejoin:miter;stroke-width:1.25;"/>
   </g>
   <g id="text_46">
    <!-- Congruency -->
    <g style="fill:#262626;" transform="translate(743.792178 19.92)scale(0.18 -0.18)">
     <defs>
      <path d="M 1713 -1328 
Q 1159 -1328 831 -1111 
Q 503 -894 409 -494 
L 975 -413 
Q 1031 -647 1223 -773 
Q 1416 -900 1728 -900 
Q 2569 -900 2569 84 
L 2569 628 
L 2563 628 
Q 2403 303 2125 139 
Q 1847 -25 1475 -25 
Q 853 -25 561 387 
Q 269 800 269 1684 
Q 269 2581 583 3007 
Q 897 3434 1538 3434 
Q 1897 3434 2161 3270 
Q 2425 3106 2569 2803 
L 2575 2803 
Q 2575 2897 2587 3128 
Q 2600 3359 2613 3381 
L 3147 3381 
Q 3128 3213 3128 2681 
L 3128 97 
Q 3128 -1328 1713 -1328 
z
M 2569 1691 
Q 2569 2103 2456 2401 
Q 2344 2700 2139 2858 
Q 1934 3016 1675 3016 
Q 1244 3016 1047 2703 
Q 850 2391 850 1691 
Q 850 997 1034 694 
Q 1219 391 1666 391 
Q 1931 391 2137 547 
Q 2344 703 2456 995 
Q 2569 1288 2569 1691 
z
" id="LiberationSans-67" transform="scale(0.015625)"/>
     </defs>
     <use xlink:href="#LiberationSans-43"/>
     <use x="72.216797" xlink:href="#LiberationSans-6f"/>
     <use x="127.832031" xlink:href="#LiberationSans-6e"/>
     <use x="183.447266" xlink:href="#LiberationSans-67"/>
     <use x="239.0625" xlink:href="#LiberationSans-72"/>
     <use x="272.363281" xlink:href="#LiberationSans-75"/>
     <use x="327.978516" xlink:href="#LiberationSans-65"/>
     <use x="383.59375" xlink:href="#LiberationSans-6e"/>
     <use x="439.208984" xlink:href="#LiberationSans-63"/>
     <use x="489.208984" xlink:href="#LiberationSans-79"/>
    </g>
   </g>
  </g>
 </g>
 <defs>
  <clipPath id="p962b8dccbe">
   <rect height="166.32" width="229.764706" x="126" y="25.92"/>
  </clipPath>
  <clipPath id="p23fb521cd1">
   <rect height="166.32" width="229.764706" x="401.717647" y="25.92"/>
  </clipPath>
  <clipPath id="p6e57fb87d7">
   <rect height="166.32" width="229.764706" x="677.435294" y="25.92"/>
  </clipPath>
 </defs>
</svg>
