<?xml version="1.0" encoding="utf-8" standalone="no"?>
<!DOCTYPE svg PUBLIC "-//W3C//DTD SVG 1.1//EN"
  "http://www.w3.org/Graphics/SVG/1.1/DTD/svg11.dtd">
<svg xmlns:xlink="http://www.w3.org/1999/xlink" width="432pt" height="288pt" viewBox="0 0 432 288" xmlns="http://www.w3.org/2000/svg" version="1.1">
 <metadata>
  <rdf:RDF xmlns:dc="http://purl.org/dc/elements/1.1/" xmlns:cc="http://creativecommons.org/ns#" xmlns:rdf="http://www.w3.org/1999/02/22-rdf-syntax-ns#">
   <cc:Work>
    <dc:type rdf:resource="http://purl.org/dc/dcmitype/StillImage"/>
    <dc:date>2024-02-04T16:59:08.357526</dc:date>
    <dc:format>image/svg+xml</dc:format>
    <dc:creator>
     <cc:Agent>
      <dc:title>Matplotlib v3.7.4, https://matplotlib.org/</dc:title>
     </cc:Agent>
    </dc:creator>
   </cc:Work>
  </rdf:RDF>
 </metadata>
 <defs>
  <style type="text/css">*{stroke-linejoin: round; stroke-linecap: butt}</style>
 </defs>
 <g id="figure_1">
  <g id="patch_1">
   <path d="M 0 288 
L 432 288 
L 432 0 
L 0 0 
z
" style="fill: #ffffff"/>
  </g>
  <g id="axes_1">
   <g id="patch_2">
    <path d="M 54 256.32 
L 388.8 256.32 
L 388.8 34.56 
L 54 34.56 
z
" style="fill: #ffffff"/>
   </g>
   <g id="PolyCollection_1">
    <defs>
     <path id="mcc61478b8b" d="M 69.218182 -249.279634 
L 69.218182 -248.618201 
L 72.261818 -248.625396 
L 75.305455 -248.372102 
L 78.349091 -247.863782 
L 81.392727 -247.095529 
L 84.436364 -245.929859 
L 87.48 -244.368145 
L 90.523636 -242.050679 
L 93.567273 -238.875945 
L 96.610909 -235.095867 
L 99.654545 -230.955924 
L 102.698182 -226.645071 
L 105.741818 -221.733413 
L 108.785455 -216.692935 
L 111.829091 -211.491206 
L 114.872727 -206.241773 
L 117.916364 -201.224212 
L 120.96 -196.446731 
L 124.003636 -191.966786 
L 127.047273 -187.853088 
L 130.090909 -183.743357 
L 133.134545 -179.662103 
L 136.178182 -175.651579 
L 139.221818 -171.747973 
L 142.265455 -167.698711 
L 145.309091 -163.580955 
L 148.352727 -159.617079 
L 151.396364 -155.719056 
L 154.44 -152.057558 
L 157.483636 -148.391955 
L 160.527273 -144.639388 
L 163.570909 -140.998297 
L 166.614545 -137.538713 
L 169.658182 -134.157369 
L 172.701818 -131.096959 
L 175.745455 -128.182389 
L 178.789091 -125.399217 
L 181.832727 -122.790183 
L 184.876364 -120.338813 
L 187.92 -117.914811 
L 190.963636 -115.585733 
L 194.007273 -113.364803 
L 197.050909 -111.275397 
L 200.094545 -109.399775 
L 203.138182 -107.57107 
L 206.181818 -105.935817 
L 209.225455 -104.475198 
L 212.269091 -103.096802 
L 215.312727 -101.742721 
L 218.356364 -100.592786 
L 221.4 -99.540628 
L 224.443636 -98.491831 
L 227.487273 -97.502268 
L 230.530909 -96.591036 
L 233.574545 -95.722835 
L 236.618182 -94.83868 
L 239.661818 -93.911723 
L 242.705455 -93.182396 
L 245.749091 -92.507876 
L 248.792727 -91.880067 
L 251.836364 -91.297315 
L 254.88 -90.722956 
L 257.923636 -90.148446 
L 260.967273 -89.604835 
L 264.010909 -89.066192 
L 267.054545 -88.501457 
L 270.098182 -88.070213 
L 273.141818 -87.727043 
L 276.185455 -87.363011 
L 279.229091 -87.014932 
L 282.272727 -86.674908 
L 285.316364 -86.396406 
L 288.36 -86.090095 
L 291.403636 -85.809555 
L 294.447273 -85.489115 
L 297.490909 -85.224462 
L 300.534545 -84.946535 
L 303.578182 -84.630058 
L 306.621818 -84.377331 
L 309.665455 -84.147868 
L 312.709091 -83.926481 
L 315.752727 -83.70108 
L 318.796364 -83.503291 
L 321.84 -83.277608 
L 324.883636 -83.049447 
L 327.927273 -82.831107 
L 330.970909 -82.641615 
L 334.014545 -82.448198 
L 337.058182 -82.235256 
L 340.101818 -82.059852 
L 343.145455 -81.900621 
L 346.189091 -81.732345 
L 349.232727 -81.536642 
L 352.276364 -81.356663 
L 355.32 -81.183285 
L 358.363636 -81.045966 
L 361.407273 -80.90631 
L 364.450909 -80.749257 
L 367.494545 -80.584482 
L 370.538182 -80.394534 
L 373.581818 -80.228926 
L 373.581818 -116.636054 
L 373.581818 -116.636054 
L 370.538182 -116.653091 
L 367.494545 -116.684444 
L 364.450909 -116.728833 
L 361.407273 -116.791641 
L 358.363636 -116.87933 
L 355.32 -116.966079 
L 352.276364 -117.061058 
L 349.232727 -117.169636 
L 346.189091 -117.29204 
L 343.145455 -117.404233 
L 340.101818 -117.530713 
L 337.058182 -117.683807 
L 334.014545 -117.870462 
L 330.970909 -118.067119 
L 327.927273 -118.303037 
L 324.883636 -118.554572 
L 321.84 -118.817169 
L 318.796364 -119.086995 
L 315.752727 -119.332792 
L 312.709091 -119.59904 
L 309.665455 -119.898497 
L 306.621818 -120.231265 
L 303.578182 -120.596983 
L 300.534545 -120.956203 
L 297.490909 -121.340899 
L 294.447273 -121.729026 
L 291.403636 -122.119842 
L 288.36 -122.508849 
L 285.316364 -122.939694 
L 282.272727 -123.390196 
L 279.229091 -123.89412 
L 276.185455 -124.431485 
L 273.141818 -125.010108 
L 270.098182 -125.633077 
L 267.054545 -126.28619 
L 264.010909 -126.993552 
L 260.967273 -127.72678 
L 257.923636 -128.47795 
L 254.88 -129.240648 
L 251.836364 -130.043015 
L 248.792727 -130.934645 
L 245.749091 -131.899705 
L 242.705455 -132.889067 
L 239.661818 -133.87362 
L 236.618182 -134.94382 
L 233.574545 -136.089036 
L 230.530909 -137.25924 
L 227.487273 -138.475116 
L 224.443636 -139.738631 
L 221.4 -140.987738 
L 218.356364 -142.290587 
L 215.312727 -143.700963 
L 212.269091 -145.257102 
L 209.225455 -146.861811 
L 206.181818 -148.564817 
L 203.138182 -150.351094 
L 200.094545 -152.136959 
L 197.050909 -153.965403 
L 194.007273 -155.872623 
L 190.963636 -157.816616 
L 187.92 -159.889083 
L 184.876364 -162.183535 
L 181.832727 -164.521061 
L 178.789091 -166.940851 
L 175.745455 -169.506403 
L 172.701818 -172.124222 
L 169.658182 -174.819886 
L 166.614545 -177.739235 
L 163.570909 -180.727011 
L 160.527273 -183.802393 
L 157.483636 -186.921289 
L 154.44 -189.953835 
L 151.396364 -193.007151 
L 148.352727 -196.339672 
L 145.309091 -199.812772 
L 142.265455 -203.158739 
L 139.221818 -206.487781 
L 136.178182 -209.846021 
L 133.134545 -213.239832 
L 130.090909 -216.608032 
L 127.047273 -219.942354 
L 124.003636 -223.073196 
L 120.96 -226.061163 
L 117.916364 -228.872177 
L 114.872727 -231.559882 
L 111.829091 -234.287609 
L 108.785455 -236.843928 
L 105.741818 -239.242089 
L 102.698182 -241.485366 
L 99.654545 -243.356786 
L 96.610909 -244.843997 
L 93.567273 -245.989259 
L 90.523636 -246.838462 
L 87.48 -247.497385 
L 84.436364 -248.064262 
L 81.392727 -248.45922 
L 78.349091 -248.792485 
L 75.305455 -249.064822 
L 72.261818 -249.205871 
L 69.218182 -249.279634 
z
" style="stroke: #c0d9ff; stroke-opacity: 0.5"/>
    </defs>
    <g clip-path="url(#p9bebcbb634)">
     <use xlink:href="#mcc61478b8b" x="0" y="288" style="fill: #c0d9ff; fill-opacity: 0.5; stroke: #c0d9ff; stroke-opacity: 0.5"/>
    </g>
   </g>
   <g id="PolyCollection_2">
    <defs>
     <path id="m095436332e" d="M 69.218182 -248.638427 
L 69.218182 -247.915444 
L 72.261818 -247.943172 
L 75.305455 -247.739562 
L 78.349091 -247.416196 
L 81.392727 -246.734973 
L 84.436364 -245.565424 
L 87.48 -243.784976 
L 90.523636 -241.429234 
L 93.567273 -238.674505 
L 96.610909 -235.141855 
L 99.654545 -230.886701 
L 102.698182 -226.085118 
L 105.741818 -220.498177 
L 108.785455 -214.815756 
L 111.829091 -208.818646 
L 114.872727 -202.471508 
L 117.916364 -196.02228 
L 120.96 -189.819332 
L 124.003636 -183.883266 
L 127.047273 -178.156099 
L 130.090909 -172.495387 
L 133.134545 -167.244553 
L 136.178182 -162.591904 
L 139.221818 -158.040929 
L 142.265455 -153.503103 
L 145.309091 -149.196349 
L 148.352727 -145.02845 
L 151.396364 -141.2015 
L 154.44 -137.418947 
L 157.483636 -133.688061 
L 160.527273 -130.316449 
L 163.570909 -127.314536 
L 166.614545 -124.519702 
L 169.658182 -121.799065 
L 172.701818 -118.994875 
L 175.745455 -116.25951 
L 178.789091 -113.725156 
L 181.832727 -111.254362 
L 184.876364 -108.840778 
L 187.92 -106.700843 
L 190.963636 -104.597662 
L 194.007273 -102.625947 
L 197.050909 -100.760282 
L 200.094545 -98.94536 
L 203.138182 -97.198603 
L 206.181818 -95.520498 
L 209.225455 -94.06898 
L 212.269091 -92.619976 
L 215.312727 -91.264972 
L 218.356364 -90.035177 
L 221.4 -88.858004 
L 224.443636 -87.695886 
L 227.487273 -86.62829 
L 230.530909 -85.654382 
L 233.574545 -84.81173 
L 236.618182 -84.025196 
L 239.661818 -83.271261 
L 242.705455 -82.544715 
L 245.749091 -81.935104 
L 248.792727 -81.28055 
L 251.836364 -80.723419 
L 254.88 -80.238117 
L 257.923636 -79.718497 
L 260.967273 -79.271914 
L 264.010909 -78.864468 
L 267.054545 -78.564087 
L 270.098182 -78.245238 
L 273.141818 -77.944055 
L 276.185455 -77.738779 
L 279.229091 -77.549101 
L 282.272727 -77.373575 
L 285.316364 -77.195029 
L 288.36 -77.024034 
L 291.403636 -76.873372 
L 294.447273 -76.752163 
L 297.490909 -76.679213 
L 300.534545 -76.616685 
L 303.578182 -76.544552 
L 306.621818 -76.523818 
L 309.665455 -76.502157 
L 312.709091 -76.470029 
L 315.752727 -76.433727 
L 318.796364 -76.416346 
L 321.84 -76.397112 
L 324.883636 -76.385762 
L 327.927273 -76.373969 
L 330.970909 -76.385194 
L 334.014545 -76.389557 
L 337.058182 -76.397964 
L 340.101818 -76.400331 
L 343.145455 -76.398428 
L 346.189091 -76.405977 
L 349.232727 -76.412481 
L 352.276364 -76.437195 
L 355.32 -76.474583 
L 358.363636 -76.50098 
L 361.407273 -76.527589 
L 364.450909 -76.564008 
L 367.494545 -76.609736 
L 370.538182 -76.652682 
L 373.581818 -76.683522 
L 373.581818 -85.526747 
L 373.581818 -85.526747 
L 370.538182 -85.761739 
L 367.494545 -86.010841 
L 364.450909 -86.297288 
L 361.407273 -86.605085 
L 358.363636 -86.915998 
L 355.32 -87.169603 
L 352.276364 -87.485045 
L 349.232727 -87.844387 
L 346.189091 -88.12967 
L 343.145455 -88.492604 
L 340.101818 -88.824976 
L 337.058182 -89.117684 
L 334.014545 -89.448923 
L 330.970909 -89.84792 
L 327.927273 -90.277507 
L 324.883636 -90.734297 
L 321.84 -91.193643 
L 318.796364 -91.652679 
L 315.752727 -92.16639 
L 312.709091 -92.666165 
L 309.665455 -93.226619 
L 306.621818 -93.825987 
L 303.578182 -94.458448 
L 300.534545 -95.139626 
L 297.490909 -95.746367 
L 294.447273 -96.401867 
L 291.403636 -97.056024 
L 288.36 -97.704526 
L 285.316364 -98.406388 
L 282.272727 -99.126014 
L 279.229091 -99.977337 
L 276.185455 -100.759047 
L 273.141818 -101.570161 
L 270.098182 -102.447368 
L 267.054545 -103.3233 
L 264.010909 -104.330185 
L 260.967273 -105.338566 
L 257.923636 -106.38275 
L 254.88 -107.491178 
L 251.836364 -108.588585 
L 248.792727 -109.8222 
L 245.749091 -111.032327 
L 242.705455 -112.315805 
L 239.661818 -113.692592 
L 236.618182 -114.926968 
L 233.574545 -116.230471 
L 230.530909 -117.644994 
L 227.487273 -119.078836 
L 224.443636 -120.525548 
L 221.4 -122.165119 
L 218.356364 -123.913658 
L 215.312727 -125.657014 
L 212.269091 -127.540471 
L 209.225455 -129.437667 
L 206.181818 -131.458177 
L 203.138182 -133.591038 
L 200.094545 -135.895543 
L 197.050909 -138.162942 
L 194.007273 -140.498708 
L 190.963636 -142.897074 
L 187.92 -145.30336 
L 184.876364 -147.822674 
L 181.832727 -150.53665 
L 178.789091 -153.153995 
L 175.745455 -155.90247 
L 172.701818 -158.627923 
L 169.658182 -161.517729 
L 166.614545 -164.527989 
L 163.570909 -167.529677 
L 160.527273 -170.740638 
L 157.483636 -174.284066 
L 154.44 -177.867106 
L 151.396364 -181.612749 
L 148.352727 -185.440815 
L 145.309091 -189.193712 
L 142.265455 -192.81186 
L 139.221818 -196.401705 
L 136.178182 -200.110761 
L 133.134545 -203.898268 
L 130.090909 -207.844018 
L 127.047273 -211.836763 
L 124.003636 -215.976082 
L 120.96 -220.088859 
L 117.916364 -224.098902 
L 114.872727 -227.96021 
L 111.829091 -231.866856 
L 108.785455 -235.473504 
L 105.741818 -238.508614 
L 102.698182 -240.877831 
L 99.654545 -242.799145 
L 96.610909 -244.275577 
L 93.567273 -245.463062 
L 90.523636 -246.355996 
L 87.48 -247.011267 
L 84.436364 -247.54005 
L 81.392727 -247.997294 
L 78.349091 -248.362745 
L 75.305455 -248.575363 
L 72.261818 -248.673539 
L 69.218182 -248.638427 
z
" style="stroke: #ffbfc4; stroke-opacity: 0.5"/>
    </defs>
    <g clip-path="url(#p9bebcbb634)">
     <use xlink:href="#m095436332e" x="0" y="288" style="fill: #ffbfc4; fill-opacity: 0.5; stroke: #ffbfc4; stroke-opacity: 0.5"/>
    </g>
   </g>
   <g id="matplotlib.axis_1">
    <g id="xtick_1">
     <g id="line2d_1">
      <defs>
       <path id="m162e65036f" d="M 0 0 
L 0 3.5 
" style="stroke: #000000; stroke-width: 1.5"/>
      </defs>
      <g>
       <use xlink:href="#m162e65036f" x="69.218182" y="256.32" style="stroke: #000000; stroke-width: 1.5"/>
      </g>
     </g>
     <g id="text_1">
      <!-- 1 -->
      <g transform="translate(65.325526 273.465625) scale(0.14 -0.14)">
       <defs>
        <path id="LiberationSans-31" d="M 488 0 
L 488 478 
L 1609 478 
L 1609 3866 
L 616 3156 
L 616 3688 
L 1656 4403 
L 2175 4403 
L 2175 478 
L 3247 478 
L 3247 0 
L 488 0 
z
" transform="scale(0.015625)"/>
       </defs>
       <use xlink:href="#LiberationSans-31"/>
      </g>
     </g>
    </g>
    <g id="xtick_2">
     <g id="line2d_2">
      <g>
       <use xlink:href="#m162e65036f" x="111.199373" y="256.32" style="stroke: #000000; stroke-width: 1.5"/>
      </g>
     </g>
     <g id="text_2">
      <!-- 5 -->
      <g transform="translate(107.306717 273.465625) scale(0.14 -0.14)">
       <defs>
        <path id="LiberationSans-35" d="M 3291 1434 
Q 3291 738 2877 337 
Q 2463 -63 1728 -63 
Q 1113 -63 734 206 
Q 356 475 256 984 
L 825 1050 
Q 1003 397 1741 397 
Q 2194 397 2450 670 
Q 2706 944 2706 1422 
Q 2706 1838 2448 2094 
Q 2191 2350 1753 2350 
Q 1525 2350 1328 2278 
Q 1131 2206 934 2034 
L 384 2034 
L 531 4403 
L 3034 4403 
L 3034 3925 
L 1044 3925 
L 959 2528 
Q 1325 2809 1869 2809 
Q 2519 2809 2905 2428 
Q 3291 2047 3291 1434 
z
" transform="scale(0.015625)"/>
       </defs>
       <use xlink:href="#LiberationSans-35"/>
      </g>
     </g>
    </g>
    <g id="xtick_3">
     <g id="line2d_3">
      <g>
       <use xlink:href="#m162e65036f" x="163.675862" y="256.32" style="stroke: #000000; stroke-width: 1.5"/>
      </g>
     </g>
     <g id="text_3">
      <!-- 10 -->
      <g transform="translate(155.89055 273.465625) scale(0.14 -0.14)">
       <defs>
        <path id="LiberationSans-30" d="M 3309 2203 
Q 3309 1100 2920 518 
Q 2531 -63 1772 -63 
Q 1013 -63 631 515 
Q 250 1094 250 2203 
Q 250 3338 620 3903 
Q 991 4469 1791 4469 
Q 2569 4469 2939 3897 
Q 3309 3325 3309 2203 
z
M 2738 2203 
Q 2738 3156 2517 3584 
Q 2297 4013 1791 4013 
Q 1272 4013 1045 3591 
Q 819 3169 819 2203 
Q 819 1266 1048 831 
Q 1278 397 1778 397 
Q 2275 397 2506 840 
Q 2738 1284 2738 2203 
z
" transform="scale(0.015625)"/>
       </defs>
       <use xlink:href="#LiberationSans-31"/>
       <use xlink:href="#LiberationSans-30" x="55.615234"/>
      </g>
     </g>
    </g>
    <g id="xtick_4">
     <g id="line2d_4">
      <g>
       <use xlink:href="#m162e65036f" x="216.152351" y="256.32" style="stroke: #000000; stroke-width: 1.5"/>
      </g>
     </g>
     <g id="text_4">
      <!-- 15 -->
      <g transform="translate(208.367039 273.465625) scale(0.14 -0.14)">
       <use xlink:href="#LiberationSans-31"/>
       <use xlink:href="#LiberationSans-35" x="55.615234"/>
      </g>
     </g>
    </g>
    <g id="xtick_5">
     <g id="line2d_5">
      <g>
       <use xlink:href="#m162e65036f" x="268.62884" y="256.32" style="stroke: #000000; stroke-width: 1.5"/>
      </g>
     </g>
     <g id="text_5">
      <!-- 20 -->
      <g transform="translate(260.843528 273.465625) scale(0.14 -0.14)">
       <defs>
        <path id="LiberationSans-32" d="M 322 0 
L 322 397 
Q 481 763 711 1042 
Q 941 1322 1194 1548 
Q 1447 1775 1695 1969 
Q 1944 2163 2144 2356 
Q 2344 2550 2467 2762 
Q 2591 2975 2591 3244 
Q 2591 3606 2378 3806 
Q 2166 4006 1788 4006 
Q 1428 4006 1195 3811 
Q 963 3616 922 3263 
L 347 3316 
Q 409 3844 795 4156 
Q 1181 4469 1788 4469 
Q 2453 4469 2811 4155 
Q 3169 3841 3169 3263 
Q 3169 3006 3051 2753 
Q 2934 2500 2703 2247 
Q 2472 1994 1819 1463 
Q 1459 1169 1246 933 
Q 1034 697 941 478 
L 3238 478 
L 3238 0 
L 322 0 
z
" transform="scale(0.015625)"/>
       </defs>
       <use xlink:href="#LiberationSans-32"/>
       <use xlink:href="#LiberationSans-30" x="55.615234"/>
      </g>
     </g>
    </g>
    <g id="xtick_6">
     <g id="line2d_6">
      <g>
       <use xlink:href="#m162e65036f" x="321.105329" y="256.32" style="stroke: #000000; stroke-width: 1.5"/>
      </g>
     </g>
     <g id="text_6">
      <!-- 25 -->
      <g transform="translate(313.320017 273.465625) scale(0.14 -0.14)">
       <use xlink:href="#LiberationSans-32"/>
       <use xlink:href="#LiberationSans-35" x="55.615234"/>
      </g>
     </g>
    </g>
    <g id="xtick_7">
     <g id="line2d_7">
      <g>
       <use xlink:href="#m162e65036f" x="373.581818" y="256.32" style="stroke: #000000; stroke-width: 1.5"/>
      </g>
     </g>
     <g id="text_7">
      <!-- 30 -->
      <g transform="translate(365.796506 273.465625) scale(0.14 -0.14)">
       <defs>
        <path id="LiberationSans-33" d="M 3278 1216 
Q 3278 606 2890 271 
Q 2503 -63 1784 -63 
Q 1116 -63 717 239 
Q 319 541 244 1131 
L 825 1184 
Q 938 403 1784 403 
Q 2209 403 2451 612 
Q 2694 822 2694 1234 
Q 2694 1594 2417 1795 
Q 2141 1997 1619 1997 
L 1300 1997 
L 1300 2484 
L 1606 2484 
Q 2069 2484 2323 2686 
Q 2578 2888 2578 3244 
Q 2578 3597 2370 3801 
Q 2163 4006 1753 4006 
Q 1381 4006 1151 3815 
Q 922 3625 884 3278 
L 319 3322 
Q 381 3863 767 4166 
Q 1153 4469 1759 4469 
Q 2422 4469 2789 4161 
Q 3156 3853 3156 3303 
Q 3156 2881 2920 2617 
Q 2684 2353 2234 2259 
L 2234 2247 
Q 2728 2194 3003 1916 
Q 3278 1638 3278 1216 
z
" transform="scale(0.015625)"/>
       </defs>
       <use xlink:href="#LiberationSans-33"/>
       <use xlink:href="#LiberationSans-30" x="55.615234"/>
      </g>
     </g>
    </g>
    <g id="text_8">
     <!-- Context Strength -->
     <g transform="translate(161.36875 291.965625) scale(0.16 -0.16)">
      <defs>
       <path id="LiberationSans-43" d="M 2475 3981 
Q 1744 3981 1337 3511 
Q 931 3041 931 2222 
Q 931 1413 1354 920 
Q 1778 428 2500 428 
Q 3425 428 3891 1344 
L 4378 1100 
Q 4106 531 3614 234 
Q 3122 -63 2472 -63 
Q 1806 -63 1320 214 
Q 834 491 579 1005 
Q 325 1519 325 2222 
Q 325 3275 894 3872 
Q 1463 4469 2469 4469 
Q 3172 4469 3644 4194 
Q 4116 3919 4338 3378 
L 3772 3191 
Q 3619 3575 3280 3778 
Q 2941 3981 2475 3981 
z
" transform="scale(0.015625)"/>
       <path id="LiberationSans-6f" d="M 3291 1694 
Q 3291 806 2900 371 
Q 2509 -63 1766 -63 
Q 1025 -63 647 389 
Q 269 841 269 1694 
Q 269 3444 1784 3444 
Q 2559 3444 2925 3017 
Q 3291 2591 3291 1694 
z
M 2700 1694 
Q 2700 2394 2492 2711 
Q 2284 3028 1794 3028 
Q 1300 3028 1079 2704 
Q 859 2381 859 1694 
Q 859 1025 1076 689 
Q 1294 353 1759 353 
Q 2266 353 2483 678 
Q 2700 1003 2700 1694 
z
" transform="scale(0.015625)"/>
       <path id="LiberationSans-6e" d="M 2578 0 
L 2578 2144 
Q 2578 2478 2512 2662 
Q 2447 2847 2303 2928 
Q 2159 3009 1881 3009 
Q 1475 3009 1240 2731 
Q 1006 2453 1006 1959 
L 1006 0 
L 444 0 
L 444 2659 
Q 444 3250 425 3381 
L 956 3381 
Q 959 3366 962 3297 
Q 966 3228 970 3139 
Q 975 3050 981 2803 
L 991 2803 
Q 1184 3153 1439 3298 
Q 1694 3444 2072 3444 
Q 2628 3444 2886 3167 
Q 3144 2891 3144 2253 
L 3144 0 
L 2578 0 
z
" transform="scale(0.015625)"/>
       <path id="LiberationSans-74" d="M 1731 25 
Q 1453 -50 1163 -50 
Q 488 -50 488 716 
L 488 2972 
L 97 2972 
L 97 3381 
L 509 3381 
L 675 4138 
L 1050 4138 
L 1050 3381 
L 1675 3381 
L 1675 2972 
L 1050 2972 
L 1050 838 
Q 1050 594 1129 495 
Q 1209 397 1406 397 
Q 1519 397 1731 441 
L 1731 25 
z
" transform="scale(0.015625)"/>
       <path id="LiberationSans-65" d="M 863 1572 
Q 863 991 1103 675 
Q 1344 359 1806 359 
Q 2172 359 2392 506 
Q 2613 653 2691 878 
L 3184 738 
Q 2881 -63 1806 -63 
Q 1056 -63 664 384 
Q 272 831 272 1713 
Q 272 2550 664 2997 
Q 1056 3444 1784 3444 
Q 3275 3444 3275 1647 
L 3275 1572 
L 863 1572 
z
M 2694 2003 
Q 2647 2538 2422 2783 
Q 2197 3028 1775 3028 
Q 1366 3028 1127 2754 
Q 888 2481 869 2003 
L 2694 2003 
z
" transform="scale(0.015625)"/>
       <path id="LiberationSans-78" d="M 2503 0 
L 1594 1388 
L 678 0 
L 72 0 
L 1275 1738 
L 128 3381 
L 750 3381 
L 1594 2066 
L 2431 3381 
L 3059 3381 
L 1913 1744 
L 3131 0 
L 2503 0 
z
" transform="scale(0.015625)"/>
       <path id="LiberationSans-20" transform="scale(0.015625)"/>
       <path id="LiberationSans-53" d="M 3975 1216 
Q 3975 606 3498 271 
Q 3022 -63 2156 -63 
Q 547 -63 291 1056 
L 869 1172 
Q 969 775 1294 589 
Q 1619 403 2178 403 
Q 2756 403 3070 601 
Q 3384 800 3384 1184 
Q 3384 1400 3286 1534 
Q 3188 1669 3009 1756 
Q 2831 1844 2584 1903 
Q 2338 1963 2038 2031 
Q 1516 2147 1245 2262 
Q 975 2378 819 2520 
Q 663 2663 580 2853 
Q 497 3044 497 3291 
Q 497 3856 930 4162 
Q 1363 4469 2169 4469 
Q 2919 4469 3316 4239 
Q 3713 4009 3872 3456 
L 3284 3353 
Q 3188 3703 2916 3861 
Q 2644 4019 2163 4019 
Q 1634 4019 1356 3844 
Q 1078 3669 1078 3322 
Q 1078 3119 1186 2986 
Q 1294 2853 1497 2761 
Q 1700 2669 2306 2534 
Q 2509 2488 2711 2439 
Q 2913 2391 3097 2323 
Q 3281 2256 3442 2165 
Q 3603 2075 3722 1944 
Q 3841 1813 3908 1634 
Q 3975 1456 3975 1216 
z
" transform="scale(0.015625)"/>
       <path id="LiberationSans-72" d="M 444 0 
L 444 2594 
Q 444 2950 425 3381 
L 956 3381 
Q 981 2806 981 2691 
L 994 2691 
Q 1128 3125 1303 3284 
Q 1478 3444 1797 3444 
Q 1909 3444 2025 3413 
L 2025 2897 
Q 1913 2928 1725 2928 
Q 1375 2928 1190 2626 
Q 1006 2325 1006 1763 
L 1006 0 
L 444 0 
z
" transform="scale(0.015625)"/>
       <path id="LiberationSans-67" d="M 1713 -1328 
Q 1159 -1328 831 -1111 
Q 503 -894 409 -494 
L 975 -413 
Q 1031 -647 1223 -773 
Q 1416 -900 1728 -900 
Q 2569 -900 2569 84 
L 2569 628 
L 2563 628 
Q 2403 303 2125 139 
Q 1847 -25 1475 -25 
Q 853 -25 561 387 
Q 269 800 269 1684 
Q 269 2581 583 3007 
Q 897 3434 1538 3434 
Q 1897 3434 2161 3270 
Q 2425 3106 2569 2803 
L 2575 2803 
Q 2575 2897 2587 3128 
Q 2600 3359 2613 3381 
L 3147 3381 
Q 3128 3213 3128 2681 
L 3128 97 
Q 3128 -1328 1713 -1328 
z
M 2569 1691 
Q 2569 2103 2456 2401 
Q 2344 2700 2139 2858 
Q 1934 3016 1675 3016 
Q 1244 3016 1047 2703 
Q 850 2391 850 1691 
Q 850 997 1034 694 
Q 1219 391 1666 391 
Q 1931 391 2137 547 
Q 2344 703 2456 995 
Q 2569 1288 2569 1691 
z
" transform="scale(0.015625)"/>
       <path id="LiberationSans-68" d="M 991 2803 
Q 1172 3134 1426 3289 
Q 1681 3444 2072 3444 
Q 2622 3444 2883 3170 
Q 3144 2897 3144 2253 
L 3144 0 
L 2578 0 
L 2578 2144 
Q 2578 2500 2512 2673 
Q 2447 2847 2297 2928 
Q 2147 3009 1881 3009 
Q 1484 3009 1245 2734 
Q 1006 2459 1006 1994 
L 1006 0 
L 444 0 
L 444 4638 
L 1006 4638 
L 1006 3431 
Q 1006 3241 995 3037 
Q 984 2834 981 2803 
L 991 2803 
z
" transform="scale(0.015625)"/>
      </defs>
      <use xlink:href="#LiberationSans-43"/>
      <use xlink:href="#LiberationSans-6f" x="72.216797"/>
      <use xlink:href="#LiberationSans-6e" x="127.832031"/>
      <use xlink:href="#LiberationSans-74" x="183.447266"/>
      <use xlink:href="#LiberationSans-65" x="211.230469"/>
      <use xlink:href="#LiberationSans-78" x="266.845703"/>
      <use xlink:href="#LiberationSans-74" x="316.845703"/>
      <use xlink:href="#LiberationSans-20" x="344.628906"/>
      <use xlink:href="#LiberationSans-53" x="372.412109"/>
      <use xlink:href="#LiberationSans-74" x="439.111328"/>
      <use xlink:href="#LiberationSans-72" x="466.894531"/>
      <use xlink:href="#LiberationSans-65" x="500.195312"/>
      <use xlink:href="#LiberationSans-6e" x="555.810547"/>
      <use xlink:href="#LiberationSans-67" x="611.425781"/>
      <use xlink:href="#LiberationSans-74" x="667.041016"/>
      <use xlink:href="#LiberationSans-68" x="694.824219"/>
     </g>
    </g>
   </g>
   <g id="matplotlib.axis_2">
    <g id="ytick_1">
     <g id="line2d_8">
      <defs>
       <path id="m30ae3a12c7" d="M 0 0 
L -3.5 0 
" style="stroke: #000000; stroke-width: 1.5"/>
      </defs>
      <g>
       <use xlink:href="#m30ae3a12c7" x="54" y="239.261538" style="stroke: #000000; stroke-width: 1.5"/>
      </g>
     </g>
     <g id="text_9">
      <!-- 0.4 -->
      <g transform="translate(27.54 244.334351) scale(0.14 -0.14)">
       <defs>
        <path id="LiberationSans-2e" d="M 584 0 
L 584 684 
L 1194 684 
L 1194 0 
L 584 0 
z
" transform="scale(0.015625)"/>
        <path id="LiberationSans-34" d="M 2753 997 
L 2753 0 
L 2222 0 
L 2222 997 
L 147 997 
L 147 1434 
L 2163 4403 
L 2753 4403 
L 2753 1441 
L 3372 1441 
L 3372 997 
L 2753 997 
z
M 2222 3769 
Q 2216 3750 2134 3603 
Q 2053 3456 2013 3397 
L 884 1734 
L 716 1503 
L 666 1441 
L 2222 1441 
L 2222 3769 
z
" transform="scale(0.015625)"/>
       </defs>
       <use xlink:href="#LiberationSans-30"/>
       <use xlink:href="#LiberationSans-2e" x="55.615234"/>
       <use xlink:href="#LiberationSans-34" x="83.398438"/>
      </g>
     </g>
    </g>
    <g id="ytick_2">
     <g id="line2d_9">
      <g>
       <use xlink:href="#m30ae3a12c7" x="54" y="205.144615" style="stroke: #000000; stroke-width: 1.5"/>
      </g>
     </g>
     <g id="text_10">
      <!-- 0.5 -->
      <g transform="translate(27.54 210.217428) scale(0.14 -0.14)">
       <use xlink:href="#LiberationSans-30"/>
       <use xlink:href="#LiberationSans-2e" x="55.615234"/>
       <use xlink:href="#LiberationSans-35" x="83.398438"/>
      </g>
     </g>
    </g>
    <g id="ytick_3">
     <g id="line2d_10">
      <g>
       <use xlink:href="#m30ae3a12c7" x="54" y="171.027692" style="stroke: #000000; stroke-width: 1.5"/>
      </g>
     </g>
     <g id="text_11">
      <!-- 0.6 -->
      <g transform="translate(27.54 176.100505) scale(0.14 -0.14)">
       <defs>
        <path id="LiberationSans-36" d="M 3278 1441 
Q 3278 744 2900 340 
Q 2522 -63 1856 -63 
Q 1113 -63 719 490 
Q 325 1044 325 2100 
Q 325 3244 734 3856 
Q 1144 4469 1900 4469 
Q 2897 4469 3156 3572 
L 2619 3475 
Q 2453 4013 1894 4013 
Q 1413 4013 1148 3564 
Q 884 3116 884 2266 
Q 1038 2550 1316 2698 
Q 1594 2847 1953 2847 
Q 2563 2847 2920 2465 
Q 3278 2084 3278 1441 
z
M 2706 1416 
Q 2706 1894 2472 2153 
Q 2238 2413 1819 2413 
Q 1425 2413 1183 2183 
Q 941 1953 941 1550 
Q 941 1041 1192 716 
Q 1444 391 1838 391 
Q 2244 391 2475 664 
Q 2706 938 2706 1416 
z
" transform="scale(0.015625)"/>
       </defs>
       <use xlink:href="#LiberationSans-30"/>
       <use xlink:href="#LiberationSans-2e" x="55.615234"/>
       <use xlink:href="#LiberationSans-36" x="83.398438"/>
      </g>
     </g>
    </g>
    <g id="ytick_4">
     <g id="line2d_11">
      <g>
       <use xlink:href="#m30ae3a12c7" x="54" y="136.910769" style="stroke: #000000; stroke-width: 1.5"/>
      </g>
     </g>
     <g id="text_12">
      <!-- 0.7 -->
      <g transform="translate(27.54 141.983582) scale(0.14 -0.14)">
       <defs>
        <path id="LiberationSans-37" d="M 3238 3947 
Q 2563 2916 2284 2331 
Q 2006 1747 1867 1178 
Q 1728 609 1728 0 
L 1141 0 
Q 1141 844 1498 1776 
Q 1856 2709 2694 3925 
L 328 3925 
L 328 4403 
L 3238 4403 
L 3238 3947 
z
" transform="scale(0.015625)"/>
       </defs>
       <use xlink:href="#LiberationSans-30"/>
       <use xlink:href="#LiberationSans-2e" x="55.615234"/>
       <use xlink:href="#LiberationSans-37" x="83.398438"/>
      </g>
     </g>
    </g>
    <g id="ytick_5">
     <g id="line2d_12">
      <g>
       <use xlink:href="#m30ae3a12c7" x="54" y="102.793846" style="stroke: #000000; stroke-width: 1.5"/>
      </g>
     </g>
     <g id="text_13">
      <!-- 0.8 -->
      <g transform="translate(27.54 107.866659) scale(0.14 -0.14)">
       <defs>
        <path id="LiberationSans-38" d="M 3281 1228 
Q 3281 619 2893 278 
Q 2506 -63 1781 -63 
Q 1075 -63 676 271 
Q 278 606 278 1222 
Q 278 1653 525 1947 
Q 772 2241 1156 2303 
L 1156 2316 
Q 797 2400 589 2681 
Q 381 2963 381 3341 
Q 381 3844 757 4156 
Q 1134 4469 1769 4469 
Q 2419 4469 2795 4162 
Q 3172 3856 3172 3334 
Q 3172 2956 2962 2675 
Q 2753 2394 2391 2322 
L 2391 2309 
Q 2813 2241 3047 1952 
Q 3281 1663 3281 1228 
z
M 2588 3303 
Q 2588 4050 1769 4050 
Q 1372 4050 1164 3862 
Q 956 3675 956 3303 
Q 956 2925 1170 2726 
Q 1384 2528 1775 2528 
Q 2172 2528 2380 2711 
Q 2588 2894 2588 3303 
z
M 2697 1281 
Q 2697 1691 2453 1898 
Q 2209 2106 1769 2106 
Q 1341 2106 1100 1882 
Q 859 1659 859 1269 
Q 859 359 1788 359 
Q 2247 359 2472 579 
Q 2697 800 2697 1281 
z
" transform="scale(0.015625)"/>
       </defs>
       <use xlink:href="#LiberationSans-30"/>
       <use xlink:href="#LiberationSans-2e" x="55.615234"/>
       <use xlink:href="#LiberationSans-38" x="83.398438"/>
      </g>
     </g>
    </g>
    <g id="ytick_6">
     <g id="line2d_13">
      <g>
       <use xlink:href="#m30ae3a12c7" x="54" y="68.676923" style="stroke: #000000; stroke-width: 1.5"/>
      </g>
     </g>
     <g id="text_14">
      <!-- 0.9 -->
      <g transform="translate(27.54 73.749736) scale(0.14 -0.14)">
       <defs>
        <path id="LiberationSans-39" d="M 3256 2291 
Q 3256 1156 2842 546 
Q 2428 -63 1663 -63 
Q 1147 -63 836 154 
Q 525 372 391 856 
L 928 941 
Q 1097 391 1672 391 
Q 2156 391 2422 841 
Q 2688 1291 2700 2125 
Q 2575 1844 2272 1673 
Q 1969 1503 1606 1503 
Q 1013 1503 656 1909 
Q 300 2316 300 2988 
Q 300 3678 687 4073 
Q 1075 4469 1766 4469 
Q 2500 4469 2878 3925 
Q 3256 3381 3256 2291 
z
M 2644 2834 
Q 2644 3366 2400 3689 
Q 2156 4013 1747 4013 
Q 1341 4013 1106 3736 
Q 872 3459 872 2988 
Q 872 2506 1106 2226 
Q 1341 1947 1741 1947 
Q 1984 1947 2193 2058 
Q 2403 2169 2523 2372 
Q 2644 2575 2644 2834 
z
" transform="scale(0.015625)"/>
       </defs>
       <use xlink:href="#LiberationSans-30"/>
       <use xlink:href="#LiberationSans-2e" x="55.615234"/>
       <use xlink:href="#LiberationSans-39" x="83.398438"/>
      </g>
     </g>
    </g>
    <g id="ytick_7">
     <g id="line2d_14">
      <g>
       <use xlink:href="#m30ae3a12c7" x="54" y="34.56" style="stroke: #000000; stroke-width: 1.5"/>
      </g>
     </g>
     <g id="text_15">
      <!-- 1.0 -->
      <g transform="translate(27.54 39.632812) scale(0.14 -0.14)">
       <use xlink:href="#LiberationSans-31"/>
       <use xlink:href="#LiberationSans-2e" x="55.615234"/>
       <use xlink:href="#LiberationSans-30" x="83.398438"/>
      </g>
     </g>
    </g>
    <g id="text_16">
     <!-- Accuracy -->
     <g transform="translate(20.22 178.3375) rotate(-90) scale(0.16 -0.16)">
      <defs>
       <path id="LiberationSans-41" d="M 3647 0 
L 3144 1288 
L 1138 1288 
L 631 0 
L 13 0 
L 1809 4403 
L 2488 4403 
L 4256 0 
L 3647 0 
z
M 2141 3953 
L 2113 3866 
Q 2034 3606 1881 3200 
L 1319 1753 
L 2966 1753 
L 2400 3206 
Q 2313 3422 2225 3694 
L 2141 3953 
z
" transform="scale(0.015625)"/>
       <path id="LiberationSans-63" d="M 859 1706 
Q 859 1031 1071 706 
Q 1284 381 1713 381 
Q 2013 381 2214 543 
Q 2416 706 2463 1044 
L 3031 1006 
Q 2966 519 2616 228 
Q 2266 -63 1728 -63 
Q 1019 -63 645 385 
Q 272 834 272 1694 
Q 272 2547 647 2995 
Q 1022 3444 1722 3444 
Q 2241 3444 2583 3175 
Q 2925 2906 3013 2434 
L 2434 2391 
Q 2391 2672 2212 2837 
Q 2034 3003 1706 3003 
Q 1259 3003 1059 2706 
Q 859 2409 859 1706 
z
" transform="scale(0.015625)"/>
       <path id="LiberationSans-75" d="M 981 3381 
L 981 1238 
Q 981 903 1047 718 
Q 1113 534 1256 453 
Q 1400 372 1678 372 
Q 2084 372 2318 650 
Q 2553 928 2553 1422 
L 2553 3381 
L 3116 3381 
L 3116 722 
Q 3116 131 3134 0 
L 2603 0 
Q 2600 16 2597 84 
Q 2594 153 2589 242 
Q 2584 331 2578 578 
L 2569 578 
Q 2375 228 2120 82 
Q 1866 -63 1488 -63 
Q 931 -63 673 214 
Q 416 491 416 1128 
L 416 3381 
L 981 3381 
z
" transform="scale(0.015625)"/>
       <path id="LiberationSans-61" d="M 1294 -63 
Q 784 -63 528 206 
Q 272 475 272 944 
Q 272 1469 617 1750 
Q 963 2031 1731 2050 
L 2491 2063 
L 2491 2247 
Q 2491 2659 2316 2837 
Q 2141 3016 1766 3016 
Q 1388 3016 1216 2887 
Q 1044 2759 1009 2478 
L 422 2531 
Q 566 3444 1778 3444 
Q 2416 3444 2737 3151 
Q 3059 2859 3059 2306 
L 3059 850 
Q 3059 600 3125 473 
Q 3191 347 3375 347 
Q 3456 347 3559 369 
L 3559 19 
Q 3347 -31 3125 -31 
Q 2813 -31 2670 133 
Q 2528 297 2509 647 
L 2491 647 
Q 2275 259 1989 98 
Q 1703 -63 1294 -63 
z
M 1422 359 
Q 1731 359 1972 500 
Q 2213 641 2352 886 
Q 2491 1131 2491 1391 
L 2491 1669 
L 1875 1656 
Q 1478 1650 1273 1575 
Q 1069 1500 959 1344 
Q 850 1188 850 934 
Q 850 659 998 509 
Q 1147 359 1422 359 
z
" transform="scale(0.015625)"/>
       <path id="LiberationSans-79" d="M 597 -1328 
Q 366 -1328 209 -1294 
L 209 -872 
Q 328 -891 472 -891 
Q 997 -891 1303 -119 
L 1356 16 
L 16 3381 
L 616 3381 
L 1328 1513 
Q 1344 1469 1366 1408 
Q 1388 1347 1506 1000 
Q 1625 653 1634 613 
L 1853 1228 
L 2594 3381 
L 3188 3381 
L 1888 0 
Q 1678 -541 1497 -805 
Q 1316 -1069 1095 -1198 
Q 875 -1328 597 -1328 
z
" transform="scale(0.015625)"/>
      </defs>
      <use xlink:href="#LiberationSans-41"/>
      <use xlink:href="#LiberationSans-63" x="66.699219"/>
      <use xlink:href="#LiberationSans-63" x="116.699219"/>
      <use xlink:href="#LiberationSans-75" x="166.699219"/>
      <use xlink:href="#LiberationSans-72" x="222.314453"/>
      <use xlink:href="#LiberationSans-61" x="255.615234"/>
      <use xlink:href="#LiberationSans-63" x="311.230469"/>
      <use xlink:href="#LiberationSans-79" x="361.230469"/>
     </g>
    </g>
   </g>
   <g id="line2d_15">
    <path d="M 69.218182 39.051082 
L 72.261818 39.084366 
L 75.305455 39.281538 
L 78.349091 39.671866 
L 81.392727 40.222625 
L 84.436364 41.002939 
L 87.48 42.067235 
L 90.523636 43.555429 
L 93.567273 45.567398 
L 96.610909 48.030068 
L 99.654545 50.843645 
L 102.698182 53.934782 
L 105.741818 57.512249 
L 108.785455 61.231569 
L 111.829091 65.110593 
L 114.872727 69.099173 
L 117.916364 72.951806 
L 120.96 76.746053 
L 124.003636 80.480009 
L 127.047273 84.102279 
L 130.090909 87.824306 
L 133.134545 91.549032 
L 136.178182 95.2512 
L 139.221818 98.882123 
L 142.265455 102.571275 
L 145.309091 106.303136 
L 148.352727 110.021625 
L 151.396364 113.636897 
L 154.44 116.994304 
L 157.483636 120.343378 
L 160.527273 123.77911 
L 163.570909 127.137346 
L 166.614545 130.361026 
L 169.658182 133.511373 
L 172.701818 136.38941 
L 175.745455 139.155604 
L 178.789091 141.829966 
L 181.832727 144.344378 
L 184.876364 146.738826 
L 187.92 149.098053 
L 190.963636 151.298826 
L 194.007273 153.381287 
L 197.050909 155.3796 
L 200.094545 157.231633 
L 203.138182 159.038918 
L 206.181818 160.749683 
L 209.225455 162.331496 
L 212.269091 163.823048 
L 215.312727 165.278158 
L 218.356364 166.558314 
L 221.4 167.735817 
L 224.443636 168.884769 
L 227.487273 170.011308 
L 230.530909 171.074862 
L 233.574545 172.094065 
L 236.618182 173.10875 
L 239.661818 174.107329 
L 242.705455 174.964269 
L 245.749091 175.796209 
L 248.792727 176.592644 
L 251.836364 177.329835 
L 254.88 178.018198 
L 257.923636 178.686802 
L 260.967273 179.334193 
L 264.010909 179.970128 
L 267.054545 180.606177 
L 270.098182 181.148355 
L 273.141818 181.631425 
L 276.185455 182.102752 
L 279.229091 182.545474 
L 282.272727 182.967448 
L 285.316364 183.33195 
L 288.36 183.700528 
L 291.403636 184.035301 
L 294.447273 184.39093 
L 297.490909 184.717319 
L 300.534545 185.048631 
L 303.578182 185.386479 
L 306.621818 185.695702 
L 309.665455 185.976817 
L 312.709091 186.23724 
L 315.752727 186.483064 
L 318.796364 186.704857 
L 321.84 186.952611 
L 324.883636 187.197991 
L 327.927273 187.432928 
L 330.970909 187.645633 
L 334.014545 187.84067 
L 337.058182 188.040469 
L 340.101818 188.204718 
L 343.145455 188.347573 
L 346.189091 188.487807 
L 349.232727 188.646861 
L 352.276364 188.791139 
L 355.32 188.925318 
L 358.363636 189.037352 
L 361.407273 189.151025 
L 364.450909 189.260955 
L 367.494545 189.365537 
L 370.538182 189.476187 
L 373.581818 189.56751 
" clip-path="url(#p9bebcbb634)" style="fill: none; stroke: #c0d9ff; stroke-width: 1.5; stroke-linecap: square"/>
   </g>
   <g id="line2d_16">
    <path d="M 69.218182 39.723064 
L 72.261818 39.691644 
L 75.305455 39.842537 
L 78.349091 40.110529 
L 81.392727 40.633866 
L 84.436364 41.447263 
L 87.48 42.601879 
L 90.523636 44.107385 
L 93.567273 45.931217 
L 96.610909 48.291284 
L 99.654545 51.157077 
L 102.698182 54.518526 
L 105.741818 58.496605 
L 108.785455 62.85537 
L 111.829091 67.657249 
L 114.872727 72.784141 
L 117.916364 77.939409 
L 120.96 83.045905 
L 124.003636 88.070326 
L 127.047273 93.003569 
L 130.090909 97.830297 
L 133.134545 102.42859 
L 136.178182 106.648667 
L 139.221818 110.778683 
L 142.265455 114.842518 
L 145.309091 118.804969 
L 148.352727 122.765367 
L 151.396364 126.592876 
L 154.44 130.356974 
L 157.483636 134.013936 
L 160.527273 137.471457 
L 163.570909 140.577893 
L 166.614545 143.476155 
L 169.658182 146.341603 
L 172.701818 149.188601 
L 175.745455 151.91901 
L 178.789091 154.560425 
L 181.832727 157.104494 
L 184.876364 159.668274 
L 187.92 161.997898 
L 190.963636 164.252632 
L 194.007273 166.437673 
L 197.050909 168.538388 
L 200.094545 170.579548 
L 203.138182 172.60518 
L 206.181818 174.510663 
L 209.225455 176.246676 
L 212.269091 177.919777 
L 215.312727 179.539007 
L 218.356364 181.025582 
L 221.4 182.488438 
L 224.443636 183.889283 
L 227.487273 185.146437 
L 230.530909 186.350312 
L 233.574545 187.4789 
L 236.618182 188.523918 
L 239.661818 189.518074 
L 242.705455 190.56974 
L 245.749091 191.516285 
L 248.792727 192.448625 
L 251.836364 193.343998 
L 254.88 194.135352 
L 257.923636 194.949376 
L 260.967273 195.69476 
L 264.010909 196.402673 
L 267.054545 197.056307 
L 270.098182 197.653697 
L 273.141818 198.242892 
L 276.185455 198.751087 
L 279.229091 199.236781 
L 282.272727 199.750206 
L 285.316364 200.199291 
L 288.36 200.63572 
L 291.403636 201.035302 
L 294.447273 201.422985 
L 297.490909 201.78721 
L 300.534545 202.121845 
L 303.578182 202.4985 
L 306.621818 202.825098 
L 309.665455 203.135612 
L 312.709091 203.431903 
L 315.752727 203.699942 
L 318.796364 203.965488 
L 321.84 204.204623 
L 324.883636 204.439971 
L 327.927273 204.674262 
L 330.970909 204.883443 
L 334.014545 205.08076 
L 337.058182 205.242176 
L 340.101818 205.387347 
L 343.145455 205.554484 
L 346.189091 205.732177 
L 349.232727 205.871566 
L 352.276364 206.03888 
L 355.32 206.177907 
L 358.363636 206.291511 
L 361.407273 206.433663 
L 364.450909 206.569352 
L 367.494545 206.689711 
L 370.538182 206.79279 
L 373.581818 206.894865 
" clip-path="url(#p9bebcbb634)" style="fill: none; stroke: #ffbfc4; stroke-width: 1.5; stroke-linecap: square"/>
   </g>
   <g id="patch_3">
    <path d="M 54 256.32 
L 54 34.56 
" style="fill: none; stroke: #000000; stroke-width: 1.5; stroke-linejoin: miter; stroke-linecap: square"/>
   </g>
   <g id="patch_4">
    <path d="M 54 256.32 
L 388.8 256.32 
" style="fill: none; stroke: #000000; stroke-width: 1.5; stroke-linejoin: miter; stroke-linecap: square"/>
   </g>
  </g>
 </g>
 <defs>
  <clipPath id="p9bebcbb634">
   <rect x="54" y="34.56" width="334.8" height="221.76"/>
  </clipPath>
 </defs>
</svg>
