<?xml version="1.0" encoding="utf-8" standalone="no"?>
<!DOCTYPE svg PUBLIC "-//W3C//DTD SVG 1.1//EN"
  "http://www.w3.org/Graphics/SVG/1.1/DTD/svg11.dtd">
<svg xmlns:xlink="http://www.w3.org/1999/xlink" width="288pt" height="288pt" viewBox="0 0 288 288" xmlns="http://www.w3.org/2000/svg" version="1.1">
 <metadata>
  <rdf:RDF xmlns:dc="http://purl.org/dc/elements/1.1/" xmlns:cc="http://creativecommons.org/ns#" xmlns:rdf="http://www.w3.org/1999/02/22-rdf-syntax-ns#">
   <cc:Work>
    <dc:type rdf:resource="http://purl.org/dc/dcmitype/StillImage"/>
    <dc:date>2024-01-23T06:54:18.101984</dc:date>
    <dc:format>image/svg+xml</dc:format>
    <dc:creator>
     <cc:Agent>
      <dc:title>Matplotlib v3.7.4, https://matplotlib.org/</dc:title>
     </cc:Agent>
    </dc:creator>
   </cc:Work>
  </rdf:RDF>
 </metadata>
 <defs>
  <style type="text/css">*{stroke-linejoin: round; stroke-linecap: butt}</style>
 </defs>
 <g id="figure_1">
  <g id="patch_1">
   <path d="M 0 288 
L 288 288 
L 288 0 
L 0 0 
z
" style="fill: #ffffff"/>
  </g>
  <g id="axes_1">
   <g id="patch_2">
    <path d="M 258.48 145.44 
C 258.48 130.879372 255.611874 116.460327 250.039763 103.008061 
C 244.467651 89.555795 236.299919 77.331919 226.004 67.036 
C 215.708081 56.740081 203.484205 48.572349 190.031939 43.000237 
C 176.579673 37.428126 162.160628 34.56 147.6 34.56 
C 133.039372 34.56 118.620327 37.428126 105.168061 43.000237 
C 91.715795 48.572349 79.491919 56.740081 69.196 67.036 
C 58.900081 77.331919 50.732349 89.555795 45.160237 103.008061 
C 39.588126 116.460327 36.72 130.879372 36.72 145.44 
C 36.72 160.000628 39.588126 174.419673 45.160237 187.871939 
C 50.732349 201.324205 58.900081 213.548081 69.196 223.844 
C 79.491919 234.139919 91.715795 242.307651 105.168061 247.879763 
C 118.620327 253.451874 133.039372 256.32 147.6 256.32 
C 162.160628 256.32 176.579673 253.451874 190.031939 247.879763 
C 203.484205 242.307651 215.708081 234.139919 226.004 223.844 
C 236.299919 213.548081 244.467651 201.324205 250.039763 187.871939 
C 255.611874 174.419673 258.48 160.000628 258.48 145.44 
M 147.6 145.44 
C 147.6 145.44 147.6 145.44 147.6 145.44 
C 147.6 145.44 147.6 145.44 147.6 145.44 
C 147.6 145.44 147.6 145.44 147.6 145.44 
C 147.6 145.44 147.6 145.44 147.6 145.44 
C 147.6 145.44 147.6 145.44 147.6 145.44 
C 147.6 145.44 147.6 145.44 147.6 145.44 
C 147.6 145.44 147.6 145.44 147.6 145.44 
C 147.6 145.44 147.6 145.44 147.6 145.44 
C 147.6 145.44 147.6 145.44 147.6 145.44 
C 147.6 145.44 147.6 145.44 147.6 145.44 
C 147.6 145.44 147.6 145.44 147.6 145.44 
C 147.6 145.44 147.6 145.44 147.6 145.44 
C 147.6 145.44 147.6 145.44 147.6 145.44 
C 147.6 145.44 147.6 145.44 147.6 145.44 
C 147.6 145.44 147.6 145.44 147.6 145.44 
C 147.6 145.44 147.6 145.44 147.6 145.44 
z
" style="fill: #ffffff"/>
   </g>
   <g id="matplotlib.axis_1">
    <g id="xtick_1">
     <g id="line2d_1">
      <path d="M 147.6 145.44 
L 147.6 34.56 
" clip-path="url(#pf97c26a8e8)" style="fill: none; stroke: #cccccc; stroke-linecap: round"/>
     </g>
     <g id="text_1">
      <!-- 0 -->
      <g style="fill: #262626" transform="translate(144.263438 21.163125) scale(0.12 -0.12)">
       <defs>
        <path id="LiberationSans-30" d="M 3309 2203 
Q 3309 1100 2920 518 
Q 2531 -63 1772 -63 
Q 1013 -63 631 515 
Q 250 1094 250 2203 
Q 250 3338 620 3903 
Q 991 4469 1791 4469 
Q 2569 4469 2939 3897 
Q 3309 3325 3309 2203 
z
M 2738 2203 
Q 2738 3156 2517 3584 
Q 2297 4013 1791 4013 
Q 1272 4013 1045 3591 
Q 819 3169 819 2203 
Q 819 1266 1048 831 
Q 1278 397 1778 397 
Q 2275 397 2506 840 
Q 2738 1284 2738 2203 
z
" transform="scale(0.015625)"/>
       </defs>
       <use xlink:href="#LiberationSans-30"/>
      </g>
     </g>
    </g>
    <g id="xtick_2">
     <g id="line2d_2">
      <path d="M 147.6 145.44 
L 212.773629 55.736196 
" clip-path="url(#pf97c26a8e8)" style="fill: none; stroke: #cccccc; stroke-linecap: round"/>
     </g>
     <g id="text_2">
      <!-- 1 -->
      <g style="fill: #262626" transform="translate(219.135523 45.49054) scale(0.12 -0.12)">
       <defs>
        <path id="LiberationSans-31" d="M 488 0 
L 488 478 
L 1609 478 
L 1609 3866 
L 616 3156 
L 616 3688 
L 1656 4403 
L 2175 4403 
L 2175 478 
L 3247 478 
L 3247 0 
L 488 0 
z
" transform="scale(0.015625)"/>
       </defs>
       <use xlink:href="#LiberationSans-31"/>
      </g>
     </g>
    </g>
    <g id="xtick_3">
     <g id="line2d_3">
      <path d="M 147.6 145.44 
L 253.053147 111.176196 
" clip-path="url(#pf97c26a8e8)" style="fill: none; stroke: #cccccc; stroke-linecap: round"/>
     </g>
     <g id="text_3">
      <!-- 2 -->
      <g style="fill: #262626" transform="translate(265.409017 109.18054) scale(0.12 -0.12)">
       <defs>
        <path id="LiberationSans-32" d="M 322 0 
L 322 397 
Q 481 763 711 1042 
Q 941 1322 1194 1548 
Q 1447 1775 1695 1969 
Q 1944 2163 2144 2356 
Q 2344 2550 2467 2762 
Q 2591 2975 2591 3244 
Q 2591 3606 2378 3806 
Q 2166 4006 1788 4006 
Q 1428 4006 1195 3811 
Q 963 3616 922 3263 
L 347 3316 
Q 409 3844 795 4156 
Q 1181 4469 1788 4469 
Q 2453 4469 2811 4155 
Q 3169 3841 3169 3263 
Q 3169 3006 3051 2753 
Q 2934 2500 2703 2247 
Q 2472 1994 1819 1463 
Q 1459 1169 1246 933 
Q 1034 697 941 478 
L 3238 478 
L 3238 0 
L 322 0 
z
" transform="scale(0.015625)"/>
       </defs>
       <use xlink:href="#LiberationSans-32"/>
      </g>
     </g>
    </g>
    <g id="xtick_4">
     <g id="line2d_4">
      <path d="M 147.6 145.44 
L 253.053147 179.703804 
" clip-path="url(#pf97c26a8e8)" style="fill: none; stroke: #cccccc; stroke-linecap: round"/>
     </g>
     <g id="text_4">
      <!-- 3 -->
      <g style="fill: #262626" transform="translate(265.409017 187.90571) scale(0.12 -0.12)">
       <defs>
        <path id="LiberationSans-33" d="M 3278 1216 
Q 3278 606 2890 271 
Q 2503 -63 1784 -63 
Q 1116 -63 717 239 
Q 319 541 244 1131 
L 825 1184 
Q 938 403 1784 403 
Q 2209 403 2451 612 
Q 2694 822 2694 1234 
Q 2694 1594 2417 1795 
Q 2141 1997 1619 1997 
L 1300 1997 
L 1300 2484 
L 1606 2484 
Q 2069 2484 2323 2686 
Q 2578 2888 2578 3244 
Q 2578 3597 2370 3801 
Q 2163 4006 1753 4006 
Q 1381 4006 1151 3815 
Q 922 3625 884 3278 
L 319 3322 
Q 381 3863 767 4166 
Q 1153 4469 1759 4469 
Q 2422 4469 2789 4161 
Q 3156 3853 3156 3303 
Q 3156 2881 2920 2617 
Q 2684 2353 2234 2259 
L 2234 2247 
Q 2728 2194 3003 1916 
Q 3278 1638 3278 1216 
z
" transform="scale(0.015625)"/>
       </defs>
       <use xlink:href="#LiberationSans-33"/>
      </g>
     </g>
    </g>
    <g id="xtick_5">
     <g id="line2d_5">
      <path d="M 147.6 145.44 
L 212.773629 235.143804 
" clip-path="url(#pf97c26a8e8)" style="fill: none; stroke: #cccccc; stroke-linecap: round"/>
     </g>
     <g id="text_5">
      <!-- 4 -->
      <g style="fill: #262626" transform="translate(219.135523 251.59571) scale(0.12 -0.12)">
       <defs>
        <path id="LiberationSans-34" d="M 2753 997 
L 2753 0 
L 2222 0 
L 2222 997 
L 147 997 
L 147 1434 
L 2163 4403 
L 2753 4403 
L 2753 1441 
L 3372 1441 
L 3372 997 
L 2753 997 
z
M 2222 3769 
Q 2216 3750 2134 3603 
Q 2053 3456 2013 3397 
L 884 1734 
L 716 1503 
L 666 1441 
L 2222 1441 
L 2222 3769 
z
" transform="scale(0.015625)"/>
       </defs>
       <use xlink:href="#LiberationSans-34"/>
      </g>
     </g>
    </g>
    <g id="xtick_6">
     <g id="line2d_6">
      <path d="M 147.6 145.44 
L 147.6 256.32 
" clip-path="url(#pf97c26a8e8)" style="fill: none; stroke: #cccccc; stroke-linecap: round"/>
     </g>
     <g id="text_6">
      <!-- 5 -->
      <g style="fill: #262626" transform="translate(144.263438 275.923125) scale(0.12 -0.12)">
       <defs>
        <path id="LiberationSans-35" d="M 3291 1434 
Q 3291 738 2877 337 
Q 2463 -63 1728 -63 
Q 1113 -63 734 206 
Q 356 475 256 984 
L 825 1050 
Q 1003 397 1741 397 
Q 2194 397 2450 670 
Q 2706 944 2706 1422 
Q 2706 1838 2448 2094 
Q 2191 2350 1753 2350 
Q 1525 2350 1328 2278 
Q 1131 2206 934 2034 
L 384 2034 
L 531 4403 
L 3034 4403 
L 3034 3925 
L 1044 3925 
L 959 2528 
Q 1325 2809 1869 2809 
Q 2519 2809 2905 2428 
Q 3291 2047 3291 1434 
z
" transform="scale(0.015625)"/>
       </defs>
       <use xlink:href="#LiberationSans-35"/>
      </g>
     </g>
    </g>
    <g id="xtick_7">
     <g id="line2d_7">
      <path d="M 147.6 145.44 
L 82.426371 235.143804 
" clip-path="url(#pf97c26a8e8)" style="fill: none; stroke: #cccccc; stroke-linecap: round"/>
     </g>
     <g id="text_7">
      <!-- 6 -->
      <g style="fill: #262626" transform="translate(69.391352 251.59571) scale(0.12 -0.12)">
       <defs>
        <path id="LiberationSans-36" d="M 3278 1441 
Q 3278 744 2900 340 
Q 2522 -63 1856 -63 
Q 1113 -63 719 490 
Q 325 1044 325 2100 
Q 325 3244 734 3856 
Q 1144 4469 1900 4469 
Q 2897 4469 3156 3572 
L 2619 3475 
Q 2453 4013 1894 4013 
Q 1413 4013 1148 3564 
Q 884 3116 884 2266 
Q 1038 2550 1316 2698 
Q 1594 2847 1953 2847 
Q 2563 2847 2920 2465 
Q 3278 2084 3278 1441 
z
M 2706 1416 
Q 2706 1894 2472 2153 
Q 2238 2413 1819 2413 
Q 1425 2413 1183 2183 
Q 941 1953 941 1550 
Q 941 1041 1192 716 
Q 1444 391 1838 391 
Q 2244 391 2475 664 
Q 2706 938 2706 1416 
z
" transform="scale(0.015625)"/>
       </defs>
       <use xlink:href="#LiberationSans-36"/>
      </g>
     </g>
    </g>
    <g id="xtick_8">
     <g id="line2d_8">
      <path d="M 147.6 145.44 
L 42.146853 179.703804 
" clip-path="url(#pf97c26a8e8)" style="fill: none; stroke: #cccccc; stroke-linecap: round"/>
     </g>
     <g id="text_8">
      <!-- 7 -->
      <g style="fill: #262626" transform="translate(23.117858 187.90571) scale(0.12 -0.12)">
       <defs>
        <path id="LiberationSans-37" d="M 3238 3947 
Q 2563 2916 2284 2331 
Q 2006 1747 1867 1178 
Q 1728 609 1728 0 
L 1141 0 
Q 1141 844 1498 1776 
Q 1856 2709 2694 3925 
L 328 3925 
L 328 4403 
L 3238 4403 
L 3238 3947 
z
" transform="scale(0.015625)"/>
       </defs>
       <use xlink:href="#LiberationSans-37"/>
      </g>
     </g>
    </g>
    <g id="xtick_9">
     <g id="line2d_9">
      <path d="M 147.6 145.44 
L 42.146853 111.176196 
" clip-path="url(#pf97c26a8e8)" style="fill: none; stroke: #cccccc; stroke-linecap: round"/>
     </g>
     <g id="text_9">
      <!-- 8 -->
      <g style="fill: #262626" transform="translate(23.117858 109.18054) scale(0.12 -0.12)">
       <defs>
        <path id="LiberationSans-38" d="M 3281 1228 
Q 3281 619 2893 278 
Q 2506 -63 1781 -63 
Q 1075 -63 676 271 
Q 278 606 278 1222 
Q 278 1653 525 1947 
Q 772 2241 1156 2303 
L 1156 2316 
Q 797 2400 589 2681 
Q 381 2963 381 3341 
Q 381 3844 757 4156 
Q 1134 4469 1769 4469 
Q 2419 4469 2795 4162 
Q 3172 3856 3172 3334 
Q 3172 2956 2962 2675 
Q 2753 2394 2391 2322 
L 2391 2309 
Q 2813 2241 3047 1952 
Q 3281 1663 3281 1228 
z
M 2588 3303 
Q 2588 4050 1769 4050 
Q 1372 4050 1164 3862 
Q 956 3675 956 3303 
Q 956 2925 1170 2726 
Q 1384 2528 1775 2528 
Q 2172 2528 2380 2711 
Q 2588 2894 2588 3303 
z
M 2697 1281 
Q 2697 1691 2453 1898 
Q 2209 2106 1769 2106 
Q 1341 2106 1100 1882 
Q 859 1659 859 1269 
Q 859 359 1788 359 
Q 2247 359 2472 579 
Q 2697 800 2697 1281 
z
" transform="scale(0.015625)"/>
       </defs>
       <use xlink:href="#LiberationSans-38"/>
      </g>
     </g>
    </g>
    <g id="xtick_10">
     <g id="line2d_10">
      <path d="M 147.6 145.44 
L 82.426371 55.736196 
" clip-path="url(#pf97c26a8e8)" style="fill: none; stroke: #cccccc; stroke-linecap: round"/>
     </g>
     <g id="text_10">
      <!-- 9 -->
      <g style="fill: #262626" transform="translate(69.391352 45.49054) scale(0.12 -0.12)">
       <defs>
        <path id="LiberationSans-39" d="M 3256 2291 
Q 3256 1156 2842 546 
Q 2428 -63 1663 -63 
Q 1147 -63 836 154 
Q 525 372 391 856 
L 928 941 
Q 1097 391 1672 391 
Q 2156 391 2422 841 
Q 2688 1291 2700 2125 
Q 2575 1844 2272 1673 
Q 1969 1503 1606 1503 
Q 1013 1503 656 1909 
Q 300 2316 300 2988 
Q 300 3678 687 4073 
Q 1075 4469 1766 4469 
Q 2500 4469 2878 3925 
Q 3256 3381 3256 2291 
z
M 2644 2834 
Q 2644 3366 2400 3689 
Q 2156 4013 1747 4013 
Q 1341 4013 1106 3736 
Q 872 3459 872 2988 
Q 872 2506 1106 2226 
Q 1341 1947 1741 1947 
Q 1984 1947 2193 2058 
Q 2403 2169 2523 2372 
Q 2644 2575 2644 2834 
z
" transform="scale(0.015625)"/>
       </defs>
       <use xlink:href="#LiberationSans-39"/>
      </g>
     </g>
    </g>
   </g>
   <g id="matplotlib.axis_2">
    <g id="ytick_1">
     <g id="line2d_11">
      <path d="M 147.6 123.264 
C 150.512126 123.264 153.395935 123.837625 156.086388 124.952047 
C 158.776841 126.06647 161.221616 127.700016 163.2808 129.7592 
C 165.339984 131.818384 166.97353 134.263159 168.087953 136.953612 
C 169.202375 139.644065 169.776 142.527874 169.776 145.44 
C 169.776 148.352126 169.202375 151.235935 168.087953 153.926388 
C 166.97353 156.616841 165.339984 159.061616 163.2808 161.1208 
C 161.221616 163.179984 158.776841 164.81353 156.086388 165.927953 
C 153.395935 167.042375 150.512126 167.616 147.6 167.616 
C 144.687874 167.616 141.804065 167.042375 139.113612 165.927953 
C 136.423159 164.81353 133.978384 163.179984 131.9192 161.1208 
C 129.860016 159.061616 128.22647 156.616841 127.112047 153.926388 
C 125.997625 151.235935 125.424 148.352126 125.424 145.44 
C 125.424 142.527874 125.997625 139.644065 127.112047 136.953612 
C 128.22647 134.263159 129.860016 131.818384 131.9192 129.7592 
C 133.978384 127.700016 136.423159 126.06647 139.113612 124.952047 
C 141.804065 123.837625 144.687874 123.264 147.6 123.264 
" clip-path="url(#pf97c26a8e8)" style="fill: none; stroke: #cccccc; stroke-opacity: 0.5; stroke-linecap: round"/>
     </g>
    </g>
    <g id="ytick_2">
     <g id="line2d_12">
      <path d="M 147.6 101.088 
C 153.424251 101.088 159.191869 102.235251 164.572776 104.464095 
C 169.953682 106.692939 174.843232 109.960032 178.9616 114.0784 
C 183.079968 118.196768 186.347061 123.086318 188.575905 128.467224 
C 190.804749 133.848131 191.952 139.615749 191.952 145.44 
C 191.952 151.264251 190.804749 157.031869 188.575905 162.412776 
C 186.347061 167.793682 183.079968 172.683232 178.9616 176.8016 
C 174.843232 180.919968 169.953682 184.187061 164.572776 186.415905 
C 159.191869 188.644749 153.424251 189.792 147.6 189.792 
C 141.775749 189.792 136.008131 188.644749 130.627224 186.415905 
C 125.246318 184.187061 120.356768 180.919968 116.2384 176.8016 
C 112.120032 172.683232 108.852939 167.793682 106.624095 162.412776 
C 104.395251 157.031869 103.248 151.264251 103.248 145.44 
C 103.248 139.615749 104.395251 133.848131 106.624095 128.467224 
C 108.852939 123.086318 112.120032 118.196768 116.2384 114.0784 
C 120.356768 109.960032 125.246318 106.692939 130.627224 104.464095 
C 136.008131 102.235251 141.775749 101.088 147.6 101.088 
" clip-path="url(#pf97c26a8e8)" style="fill: none; stroke: #cccccc; stroke-opacity: 0.5; stroke-linecap: round"/>
     </g>
    </g>
    <g id="ytick_3">
     <g id="line2d_13">
      <path d="M 147.6 78.912 
C 156.336377 78.912 164.987804 80.632876 173.059163 83.976142 
C 181.130523 87.319409 188.464849 92.220049 194.6424 98.3976 
C 200.819951 104.575151 205.720591 111.909477 209.063858 119.980837 
C 212.407124 128.052196 214.128 136.703623 214.128 145.44 
C 214.128 154.176377 212.407124 162.827804 209.063858 170.899163 
C 205.720591 178.970523 200.819951 186.304849 194.6424 192.4824 
C 188.464849 198.659951 181.130523 203.560591 173.059163 206.903858 
C 164.987804 210.247124 156.336377 211.968 147.6 211.968 
C 138.863623 211.968 130.212196 210.247124 122.140837 206.903858 
C 114.069477 203.560591 106.735151 198.659951 100.5576 192.4824 
C 94.380049 186.304849 89.479409 178.970523 86.136142 170.899163 
C 82.792876 162.827804 81.072 154.176377 81.072 145.44 
C 81.072 136.703623 82.792876 128.052196 86.136142 119.980837 
C 89.479409 111.909477 94.380049 104.575151 100.5576 98.3976 
C 106.735151 92.220049 114.069477 87.319409 122.140837 83.976142 
C 130.212196 80.632876 138.863623 78.912 147.6 78.912 
" clip-path="url(#pf97c26a8e8)" style="fill: none; stroke: #cccccc; stroke-opacity: 0.5; stroke-linecap: round"/>
     </g>
    </g>
    <g id="ytick_4">
     <g id="line2d_14">
      <path d="M 147.6 56.736 
C 159.248503 56.736 170.783738 59.030501 181.545551 63.48819 
C 192.307364 67.945879 202.086465 74.480065 210.3232 82.7168 
C 218.559935 90.953535 225.094121 100.732636 229.55181 111.494449 
C 234.009499 122.256262 236.304 133.791497 236.304 145.44 
C 236.304 157.088503 234.009499 168.623738 229.55181 179.385551 
C 225.094121 190.147364 218.559935 199.926465 210.3232 208.1632 
C 202.086465 216.399935 192.307364 222.934121 181.545551 227.39181 
C 170.783738 231.849499 159.248503 234.144 147.6 234.144 
C 135.951497 234.144 124.416262 231.849499 113.654449 227.39181 
C 102.892636 222.934121 93.113535 216.399935 84.8768 208.1632 
C 76.640065 199.926465 70.105879 190.147364 65.64819 179.385551 
C 61.190501 168.623738 58.896 157.088503 58.896 145.44 
C 58.896 133.791497 61.190501 122.256262 65.64819 111.494449 
C 70.105879 100.732636 76.640065 90.953535 84.8768 82.7168 
C 93.113535 74.480065 102.892636 67.945879 113.654449 63.48819 
C 124.416262 59.030501 135.951497 56.736 147.6 56.736 
" clip-path="url(#pf97c26a8e8)" style="fill: none; stroke: #cccccc; stroke-opacity: 0.5; stroke-linecap: round"/>
     </g>
    </g>
    <g id="ytick_5">
     <g id="line2d_15">
      <path d="M 147.6 34.56 
C 162.160628 34.56 176.579673 37.428126 190.031939 43.000237 
C 203.484205 48.572349 215.708081 56.740081 226.004 67.036 
C 236.299919 77.331919 244.467651 89.555795 250.039763 103.008061 
C 255.611874 116.460327 258.48 130.879372 258.48 145.44 
C 258.48 160.000628 255.611874 174.419673 250.039763 187.871939 
C 244.467651 201.324205 236.299919 213.548081 226.004 223.844 
C 215.708081 234.139919 203.484205 242.307651 190.031939 247.879763 
C 176.579673 253.451874 162.160628 256.32 147.6 256.32 
C 133.039372 256.32 118.620327 253.451874 105.168061 247.879763 
C 91.715795 242.307651 79.491919 234.139919 69.196 223.844 
C 58.900081 213.548081 50.732349 201.324205 45.160237 187.871939 
C 39.588126 174.419673 36.72 160.000628 36.72 145.44 
C 36.72 130.879372 39.588126 116.460327 45.160237 103.008061 
C 50.732349 89.555795 58.900081 77.331919 69.196 67.036 
C 79.491919 56.740081 91.715795 48.572349 105.168061 43.000237 
C 118.620327 37.428126 133.039372 34.56 147.6 34.56 
" clip-path="url(#pf97c26a8e8)" style="fill: none; stroke: #cccccc; stroke-opacity: 0.5; stroke-linecap: round"/>
     </g>
    </g>
   </g>
   <g id="patch_3">
    <path d="M 147.6 145.44 
C 147.6 145.44 147.6 145.44 147.6 145.44 
C 147.6 145.44 147.6 145.44 147.6 145.44 
L 147.686747 145.10027 
C 147.6584 145.093031 147.629257 145.089369 147.6 145.089369 
C 147.570743 145.089369 147.5416 145.093031 147.513253 145.10027 
z
" clip-path="url(#pf97c26a8e8)" style="fill: #a1c9f4; opacity: 0.5; stroke: #ffffff; stroke-linejoin: miter"/>
   </g>
   <g id="patch_4">
    <path d="M 147.6 145.44 
C 147.6 145.44 147.6 145.44 147.6 145.44 
C 147.6 145.44 147.6 145.44 147.6 145.44 
L 147.628865 145.416056 
C 147.626867 145.413648 147.624576 145.411499 147.622044 145.409659 
C 147.619512 145.40782 147.61676 145.406305 147.613852 145.405149 
z
" clip-path="url(#pf97c26a8e8)" style="fill: #a1c9f4; opacity: 0.5; stroke: #ffffff; stroke-linejoin: miter"/>
   </g>
   <g id="patch_5">
    <path d="M 147.6 145.44 
C 147.6 145.44 147.6 145.44 147.6 145.44 
C 147.6 145.44 147.6 145.44 147.6 145.44 
L 147.901341 145.42064 
C 147.899726 145.395495 147.89497 145.370651 147.887184 145.346688 
C 147.879398 145.322725 147.868643 145.299831 147.85517 145.278539 
z
" clip-path="url(#pf97c26a8e8)" style="fill: #a1c9f4; opacity: 0.5; stroke: #ffffff; stroke-linejoin: miter"/>
   </g>
   <g id="patch_6">
    <path d="M 147.6 145.44 
C 147.6 145.44 147.6 145.44 147.6 145.44 
C 147.6 145.44 147.6 145.44 147.6 145.44 
L 147.625236 145.455968 
C 147.626568 145.453862 147.627632 145.451598 147.628402 145.449228 
C 147.629172 145.446858 147.629642 145.444401 147.629802 145.441915 
z
" clip-path="url(#pf97c26a8e8)" style="fill: #a1c9f4; opacity: 0.5; stroke: #ffffff; stroke-linejoin: miter"/>
   </g>
   <g id="patch_7">
    <path d="M 147.6 145.44 
C 147.6 145.44 147.6 145.44 147.6 145.44 
C 147.6 145.44 147.6 145.44 147.6 145.44 
L 147.683103 145.649084 
C 147.70055 145.64215 147.71706 145.633059 147.732248 145.622024 
C 147.747437 145.610989 147.761184 145.598096 147.77317 145.583647 
z
" clip-path="url(#pf97c26a8e8)" style="fill: #a1c9f4; opacity: 0.5; stroke: #ffffff; stroke-linejoin: miter"/>
   </g>
   <g id="patch_8">
    <path d="M 147.6 145.44 
C 147.6 145.44 147.6 145.44 147.6 145.44 
C 147.6 145.44 147.6 145.44 147.6 145.44 
L 147.505815 145.80886 
C 147.536593 145.816719 147.568234 145.820694 147.6 145.820694 
C 147.631766 145.820694 147.663407 145.816719 147.694185 145.80886 
z
" clip-path="url(#pf97c26a8e8)" style="fill: #a1c9f4; opacity: 0.5; stroke: #ffffff; stroke-linejoin: miter"/>
   </g>
   <g id="patch_9">
    <path d="M 147.6 145.44 
C 147.6 145.44 147.6 145.44 147.6 145.44 
C 147.6 145.44 147.6 145.44 147.6 145.44 
L 147.569795 145.465056 
C 147.571885 145.467576 147.574283 145.469825 147.576933 145.47175 
C 147.579582 145.473674 147.582462 145.47526 147.585505 145.476469 
z
" clip-path="url(#pf97c26a8e8)" style="fill: #a1c9f4; opacity: 0.5; stroke: #ffffff; stroke-linejoin: miter"/>
   </g>
   <g id="patch_10">
    <path d="M 147.6 145.44 
C 147.6 145.44 147.6 145.44 147.6 145.44 
C 147.6 145.44 147.6 145.44 147.6 145.44 
L 147.103444 145.471902 
C 147.106106 145.513336 147.113944 145.554274 147.126774 145.593761 
C 147.139604 145.633247 147.157326 145.670974 147.179526 145.706059 
z
" clip-path="url(#pf97c26a8e8)" style="fill: #a1c9f4; opacity: 0.5; stroke: #ffffff; stroke-linejoin: miter"/>
   </g>
   <g id="patch_11">
    <path d="M 147.6 145.44 
C 147.6 145.44 147.6 145.44 147.6 145.44 
C 147.6 145.44 147.6 145.44 147.6 145.44 
L 147.561992 145.41595 
C 147.559985 145.419121 147.558383 145.422532 147.557223 145.426101 
C 147.556063 145.42967 147.555355 145.433371 147.555114 145.437116 
z
" clip-path="url(#pf97c26a8e8)" style="fill: #a1c9f4; opacity: 0.5; stroke: #ffffff; stroke-linejoin: miter"/>
   </g>
   <g id="patch_12">
    <path d="M 147.6 145.44 
C 147.6 145.44 147.6 145.44 147.6 145.44 
C 147.6 145.44 147.6 145.44 147.6 145.44 
L 147.491828 145.167844 
C 147.469118 145.17687 147.447628 145.188703 147.427858 145.203067 
C 147.408088 145.21743 147.390193 145.234212 147.374591 145.253021 
z
" clip-path="url(#pf97c26a8e8)" style="fill: #a1c9f4; opacity: 0.5; stroke: #ffffff; stroke-linejoin: miter"/>
   </g>
   <g id="patch_13">
    <path d="M 147.6 145.44 
C 147.6 145.44 147.6 145.44 147.6 145.44 
C 147.6 145.44 147.6 145.44 147.6 145.44 
L 168.188302 64.809674 
C 161.460372 63.091751 154.543797 62.222648 147.6 62.222648 
C 140.656203 62.222648 133.739628 63.091751 127.011698 64.809674 
z
" clip-path="url(#pf97c26a8e8)" style="fill: #ffb482; opacity: 0.5; stroke: #ffffff; stroke-linejoin: miter"/>
   </g>
   <g id="patch_14">
    <path d="M 147.6 145.44 
C 147.6 145.44 147.6 145.44 147.6 145.44 
C 147.6 145.44 147.6 145.44 147.6 145.44 
L 154.2946 139.886761 
C 153.831228 139.328152 153.299756 138.82973 152.712587 138.403127 
C 152.125419 137.976524 151.487157 137.625085 150.812699 137.357012 
z
" clip-path="url(#pf97c26a8e8)" style="fill: #ffb482; opacity: 0.5; stroke: #ffffff; stroke-linejoin: miter"/>
   </g>
   <g id="patch_15">
    <path d="M 147.6 145.44 
C 147.6 145.44 147.6 145.44 147.6 145.44 
C 147.6 145.44 147.6 145.44 147.6 145.44 
L 219.183168 140.840964 
C 218.799416 134.867944 217.669571 128.96637 215.820001 123.273978 
C 213.97043 117.581586 211.415637 112.143006 208.215245 107.085168 
z
" clip-path="url(#pf97c26a8e8)" style="fill: #ffb482; opacity: 0.5; stroke: #ffffff; stroke-linejoin: miter"/>
   </g>
   <g id="patch_16">
    <path d="M 147.6 145.44 
C 147.6 145.44 147.6 145.44 147.6 145.44 
C 147.6 145.44 147.6 145.44 147.6 145.44 
L 152.060004 148.262107 
C 152.295486 147.889957 152.483465 147.489792 152.619554 147.070952 
C 152.755643 146.652112 152.838776 146.21788 152.867012 145.778392 
z
" clip-path="url(#pf97c26a8e8)" style="fill: #ffb482; opacity: 0.5; stroke: #ffffff; stroke-linejoin: miter"/>
   </g>
   <g id="patch_17">
    <path d="M 147.6 145.44 
C 147.6 145.44 147.6 145.44 147.6 145.44 
C 147.6 145.44 147.6 145.44 147.6 145.44 
L 167.238922 194.85053 
C 171.361821 193.211825 175.263451 191.063512 178.852757 188.455729 
C 182.442062 185.847946 185.690899 182.80114 188.523446 179.386419 
z
" clip-path="url(#pf97c26a8e8)" style="fill: #ffb482; opacity: 0.5; stroke: #ffffff; stroke-linejoin: miter"/>
   </g>
   <g id="patch_18">
    <path d="M 147.6 145.44 
C 147.6 145.44 147.6 145.44 147.6 145.44 
C 147.6 145.44 147.6 145.44 147.6 145.44 
L 147.599654 145.441353 
C 147.599767 145.441382 147.599883 145.441397 147.6 145.441397 
C 147.600117 145.441397 147.600233 145.441382 147.600346 145.441353 
z
" clip-path="url(#pf97c26a8e8)" style="fill: #ffb482; opacity: 0.5; stroke: #ffffff; stroke-linejoin: miter"/>
   </g>
   <g id="patch_19">
    <path d="M 147.6 145.44 
C 147.6 145.44 147.6 145.44 147.6 145.44 
C 147.6 145.44 147.6 145.44 147.6 145.44 
L 146.884893 146.033189 
C 146.934389 146.092859 146.99116 146.146099 147.053881 146.191669 
C 147.116601 146.237238 147.184779 146.274778 147.256824 146.303413 
z
" clip-path="url(#pf97c26a8e8)" style="fill: #ffb482; opacity: 0.5; stroke: #ffffff; stroke-linejoin: miter"/>
   </g>
   <g id="patch_20">
    <path d="M 147.6 145.44 
C 147.6 145.44 147.6 145.44 147.6 145.44 
C 147.6 145.44 147.6 145.44 147.6 145.44 
L 147.344897 145.45639 
C 147.346264 145.477676 147.350291 145.498708 147.356882 145.518994 
C 147.363473 145.53928 147.372578 145.558662 147.383983 145.576686 
z
" clip-path="url(#pf97c26a8e8)" style="fill: #ffb482; opacity: 0.5; stroke: #ffffff; stroke-linejoin: miter"/>
   </g>
   <g id="patch_21">
    <path d="M 147.6 145.44 
C 147.6 145.44 147.6 145.44 147.6 145.44 
C 147.6 145.44 147.6 145.44 147.6 145.44 
L 146.942438 145.023922 
C 146.90772 145.07879 146.880005 145.137788 146.859941 145.19954 
C 146.839877 145.261292 146.82762 145.325313 146.823457 145.390109 
z
" clip-path="url(#pf97c26a8e8)" style="fill: #ffb482; opacity: 0.5; stroke: #ffffff; stroke-linejoin: miter"/>
   </g>
   <g id="patch_22">
    <path d="M 147.6 145.44 
C 147.6 145.44 147.6 145.44 147.6 145.44 
C 147.6 145.44 147.6 145.44 147.6 145.44 
L 147.574598 145.376091 
C 147.569266 145.37821 147.564219 145.380989 147.559577 145.384362 
C 147.554934 145.387735 147.550732 145.391676 147.547068 145.396093 
z
" clip-path="url(#pf97c26a8e8)" style="fill: #ffb482; opacity: 0.5; stroke: #ffffff; stroke-linejoin: miter"/>
   </g>
   <g id="patch_23">
    <path d="M 147.6 145.44 
C 147.6 145.44 147.6 145.44 147.6 145.44 
C 147.6 145.44 147.6 145.44 147.6 145.44 
L 147.601541 145.433963 
C 147.601038 145.433834 147.60052 145.433769 147.6 145.433769 
C 147.59948 145.433769 147.598962 145.433834 147.598459 145.433963 
z
" clip-path="url(#pf97c26a8e8)" style="fill: #8de5a1; opacity: 0.5; stroke: #ffffff; stroke-linejoin: miter"/>
   </g>
   <g id="patch_24">
    <path d="M 147.6 145.44 
C 147.6 145.44 147.6 145.44 147.6 145.44 
C 147.6 145.44 147.6 145.44 147.6 145.44 
L 147.633168 145.412487 
C 147.630872 145.409719 147.628239 145.40725 147.62533 145.405136 
C 147.622421 145.403022 147.619259 145.401281 147.615917 145.399953 
z
" clip-path="url(#pf97c26a8e8)" style="fill: #8de5a1; opacity: 0.5; stroke: #ffffff; stroke-linejoin: miter"/>
   </g>
   <g id="patch_25">
    <path d="M 147.6 145.44 
C 147.6 145.44 147.6 145.44 147.6 145.44 
C 147.6 145.44 147.6 145.44 147.6 145.44 
L 147.619311 145.438759 
C 147.619207 145.437148 147.618902 145.435556 147.618403 145.43402 
C 147.617904 145.432485 147.617215 145.431018 147.616352 145.429653 
z
" clip-path="url(#pf97c26a8e8)" style="fill: #8de5a1; opacity: 0.5; stroke: #ffffff; stroke-linejoin: miter"/>
   </g>
   <g id="patch_26">
    <path d="M 147.6 145.44 
C 147.6 145.44 147.6 145.44 147.6 145.44 
C 147.6 145.44 147.6 145.44 147.6 145.44 
L 148.017729 145.704322 
C 148.039785 145.669466 148.057391 145.631986 148.070137 145.592757 
C 148.082884 145.553528 148.09067 145.512857 148.093315 145.471694 
z
" clip-path="url(#pf97c26a8e8)" style="fill: #8de5a1; opacity: 0.5; stroke: #ffffff; stroke-linejoin: miter"/>
   </g>
   <g id="patch_27">
    <path d="M 147.6 145.44 
C 147.6 145.44 147.6 145.44 147.6 145.44 
C 147.6 145.44 147.6 145.44 147.6 145.44 
L 147.625862 145.505066 
C 147.631291 145.502908 147.636429 145.500079 147.641155 145.496645 
C 147.645882 145.493211 147.65016 145.489199 147.65389 145.484702 
z
" clip-path="url(#pf97c26a8e8)" style="fill: #8de5a1; opacity: 0.5; stroke: #ffffff; stroke-linejoin: miter"/>
   </g>
   <g id="patch_28">
    <path d="M 147.6 145.44 
C 147.6 145.44 147.6 145.44 147.6 145.44 
C 147.6 145.44 147.6 145.44 147.6 145.44 
L 141.158715 170.666116 
C 143.263625 171.203588 145.427554 171.475497 147.6 171.475497 
C 149.772446 171.475497 151.936375 171.203588 154.041285 170.666116 
z
" clip-path="url(#pf97c26a8e8)" style="fill: #8de5a1; opacity: 0.5; stroke: #ffffff; stroke-linejoin: miter"/>
   </g>
   <g id="patch_29">
    <path d="M 147.6 145.44 
C 147.6 145.44 147.6 145.44 147.6 145.44 
C 147.6 145.44 147.6 145.44 147.6 145.44 
L 145.744813 146.978897 
C 145.873221 147.133697 146.020501 147.271818 146.183215 147.390037 
C 146.34593 147.508256 146.522803 147.605646 146.709707 147.679933 
z
" clip-path="url(#pf97c26a8e8)" style="fill: #8de5a1; opacity: 0.5; stroke: #ffffff; stroke-linejoin: miter"/>
   </g>
   <g id="patch_30">
    <path d="M 147.6 145.44 
C 147.6 145.44 147.6 145.44 147.6 145.44 
C 147.6 145.44 147.6 145.44 147.6 145.44 
L 113.724027 147.616445 
C 113.905633 150.443113 114.44032 153.23597 115.31561 155.929834 
C 116.190899 158.623698 117.399928 161.197448 118.91448 163.591017 
z
" clip-path="url(#pf97c26a8e8)" style="fill: #8de5a1; opacity: 0.5; stroke: #ffffff; stroke-linejoin: miter"/>
   </g>
   <g id="patch_31">
    <path d="M 147.6 145.44 
C 147.6 145.44 147.6 145.44 147.6 145.44 
C 147.6 145.44 147.6 145.44 147.6 145.44 
L 145.196967 143.91946 
C 145.07009 144.119973 144.968808 144.33558 144.895484 144.561249 
C 144.822159 144.786919 144.777368 145.020881 144.762154 145.257676 
z
" clip-path="url(#pf97c26a8e8)" style="fill: #8de5a1; opacity: 0.5; stroke: #ffffff; stroke-linejoin: miter"/>
   </g>
   <g id="patch_32">
    <path d="M 147.6 145.44 
C 147.6 145.44 147.6 145.44 147.6 145.44 
C 147.6 145.44 147.6 145.44 147.6 145.44 
L 140.210178 126.847584 
C 138.658796 127.464203 137.190672 128.27258 135.840073 129.253849 
C 134.489473 130.235117 133.266986 131.381583 132.201142 132.666489 
z
" clip-path="url(#pf97c26a8e8)" style="fill: #8de5a1; opacity: 0.5; stroke: #ffffff; stroke-linejoin: miter"/>
   </g>
   <g id="patch_33">
    <path d="M 147.6 34.56 
C 133.039372 34.56 118.620327 37.428126 105.168061 43.000237 
C 91.715795 48.572349 79.491919 56.740081 69.196 67.036 
C 58.900081 77.331919 50.732349 89.555795 45.160237 103.008061 
C 39.588126 116.460327 36.72 130.879372 36.72 145.44 
C 36.72 160.000628 39.588126 174.419673 45.160237 187.871939 
C 50.732349 201.324205 58.900081 213.548081 69.196 223.844 
C 79.491919 234.139919 91.715795 242.307651 105.168061 247.879763 
C 118.620327 253.451874 133.039372 256.32 147.6 256.32 
C 162.160628 256.32 176.579673 253.451874 190.031939 247.879763 
C 203.484205 242.307651 215.708081 234.139919 226.004 223.844 
C 236.299919 213.548081 244.467651 201.324205 250.039763 187.871939 
C 255.611874 174.419673 258.48 160.000628 258.48 145.44 
C 258.48 130.879372 255.611874 116.460327 250.039763 103.008061 
C 244.467651 89.555795 236.299919 77.331919 226.004 67.036 
C 215.708081 56.740081 203.484205 48.572349 190.031939 43.000237 
C 176.579673 37.428126 162.160628 34.56 147.6 34.56 
" style="fill: none; stroke: #262626; stroke-width: 1.25; stroke-linejoin: miter; stroke-linecap: square"/>
   </g>
   <g id="text_11">
    <!-- Removed -->
    <g style="fill: #262626" transform="translate(113.36375 6.466875) scale(0.16 -0.16)">
     <defs>
      <path id="LiberationSans-52" d="M 3638 0 
L 2494 1828 
L 1122 1828 
L 1122 0 
L 525 0 
L 525 4403 
L 2597 4403 
Q 3341 4403 3745 4070 
Q 4150 3738 4150 3144 
Q 4150 2653 3864 2318 
Q 3578 1984 3075 1897 
L 4325 0 
L 3638 0 
z
M 3550 3138 
Q 3550 3522 3289 3723 
Q 3028 3925 2538 3925 
L 1122 3925 
L 1122 2300 
L 2563 2300 
Q 3034 2300 3292 2520 
Q 3550 2741 3550 3138 
z
" transform="scale(0.015625)"/>
      <path id="LiberationSans-65" d="M 863 1572 
Q 863 991 1103 675 
Q 1344 359 1806 359 
Q 2172 359 2392 506 
Q 2613 653 2691 878 
L 3184 738 
Q 2881 -63 1806 -63 
Q 1056 -63 664 384 
Q 272 831 272 1713 
Q 272 2550 664 2997 
Q 1056 3444 1784 3444 
Q 3275 3444 3275 1647 
L 3275 1572 
L 863 1572 
z
M 2694 2003 
Q 2647 2538 2422 2783 
Q 2197 3028 1775 3028 
Q 1366 3028 1127 2754 
Q 888 2481 869 2003 
L 2694 2003 
z
" transform="scale(0.015625)"/>
      <path id="LiberationSans-6d" d="M 2400 0 
L 2400 2144 
Q 2400 2634 2265 2821 
Q 2131 3009 1781 3009 
Q 1422 3009 1212 2734 
Q 1003 2459 1003 1959 
L 1003 0 
L 444 0 
L 444 2659 
Q 444 3250 425 3381 
L 956 3381 
Q 959 3366 962 3297 
Q 966 3228 970 3139 
Q 975 3050 981 2803 
L 991 2803 
Q 1172 3163 1406 3303 
Q 1641 3444 1978 3444 
Q 2363 3444 2586 3291 
Q 2809 3138 2897 2803 
L 2906 2803 
Q 3081 3144 3329 3294 
Q 3578 3444 3931 3444 
Q 4444 3444 4676 3166 
Q 4909 2888 4909 2253 
L 4909 0 
L 4353 0 
L 4353 2144 
Q 4353 2634 4218 2821 
Q 4084 3009 3734 3009 
Q 3366 3009 3161 2736 
Q 2956 2463 2956 1959 
L 2956 0 
L 2400 0 
z
" transform="scale(0.015625)"/>
      <path id="LiberationSans-6f" d="M 3291 1694 
Q 3291 806 2900 371 
Q 2509 -63 1766 -63 
Q 1025 -63 647 389 
Q 269 841 269 1694 
Q 269 3444 1784 3444 
Q 2559 3444 2925 3017 
Q 3291 2591 3291 1694 
z
M 2700 1694 
Q 2700 2394 2492 2711 
Q 2284 3028 1794 3028 
Q 1300 3028 1079 2704 
Q 859 2381 859 1694 
Q 859 1025 1076 689 
Q 1294 353 1759 353 
Q 2266 353 2483 678 
Q 2700 1003 2700 1694 
z
" transform="scale(0.015625)"/>
      <path id="LiberationSans-76" d="M 1916 0 
L 1250 0 
L 22 3381 
L 622 3381 
L 1366 1181 
Q 1406 1056 1581 441 
L 1691 806 
L 1813 1175 
L 2581 3381 
L 3178 3381 
L 1916 0 
z
" transform="scale(0.015625)"/>
      <path id="LiberationSans-64" d="M 2566 544 
Q 2409 219 2151 78 
Q 1894 -63 1513 -63 
Q 872 -63 570 368 
Q 269 800 269 1675 
Q 269 3444 1513 3444 
Q 1897 3444 2153 3303 
Q 2409 3163 2566 2856 
L 2572 2856 
L 2566 3234 
L 2566 4638 
L 3128 4638 
L 3128 697 
Q 3128 169 3147 0 
L 2609 0 
Q 2600 50 2589 231 
Q 2578 413 2578 544 
L 2566 544 
z
M 859 1694 
Q 859 984 1046 678 
Q 1234 372 1656 372 
Q 2134 372 2350 703 
Q 2566 1034 2566 1731 
Q 2566 2403 2350 2715 
Q 2134 3028 1663 3028 
Q 1238 3028 1048 2714 
Q 859 2400 859 1694 
z
" transform="scale(0.015625)"/>
     </defs>
     <use xlink:href="#LiberationSans-52"/>
     <use xlink:href="#LiberationSans-65" x="72.216797"/>
     <use xlink:href="#LiberationSans-6d" x="127.832031"/>
     <use xlink:href="#LiberationSans-6f" x="211.132812"/>
     <use xlink:href="#LiberationSans-76" x="266.748047"/>
     <use xlink:href="#LiberationSans-65" x="316.748047"/>
     <use xlink:href="#LiberationSans-64" x="372.363281"/>
    </g>
   </g>
   <g id="legend_1">
    <g id="patch_34">
     <path d="M 174.622187 90.622187 
L 250.78 90.622187 
Q 252.98 90.622187 252.98 88.422188 
L 252.98 42.26 
Q 252.98 40.06 250.78 40.06 
L 174.622187 40.06 
Q 172.422188 40.06 172.422188 42.26 
L 172.422188 88.422188 
Q 172.422188 90.622187 174.622187 90.622187 
z
" style="fill: #ffffff; opacity: 0.8; stroke: #cccccc; stroke-linejoin: miter"/>
    </g>
    <g id="patch_35">
     <path d="M 176.822188 52.431562 
L 198.822188 52.431562 
L 198.822188 44.731562 
L 176.822188 44.731562 
z
" style="fill: #a1c9f4; opacity: 0.5; stroke: #ffffff; stroke-linejoin: miter"/>
    </g>
    <g id="text_12">
     <!-- Cluster1 -->
     <g style="fill: #262626" transform="translate(207.622188 52.431562) scale(0.11 -0.11)">
      <defs>
       <path id="LiberationSans-43" d="M 2475 3981 
Q 1744 3981 1337 3511 
Q 931 3041 931 2222 
Q 931 1413 1354 920 
Q 1778 428 2500 428 
Q 3425 428 3891 1344 
L 4378 1100 
Q 4106 531 3614 234 
Q 3122 -63 2472 -63 
Q 1806 -63 1320 214 
Q 834 491 579 1005 
Q 325 1519 325 2222 
Q 325 3275 894 3872 
Q 1463 4469 2469 4469 
Q 3172 4469 3644 4194 
Q 4116 3919 4338 3378 
L 3772 3191 
Q 3619 3575 3280 3778 
Q 2941 3981 2475 3981 
z
" transform="scale(0.015625)"/>
       <path id="LiberationSans-6c" d="M 431 0 
L 431 4638 
L 994 4638 
L 994 0 
L 431 0 
z
" transform="scale(0.015625)"/>
       <path id="LiberationSans-75" d="M 981 3381 
L 981 1238 
Q 981 903 1047 718 
Q 1113 534 1256 453 
Q 1400 372 1678 372 
Q 2084 372 2318 650 
Q 2553 928 2553 1422 
L 2553 3381 
L 3116 3381 
L 3116 722 
Q 3116 131 3134 0 
L 2603 0 
Q 2600 16 2597 84 
Q 2594 153 2589 242 
Q 2584 331 2578 578 
L 2569 578 
Q 2375 228 2120 82 
Q 1866 -63 1488 -63 
Q 931 -63 673 214 
Q 416 491 416 1128 
L 416 3381 
L 981 3381 
z
" transform="scale(0.015625)"/>
       <path id="LiberationSans-73" d="M 2969 934 
Q 2969 456 2608 196 
Q 2247 -63 1597 -63 
Q 966 -63 623 145 
Q 281 353 178 794 
L 675 891 
Q 747 619 972 492 
Q 1197 366 1597 366 
Q 2025 366 2223 497 
Q 2422 628 2422 891 
Q 2422 1091 2284 1216 
Q 2147 1341 1841 1422 
L 1438 1528 
Q 953 1653 748 1773 
Q 544 1894 428 2066 
Q 313 2238 313 2488 
Q 313 2950 642 3192 
Q 972 3434 1603 3434 
Q 2163 3434 2492 3237 
Q 2822 3041 2909 2606 
L 2403 2544 
Q 2356 2769 2151 2889 
Q 1947 3009 1603 3009 
Q 1222 3009 1040 2893 
Q 859 2778 859 2544 
Q 859 2400 934 2306 
Q 1009 2213 1156 2147 
Q 1303 2081 1775 1966 
Q 2222 1853 2419 1758 
Q 2616 1663 2730 1547 
Q 2844 1431 2906 1279 
Q 2969 1128 2969 934 
z
" transform="scale(0.015625)"/>
       <path id="LiberationSans-74" d="M 1731 25 
Q 1453 -50 1163 -50 
Q 488 -50 488 716 
L 488 2972 
L 97 2972 
L 97 3381 
L 509 3381 
L 675 4138 
L 1050 4138 
L 1050 3381 
L 1675 3381 
L 1675 2972 
L 1050 2972 
L 1050 838 
Q 1050 594 1129 495 
Q 1209 397 1406 397 
Q 1519 397 1731 441 
L 1731 25 
z
" transform="scale(0.015625)"/>
       <path id="LiberationSans-72" d="M 444 0 
L 444 2594 
Q 444 2950 425 3381 
L 956 3381 
Q 981 2806 981 2691 
L 994 2691 
Q 1128 3125 1303 3284 
Q 1478 3444 1797 3444 
Q 1909 3444 2025 3413 
L 2025 2897 
Q 1913 2928 1725 2928 
Q 1375 2928 1190 2626 
Q 1006 2325 1006 1763 
L 1006 0 
L 444 0 
z
" transform="scale(0.015625)"/>
      </defs>
      <use xlink:href="#LiberationSans-43"/>
      <use xlink:href="#LiberationSans-6c" x="72.216797"/>
      <use xlink:href="#LiberationSans-75" x="94.433594"/>
      <use xlink:href="#LiberationSans-73" x="150.048828"/>
      <use xlink:href="#LiberationSans-74" x="200.048828"/>
      <use xlink:href="#LiberationSans-65" x="227.832031"/>
      <use xlink:href="#LiberationSans-72" x="283.447266"/>
      <use xlink:href="#LiberationSans-31" x="316.748047"/>
     </g>
    </g>
    <g id="patch_36">
     <path d="M 176.822188 68.185625 
L 198.822188 68.185625 
L 198.822188 60.485625 
L 176.822188 60.485625 
z
" style="fill: #ffb482; opacity: 0.5; stroke: #ffffff; stroke-linejoin: miter"/>
    </g>
    <g id="text_13">
     <!-- Cluster2 -->
     <g style="fill: #262626" transform="translate(207.622188 68.185625) scale(0.11 -0.11)">
      <use xlink:href="#LiberationSans-43"/>
      <use xlink:href="#LiberationSans-6c" x="72.216797"/>
      <use xlink:href="#LiberationSans-75" x="94.433594"/>
      <use xlink:href="#LiberationSans-73" x="150.048828"/>
      <use xlink:href="#LiberationSans-74" x="200.048828"/>
      <use xlink:href="#LiberationSans-65" x="227.832031"/>
      <use xlink:href="#LiberationSans-72" x="283.447266"/>
      <use xlink:href="#LiberationSans-32" x="316.748047"/>
     </g>
    </g>
    <g id="patch_37">
     <path d="M 176.822188 83.939687 
L 198.822188 83.939687 
L 198.822188 76.239687 
L 176.822188 76.239687 
z
" style="fill: #8de5a1; opacity: 0.5; stroke: #ffffff; stroke-linejoin: miter"/>
    </g>
    <g id="text_14">
     <!-- Cluster3 -->
     <g style="fill: #262626" transform="translate(207.622188 83.939687) scale(0.11 -0.11)">
      <use xlink:href="#LiberationSans-43"/>
      <use xlink:href="#LiberationSans-6c" x="72.216797"/>
      <use xlink:href="#LiberationSans-75" x="94.433594"/>
      <use xlink:href="#LiberationSans-73" x="150.048828"/>
      <use xlink:href="#LiberationSans-74" x="200.048828"/>
      <use xlink:href="#LiberationSans-65" x="227.832031"/>
      <use xlink:href="#LiberationSans-72" x="283.447266"/>
      <use xlink:href="#LiberationSans-33" x="316.748047"/>
     </g>
    </g>
   </g>
  </g>
 </g>
 <defs>
  <clipPath id="pf97c26a8e8">
   <path d="M 258.48 145.44 
C 258.48 130.879372 255.611874 116.460327 250.039763 103.008061 
C 244.467651 89.555795 236.299919 77.331919 226.004 67.036 
C 215.708081 56.740081 203.484205 48.572349 190.031939 43.000237 
C 176.579673 37.428126 162.160628 34.56 147.6 34.56 
C 133.039372 34.56 118.620327 37.428126 105.168061 43.000237 
C 91.715795 48.572349 79.491919 56.740081 69.196 67.036 
C 58.900081 77.331919 50.732349 89.555795 45.160237 103.008061 
C 39.588126 116.460327 36.72 130.879372 36.72 145.44 
C 36.72 160.000628 39.588126 174.419673 45.160237 187.871939 
C 50.732349 201.324205 58.900081 213.548081 69.196 223.844 
C 79.491919 234.139919 91.715795 242.307651 105.168061 247.879763 
C 118.620327 253.451874 133.039372 256.32 147.6 256.32 
C 162.160628 256.32 176.579673 253.451874 190.031939 247.879763 
C 203.484205 242.307651 215.708081 234.139919 226.004 223.844 
C 236.299919 213.548081 244.467651 201.324205 250.039763 187.871939 
C 255.611874 174.419673 258.48 160.000628 258.48 145.44 
M 147.6 145.44 
C 147.6 145.44 147.6 145.44 147.6 145.44 
C 147.6 145.44 147.6 145.44 147.6 145.44 
C 147.6 145.44 147.6 145.44 147.6 145.44 
C 147.6 145.44 147.6 145.44 147.6 145.44 
C 147.6 145.44 147.6 145.44 147.6 145.44 
C 147.6 145.44 147.6 145.44 147.6 145.44 
C 147.6 145.44 147.6 145.44 147.6 145.44 
C 147.6 145.44 147.6 145.44 147.6 145.44 
C 147.6 145.44 147.6 145.44 147.6 145.44 
C 147.6 145.44 147.6 145.44 147.6 145.44 
C 147.6 145.44 147.6 145.44 147.6 145.44 
C 147.6 145.44 147.6 145.44 147.6 145.44 
C 147.6 145.44 147.6 145.44 147.6 145.44 
C 147.6 145.44 147.6 145.44 147.6 145.44 
C 147.6 145.44 147.6 145.44 147.6 145.44 
C 147.6 145.44 147.6 145.44 147.6 145.44 
z
"/>
  </clipPath>
 </defs>
</svg>
