<?xml version="1.0" encoding="utf-8" standalone="no"?>
<!DOCTYPE svg PUBLIC "-//W3C//DTD SVG 1.1//EN"
  "http://www.w3.org/Graphics/SVG/1.1/DTD/svg11.dtd">
<svg xmlns:xlink="http://www.w3.org/1999/xlink" width="432pt" height="288pt" viewBox="0 0 432 288" xmlns="http://www.w3.org/2000/svg" version="1.1">
 <metadata>
  <rdf:RDF xmlns:dc="http://purl.org/dc/elements/1.1/" xmlns:cc="http://creativecommons.org/ns#" xmlns:rdf="http://www.w3.org/1999/02/22-rdf-syntax-ns#">
   <cc:Work>
    <dc:type rdf:resource="http://purl.org/dc/dcmitype/StillImage"/>
    <dc:date>2024-02-04T16:49:07.693073</dc:date>
    <dc:format>image/svg+xml</dc:format>
    <dc:creator>
     <cc:Agent>
      <dc:title>Matplotlib v3.7.4, https://matplotlib.org/</dc:title>
     </cc:Agent>
    </dc:creator>
   </cc:Work>
  </rdf:RDF>
 </metadata>
 <defs>
  <style type="text/css">*{stroke-linejoin: round; stroke-linecap: butt}</style>
 </defs>
 <g id="figure_1">
  <g id="patch_1">
   <path d="M 0 288 
L 432 288 
L 432 0 
L 0 0 
z
" style="fill: #ffffff"/>
  </g>
  <g id="axes_1">
   <g id="patch_2">
    <path d="M 54 256.32 
L 388.8 256.32 
L 388.8 34.56 
L 54 34.56 
z
" style="fill: #ffffff"/>
   </g>
   <g id="PolyCollection_1">
    <defs>
     <path id="mf9f994389e" d="M 69.218182 -212.692444 
L 69.218182 -151.307035 
L 72.261818 -151.515525 
L 75.305455 -151.727419 
L 78.349091 -151.942275 
L 81.392727 -152.161571 
L 84.436364 -152.386723 
L 87.48 -152.607638 
L 90.523636 -152.826334 
L 93.567273 -153.044386 
L 96.610909 -153.262762 
L 99.654545 -153.48318 
L 102.698182 -153.704049 
L 105.741818 -153.92446 
L 108.785455 -154.148773 
L 111.829091 -154.376789 
L 114.872727 -154.6081 
L 117.916364 -154.842169 
L 120.96 -155.074072 
L 124.003636 -155.307365 
L 127.047273 -155.543955 
L 130.090909 -155.785369 
L 133.134545 -156.028966 
L 136.178182 -156.273639 
L 139.221818 -156.521984 
L 142.265455 -156.773431 
L 145.309091 -157.027511 
L 148.352727 -157.282376 
L 151.396364 -157.537206 
L 154.44 -157.790621 
L 157.483636 -158.043135 
L 160.527273 -158.296648 
L 163.570909 -158.549932 
L 166.614545 -158.801988 
L 169.658182 -159.055477 
L 172.701818 -159.308546 
L 175.745455 -159.56089 
L 178.789091 -159.81223 
L 181.832727 -160.061176 
L 184.876364 -160.306706 
L 187.92 -160.549491 
L 190.963636 -160.790025 
L 194.007273 -161.026416 
L 197.050909 -161.261629 
L 200.094545 -161.493741 
L 203.138182 -161.724211 
L 206.181818 -161.951356 
L 209.225455 -162.177922 
L 212.269091 -162.400878 
L 215.312727 -162.62053 
L 218.356364 -162.836931 
L 221.4 -163.047774 
L 224.443636 -163.256878 
L 227.487273 -163.458953 
L 230.530909 -163.655801 
L 233.574545 -163.85013 
L 236.618182 -164.039408 
L 239.661818 -164.223773 
L 242.705455 -164.400485 
L 245.749091 -164.567566 
L 248.792727 -164.725298 
L 251.836364 -164.875707 
L 254.88 -165.017162 
L 257.923636 -165.149668 
L 260.967273 -165.275215 
L 264.010909 -165.394784 
L 267.054545 -165.505637 
L 270.098182 -165.605765 
L 273.141818 -165.693536 
L 276.185455 -165.770535 
L 279.229091 -165.834111 
L 282.272727 -165.882624 
L 285.316364 -165.918139 
L 288.36 -165.939453 
L 291.403636 -165.947278 
L 294.447273 -165.941851 
L 297.490909 -165.923381 
L 300.534545 -165.89076 
L 303.578182 -165.843565 
L 306.621818 -165.782177 
L 309.665455 -165.707702 
L 312.709091 -165.620872 
L 315.752727 -165.524332 
L 318.796364 -165.417578 
L 321.84 -165.299872 
L 324.883636 -165.16958 
L 327.927273 -165.029314 
L 330.970909 -164.882813 
L 334.014545 -164.729758 
L 337.058182 -164.566684 
L 340.101818 -164.397292 
L 343.145455 -164.223328 
L 346.189091 -164.042757 
L 349.232727 -163.854092 
L 352.276364 -163.662853 
L 355.32 -163.468653 
L 358.363636 -163.270778 
L 361.407273 -163.067621 
L 364.450909 -162.862192 
L 367.494545 -162.654658 
L 370.538182 -162.445772 
L 373.581818 -162.237131 
L 373.581818 -212.691293 
L 373.581818 -212.691293 
L 370.538182 -212.475675 
L 367.494545 -212.261122 
L 364.450909 -212.054099 
L 361.407273 -211.849968 
L 358.363636 -211.644641 
L 355.32 -211.437475 
L 352.276364 -211.230828 
L 349.232727 -211.022144 
L 346.189091 -210.81541 
L 343.145455 -210.614922 
L 340.101818 -210.42074 
L 337.058182 -210.232145 
L 334.014545 -210.050546 
L 330.970909 -209.874437 
L 327.927273 -209.704051 
L 324.883636 -209.541307 
L 321.84 -209.383578 
L 318.796364 -209.22904 
L 315.752727 -209.079283 
L 312.709091 -208.936029 
L 309.665455 -208.802476 
L 306.621818 -208.677857 
L 303.578182 -208.562561 
L 300.534545 -208.45449 
L 297.490909 -208.353063 
L 294.447273 -208.25779 
L 291.403636 -208.171275 
L 288.36 -208.089781 
L 285.316364 -208.014469 
L 282.272727 -207.945558 
L 279.229091 -207.885182 
L 276.185455 -207.832758 
L 273.141818 -207.793252 
L 270.098182 -207.762854 
L 267.054545 -207.7368 
L 264.010909 -207.714587 
L 260.967273 -207.698609 
L 257.923636 -207.687774 
L 254.88 -207.680892 
L 251.836364 -207.677619 
L 248.792727 -207.679801 
L 245.749091 -207.691522 
L 242.705455 -207.70829 
L 239.661818 -207.728116 
L 236.618182 -207.757929 
L 233.574545 -207.793416 
L 230.530909 -207.832799 
L 227.487273 -207.877396 
L 224.443636 -207.927302 
L 221.4 -207.981518 
L 218.356364 -208.036484 
L 215.312727 -208.094683 
L 212.269091 -208.158391 
L 209.225455 -208.223834 
L 206.181818 -208.295296 
L 203.138182 -208.374814 
L 200.094545 -208.454738 
L 197.050909 -208.535072 
L 194.007273 -208.617704 
L 190.963636 -208.704502 
L 187.92 -208.794566 
L 184.876364 -208.886147 
L 181.832727 -208.981354 
L 178.789091 -209.080199 
L 175.745455 -209.176983 
L 172.701818 -209.268865 
L 169.658182 -209.356965 
L 166.614545 -209.448148 
L 163.570909 -209.547407 
L 160.527273 -209.651149 
L 157.483636 -209.759864 
L 154.44 -209.866337 
L 151.396364 -209.969853 
L 148.352727 -210.073471 
L 145.309091 -210.178382 
L 142.265455 -210.283901 
L 139.221818 -210.388621 
L 136.178182 -210.496216 
L 133.134545 -210.602171 
L 130.090909 -210.704237 
L 127.047273 -210.805508 
L 124.003636 -210.909128 
L 120.96 -211.011811 
L 117.916364 -211.110015 
L 114.872727 -211.207475 
L 111.829091 -211.306047 
L 108.785455 -211.4075 
L 105.741818 -211.512053 
L 102.698182 -211.616312 
L 99.654545 -211.722072 
L 96.610909 -211.828201 
L 93.567273 -211.934647 
L 90.523636 -212.036869 
L 87.48 -212.13444 
L 84.436364 -212.228902 
L 81.392727 -212.32353 
L 78.349091 -212.418547 
L 75.305455 -212.511075 
L 72.261818 -212.603263 
L 69.218182 -212.692444 
z
" style="stroke: #c0d9ff; stroke-opacity: 0.5"/>
    </defs>
    <g clip-path="url(#pe0eb9f4f1c)">
     <use xlink:href="#mf9f994389e" x="0" y="288" style="fill: #c0d9ff; fill-opacity: 0.5; stroke: #c0d9ff; stroke-opacity: 0.5"/>
    </g>
   </g>
   <g id="PolyCollection_2">
    <defs>
     <path id="m01f81ca2e6" d="M 69.218182 -210.011621 
L 69.218182 -147.843098 
L 72.261818 -147.937153 
L 75.305455 -148.032659 
L 78.349091 -148.12779 
L 81.392727 -148.224676 
L 84.436364 -148.320801 
L 87.48 -148.415929 
L 90.523636 -148.512725 
L 93.567273 -148.613015 
L 96.610909 -148.717893 
L 99.654545 -148.824067 
L 102.698182 -148.93003 
L 105.741818 -149.03455 
L 108.785455 -149.1401 
L 111.829091 -149.243178 
L 114.872727 -149.342497 
L 117.916364 -149.440238 
L 120.96 -149.53819 
L 124.003636 -149.640437 
L 127.047273 -149.743905 
L 130.090909 -149.844215 
L 133.134545 -149.944268 
L 136.178182 -150.048218 
L 139.221818 -150.153978 
L 142.265455 -150.257302 
L 145.309091 -150.361928 
L 148.352727 -150.466243 
L 151.396364 -150.568741 
L 154.44 -150.671217 
L 157.483636 -150.775613 
L 160.527273 -150.877314 
L 163.570909 -150.975299 
L 166.614545 -151.072073 
L 169.658182 -151.16223 
L 172.701818 -151.248711 
L 175.745455 -151.337072 
L 178.789091 -151.429819 
L 181.832727 -151.524157 
L 184.876364 -151.614333 
L 187.92 -151.702274 
L 190.963636 -151.789081 
L 194.007273 -151.872521 
L 197.050909 -151.95233 
L 200.094545 -152.030604 
L 203.138182 -152.10853 
L 206.181818 -152.185493 
L 209.225455 -152.254099 
L 212.269091 -152.317164 
L 215.312727 -152.378408 
L 218.356364 -152.433515 
L 221.4 -152.484708 
L 224.443636 -152.534524 
L 227.487273 -152.58056 
L 230.530909 -152.621226 
L 233.574545 -152.656834 
L 236.618182 -152.688692 
L 239.661818 -152.715232 
L 242.705455 -152.7324 
L 245.749091 -152.746868 
L 248.792727 -152.756058 
L 251.836364 -152.755668 
L 254.88 -152.749288 
L 257.923636 -152.739193 
L 260.967273 -152.725208 
L 264.010909 -152.706107 
L 267.054545 -152.680728 
L 270.098182 -152.652547 
L 273.141818 -152.620062 
L 276.185455 -152.577704 
L 279.229091 -152.522577 
L 282.272727 -152.460375 
L 285.316364 -152.389733 
L 288.36 -152.312585 
L 291.403636 -152.229471 
L 294.447273 -152.141343 
L 297.490909 -152.044124 
L 300.534545 -151.940864 
L 303.578182 -151.831096 
L 306.621818 -151.714597 
L 309.665455 -151.588757 
L 312.709091 -151.454099 
L 315.752727 -151.310127 
L 318.796364 -151.159857 
L 321.84 -151.004843 
L 324.883636 -150.846589 
L 327.927273 -150.683091 
L 330.970909 -150.511705 
L 334.014545 -150.3343 
L 337.058182 -150.15132 
L 340.101818 -149.961339 
L 343.145455 -149.765628 
L 346.189091 -149.562982 
L 349.232727 -149.353931 
L 352.276364 -149.142348 
L 355.32 -148.932572 
L 358.363636 -148.721719 
L 361.407273 -148.512369 
L 364.450909 -148.303839 
L 367.494545 -148.092048 
L 370.538182 -147.872027 
L 373.581818 -147.6504 
L 373.581818 -198.417967 
L 373.581818 -198.417967 
L 370.538182 -198.225063 
L 367.494545 -198.032309 
L 364.450909 -197.84132 
L 361.407273 -197.65238 
L 358.363636 -197.465164 
L 355.32 -197.283192 
L 352.276364 -197.105151 
L 349.232727 -196.930181 
L 346.189091 -196.758028 
L 343.145455 -196.594096 
L 340.101818 -196.436881 
L 337.058182 -196.284174 
L 334.014545 -196.137922 
L 330.970909 -196.001338 
L 327.927273 -195.871284 
L 324.883636 -195.747683 
L 321.84 -195.634228 
L 318.796364 -195.533364 
L 315.752727 -195.443254 
L 312.709091 -195.363193 
L 309.665455 -195.292417 
L 306.621818 -195.233193 
L 303.578182 -195.186459 
L 300.534545 -195.153844 
L 297.490909 -195.1352 
L 294.447273 -195.129861 
L 291.403636 -195.1375 
L 288.36 -195.158276 
L 285.316364 -195.191973 
L 282.272727 -195.2391 
L 279.229091 -195.298625 
L 276.185455 -195.373098 
L 273.141818 -195.460521 
L 270.098182 -195.558128 
L 267.054545 -195.667371 
L 264.010909 -195.787214 
L 260.967273 -195.915464 
L 257.923636 -196.049887 
L 254.88 -196.191485 
L 251.836364 -196.341679 
L 248.792727 -196.500757 
L 245.749091 -196.667011 
L 242.705455 -196.842253 
L 239.661818 -197.026682 
L 236.618182 -197.21803 
L 233.574545 -197.414072 
L 230.530909 -197.61507 
L 227.487273 -197.818322 
L 224.443636 -198.026334 
L 221.4 -198.240928 
L 218.356364 -198.456834 
L 215.312727 -198.678214 
L 212.269091 -198.902181 
L 209.225455 -199.129227 
L 206.181818 -199.359424 
L 203.138182 -199.590409 
L 200.094545 -199.824609 
L 197.050909 -200.060705 
L 194.007273 -200.299624 
L 190.963636 -200.539707 
L 187.92 -200.783963 
L 184.876364 -201.030304 
L 181.832727 -201.2791 
L 178.789091 -201.531025 
L 175.745455 -201.784828 
L 172.701818 -202.039945 
L 169.658182 -202.295471 
L 166.614545 -202.551385 
L 163.570909 -202.805926 
L 160.527273 -203.06109 
L 157.483636 -203.316058 
L 154.44 -203.569801 
L 151.396364 -203.824559 
L 148.352727 -204.080114 
L 145.309091 -204.335389 
L 142.265455 -204.588905 
L 139.221818 -204.839464 
L 136.178182 -205.086573 
L 133.134545 -205.329973 
L 130.090909 -205.571736 
L 127.047273 -205.810681 
L 124.003636 -206.044718 
L 120.96 -206.275732 
L 117.916364 -206.505658 
L 114.872727 -206.738009 
L 111.829091 -206.967931 
L 108.785455 -207.194259 
L 105.741818 -207.416176 
L 102.698182 -207.634178 
L 99.654545 -207.852127 
L 96.610909 -208.069142 
L 93.567273 -208.284841 
L 90.523636 -208.50031 
L 87.48 -208.717147 
L 84.436364 -208.936913 
L 81.392727 -209.161161 
L 78.349091 -209.379518 
L 75.305455 -209.593524 
L 72.261818 -209.804275 
L 69.218182 -210.011621 
z
" style="stroke: #ffbfc4; stroke-opacity: 0.5"/>
    </defs>
    <g clip-path="url(#pe0eb9f4f1c)">
     <use xlink:href="#m01f81ca2e6" x="0" y="288" style="fill: #ffbfc4; fill-opacity: 0.5; stroke: #ffbfc4; stroke-opacity: 0.5"/>
    </g>
   </g>
   <g id="matplotlib.axis_1">
    <g id="xtick_1">
     <g id="line2d_1">
      <defs>
       <path id="maf25e7ecd4" d="M 0 0 
L 0 3.5 
" style="stroke: #000000; stroke-width: 1.5"/>
      </defs>
      <g>
       <use xlink:href="#maf25e7ecd4" x="69.218182" y="256.32" style="stroke: #000000; stroke-width: 1.5"/>
      </g>
     </g>
     <g id="text_1">
      <!-- 0.0 -->
      <g transform="translate(59.488182 273.465625) scale(0.14 -0.14)">
       <defs>
        <path id="LiberationSans-30" d="M 3309 2203 
Q 3309 1100 2920 518 
Q 2531 -63 1772 -63 
Q 1013 -63 631 515 
Q 250 1094 250 2203 
Q 250 3338 620 3903 
Q 991 4469 1791 4469 
Q 2569 4469 2939 3897 
Q 3309 3325 3309 2203 
z
M 2738 2203 
Q 2738 3156 2517 3584 
Q 2297 4013 1791 4013 
Q 1272 4013 1045 3591 
Q 819 3169 819 2203 
Q 819 1266 1048 831 
Q 1278 397 1778 397 
Q 2275 397 2506 840 
Q 2738 1284 2738 2203 
z
" transform="scale(0.015625)"/>
        <path id="LiberationSans-2e" d="M 584 0 
L 584 684 
L 1194 684 
L 1194 0 
L 584 0 
z
" transform="scale(0.015625)"/>
       </defs>
       <use xlink:href="#LiberationSans-30"/>
       <use xlink:href="#LiberationSans-2e" x="55.615234"/>
       <use xlink:href="#LiberationSans-30" x="83.398438"/>
      </g>
     </g>
    </g>
    <g id="xtick_2">
     <g id="line2d_2">
      <g>
       <use xlink:href="#maf25e7ecd4" x="130.090909" y="256.32" style="stroke: #000000; stroke-width: 1.5"/>
      </g>
     </g>
     <g id="text_2">
      <!-- 0.2 -->
      <g transform="translate(120.360909 273.465625) scale(0.14 -0.14)">
       <defs>
        <path id="LiberationSans-32" d="M 322 0 
L 322 397 
Q 481 763 711 1042 
Q 941 1322 1194 1548 
Q 1447 1775 1695 1969 
Q 1944 2163 2144 2356 
Q 2344 2550 2467 2762 
Q 2591 2975 2591 3244 
Q 2591 3606 2378 3806 
Q 2166 4006 1788 4006 
Q 1428 4006 1195 3811 
Q 963 3616 922 3263 
L 347 3316 
Q 409 3844 795 4156 
Q 1181 4469 1788 4469 
Q 2453 4469 2811 4155 
Q 3169 3841 3169 3263 
Q 3169 3006 3051 2753 
Q 2934 2500 2703 2247 
Q 2472 1994 1819 1463 
Q 1459 1169 1246 933 
Q 1034 697 941 478 
L 3238 478 
L 3238 0 
L 322 0 
z
" transform="scale(0.015625)"/>
       </defs>
       <use xlink:href="#LiberationSans-30"/>
       <use xlink:href="#LiberationSans-2e" x="55.615234"/>
       <use xlink:href="#LiberationSans-32" x="83.398438"/>
      </g>
     </g>
    </g>
    <g id="xtick_3">
     <g id="line2d_3">
      <g>
       <use xlink:href="#maf25e7ecd4" x="190.963636" y="256.32" style="stroke: #000000; stroke-width: 1.5"/>
      </g>
     </g>
     <g id="text_3">
      <!-- 0.4 -->
      <g transform="translate(181.233636 273.465625) scale(0.14 -0.14)">
       <defs>
        <path id="LiberationSans-34" d="M 2753 997 
L 2753 0 
L 2222 0 
L 2222 997 
L 147 997 
L 147 1434 
L 2163 4403 
L 2753 4403 
L 2753 1441 
L 3372 1441 
L 3372 997 
L 2753 997 
z
M 2222 3769 
Q 2216 3750 2134 3603 
Q 2053 3456 2013 3397 
L 884 1734 
L 716 1503 
L 666 1441 
L 2222 1441 
L 2222 3769 
z
" transform="scale(0.015625)"/>
       </defs>
       <use xlink:href="#LiberationSans-30"/>
       <use xlink:href="#LiberationSans-2e" x="55.615234"/>
       <use xlink:href="#LiberationSans-34" x="83.398438"/>
      </g>
     </g>
    </g>
    <g id="xtick_4">
     <g id="line2d_4">
      <g>
       <use xlink:href="#maf25e7ecd4" x="251.836364" y="256.32" style="stroke: #000000; stroke-width: 1.5"/>
      </g>
     </g>
     <g id="text_4">
      <!-- 0.6 -->
      <g transform="translate(242.106364 273.465625) scale(0.14 -0.14)">
       <defs>
        <path id="LiberationSans-36" d="M 3278 1441 
Q 3278 744 2900 340 
Q 2522 -63 1856 -63 
Q 1113 -63 719 490 
Q 325 1044 325 2100 
Q 325 3244 734 3856 
Q 1144 4469 1900 4469 
Q 2897 4469 3156 3572 
L 2619 3475 
Q 2453 4013 1894 4013 
Q 1413 4013 1148 3564 
Q 884 3116 884 2266 
Q 1038 2550 1316 2698 
Q 1594 2847 1953 2847 
Q 2563 2847 2920 2465 
Q 3278 2084 3278 1441 
z
M 2706 1416 
Q 2706 1894 2472 2153 
Q 2238 2413 1819 2413 
Q 1425 2413 1183 2183 
Q 941 1953 941 1550 
Q 941 1041 1192 716 
Q 1444 391 1838 391 
Q 2244 391 2475 664 
Q 2706 938 2706 1416 
z
" transform="scale(0.015625)"/>
       </defs>
       <use xlink:href="#LiberationSans-30"/>
       <use xlink:href="#LiberationSans-2e" x="55.615234"/>
       <use xlink:href="#LiberationSans-36" x="83.398438"/>
      </g>
     </g>
    </g>
    <g id="xtick_5">
     <g id="line2d_5">
      <g>
       <use xlink:href="#maf25e7ecd4" x="312.709091" y="256.32" style="stroke: #000000; stroke-width: 1.5"/>
      </g>
     </g>
     <g id="text_5">
      <!-- 0.8 -->
      <g transform="translate(302.979091 273.465625) scale(0.14 -0.14)">
       <defs>
        <path id="LiberationSans-38" d="M 3281 1228 
Q 3281 619 2893 278 
Q 2506 -63 1781 -63 
Q 1075 -63 676 271 
Q 278 606 278 1222 
Q 278 1653 525 1947 
Q 772 2241 1156 2303 
L 1156 2316 
Q 797 2400 589 2681 
Q 381 2963 381 3341 
Q 381 3844 757 4156 
Q 1134 4469 1769 4469 
Q 2419 4469 2795 4162 
Q 3172 3856 3172 3334 
Q 3172 2956 2962 2675 
Q 2753 2394 2391 2322 
L 2391 2309 
Q 2813 2241 3047 1952 
Q 3281 1663 3281 1228 
z
M 2588 3303 
Q 2588 4050 1769 4050 
Q 1372 4050 1164 3862 
Q 956 3675 956 3303 
Q 956 2925 1170 2726 
Q 1384 2528 1775 2528 
Q 2172 2528 2380 2711 
Q 2588 2894 2588 3303 
z
M 2697 1281 
Q 2697 1691 2453 1898 
Q 2209 2106 1769 2106 
Q 1341 2106 1100 1882 
Q 859 1659 859 1269 
Q 859 359 1788 359 
Q 2247 359 2472 579 
Q 2697 800 2697 1281 
z
" transform="scale(0.015625)"/>
       </defs>
       <use xlink:href="#LiberationSans-30"/>
       <use xlink:href="#LiberationSans-2e" x="55.615234"/>
       <use xlink:href="#LiberationSans-38" x="83.398438"/>
      </g>
     </g>
    </g>
    <g id="xtick_6">
     <g id="line2d_6">
      <g>
       <use xlink:href="#maf25e7ecd4" x="373.581818" y="256.32" style="stroke: #000000; stroke-width: 1.5"/>
      </g>
     </g>
     <g id="text_6">
      <!-- 1.0 -->
      <g transform="translate(363.851818 273.465625) scale(0.14 -0.14)">
       <defs>
        <path id="LiberationSans-31" d="M 488 0 
L 488 478 
L 1609 478 
L 1609 3866 
L 616 3156 
L 616 3688 
L 1656 4403 
L 2175 4403 
L 2175 478 
L 3247 478 
L 3247 0 
L 488 0 
z
" transform="scale(0.015625)"/>
       </defs>
       <use xlink:href="#LiberationSans-31"/>
       <use xlink:href="#LiberationSans-2e" x="55.615234"/>
       <use xlink:href="#LiberationSans-30" x="83.398438"/>
      </g>
     </g>
    </g>
    <g id="text_7">
     <!-- Context Strength -->
     <g transform="translate(161.36875 291.965625) scale(0.16 -0.16)">
      <defs>
       <path id="LiberationSans-43" d="M 2475 3981 
Q 1744 3981 1337 3511 
Q 931 3041 931 2222 
Q 931 1413 1354 920 
Q 1778 428 2500 428 
Q 3425 428 3891 1344 
L 4378 1100 
Q 4106 531 3614 234 
Q 3122 -63 2472 -63 
Q 1806 -63 1320 214 
Q 834 491 579 1005 
Q 325 1519 325 2222 
Q 325 3275 894 3872 
Q 1463 4469 2469 4469 
Q 3172 4469 3644 4194 
Q 4116 3919 4338 3378 
L 3772 3191 
Q 3619 3575 3280 3778 
Q 2941 3981 2475 3981 
z
" transform="scale(0.015625)"/>
       <path id="LiberationSans-6f" d="M 3291 1694 
Q 3291 806 2900 371 
Q 2509 -63 1766 -63 
Q 1025 -63 647 389 
Q 269 841 269 1694 
Q 269 3444 1784 3444 
Q 2559 3444 2925 3017 
Q 3291 2591 3291 1694 
z
M 2700 1694 
Q 2700 2394 2492 2711 
Q 2284 3028 1794 3028 
Q 1300 3028 1079 2704 
Q 859 2381 859 1694 
Q 859 1025 1076 689 
Q 1294 353 1759 353 
Q 2266 353 2483 678 
Q 2700 1003 2700 1694 
z
" transform="scale(0.015625)"/>
       <path id="LiberationSans-6e" d="M 2578 0 
L 2578 2144 
Q 2578 2478 2512 2662 
Q 2447 2847 2303 2928 
Q 2159 3009 1881 3009 
Q 1475 3009 1240 2731 
Q 1006 2453 1006 1959 
L 1006 0 
L 444 0 
L 444 2659 
Q 444 3250 425 3381 
L 956 3381 
Q 959 3366 962 3297 
Q 966 3228 970 3139 
Q 975 3050 981 2803 
L 991 2803 
Q 1184 3153 1439 3298 
Q 1694 3444 2072 3444 
Q 2628 3444 2886 3167 
Q 3144 2891 3144 2253 
L 3144 0 
L 2578 0 
z
" transform="scale(0.015625)"/>
       <path id="LiberationSans-74" d="M 1731 25 
Q 1453 -50 1163 -50 
Q 488 -50 488 716 
L 488 2972 
L 97 2972 
L 97 3381 
L 509 3381 
L 675 4138 
L 1050 4138 
L 1050 3381 
L 1675 3381 
L 1675 2972 
L 1050 2972 
L 1050 838 
Q 1050 594 1129 495 
Q 1209 397 1406 397 
Q 1519 397 1731 441 
L 1731 25 
z
" transform="scale(0.015625)"/>
       <path id="LiberationSans-65" d="M 863 1572 
Q 863 991 1103 675 
Q 1344 359 1806 359 
Q 2172 359 2392 506 
Q 2613 653 2691 878 
L 3184 738 
Q 2881 -63 1806 -63 
Q 1056 -63 664 384 
Q 272 831 272 1713 
Q 272 2550 664 2997 
Q 1056 3444 1784 3444 
Q 3275 3444 3275 1647 
L 3275 1572 
L 863 1572 
z
M 2694 2003 
Q 2647 2538 2422 2783 
Q 2197 3028 1775 3028 
Q 1366 3028 1127 2754 
Q 888 2481 869 2003 
L 2694 2003 
z
" transform="scale(0.015625)"/>
       <path id="LiberationSans-78" d="M 2503 0 
L 1594 1388 
L 678 0 
L 72 0 
L 1275 1738 
L 128 3381 
L 750 3381 
L 1594 2066 
L 2431 3381 
L 3059 3381 
L 1913 1744 
L 3131 0 
L 2503 0 
z
" transform="scale(0.015625)"/>
       <path id="LiberationSans-20" transform="scale(0.015625)"/>
       <path id="LiberationSans-53" d="M 3975 1216 
Q 3975 606 3498 271 
Q 3022 -63 2156 -63 
Q 547 -63 291 1056 
L 869 1172 
Q 969 775 1294 589 
Q 1619 403 2178 403 
Q 2756 403 3070 601 
Q 3384 800 3384 1184 
Q 3384 1400 3286 1534 
Q 3188 1669 3009 1756 
Q 2831 1844 2584 1903 
Q 2338 1963 2038 2031 
Q 1516 2147 1245 2262 
Q 975 2378 819 2520 
Q 663 2663 580 2853 
Q 497 3044 497 3291 
Q 497 3856 930 4162 
Q 1363 4469 2169 4469 
Q 2919 4469 3316 4239 
Q 3713 4009 3872 3456 
L 3284 3353 
Q 3188 3703 2916 3861 
Q 2644 4019 2163 4019 
Q 1634 4019 1356 3844 
Q 1078 3669 1078 3322 
Q 1078 3119 1186 2986 
Q 1294 2853 1497 2761 
Q 1700 2669 2306 2534 
Q 2509 2488 2711 2439 
Q 2913 2391 3097 2323 
Q 3281 2256 3442 2165 
Q 3603 2075 3722 1944 
Q 3841 1813 3908 1634 
Q 3975 1456 3975 1216 
z
" transform="scale(0.015625)"/>
       <path id="LiberationSans-72" d="M 444 0 
L 444 2594 
Q 444 2950 425 3381 
L 956 3381 
Q 981 2806 981 2691 
L 994 2691 
Q 1128 3125 1303 3284 
Q 1478 3444 1797 3444 
Q 1909 3444 2025 3413 
L 2025 2897 
Q 1913 2928 1725 2928 
Q 1375 2928 1190 2626 
Q 1006 2325 1006 1763 
L 1006 0 
L 444 0 
z
" transform="scale(0.015625)"/>
       <path id="LiberationSans-67" d="M 1713 -1328 
Q 1159 -1328 831 -1111 
Q 503 -894 409 -494 
L 975 -413 
Q 1031 -647 1223 -773 
Q 1416 -900 1728 -900 
Q 2569 -900 2569 84 
L 2569 628 
L 2563 628 
Q 2403 303 2125 139 
Q 1847 -25 1475 -25 
Q 853 -25 561 387 
Q 269 800 269 1684 
Q 269 2581 583 3007 
Q 897 3434 1538 3434 
Q 1897 3434 2161 3270 
Q 2425 3106 2569 2803 
L 2575 2803 
Q 2575 2897 2587 3128 
Q 2600 3359 2613 3381 
L 3147 3381 
Q 3128 3213 3128 2681 
L 3128 97 
Q 3128 -1328 1713 -1328 
z
M 2569 1691 
Q 2569 2103 2456 2401 
Q 2344 2700 2139 2858 
Q 1934 3016 1675 3016 
Q 1244 3016 1047 2703 
Q 850 2391 850 1691 
Q 850 997 1034 694 
Q 1219 391 1666 391 
Q 1931 391 2137 547 
Q 2344 703 2456 995 
Q 2569 1288 2569 1691 
z
" transform="scale(0.015625)"/>
       <path id="LiberationSans-68" d="M 991 2803 
Q 1172 3134 1426 3289 
Q 1681 3444 2072 3444 
Q 2622 3444 2883 3170 
Q 3144 2897 3144 2253 
L 3144 0 
L 2578 0 
L 2578 2144 
Q 2578 2500 2512 2673 
Q 2447 2847 2297 2928 
Q 2147 3009 1881 3009 
Q 1484 3009 1245 2734 
Q 1006 2459 1006 1994 
L 1006 0 
L 444 0 
L 444 4638 
L 1006 4638 
L 1006 3431 
Q 1006 3241 995 3037 
Q 984 2834 981 2803 
L 991 2803 
z
" transform="scale(0.015625)"/>
      </defs>
      <use xlink:href="#LiberationSans-43"/>
      <use xlink:href="#LiberationSans-6f" x="72.216797"/>
      <use xlink:href="#LiberationSans-6e" x="127.832031"/>
      <use xlink:href="#LiberationSans-74" x="183.447266"/>
      <use xlink:href="#LiberationSans-65" x="211.230469"/>
      <use xlink:href="#LiberationSans-78" x="266.845703"/>
      <use xlink:href="#LiberationSans-74" x="316.845703"/>
      <use xlink:href="#LiberationSans-20" x="344.628906"/>
      <use xlink:href="#LiberationSans-53" x="372.412109"/>
      <use xlink:href="#LiberationSans-74" x="439.111328"/>
      <use xlink:href="#LiberationSans-72" x="466.894531"/>
      <use xlink:href="#LiberationSans-65" x="500.195312"/>
      <use xlink:href="#LiberationSans-6e" x="555.810547"/>
      <use xlink:href="#LiberationSans-67" x="611.425781"/>
      <use xlink:href="#LiberationSans-74" x="667.041016"/>
      <use xlink:href="#LiberationSans-68" x="694.824219"/>
     </g>
    </g>
   </g>
   <g id="matplotlib.axis_2">
    <g id="ytick_1">
     <g id="line2d_7">
      <defs>
       <path id="m15d8142e73" d="M 0 0 
L -3.5 0 
" style="stroke: #000000; stroke-width: 1.5"/>
      </defs>
      <g>
       <use xlink:href="#m15d8142e73" x="54" y="239.261538" style="stroke: #000000; stroke-width: 1.5"/>
      </g>
     </g>
     <g id="text_8">
      <!-- 0.4 -->
      <g transform="translate(27.54 244.334351) scale(0.14 -0.14)">
       <use xlink:href="#LiberationSans-30"/>
       <use xlink:href="#LiberationSans-2e" x="55.615234"/>
       <use xlink:href="#LiberationSans-34" x="83.398438"/>
      </g>
     </g>
    </g>
    <g id="ytick_2">
     <g id="line2d_8">
      <g>
       <use xlink:href="#m15d8142e73" x="54" y="205.144615" style="stroke: #000000; stroke-width: 1.5"/>
      </g>
     </g>
     <g id="text_9">
      <!-- 0.5 -->
      <g transform="translate(27.54 210.217428) scale(0.14 -0.14)">
       <defs>
        <path id="LiberationSans-35" d="M 3291 1434 
Q 3291 738 2877 337 
Q 2463 -63 1728 -63 
Q 1113 -63 734 206 
Q 356 475 256 984 
L 825 1050 
Q 1003 397 1741 397 
Q 2194 397 2450 670 
Q 2706 944 2706 1422 
Q 2706 1838 2448 2094 
Q 2191 2350 1753 2350 
Q 1525 2350 1328 2278 
Q 1131 2206 934 2034 
L 384 2034 
L 531 4403 
L 3034 4403 
L 3034 3925 
L 1044 3925 
L 959 2528 
Q 1325 2809 1869 2809 
Q 2519 2809 2905 2428 
Q 3291 2047 3291 1434 
z
" transform="scale(0.015625)"/>
       </defs>
       <use xlink:href="#LiberationSans-30"/>
       <use xlink:href="#LiberationSans-2e" x="55.615234"/>
       <use xlink:href="#LiberationSans-35" x="83.398438"/>
      </g>
     </g>
    </g>
    <g id="ytick_3">
     <g id="line2d_9">
      <g>
       <use xlink:href="#m15d8142e73" x="54" y="171.027692" style="stroke: #000000; stroke-width: 1.5"/>
      </g>
     </g>
     <g id="text_10">
      <!-- 0.6 -->
      <g transform="translate(27.54 176.100505) scale(0.14 -0.14)">
       <use xlink:href="#LiberationSans-30"/>
       <use xlink:href="#LiberationSans-2e" x="55.615234"/>
       <use xlink:href="#LiberationSans-36" x="83.398438"/>
      </g>
     </g>
    </g>
    <g id="ytick_4">
     <g id="line2d_10">
      <g>
       <use xlink:href="#m15d8142e73" x="54" y="136.910769" style="stroke: #000000; stroke-width: 1.5"/>
      </g>
     </g>
     <g id="text_11">
      <!-- 0.7 -->
      <g transform="translate(27.54 141.983582) scale(0.14 -0.14)">
       <defs>
        <path id="LiberationSans-37" d="M 3238 3947 
Q 2563 2916 2284 2331 
Q 2006 1747 1867 1178 
Q 1728 609 1728 0 
L 1141 0 
Q 1141 844 1498 1776 
Q 1856 2709 2694 3925 
L 328 3925 
L 328 4403 
L 3238 4403 
L 3238 3947 
z
" transform="scale(0.015625)"/>
       </defs>
       <use xlink:href="#LiberationSans-30"/>
       <use xlink:href="#LiberationSans-2e" x="55.615234"/>
       <use xlink:href="#LiberationSans-37" x="83.398438"/>
      </g>
     </g>
    </g>
    <g id="ytick_5">
     <g id="line2d_11">
      <g>
       <use xlink:href="#m15d8142e73" x="54" y="102.793846" style="stroke: #000000; stroke-width: 1.5"/>
      </g>
     </g>
     <g id="text_12">
      <!-- 0.8 -->
      <g transform="translate(27.54 107.866659) scale(0.14 -0.14)">
       <use xlink:href="#LiberationSans-30"/>
       <use xlink:href="#LiberationSans-2e" x="55.615234"/>
       <use xlink:href="#LiberationSans-38" x="83.398438"/>
      </g>
     </g>
    </g>
    <g id="ytick_6">
     <g id="line2d_12">
      <g>
       <use xlink:href="#m15d8142e73" x="54" y="68.676923" style="stroke: #000000; stroke-width: 1.5"/>
      </g>
     </g>
     <g id="text_13">
      <!-- 0.9 -->
      <g transform="translate(27.54 73.749736) scale(0.14 -0.14)">
       <defs>
        <path id="LiberationSans-39" d="M 3256 2291 
Q 3256 1156 2842 546 
Q 2428 -63 1663 -63 
Q 1147 -63 836 154 
Q 525 372 391 856 
L 928 941 
Q 1097 391 1672 391 
Q 2156 391 2422 841 
Q 2688 1291 2700 2125 
Q 2575 1844 2272 1673 
Q 1969 1503 1606 1503 
Q 1013 1503 656 1909 
Q 300 2316 300 2988 
Q 300 3678 687 4073 
Q 1075 4469 1766 4469 
Q 2500 4469 2878 3925 
Q 3256 3381 3256 2291 
z
M 2644 2834 
Q 2644 3366 2400 3689 
Q 2156 4013 1747 4013 
Q 1341 4013 1106 3736 
Q 872 3459 872 2988 
Q 872 2506 1106 2226 
Q 1341 1947 1741 1947 
Q 1984 1947 2193 2058 
Q 2403 2169 2523 2372 
Q 2644 2575 2644 2834 
z
" transform="scale(0.015625)"/>
       </defs>
       <use xlink:href="#LiberationSans-30"/>
       <use xlink:href="#LiberationSans-2e" x="55.615234"/>
       <use xlink:href="#LiberationSans-39" x="83.398438"/>
      </g>
     </g>
    </g>
    <g id="ytick_7">
     <g id="line2d_13">
      <g>
       <use xlink:href="#m15d8142e73" x="54" y="34.56" style="stroke: #000000; stroke-width: 1.5"/>
      </g>
     </g>
     <g id="text_14">
      <!-- 1.0 -->
      <g transform="translate(27.54 39.632812) scale(0.14 -0.14)">
       <use xlink:href="#LiberationSans-31"/>
       <use xlink:href="#LiberationSans-2e" x="55.615234"/>
       <use xlink:href="#LiberationSans-30" x="83.398438"/>
      </g>
     </g>
    </g>
    <g id="text_15">
     <!-- Accuracy -->
     <g transform="translate(20.22 178.3375) rotate(-90) scale(0.16 -0.16)">
      <defs>
       <path id="LiberationSans-41" d="M 3647 0 
L 3144 1288 
L 1138 1288 
L 631 0 
L 13 0 
L 1809 4403 
L 2488 4403 
L 4256 0 
L 3647 0 
z
M 2141 3953 
L 2113 3866 
Q 2034 3606 1881 3200 
L 1319 1753 
L 2966 1753 
L 2400 3206 
Q 2313 3422 2225 3694 
L 2141 3953 
z
" transform="scale(0.015625)"/>
       <path id="LiberationSans-63" d="M 859 1706 
Q 859 1031 1071 706 
Q 1284 381 1713 381 
Q 2013 381 2214 543 
Q 2416 706 2463 1044 
L 3031 1006 
Q 2966 519 2616 228 
Q 2266 -63 1728 -63 
Q 1019 -63 645 385 
Q 272 834 272 1694 
Q 272 2547 647 2995 
Q 1022 3444 1722 3444 
Q 2241 3444 2583 3175 
Q 2925 2906 3013 2434 
L 2434 2391 
Q 2391 2672 2212 2837 
Q 2034 3003 1706 3003 
Q 1259 3003 1059 2706 
Q 859 2409 859 1706 
z
" transform="scale(0.015625)"/>
       <path id="LiberationSans-75" d="M 981 3381 
L 981 1238 
Q 981 903 1047 718 
Q 1113 534 1256 453 
Q 1400 372 1678 372 
Q 2084 372 2318 650 
Q 2553 928 2553 1422 
L 2553 3381 
L 3116 3381 
L 3116 722 
Q 3116 131 3134 0 
L 2603 0 
Q 2600 16 2597 84 
Q 2594 153 2589 242 
Q 2584 331 2578 578 
L 2569 578 
Q 2375 228 2120 82 
Q 1866 -63 1488 -63 
Q 931 -63 673 214 
Q 416 491 416 1128 
L 416 3381 
L 981 3381 
z
" transform="scale(0.015625)"/>
       <path id="LiberationSans-61" d="M 1294 -63 
Q 784 -63 528 206 
Q 272 475 272 944 
Q 272 1469 617 1750 
Q 963 2031 1731 2050 
L 2491 2063 
L 2491 2247 
Q 2491 2659 2316 2837 
Q 2141 3016 1766 3016 
Q 1388 3016 1216 2887 
Q 1044 2759 1009 2478 
L 422 2531 
Q 566 3444 1778 3444 
Q 2416 3444 2737 3151 
Q 3059 2859 3059 2306 
L 3059 850 
Q 3059 600 3125 473 
Q 3191 347 3375 347 
Q 3456 347 3559 369 
L 3559 19 
Q 3347 -31 3125 -31 
Q 2813 -31 2670 133 
Q 2528 297 2509 647 
L 2491 647 
Q 2275 259 1989 98 
Q 1703 -63 1294 -63 
z
M 1422 359 
Q 1731 359 1972 500 
Q 2213 641 2352 886 
Q 2491 1131 2491 1391 
L 2491 1669 
L 1875 1656 
Q 1478 1650 1273 1575 
Q 1069 1500 959 1344 
Q 850 1188 850 934 
Q 850 659 998 509 
Q 1147 359 1422 359 
z
" transform="scale(0.015625)"/>
       <path id="LiberationSans-79" d="M 597 -1328 
Q 366 -1328 209 -1294 
L 209 -872 
Q 328 -891 472 -891 
Q 997 -891 1303 -119 
L 1356 16 
L 16 3381 
L 616 3381 
L 1328 1513 
Q 1344 1469 1366 1408 
Q 1388 1347 1506 1000 
Q 1625 653 1634 613 
L 1853 1228 
L 2594 3381 
L 3188 3381 
L 1888 0 
Q 1678 -541 1497 -805 
Q 1316 -1069 1095 -1198 
Q 875 -1328 597 -1328 
z
" transform="scale(0.015625)"/>
      </defs>
      <use xlink:href="#LiberationSans-41"/>
      <use xlink:href="#LiberationSans-63" x="66.699219"/>
      <use xlink:href="#LiberationSans-63" x="116.699219"/>
      <use xlink:href="#LiberationSans-75" x="166.699219"/>
      <use xlink:href="#LiberationSans-72" x="222.314453"/>
      <use xlink:href="#LiberationSans-61" x="255.615234"/>
      <use xlink:href="#LiberationSans-63" x="311.230469"/>
      <use xlink:href="#LiberationSans-79" x="361.230469"/>
     </g>
    </g>
   </g>
   <g id="line2d_14">
    <path d="M 69.218182 106.00026 
L 72.261818 105.940606 
L 75.305455 105.880753 
L 78.349091 105.819589 
L 81.392727 105.75745 
L 84.436364 105.692187 
L 87.48 105.628961 
L 90.523636 105.568398 
L 93.567273 105.510483 
L 96.610909 105.454519 
L 99.654545 105.397374 
L 102.698182 105.339819 
L 105.741818 105.281744 
L 108.785455 105.221863 
L 111.829091 105.158582 
L 114.872727 105.092213 
L 117.916364 105.023908 
L 120.96 104.957059 
L 124.003636 104.891754 
L 127.047273 104.825269 
L 130.090909 104.755197 
L 133.134545 104.684431 
L 136.178182 104.615073 
L 139.221818 104.544698 
L 142.265455 104.471334 
L 145.309091 104.397054 
L 148.352727 104.322077 
L 151.396364 104.246471 
L 154.44 104.171521 
L 157.483636 104.098501 
L 160.527273 104.026102 
L 163.570909 103.95133 
L 166.614545 103.874932 
L 169.658182 103.793779 
L 172.701818 103.711294 
L 175.745455 103.631064 
L 178.789091 103.553786 
L 181.832727 103.478735 
L 184.876364 103.403573 
L 187.92 103.327971 
L 190.963636 103.252736 
L 194.007273 103.17794 
L 197.050909 103.10165 
L 200.094545 103.025761 
L 203.138182 102.950487 
L 206.181818 102.876674 
L 209.225455 102.799122 
L 212.269091 102.720365 
L 215.312727 102.642394 
L 218.356364 102.563292 
L 221.4 102.485354 
L 224.443636 102.40791 
L 227.487273 102.331825 
L 230.530909 102.2557 
L 233.574545 102.178227 
L 236.618182 102.101331 
L 239.661818 102.024055 
L 242.705455 101.945613 
L 245.749091 101.870456 
L 248.792727 101.797451 
L 251.836364 101.723337 
L 254.88 101.650973 
L 257.923636 101.581279 
L 260.967273 101.513088 
L 264.010909 101.445314 
L 267.054545 101.378782 
L 270.098182 101.31569 
L 273.141818 101.256606 
L 276.185455 101.198354 
L 279.229091 101.140354 
L 282.272727 101.085909 
L 285.316364 101.033696 
L 288.36 100.985383 
L 291.403636 100.940723 
L 294.447273 100.90018 
L 297.490909 100.861778 
L 300.534545 100.827375 
L 303.578182 100.796937 
L 306.621818 100.769983 
L 309.665455 100.744911 
L 312.709091 100.721549 
L 315.752727 100.698193 
L 318.796364 100.676691 
L 321.84 100.658275 
L 324.883636 100.644556 
L 327.927273 100.633318 
L 330.970909 100.621375 
L 334.014545 100.609848 
L 337.058182 100.600585 
L 340.101818 100.590984 
L 343.145455 100.580875 
L 346.189091 100.570916 
L 349.232727 100.561882 
L 352.276364 100.553159 
L 355.32 100.546936 
L 358.363636 100.54229 
L 361.407273 100.541205 
L 364.450909 100.541855 
L 367.494545 100.54211 
L 370.538182 100.539277 
L 373.581818 100.535788 
" clip-path="url(#pe0eb9f4f1c)" style="fill: none; stroke: #c0d9ff; stroke-width: 1.5; stroke-linecap: square"/>
   </g>
   <g id="line2d_15">
    <path d="M 69.218182 109.072641 
L 72.261818 109.129286 
L 75.305455 109.186909 
L 78.349091 109.246346 
L 81.392727 109.307081 
L 84.436364 109.371143 
L 87.48 109.433462 
L 90.523636 109.493483 
L 93.567273 109.551072 
L 96.610909 109.606483 
L 99.654545 109.661903 
L 102.698182 109.717896 
L 105.741818 109.774637 
L 108.785455 109.832821 
L 111.829091 109.894445 
L 114.872727 109.959747 
L 117.916364 110.027052 
L 120.96 110.093039 
L 124.003636 110.157422 
L 127.047273 110.222707 
L 130.090909 110.292025 
L 133.134545 110.362879 
L 136.178182 110.432605 
L 139.221818 110.503279 
L 142.265455 110.576897 
L 145.309091 110.651341 
L 148.352727 110.726822 
L 151.396364 110.80335 
L 154.44 110.879491 
L 157.483636 110.954164 
L 160.527273 111.030798 
L 163.570909 111.109387 
L 166.614545 111.188271 
L 169.658182 111.27115 
L 172.701818 111.355672 
L 175.745455 111.43905 
L 178.789091 111.519578 
L 181.832727 111.598372 
L 184.876364 111.677682 
L 187.92 111.756882 
L 190.963636 111.835606 
L 194.007273 111.913928 
L 197.050909 111.993482 
L 200.094545 112.072394 
L 203.138182 112.150531 
L 206.181818 112.227542 
L 209.225455 112.308337 
L 212.269091 112.390327 
L 215.312727 112.471689 
L 218.356364 112.554825 
L 221.4 112.637182 
L 224.443636 112.719571 
L 227.487273 112.800559 
L 230.530909 112.881852 
L 233.574545 112.964547 
L 236.618182 113.046639 
L 239.661818 113.129043 
L 242.705455 113.212674 
L 245.749091 113.29306 
L 248.792727 113.371593 
L 251.836364 113.451327 
L 254.88 113.529614 
L 257.923636 113.60546 
L 260.967273 113.679664 
L 264.010909 113.75334 
L 267.054545 113.82595 
L 270.098182 113.894662 
L 273.141818 113.959709 
L 276.185455 114.024599 
L 279.229091 114.089399 
L 282.272727 114.150262 
L 285.316364 114.209147 
L 288.36 114.26457 
L 291.403636 114.316515 
L 294.447273 114.364398 
L 297.490909 114.410338 
L 300.534545 114.452646 
L 303.578182 114.491222 
L 306.621818 114.526105 
L 309.665455 114.559413 
L 312.709091 114.591354 
L 315.752727 114.623309 
L 318.796364 114.65339 
L 321.84 114.680464 
L 324.883636 114.702864 
L 327.927273 114.722813 
L 330.970909 114.743478 
L 334.014545 114.763889 
L 337.058182 114.782253 
L 340.101818 114.80089 
L 343.145455 114.820138 
L 346.189091 114.839495 
L 349.232727 114.857944 
L 352.276364 114.87625 
L 355.32 114.892118 
L 358.363636 114.906558 
L 361.407273 114.917626 
L 364.450909 114.92742 
L 367.494545 114.937821 
L 370.538182 114.951455 
L 373.581818 114.965817 
" clip-path="url(#pe0eb9f4f1c)" style="fill: none; stroke: #ffbfc4; stroke-width: 1.5; stroke-linecap: square"/>
   </g>
   <g id="patch_3">
    <path d="M 54 256.32 
L 54 34.56 
" style="fill: none; stroke: #000000; stroke-width: 1.5; stroke-linejoin: miter; stroke-linecap: square"/>
   </g>
   <g id="patch_4">
    <path d="M 54 256.32 
L 388.8 256.32 
" style="fill: none; stroke: #000000; stroke-width: 1.5; stroke-linejoin: miter; stroke-linecap: square"/>
   </g>
  </g>
 </g>
 <defs>
  <clipPath id="pe0eb9f4f1c">
   <rect x="54" y="34.56" width="334.8" height="221.76"/>
  </clipPath>
 </defs>
</svg>
