<?xml version="1.0" encoding="utf-8" standalone="no"?>
<!DOCTYPE svg PUBLIC "-//W3C//DTD SVG 1.1//EN"
  "http://www.w3.org/Graphics/SVG/1.1/DTD/svg11.dtd">
<svg xmlns:xlink="http://www.w3.org/1999/xlink" width="576pt" height="288pt" viewBox="0 0 576 288" xmlns="http://www.w3.org/2000/svg" version="1.1">
 <metadata>
  <rdf:RDF xmlns:dc="http://purl.org/dc/elements/1.1/" xmlns:cc="http://creativecommons.org/ns#" xmlns:rdf="http://www.w3.org/1999/02/22-rdf-syntax-ns#">
   <cc:Work>
    <dc:type rdf:resource="http://purl.org/dc/dcmitype/StillImage"/>
    <dc:date>2024-01-13T11:10:54.706412</dc:date>
    <dc:format>image/svg+xml</dc:format>
    <dc:creator>
     <cc:Agent>
      <dc:title>Matplotlib v3.7.4, https://matplotlib.org/</dc:title>
     </cc:Agent>
    </dc:creator>
   </cc:Work>
  </rdf:RDF>
 </metadata>
 <defs>
  <style type="text/css">*{stroke-linejoin: round; stroke-linecap: butt}</style>
 </defs>
 <g id="figure_1">
  <g id="patch_1">
   <path d="M 0 288 
L 576 288 
L 576 0 
L 0 0 
z
" style="fill: #ffffff"/>
  </g>
  <g id="axes_1">
   <g id="patch_2">
    <path d="M 257.022955 152.76 
C 257.022955 138.34048 254.182623 124.061171 248.664512 110.739272 
C 243.146401 97.417372 235.057822 85.311959 224.861682 75.115818 
C 214.665541 64.919678 202.560128 56.831099 189.238228 51.312988 
C 175.916329 45.794877 161.63702 42.954545 147.2175 42.954545 
C 132.79798 42.954545 118.518671 45.794877 105.196772 51.312988 
C 91.874872 56.831099 79.769459 64.919678 69.573318 75.115818 
C 59.377178 85.311959 51.288599 97.417372 45.770488 110.739272 
C 40.252377 124.061171 37.412045 138.34048 37.412045 152.76 
C 37.412045 167.17952 40.252377 181.458829 45.770488 194.780728 
C 51.288599 208.102628 59.377178 220.208041 69.573318 230.404182 
C 79.769459 240.600322 91.874872 248.688901 105.196772 254.207012 
C 118.518671 259.725123 132.79798 262.565455 147.2175 262.565455 
C 161.63702 262.565455 175.916329 259.725123 189.238228 254.207012 
C 202.560128 248.688901 214.665541 240.600322 224.861682 230.404182 
C 235.057822 220.208041 243.146401 208.102628 248.664512 194.780728 
C 254.182623 181.458829 257.022955 167.17952 257.022955 152.76 
M 147.2175 152.76 
C 147.2175 152.76 147.2175 152.76 147.2175 152.76 
C 147.2175 152.76 147.2175 152.76 147.2175 152.76 
C 147.2175 152.76 147.2175 152.76 147.2175 152.76 
C 147.2175 152.76 147.2175 152.76 147.2175 152.76 
C 147.2175 152.76 147.2175 152.76 147.2175 152.76 
C 147.2175 152.76 147.2175 152.76 147.2175 152.76 
C 147.2175 152.76 147.2175 152.76 147.2175 152.76 
C 147.2175 152.76 147.2175 152.76 147.2175 152.76 
C 147.2175 152.76 147.2175 152.76 147.2175 152.76 
C 147.2175 152.76 147.2175 152.76 147.2175 152.76 
C 147.2175 152.76 147.2175 152.76 147.2175 152.76 
C 147.2175 152.76 147.2175 152.76 147.2175 152.76 
C 147.2175 152.76 147.2175 152.76 147.2175 152.76 
C 147.2175 152.76 147.2175 152.76 147.2175 152.76 
C 147.2175 152.76 147.2175 152.76 147.2175 152.76 
C 147.2175 152.76 147.2175 152.76 147.2175 152.76 
z
" style="fill: #ffffff"/>
   </g>
   <g id="matplotlib.axis_1">
    <g id="xtick_1">
     <g id="line2d_1">
      <path d="M 147.2175 152.76 
L 147.2175 42.954545 
" clip-path="url(#pe062d0ec40)" style="fill: none; stroke: #cccccc; stroke-linecap: round"/>
     </g>
     <g id="text_1">
      <!-- 0 -->
      <g style="fill: #262626" transform="translate(143.880938 29.55767) scale(0.12 -0.12)">
       <defs>
        <path id="LiberationSans-30" d="M 3309 2203 
Q 3309 1100 2920 518 
Q 2531 -63 1772 -63 
Q 1013 -63 631 515 
Q 250 1094 250 2203 
Q 250 3338 620 3903 
Q 991 4469 1791 4469 
Q 2569 4469 2939 3897 
Q 3309 3325 3309 2203 
z
M 2738 2203 
Q 2738 3156 2517 3584 
Q 2297 4013 1791 4013 
Q 1272 4013 1045 3591 
Q 819 3169 819 2203 
Q 819 1266 1048 831 
Q 1278 397 1778 397 
Q 2275 397 2506 840 
Q 2738 1284 2738 2203 
z
" transform="scale(0.015625)"/>
       </defs>
       <use xlink:href="#LiberationSans-30"/>
      </g>
     </g>
    </g>
    <g id="xtick_2">
     <g id="line2d_2">
      <path d="M 147.2175 152.76 
L 211.759527 63.925521 
" clip-path="url(#pe062d0ec40)" style="fill: none; stroke: #cccccc; stroke-linecap: round"/>
     </g>
     <g id="text_2">
      <!-- 1 -->
      <g style="fill: #262626" transform="translate(218.121421 53.679866) scale(0.12 -0.12)">
       <defs>
        <path id="LiberationSans-31" d="M 488 0 
L 488 478 
L 1609 478 
L 1609 3866 
L 616 3156 
L 616 3688 
L 1656 4403 
L 2175 4403 
L 2175 478 
L 3247 478 
L 3247 0 
L 488 0 
z
" transform="scale(0.015625)"/>
       </defs>
       <use xlink:href="#LiberationSans-31"/>
      </g>
     </g>
    </g>
    <g id="xtick_3">
     <g id="line2d_3">
      <path d="M 147.2175 152.76 
L 251.648693 118.828248 
" clip-path="url(#pe062d0ec40)" style="fill: none; stroke: #cccccc; stroke-linecap: round"/>
     </g>
     <g id="text_3">
      <!-- 2 -->
      <g style="fill: #262626" transform="translate(264.004563 116.832593) scale(0.12 -0.12)">
       <defs>
        <path id="LiberationSans-32" d="M 322 0 
L 322 397 
Q 481 763 711 1042 
Q 941 1322 1194 1548 
Q 1447 1775 1695 1969 
Q 1944 2163 2144 2356 
Q 2344 2550 2467 2762 
Q 2591 2975 2591 3244 
Q 2591 3606 2378 3806 
Q 2166 4006 1788 4006 
Q 1428 4006 1195 3811 
Q 963 3616 922 3263 
L 347 3316 
Q 409 3844 795 4156 
Q 1181 4469 1788 4469 
Q 2453 4469 2811 4155 
Q 3169 3841 3169 3263 
Q 3169 3006 3051 2753 
Q 2934 2500 2703 2247 
Q 2472 1994 1819 1463 
Q 1459 1169 1246 933 
Q 1034 697 941 478 
L 3238 478 
L 3238 0 
L 322 0 
z
" transform="scale(0.015625)"/>
       </defs>
       <use xlink:href="#LiberationSans-32"/>
      </g>
     </g>
    </g>
    <g id="xtick_4">
     <g id="line2d_4">
      <path d="M 147.2175 152.76 
L 251.648693 186.691752 
" clip-path="url(#pe062d0ec40)" style="fill: none; stroke: #cccccc; stroke-linecap: round"/>
     </g>
     <g id="text_4">
      <!-- 3 -->
      <g style="fill: #262626" transform="translate(264.004563 194.893657) scale(0.12 -0.12)">
       <defs>
        <path id="LiberationSans-33" d="M 3278 1216 
Q 3278 606 2890 271 
Q 2503 -63 1784 -63 
Q 1116 -63 717 239 
Q 319 541 244 1131 
L 825 1184 
Q 938 403 1784 403 
Q 2209 403 2451 612 
Q 2694 822 2694 1234 
Q 2694 1594 2417 1795 
Q 2141 1997 1619 1997 
L 1300 1997 
L 1300 2484 
L 1606 2484 
Q 2069 2484 2323 2686 
Q 2578 2888 2578 3244 
Q 2578 3597 2370 3801 
Q 2163 4006 1753 4006 
Q 1381 4006 1151 3815 
Q 922 3625 884 3278 
L 319 3322 
Q 381 3863 767 4166 
Q 1153 4469 1759 4469 
Q 2422 4469 2789 4161 
Q 3156 3853 3156 3303 
Q 3156 2881 2920 2617 
Q 2684 2353 2234 2259 
L 2234 2247 
Q 2728 2194 3003 1916 
Q 3278 1638 3278 1216 
z
" transform="scale(0.015625)"/>
       </defs>
       <use xlink:href="#LiberationSans-33"/>
      </g>
     </g>
    </g>
    <g id="xtick_5">
     <g id="line2d_5">
      <path d="M 147.2175 152.76 
L 211.759527 241.594479 
" clip-path="url(#pe062d0ec40)" style="fill: none; stroke: #cccccc; stroke-linecap: round"/>
     </g>
     <g id="text_5">
      <!-- 4 -->
      <g style="fill: #262626" transform="translate(218.121421 258.046384) scale(0.12 -0.12)">
       <defs>
        <path id="LiberationSans-34" d="M 2753 997 
L 2753 0 
L 2222 0 
L 2222 997 
L 147 997 
L 147 1434 
L 2163 4403 
L 2753 4403 
L 2753 1441 
L 3372 1441 
L 3372 997 
L 2753 997 
z
M 2222 3769 
Q 2216 3750 2134 3603 
Q 2053 3456 2013 3397 
L 884 1734 
L 716 1503 
L 666 1441 
L 2222 1441 
L 2222 3769 
z
" transform="scale(0.015625)"/>
       </defs>
       <use xlink:href="#LiberationSans-34"/>
      </g>
     </g>
    </g>
    <g id="xtick_6">
     <g id="line2d_6">
      <path d="M 147.2175 152.76 
L 147.2175 262.565455 
" clip-path="url(#pe062d0ec40)" style="fill: none; stroke: #cccccc; stroke-linecap: round"/>
     </g>
     <g id="text_6">
      <!-- 5 -->
      <g style="fill: #262626" transform="translate(143.880938 282.16858) scale(0.12 -0.12)">
       <defs>
        <path id="LiberationSans-35" d="M 3291 1434 
Q 3291 738 2877 337 
Q 2463 -63 1728 -63 
Q 1113 -63 734 206 
Q 356 475 256 984 
L 825 1050 
Q 1003 397 1741 397 
Q 2194 397 2450 670 
Q 2706 944 2706 1422 
Q 2706 1838 2448 2094 
Q 2191 2350 1753 2350 
Q 1525 2350 1328 2278 
Q 1131 2206 934 2034 
L 384 2034 
L 531 4403 
L 3034 4403 
L 3034 3925 
L 1044 3925 
L 959 2528 
Q 1325 2809 1869 2809 
Q 2519 2809 2905 2428 
Q 3291 2047 3291 1434 
z
" transform="scale(0.015625)"/>
       </defs>
       <use xlink:href="#LiberationSans-35"/>
      </g>
     </g>
    </g>
    <g id="xtick_7">
     <g id="line2d_7">
      <path d="M 147.2175 152.76 
L 82.675473 241.594479 
" clip-path="url(#pe062d0ec40)" style="fill: none; stroke: #cccccc; stroke-linecap: round"/>
     </g>
     <g id="text_7">
      <!-- 6 -->
      <g style="fill: #262626" transform="translate(69.640454 258.046384) scale(0.12 -0.12)">
       <defs>
        <path id="LiberationSans-36" d="M 3278 1441 
Q 3278 744 2900 340 
Q 2522 -63 1856 -63 
Q 1113 -63 719 490 
Q 325 1044 325 2100 
Q 325 3244 734 3856 
Q 1144 4469 1900 4469 
Q 2897 4469 3156 3572 
L 2619 3475 
Q 2453 4013 1894 4013 
Q 1413 4013 1148 3564 
Q 884 3116 884 2266 
Q 1038 2550 1316 2698 
Q 1594 2847 1953 2847 
Q 2563 2847 2920 2465 
Q 3278 2084 3278 1441 
z
M 2706 1416 
Q 2706 1894 2472 2153 
Q 2238 2413 1819 2413 
Q 1425 2413 1183 2183 
Q 941 1953 941 1550 
Q 941 1041 1192 716 
Q 1444 391 1838 391 
Q 2244 391 2475 664 
Q 2706 938 2706 1416 
z
" transform="scale(0.015625)"/>
       </defs>
       <use xlink:href="#LiberationSans-36"/>
      </g>
     </g>
    </g>
    <g id="xtick_8">
     <g id="line2d_8">
      <path d="M 147.2175 152.76 
L 42.786307 186.691752 
" clip-path="url(#pe062d0ec40)" style="fill: none; stroke: #cccccc; stroke-linecap: round"/>
     </g>
     <g id="text_8">
      <!-- 7 -->
      <g style="fill: #262626" transform="translate(23.757312 194.893657) scale(0.12 -0.12)">
       <defs>
        <path id="LiberationSans-37" d="M 3238 3947 
Q 2563 2916 2284 2331 
Q 2006 1747 1867 1178 
Q 1728 609 1728 0 
L 1141 0 
Q 1141 844 1498 1776 
Q 1856 2709 2694 3925 
L 328 3925 
L 328 4403 
L 3238 4403 
L 3238 3947 
z
" transform="scale(0.015625)"/>
       </defs>
       <use xlink:href="#LiberationSans-37"/>
      </g>
     </g>
    </g>
    <g id="xtick_9">
     <g id="line2d_9">
      <path d="M 147.2175 152.76 
L 42.786307 118.828248 
" clip-path="url(#pe062d0ec40)" style="fill: none; stroke: #cccccc; stroke-linecap: round"/>
     </g>
     <g id="text_9">
      <!-- 8 -->
      <g style="fill: #262626" transform="translate(23.757312 116.832593) scale(0.12 -0.12)">
       <defs>
        <path id="LiberationSans-38" d="M 3281 1228 
Q 3281 619 2893 278 
Q 2506 -63 1781 -63 
Q 1075 -63 676 271 
Q 278 606 278 1222 
Q 278 1653 525 1947 
Q 772 2241 1156 2303 
L 1156 2316 
Q 797 2400 589 2681 
Q 381 2963 381 3341 
Q 381 3844 757 4156 
Q 1134 4469 1769 4469 
Q 2419 4469 2795 4162 
Q 3172 3856 3172 3334 
Q 3172 2956 2962 2675 
Q 2753 2394 2391 2322 
L 2391 2309 
Q 2813 2241 3047 1952 
Q 3281 1663 3281 1228 
z
M 2588 3303 
Q 2588 4050 1769 4050 
Q 1372 4050 1164 3862 
Q 956 3675 956 3303 
Q 956 2925 1170 2726 
Q 1384 2528 1775 2528 
Q 2172 2528 2380 2711 
Q 2588 2894 2588 3303 
z
M 2697 1281 
Q 2697 1691 2453 1898 
Q 2209 2106 1769 2106 
Q 1341 2106 1100 1882 
Q 859 1659 859 1269 
Q 859 359 1788 359 
Q 2247 359 2472 579 
Q 2697 800 2697 1281 
z
" transform="scale(0.015625)"/>
       </defs>
       <use xlink:href="#LiberationSans-38"/>
      </g>
     </g>
    </g>
    <g id="xtick_10">
     <g id="line2d_10">
      <path d="M 147.2175 152.76 
L 82.675473 63.925521 
" clip-path="url(#pe062d0ec40)" style="fill: none; stroke: #cccccc; stroke-linecap: round"/>
     </g>
     <g id="text_10">
      <!-- 9 -->
      <g style="fill: #262626" transform="translate(69.640454 53.679866) scale(0.12 -0.12)">
       <defs>
        <path id="LiberationSans-39" d="M 3256 2291 
Q 3256 1156 2842 546 
Q 2428 -63 1663 -63 
Q 1147 -63 836 154 
Q 525 372 391 856 
L 928 941 
Q 1097 391 1672 391 
Q 2156 391 2422 841 
Q 2688 1291 2700 2125 
Q 2575 1844 2272 1673 
Q 1969 1503 1606 1503 
Q 1013 1503 656 1909 
Q 300 2316 300 2988 
Q 300 3678 687 4073 
Q 1075 4469 1766 4469 
Q 2500 4469 2878 3925 
Q 3256 3381 3256 2291 
z
M 2644 2834 
Q 2644 3366 2400 3689 
Q 2156 4013 1747 4013 
Q 1341 4013 1106 3736 
Q 872 3459 872 2988 
Q 872 2506 1106 2226 
Q 1341 1947 1741 1947 
Q 1984 1947 2193 2058 
Q 2403 2169 2523 2372 
Q 2644 2575 2644 2834 
z
" transform="scale(0.015625)"/>
       </defs>
       <use xlink:href="#LiberationSans-39"/>
      </g>
     </g>
    </g>
   </g>
   <g id="matplotlib.axis_2">
    <g id="ytick_1">
     <g id="line2d_11">
      <path d="M 147.2175 130.798909 
C 150.101404 130.798909 152.957266 131.366975 155.621646 132.470598 
C 158.286026 133.57422 160.707108 135.191936 162.746336 137.231164 
C 164.785564 139.270392 166.40328 141.691474 167.506902 144.355854 
C 168.610525 147.020234 169.178591 149.876096 169.178591 152.76 
C 169.178591 155.643904 168.610525 158.499766 167.506902 161.164146 
C 166.40328 163.828526 164.785564 166.249608 162.746336 168.288836 
C 160.707108 170.328064 158.286026 171.94578 155.621646 173.049402 
C 152.957266 174.153025 150.101404 174.721091 147.2175 174.721091 
C 144.333596 174.721091 141.477734 174.153025 138.813354 173.049402 
C 136.148974 171.94578 133.727892 170.328064 131.688664 168.288836 
C 129.649436 166.249608 128.03172 163.828526 126.928098 161.164146 
C 125.824475 158.499766 125.256409 155.643904 125.256409 152.76 
C 125.256409 149.876096 125.824475 147.020234 126.928098 144.355854 
C 128.03172 141.691474 129.649436 139.270392 131.688664 137.231164 
C 133.727892 135.191936 136.148974 133.57422 138.813354 132.470598 
C 141.477734 131.366975 144.333596 130.798909 147.2175 130.798909 
" clip-path="url(#pe062d0ec40)" style="fill: none; stroke: #cccccc; stroke-opacity: 0.5; stroke-linecap: round"/>
     </g>
    </g>
    <g id="ytick_2">
     <g id="line2d_12">
      <path d="M 147.2175 108.837818 
C 152.985308 108.837818 158.697031 109.973951 164.025791 112.181195 
C 169.354551 114.38844 174.196716 117.623871 178.275173 121.702327 
C 182.353629 125.780784 185.58906 130.622949 187.796305 135.951709 
C 190.003549 141.280469 191.139682 146.992192 191.139682 152.76 
C 191.139682 158.527808 190.003549 164.239531 187.796305 169.568291 
C 185.58906 174.897051 182.353629 179.739216 178.275173 183.817673 
C 174.196716 187.896129 169.354551 191.13156 164.025791 193.338805 
C 158.697031 195.546049 152.985308 196.682182 147.2175 196.682182 
C 141.449692 196.682182 135.737969 195.546049 130.409209 193.338805 
C 125.080449 191.13156 120.238284 187.896129 116.159827 183.817673 
C 112.081371 179.739216 108.84594 174.897051 106.638695 169.568291 
C 104.431451 164.239531 103.295318 158.527808 103.295318 152.76 
C 103.295318 146.992192 104.431451 141.280469 106.638695 135.951709 
C 108.84594 130.622949 112.081371 125.780784 116.159827 121.702327 
C 120.238284 117.623871 125.080449 114.38844 130.409209 112.181195 
C 135.737969 109.973951 141.449692 108.837818 147.2175 108.837818 
" clip-path="url(#pe062d0ec40)" style="fill: none; stroke: #cccccc; stroke-opacity: 0.5; stroke-linecap: round"/>
     </g>
    </g>
    <g id="ytick_3">
     <g id="line2d_13">
      <path d="M 147.2175 86.876727 
C 155.869212 86.876727 164.436797 88.580926 172.429937 91.891793 
C 180.423077 95.20266 187.686325 100.055807 193.804009 106.173491 
C 199.921693 112.291175 204.77484 119.554423 208.085707 127.547563 
C 211.396574 135.540703 213.100773 144.108288 213.100773 152.76 
C 213.100773 161.411712 211.396574 169.979297 208.085707 177.972437 
C 204.77484 185.965577 199.921693 193.228825 193.804009 199.346509 
C 187.686325 205.464193 180.423077 210.31734 172.429937 213.628207 
C 164.436797 216.939074 155.869212 218.643273 147.2175 218.643273 
C 138.565788 218.643273 129.998203 216.939074 122.005063 213.628207 
C 114.011923 210.31734 106.748675 205.464193 100.630991 199.346509 
C 94.513307 193.228825 89.66016 185.965577 86.349293 177.972437 
C 83.038426 169.979297 81.334227 161.411712 81.334227 152.76 
C 81.334227 144.108288 83.038426 135.540703 86.349293 127.547563 
C 89.66016 119.554423 94.513307 112.291175 100.630991 106.173491 
C 106.748675 100.055807 114.011923 95.20266 122.005063 91.891793 
C 129.998203 88.580926 138.565788 86.876727 147.2175 86.876727 
" clip-path="url(#pe062d0ec40)" style="fill: none; stroke: #cccccc; stroke-opacity: 0.5; stroke-linecap: round"/>
     </g>
    </g>
    <g id="ytick_4">
     <g id="line2d_14">
      <path d="M 147.2175 64.915636 
C 158.753116 64.915636 170.176563 67.187901 180.834083 71.60239 
C 191.491602 76.01688 201.175933 82.487742 209.332845 90.644655 
C 217.489758 98.801567 223.96062 108.485898 228.37511 119.143417 
C 232.789599 129.800937 235.061864 141.224384 235.061864 152.76 
C 235.061864 164.295616 232.789599 175.719063 228.37511 186.376583 
C 223.96062 197.034102 217.489758 206.718433 209.332845 214.875345 
C 201.175933 223.032258 191.491602 229.50312 180.834083 233.91761 
C 170.176563 238.332099 158.753116 240.604364 147.2175 240.604364 
C 135.681884 240.604364 124.258437 238.332099 113.600917 233.91761 
C 102.943398 229.50312 93.259067 223.032258 85.102155 214.875345 
C 76.945242 206.718433 70.47438 197.034102 66.05989 186.376583 
C 61.645401 175.719063 59.373136 164.295616 59.373136 152.76 
C 59.373136 141.224384 61.645401 129.800937 66.05989 119.143417 
C 70.47438 108.485898 76.945242 98.801567 85.102155 90.644655 
C 93.259067 82.487742 102.943398 76.01688 113.600917 71.60239 
C 124.258437 67.187901 135.681884 64.915636 147.2175 64.915636 
" clip-path="url(#pe062d0ec40)" style="fill: none; stroke: #cccccc; stroke-opacity: 0.5; stroke-linecap: round"/>
     </g>
    </g>
    <g id="ytick_5">
     <g id="line2d_15">
      <path d="M 147.2175 42.954545 
C 161.63702 42.954545 175.916329 45.794877 189.238228 51.312988 
C 202.560128 56.831099 214.665541 64.919678 224.861682 75.115818 
C 235.057822 85.311959 243.146401 97.417372 248.664512 110.739272 
C 254.182623 124.061171 257.022955 138.34048 257.022955 152.76 
C 257.022955 167.17952 254.182623 181.458829 248.664512 194.780728 
C 243.146401 208.102628 235.057822 220.208041 224.861682 230.404182 
C 214.665541 240.600322 202.560128 248.688901 189.238228 254.207012 
C 175.916329 259.725123 161.63702 262.565455 147.2175 262.565455 
C 132.79798 262.565455 118.518671 259.725123 105.196772 254.207012 
C 91.874872 248.688901 79.769459 240.600322 69.573318 230.404182 
C 59.377178 220.208041 51.288599 208.102628 45.770488 194.780728 
C 40.252377 181.458829 37.412045 167.17952 37.412045 152.76 
C 37.412045 138.34048 40.252377 124.061171 45.770488 110.739272 
C 51.288599 97.417372 59.377178 85.311959 69.573318 75.115818 
C 79.769459 64.919678 91.874872 56.831099 105.196772 51.312988 
C 118.518671 45.794877 132.79798 42.954545 147.2175 42.954545 
" clip-path="url(#pe062d0ec40)" style="fill: none; stroke: #cccccc; stroke-opacity: 0.5; stroke-linecap: round"/>
     </g>
    </g>
   </g>
   <g id="patch_3">
    <path d="M 147.2175 152.76 
C 147.2175 152.76 147.2175 152.76 147.2175 152.76 
C 147.2175 152.76 147.2175 152.76 147.2175 152.76 
L 167.615059 72.876685 
C 160.94946 71.174678 154.096965 70.313627 147.2175 70.313627 
C 140.338035 70.313627 133.48554 71.174678 126.819941 72.876685 
z
" clip-path="url(#pe062d0ec40)" style="fill: #a1c9f4; opacity: 0.5; stroke: #ffffff; stroke-linejoin: miter"/>
   </g>
   <g id="patch_4">
    <path d="M 147.2175 152.76 
C 147.2175 152.76 147.2175 152.76 147.2175 152.76 
C 147.2175 152.76 147.2175 152.76 147.2175 152.76 
L 147.297894 152.693313 
C 147.292329 152.686605 147.285947 152.680619 147.278896 152.675496 
C 147.271844 152.670373 147.26418 152.666153 147.25608 152.662934 
z
" clip-path="url(#pe062d0ec40)" style="fill: #a1c9f4; opacity: 0.5; stroke: #ffffff; stroke-linejoin: miter"/>
   </g>
   <g id="patch_5">
    <path d="M 147.2175 152.76 
C 147.2175 152.76 147.2175 152.76 147.2175 152.76 
C 147.2175 152.76 147.2175 152.76 147.2175 152.76 
L 219.757952 148.099461 
C 219.369069 142.046563 218.224114 136.066068 216.34981 130.297551 
C 214.475505 124.529034 211.886546 119.017724 208.643355 113.892247 
z
" clip-path="url(#pe062d0ec40)" style="fill: #a1c9f4; opacity: 0.5; stroke: #ffffff; stroke-linejoin: miter"/>
   </g>
   <g id="patch_6">
    <path d="M 147.2175 152.76 
C 147.2175 152.76 147.2175 152.76 147.2175 152.76 
C 147.2175 152.76 147.2175 152.76 147.2175 152.76 
L 147.39852 152.874542 
C 147.408077 152.859437 147.415707 152.843196 147.42123 152.826196 
C 147.426754 152.809196 147.430128 152.791572 147.431274 152.773734 
z
" clip-path="url(#pe062d0ec40)" style="fill: #a1c9f4; opacity: 0.5; stroke: #ffffff; stroke-linejoin: miter"/>
   </g>
   <g id="patch_7">
    <path d="M 147.2175 152.76 
C 147.2175 152.76 147.2175 152.76 147.2175 152.76 
C 147.2175 152.76 147.2175 152.76 147.2175 152.76 
L 167.791425 204.522949 
C 172.110613 202.806226 176.197999 200.555632 179.95819 197.823694 
C 183.718381 195.091755 187.121894 191.899892 190.089298 188.322596 
z
" clip-path="url(#pe062d0ec40)" style="fill: #a1c9f4; opacity: 0.5; stroke: #ffffff; stroke-linejoin: miter"/>
   </g>
   <g id="patch_8">
    <path d="M 147.2175 152.76 
C 147.2175 152.76 147.2175 152.76 147.2175 152.76 
C 147.2175 152.76 147.2175 152.76 147.2175 152.76 
L 147.203194 152.816027 
C 147.207869 152.817221 147.212675 152.817824 147.2175 152.817824 
C 147.222325 152.817824 147.227131 152.817221 147.231806 152.816027 
z
" clip-path="url(#pe062d0ec40)" style="fill: #a1c9f4; opacity: 0.5; stroke: #ffffff; stroke-linejoin: miter"/>
   </g>
   <g id="patch_9">
    <path d="M 147.2175 152.76 
C 147.2175 152.76 147.2175 152.76 147.2175 152.76 
C 147.2175 152.76 147.2175 152.76 147.2175 152.76 
L 127.78097 168.882802 
C 129.126283 170.504619 130.669314 171.951695 132.374049 173.190257 
C 134.078784 174.42882 135.931858 175.449158 137.890023 176.227459 
z
" clip-path="url(#pe062d0ec40)" style="fill: #a1c9f4; opacity: 0.5; stroke: #ffffff; stroke-linejoin: miter"/>
   </g>
   <g id="patch_10">
    <path d="M 147.2175 152.76 
C 147.2175 152.76 147.2175 152.76 147.2175 152.76 
C 147.2175 152.76 147.2175 152.76 147.2175 152.76 
L 146.988574 152.774708 
C 146.989801 152.79381 146.993415 152.812683 146.99933 152.830888 
C 147.005245 152.849092 147.013415 152.866485 147.02365 152.88266 
z
" clip-path="url(#pe062d0ec40)" style="fill: #a1c9f4; opacity: 0.5; stroke: #ffffff; stroke-linejoin: miter"/>
   </g>
   <g id="patch_11">
    <path d="M 147.2175 152.76 
C 147.2175 152.76 147.2175 152.76 147.2175 152.76 
C 147.2175 152.76 147.2175 152.76 147.2175 152.76 
L 126.481956 139.639401 
C 125.387151 141.36961 124.513195 143.230064 123.880486 145.177344 
C 123.247776 147.124624 122.861273 149.143462 122.729998 151.186741 
z
" clip-path="url(#pe062d0ec40)" style="fill: #a1c9f4; opacity: 0.5; stroke: #ffffff; stroke-linejoin: miter"/>
   </g>
   <g id="patch_12">
    <path d="M 147.2175 152.76 
C 147.2175 152.76 147.2175 152.76 147.2175 152.76 
C 147.2175 152.76 147.2175 152.76 147.2175 152.76 
L 147.178455 152.661765 
C 147.170258 152.665023 147.162501 152.669294 147.155365 152.674479 
C 147.148229 152.679663 147.14177 152.685721 147.136139 152.69251 
z
" clip-path="url(#pe062d0ec40)" style="fill: #a1c9f4; opacity: 0.5; stroke: #ffffff; stroke-linejoin: miter"/>
   </g>
   <g id="patch_13">
    <path d="M 147.2175 152.76 
C 147.2175 152.76 147.2175 152.76 147.2175 152.76 
C 147.2175 152.76 147.2175 152.76 147.2175 152.76 
L 147.221576 152.744038 
C 147.220244 152.743698 147.218875 152.743526 147.2175 152.743526 
C 147.216125 152.743526 147.214756 152.743698 147.213424 152.744038 
z
" clip-path="url(#pe062d0ec40)" style="fill: #ffb482; opacity: 0.5; stroke: #ffffff; stroke-linejoin: miter"/>
   </g>
   <g id="patch_14">
    <path d="M 147.2175 152.76 
C 147.2175 152.76 147.2175 152.76 147.2175 152.76 
C 147.2175 152.76 147.2175 152.76 147.2175 152.76 
L 159.34766 142.697908 
C 158.508062 141.685747 157.545071 140.78264 156.481161 140.009664 
C 155.417252 139.236689 154.260765 138.599905 153.038693 138.114175 
z
" clip-path="url(#pe062d0ec40)" style="fill: #ffb482; opacity: 0.5; stroke: #ffffff; stroke-linejoin: miter"/>
   </g>
   <g id="patch_15">
    <path d="M 147.2175 152.76 
C 147.2175 152.76 147.2175 152.76 147.2175 152.76 
C 147.2175 152.76 147.2175 152.76 147.2175 152.76 
L 147.266486 152.756853 
C 147.266223 152.752765 147.26545 152.748727 147.264184 152.744831 
C 147.262919 152.740936 147.26117 152.737214 147.25898 152.733753 
z
" clip-path="url(#pe062d0ec40)" style="fill: #ffb482; opacity: 0.5; stroke: #ffffff; stroke-linejoin: miter"/>
   </g>
   <g id="patch_16">
    <path d="M 147.2175 152.76 
C 147.2175 152.76 147.2175 152.76 147.2175 152.76 
C 147.2175 152.76 147.2175 152.76 147.2175 152.76 
L 160.822958 161.368974 
C 161.541306 160.233712 162.114745 159.01299 162.529892 157.735298 
C 162.945039 156.457606 163.19864 155.132962 163.284775 153.792281 
z
" clip-path="url(#pe062d0ec40)" style="fill: #ffb482; opacity: 0.5; stroke: #ffffff; stroke-linejoin: miter"/>
   </g>
   <g id="patch_17">
    <path d="M 147.2175 152.76 
C 147.2175 152.76 147.2175 152.76 147.2175 152.76 
C 147.2175 152.76 147.2175 152.76 147.2175 152.76 
L 147.26549 152.88074 
C 147.275565 152.876736 147.285099 152.871486 147.293869 152.865113 
C 147.30264 152.858741 147.310579 152.851296 147.317501 152.842952 
z
" clip-path="url(#pe062d0ec40)" style="fill: #ffb482; opacity: 0.5; stroke: #ffffff; stroke-linejoin: miter"/>
   </g>
   <g id="patch_18">
    <path d="M 147.2175 152.76 
C 147.2175 152.76 147.2175 152.76 147.2175 152.76 
C 147.2175 152.76 147.2175 152.76 147.2175 152.76 
L 138.588638 186.55336 
C 141.408414 187.273367 144.307252 187.637621 147.2175 187.637621 
C 150.127748 187.637621 153.026586 187.273367 155.846362 186.55336 
z
" clip-path="url(#pe062d0ec40)" style="fill: #ffb482; opacity: 0.5; stroke: #ffffff; stroke-linejoin: miter"/>
   </g>
   <g id="patch_19">
    <path d="M 147.2175 152.76 
C 147.2175 152.76 147.2175 152.76 147.2175 152.76 
C 147.2175 152.76 147.2175 152.76 147.2175 152.76 
L 147.201146 152.773566 
C 147.202278 152.774931 147.203576 152.776148 147.20501 152.77719 
C 147.206445 152.778232 147.208004 152.779091 147.209652 152.779746 
z
" clip-path="url(#pe062d0ec40)" style="fill: #ffb482; opacity: 0.5; stroke: #ffffff; stroke-linejoin: miter"/>
   </g>
   <g id="patch_20">
    <path d="M 147.2175 152.76 
C 147.2175 152.76 147.2175 152.76 147.2175 152.76 
C 147.2175 152.76 147.2175 152.76 147.2175 152.76 
L 99.85328 155.80303 
C 100.107195 159.755181 100.854777 163.660057 102.078576 167.426525 
C 103.302376 171.192994 104.992799 174.791522 107.110392 178.138127 
z
" clip-path="url(#pe062d0ec40)" style="fill: #ffb482; opacity: 0.5; stroke: #ffffff; stroke-linejoin: miter"/>
   </g>
   <g id="patch_21">
    <path d="M 147.2175 152.76 
C 147.2175 152.76 147.2175 152.76 147.2175 152.76 
C 147.2175 152.76 147.2175 152.76 147.2175 152.76 
L 147.118933 152.697631 
C 147.113728 152.705855 147.109574 152.714699 147.106566 152.723955 
C 147.103559 152.733212 147.101721 152.742809 147.101097 152.752521 
z
" clip-path="url(#pe062d0ec40)" style="fill: #ffb482; opacity: 0.5; stroke: #ffffff; stroke-linejoin: miter"/>
   </g>
   <g id="patch_22">
    <path d="M 147.2175 152.76 
C 147.2175 152.76 147.2175 152.76 147.2175 152.76 
C 147.2175 152.76 147.2175 152.76 147.2175 152.76 
L 137.148937 127.428009 
C 135.035193 128.268147 133.034889 129.369552 131.19471 130.706521 
C 129.35453 132.04349 127.688903 133.605539 126.236702 135.356212 
z
" clip-path="url(#pe062d0ec40)" style="fill: #ffb482; opacity: 0.5; stroke: #ffffff; stroke-linejoin: miter"/>
   </g>
   <g id="patch_23">
    <path d="M 147.2175 152.76 
C 147.2175 152.76 147.2175 152.76 147.2175 152.76 
C 147.2175 152.76 147.2175 152.76 147.2175 152.76 
L 147.302801 152.425934 
C 147.274926 152.418816 147.246269 152.415215 147.2175 152.415215 
C 147.188731 152.415215 147.160074 152.418816 147.132199 152.425934 
z
" clip-path="url(#pe062d0ec40)" style="fill: #8de5a1; opacity: 0.5; stroke: #ffffff; stroke-linejoin: miter"/>
   </g>
   <g id="patch_24">
    <path d="M 147.2175 152.76 
C 147.2175 152.76 147.2175 152.76 147.2175 152.76 
C 147.2175 152.76 147.2175 152.76 147.2175 152.76 
L 147.483434 152.539405 
C 147.465027 152.517215 147.443915 152.497416 147.420591 152.48047 
C 147.397266 152.463523 147.371912 152.449563 147.34512 152.438914 
z
" clip-path="url(#pe062d0ec40)" style="fill: #8de5a1; opacity: 0.5; stroke: #ffffff; stroke-linejoin: miter"/>
   </g>
   <g id="patch_25">
    <path d="M 147.2175 152.76 
C 147.2175 152.76 147.2175 152.76 147.2175 152.76 
C 147.2175 152.76 147.2175 152.76 147.2175 152.76 
L 147.521568 152.740464 
C 147.519937 152.715093 147.515138 152.690024 147.507282 152.665844 
C 147.499425 152.641664 147.488573 152.618563 147.474979 152.597078 
z
" clip-path="url(#pe062d0ec40)" style="fill: #8de5a1; opacity: 0.5; stroke: #ffffff; stroke-linejoin: miter"/>
   </g>
   <g id="patch_26">
    <path d="M 147.2175 152.76 
C 147.2175 152.76 147.2175 152.76 147.2175 152.76 
C 147.2175 152.76 147.2175 152.76 147.2175 152.76 
L 147.516221 152.949018 
C 147.531993 152.924092 147.544583 152.89729 147.553698 152.869237 
C 147.562813 152.841184 147.568381 152.812101 147.570272 152.782665 
z
" clip-path="url(#pe062d0ec40)" style="fill: #8de5a1; opacity: 0.5; stroke: #ffffff; stroke-linejoin: miter"/>
   </g>
   <g id="patch_27">
    <path d="M 147.2175 152.76 
C 147.2175 152.76 147.2175 152.76 147.2175 152.76 
C 147.2175 152.76 147.2175 152.76 147.2175 152.76 
L 147.305011 152.980173 
C 147.323383 152.972871 147.340768 152.963298 147.356762 152.951678 
C 147.372756 152.940058 147.387233 152.926481 147.399855 152.911265 
z
" clip-path="url(#pe062d0ec40)" style="fill: #8de5a1; opacity: 0.5; stroke: #ffffff; stroke-linejoin: miter"/>
   </g>
   <g id="patch_28">
    <path d="M 147.2175 152.76 
C 147.2175 152.76 147.2175 152.76 147.2175 152.76 
C 147.2175 152.76 147.2175 152.76 147.2175 152.76 
L 147.028905 153.498598 
C 147.090535 153.514335 147.153893 153.522296 147.2175 153.522296 
C 147.281107 153.522296 147.344465 153.514335 147.406095 153.498598 
z
" clip-path="url(#pe062d0ec40)" style="fill: #8de5a1; opacity: 0.5; stroke: #ffffff; stroke-linejoin: miter"/>
   </g>
   <g id="patch_29">
    <path d="M 147.2175 152.76 
C 147.2175 152.76 147.2175 152.76 147.2175 152.76 
C 147.2175 152.76 147.2175 152.76 147.2175 152.76 
L 147.133132 152.829984 
C 147.138972 152.837023 147.14567 152.843305 147.15307 152.848681 
C 147.160469 152.854057 147.168513 152.858486 147.177013 152.861864 
z
" clip-path="url(#pe062d0ec40)" style="fill: #8de5a1; opacity: 0.5; stroke: #ffffff; stroke-linejoin: miter"/>
   </g>
   <g id="patch_30">
    <path d="M 147.2175 152.76 
C 147.2175 152.76 147.2175 152.76 147.2175 152.76 
C 147.2175 152.76 147.2175 152.76 147.2175 152.76 
L 146.182212 152.826515 
C 146.187762 152.912901 146.204102 152.998254 146.230852 153.080581 
C 146.257602 153.162909 146.294551 153.241566 146.340838 153.314716 
z
" clip-path="url(#pe062d0ec40)" style="fill: #8de5a1; opacity: 0.5; stroke: #ffffff; stroke-linejoin: miter"/>
   </g>
   <g id="patch_31">
    <path d="M 147.2175 152.76 
C 147.2175 152.76 147.2175 152.76 147.2175 152.76 
C 147.2175 152.76 147.2175 152.76 147.2175 152.76 
L 147.125445 152.701751 
C 147.120585 152.709433 147.116705 152.717692 147.113896 152.726337 
C 147.111087 152.734982 147.109371 152.743944 147.108788 152.753016 
z
" clip-path="url(#pe062d0ec40)" style="fill: #8de5a1; opacity: 0.5; stroke: #ffffff; stroke-linejoin: miter"/>
   </g>
   <g id="patch_32">
    <path d="M 147.2175 152.76 
C 147.2175 152.76 147.2175 152.76 147.2175 152.76 
C 147.2175 152.76 147.2175 152.76 147.2175 152.76 
L 146.997179 152.205683 
C 146.950926 152.224067 146.907155 152.248168 146.866888 152.277424 
C 146.826621 152.306679 146.790173 152.34086 146.758396 152.379169 
z
" clip-path="url(#pe062d0ec40)" style="fill: #8de5a1; opacity: 0.5; stroke: #ffffff; stroke-linejoin: miter"/>
   </g>
   <g id="patch_33">
    <path d="M 147.2175 42.954545 
C 132.79798 42.954545 118.518671 45.794877 105.196772 51.312988 
C 91.874872 56.831099 79.769459 64.919678 69.573318 75.115818 
C 59.377178 85.311959 51.288599 97.417372 45.770488 110.739272 
C 40.252377 124.061171 37.412045 138.34048 37.412045 152.76 
C 37.412045 167.17952 40.252377 181.458829 45.770488 194.780728 
C 51.288599 208.102628 59.377178 220.208041 69.573318 230.404182 
C 79.769459 240.600322 91.874872 248.688901 105.196772 254.207012 
C 118.518671 259.725123 132.79798 262.565455 147.2175 262.565455 
C 161.63702 262.565455 175.916329 259.725123 189.238228 254.207012 
C 202.560128 248.688901 214.665541 240.600322 224.861682 230.404182 
C 235.057822 220.208041 243.146401 208.102628 248.664512 194.780728 
C 254.182623 181.458829 257.022955 167.17952 257.022955 152.76 
C 257.022955 138.34048 254.182623 124.061171 248.664512 110.739272 
C 243.146401 97.417372 235.057822 85.311959 224.861682 75.115818 
C 214.665541 64.919678 202.560128 56.831099 189.238228 51.312988 
C 175.916329 45.794877 161.63702 42.954545 147.2175 42.954545 
" style="fill: none; stroke: #262626; stroke-width: 1.25; stroke-linejoin: miter; stroke-linecap: square"/>
   </g>
   <g id="text_11">
    <!-- Parity -->
    <g style="fill: #262626" transform="translate(126.76875 14.86142) scale(0.16 -0.16)">
     <defs>
      <path id="LiberationSans-50" d="M 3931 3078 
Q 3931 2453 3523 2084 
Q 3116 1716 2416 1716 
L 1122 1716 
L 1122 0 
L 525 0 
L 525 4403 
L 2378 4403 
Q 3119 4403 3525 4056 
Q 3931 3709 3931 3078 
z
M 3331 3072 
Q 3331 3925 2306 3925 
L 1122 3925 
L 1122 2188 
L 2331 2188 
Q 3331 2188 3331 3072 
z
" transform="scale(0.015625)"/>
      <path id="LiberationSans-61" d="M 1294 -63 
Q 784 -63 528 206 
Q 272 475 272 944 
Q 272 1469 617 1750 
Q 963 2031 1731 2050 
L 2491 2063 
L 2491 2247 
Q 2491 2659 2316 2837 
Q 2141 3016 1766 3016 
Q 1388 3016 1216 2887 
Q 1044 2759 1009 2478 
L 422 2531 
Q 566 3444 1778 3444 
Q 2416 3444 2737 3151 
Q 3059 2859 3059 2306 
L 3059 850 
Q 3059 600 3125 473 
Q 3191 347 3375 347 
Q 3456 347 3559 369 
L 3559 19 
Q 3347 -31 3125 -31 
Q 2813 -31 2670 133 
Q 2528 297 2509 647 
L 2491 647 
Q 2275 259 1989 98 
Q 1703 -63 1294 -63 
z
M 1422 359 
Q 1731 359 1972 500 
Q 2213 641 2352 886 
Q 2491 1131 2491 1391 
L 2491 1669 
L 1875 1656 
Q 1478 1650 1273 1575 
Q 1069 1500 959 1344 
Q 850 1188 850 934 
Q 850 659 998 509 
Q 1147 359 1422 359 
z
" transform="scale(0.015625)"/>
      <path id="LiberationSans-72" d="M 444 0 
L 444 2594 
Q 444 2950 425 3381 
L 956 3381 
Q 981 2806 981 2691 
L 994 2691 
Q 1128 3125 1303 3284 
Q 1478 3444 1797 3444 
Q 1909 3444 2025 3413 
L 2025 2897 
Q 1913 2928 1725 2928 
Q 1375 2928 1190 2626 
Q 1006 2325 1006 1763 
L 1006 0 
L 444 0 
z
" transform="scale(0.015625)"/>
      <path id="LiberationSans-69" d="M 428 4100 
L 428 4638 
L 991 4638 
L 991 4100 
L 428 4100 
z
M 428 0 
L 428 3381 
L 991 3381 
L 991 0 
L 428 0 
z
" transform="scale(0.015625)"/>
      <path id="LiberationSans-74" d="M 1731 25 
Q 1453 -50 1163 -50 
Q 488 -50 488 716 
L 488 2972 
L 97 2972 
L 97 3381 
L 509 3381 
L 675 4138 
L 1050 4138 
L 1050 3381 
L 1675 3381 
L 1675 2972 
L 1050 2972 
L 1050 838 
Q 1050 594 1129 495 
Q 1209 397 1406 397 
Q 1519 397 1731 441 
L 1731 25 
z
" transform="scale(0.015625)"/>
      <path id="LiberationSans-79" d="M 597 -1328 
Q 366 -1328 209 -1294 
L 209 -872 
Q 328 -891 472 -891 
Q 997 -891 1303 -119 
L 1356 16 
L 16 3381 
L 616 3381 
L 1328 1513 
Q 1344 1469 1366 1408 
Q 1388 1347 1506 1000 
Q 1625 653 1634 613 
L 1853 1228 
L 2594 3381 
L 3188 3381 
L 1888 0 
Q 1678 -541 1497 -805 
Q 1316 -1069 1095 -1198 
Q 875 -1328 597 -1328 
z
" transform="scale(0.015625)"/>
     </defs>
     <use xlink:href="#LiberationSans-50"/>
     <use xlink:href="#LiberationSans-61" x="66.699219"/>
     <use xlink:href="#LiberationSans-72" x="122.314453"/>
     <use xlink:href="#LiberationSans-69" x="155.615234"/>
     <use xlink:href="#LiberationSans-74" x="177.832031"/>
     <use xlink:href="#LiberationSans-79" x="205.615234"/>
    </g>
   </g>
  </g>
  <g id="axes_2">
   <g id="patch_34">
    <path d="M 538.542955 152.76 
C 538.542955 138.34048 535.702623 124.061171 530.184512 110.739272 
C 524.666401 97.417372 516.577822 85.311959 506.381682 75.115818 
C 496.185541 64.919678 484.080128 56.831099 470.758228 51.312988 
C 457.436329 45.794877 443.15702 42.954545 428.7375 42.954545 
C 414.31798 42.954545 400.038671 45.794877 386.716772 51.312988 
C 373.394872 56.831099 361.289459 64.919678 351.093318 75.115818 
C 340.897178 85.311959 332.808599 97.417372 327.290488 110.739272 
C 321.772377 124.061171 318.932045 138.34048 318.932045 152.76 
C 318.932045 167.17952 321.772377 181.458829 327.290488 194.780728 
C 332.808599 208.102628 340.897178 220.208041 351.093318 230.404182 
C 361.289459 240.600322 373.394872 248.688901 386.716772 254.207012 
C 400.038671 259.725123 414.31798 262.565455 428.7375 262.565455 
C 443.15702 262.565455 457.436329 259.725123 470.758228 254.207012 
C 484.080128 248.688901 496.185541 240.600322 506.381682 230.404182 
C 516.577822 220.208041 524.666401 208.102628 530.184512 194.780728 
C 535.702623 181.458829 538.542955 167.17952 538.542955 152.76 
M 428.7375 152.76 
C 428.7375 152.76 428.7375 152.76 428.7375 152.76 
C 428.7375 152.76 428.7375 152.76 428.7375 152.76 
C 428.7375 152.76 428.7375 152.76 428.7375 152.76 
C 428.7375 152.76 428.7375 152.76 428.7375 152.76 
C 428.7375 152.76 428.7375 152.76 428.7375 152.76 
C 428.7375 152.76 428.7375 152.76 428.7375 152.76 
C 428.7375 152.76 428.7375 152.76 428.7375 152.76 
C 428.7375 152.76 428.7375 152.76 428.7375 152.76 
C 428.7375 152.76 428.7375 152.76 428.7375 152.76 
C 428.7375 152.76 428.7375 152.76 428.7375 152.76 
C 428.7375 152.76 428.7375 152.76 428.7375 152.76 
C 428.7375 152.76 428.7375 152.76 428.7375 152.76 
C 428.7375 152.76 428.7375 152.76 428.7375 152.76 
C 428.7375 152.76 428.7375 152.76 428.7375 152.76 
C 428.7375 152.76 428.7375 152.76 428.7375 152.76 
C 428.7375 152.76 428.7375 152.76 428.7375 152.76 
z
" style="fill: #ffffff"/>
   </g>
   <g id="matplotlib.axis_3">
    <g id="xtick_11">
     <g id="line2d_16">
      <path d="M 428.7375 152.76 
L 428.7375 42.954545 
" clip-path="url(#p32fc086c00)" style="fill: none; stroke: #cccccc; stroke-linecap: round"/>
     </g>
     <g id="text_12">
      <!-- 0 -->
      <g style="fill: #262626" transform="translate(425.400938 29.55767) scale(0.12 -0.12)">
       <use xlink:href="#LiberationSans-30"/>
      </g>
     </g>
    </g>
    <g id="xtick_12">
     <g id="line2d_17">
      <path d="M 428.7375 152.76 
L 493.279527 63.925521 
" clip-path="url(#p32fc086c00)" style="fill: none; stroke: #cccccc; stroke-linecap: round"/>
     </g>
     <g id="text_13">
      <!-- 1 -->
      <g style="fill: #262626" transform="translate(499.641421 53.679866) scale(0.12 -0.12)">
       <use xlink:href="#LiberationSans-31"/>
      </g>
     </g>
    </g>
    <g id="xtick_13">
     <g id="line2d_18">
      <path d="M 428.7375 152.76 
L 533.168693 118.828248 
" clip-path="url(#p32fc086c00)" style="fill: none; stroke: #cccccc; stroke-linecap: round"/>
     </g>
     <g id="text_14">
      <!-- 2 -->
      <g style="fill: #262626" transform="translate(545.524563 116.832593) scale(0.12 -0.12)">
       <use xlink:href="#LiberationSans-32"/>
      </g>
     </g>
    </g>
    <g id="xtick_14">
     <g id="line2d_19">
      <path d="M 428.7375 152.76 
L 533.168693 186.691752 
" clip-path="url(#p32fc086c00)" style="fill: none; stroke: #cccccc; stroke-linecap: round"/>
     </g>
     <g id="text_15">
      <!-- 3 -->
      <g style="fill: #262626" transform="translate(545.524563 194.893657) scale(0.12 -0.12)">
       <use xlink:href="#LiberationSans-33"/>
      </g>
     </g>
    </g>
    <g id="xtick_15">
     <g id="line2d_20">
      <path d="M 428.7375 152.76 
L 493.279527 241.594479 
" clip-path="url(#p32fc086c00)" style="fill: none; stroke: #cccccc; stroke-linecap: round"/>
     </g>
     <g id="text_16">
      <!-- 4 -->
      <g style="fill: #262626" transform="translate(499.641421 258.046384) scale(0.12 -0.12)">
       <use xlink:href="#LiberationSans-34"/>
      </g>
     </g>
    </g>
    <g id="xtick_16">
     <g id="line2d_21">
      <path d="M 428.7375 152.76 
L 428.7375 262.565455 
" clip-path="url(#p32fc086c00)" style="fill: none; stroke: #cccccc; stroke-linecap: round"/>
     </g>
     <g id="text_17">
      <!-- 5 -->
      <g style="fill: #262626" transform="translate(425.400938 282.16858) scale(0.12 -0.12)">
       <use xlink:href="#LiberationSans-35"/>
      </g>
     </g>
    </g>
    <g id="xtick_17">
     <g id="line2d_22">
      <path d="M 428.7375 152.76 
L 364.195473 241.594479 
" clip-path="url(#p32fc086c00)" style="fill: none; stroke: #cccccc; stroke-linecap: round"/>
     </g>
     <g id="text_18">
      <!-- 6 -->
      <g style="fill: #262626" transform="translate(351.160454 258.046384) scale(0.12 -0.12)">
       <use xlink:href="#LiberationSans-36"/>
      </g>
     </g>
    </g>
    <g id="xtick_18">
     <g id="line2d_23">
      <path d="M 428.7375 152.76 
L 324.306307 186.691752 
" clip-path="url(#p32fc086c00)" style="fill: none; stroke: #cccccc; stroke-linecap: round"/>
     </g>
     <g id="text_19">
      <!-- 7 -->
      <g style="fill: #262626" transform="translate(305.277312 194.893657) scale(0.12 -0.12)">
       <use xlink:href="#LiberationSans-37"/>
      </g>
     </g>
    </g>
    <g id="xtick_19">
     <g id="line2d_24">
      <path d="M 428.7375 152.76 
L 324.306307 118.828248 
" clip-path="url(#p32fc086c00)" style="fill: none; stroke: #cccccc; stroke-linecap: round"/>
     </g>
     <g id="text_20">
      <!-- 8 -->
      <g style="fill: #262626" transform="translate(305.277312 116.832593) scale(0.12 -0.12)">
       <use xlink:href="#LiberationSans-38"/>
      </g>
     </g>
    </g>
    <g id="xtick_20">
     <g id="line2d_25">
      <path d="M 428.7375 152.76 
L 364.195473 63.925521 
" clip-path="url(#p32fc086c00)" style="fill: none; stroke: #cccccc; stroke-linecap: round"/>
     </g>
     <g id="text_21">
      <!-- 9 -->
      <g style="fill: #262626" transform="translate(351.160454 53.679866) scale(0.12 -0.12)">
       <use xlink:href="#LiberationSans-39"/>
      </g>
     </g>
    </g>
   </g>
   <g id="matplotlib.axis_4">
    <g id="ytick_6">
     <g id="line2d_26">
      <path d="M 428.7375 130.798909 
C 431.621404 130.798909 434.477266 131.366975 437.141646 132.470598 
C 439.806026 133.57422 442.227108 135.191936 444.266336 137.231164 
C 446.305564 139.270392 447.92328 141.691474 449.026902 144.355854 
C 450.130525 147.020234 450.698591 149.876096 450.698591 152.76 
C 450.698591 155.643904 450.130525 158.499766 449.026902 161.164146 
C 447.92328 163.828526 446.305564 166.249608 444.266336 168.288836 
C 442.227108 170.328064 439.806026 171.94578 437.141646 173.049402 
C 434.477266 174.153025 431.621404 174.721091 428.7375 174.721091 
C 425.853596 174.721091 422.997734 174.153025 420.333354 173.049402 
C 417.668974 171.94578 415.247892 170.328064 413.208664 168.288836 
C 411.169436 166.249608 409.55172 163.828526 408.448098 161.164146 
C 407.344475 158.499766 406.776409 155.643904 406.776409 152.76 
C 406.776409 149.876096 407.344475 147.020234 408.448098 144.355854 
C 409.55172 141.691474 411.169436 139.270392 413.208664 137.231164 
C 415.247892 135.191936 417.668974 133.57422 420.333354 132.470598 
C 422.997734 131.366975 425.853596 130.798909 428.7375 130.798909 
" clip-path="url(#p32fc086c00)" style="fill: none; stroke: #cccccc; stroke-opacity: 0.5; stroke-linecap: round"/>
     </g>
    </g>
    <g id="ytick_7">
     <g id="line2d_27">
      <path d="M 428.7375 108.837818 
C 434.505308 108.837818 440.217031 109.973951 445.545791 112.181195 
C 450.874551 114.38844 455.716716 117.623871 459.795173 121.702327 
C 463.873629 125.780784 467.10906 130.622949 469.316305 135.951709 
C 471.523549 141.280469 472.659682 146.992192 472.659682 152.76 
C 472.659682 158.527808 471.523549 164.239531 469.316305 169.568291 
C 467.10906 174.897051 463.873629 179.739216 459.795173 183.817673 
C 455.716716 187.896129 450.874551 191.13156 445.545791 193.338805 
C 440.217031 195.546049 434.505308 196.682182 428.7375 196.682182 
C 422.969692 196.682182 417.257969 195.546049 411.929209 193.338805 
C 406.600449 191.13156 401.758284 187.896129 397.679827 183.817673 
C 393.601371 179.739216 390.36594 174.897051 388.158695 169.568291 
C 385.951451 164.239531 384.815318 158.527808 384.815318 152.76 
C 384.815318 146.992192 385.951451 141.280469 388.158695 135.951709 
C 390.36594 130.622949 393.601371 125.780784 397.679827 121.702327 
C 401.758284 117.623871 406.600449 114.38844 411.929209 112.181195 
C 417.257969 109.973951 422.969692 108.837818 428.7375 108.837818 
" clip-path="url(#p32fc086c00)" style="fill: none; stroke: #cccccc; stroke-opacity: 0.5; stroke-linecap: round"/>
     </g>
    </g>
    <g id="ytick_8">
     <g id="line2d_28">
      <path d="M 428.7375 86.876727 
C 437.389212 86.876727 445.956797 88.580926 453.949937 91.891793 
C 461.943077 95.20266 469.206325 100.055807 475.324009 106.173491 
C 481.441693 112.291175 486.29484 119.554423 489.605707 127.547563 
C 492.916574 135.540703 494.620773 144.108288 494.620773 152.76 
C 494.620773 161.411712 492.916574 169.979297 489.605707 177.972437 
C 486.29484 185.965577 481.441693 193.228825 475.324009 199.346509 
C 469.206325 205.464193 461.943077 210.31734 453.949937 213.628207 
C 445.956797 216.939074 437.389212 218.643273 428.7375 218.643273 
C 420.085788 218.643273 411.518203 216.939074 403.525063 213.628207 
C 395.531923 210.31734 388.268675 205.464193 382.150991 199.346509 
C 376.033307 193.228825 371.18016 185.965577 367.869293 177.972437 
C 364.558426 169.979297 362.854227 161.411712 362.854227 152.76 
C 362.854227 144.108288 364.558426 135.540703 367.869293 127.547563 
C 371.18016 119.554423 376.033307 112.291175 382.150991 106.173491 
C 388.268675 100.055807 395.531923 95.20266 403.525063 91.891793 
C 411.518203 88.580926 420.085788 86.876727 428.7375 86.876727 
" clip-path="url(#p32fc086c00)" style="fill: none; stroke: #cccccc; stroke-opacity: 0.5; stroke-linecap: round"/>
     </g>
    </g>
    <g id="ytick_9">
     <g id="line2d_29">
      <path d="M 428.7375 64.915636 
C 440.273116 64.915636 451.696563 67.187901 462.354083 71.60239 
C 473.011602 76.01688 482.695933 82.487742 490.852845 90.644655 
C 499.009758 98.801567 505.48062 108.485898 509.89511 119.143417 
C 514.309599 129.800937 516.581864 141.224384 516.581864 152.76 
C 516.581864 164.295616 514.309599 175.719063 509.89511 186.376583 
C 505.48062 197.034102 499.009758 206.718433 490.852845 214.875345 
C 482.695933 223.032258 473.011602 229.50312 462.354083 233.91761 
C 451.696563 238.332099 440.273116 240.604364 428.7375 240.604364 
C 417.201884 240.604364 405.778437 238.332099 395.120917 233.91761 
C 384.463398 229.50312 374.779067 223.032258 366.622155 214.875345 
C 358.465242 206.718433 351.99438 197.034102 347.57989 186.376583 
C 343.165401 175.719063 340.893136 164.295616 340.893136 152.76 
C 340.893136 141.224384 343.165401 129.800937 347.57989 119.143417 
C 351.99438 108.485898 358.465242 98.801567 366.622155 90.644655 
C 374.779067 82.487742 384.463398 76.01688 395.120917 71.60239 
C 405.778437 67.187901 417.201884 64.915636 428.7375 64.915636 
" clip-path="url(#p32fc086c00)" style="fill: none; stroke: #cccccc; stroke-opacity: 0.5; stroke-linecap: round"/>
     </g>
    </g>
    <g id="ytick_10">
     <g id="line2d_30">
      <path d="M 428.7375 42.954545 
C 443.15702 42.954545 457.436329 45.794877 470.758228 51.312988 
C 484.080128 56.831099 496.185541 64.919678 506.381682 75.115818 
C 516.577822 85.311959 524.666401 97.417372 530.184512 110.739272 
C 535.702623 124.061171 538.542955 138.34048 538.542955 152.76 
C 538.542955 167.17952 535.702623 181.458829 530.184512 194.780728 
C 524.666401 208.102628 516.577822 220.208041 506.381682 230.404182 
C 496.185541 240.600322 484.080128 248.688901 470.758228 254.207012 
C 457.436329 259.725123 443.15702 262.565455 428.7375 262.565455 
C 414.31798 262.565455 400.038671 259.725123 386.716772 254.207012 
C 373.394872 248.688901 361.289459 240.600322 351.093318 230.404182 
C 340.897178 220.208041 332.808599 208.102628 327.290488 194.780728 
C 321.772377 181.458829 318.932045 167.17952 318.932045 152.76 
C 318.932045 138.34048 321.772377 124.061171 327.290488 110.739272 
C 332.808599 97.417372 340.897178 85.311959 351.093318 75.115818 
C 361.289459 64.919678 373.394872 56.831099 386.716772 51.312988 
C 400.038671 45.794877 414.31798 42.954545 428.7375 42.954545 
" clip-path="url(#p32fc086c00)" style="fill: none; stroke: #cccccc; stroke-opacity: 0.5; stroke-linecap: round"/>
     </g>
    </g>
   </g>
   <g id="patch_35">
    <path d="M 428.7375 152.76 
C 428.7375 152.76 428.7375 152.76 428.7375 152.76 
C 428.7375 152.76 428.7375 152.76 428.7375 152.76 
L 448.5882 75.01836 
C 442.101306 73.361984 435.432526 72.524017 428.7375 72.524017 
C 422.042474 72.524017 415.373694 73.361984 408.8868 75.01836 
z
" clip-path="url(#p32fc086c00)" style="fill: #a1c9f4; opacity: 0.5; stroke: #ffffff; stroke-linejoin: miter"/>
   </g>
   <g id="patch_36">
    <path d="M 428.7375 152.76 
C 428.7375 152.76 428.7375 152.76 428.7375 152.76 
C 428.7375 152.76 428.7375 152.76 428.7375 152.76 
L 451.452252 133.91788 
C 449.880034 132.022522 448.076751 130.331378 446.084491 128.883916 
C 444.09223 127.436454 441.926611 126.244022 439.638177 125.334451 
z
" clip-path="url(#p32fc086c00)" style="fill: #a1c9f4; opacity: 0.5; stroke: #ffffff; stroke-linejoin: miter"/>
   </g>
   <g id="patch_37">
    <path d="M 428.7375 152.76 
C 428.7375 152.76 428.7375 152.76 428.7375 152.76 
C 428.7375 152.76 428.7375 152.76 428.7375 152.76 
L 501.222011 148.103055 
C 500.833428 142.054825 499.689356 136.078942 497.816497 130.314873 
C 495.943637 124.550805 493.356675 119.043745 490.115985 113.922221 
z
" clip-path="url(#p32fc086c00)" style="fill: #a1c9f4; opacity: 0.5; stroke: #ffffff; stroke-linejoin: miter"/>
   </g>
   <g id="patch_38">
    <path d="M 428.7375 152.76 
C 428.7375 152.76 428.7375 152.76 428.7375 152.76 
C 428.7375 152.76 428.7375 152.76 428.7375 152.76 
L 449.066947 165.623638 
C 450.140311 163.927314 450.997151 162.103296 451.617469 160.194153 
C 452.237787 158.285009 452.616721 156.30571 452.745425 154.302448 
z
" clip-path="url(#p32fc086c00)" style="fill: #a1c9f4; opacity: 0.5; stroke: #ffffff; stroke-linejoin: miter"/>
   </g>
   <g id="patch_39">
    <path d="M 428.7375 152.76 
C 428.7375 152.76 428.7375 152.76 428.7375 152.76 
C 428.7375 152.76 428.7375 152.76 428.7375 152.76 
L 448.592214 202.71345 
C 452.760414 201.056739 456.704916 198.884821 460.33366 196.248384 
C 463.962404 193.611947 467.24694 190.531662 470.11061 187.07942 
z
" clip-path="url(#p32fc086c00)" style="fill: #a1c9f4; opacity: 0.5; stroke: #ffffff; stroke-linejoin: miter"/>
   </g>
   <g id="patch_40">
    <path d="M 428.7375 152.76 
C 428.7375 152.76 428.7375 152.76 428.7375 152.76 
C 428.7375 152.76 428.7375 152.76 428.7375 152.76 
L 428.729191 152.792543 
C 428.731906 152.793236 428.734697 152.793587 428.7375 152.793587 
C 428.740303 152.793587 428.743094 152.793236 428.745809 152.792543 
z
" clip-path="url(#p32fc086c00)" style="fill: #a1c9f4; opacity: 0.5; stroke: #ffffff; stroke-linejoin: miter"/>
   </g>
   <g id="patch_41">
    <path d="M 428.7375 152.76 
C 428.7375 152.76 428.7375 152.76 428.7375 152.76 
C 428.7375 152.76 428.7375 152.76 428.7375 152.76 
L 428.686891 152.801981 
C 428.690394 152.806204 428.694412 152.809972 428.69885 152.813197 
C 428.703289 152.816422 428.708114 152.819078 428.713213 152.821105 
z
" clip-path="url(#p32fc086c00)" style="fill: #a1c9f4; opacity: 0.5; stroke: #ffffff; stroke-linejoin: miter"/>
   </g>
   <g id="patch_42">
    <path d="M 428.7375 152.76 
C 428.7375 152.76 428.7375 152.76 428.7375 152.76 
C 428.7375 152.76 428.7375 152.76 428.7375 152.76 
L 428.434996 152.779435 
C 428.436618 152.804676 428.441393 152.829616 428.449209 152.853671 
C 428.457025 152.877727 428.467821 152.90071 428.481346 152.922084 
z
" clip-path="url(#p32fc086c00)" style="fill: #a1c9f4; opacity: 0.5; stroke: #ffffff; stroke-linejoin: miter"/>
   </g>
   <g id="patch_43">
    <path d="M 428.7375 152.76 
C 428.7375 152.76 428.7375 152.76 428.7375 152.76 
C 428.7375 152.76 428.7375 152.76 428.7375 152.76 
L 428.662727 152.712687 
C 428.658779 152.718926 428.655628 152.725635 428.653346 152.732657 
C 428.651065 152.739679 428.649671 152.746959 428.649198 152.754327 
z
" clip-path="url(#p32fc086c00)" style="fill: #a1c9f4; opacity: 0.5; stroke: #ffffff; stroke-linejoin: miter"/>
   </g>
   <g id="patch_44">
    <path d="M 428.7375 152.76 
C 428.7375 152.76 428.7375 152.76 428.7375 152.76 
C 428.7375 152.76 428.7375 152.76 428.7375 152.76 
L 428.716707 152.707686 
C 428.712342 152.709421 428.708211 152.711696 428.704411 152.714457 
C 428.700611 152.717218 428.697171 152.720443 428.694172 152.724059 
z
" clip-path="url(#p32fc086c00)" style="fill: #a1c9f4; opacity: 0.5; stroke: #ffffff; stroke-linejoin: miter"/>
   </g>
   <g id="patch_45">
    <path d="M 428.7375 152.76 
C 428.7375 152.76 428.7375 152.76 428.7375 152.76 
C 428.7375 152.76 428.7375 152.76 428.7375 152.76 
L 428.753359 152.697891 
C 428.748177 152.696568 428.742849 152.695898 428.7375 152.695898 
C 428.732151 152.695898 428.726823 152.696568 428.721641 152.697891 
z
" clip-path="url(#p32fc086c00)" style="fill: #ffb482; opacity: 0.5; stroke: #ffffff; stroke-linejoin: miter"/>
   </g>
   <g id="patch_46">
    <path d="M 428.7375 152.76 
C 428.7375 152.76 428.7375 152.76 428.7375 152.76 
C 428.7375 152.76 428.7375 152.76 428.7375 152.76 
L 428.753869 152.746422 
C 428.752736 152.745056 428.751436 152.743837 428.750001 152.742794 
C 428.748565 152.741751 428.747004 152.740892 428.745355 152.740236 
z
" clip-path="url(#p32fc086c00)" style="fill: #ffb482; opacity: 0.5; stroke: #ffffff; stroke-linejoin: miter"/>
   </g>
   <g id="patch_47">
    <path d="M 428.7375 152.76 
C 428.7375 152.76 428.7375 152.76 428.7375 152.76 
C 428.7375 152.76 428.7375 152.76 428.7375 152.76 
L 428.802863 152.755801 
C 428.802513 152.750347 428.801481 152.744958 428.799792 152.73976 
C 428.798103 152.734562 428.795771 152.729596 428.792848 152.724978 
z
" clip-path="url(#p32fc086c00)" style="fill: #ffb482; opacity: 0.5; stroke: #ffffff; stroke-linejoin: miter"/>
   </g>
   <g id="patch_48">
    <path d="M 428.7375 152.76 
C 428.7375 152.76 428.7375 152.76 428.7375 152.76 
C 428.7375 152.76 428.7375 152.76 428.7375 152.76 
L 428.927591 152.880282 
C 428.937628 152.86442 428.945639 152.847365 428.95144 152.829513 
C 428.95724 152.811662 428.960783 152.793154 428.961987 152.774423 
z
" clip-path="url(#p32fc086c00)" style="fill: #ffb482; opacity: 0.5; stroke: #ffffff; stroke-linejoin: miter"/>
   </g>
   <g id="patch_49">
    <path d="M 428.7375 152.76 
C 428.7375 152.76 428.7375 152.76 428.7375 152.76 
C 428.7375 152.76 428.7375 152.76 428.7375 152.76 
L 428.788359 152.88796 
C 428.799037 152.883716 428.809141 152.878153 428.818436 152.871399 
C 428.827732 152.864646 428.836145 152.856755 428.843481 152.847912 
z
" clip-path="url(#p32fc086c00)" style="fill: #ffb482; opacity: 0.5; stroke: #ffffff; stroke-linejoin: miter"/>
   </g>
   <g id="patch_50">
    <path d="M 428.7375 152.76 
C 428.7375 152.76 428.7375 152.76 428.7375 152.76 
C 428.7375 152.76 428.7375 152.76 428.7375 152.76 
L 420.454248 185.199843 
C 423.161083 185.891012 425.943816 186.240677 428.7375 186.240677 
C 431.531184 186.240677 434.313917 185.891012 437.020752 185.199843 
z
" clip-path="url(#p32fc086c00)" style="fill: #ffb482; opacity: 0.5; stroke: #ffffff; stroke-linejoin: miter"/>
   </g>
   <g id="patch_51">
    <path d="M 428.7375 152.76 
C 428.7375 152.76 428.7375 152.76 428.7375 152.76 
C 428.7375 152.76 428.7375 152.76 428.7375 152.76 
L 414.681481 164.419612 
C 415.654379 165.59247 416.770261 166.638959 418.003083 167.534657 
C 419.235905 168.430355 420.576003 169.168239 421.992099 169.731086 
z
" clip-path="url(#p32fc086c00)" style="fill: #ffb482; opacity: 0.5; stroke: #ffffff; stroke-linejoin: miter"/>
   </g>
   <g id="patch_52">
    <path d="M 428.7375 152.76 
C 428.7375 152.76 428.7375 152.76 428.7375 152.76 
C 428.7375 152.76 428.7375 152.76 428.7375 152.76 
L 383.713268 155.652692 
C 383.954639 159.40959 384.665287 163.121549 385.828626 166.701938 
C 386.991965 170.282327 388.598874 173.703074 390.61185 176.884343 
z
" clip-path="url(#p32fc086c00)" style="fill: #ffb482; opacity: 0.5; stroke: #ffffff; stroke-linejoin: miter"/>
   </g>
   <g id="patch_53">
    <path d="M 428.7375 152.76 
C 428.7375 152.76 428.7375 152.76 428.7375 152.76 
C 428.7375 152.76 428.7375 152.76 428.7375 152.76 
L 412.776501 142.660537 
C 411.933785 143.992349 411.261065 145.424418 410.774042 146.923319 
C 410.28702 148.42222 409.989513 149.976202 409.888465 151.548998 
z
" clip-path="url(#p32fc086c00)" style="fill: #ffb482; opacity: 0.5; stroke: #ffffff; stroke-linejoin: miter"/>
   </g>
   <g id="patch_54">
    <path d="M 428.7375 152.76 
C 428.7375 152.76 428.7375 152.76 428.7375 152.76 
C 428.7375 152.76 428.7375 152.76 428.7375 152.76 
L 419.403711 129.276661 
C 417.444221 130.055488 415.589893 131.076517 413.884005 132.315917 
C 412.178116 133.555318 410.634041 135.003374 409.287817 136.626288 
z
" clip-path="url(#p32fc086c00)" style="fill: #ffb482; opacity: 0.5; stroke: #ffffff; stroke-linejoin: miter"/>
   </g>
   <g id="patch_55">
    <path d="M 428.7375 152.76 
C 428.7375 152.76 428.7375 152.76 428.7375 152.76 
C 428.7375 152.76 428.7375 152.76 428.7375 152.76 
L 428.820903 152.433369 
C 428.793648 152.42641 428.765629 152.422889 428.7375 152.422889 
C 428.709371 152.422889 428.681352 152.42641 428.654097 152.433369 
z
" clip-path="url(#p32fc086c00)" style="fill: #8de5a1; opacity: 0.5; stroke: #ffffff; stroke-linejoin: miter"/>
   </g>
   <g id="patch_56">
    <path d="M 428.7375 152.76 
C 428.7375 152.76 428.7375 152.76 428.7375 152.76 
C 428.7375 152.76 428.7375 152.76 428.7375 152.76 
L 428.834929 152.679182 
C 428.828185 152.671052 428.82045 152.663799 428.811905 152.65759 
C 428.80336 152.651382 428.794071 152.646267 428.784255 152.642366 
z
" clip-path="url(#p32fc086c00)" style="fill: #8de5a1; opacity: 0.5; stroke: #ffffff; stroke-linejoin: miter"/>
   </g>
   <g id="patch_57">
    <path d="M 428.7375 152.76 
C 428.7375 152.76 428.7375 152.76 428.7375 152.76 
C 428.7375 152.76 428.7375 152.76 428.7375 152.76 
L 429.042246 152.740421 
C 429.040613 152.714992 429.035803 152.689868 429.027929 152.665634 
C 429.020055 152.6414 429.009178 152.618247 428.995553 152.596714 
z
" clip-path="url(#p32fc086c00)" style="fill: #8de5a1; opacity: 0.5; stroke: #ffffff; stroke-linejoin: miter"/>
   </g>
   <g id="patch_58">
    <path d="M 428.7375 152.76 
C 428.7375 152.76 428.7375 152.76 428.7375 152.76 
C 428.7375 152.76 428.7375 152.76 428.7375 152.76 
L 428.829575 152.818262 
C 428.834437 152.810579 428.838318 152.802317 428.841127 152.793671 
C 428.843937 152.785024 428.845653 152.776059 428.846236 152.766986 
z
" clip-path="url(#p32fc086c00)" style="fill: #8de5a1; opacity: 0.5; stroke: #ffffff; stroke-linejoin: miter"/>
   </g>
   <g id="patch_59">
    <path d="M 428.7375 152.76 
C 428.7375 152.76 428.7375 152.76 428.7375 152.76 
C 428.7375 152.76 428.7375 152.76 428.7375 152.76 
L 428.822309 152.973374 
C 428.840113 152.966297 428.856962 152.95702 428.872462 152.945759 
C 428.887962 152.934497 428.901991 152.92134 428.914223 152.906594 
z
" clip-path="url(#p32fc086c00)" style="fill: #8de5a1; opacity: 0.5; stroke: #ffffff; stroke-linejoin: miter"/>
   </g>
   <g id="patch_60">
    <path d="M 428.7375 152.76 
C 428.7375 152.76 428.7375 152.76 428.7375 152.76 
C 428.7375 152.76 428.7375 152.76 428.7375 152.76 
L 428.555548 153.47258 
C 428.615007 153.487762 428.676133 153.495443 428.7375 153.495443 
C 428.798867 153.495443 428.859993 153.487762 428.919452 153.47258 
z
" clip-path="url(#p32fc086c00)" style="fill: #8de5a1; opacity: 0.5; stroke: #ffffff; stroke-linejoin: miter"/>
   </g>
   <g id="patch_61">
    <path d="M 428.7375 152.76 
C 428.7375 152.76 428.7375 152.76 428.7375 152.76 
C 428.7375 152.76 428.7375 152.76 428.7375 152.76 
L 428.426532 153.017951 
C 428.448056 153.043899 428.472743 153.067051 428.500017 153.086867 
C 428.527292 153.106683 428.556939 153.123008 428.588268 153.13546 
z
" clip-path="url(#p32fc086c00)" style="fill: #8de5a1; opacity: 0.5; stroke: #ffffff; stroke-linejoin: miter"/>
   </g>
   <g id="patch_62">
    <path d="M 428.7375 152.76 
C 428.7375 152.76 428.7375 152.76 428.7375 152.76 
C 428.7375 152.76 428.7375 152.76 428.7375 152.76 
L 427.749197 152.823496 
C 427.754496 152.905962 427.770095 152.987441 427.79563 153.066032 
C 427.821166 153.144623 427.856439 153.21971 427.900624 153.28954 
z
" clip-path="url(#p32fc086c00)" style="fill: #8de5a1; opacity: 0.5; stroke: #ffffff; stroke-linejoin: miter"/>
   </g>
   <g id="patch_63">
    <path d="M 428.7375 152.76 
C 428.7375 152.76 428.7375 152.76 428.7375 152.76 
C 428.7375 152.76 428.7375 152.76 428.7375 152.76 
L 428.38443 152.536592 
C 428.365788 152.566053 428.350907 152.597731 428.340134 152.630888 
C 428.329361 152.664045 428.32278 152.69842 428.320544 152.733212 
z
" clip-path="url(#p32fc086c00)" style="fill: #8de5a1; opacity: 0.5; stroke: #ffffff; stroke-linejoin: miter"/>
   </g>
   <g id="patch_64">
    <path d="M 428.7375 152.76 
C 428.7375 152.76 428.7375 152.76 428.7375 152.76 
C 428.7375 152.76 428.7375 152.76 428.7375 152.76 
L 428.531914 152.242756 
C 428.488754 152.259911 428.447911 152.2824 428.410337 152.309699 
C 428.372763 152.336998 428.338753 152.368893 428.309102 152.404639 
z
" clip-path="url(#p32fc086c00)" style="fill: #8de5a1; opacity: 0.5; stroke: #ffffff; stroke-linejoin: miter"/>
   </g>
   <g id="patch_65">
    <path d="M 428.7375 42.954545 
C 414.31798 42.954545 400.038671 45.794877 386.716772 51.312988 
C 373.394872 56.831099 361.289459 64.919678 351.093318 75.115818 
C 340.897178 85.311959 332.808599 97.417372 327.290488 110.739272 
C 321.772377 124.061171 318.932045 138.34048 318.932045 152.76 
C 318.932045 167.17952 321.772377 181.458829 327.290488 194.780728 
C 332.808599 208.102628 340.897178 220.208041 351.093318 230.404182 
C 361.289459 240.600322 373.394872 248.688901 386.716772 254.207012 
C 400.038671 259.725123 414.31798 262.565455 428.7375 262.565455 
C 443.15702 262.565455 457.436329 259.725123 470.758228 254.207012 
C 484.080128 248.688901 496.185541 240.600322 506.381682 230.404182 
C 516.577822 220.208041 524.666401 208.102628 530.184512 194.780728 
C 535.702623 181.458829 538.542955 167.17952 538.542955 152.76 
C 538.542955 138.34048 535.702623 124.061171 530.184512 110.739272 
C 524.666401 97.417372 516.577822 85.311959 506.381682 75.115818 
C 496.185541 64.919678 484.080128 56.831099 470.758228 51.312988 
C 457.436329 45.794877 443.15702 42.954545 428.7375 42.954545 
" style="fill: none; stroke: #262626; stroke-width: 1.25; stroke-linejoin: miter; stroke-linecap: square"/>
   </g>
   <g id="text_22">
    <!-- Value -->
    <g style="fill: #262626" transform="translate(408.8675 14.86142) scale(0.16 -0.16)">
     <defs>
      <path id="LiberationSans-56" d="M 2444 0 
L 1825 0 
L 28 4403 
L 656 4403 
L 1875 1303 
L 2138 525 
L 2400 1303 
L 3613 4403 
L 4241 4403 
L 2444 0 
z
" transform="scale(0.015625)"/>
      <path id="LiberationSans-6c" d="M 431 0 
L 431 4638 
L 994 4638 
L 994 0 
L 431 0 
z
" transform="scale(0.015625)"/>
      <path id="LiberationSans-75" d="M 981 3381 
L 981 1238 
Q 981 903 1047 718 
Q 1113 534 1256 453 
Q 1400 372 1678 372 
Q 2084 372 2318 650 
Q 2553 928 2553 1422 
L 2553 3381 
L 3116 3381 
L 3116 722 
Q 3116 131 3134 0 
L 2603 0 
Q 2600 16 2597 84 
Q 2594 153 2589 242 
Q 2584 331 2578 578 
L 2569 578 
Q 2375 228 2120 82 
Q 1866 -63 1488 -63 
Q 931 -63 673 214 
Q 416 491 416 1128 
L 416 3381 
L 981 3381 
z
" transform="scale(0.015625)"/>
      <path id="LiberationSans-65" d="M 863 1572 
Q 863 991 1103 675 
Q 1344 359 1806 359 
Q 2172 359 2392 506 
Q 2613 653 2691 878 
L 3184 738 
Q 2881 -63 1806 -63 
Q 1056 -63 664 384 
Q 272 831 272 1713 
Q 272 2550 664 2997 
Q 1056 3444 1784 3444 
Q 3275 3444 3275 1647 
L 3275 1572 
L 863 1572 
z
M 2694 2003 
Q 2647 2538 2422 2783 
Q 2197 3028 1775 3028 
Q 1366 3028 1127 2754 
Q 888 2481 869 2003 
L 2694 2003 
z
" transform="scale(0.015625)"/>
     </defs>
     <use xlink:href="#LiberationSans-56"/>
     <use xlink:href="#LiberationSans-61" x="59.324219"/>
     <use xlink:href="#LiberationSans-6c" x="114.939453"/>
     <use xlink:href="#LiberationSans-75" x="137.15625"/>
     <use xlink:href="#LiberationSans-65" x="192.771484"/>
    </g>
   </g>
  </g>
 </g>
 <defs>
  <clipPath id="pe062d0ec40">
   <path d="M 257.022955 152.76 
C 257.022955 138.34048 254.182623 124.061171 248.664512 110.739272 
C 243.146401 97.417372 235.057822 85.311959 224.861682 75.115818 
C 214.665541 64.919678 202.560128 56.831099 189.238228 51.312988 
C 175.916329 45.794877 161.63702 42.954545 147.2175 42.954545 
C 132.79798 42.954545 118.518671 45.794877 105.196772 51.312988 
C 91.874872 56.831099 79.769459 64.919678 69.573318 75.115818 
C 59.377178 85.311959 51.288599 97.417372 45.770488 110.739272 
C 40.252377 124.061171 37.412045 138.34048 37.412045 152.76 
C 37.412045 167.17952 40.252377 181.458829 45.770488 194.780728 
C 51.288599 208.102628 59.377178 220.208041 69.573318 230.404182 
C 79.769459 240.600322 91.874872 248.688901 105.196772 254.207012 
C 118.518671 259.725123 132.79798 262.565455 147.2175 262.565455 
C 161.63702 262.565455 175.916329 259.725123 189.238228 254.207012 
C 202.560128 248.688901 214.665541 240.600322 224.861682 230.404182 
C 235.057822 220.208041 243.146401 208.102628 248.664512 194.780728 
C 254.182623 181.458829 257.022955 167.17952 257.022955 152.76 
M 147.2175 152.76 
C 147.2175 152.76 147.2175 152.76 147.2175 152.76 
C 147.2175 152.76 147.2175 152.76 147.2175 152.76 
C 147.2175 152.76 147.2175 152.76 147.2175 152.76 
C 147.2175 152.76 147.2175 152.76 147.2175 152.76 
C 147.2175 152.76 147.2175 152.76 147.2175 152.76 
C 147.2175 152.76 147.2175 152.76 147.2175 152.76 
C 147.2175 152.76 147.2175 152.76 147.2175 152.76 
C 147.2175 152.76 147.2175 152.76 147.2175 152.76 
C 147.2175 152.76 147.2175 152.76 147.2175 152.76 
C 147.2175 152.76 147.2175 152.76 147.2175 152.76 
C 147.2175 152.76 147.2175 152.76 147.2175 152.76 
C 147.2175 152.76 147.2175 152.76 147.2175 152.76 
C 147.2175 152.76 147.2175 152.76 147.2175 152.76 
C 147.2175 152.76 147.2175 152.76 147.2175 152.76 
C 147.2175 152.76 147.2175 152.76 147.2175 152.76 
C 147.2175 152.76 147.2175 152.76 147.2175 152.76 
z
"/>
  </clipPath>
  <clipPath id="p32fc086c00">
   <path d="M 538.542955 152.76 
C 538.542955 138.34048 535.702623 124.061171 530.184512 110.739272 
C 524.666401 97.417372 516.577822 85.311959 506.381682 75.115818 
C 496.185541 64.919678 484.080128 56.831099 470.758228 51.312988 
C 457.436329 45.794877 443.15702 42.954545 428.7375 42.954545 
C 414.31798 42.954545 400.038671 45.794877 386.716772 51.312988 
C 373.394872 56.831099 361.289459 64.919678 351.093318 75.115818 
C 340.897178 85.311959 332.808599 97.417372 327.290488 110.739272 
C 321.772377 124.061171 318.932045 138.34048 318.932045 152.76 
C 318.932045 167.17952 321.772377 181.458829 327.290488 194.780728 
C 332.808599 208.102628 340.897178 220.208041 351.093318 230.404182 
C 361.289459 240.600322 373.394872 248.688901 386.716772 254.207012 
C 400.038671 259.725123 414.31798 262.565455 428.7375 262.565455 
C 443.15702 262.565455 457.436329 259.725123 470.758228 254.207012 
C 484.080128 248.688901 496.185541 240.600322 506.381682 230.404182 
C 516.577822 220.208041 524.666401 208.102628 530.184512 194.780728 
C 535.702623 181.458829 538.542955 167.17952 538.542955 152.76 
M 428.7375 152.76 
C 428.7375 152.76 428.7375 152.76 428.7375 152.76 
C 428.7375 152.76 428.7375 152.76 428.7375 152.76 
C 428.7375 152.76 428.7375 152.76 428.7375 152.76 
C 428.7375 152.76 428.7375 152.76 428.7375 152.76 
C 428.7375 152.76 428.7375 152.76 428.7375 152.76 
C 428.7375 152.76 428.7375 152.76 428.7375 152.76 
C 428.7375 152.76 428.7375 152.76 428.7375 152.76 
C 428.7375 152.76 428.7375 152.76 428.7375 152.76 
C 428.7375 152.76 428.7375 152.76 428.7375 152.76 
C 428.7375 152.76 428.7375 152.76 428.7375 152.76 
C 428.7375 152.76 428.7375 152.76 428.7375 152.76 
C 428.7375 152.76 428.7375 152.76 428.7375 152.76 
C 428.7375 152.76 428.7375 152.76 428.7375 152.76 
C 428.7375 152.76 428.7375 152.76 428.7375 152.76 
C 428.7375 152.76 428.7375 152.76 428.7375 152.76 
C 428.7375 152.76 428.7375 152.76 428.7375 152.76 
z
"/>
  </clipPath>
 </defs>
</svg>
