<?xml version="1.0" encoding="utf-8" standalone="no"?>
<!DOCTYPE svg PUBLIC "-//W3C//DTD SVG 1.1//EN"
  "http://www.w3.org/Graphics/SVG/1.1/DTD/svg11.dtd">
<svg xmlns:xlink="http://www.w3.org/1999/xlink" width="432pt" height="288pt" viewBox="0 0 432 288" xmlns="http://www.w3.org/2000/svg" version="1.1">
 <metadata>
  <rdf:RDF xmlns:dc="http://purl.org/dc/elements/1.1/" xmlns:cc="http://creativecommons.org/ns#" xmlns:rdf="http://www.w3.org/1999/02/22-rdf-syntax-ns#">
   <cc:Work>
    <dc:type rdf:resource="http://purl.org/dc/dcmitype/StillImage"/>
    <dc:date>2024-02-04T16:43:38.877390</dc:date>
    <dc:format>image/svg+xml</dc:format>
    <dc:creator>
     <cc:Agent>
      <dc:title>Matplotlib v3.7.4, https://matplotlib.org/</dc:title>
     </cc:Agent>
    </dc:creator>
   </cc:Work>
  </rdf:RDF>
 </metadata>
 <defs>
  <style type="text/css">*{stroke-linejoin: round; stroke-linecap: butt}</style>
 </defs>
 <g id="figure_1">
  <g id="patch_1">
   <path d="M 0 288 
L 432 288 
L 432 0 
L 0 0 
z
" style="fill: #ffffff"/>
  </g>
  <g id="axes_1">
   <g id="patch_2">
    <path d="M 54 256.32 
L 388.8 256.32 
L 388.8 34.56 
L 54 34.56 
z
" style="fill: #ffffff"/>
   </g>
   <g id="PolyCollection_1">
    <defs>
     <path id="me45c09c28b" d="M 69.218182 -112.810926 
L 69.218182 -110.393827 
L 72.261818 -110.421966 
L 75.305455 -110.453613 
L 78.349091 -110.489129 
L 81.392727 -110.522081 
L 84.436364 -110.553098 
L 87.48 -110.585428 
L 90.523636 -110.617495 
L 93.567273 -110.651719 
L 96.610909 -110.688887 
L 99.654545 -110.731486 
L 102.698182 -110.777331 
L 105.741818 -110.830289 
L 108.785455 -110.895277 
L 111.829091 -110.983093 
L 114.872727 -111.079861 
L 117.916364 -111.187408 
L 120.96 -111.315884 
L 124.003636 -111.454218 
L 127.047273 -111.592175 
L 130.090909 -111.738047 
L 133.134545 -111.897863 
L 136.178182 -112.048969 
L 139.221818 -112.207036 
L 142.265455 -112.34228 
L 145.309091 -112.43169 
L 148.352727 -112.582923 
L 151.396364 -112.742462 
L 154.44 -112.950899 
L 157.483636 -113.213467 
L 160.527273 -113.610752 
L 163.570909 -113.967808 
L 166.614545 -114.43394 
L 169.658182 -115.005311 
L 172.701818 -115.723008 
L 175.745455 -116.526848 
L 178.789091 -117.536062 
L 181.832727 -118.806829 
L 184.876364 -120.269894 
L 187.92 -121.996055 
L 190.963636 -124.033787 
L 194.007273 -126.444818 
L 197.050909 -129.138116 
L 200.094545 -132.169031 
L 203.138182 -135.573633 
L 206.181818 -139.367868 
L 209.225455 -143.613501 
L 212.269091 -148.165274 
L 215.312727 -152.921252 
L 218.356364 -157.879648 
L 221.4 -163.047774 
L 224.443636 -168.442789 
L 227.487273 -174.075304 
L 230.530909 -179.786052 
L 233.574545 -185.531975 
L 236.618182 -191.20081 
L 239.661818 -196.773999 
L 242.705455 -202.209239 
L 245.749091 -207.314585 
L 248.792727 -212.104868 
L 251.836364 -216.595203 
L 254.88 -220.696325 
L 257.923636 -224.329145 
L 260.967273 -227.649848 
L 264.010909 -230.584347 
L 267.054545 -233.225186 
L 270.098182 -235.572284 
L 273.141818 -237.646103 
L 276.185455 -239.363069 
L 279.229091 -240.772317 
L 282.272727 -241.993127 
L 285.316364 -243.020323 
L 288.36 -243.879611 
L 291.403636 -244.604746 
L 294.447273 -245.22222 
L 297.490909 -245.740464 
L 300.534545 -246.16342 
L 303.578182 -246.527142 
L 306.621818 -246.845307 
L 309.665455 -247.124852 
L 312.709091 -247.349963 
L 315.752727 -247.543707 
L 318.796364 -247.697617 
L 321.84 -247.832304 
L 324.883636 -247.949365 
L 327.927273 -248.051434 
L 330.970909 -248.136243 
L 334.014545 -248.207517 
L 337.058182 -248.27337 
L 340.101818 -248.333135 
L 343.145455 -248.3854 
L 346.189091 -248.429377 
L 349.232727 -248.463444 
L 352.276364 -248.490652 
L 355.32 -248.514638 
L 358.363636 -248.535943 
L 361.407273 -248.556188 
L 364.450909 -248.57447 
L 367.494545 -248.590211 
L 370.538182 -248.60455 
L 373.581818 -248.618201 
L 373.581818 -249.279634 
L 373.581818 -249.279634 
L 370.538182 -249.277658 
L 367.494545 -249.274586 
L 364.450909 -249.270104 
L 361.407273 -249.265541 
L 358.363636 -249.26251 
L 355.32 -249.258716 
L 352.276364 -249.254905 
L 349.232727 -249.250752 
L 346.189091 -249.246544 
L 343.145455 -249.242967 
L 340.101818 -249.237465 
L 337.058182 -249.230645 
L 334.014545 -249.222198 
L 330.970909 -249.212245 
L 327.927273 -249.204027 
L 324.883636 -249.194109 
L 321.84 -249.183715 
L 318.796364 -249.171347 
L 315.752727 -249.156087 
L 312.709091 -249.144143 
L 309.665455 -249.133265 
L 306.621818 -249.119233 
L 303.578182 -249.090337 
L 300.534545 -249.054279 
L 297.490909 -249.010143 
L 294.447273 -248.961034 
L 291.403636 -248.901007 
L 288.36 -248.828277 
L 285.316364 -248.740016 
L 282.272727 -248.629062 
L 279.229091 -248.498015 
L 276.185455 -248.320502 
L 273.141818 -248.112008 
L 270.098182 -247.856133 
L 267.054545 -247.508689 
L 264.010909 -247.067813 
L 260.967273 -246.444396 
L 257.923636 -245.673291 
L 254.88 -244.627245 
L 251.836364 -243.315413 
L 248.792727 -241.729554 
L 245.749091 -239.794749 
L 242.705455 -237.49084 
L 239.661818 -234.786271 
L 236.618182 -231.57251 
L 233.574545 -227.933087 
L 230.530909 -223.723981 
L 227.487273 -219.008391 
L 224.443636 -213.682278 
L 221.4 -207.981518 
L 218.356364 -201.901673 
L 215.312727 -195.709923 
L 212.269091 -189.495029 
L 209.225455 -183.288708 
L 206.181818 -177.201305 
L 203.138182 -171.429077 
L 200.094545 -165.910643 
L 197.050909 -160.682713 
L 194.007273 -155.998496 
L 190.963636 -151.699427 
L 187.92 -147.675093 
L 184.876364 -144.016312 
L 181.832727 -140.601149 
L 178.789091 -137.370186 
L 175.745455 -134.323809 
L 172.701818 -131.553859 
L 169.658182 -129.193508 
L 166.614545 -126.984971 
L 163.570909 -125.027064 
L 160.527273 -123.225264 
L 157.483636 -121.771521 
L 154.44 -120.336636 
L 151.396364 -119.071042 
L 148.352727 -117.949453 
L 145.309091 -117.009454 
L 142.265455 -116.110708 
L 139.221818 -115.46677 
L 136.178182 -114.961279 
L 133.134545 -114.558912 
L 130.090909 -114.275876 
L 127.047273 -114.034396 
L 124.003636 -113.838264 
L 120.96 -113.678728 
L 117.916364 -113.557431 
L 114.872727 -113.466546 
L 111.829091 -113.386609 
L 108.785455 -113.316383 
L 105.741818 -113.260165 
L 102.698182 -113.207251 
L 99.654545 -113.159671 
L 96.610909 -113.115336 
L 93.567273 -113.073005 
L 90.523636 -113.035192 
L 87.48 -112.999991 
L 84.436364 -112.966101 
L 81.392727 -112.934155 
L 78.349091 -112.903219 
L 75.305455 -112.873759 
L 72.261818 -112.842652 
L 69.218182 -112.810926 
z
" style="stroke: #c0d9ff; stroke-opacity: 0.5"/>
    </defs>
    <g clip-path="url(#p3db1cece79)">
     <use xlink:href="#me45c09c28b" x="0" y="288" style="fill: #c0d9ff; fill-opacity: 0.5; stroke: #c0d9ff; stroke-opacity: 0.5"/>
    </g>
   </g>
   <g id="PolyCollection_2">
    <defs>
     <path id="m3a1c897adb" d="M 69.218182 -248.638427 
L 69.218182 -247.915444 
L 72.261818 -247.900091 
L 75.305455 -247.882392 
L 78.349091 -247.862468 
L 81.392727 -247.843199 
L 84.436364 -247.823981 
L 87.48 -247.803757 
L 90.523636 -247.781395 
L 93.567273 -247.753618 
L 96.610909 -247.723254 
L 99.654545 -247.686384 
L 102.698182 -247.645999 
L 105.741818 -247.600027 
L 108.785455 -247.55275 
L 111.829091 -247.506915 
L 114.872727 -247.444302 
L 117.916364 -247.36403 
L 120.96 -247.253641 
L 124.003636 -247.085253 
L 127.047273 -246.8647 
L 130.090909 -246.571474 
L 133.134545 -246.223229 
L 136.178182 -245.749498 
L 139.221818 -245.181756 
L 142.265455 -244.485916 
L 145.309091 -243.549927 
L 148.352727 -242.597426 
L 151.396364 -241.474511 
L 154.44 -240.22322 
L 157.483636 -238.80168 
L 160.527273 -237.355425 
L 163.570909 -235.57034 
L 166.614545 -233.619459 
L 169.658182 -231.423796 
L 172.701818 -229.065621 
L 175.745455 -226.303751 
L 178.789091 -223.267668 
L 181.832727 -220.043997 
L 184.876364 -216.627305 
L 187.92 -212.950373 
L 190.963636 -208.920045 
L 194.007273 -204.606232 
L 197.050909 -199.909361 
L 200.094545 -194.681202 
L 203.138182 -189.148776 
L 206.181818 -183.358179 
L 209.225455 -177.249188 
L 212.269091 -171.030523 
L 215.312727 -164.810242 
L 218.356364 -158.587147 
L 221.4 -152.484708 
L 224.443636 -146.763847 
L 227.487273 -141.411759 
L 230.530909 -136.676612 
L 233.574545 -132.449704 
L 236.618182 -128.801667 
L 239.661818 -125.578904 
L 242.705455 -122.858747 
L 245.749091 -120.542336 
L 248.792727 -118.595624 
L 251.836364 -117.002357 
L 254.88 -115.68478 
L 257.923636 -114.628177 
L 260.967273 -113.836933 
L 264.010909 -113.195036 
L 267.054545 -112.727248 
L 270.098182 -112.352427 
L 273.141818 -112.06213 
L 276.185455 -111.817342 
L 279.229091 -111.608321 
L 282.272727 -111.448149 
L 285.316364 -111.312388 
L 288.36 -111.199938 
L 291.403636 -111.105372 
L 294.447273 -111.023842 
L 297.490909 -110.95429 
L 300.534545 -110.890198 
L 303.578182 -110.833571 
L 306.621818 -110.78329 
L 309.665455 -110.745436 
L 312.709091 -110.713053 
L 315.752727 -110.680729 
L 318.796364 -110.648191 
L 321.84 -110.619924 
L 324.883636 -110.594123 
L 327.927273 -110.568508 
L 330.970909 -110.543134 
L 334.014545 -110.517439 
L 337.058182 -110.493732 
L 340.101818 -110.470088 
L 343.145455 -110.447137 
L 346.189091 -110.422706 
L 349.232727 -110.398236 
L 352.276364 -110.375288 
L 355.32 -110.353535 
L 358.363636 -110.331963 
L 361.407273 -110.310557 
L 364.450909 -110.288691 
L 367.494545 -110.268617 
L 370.538182 -110.249988 
L 373.581818 -110.232055 
L 373.581818 -112.596611 
L 373.581818 -112.596611 
L 370.538182 -112.619764 
L 367.494545 -112.644083 
L 364.450909 -112.669589 
L 361.407273 -112.697135 
L 358.363636 -112.725103 
L 355.32 -112.754647 
L 352.276364 -112.786161 
L 349.232727 -112.820315 
L 346.189091 -112.860265 
L 343.145455 -112.90922 
L 340.101818 -112.969325 
L 337.058182 -113.037224 
L 334.014545 -113.110023 
L 330.970909 -113.189424 
L 327.927273 -113.282441 
L 324.883636 -113.39247 
L 321.84 -113.517241 
L 318.796364 -113.659005 
L 315.752727 -113.82071 
L 312.709091 -114.020513 
L 309.665455 -114.250122 
L 306.621818 -114.532471 
L 303.578182 -114.852544 
L 300.534545 -115.216623 
L 297.490909 -115.640817 
L 294.447273 -116.157251 
L 291.403636 -116.771864 
L 288.36 -117.49101 
L 285.316364 -118.343644 
L 282.272727 -119.367853 
L 279.229091 -120.578949 
L 276.185455 -121.978708 
L 273.141818 -123.68638 
L 270.098182 -125.751671 
L 267.054545 -128.089903 
L 264.010909 -130.724742 
L 260.967273 -133.659907 
L 257.923636 -136.979623 
L 254.88 -140.617882 
L 251.836364 -144.725382 
L 248.792727 -149.22424 
L 245.749091 -154.020759 
L 242.705455 -159.1383 
L 239.661818 -164.573866 
L 236.618182 -170.144967 
L 233.574545 -175.807274 
L 230.530909 -181.547964 
L 227.487273 -187.247047 
L 224.443636 -192.861302 
L 221.4 -198.240928 
L 218.356364 -203.381741 
L 215.312727 -208.312918 
L 212.269091 -213.03813 
L 209.225455 -217.551015 
L 206.181818 -221.751448 
L 203.138182 -225.502921 
L 200.094545 -228.859407 
L 197.050909 -231.84853 
L 194.007273 -234.489951 
L 190.963636 -236.835337 
L 187.92 -238.817209 
L 184.876364 -240.484954 
L 181.832727 -241.898085 
L 178.789091 -243.117295 
L 175.745455 -244.079591 
L 172.701818 -244.835695 
L 169.658182 -245.504037 
L 166.614545 -246.032028 
L 163.570909 -246.45457 
L 160.527273 -246.769429 
L 157.483636 -247.1179 
L 154.44 -247.336528 
L 151.396364 -247.50701 
L 148.352727 -247.617484 
L 145.309091 -247.71357 
L 142.265455 -247.727491 
L 139.221818 -247.775794 
L 136.178182 -247.832128 
L 133.134545 -247.870179 
L 130.090909 -247.9256 
L 127.047273 -247.978931 
L 124.003636 -248.047004 
L 120.96 -248.135059 
L 117.916364 -248.231726 
L 114.872727 -248.310603 
L 111.829091 -248.388557 
L 108.785455 -248.466059 
L 105.741818 -248.503432 
L 102.698182 -248.522248 
L 99.654545 -248.534839 
L 96.610909 -248.548445 
L 93.567273 -248.560107 
L 90.523636 -248.569547 
L 87.48 -248.578359 
L 84.436364 -248.589503 
L 81.392727 -248.599054 
L 78.349091 -248.610012 
L 75.305455 -248.62152 
L 72.261818 -248.630858 
L 69.218182 -248.638427 
z
" style="stroke: #ffbfc4; stroke-opacity: 0.5"/>
    </defs>
    <g clip-path="url(#p3db1cece79)">
     <use xlink:href="#m3a1c897adb" x="0" y="288" style="fill: #ffbfc4; fill-opacity: 0.5; stroke: #ffbfc4; stroke-opacity: 0.5"/>
    </g>
   </g>
   <g id="matplotlib.axis_1">
    <g id="xtick_1">
     <g id="line2d_1">
      <defs>
       <path id="ma1de61e0a1" d="M 0 0 
L 0 3.5 
" style="stroke: #000000; stroke-width: 1.5"/>
      </defs>
      <g>
       <use xlink:href="#ma1de61e0a1" x="69.218182" y="256.32" style="stroke: #000000; stroke-width: 1.5"/>
      </g>
     </g>
     <g id="text_1">
      <!-- 0.0 -->
      <g transform="translate(59.488182 273.465625) scale(0.14 -0.14)">
       <defs>
        <path id="LiberationSans-30" d="M 3309 2203 
Q 3309 1100 2920 518 
Q 2531 -63 1772 -63 
Q 1013 -63 631 515 
Q 250 1094 250 2203 
Q 250 3338 620 3903 
Q 991 4469 1791 4469 
Q 2569 4469 2939 3897 
Q 3309 3325 3309 2203 
z
M 2738 2203 
Q 2738 3156 2517 3584 
Q 2297 4013 1791 4013 
Q 1272 4013 1045 3591 
Q 819 3169 819 2203 
Q 819 1266 1048 831 
Q 1278 397 1778 397 
Q 2275 397 2506 840 
Q 2738 1284 2738 2203 
z
" transform="scale(0.015625)"/>
        <path id="LiberationSans-2e" d="M 584 0 
L 584 684 
L 1194 684 
L 1194 0 
L 584 0 
z
" transform="scale(0.015625)"/>
       </defs>
       <use xlink:href="#LiberationSans-30"/>
       <use xlink:href="#LiberationSans-2e" x="55.615234"/>
       <use xlink:href="#LiberationSans-30" x="83.398438"/>
      </g>
     </g>
    </g>
    <g id="xtick_2">
     <g id="line2d_2">
      <g>
       <use xlink:href="#ma1de61e0a1" x="130.090909" y="256.32" style="stroke: #000000; stroke-width: 1.5"/>
      </g>
     </g>
     <g id="text_2">
      <!-- 0.2 -->
      <g transform="translate(120.360909 273.465625) scale(0.14 -0.14)">
       <defs>
        <path id="LiberationSans-32" d="M 322 0 
L 322 397 
Q 481 763 711 1042 
Q 941 1322 1194 1548 
Q 1447 1775 1695 1969 
Q 1944 2163 2144 2356 
Q 2344 2550 2467 2762 
Q 2591 2975 2591 3244 
Q 2591 3606 2378 3806 
Q 2166 4006 1788 4006 
Q 1428 4006 1195 3811 
Q 963 3616 922 3263 
L 347 3316 
Q 409 3844 795 4156 
Q 1181 4469 1788 4469 
Q 2453 4469 2811 4155 
Q 3169 3841 3169 3263 
Q 3169 3006 3051 2753 
Q 2934 2500 2703 2247 
Q 2472 1994 1819 1463 
Q 1459 1169 1246 933 
Q 1034 697 941 478 
L 3238 478 
L 3238 0 
L 322 0 
z
" transform="scale(0.015625)"/>
       </defs>
       <use xlink:href="#LiberationSans-30"/>
       <use xlink:href="#LiberationSans-2e" x="55.615234"/>
       <use xlink:href="#LiberationSans-32" x="83.398438"/>
      </g>
     </g>
    </g>
    <g id="xtick_3">
     <g id="line2d_3">
      <g>
       <use xlink:href="#ma1de61e0a1" x="190.963636" y="256.32" style="stroke: #000000; stroke-width: 1.5"/>
      </g>
     </g>
     <g id="text_3">
      <!-- 0.4 -->
      <g transform="translate(181.233636 273.465625) scale(0.14 -0.14)">
       <defs>
        <path id="LiberationSans-34" d="M 2753 997 
L 2753 0 
L 2222 0 
L 2222 997 
L 147 997 
L 147 1434 
L 2163 4403 
L 2753 4403 
L 2753 1441 
L 3372 1441 
L 3372 997 
L 2753 997 
z
M 2222 3769 
Q 2216 3750 2134 3603 
Q 2053 3456 2013 3397 
L 884 1734 
L 716 1503 
L 666 1441 
L 2222 1441 
L 2222 3769 
z
" transform="scale(0.015625)"/>
       </defs>
       <use xlink:href="#LiberationSans-30"/>
       <use xlink:href="#LiberationSans-2e" x="55.615234"/>
       <use xlink:href="#LiberationSans-34" x="83.398438"/>
      </g>
     </g>
    </g>
    <g id="xtick_4">
     <g id="line2d_4">
      <g>
       <use xlink:href="#ma1de61e0a1" x="251.836364" y="256.32" style="stroke: #000000; stroke-width: 1.5"/>
      </g>
     </g>
     <g id="text_4">
      <!-- 0.6 -->
      <g transform="translate(242.106364 273.465625) scale(0.14 -0.14)">
       <defs>
        <path id="LiberationSans-36" d="M 3278 1441 
Q 3278 744 2900 340 
Q 2522 -63 1856 -63 
Q 1113 -63 719 490 
Q 325 1044 325 2100 
Q 325 3244 734 3856 
Q 1144 4469 1900 4469 
Q 2897 4469 3156 3572 
L 2619 3475 
Q 2453 4013 1894 4013 
Q 1413 4013 1148 3564 
Q 884 3116 884 2266 
Q 1038 2550 1316 2698 
Q 1594 2847 1953 2847 
Q 2563 2847 2920 2465 
Q 3278 2084 3278 1441 
z
M 2706 1416 
Q 2706 1894 2472 2153 
Q 2238 2413 1819 2413 
Q 1425 2413 1183 2183 
Q 941 1953 941 1550 
Q 941 1041 1192 716 
Q 1444 391 1838 391 
Q 2244 391 2475 664 
Q 2706 938 2706 1416 
z
" transform="scale(0.015625)"/>
       </defs>
       <use xlink:href="#LiberationSans-30"/>
       <use xlink:href="#LiberationSans-2e" x="55.615234"/>
       <use xlink:href="#LiberationSans-36" x="83.398438"/>
      </g>
     </g>
    </g>
    <g id="xtick_5">
     <g id="line2d_5">
      <g>
       <use xlink:href="#ma1de61e0a1" x="312.709091" y="256.32" style="stroke: #000000; stroke-width: 1.5"/>
      </g>
     </g>
     <g id="text_5">
      <!-- 0.8 -->
      <g transform="translate(302.979091 273.465625) scale(0.14 -0.14)">
       <defs>
        <path id="LiberationSans-38" d="M 3281 1228 
Q 3281 619 2893 278 
Q 2506 -63 1781 -63 
Q 1075 -63 676 271 
Q 278 606 278 1222 
Q 278 1653 525 1947 
Q 772 2241 1156 2303 
L 1156 2316 
Q 797 2400 589 2681 
Q 381 2963 381 3341 
Q 381 3844 757 4156 
Q 1134 4469 1769 4469 
Q 2419 4469 2795 4162 
Q 3172 3856 3172 3334 
Q 3172 2956 2962 2675 
Q 2753 2394 2391 2322 
L 2391 2309 
Q 2813 2241 3047 1952 
Q 3281 1663 3281 1228 
z
M 2588 3303 
Q 2588 4050 1769 4050 
Q 1372 4050 1164 3862 
Q 956 3675 956 3303 
Q 956 2925 1170 2726 
Q 1384 2528 1775 2528 
Q 2172 2528 2380 2711 
Q 2588 2894 2588 3303 
z
M 2697 1281 
Q 2697 1691 2453 1898 
Q 2209 2106 1769 2106 
Q 1341 2106 1100 1882 
Q 859 1659 859 1269 
Q 859 359 1788 359 
Q 2247 359 2472 579 
Q 2697 800 2697 1281 
z
" transform="scale(0.015625)"/>
       </defs>
       <use xlink:href="#LiberationSans-30"/>
       <use xlink:href="#LiberationSans-2e" x="55.615234"/>
       <use xlink:href="#LiberationSans-38" x="83.398438"/>
      </g>
     </g>
    </g>
    <g id="xtick_6">
     <g id="line2d_6">
      <g>
       <use xlink:href="#ma1de61e0a1" x="373.581818" y="256.32" style="stroke: #000000; stroke-width: 1.5"/>
      </g>
     </g>
     <g id="text_6">
      <!-- 1.0 -->
      <g transform="translate(363.851818 273.465625) scale(0.14 -0.14)">
       <defs>
        <path id="LiberationSans-31" d="M 488 0 
L 488 478 
L 1609 478 
L 1609 3866 
L 616 3156 
L 616 3688 
L 1656 4403 
L 2175 4403 
L 2175 478 
L 3247 478 
L 3247 0 
L 488 0 
z
" transform="scale(0.015625)"/>
       </defs>
       <use xlink:href="#LiberationSans-31"/>
       <use xlink:href="#LiberationSans-2e" x="55.615234"/>
       <use xlink:href="#LiberationSans-30" x="83.398438"/>
      </g>
     </g>
    </g>
    <g id="text_7">
     <!-- Context Strength -->
     <g transform="translate(161.36875 291.965625) scale(0.16 -0.16)">
      <defs>
       <path id="LiberationSans-43" d="M 2475 3981 
Q 1744 3981 1337 3511 
Q 931 3041 931 2222 
Q 931 1413 1354 920 
Q 1778 428 2500 428 
Q 3425 428 3891 1344 
L 4378 1100 
Q 4106 531 3614 234 
Q 3122 -63 2472 -63 
Q 1806 -63 1320 214 
Q 834 491 579 1005 
Q 325 1519 325 2222 
Q 325 3275 894 3872 
Q 1463 4469 2469 4469 
Q 3172 4469 3644 4194 
Q 4116 3919 4338 3378 
L 3772 3191 
Q 3619 3575 3280 3778 
Q 2941 3981 2475 3981 
z
" transform="scale(0.015625)"/>
       <path id="LiberationSans-6f" d="M 3291 1694 
Q 3291 806 2900 371 
Q 2509 -63 1766 -63 
Q 1025 -63 647 389 
Q 269 841 269 1694 
Q 269 3444 1784 3444 
Q 2559 3444 2925 3017 
Q 3291 2591 3291 1694 
z
M 2700 1694 
Q 2700 2394 2492 2711 
Q 2284 3028 1794 3028 
Q 1300 3028 1079 2704 
Q 859 2381 859 1694 
Q 859 1025 1076 689 
Q 1294 353 1759 353 
Q 2266 353 2483 678 
Q 2700 1003 2700 1694 
z
" transform="scale(0.015625)"/>
       <path id="LiberationSans-6e" d="M 2578 0 
L 2578 2144 
Q 2578 2478 2512 2662 
Q 2447 2847 2303 2928 
Q 2159 3009 1881 3009 
Q 1475 3009 1240 2731 
Q 1006 2453 1006 1959 
L 1006 0 
L 444 0 
L 444 2659 
Q 444 3250 425 3381 
L 956 3381 
Q 959 3366 962 3297 
Q 966 3228 970 3139 
Q 975 3050 981 2803 
L 991 2803 
Q 1184 3153 1439 3298 
Q 1694 3444 2072 3444 
Q 2628 3444 2886 3167 
Q 3144 2891 3144 2253 
L 3144 0 
L 2578 0 
z
" transform="scale(0.015625)"/>
       <path id="LiberationSans-74" d="M 1731 25 
Q 1453 -50 1163 -50 
Q 488 -50 488 716 
L 488 2972 
L 97 2972 
L 97 3381 
L 509 3381 
L 675 4138 
L 1050 4138 
L 1050 3381 
L 1675 3381 
L 1675 2972 
L 1050 2972 
L 1050 838 
Q 1050 594 1129 495 
Q 1209 397 1406 397 
Q 1519 397 1731 441 
L 1731 25 
z
" transform="scale(0.015625)"/>
       <path id="LiberationSans-65" d="M 863 1572 
Q 863 991 1103 675 
Q 1344 359 1806 359 
Q 2172 359 2392 506 
Q 2613 653 2691 878 
L 3184 738 
Q 2881 -63 1806 -63 
Q 1056 -63 664 384 
Q 272 831 272 1713 
Q 272 2550 664 2997 
Q 1056 3444 1784 3444 
Q 3275 3444 3275 1647 
L 3275 1572 
L 863 1572 
z
M 2694 2003 
Q 2647 2538 2422 2783 
Q 2197 3028 1775 3028 
Q 1366 3028 1127 2754 
Q 888 2481 869 2003 
L 2694 2003 
z
" transform="scale(0.015625)"/>
       <path id="LiberationSans-78" d="M 2503 0 
L 1594 1388 
L 678 0 
L 72 0 
L 1275 1738 
L 128 3381 
L 750 3381 
L 1594 2066 
L 2431 3381 
L 3059 3381 
L 1913 1744 
L 3131 0 
L 2503 0 
z
" transform="scale(0.015625)"/>
       <path id="LiberationSans-20" transform="scale(0.015625)"/>
       <path id="LiberationSans-53" d="M 3975 1216 
Q 3975 606 3498 271 
Q 3022 -63 2156 -63 
Q 547 -63 291 1056 
L 869 1172 
Q 969 775 1294 589 
Q 1619 403 2178 403 
Q 2756 403 3070 601 
Q 3384 800 3384 1184 
Q 3384 1400 3286 1534 
Q 3188 1669 3009 1756 
Q 2831 1844 2584 1903 
Q 2338 1963 2038 2031 
Q 1516 2147 1245 2262 
Q 975 2378 819 2520 
Q 663 2663 580 2853 
Q 497 3044 497 3291 
Q 497 3856 930 4162 
Q 1363 4469 2169 4469 
Q 2919 4469 3316 4239 
Q 3713 4009 3872 3456 
L 3284 3353 
Q 3188 3703 2916 3861 
Q 2644 4019 2163 4019 
Q 1634 4019 1356 3844 
Q 1078 3669 1078 3322 
Q 1078 3119 1186 2986 
Q 1294 2853 1497 2761 
Q 1700 2669 2306 2534 
Q 2509 2488 2711 2439 
Q 2913 2391 3097 2323 
Q 3281 2256 3442 2165 
Q 3603 2075 3722 1944 
Q 3841 1813 3908 1634 
Q 3975 1456 3975 1216 
z
" transform="scale(0.015625)"/>
       <path id="LiberationSans-72" d="M 444 0 
L 444 2594 
Q 444 2950 425 3381 
L 956 3381 
Q 981 2806 981 2691 
L 994 2691 
Q 1128 3125 1303 3284 
Q 1478 3444 1797 3444 
Q 1909 3444 2025 3413 
L 2025 2897 
Q 1913 2928 1725 2928 
Q 1375 2928 1190 2626 
Q 1006 2325 1006 1763 
L 1006 0 
L 444 0 
z
" transform="scale(0.015625)"/>
       <path id="LiberationSans-67" d="M 1713 -1328 
Q 1159 -1328 831 -1111 
Q 503 -894 409 -494 
L 975 -413 
Q 1031 -647 1223 -773 
Q 1416 -900 1728 -900 
Q 2569 -900 2569 84 
L 2569 628 
L 2563 628 
Q 2403 303 2125 139 
Q 1847 -25 1475 -25 
Q 853 -25 561 387 
Q 269 800 269 1684 
Q 269 2581 583 3007 
Q 897 3434 1538 3434 
Q 1897 3434 2161 3270 
Q 2425 3106 2569 2803 
L 2575 2803 
Q 2575 2897 2587 3128 
Q 2600 3359 2613 3381 
L 3147 3381 
Q 3128 3213 3128 2681 
L 3128 97 
Q 3128 -1328 1713 -1328 
z
M 2569 1691 
Q 2569 2103 2456 2401 
Q 2344 2700 2139 2858 
Q 1934 3016 1675 3016 
Q 1244 3016 1047 2703 
Q 850 2391 850 1691 
Q 850 997 1034 694 
Q 1219 391 1666 391 
Q 1931 391 2137 547 
Q 2344 703 2456 995 
Q 2569 1288 2569 1691 
z
" transform="scale(0.015625)"/>
       <path id="LiberationSans-68" d="M 991 2803 
Q 1172 3134 1426 3289 
Q 1681 3444 2072 3444 
Q 2622 3444 2883 3170 
Q 3144 2897 3144 2253 
L 3144 0 
L 2578 0 
L 2578 2144 
Q 2578 2500 2512 2673 
Q 2447 2847 2297 2928 
Q 2147 3009 1881 3009 
Q 1484 3009 1245 2734 
Q 1006 2459 1006 1994 
L 1006 0 
L 444 0 
L 444 4638 
L 1006 4638 
L 1006 3431 
Q 1006 3241 995 3037 
Q 984 2834 981 2803 
L 991 2803 
z
" transform="scale(0.015625)"/>
      </defs>
      <use xlink:href="#LiberationSans-43"/>
      <use xlink:href="#LiberationSans-6f" x="72.216797"/>
      <use xlink:href="#LiberationSans-6e" x="127.832031"/>
      <use xlink:href="#LiberationSans-74" x="183.447266"/>
      <use xlink:href="#LiberationSans-65" x="211.230469"/>
      <use xlink:href="#LiberationSans-78" x="266.845703"/>
      <use xlink:href="#LiberationSans-74" x="316.845703"/>
      <use xlink:href="#LiberationSans-20" x="344.628906"/>
      <use xlink:href="#LiberationSans-53" x="372.412109"/>
      <use xlink:href="#LiberationSans-74" x="439.111328"/>
      <use xlink:href="#LiberationSans-72" x="466.894531"/>
      <use xlink:href="#LiberationSans-65" x="500.195312"/>
      <use xlink:href="#LiberationSans-6e" x="555.810547"/>
      <use xlink:href="#LiberationSans-67" x="611.425781"/>
      <use xlink:href="#LiberationSans-74" x="667.041016"/>
      <use xlink:href="#LiberationSans-68" x="694.824219"/>
     </g>
    </g>
   </g>
   <g id="matplotlib.axis_2">
    <g id="ytick_1">
     <g id="line2d_7">
      <defs>
       <path id="m48cef6e30b" d="M 0 0 
L -3.5 0 
" style="stroke: #000000; stroke-width: 1.5"/>
      </defs>
      <g>
       <use xlink:href="#m48cef6e30b" x="54" y="239.261538" style="stroke: #000000; stroke-width: 1.5"/>
      </g>
     </g>
     <g id="text_8">
      <!-- 0.4 -->
      <g transform="translate(27.54 244.334351) scale(0.14 -0.14)">
       <use xlink:href="#LiberationSans-30"/>
       <use xlink:href="#LiberationSans-2e" x="55.615234"/>
       <use xlink:href="#LiberationSans-34" x="83.398438"/>
      </g>
     </g>
    </g>
    <g id="ytick_2">
     <g id="line2d_8">
      <g>
       <use xlink:href="#m48cef6e30b" x="54" y="205.144615" style="stroke: #000000; stroke-width: 1.5"/>
      </g>
     </g>
     <g id="text_9">
      <!-- 0.5 -->
      <g transform="translate(27.54 210.217428) scale(0.14 -0.14)">
       <defs>
        <path id="LiberationSans-35" d="M 3291 1434 
Q 3291 738 2877 337 
Q 2463 -63 1728 -63 
Q 1113 -63 734 206 
Q 356 475 256 984 
L 825 1050 
Q 1003 397 1741 397 
Q 2194 397 2450 670 
Q 2706 944 2706 1422 
Q 2706 1838 2448 2094 
Q 2191 2350 1753 2350 
Q 1525 2350 1328 2278 
Q 1131 2206 934 2034 
L 384 2034 
L 531 4403 
L 3034 4403 
L 3034 3925 
L 1044 3925 
L 959 2528 
Q 1325 2809 1869 2809 
Q 2519 2809 2905 2428 
Q 3291 2047 3291 1434 
z
" transform="scale(0.015625)"/>
       </defs>
       <use xlink:href="#LiberationSans-30"/>
       <use xlink:href="#LiberationSans-2e" x="55.615234"/>
       <use xlink:href="#LiberationSans-35" x="83.398438"/>
      </g>
     </g>
    </g>
    <g id="ytick_3">
     <g id="line2d_9">
      <g>
       <use xlink:href="#m48cef6e30b" x="54" y="171.027692" style="stroke: #000000; stroke-width: 1.5"/>
      </g>
     </g>
     <g id="text_10">
      <!-- 0.6 -->
      <g transform="translate(27.54 176.100505) scale(0.14 -0.14)">
       <use xlink:href="#LiberationSans-30"/>
       <use xlink:href="#LiberationSans-2e" x="55.615234"/>
       <use xlink:href="#LiberationSans-36" x="83.398438"/>
      </g>
     </g>
    </g>
    <g id="ytick_4">
     <g id="line2d_10">
      <g>
       <use xlink:href="#m48cef6e30b" x="54" y="136.910769" style="stroke: #000000; stroke-width: 1.5"/>
      </g>
     </g>
     <g id="text_11">
      <!-- 0.7 -->
      <g transform="translate(27.54 141.983582) scale(0.14 -0.14)">
       <defs>
        <path id="LiberationSans-37" d="M 3238 3947 
Q 2563 2916 2284 2331 
Q 2006 1747 1867 1178 
Q 1728 609 1728 0 
L 1141 0 
Q 1141 844 1498 1776 
Q 1856 2709 2694 3925 
L 328 3925 
L 328 4403 
L 3238 4403 
L 3238 3947 
z
" transform="scale(0.015625)"/>
       </defs>
       <use xlink:href="#LiberationSans-30"/>
       <use xlink:href="#LiberationSans-2e" x="55.615234"/>
       <use xlink:href="#LiberationSans-37" x="83.398438"/>
      </g>
     </g>
    </g>
    <g id="ytick_5">
     <g id="line2d_11">
      <g>
       <use xlink:href="#m48cef6e30b" x="54" y="102.793846" style="stroke: #000000; stroke-width: 1.5"/>
      </g>
     </g>
     <g id="text_12">
      <!-- 0.8 -->
      <g transform="translate(27.54 107.866659) scale(0.14 -0.14)">
       <use xlink:href="#LiberationSans-30"/>
       <use xlink:href="#LiberationSans-2e" x="55.615234"/>
       <use xlink:href="#LiberationSans-38" x="83.398438"/>
      </g>
     </g>
    </g>
    <g id="ytick_6">
     <g id="line2d_12">
      <g>
       <use xlink:href="#m48cef6e30b" x="54" y="68.676923" style="stroke: #000000; stroke-width: 1.5"/>
      </g>
     </g>
     <g id="text_13">
      <!-- 0.9 -->
      <g transform="translate(27.54 73.749736) scale(0.14 -0.14)">
       <defs>
        <path id="LiberationSans-39" d="M 3256 2291 
Q 3256 1156 2842 546 
Q 2428 -63 1663 -63 
Q 1147 -63 836 154 
Q 525 372 391 856 
L 928 941 
Q 1097 391 1672 391 
Q 2156 391 2422 841 
Q 2688 1291 2700 2125 
Q 2575 1844 2272 1673 
Q 1969 1503 1606 1503 
Q 1013 1503 656 1909 
Q 300 2316 300 2988 
Q 300 3678 687 4073 
Q 1075 4469 1766 4469 
Q 2500 4469 2878 3925 
Q 3256 3381 3256 2291 
z
M 2644 2834 
Q 2644 3366 2400 3689 
Q 2156 4013 1747 4013 
Q 1341 4013 1106 3736 
Q 872 3459 872 2988 
Q 872 2506 1106 2226 
Q 1341 1947 1741 1947 
Q 1984 1947 2193 2058 
Q 2403 2169 2523 2372 
Q 2644 2575 2644 2834 
z
" transform="scale(0.015625)"/>
       </defs>
       <use xlink:href="#LiberationSans-30"/>
       <use xlink:href="#LiberationSans-2e" x="55.615234"/>
       <use xlink:href="#LiberationSans-39" x="83.398438"/>
      </g>
     </g>
    </g>
    <g id="ytick_7">
     <g id="line2d_13">
      <g>
       <use xlink:href="#m48cef6e30b" x="54" y="34.56" style="stroke: #000000; stroke-width: 1.5"/>
      </g>
     </g>
     <g id="text_14">
      <!-- 1.0 -->
      <g transform="translate(27.54 39.632812) scale(0.14 -0.14)">
       <use xlink:href="#LiberationSans-31"/>
       <use xlink:href="#LiberationSans-2e" x="55.615234"/>
       <use xlink:href="#LiberationSans-30" x="83.398438"/>
      </g>
     </g>
    </g>
    <g id="text_15">
     <!-- Accuracy -->
     <g transform="translate(20.22 178.3375) rotate(-90) scale(0.16 -0.16)">
      <defs>
       <path id="LiberationSans-41" d="M 3647 0 
L 3144 1288 
L 1138 1288 
L 631 0 
L 13 0 
L 1809 4403 
L 2488 4403 
L 4256 0 
L 3647 0 
z
M 2141 3953 
L 2113 3866 
Q 2034 3606 1881 3200 
L 1319 1753 
L 2966 1753 
L 2400 3206 
Q 2313 3422 2225 3694 
L 2141 3953 
z
" transform="scale(0.015625)"/>
       <path id="LiberationSans-63" d="M 859 1706 
Q 859 1031 1071 706 
Q 1284 381 1713 381 
Q 2013 381 2214 543 
Q 2416 706 2463 1044 
L 3031 1006 
Q 2966 519 2616 228 
Q 2266 -63 1728 -63 
Q 1019 -63 645 385 
Q 272 834 272 1694 
Q 272 2547 647 2995 
Q 1022 3444 1722 3444 
Q 2241 3444 2583 3175 
Q 2925 2906 3013 2434 
L 2434 2391 
Q 2391 2672 2212 2837 
Q 2034 3003 1706 3003 
Q 1259 3003 1059 2706 
Q 859 2409 859 1706 
z
" transform="scale(0.015625)"/>
       <path id="LiberationSans-75" d="M 981 3381 
L 981 1238 
Q 981 903 1047 718 
Q 1113 534 1256 453 
Q 1400 372 1678 372 
Q 2084 372 2318 650 
Q 2553 928 2553 1422 
L 2553 3381 
L 3116 3381 
L 3116 722 
Q 3116 131 3134 0 
L 2603 0 
Q 2600 16 2597 84 
Q 2594 153 2589 242 
Q 2584 331 2578 578 
L 2569 578 
Q 2375 228 2120 82 
Q 1866 -63 1488 -63 
Q 931 -63 673 214 
Q 416 491 416 1128 
L 416 3381 
L 981 3381 
z
" transform="scale(0.015625)"/>
       <path id="LiberationSans-61" d="M 1294 -63 
Q 784 -63 528 206 
Q 272 475 272 944 
Q 272 1469 617 1750 
Q 963 2031 1731 2050 
L 2491 2063 
L 2491 2247 
Q 2491 2659 2316 2837 
Q 2141 3016 1766 3016 
Q 1388 3016 1216 2887 
Q 1044 2759 1009 2478 
L 422 2531 
Q 566 3444 1778 3444 
Q 2416 3444 2737 3151 
Q 3059 2859 3059 2306 
L 3059 850 
Q 3059 600 3125 473 
Q 3191 347 3375 347 
Q 3456 347 3559 369 
L 3559 19 
Q 3347 -31 3125 -31 
Q 2813 -31 2670 133 
Q 2528 297 2509 647 
L 2491 647 
Q 2275 259 1989 98 
Q 1703 -63 1294 -63 
z
M 1422 359 
Q 1731 359 1972 500 
Q 2213 641 2352 886 
Q 2491 1131 2491 1391 
L 2491 1669 
L 1875 1656 
Q 1478 1650 1273 1575 
Q 1069 1500 959 1344 
Q 850 1188 850 934 
Q 850 659 998 509 
Q 1147 359 1422 359 
z
" transform="scale(0.015625)"/>
       <path id="LiberationSans-79" d="M 597 -1328 
Q 366 -1328 209 -1294 
L 209 -872 
Q 328 -891 472 -891 
Q 997 -891 1303 -119 
L 1356 16 
L 16 3381 
L 616 3381 
L 1328 1513 
Q 1344 1469 1366 1408 
Q 1388 1347 1506 1000 
Q 1625 653 1634 613 
L 1853 1228 
L 2594 3381 
L 3188 3381 
L 1888 0 
Q 1678 -541 1497 -805 
Q 1316 -1069 1095 -1198 
Q 875 -1328 597 -1328 
z
" transform="scale(0.015625)"/>
      </defs>
      <use xlink:href="#LiberationSans-41"/>
      <use xlink:href="#LiberationSans-63" x="66.699219"/>
      <use xlink:href="#LiberationSans-63" x="116.699219"/>
      <use xlink:href="#LiberationSans-75" x="166.699219"/>
      <use xlink:href="#LiberationSans-72" x="222.314453"/>
      <use xlink:href="#LiberationSans-61" x="255.615234"/>
      <use xlink:href="#LiberationSans-63" x="311.230469"/>
      <use xlink:href="#LiberationSans-79" x="361.230469"/>
     </g>
    </g>
   </g>
   <g id="line2d_14">
    <path d="M 69.218182 176.397624 
L 72.261818 176.367691 
L 75.305455 176.336314 
L 78.349091 176.303826 
L 81.392727 176.271882 
L 84.436364 176.2404 
L 87.48 176.20729 
L 90.523636 176.173657 
L 93.567273 176.137638 
L 96.610909 176.097889 
L 99.654545 176.054422 
L 102.698182 176.007709 
L 105.741818 175.954773 
L 108.785455 175.89417 
L 111.829091 175.815149 
L 114.872727 175.726796 
L 117.916364 175.627581 
L 120.96 175.502694 
L 124.003636 175.353759 
L 127.047273 175.186714 
L 130.090909 174.993039 
L 133.134545 174.771612 
L 136.178182 174.494876 
L 139.221818 174.163097 
L 142.265455 173.773506 
L 145.309091 173.279428 
L 148.352727 172.733812 
L 151.396364 172.093248 
L 154.44 171.356233 
L 157.483636 170.507506 
L 160.527273 169.581992 
L 163.570909 168.502564 
L 166.614545 167.290545 
L 169.658182 165.900591 
L 172.701818 164.361566 
L 175.745455 162.574672 
L 178.789091 160.546876 
L 181.832727 158.296011 
L 184.876364 155.856897 
L 187.92 153.164426 
L 190.963636 150.133393 
L 194.007273 146.778343 
L 197.050909 143.089586 
L 200.094545 138.960163 
L 203.138182 134.498645 
L 206.181818 129.715414 
L 209.225455 124.548895 
L 212.269091 119.169848 
L 215.312727 113.684412 
L 218.356364 108.109339 
L 221.4 102.485354 
L 224.443636 96.937466 
L 227.487273 91.458152 
L 230.530909 86.244984 
L 233.574545 81.267469 
L 236.618182 76.61334 
L 239.661818 72.219865 
L 242.705455 68.149961 
L 245.749091 64.445333 
L 248.792727 61.082789 
L 251.836364 58.044692 
L 254.88 55.338215 
L 257.923636 52.998782 
L 260.967273 50.952878 
L 264.010909 49.17392 
L 267.054545 47.633062 
L 270.098182 46.285792 
L 273.141818 45.120944 
L 276.185455 44.158215 
L 279.229091 43.364834 
L 282.272727 42.688905 
L 285.316364 42.119831 
L 288.36 41.646056 
L 291.403636 41.247124 
L 294.447273 40.908373 
L 297.490909 40.624697 
L 300.534545 40.391151 
L 303.578182 40.191261 
L 306.621818 40.01773 
L 309.665455 39.870942 
L 312.709091 39.752947 
L 315.752727 39.650103 
L 318.796364 39.565518 
L 321.84 39.49199 
L 324.883636 39.428263 
L 327.927273 39.372269 
L 330.970909 39.325756 
L 334.014545 39.285143 
L 337.058182 39.247993 
L 340.101818 39.2147 
L 343.145455 39.185816 
L 346.189091 39.16204 
L 349.232727 39.142902 
L 352.276364 39.127221 
L 355.32 39.113323 
L 358.363636 39.100773 
L 361.407273 39.089136 
L 364.450909 39.077713 
L 367.494545 39.067601 
L 370.538182 39.058896 
L 373.581818 39.051082 
" clip-path="url(#p3db1cece79)" style="fill: none; stroke: #c0d9ff; stroke-width: 1.5; stroke-linecap: square"/>
   </g>
   <g id="line2d_15">
    <path d="M 69.218182 39.723064 
L 72.261818 39.734525 
L 75.305455 39.748044 
L 78.349091 39.76376 
L 81.392727 39.778873 
L 84.436364 39.793258 
L 87.48 39.808942 
L 90.523636 39.824529 
L 93.567273 39.843137 
L 96.610909 39.864151 
L 99.654545 39.889389 
L 102.698182 39.915877 
L 105.741818 39.94827 
L 108.785455 39.990596 
L 111.829091 40.052264 
L 114.872727 40.122548 
L 117.916364 40.202122 
L 120.96 40.30565 
L 124.003636 40.433871 
L 127.047273 40.578185 
L 130.090909 40.751463 
L 133.134545 40.953296 
L 136.178182 41.209187 
L 139.221818 41.521225 
L 142.265455 41.893296 
L 145.309091 42.368251 
L 148.352727 42.892545 
L 151.396364 43.50924 
L 154.44 44.220126 
L 157.483636 45.04021 
L 160.527273 45.937573 
L 163.570909 46.987545 
L 166.614545 48.174257 
L 169.658182 49.536083 
L 172.701818 51.049342 
L 175.745455 52.808329 
L 178.789091 54.807519 
L 181.832727 57.028959 
L 184.876364 59.44387 
L 187.92 62.116209 
L 190.963636 65.122309 
L 194.007273 68.451908 
L 197.050909 72.121055 
L 200.094545 76.229695 
L 203.138182 80.674152 
L 206.181818 85.445187 
L 209.225455 90.599899 
L 212.269091 95.965674 
L 215.312727 101.43842 
L 218.356364 107.015556 
L 221.4 112.637182 
L 224.443636 118.187426 
L 227.487273 123.670597 
L 230.530909 128.887712 
L 233.574545 133.871511 
L 236.618182 138.526683 
L 239.661818 142.923615 
L 242.705455 147.001476 
L 245.749091 150.718452 
L 248.792727 154.090068 
L 251.836364 157.136131 
L 254.88 159.848669 
L 257.923636 162.1961 
L 260.967273 164.25158 
L 264.010909 166.040111 
L 267.054545 167.591424 
L 270.098182 168.947951 
L 273.141818 170.125745 
L 276.185455 171.101975 
L 279.229091 171.906365 
L 282.272727 172.591999 
L 285.316364 173.171984 
L 288.36 173.654526 
L 291.403636 174.061382 
L 294.447273 174.409454 
L 297.490909 174.702446 
L 300.534545 174.946589 
L 303.578182 175.156943 
L 306.621818 175.342119 
L 309.665455 175.502221 
L 312.709091 175.633217 
L 315.752727 175.74928 
L 318.796364 175.846402 
L 321.84 175.931418 
L 324.883636 176.006703 
L 327.927273 176.074526 
L 330.970909 176.133721 
L 334.014545 176.186269 
L 337.058182 176.234522 
L 340.101818 176.280294 
L 343.145455 176.321821 
L 346.189091 176.358515 
L 349.232727 176.390724 
L 352.276364 176.419276 
L 355.32 176.445909 
L 358.363636 176.471467 
L 361.407273 176.496154 
L 364.450909 176.52086 
L 367.494545 176.54365 
L 370.538182 176.565124 
L 373.581818 176.585667 
" clip-path="url(#p3db1cece79)" style="fill: none; stroke: #ffbfc4; stroke-width: 1.5; stroke-linecap: square"/>
   </g>
   <g id="patch_3">
    <path d="M 54 256.32 
L 54 34.56 
" style="fill: none; stroke: #000000; stroke-width: 1.5; stroke-linejoin: miter; stroke-linecap: square"/>
   </g>
   <g id="patch_4">
    <path d="M 54 256.32 
L 388.8 256.32 
" style="fill: none; stroke: #000000; stroke-width: 1.5; stroke-linejoin: miter; stroke-linecap: square"/>
   </g>
   <g id="legend_1">
    <g id="patch_5">
     <path d="M 298.414688 249.32 
L 379 249.32 
Q 381.8 249.32 381.8 246.52 
L 381.8 207.81875 
Q 381.8 205.01875 379 205.01875 
L 298.414688 205.01875 
Q 295.614688 205.01875 295.614688 207.81875 
L 295.614688 246.52 
Q 295.614688 249.32 298.414688 249.32 
z
" style="fill: #ffffff; opacity: 0.8; stroke: #cccccc; stroke-linejoin: miter"/>
    </g>
    <g id="line2d_16">
     <path d="M 301.214688 215.864375 
L 315.214688 215.864375 
L 329.214688 215.864375 
" style="fill: none; stroke: #c0d9ff; stroke-width: 1.5; stroke-linecap: square"/>
    </g>
    <g id="text_16">
     <!-- Parity -->
     <g transform="translate(340.414688 220.764375) scale(0.14 -0.14)">
      <defs>
       <path id="LiberationSans-50" d="M 3931 3078 
Q 3931 2453 3523 2084 
Q 3116 1716 2416 1716 
L 1122 1716 
L 1122 0 
L 525 0 
L 525 4403 
L 2378 4403 
Q 3119 4403 3525 4056 
Q 3931 3709 3931 3078 
z
M 3331 3072 
Q 3331 3925 2306 3925 
L 1122 3925 
L 1122 2188 
L 2331 2188 
Q 3331 2188 3331 3072 
z
" transform="scale(0.015625)"/>
       <path id="LiberationSans-69" d="M 428 4100 
L 428 4638 
L 991 4638 
L 991 4100 
L 428 4100 
z
M 428 0 
L 428 3381 
L 991 3381 
L 991 0 
L 428 0 
z
" transform="scale(0.015625)"/>
      </defs>
      <use xlink:href="#LiberationSans-50"/>
      <use xlink:href="#LiberationSans-61" x="66.699219"/>
      <use xlink:href="#LiberationSans-72" x="122.314453"/>
      <use xlink:href="#LiberationSans-69" x="155.615234"/>
      <use xlink:href="#LiberationSans-74" x="177.832031"/>
      <use xlink:href="#LiberationSans-79" x="205.615234"/>
     </g>
    </g>
    <g id="line2d_17">
     <path d="M 301.214688 235.915 
L 315.214688 235.915 
L 329.214688 235.915 
" style="fill: none; stroke: #ffbfc4; stroke-width: 1.5; stroke-linecap: square"/>
    </g>
    <g id="text_17">
     <!-- Value -->
     <g transform="translate(340.414688 240.815) scale(0.14 -0.14)">
      <defs>
       <path id="LiberationSans-56" d="M 2444 0 
L 1825 0 
L 28 4403 
L 656 4403 
L 1875 1303 
L 2138 525 
L 2400 1303 
L 3613 4403 
L 4241 4403 
L 2444 0 
z
" transform="scale(0.015625)"/>
       <path id="LiberationSans-6c" d="M 431 0 
L 431 4638 
L 994 4638 
L 994 0 
L 431 0 
z
" transform="scale(0.015625)"/>
      </defs>
      <use xlink:href="#LiberationSans-56"/>
      <use xlink:href="#LiberationSans-61" x="59.324219"/>
      <use xlink:href="#LiberationSans-6c" x="114.939453"/>
      <use xlink:href="#LiberationSans-75" x="137.15625"/>
      <use xlink:href="#LiberationSans-65" x="192.771484"/>
     </g>
    </g>
   </g>
  </g>
 </g>
 <defs>
  <clipPath id="p3db1cece79">
   <rect x="54" y="34.56" width="334.8" height="221.76"/>
  </clipPath>
 </defs>
</svg>
