<?xml version="1.0" encoding="UTF-8" standalone="no"?>
<svg
   width="121mm"
   height="85mm"
   viewBox="0 0 342.99212 240.94489"
   version="1.1"
   id="svg104"
   sodipodi:docname="figureS30.svg"
   inkscape:version="1.3.2 (091e20e, 2023-11-25)"
   xmlns:inkscape="http://www.inkscape.org/namespaces/inkscape"
   xmlns:sodipodi="http://sodipodi.sourceforge.net/DTD/sodipodi-0.dtd"
   xmlns:xlink="http://www.w3.org/1999/xlink"
   xmlns="http://www.w3.org/2000/svg"
   xmlns:svg="http://www.w3.org/2000/svg"
   xmlns:rdf="http://www.w3.org/1999/02/22-rdf-syntax-ns#"
   xmlns:cc="http://creativecommons.org/ns#"
   xmlns:dc="http://purl.org/dc/elements/1.1/">
  <sodipodi:namedview
     id="namedview104"
     pagecolor="#ffffff"
     bordercolor="#000000"
     borderopacity="0.25"
     inkscape:showpageshadow="2"
     inkscape:pageopacity="0.0"
     inkscape:pagecheckerboard="0"
     inkscape:deskcolor="#d1d1d1"
     inkscape:document-units="pt"
     inkscape:zoom="0.61458333"
     inkscape:cx="288"
     inkscape:cy="191.18644"
     inkscape:window-width="1920"
     inkscape:window-height="1080"
     inkscape:window-x="0"
     inkscape:window-y="0"
     inkscape:window-maximized="0"
     inkscape:current-layer="svg104" />
  <metadata
     id="metadata1">
    <rdf:RDF>
      <cc:Work>
        <dc:type
           rdf:resource="http://purl.org/dc/dcmitype/StillImage" />
        <dc:date>2024-02-06T02:54:52.902235</dc:date>
        <dc:format>image/svg+xml</dc:format>
        <dc:creator>
          <cc:Agent>
            <dc:title>Matplotlib v3.7.4, https://matplotlib.org/</dc:title>
          </cc:Agent>
        </dc:creator>
      </cc:Work>
    </rdf:RDF>
  </metadata>
  <defs
     id="defs1">
    <style
       type="text/css"
       id="style1">*{stroke-linejoin: round; stroke-linecap: butt}</style>
  </defs>
  <g
     id="patch_4"
     transform="translate(1.2203424,261.15254)">
    <path
       d="m 101.59729,256.32 h 12.95165 v 0 z"
       clip-path="url(#pac925a7646)"
       style="fill:#c0d9ff"
       id="path4" />
  </g>
  <g
     id="patch_5"
     transform="translate(1.2203424,261.15254)">
    <path
       d="m 133.9764,256.32 h 12.95165 v 0 z"
       clip-path="url(#pac925a7646)"
       style="fill:#c0d9ff"
       id="path5" />
  </g>
  <g
     id="line2d_19"
     transform="translate(1.2203424,261.15254)" />
  <g
     id="g105"
     transform="matrix(0.81739365,0,0,0.81739365,7.7657046,-220.01547)">
    <g
       id="patch_3"
       transform="translate(1.2203424,261.15254)">
      <path
         d="M 69.218182,256.32 H 82.169826 V 208.41984 H 69.218182 Z"
         clip-path="url(#pac925a7646)"
         style="fill:#c0d9ff"
         id="path3" />
    </g>
    <g
       id="patch_6"
       transform="translate(1.2203424,261.15254)">
      <path
         d="m 166.35551,256.32 h 12.95165 v -1.99584 h -12.95165 z"
         clip-path="url(#pac925a7646)"
         style="fill:#c0d9ff"
         id="path6" />
    </g>
    <g
       id="patch_7"
       transform="translate(1.2203424,261.15254)">
      <path
         d="m 198.73462,256.32 h 12.95165 v -23.2848 h -12.95165 z"
         clip-path="url(#pac925a7646)"
         style="fill:#c0d9ff"
         id="path7" />
    </g>
    <g
       id="patch_8"
       transform="translate(1.2203424,261.15254)">
      <path
         d="m 231.11373,256.32 h 12.95165 V 148.98816 h -12.95165 z"
         clip-path="url(#pac925a7646)"
         style="fill:#c0d9ff"
         id="path8" />
    </g>
    <g
       id="patch_9"
       transform="translate(1.2203424,261.15254)">
      <path
         d="m 263.49284,256.32 h 12.95165 V 129.69504 h -12.95165 z"
         clip-path="url(#pac925a7646)"
         style="fill:#c0d9ff"
         id="path9" />
    </g>
    <g
       id="patch_10"
       transform="translate(1.2203424,261.15254)">
      <path
         d="M 295.87195,256.32 H 308.8236 V 108.62784 h -12.95165 z"
         clip-path="url(#pac925a7646)"
         style="fill:#c0d9ff"
         id="path10" />
    </g>
    <g
       id="patch_11"
       transform="translate(1.2203424,261.15254)">
      <path
         d="m 328.25106,256.32 h 12.95165 V 84.23424 h -12.95165 z"
         clip-path="url(#pac925a7646)"
         style="fill:#c0d9ff"
         id="path11" />
    </g>
    <g
       id="patch_12"
       transform="translate(1.2203424,261.15254)">
      <path
         d="m 360.63017,256.32 h 12.95165 V 78.24672 h -12.95165 z"
         clip-path="url(#pac925a7646)"
         style="fill:#c0d9ff"
         id="path12" />
    </g>
    <g
       id="matplotlib.axis_1"
       transform="translate(1.2203424,261.15254)">
      <g
         id="xtick_1">
        <g
           id="line2d_1">
          <defs
             id="defs12">
            <path
               id="m272cd08717"
               d="M 0,0 V 3.5"
               style="stroke:#000000;stroke-width:1.5" />
          </defs>
          <g
             id="g12">
            <use
               xlink:href="#m272cd08717"
               x="75.694"
               y="256.32001"
               style="stroke:#000000;stroke-width:1.5"
               id="use12" />
          </g>
        </g>
        <g
           id="text_1">
          <!-- 1 -->
          <g
             transform="matrix(0.14,0,0,-0.14,71.801348,273.46562)"
             id="g13">
            <defs
               id="defs13">
              <path
                 id="LiberationSans-31"
                 d="M 488,0 V 478 H 1609 V 3866 L 616,3156 v 532 l 1040,715 h 519 V 478 H 3247 V 0 Z"
                 transform="scale(0.015625)" />
            </defs>
            <use
               xlink:href="#LiberationSans-31"
               id="use13" />
          </g>
        </g>
      </g>
      <g
         id="xtick_2">
        <g
           id="line2d_2">
          <g
             id="g14">
            <use
               xlink:href="#m272cd08717"
               x="108.07311"
               y="256.32001"
               style="stroke:#000000;stroke-width:1.5"
               id="use14" />
          </g>
        </g>
        <g
           id="text_2">
          <!-- 2 -->
          <g
             transform="matrix(0.14,0,0,-0.14,104.18046,273.46562)"
             id="g15">
            <defs
               id="defs14">
              <path
                 id="LiberationSans-32"
                 d="m 322,0 v 397 q 159,366 389,645 230,280 483,506 253,227 501,421 249,194 449,387 200,194 323,406 124,213 124,482 0,362 -213,562 -212,200 -590,200 -360,0 -593,-195 -232,-195 -273,-548 l -575,53 q 62,528 448,840 386,313 993,313 665,0 1023,-314 358,-314 358,-892 0,-257 -118,-510 Q 2934,2500 2703,2247 2472,1994 1819,1463 1459,1169 1246,933 1034,697 941,478 H 3238 V 0 Z"
                 transform="scale(0.015625)" />
            </defs>
            <use
               xlink:href="#LiberationSans-32"
               id="use15" />
          </g>
        </g>
      </g>
      <g
         id="xtick_3">
        <g
           id="line2d_3">
          <g
             id="g16">
            <use
               xlink:href="#m272cd08717"
               x="140.45222"
               y="256.32001"
               style="stroke:#000000;stroke-width:1.5"
               id="use16" />
          </g>
        </g>
        <g
           id="text_3">
          <!-- 3 -->
          <g
             transform="matrix(0.14,0,0,-0.14,136.55957,273.46562)"
             id="g17">
            <defs
               id="defs16">
              <path
                 id="LiberationSans-33"
                 d="M 3278,1216 Q 3278,606 2890,271 2503,-63 1784,-63 1116,-63 717,239 319,541 244,1131 l 581,53 q 113,-781 959,-781 425,0 667,209 243,210 243,622 0,360 -277,561 -276,202 -798,202 h -319 v 487 h 306 q 463,0 717,202 255,202 255,558 0,353 -208,557 -207,205 -617,205 -372,0 -602,-191 -229,-190 -267,-537 l -565,44 q 62,541 448,844 386,303 992,303 663,0 1030,-308 367,-308 367,-858 0,-422 -236,-686 -236,-264 -686,-358 v -12 q 494,-53 769,-331 275,-278 275,-700 z"
                 transform="scale(0.015625)" />
            </defs>
            <use
               xlink:href="#LiberationSans-33"
               id="use17" />
          </g>
        </g>
      </g>
      <g
         id="xtick_4">
        <g
           id="line2d_4">
          <g
             id="g18">
            <use
               xlink:href="#m272cd08717"
               x="172.83133"
               y="256.32001"
               style="stroke:#000000;stroke-width:1.5"
               id="use18" />
          </g>
        </g>
        <g
           id="text_4">
          <!-- 4 -->
          <g
             transform="matrix(0.14,0,0,-0.14,168.93868,273.46562)"
             id="g19">
            <defs
               id="defs18">
              <path
                 id="LiberationSans-34"
                 d="M 2753,997 V 0 H 2222 V 997 H 147 v 437 l 2016,2969 h 590 V 1441 h 619 V 997 Z m -531,2772 q -6,-19 -88,-166 -81,-147 -121,-206 L 884,1734 716,1503 666,1441 h 1556 z"
                 transform="scale(0.015625)" />
            </defs>
            <use
               xlink:href="#LiberationSans-34"
               id="use19" />
          </g>
        </g>
      </g>
      <g
         id="xtick_5">
        <g
           id="line2d_5">
          <g
             id="g20">
            <use
               xlink:href="#m272cd08717"
               x="205.21045"
               y="256.32001"
               style="stroke:#000000;stroke-width:1.5"
               id="use20" />
          </g>
        </g>
        <g
           id="text_5">
          <!-- 5 -->
          <g
             transform="matrix(0.14,0,0,-0.14,201.31779,273.46562)"
             id="g21">
            <defs
               id="defs20">
              <path
                 id="LiberationSans-35"
                 d="M 3291,1434 Q 3291,738 2877,337 2463,-63 1728,-63 1113,-63 734,206 356,475 256,984 l 569,66 q 178,-653 916,-653 453,0 709,273 256,274 256,752 0,416 -258,672 -257,256 -695,256 -228,0 -425,-72 -197,-72 -394,-244 H 384 L 531,4403 H 3034 V 3925 H 1044 L 959,2528 q 366,281 910,281 650,0 1036,-381 386,-381 386,-994 z"
                 transform="scale(0.015625)" />
            </defs>
            <use
               xlink:href="#LiberationSans-35"
               id="use21" />
          </g>
        </g>
      </g>
      <g
         id="xtick_6">
        <g
           id="line2d_6">
          <g
             id="g22">
            <use
               xlink:href="#m272cd08717"
               x="237.58955"
               y="256.32001"
               style="stroke:#000000;stroke-width:1.5"
               id="use22" />
          </g>
        </g>
        <g
           id="text_6">
          <!-- 6 -->
          <g
             transform="matrix(0.14,0,0,-0.14,233.6969,273.46562)"
             id="g23">
            <defs
               id="defs22">
              <path
                 id="LiberationSans-36"
                 d="M 3278,1441 Q 3278,744 2900,340 2522,-63 1856,-63 1113,-63 719,490 325,1044 325,2100 q 0,1144 409,1756 410,613 1166,613 997,0 1256,-897 l -537,-97 q -166,538 -725,538 -481,0 -746,-449 -264,-448 -264,-1298 154,284 432,432 278,149 637,149 610,0 967,-382 358,-381 358,-1024 z m -572,-25 q 0,478 -234,737 -234,260 -653,260 -394,0 -636,-230 -242,-230 -242,-633 0,-509 251,-834 252,-325 646,-325 406,0 637,273 231,274 231,752 z"
                 transform="scale(0.015625)" />
            </defs>
            <use
               xlink:href="#LiberationSans-36"
               id="use23" />
          </g>
        </g>
      </g>
      <g
         id="xtick_7">
        <g
           id="line2d_7">
          <g
             id="g24">
            <use
               xlink:href="#m272cd08717"
               x="269.96866"
               y="256.32001"
               style="stroke:#000000;stroke-width:1.5"
               id="use24" />
          </g>
        </g>
        <g
           id="text_7">
          <!-- 7 -->
          <g
             transform="matrix(0.14,0,0,-0.14,266.07601,273.46562)"
             id="g25">
            <defs
               id="defs24">
              <path
                 id="LiberationSans-37"
                 d="M 3238,3947 Q 2563,2916 2284,2331 2006,1747 1867,1178 1728,609 1728,0 h -587 q 0,844 357,1776 358,933 1196,2149 H 328 v 478 h 2910 z"
                 transform="scale(0.015625)" />
            </defs>
            <use
               xlink:href="#LiberationSans-37"
               id="use25" />
          </g>
        </g>
      </g>
      <g
         id="xtick_8">
        <g
           id="line2d_8">
          <g
             id="g26">
            <use
               xlink:href="#m272cd08717"
               x="302.34778"
               y="256.32001"
               style="stroke:#000000;stroke-width:1.5"
               id="use26" />
          </g>
        </g>
        <g
           id="text_8">
          <!-- 8 -->
          <g
             transform="matrix(0.14,0,0,-0.14,298.45512,273.46562)"
             id="g27">
            <defs
               id="defs26">
              <path
                 id="LiberationSans-38"
                 d="M 3281,1228 Q 3281,619 2893,278 2506,-63 1781,-63 1075,-63 676,271 278,606 278,1222 q 0,431 247,725 247,294 631,356 v 13 q -359,84 -567,365 -208,282 -208,660 0,503 376,815 377,313 1012,313 650,0 1026,-307 377,-306 377,-828 0,-378 -210,-659 -209,-281 -571,-353 v -13 q 422,-68 656,-357 234,-289 234,-724 z m -693,2075 q 0,747 -819,747 -397,0 -605,-188 -208,-187 -208,-559 0,-378 214,-577 214,-198 605,-198 397,0 605,183 208,183 208,592 z m 109,-2022 q 0,410 -244,617 -244,208 -684,208 -428,0 -669,-224 -241,-223 -241,-613 0,-910 929,-910 459,0 684,220 225,221 225,702 z"
                 transform="scale(0.015625)" />
            </defs>
            <use
               xlink:href="#LiberationSans-38"
               id="use27" />
          </g>
        </g>
      </g>
      <g
         id="xtick_9">
        <g
           id="line2d_9">
          <g
             id="g28">
            <use
               xlink:href="#m272cd08717"
               x="334.7269"
               y="256.32001"
               style="stroke:#000000;stroke-width:1.5"
               id="use28" />
          </g>
        </g>
        <g
           id="text_9">
          <!-- 9 -->
          <g
             transform="matrix(0.14,0,0,-0.14,330.83423,273.46562)"
             id="g29">
            <defs
               id="defs28">
              <path
                 id="LiberationSans-39"
                 d="M 3256,2291 Q 3256,1156 2842,546 2428,-63 1663,-63 1147,-63 836,154 525,372 391,856 l 537,85 q 169,-550 744,-550 484,0 750,450 266,450 278,1284 -125,-281 -428,-452 -303,-170 -666,-170 -593,0 -950,406 -356,407 -356,1079 0,690 387,1085 388,396 1079,396 734,0 1112,-544 378,-544 378,-1634 z m -612,543 q 0,532 -244,855 -244,324 -653,324 -406,0 -641,-277 -234,-277 -234,-748 0,-482 234,-762 235,-279 635,-279 243,0 452,111 210,111 330,314 121,203 121,462 z"
                 transform="scale(0.015625)" />
            </defs>
            <use
               xlink:href="#LiberationSans-39"
               id="use29" />
          </g>
        </g>
      </g>
      <g
         id="xtick_10">
        <g
           id="line2d_10">
          <g
             id="g30">
            <use
               xlink:href="#m272cd08717"
               x="367.10599"
               y="256.32001"
               style="stroke:#000000;stroke-width:1.5"
               id="use30" />
          </g>
        </g>
        <g
           id="text_10">
          <!-- 10 -->
          <g
             transform="matrix(0.14,0,0,-0.14,359.32068,273.46562)"
             id="g32">
            <defs
               id="defs30">
              <path
                 id="LiberationSans-30"
                 d="M 3309,2203 Q 3309,1100 2920,518 2531,-63 1772,-63 1013,-63 631,515 250,1094 250,2203 q 0,1135 370,1700 371,566 1171,566 778,0 1148,-572 370,-572 370,-1694 z m -571,0 q 0,953 -221,1381 -220,429 -726,429 -519,0 -746,-422 -226,-422 -226,-1388 0,-937 229,-1372 230,-434 730,-434 497,0 728,443 232,444 232,1363 z"
                 transform="scale(0.015625)" />
            </defs>
            <use
               xlink:href="#LiberationSans-31"
               id="use31" />
            <use
               xlink:href="#LiberationSans-30"
               x="55.615234"
               id="use32" />
          </g>
        </g>
      </g>
      <g
         id="text_11">
        <!-- Layer -->
        <g
           transform="matrix(0.16,0,0,-0.16,201.39,291.96562)"
           id="g37">
          <defs
             id="defs32">
            <path
               id="LiberationSans-4c"
               d="m 525,0 v 4403 h 597 V 488 H 3347 V 0 Z"
               transform="scale(0.015625)" />
            <path
               id="LiberationSans-61"
               d="m 1294,-63 q -510,0 -766,269 -256,269 -256,738 0,525 345,806 346,281 1114,300 l 760,13 v 184 q 0,412 -175,590 -175,179 -550,179 -378,0 -550,-129 -172,-128 -207,-409 l -587,53 q 144,913 1356,913 638,0 959,-293 322,-292 322,-845 V 850 q 0,-250 66,-377 66,-126 250,-126 81,0 184,22 V 19 q -212,-50 -434,-50 -312,0 -455,164 -142,164 -161,514 h -18 Q 2275,259 1989,98 1703,-63 1294,-63 Z m 128,422 q 309,0 550,141 241,141 380,386 139,245 139,505 v 278 l -616,-13 q -397,-6 -602,-81 Q 1069,1500 959,1344 850,1188 850,934 850,659 998,509 1147,359 1422,359 Z"
               transform="scale(0.015625)" />
            <path
               id="LiberationSans-79"
               d="m 597,-1328 q -231,0 -388,34 v 422 q 119,-19 263,-19 525,0 831,772 L 1356,16 16,3381 h 600 l 712,-1868 q 16,-44 38,-105 22,-61 140,-408 119,-347 128,-387 l 219,615 741,2153 h 594 L 1888,0 q -210,-541 -391,-805 -181,-264 -402,-393 -220,-130 -498,-130 z"
               transform="scale(0.015625)" />
            <path
               id="LiberationSans-65"
               d="m 863,1572 q 0,-581 240,-897 241,-316 703,-316 366,0 586,147 221,147 299,372 L 3184,738 Q 2881,-63 1806,-63 1056,-63 664,384 272,831 272,1713 q 0,837 392,1284 392,447 1120,447 1491,0 1491,-1797 v -75 z m 1831,431 q -47,535 -272,780 -225,245 -647,245 -409,0 -648,-274 -239,-273 -258,-751 z"
               transform="scale(0.015625)" />
            <path
               id="LiberationSans-72"
               d="m 444,0 v 2594 q 0,356 -19,787 h 531 q 25,-575 25,-690 h 13 q 134,434 309,593 175,160 494,160 112,0 228,-31 v -516 q -112,31 -300,31 -350,0 -535,-302 -184,-301 -184,-863 V 0 Z"
               transform="scale(0.015625)" />
          </defs>
          <use
             xlink:href="#LiberationSans-4c"
             id="use33" />
          <use
             xlink:href="#LiberationSans-61"
             x="55.615234"
             id="use34" />
          <use
             xlink:href="#LiberationSans-79"
             x="111.23047"
             id="use35" />
          <use
             xlink:href="#LiberationSans-65"
             x="161.23047"
             id="use36" />
          <use
             xlink:href="#LiberationSans-72"
             x="216.8457"
             id="use37" />
        </g>
      </g>
    </g>
    <g
       id="matplotlib.axis_2"
       transform="translate(1.2203424,261.15254)">
      <g
         id="ytick_1">
        <g
           id="line2d_11">
          <defs
             id="defs37">
            <path
               id="m5da09eca34"
               d="M 0,0 H -3.5"
               style="stroke:#000000;stroke-width:1.5" />
          </defs>
          <g
             id="g38">
            <use
               xlink:href="#m5da09eca34"
               x="54"
               y="256.32001"
               style="stroke:#000000;stroke-width:1.5"
               id="use38" />
          </g>
        </g>
        <g
           id="text_12">
          <!-- 0.0 -->
          <g
             transform="matrix(0.14,0,0,-0.14,27.54,261.39281)"
             id="g41">
            <defs
               id="defs38">
              <path
                 id="LiberationSans-2e"
                 d="m 584,0 v 684 h 610 V 0 Z"
                 transform="scale(0.015625)" />
            </defs>
            <use
               xlink:href="#LiberationSans-30"
               id="use39" />
            <use
               xlink:href="#LiberationSans-2e"
               x="55.615234"
               id="use40" />
            <use
               xlink:href="#LiberationSans-30"
               x="83.398438"
               id="use41" />
          </g>
        </g>
      </g>
      <g
         id="ytick_2">
        <g
           id="line2d_12">
          <g
             id="g42">
            <use
               xlink:href="#m5da09eca34"
               x="54"
               y="211.968"
               style="stroke:#000000;stroke-width:1.5"
               id="use42" />
          </g>
        </g>
        <g
           id="text_13">
          <!-- 0.2 -->
          <g
             transform="matrix(0.14,0,0,-0.14,27.54,217.04081)"
             id="g45">
            <use
               xlink:href="#LiberationSans-30"
               id="use43" />
            <use
               xlink:href="#LiberationSans-2e"
               x="55.615234"
               id="use44" />
            <use
               xlink:href="#LiberationSans-32"
               x="83.398438"
               id="use45" />
          </g>
        </g>
      </g>
      <g
         id="ytick_3">
        <g
           id="line2d_13">
          <g
             id="g46">
            <use
               xlink:href="#m5da09eca34"
               x="54"
               y="167.616"
               style="stroke:#000000;stroke-width:1.5"
               id="use46" />
          </g>
        </g>
        <g
           id="text_14">
          <!-- 0.4 -->
          <g
             transform="matrix(0.14,0,0,-0.14,27.54,172.68881)"
             id="g49">
            <use
               xlink:href="#LiberationSans-30"
               id="use47" />
            <use
               xlink:href="#LiberationSans-2e"
               x="55.615234"
               id="use48" />
            <use
               xlink:href="#LiberationSans-34"
               x="83.398438"
               id="use49" />
          </g>
        </g>
      </g>
      <g
         id="ytick_4">
        <g
           id="line2d_14">
          <g
             id="g50">
            <use
               xlink:href="#m5da09eca34"
               x="54"
               y="123.264"
               style="stroke:#000000;stroke-width:1.5"
               id="use50" />
          </g>
        </g>
        <g
           id="text_15">
          <!-- 0.6 -->
          <g
             transform="matrix(0.14,0,0,-0.14,27.54,128.33681)"
             id="g53">
            <use
               xlink:href="#LiberationSans-30"
               id="use51" />
            <use
               xlink:href="#LiberationSans-2e"
               x="55.615234"
               id="use52" />
            <use
               xlink:href="#LiberationSans-36"
               x="83.398438"
               id="use53" />
          </g>
        </g>
      </g>
      <g
         id="ytick_5">
        <g
           id="line2d_15">
          <g
             id="g54">
            <use
               xlink:href="#m5da09eca34"
               x="54"
               y="78.912003"
               style="stroke:#000000;stroke-width:1.5"
               id="use54" />
          </g>
        </g>
        <g
           id="text_16">
          <!-- 0.8 -->
          <g
             transform="matrix(0.14,0,0,-0.14,27.54,83.984812)"
             id="g57">
            <use
               xlink:href="#LiberationSans-30"
               id="use55" />
            <use
               xlink:href="#LiberationSans-2e"
               x="55.615234"
               id="use56" />
            <use
               xlink:href="#LiberationSans-38"
               x="83.398438"
               id="use57" />
          </g>
        </g>
      </g>
      <g
         id="ytick_6">
        <g
           id="line2d_16">
          <g
             id="g58">
            <use
               xlink:href="#m5da09eca34"
               x="54"
               y="34.560001"
               style="stroke:#000000;stroke-width:1.5"
               id="use58" />
          </g>
        </g>
        <g
           id="text_17">
          <!-- 1.0 -->
          <g
             transform="matrix(0.14,0,0,-0.14,27.54,39.632812)"
             id="g61">
            <use
               xlink:href="#LiberationSans-31"
               id="use59" />
            <use
               xlink:href="#LiberationSans-2e"
               x="55.615234"
               id="use60" />
            <use
               xlink:href="#LiberationSans-30"
               x="83.398438"
               id="use61" />
          </g>
        </g>
      </g>
      <g
         id="text_18">
        <!-- Sparsity -->
        <g
           transform="matrix(0,-0.16,-0.16,0,20.22,174.3375)"
           id="g69">
          <defs
             id="defs61">
            <path
               id="LiberationSans-53"
               d="M 3975,1216 Q 3975,606 3498,271 3022,-63 2156,-63 547,-63 291,1056 l 578,116 q 100,-397 425,-583 325,-186 884,-186 578,0 892,198 314,199 314,583 0,216 -98,350 -98,135 -277,222 -178,88 -425,147 -246,60 -546,128 -522,116 -793,231 -270,116 -426,258 -156,143 -239,333 -83,191 -83,438 0,565 433,871 433,307 1239,307 750,0 1147,-230 397,-230 556,-783 l -588,-103 q -96,350 -368,508 -272,158 -753,158 -529,0 -807,-175 -278,-175 -278,-522 0,-203 108,-336 108,-133 311,-225 203,-92 809,-227 203,-46 405,-95 202,-48 386,-116 184,-67 345,-158 161,-90 280,-221 119,-131 186,-310 67,-178 67,-418 z"
               transform="scale(0.015625)" />
            <path
               id="LiberationSans-70"
               d="M 3291,1706 Q 3291,-63 2047,-63 1266,-63 997,525 H 981 Q 994,500 994,-6 V -1328 H 431 v 4019 q 0,522 -18,690 h 543 q 3,-12 9,-89 7,-76 15,-236 8,-159 8,-218 h 12 q 150,312 397,457 247,146 650,146 625,0 934,-419 310,-419 310,-1316 z m -591,-12 q 0,706 -191,1009 -190,303 -606,303 -334,0 -523,-141 -189,-140 -288,-439 -98,-298 -98,-776 0,-666 212,-982 213,-315 691,-315 419,0 611,308 192,308 192,1033 z"
               transform="scale(0.015625)" />
            <path
               id="LiberationSans-73"
               d="M 2969,934 Q 2969,456 2608,196 2247,-63 1597,-63 966,-63 623,145 281,353 178,794 l 497,97 q 72,-272 297,-399 225,-126 625,-126 428,0 626,131 199,131 199,394 0,200 -138,325 -137,125 -443,206 l -403,106 q -485,125 -690,245 -204,121 -320,293 -115,172 -115,422 0,462 329,704 330,242 961,242 560,0 889,-197 330,-196 417,-631 l -506,-62 q -47,225 -252,345 -204,120 -548,120 -381,0 -563,-116 -181,-115 -181,-349 0,-144 75,-238 75,-93 222,-159 147,-66 619,-181 447,-113 644,-208 197,-95 311,-211 114,-116 176,-268 63,-151 63,-345 z"
               transform="scale(0.015625)" />
            <path
               id="LiberationSans-69"
               d="m 428,4100 v 538 H 991 V 4100 Z M 428,0 V 3381 H 991 V 0 Z"
               transform="scale(0.015625)" />
            <path
               id="LiberationSans-74"
               d="M 1731,25 Q 1453,-50 1163,-50 488,-50 488,716 V 2972 H 97 v 409 h 412 l 166,757 h 375 v -757 h 625 V 2972 H 1050 V 838 q 0,-244 79,-343 80,-98 277,-98 113,0 325,44 z"
               transform="scale(0.015625)" />
          </defs>
          <use
             xlink:href="#LiberationSans-53"
             id="use62" />
          <use
             xlink:href="#LiberationSans-70"
             x="66.699219"
             id="use63" />
          <use
             xlink:href="#LiberationSans-61"
             x="122.31445"
             id="use64" />
          <use
             xlink:href="#LiberationSans-72"
             x="177.92969"
             id="use65" />
          <use
             xlink:href="#LiberationSans-73"
             x="211.23047"
             id="use66" />
          <use
             xlink:href="#LiberationSans-69"
             x="261.23047"
             id="use67" />
          <use
             xlink:href="#LiberationSans-74"
             x="283.44727"
             id="use68" />
          <use
             xlink:href="#LiberationSans-79"
             x="311.23047"
             id="use69" />
        </g>
      </g>
    </g>
    <g
       id="LineCollection_1"
       transform="translate(1.2203424,261.15254)">
      <path
         d="M 75.694004,220.0786 V 196.76108"
         clip-path="url(#pac925a7646)"
         style="fill:none;stroke:#000000;stroke-width:1.5"
         id="path69" />
      <path
         d="m 108.07311,256.32 v 0"
         clip-path="url(#pac925a7646)"
         style="fill:none;stroke:#000000;stroke-width:1.5"
         id="path70" />
      <path
         d="m 140.45222,256.32 v 0"
         clip-path="url(#pac925a7646)"
         style="fill:none;stroke:#000000;stroke-width:1.5"
         id="path71" />
      <path
         d="m 172.83133,255.87648 v -3.10464"
         clip-path="url(#pac925a7646)"
         style="fill:none;stroke:#000000;stroke-width:1.5"
         id="path72" />
      <path
         d="m 205.21044,237.38644 v -8.70249"
         clip-path="url(#pac925a7646)"
         style="fill:none;stroke:#000000;stroke-width:1.5"
         id="path73" />
      <path
         d="M 237.58955,166.1427 V 131.83362"
         clip-path="url(#pac925a7646)"
         style="fill:none;stroke:#000000;stroke-width:1.5"
         id="path74" />
      <path
         d="M 269.96866,144.65193 V 114.73815"
         clip-path="url(#pac925a7646)"
         style="fill:none;stroke:#000000;stroke-width:1.5"
         id="path75" />
      <path
         d="M 302.34778,120.24434 V 97.011341"
         clip-path="url(#pac925a7646)"
         style="fill:none;stroke:#000000;stroke-width:1.5"
         id="path76" />
      <path
         d="M 334.72689,94.645158 V 73.823322"
         clip-path="url(#pac925a7646)"
         style="fill:none;stroke:#000000;stroke-width:1.5"
         id="path77" />
      <path
         d="M 367.106,88.837937 V 67.655503"
         clip-path="url(#pac925a7646)"
         style="fill:none;stroke:#000000;stroke-width:1.5"
         id="path78" />
    </g>
    <g
       id="line2d_17"
       transform="translate(1.2203424,261.15254)">
      <defs
         id="defs78">
        <path
           id="m55a3883adb"
           d="M 5,0 H -5"
           style="stroke:#000000" />
      </defs>
      <g
         clip-path="url(#pac925a7646)"
         id="g87">
        <use
           xlink:href="#m55a3883adb"
           x="75.694"
           y="220.0786"
           style="stroke:#000000"
           id="use78" />
        <use
           xlink:href="#m55a3883adb"
           x="108.07311"
           y="256.32001"
           style="stroke:#000000"
           id="use79" />
        <use
           xlink:href="#m55a3883adb"
           x="140.45222"
           y="256.32001"
           style="stroke:#000000"
           id="use80" />
        <use
           xlink:href="#m55a3883adb"
           x="172.83133"
           y="255.87648"
           style="stroke:#000000"
           id="use81" />
        <use
           xlink:href="#m55a3883adb"
           x="205.21045"
           y="237.38644"
           style="stroke:#000000"
           id="use82" />
        <use
           xlink:href="#m55a3883adb"
           x="237.58955"
           y="166.1427"
           style="stroke:#000000"
           id="use83" />
        <use
           xlink:href="#m55a3883adb"
           x="269.96866"
           y="144.65193"
           style="stroke:#000000"
           id="use84" />
        <use
           xlink:href="#m55a3883adb"
           x="302.34778"
           y="120.24434"
           style="stroke:#000000"
           id="use85" />
        <use
           xlink:href="#m55a3883adb"
           x="334.7269"
           y="94.645157"
           style="stroke:#000000"
           id="use86" />
        <use
           xlink:href="#m55a3883adb"
           x="367.10599"
           y="88.837936"
           style="stroke:#000000"
           id="use87" />
      </g>
    </g>
    <g
       id="line2d_18"
       transform="translate(1.2203424,261.15254)">
      <g
         clip-path="url(#pac925a7646)"
         id="g97">
        <use
           xlink:href="#m55a3883adb"
           x="75.694"
           y="196.76108"
           style="stroke:#000000"
           id="use88" />
        <use
           xlink:href="#m55a3883adb"
           x="108.07311"
           y="256.32001"
           style="stroke:#000000"
           id="use89" />
        <use
           xlink:href="#m55a3883adb"
           x="140.45222"
           y="256.32001"
           style="stroke:#000000"
           id="use90" />
        <use
           xlink:href="#m55a3883adb"
           x="172.83133"
           y="252.77184"
           style="stroke:#000000"
           id="use91" />
        <use
           xlink:href="#m55a3883adb"
           x="205.21045"
           y="228.68396"
           style="stroke:#000000"
           id="use92" />
        <use
           xlink:href="#m55a3883adb"
           x="237.58955"
           y="131.83362"
           style="stroke:#000000"
           id="use93" />
        <use
           xlink:href="#m55a3883adb"
           x="269.96866"
           y="114.73815"
           style="stroke:#000000"
           id="use94" />
        <use
           xlink:href="#m55a3883adb"
           x="302.34778"
           y="97.011337"
           style="stroke:#000000"
           id="use95" />
        <use
           xlink:href="#m55a3883adb"
           x="334.7269"
           y="73.823318"
           style="stroke:#000000"
           id="use96" />
        <use
           xlink:href="#m55a3883adb"
           x="367.10599"
           y="67.655502"
           style="stroke:#000000"
           id="use97" />
      </g>
    </g>
    <g
       id="patch_13"
       transform="translate(1.2203424,261.15254)">
      <path
         d="M 54,256.32 V 34.56"
         style="fill:none;stroke:#000000;stroke-width:1.5;stroke-linecap:square;stroke-linejoin:miter"
         id="path97" />
    </g>
    <g
       id="patch_14"
       transform="translate(1.2203424,261.15254)">
      <path
         d="M 54,256.32 H 388.8"
         style="fill:none;stroke:#000000;stroke-width:1.5;stroke-linecap:square;stroke-linejoin:miter"
         id="path98" />
    </g>
    <g
       id="text_19"
       transform="translate(1.2203424,261.15254)">
      <!-- 2 Tasks -->
      <g
         transform="matrix(0.18,0,0,-0.18,191.05172,28.56)"
         id="g104">
        <defs
           id="defs98">
          <path
             id="LiberationSans-20"
             transform="scale(0.015625)"
             d="" />
          <path
             id="LiberationSans-54"
             d="M 2250,3916 V 0 H 1656 V 3916 H 144 v 487 h 3619 v -487 z"
             transform="scale(0.015625)" />
          <path
             id="LiberationSans-6b"
             d="M 2550,0 1406,1544 994,1203 V 0 H 431 V 4638 H 994 V 1741 l 1484,1640 h 660 L 1766,1928 3209,0 Z"
             transform="scale(0.015625)" />
        </defs>
        <use
           xlink:href="#LiberationSans-32"
           id="use98" />
        <use
           xlink:href="#LiberationSans-20"
           x="55.615234"
           id="use99" />
        <use
           xlink:href="#LiberationSans-54"
           x="81.648438"
           id="use100" />
        <use
           xlink:href="#LiberationSans-61"
           x="131.60742"
           id="use101" />
        <use
           xlink:href="#LiberationSans-73"
           x="187.22266"
           id="use102" />
        <use
           xlink:href="#LiberationSans-6b"
           x="237.22266"
           id="use103" />
        <use
           xlink:href="#LiberationSans-73"
           x="287.22266"
           id="use104" />
      </g>
    </g>
  </g>
  <defs
     id="defs104">
    <clipPath
       id="pac925a7646">
      <rect
         x="54"
         y="34.560001"
         width="334.79999"
         height="221.75999"
         id="rect104" />
    </clipPath>
  </defs>
</svg>
