<?xml version="1.0" encoding="utf-8" standalone="no"?>
<!DOCTYPE svg PUBLIC "-//W3C//DTD SVG 1.1//EN"
  "http://www.w3.org/Graphics/SVG/1.1/DTD/svg11.dtd">
<svg xmlns:xlink="http://www.w3.org/1999/xlink" width="432pt" height="288pt" viewBox="0 0 432 288" xmlns="http://www.w3.org/2000/svg" version="1.1">
 <metadata>
  <rdf:RDF xmlns:dc="http://purl.org/dc/elements/1.1/" xmlns:cc="http://creativecommons.org/ns#" xmlns:rdf="http://www.w3.org/1999/02/22-rdf-syntax-ns#">
   <cc:Work>
    <dc:type rdf:resource="http://purl.org/dc/dcmitype/StillImage"/>
    <dc:date>2024-01-27T18:13:48.118247</dc:date>
    <dc:format>image/svg+xml</dc:format>
    <dc:creator>
     <cc:Agent>
      <dc:title>Matplotlib v3.7.4, https://matplotlib.org/</dc:title>
     </cc:Agent>
    </dc:creator>
   </cc:Work>
  </rdf:RDF>
 </metadata>
 <defs>
  <style type="text/css">*{stroke-linejoin: round; stroke-linecap: butt}</style>
 </defs>
 <g id="figure_1">
  <g id="patch_1">
   <path d="M 0 288 
L 432 288 
L 432 0 
L 0 0 
z
" style="fill: #ffffff"/>
  </g>
  <g id="axes_1">
   <g id="patch_2">
    <path d="M 54 256.32 
L 388.8 256.32 
L 388.8 34.56 
L 54 34.56 
z
" style="fill: #ffffff"/>
   </g>
   <g id="PolyCollection_1">
    <defs>
     <path id="m48ab86ca30" d="M 69.218182 -230.452937 
L 69.218182 -229.736385 
L 72.261818 -229.744179 
L 75.305455 -229.469777 
L 78.349091 -228.919098 
L 81.392727 -228.086823 
L 84.436364 -226.824014 
L 87.48 -225.132158 
L 90.523636 -222.621569 
L 93.567273 -219.182274 
L 96.610909 -215.087189 
L 99.654545 -210.602251 
L 102.698182 -205.93216 
L 105.741818 -200.611198 
L 108.785455 -195.15068 
L 111.829091 -189.515473 
L 114.872727 -183.828587 
L 117.916364 -178.392896 
L 120.96 -173.217292 
L 124.003636 -168.364018 
L 127.047273 -163.907512 
L 130.090909 -159.455303 
L 133.134545 -155.033945 
L 136.178182 -150.68921 
L 139.221818 -146.460304 
L 142.265455 -142.073604 
L 145.309091 -137.612701 
L 148.352727 -133.318502 
L 151.396364 -129.095644 
L 154.44 -125.129021 
L 157.483636 -121.157951 
L 160.527273 -117.09267 
L 163.570909 -113.148155 
L 166.614545 -109.400272 
L 169.658182 -105.73715 
L 172.701818 -102.421705 
L 175.745455 -99.264255 
L 178.789091 -96.249152 
L 181.832727 -93.422699 
L 184.876364 -90.767047 
L 187.92 -88.141046 
L 190.963636 -85.617877 
L 194.007273 -83.21187 
L 197.050909 -80.948347 
L 200.094545 -78.916423 
L 203.138182 -76.935326 
L 206.181818 -75.163802 
L 209.225455 -73.581464 
L 212.269091 -72.088202 
L 215.312727 -70.621281 
L 218.356364 -69.375518 
L 221.4 -68.235681 
L 224.443636 -67.099484 
L 227.487273 -66.027458 
L 230.530909 -65.040289 
L 233.574545 -64.099738 
L 236.618182 -63.141903 
L 239.661818 -62.137699 
L 242.705455 -61.347596 
L 245.749091 -60.616866 
L 248.792727 -59.93674 
L 251.836364 -59.305425 
L 254.88 -58.683202 
L 257.923636 -58.060817 
L 260.967273 -57.471904 
L 264.010909 -56.888375 
L 267.054545 -56.276578 
L 270.098182 -55.809398 
L 273.141818 -55.437629 
L 276.185455 -55.043262 
L 279.229091 -54.666177 
L 282.272727 -54.297817 
L 285.316364 -53.996107 
L 288.36 -53.66427 
L 291.403636 -53.360351 
L 294.447273 -53.013208 
L 297.490909 -52.7265 
L 300.534545 -52.425412 
L 303.578182 -52.082563 
L 306.621818 -51.808775 
L 309.665455 -51.560191 
L 312.709091 -51.320355 
L 315.752727 -51.07617 
L 318.796364 -50.861899 
L 321.84 -50.617409 
L 324.883636 -50.370234 
L 327.927273 -50.1337 
L 330.970909 -49.928417 
L 334.014545 -49.718881 
L 337.058182 -49.488194 
L 340.101818 -49.298173 
L 343.145455 -49.125673 
L 346.189091 -48.943374 
L 349.232727 -48.731362 
L 352.276364 -48.536385 
L 355.32 -48.348559 
L 358.363636 -48.199796 
L 361.407273 -48.048502 
L 364.450909 -47.878361 
L 367.494545 -47.699855 
L 370.538182 -47.494079 
L 373.581818 -47.31467 
L 373.581818 -86.755725 
L 373.581818 -86.755725 
L 370.538182 -86.774182 
L 367.494545 -86.808148 
L 364.450909 -86.856236 
L 361.407273 -86.924278 
L 358.363636 -87.019275 
L 355.32 -87.113253 
L 352.276364 -87.216146 
L 349.232727 -87.333773 
L 346.189091 -87.466377 
L 343.145455 -87.587919 
L 340.101818 -87.72494 
L 337.058182 -87.890791 
L 334.014545 -88.093001 
L 330.970909 -88.306046 
L 327.927273 -88.561624 
L 324.883636 -88.834119 
L 321.84 -89.1186 
L 318.796364 -89.410911 
L 315.752727 -89.677191 
L 312.709091 -89.965626 
L 309.665455 -90.290038 
L 306.621818 -90.650537 
L 303.578182 -91.046732 
L 300.534545 -91.435886 
L 297.490909 -91.852641 
L 294.447273 -92.273112 
L 291.403636 -92.696496 
L 288.36 -93.117919 
L 285.316364 -93.584669 
L 282.272727 -94.072713 
L 279.229091 -94.61863 
L 276.185455 -95.200776 
L 273.141818 -95.827617 
L 270.098182 -96.5025 
L 267.054545 -97.210039 
L 264.010909 -97.976348 
L 260.967273 -98.770678 
L 257.923636 -99.584446 
L 254.88 -100.410702 
L 251.836364 -101.279933 
L 248.792727 -102.245865 
L 245.749091 -103.291347 
L 242.705455 -104.363156 
L 239.661818 -105.429755 
L 236.618182 -106.589138 
L 233.574545 -107.829789 
L 230.530909 -109.09751 
L 227.487273 -110.414709 
L 224.443636 -111.783516 
L 221.4 -113.136716 
L 218.356364 -114.548136 
L 215.312727 -116.076043 
L 212.269091 -117.76186 
L 209.225455 -119.500295 
L 206.181818 -121.345219 
L 203.138182 -123.280352 
L 200.094545 -125.215039 
L 197.050909 -127.195853 
L 194.007273 -129.262008 
L 190.963636 -131.368001 
L 187.92 -133.613173 
L 184.876364 -136.098829 
L 181.832727 -138.63115 
L 178.789091 -141.252589 
L 175.745455 -144.031936 
L 172.701818 -146.867907 
L 169.658182 -149.78821 
L 166.614545 -152.950838 
L 163.570909 -156.187595 
L 160.527273 -159.519259 
L 157.483636 -162.898063 
L 154.44 -166.183321 
L 151.396364 -169.49108 
L 148.352727 -173.101311 
L 145.309091 -176.863837 
L 142.265455 -180.488633 
L 139.221818 -184.095096 
L 136.178182 -187.733189 
L 133.134545 -191.409818 
L 130.090909 -195.058701 
L 127.047273 -198.670884 
L 124.003636 -202.062629 
L 120.96 -205.299594 
L 117.916364 -208.344858 
L 114.872727 -211.256539 
L 111.829091 -214.211576 
L 108.785455 -216.980922 
L 105.741818 -219.57893 
L 102.698182 -222.009146 
L 99.654545 -224.036518 
L 96.610909 -225.647663 
L 93.567273 -226.888364 
L 90.523636 -227.808334 
L 87.48 -228.522167 
L 84.436364 -229.136284 
L 81.392727 -229.564155 
L 78.349091 -229.925192 
L 75.305455 -230.220224 
L 72.261818 -230.373027 
L 69.218182 -230.452937 
z
" style="stroke: #c0d9ff; stroke-opacity: 0.5"/>
    </defs>
    <g clip-path="url(#pd649dd2713)">
     <use xlink:href="#m48ab86ca30" x="0" y="288" style="fill: #c0d9ff; fill-opacity: 0.5; stroke: #c0d9ff; stroke-opacity: 0.5"/>
    </g>
   </g>
   <g id="PolyCollection_2">
    <defs>
     <path id="me08272455a" d="M 69.218182 -229.758296 
L 69.218182 -228.975065 
L 72.261818 -229.005103 
L 75.305455 -228.784526 
L 78.349091 -228.434212 
L 81.392727 -227.696221 
L 84.436364 -226.429209 
L 87.48 -224.50039 
L 90.523636 -221.948337 
L 93.567273 -218.964047 
L 96.610909 -215.13701 
L 99.654545 -210.527259 
L 102.698182 -205.325544 
L 105.741818 -199.273025 
L 108.785455 -193.117069 
L 111.829091 -186.6202 
L 114.872727 -179.744133 
L 117.916364 -172.75747 
L 120.96 -166.037609 
L 124.003636 -159.606872 
L 127.047273 -153.402441 
L 130.090909 -147.270003 
L 133.134545 -141.581599 
L 136.178182 -136.54123 
L 139.221818 -131.611007 
L 142.265455 -126.695029 
L 145.309091 -122.029379 
L 148.352727 -117.514155 
L 151.396364 -113.368291 
L 154.44 -109.270526 
L 157.483636 -105.228733 
L 160.527273 -101.576153 
L 163.570909 -98.32408 
L 166.614545 -95.296343 
L 169.658182 -92.348987 
L 172.701818 -89.311115 
L 175.745455 -86.347802 
L 178.789091 -83.602253 
L 181.832727 -80.925558 
L 184.876364 -78.310842 
L 187.92 -75.99258 
L 190.963636 -73.714134 
L 194.007273 -71.578109 
L 197.050909 -69.556972 
L 200.094545 -67.590807 
L 203.138182 -65.698487 
L 206.181818 -63.880539 
L 209.225455 -62.308062 
L 212.269091 -60.738308 
L 215.312727 -59.270386 
L 218.356364 -57.938109 
L 221.4 -56.662838 
L 224.443636 -55.403876 
L 227.487273 -54.247314 
L 230.530909 -53.192247 
L 233.574545 -52.279374 
L 236.618182 -51.427295 
L 239.661818 -50.610533 
L 242.705455 -49.823441 
L 245.749091 -49.163029 
L 248.792727 -48.45393 
L 251.836364 -47.85037 
L 254.88 -47.324627 
L 257.923636 -46.761706 
L 260.967273 -46.277906 
L 264.010909 -45.836507 
L 267.054545 -45.511094 
L 270.098182 -45.165675 
L 273.141818 -44.839393 
L 276.185455 -44.61701 
L 279.229091 -44.411526 
L 282.272727 -44.221372 
L 285.316364 -44.027948 
L 288.36 -43.842704 
L 291.403636 -43.679486 
L 294.447273 -43.548176 
L 297.490909 -43.469147 
L 300.534545 -43.401409 
L 303.578182 -43.323265 
L 306.621818 -43.300803 
L 309.665455 -43.277337 
L 312.709091 -43.242531 
L 315.752727 -43.203204 
L 318.796364 -43.184374 
L 321.84 -43.163538 
L 324.883636 -43.151242 
L 327.927273 -43.138466 
L 330.970909 -43.150627 
L 334.014545 -43.155354 
L 337.058182 -43.164461 
L 340.101818 -43.167025 
L 343.145455 -43.164964 
L 346.189091 -43.173142 
L 349.232727 -43.180188 
L 352.276364 -43.206961 
L 355.32 -43.247465 
L 358.363636 -43.276062 
L 361.407273 -43.304889 
L 364.450909 -43.344342 
L 367.494545 -43.393881 
L 370.538182 -43.440405 
L 373.581818 -43.473816 
L 373.581818 -53.053976 
L 373.581818 -53.053976 
L 370.538182 -53.30855 
L 367.494545 -53.578411 
L 364.450909 -53.888729 
L 361.407273 -54.222176 
L 358.363636 -54.558998 
L 355.32 -54.833737 
L 352.276364 -55.175465 
L 349.232727 -55.564752 
L 346.189091 -55.873809 
L 343.145455 -56.266987 
L 340.101818 -56.627057 
L 337.058182 -56.944158 
L 334.014545 -57.303 
L 330.970909 -57.735246 
L 327.927273 -58.200633 
L 324.883636 -58.695489 
L 321.84 -59.193113 
L 318.796364 -59.690402 
L 315.752727 -60.246922 
L 312.709091 -60.788345 
L 309.665455 -61.395504 
L 306.621818 -62.044819 
L 303.578182 -62.729985 
L 300.534545 -63.467928 
L 297.490909 -64.125231 
L 294.447273 -64.835356 
L 291.403636 -65.544026 
L 288.36 -66.246569 
L 285.316364 -67.006921 
L 282.272727 -67.786515 
L 279.229091 -68.708782 
L 276.185455 -69.555635 
L 273.141818 -70.434341 
L 270.098182 -71.384649 
L 267.054545 -72.333575 
L 264.010909 -73.424367 
L 260.967273 -74.516779 
L 257.923636 -75.64798 
L 254.88 -76.848776 
L 251.836364 -78.037633 
L 248.792727 -79.37405 
L 245.749091 -80.685021 
L 242.705455 -82.075455 
L 239.661818 -83.566974 
L 236.618182 -84.904216 
L 233.574545 -86.316343 
L 230.530909 -87.848744 
L 227.487273 -89.402072 
L 224.443636 -90.969344 
L 221.4 -92.745546 
L 218.356364 -94.639796 
L 215.312727 -96.528432 
L 212.269091 -98.568843 
L 209.225455 -100.62414 
L 206.181818 -102.813025 
L 203.138182 -105.123624 
L 200.094545 -107.620172 
L 197.050909 -110.07652 
L 194.007273 -112.606934 
L 190.963636 -115.205164 
L 187.92 -117.811974 
L 184.876364 -120.54123 
L 181.832727 -123.481371 
L 178.789091 -126.316827 
L 175.745455 -129.294343 
L 172.701818 -132.246916 
L 169.658182 -135.37754 
L 166.614545 -138.638654 
L 163.570909 -141.890484 
L 160.527273 -145.369024 
L 157.483636 -149.207739 
L 154.44 -153.089364 
L 151.396364 -157.147144 
L 148.352727 -161.294216 
L 145.309091 -165.359854 
L 142.265455 -169.279515 
L 139.221818 -173.168513 
L 136.178182 -177.186658 
L 133.134545 -181.28979 
L 130.090909 -185.564353 
L 127.047273 -189.889827 
L 124.003636 -194.374089 
L 120.96 -198.829597 
L 117.916364 -203.17381 
L 114.872727 -207.356894 
L 111.829091 -211.589094 
L 108.785455 -215.496296 
L 105.741818 -218.784332 
L 102.698182 -221.350983 
L 99.654545 -223.432408 
L 96.610909 -225.031875 
L 93.567273 -226.318317 
L 90.523636 -227.285662 
L 87.48 -227.995539 
L 84.436364 -228.568387 
L 81.392727 -229.063735 
L 78.349091 -229.45964 
L 75.305455 -229.689977 
L 72.261818 -229.796334 
L 69.218182 -229.758296 
z
" style="stroke: #ffbfc4; stroke-opacity: 0.5"/>
    </defs>
    <g clip-path="url(#pd649dd2713)">
     <use xlink:href="#me08272455a" x="0" y="288" style="fill: #ffbfc4; fill-opacity: 0.5; stroke: #ffbfc4; stroke-opacity: 0.5"/>
    </g>
   </g>
   <g id="matplotlib.axis_1">
    <g id="xtick_1">
     <g id="line2d_1">
      <defs>
       <path id="m981214efb1" d="M 0 0 
L 0 3.5 
" style="stroke: #000000; stroke-width: 1.5"/>
      </defs>
      <g>
       <use xlink:href="#m981214efb1" x="58.722884" y="256.32" style="stroke: #000000; stroke-width: 1.5"/>
      </g>
     </g>
     <g id="text_1">
      <!-- 0 -->
      <g transform="translate(54.830228 273.465625) scale(0.14 -0.14)">
       <defs>
        <path id="LiberationSans-30" d="M 3309 2203 
Q 3309 1100 2920 518 
Q 2531 -63 1772 -63 
Q 1013 -63 631 515 
Q 250 1094 250 2203 
Q 250 3338 620 3903 
Q 991 4469 1791 4469 
Q 2569 4469 2939 3897 
Q 3309 3325 3309 2203 
z
M 2738 2203 
Q 2738 3156 2517 3584 
Q 2297 4013 1791 4013 
Q 1272 4013 1045 3591 
Q 819 3169 819 2203 
Q 819 1266 1048 831 
Q 1278 397 1778 397 
Q 2275 397 2506 840 
Q 2738 1284 2738 2203 
z
" transform="scale(0.015625)"/>
       </defs>
       <use xlink:href="#LiberationSans-30"/>
      </g>
     </g>
    </g>
    <g id="xtick_2">
     <g id="line2d_2">
      <g>
       <use xlink:href="#m981214efb1" x="111.199373" y="256.32" style="stroke: #000000; stroke-width: 1.5"/>
      </g>
     </g>
     <g id="text_2">
      <!-- 5 -->
      <g transform="translate(107.306717 273.465625) scale(0.14 -0.14)">
       <defs>
        <path id="LiberationSans-35" d="M 3291 1434 
Q 3291 738 2877 337 
Q 2463 -63 1728 -63 
Q 1113 -63 734 206 
Q 356 475 256 984 
L 825 1050 
Q 1003 397 1741 397 
Q 2194 397 2450 670 
Q 2706 944 2706 1422 
Q 2706 1838 2448 2094 
Q 2191 2350 1753 2350 
Q 1525 2350 1328 2278 
Q 1131 2206 934 2034 
L 384 2034 
L 531 4403 
L 3034 4403 
L 3034 3925 
L 1044 3925 
L 959 2528 
Q 1325 2809 1869 2809 
Q 2519 2809 2905 2428 
Q 3291 2047 3291 1434 
z
" transform="scale(0.015625)"/>
       </defs>
       <use xlink:href="#LiberationSans-35"/>
      </g>
     </g>
    </g>
    <g id="xtick_3">
     <g id="line2d_3">
      <g>
       <use xlink:href="#m981214efb1" x="163.675862" y="256.32" style="stroke: #000000; stroke-width: 1.5"/>
      </g>
     </g>
     <g id="text_3">
      <!-- 10 -->
      <g transform="translate(155.89055 273.465625) scale(0.14 -0.14)">
       <defs>
        <path id="LiberationSans-31" d="M 488 0 
L 488 478 
L 1609 478 
L 1609 3866 
L 616 3156 
L 616 3688 
L 1656 4403 
L 2175 4403 
L 2175 478 
L 3247 478 
L 3247 0 
L 488 0 
z
" transform="scale(0.015625)"/>
       </defs>
       <use xlink:href="#LiberationSans-31"/>
       <use xlink:href="#LiberationSans-30" x="55.615234"/>
      </g>
     </g>
    </g>
    <g id="xtick_4">
     <g id="line2d_4">
      <g>
       <use xlink:href="#m981214efb1" x="216.152351" y="256.32" style="stroke: #000000; stroke-width: 1.5"/>
      </g>
     </g>
     <g id="text_4">
      <!-- 15 -->
      <g transform="translate(208.367039 273.465625) scale(0.14 -0.14)">
       <use xlink:href="#LiberationSans-31"/>
       <use xlink:href="#LiberationSans-35" x="55.615234"/>
      </g>
     </g>
    </g>
    <g id="xtick_5">
     <g id="line2d_5">
      <g>
       <use xlink:href="#m981214efb1" x="268.62884" y="256.32" style="stroke: #000000; stroke-width: 1.5"/>
      </g>
     </g>
     <g id="text_5">
      <!-- 20 -->
      <g transform="translate(260.843528 273.465625) scale(0.14 -0.14)">
       <defs>
        <path id="LiberationSans-32" d="M 322 0 
L 322 397 
Q 481 763 711 1042 
Q 941 1322 1194 1548 
Q 1447 1775 1695 1969 
Q 1944 2163 2144 2356 
Q 2344 2550 2467 2762 
Q 2591 2975 2591 3244 
Q 2591 3606 2378 3806 
Q 2166 4006 1788 4006 
Q 1428 4006 1195 3811 
Q 963 3616 922 3263 
L 347 3316 
Q 409 3844 795 4156 
Q 1181 4469 1788 4469 
Q 2453 4469 2811 4155 
Q 3169 3841 3169 3263 
Q 3169 3006 3051 2753 
Q 2934 2500 2703 2247 
Q 2472 1994 1819 1463 
Q 1459 1169 1246 933 
Q 1034 697 941 478 
L 3238 478 
L 3238 0 
L 322 0 
z
" transform="scale(0.015625)"/>
       </defs>
       <use xlink:href="#LiberationSans-32"/>
       <use xlink:href="#LiberationSans-30" x="55.615234"/>
      </g>
     </g>
    </g>
    <g id="xtick_6">
     <g id="line2d_6">
      <g>
       <use xlink:href="#m981214efb1" x="321.105329" y="256.32" style="stroke: #000000; stroke-width: 1.5"/>
      </g>
     </g>
     <g id="text_6">
      <!-- 25 -->
      <g transform="translate(313.320017 273.465625) scale(0.14 -0.14)">
       <use xlink:href="#LiberationSans-32"/>
       <use xlink:href="#LiberationSans-35" x="55.615234"/>
      </g>
     </g>
    </g>
    <g id="xtick_7">
     <g id="line2d_7">
      <g>
       <use xlink:href="#m981214efb1" x="373.581818" y="256.32" style="stroke: #000000; stroke-width: 1.5"/>
      </g>
     </g>
     <g id="text_7">
      <!-- 30 -->
      <g transform="translate(365.796506 273.465625) scale(0.14 -0.14)">
       <defs>
        <path id="LiberationSans-33" d="M 3278 1216 
Q 3278 606 2890 271 
Q 2503 -63 1784 -63 
Q 1116 -63 717 239 
Q 319 541 244 1131 
L 825 1184 
Q 938 403 1784 403 
Q 2209 403 2451 612 
Q 2694 822 2694 1234 
Q 2694 1594 2417 1795 
Q 2141 1997 1619 1997 
L 1300 1997 
L 1300 2484 
L 1606 2484 
Q 2069 2484 2323 2686 
Q 2578 2888 2578 3244 
Q 2578 3597 2370 3801 
Q 2163 4006 1753 4006 
Q 1381 4006 1151 3815 
Q 922 3625 884 3278 
L 319 3322 
Q 381 3863 767 4166 
Q 1153 4469 1759 4469 
Q 2422 4469 2789 4161 
Q 3156 3853 3156 3303 
Q 3156 2881 2920 2617 
Q 2684 2353 2234 2259 
L 2234 2247 
Q 2728 2194 3003 1916 
Q 3278 1638 3278 1216 
z
" transform="scale(0.015625)"/>
       </defs>
       <use xlink:href="#LiberationSans-33"/>
       <use xlink:href="#LiberationSans-30" x="55.615234"/>
      </g>
     </g>
    </g>
    <g id="text_8">
     <!-- Context Strength -->
     <g transform="translate(161.36875 291.965625) scale(0.16 -0.16)">
      <defs>
       <path id="LiberationSans-43" d="M 2475 3981 
Q 1744 3981 1337 3511 
Q 931 3041 931 2222 
Q 931 1413 1354 920 
Q 1778 428 2500 428 
Q 3425 428 3891 1344 
L 4378 1100 
Q 4106 531 3614 234 
Q 3122 -63 2472 -63 
Q 1806 -63 1320 214 
Q 834 491 579 1005 
Q 325 1519 325 2222 
Q 325 3275 894 3872 
Q 1463 4469 2469 4469 
Q 3172 4469 3644 4194 
Q 4116 3919 4338 3378 
L 3772 3191 
Q 3619 3575 3280 3778 
Q 2941 3981 2475 3981 
z
" transform="scale(0.015625)"/>
       <path id="LiberationSans-6f" d="M 3291 1694 
Q 3291 806 2900 371 
Q 2509 -63 1766 -63 
Q 1025 -63 647 389 
Q 269 841 269 1694 
Q 269 3444 1784 3444 
Q 2559 3444 2925 3017 
Q 3291 2591 3291 1694 
z
M 2700 1694 
Q 2700 2394 2492 2711 
Q 2284 3028 1794 3028 
Q 1300 3028 1079 2704 
Q 859 2381 859 1694 
Q 859 1025 1076 689 
Q 1294 353 1759 353 
Q 2266 353 2483 678 
Q 2700 1003 2700 1694 
z
" transform="scale(0.015625)"/>
       <path id="LiberationSans-6e" d="M 2578 0 
L 2578 2144 
Q 2578 2478 2512 2662 
Q 2447 2847 2303 2928 
Q 2159 3009 1881 3009 
Q 1475 3009 1240 2731 
Q 1006 2453 1006 1959 
L 1006 0 
L 444 0 
L 444 2659 
Q 444 3250 425 3381 
L 956 3381 
Q 959 3366 962 3297 
Q 966 3228 970 3139 
Q 975 3050 981 2803 
L 991 2803 
Q 1184 3153 1439 3298 
Q 1694 3444 2072 3444 
Q 2628 3444 2886 3167 
Q 3144 2891 3144 2253 
L 3144 0 
L 2578 0 
z
" transform="scale(0.015625)"/>
       <path id="LiberationSans-74" d="M 1731 25 
Q 1453 -50 1163 -50 
Q 488 -50 488 716 
L 488 2972 
L 97 2972 
L 97 3381 
L 509 3381 
L 675 4138 
L 1050 4138 
L 1050 3381 
L 1675 3381 
L 1675 2972 
L 1050 2972 
L 1050 838 
Q 1050 594 1129 495 
Q 1209 397 1406 397 
Q 1519 397 1731 441 
L 1731 25 
z
" transform="scale(0.015625)"/>
       <path id="LiberationSans-65" d="M 863 1572 
Q 863 991 1103 675 
Q 1344 359 1806 359 
Q 2172 359 2392 506 
Q 2613 653 2691 878 
L 3184 738 
Q 2881 -63 1806 -63 
Q 1056 -63 664 384 
Q 272 831 272 1713 
Q 272 2550 664 2997 
Q 1056 3444 1784 3444 
Q 3275 3444 3275 1647 
L 3275 1572 
L 863 1572 
z
M 2694 2003 
Q 2647 2538 2422 2783 
Q 2197 3028 1775 3028 
Q 1366 3028 1127 2754 
Q 888 2481 869 2003 
L 2694 2003 
z
" transform="scale(0.015625)"/>
       <path id="LiberationSans-78" d="M 2503 0 
L 1594 1388 
L 678 0 
L 72 0 
L 1275 1738 
L 128 3381 
L 750 3381 
L 1594 2066 
L 2431 3381 
L 3059 3381 
L 1913 1744 
L 3131 0 
L 2503 0 
z
" transform="scale(0.015625)"/>
       <path id="LiberationSans-20" transform="scale(0.015625)"/>
       <path id="LiberationSans-53" d="M 3975 1216 
Q 3975 606 3498 271 
Q 3022 -63 2156 -63 
Q 547 -63 291 1056 
L 869 1172 
Q 969 775 1294 589 
Q 1619 403 2178 403 
Q 2756 403 3070 601 
Q 3384 800 3384 1184 
Q 3384 1400 3286 1534 
Q 3188 1669 3009 1756 
Q 2831 1844 2584 1903 
Q 2338 1963 2038 2031 
Q 1516 2147 1245 2262 
Q 975 2378 819 2520 
Q 663 2663 580 2853 
Q 497 3044 497 3291 
Q 497 3856 930 4162 
Q 1363 4469 2169 4469 
Q 2919 4469 3316 4239 
Q 3713 4009 3872 3456 
L 3284 3353 
Q 3188 3703 2916 3861 
Q 2644 4019 2163 4019 
Q 1634 4019 1356 3844 
Q 1078 3669 1078 3322 
Q 1078 3119 1186 2986 
Q 1294 2853 1497 2761 
Q 1700 2669 2306 2534 
Q 2509 2488 2711 2439 
Q 2913 2391 3097 2323 
Q 3281 2256 3442 2165 
Q 3603 2075 3722 1944 
Q 3841 1813 3908 1634 
Q 3975 1456 3975 1216 
z
" transform="scale(0.015625)"/>
       <path id="LiberationSans-72" d="M 444 0 
L 444 2594 
Q 444 2950 425 3381 
L 956 3381 
Q 981 2806 981 2691 
L 994 2691 
Q 1128 3125 1303 3284 
Q 1478 3444 1797 3444 
Q 1909 3444 2025 3413 
L 2025 2897 
Q 1913 2928 1725 2928 
Q 1375 2928 1190 2626 
Q 1006 2325 1006 1763 
L 1006 0 
L 444 0 
z
" transform="scale(0.015625)"/>
       <path id="LiberationSans-67" d="M 1713 -1328 
Q 1159 -1328 831 -1111 
Q 503 -894 409 -494 
L 975 -413 
Q 1031 -647 1223 -773 
Q 1416 -900 1728 -900 
Q 2569 -900 2569 84 
L 2569 628 
L 2563 628 
Q 2403 303 2125 139 
Q 1847 -25 1475 -25 
Q 853 -25 561 387 
Q 269 800 269 1684 
Q 269 2581 583 3007 
Q 897 3434 1538 3434 
Q 1897 3434 2161 3270 
Q 2425 3106 2569 2803 
L 2575 2803 
Q 2575 2897 2587 3128 
Q 2600 3359 2613 3381 
L 3147 3381 
Q 3128 3213 3128 2681 
L 3128 97 
Q 3128 -1328 1713 -1328 
z
M 2569 1691 
Q 2569 2103 2456 2401 
Q 2344 2700 2139 2858 
Q 1934 3016 1675 3016 
Q 1244 3016 1047 2703 
Q 850 2391 850 1691 
Q 850 997 1034 694 
Q 1219 391 1666 391 
Q 1931 391 2137 547 
Q 2344 703 2456 995 
Q 2569 1288 2569 1691 
z
" transform="scale(0.015625)"/>
       <path id="LiberationSans-68" d="M 991 2803 
Q 1172 3134 1426 3289 
Q 1681 3444 2072 3444 
Q 2622 3444 2883 3170 
Q 3144 2897 3144 2253 
L 3144 0 
L 2578 0 
L 2578 2144 
Q 2578 2500 2512 2673 
Q 2447 2847 2297 2928 
Q 2147 3009 1881 3009 
Q 1484 3009 1245 2734 
Q 1006 2459 1006 1994 
L 1006 0 
L 444 0 
L 444 4638 
L 1006 4638 
L 1006 3431 
Q 1006 3241 995 3037 
Q 984 2834 981 2803 
L 991 2803 
z
" transform="scale(0.015625)"/>
      </defs>
      <use xlink:href="#LiberationSans-43"/>
      <use xlink:href="#LiberationSans-6f" x="72.216797"/>
      <use xlink:href="#LiberationSans-6e" x="127.832031"/>
      <use xlink:href="#LiberationSans-74" x="183.447266"/>
      <use xlink:href="#LiberationSans-65" x="211.230469"/>
      <use xlink:href="#LiberationSans-78" x="266.845703"/>
      <use xlink:href="#LiberationSans-74" x="316.845703"/>
      <use xlink:href="#LiberationSans-20" x="344.628906"/>
      <use xlink:href="#LiberationSans-53" x="372.412109"/>
      <use xlink:href="#LiberationSans-74" x="439.111328"/>
      <use xlink:href="#LiberationSans-72" x="466.894531"/>
      <use xlink:href="#LiberationSans-65" x="500.195312"/>
      <use xlink:href="#LiberationSans-6e" x="555.810547"/>
      <use xlink:href="#LiberationSans-67" x="611.425781"/>
      <use xlink:href="#LiberationSans-74" x="667.041016"/>
      <use xlink:href="#LiberationSans-68" x="694.824219"/>
     </g>
    </g>
   </g>
   <g id="matplotlib.axis_2">
    <g id="ytick_1">
     <g id="line2d_8">
      <defs>
       <path id="mc38e348700" d="M 0 0 
L -3.5 0 
" style="stroke: #000000; stroke-width: 0.8"/>
      </defs>
      <g>
       <use xlink:href="#mc38e348700" x="54" y="237.84" style="stroke: #000000; stroke-width: 0.8"/>
      </g>
     </g>
     <g id="text_9">
      <!-- 0.5 -->
      <g transform="translate(27.54 242.912813) scale(0.14 -0.14)">
       <defs>
        <path id="LiberationSans-2e" d="M 584 0 
L 584 684 
L 1194 684 
L 1194 0 
L 584 0 
z
" transform="scale(0.015625)"/>
       </defs>
       <use xlink:href="#LiberationSans-30"/>
       <use xlink:href="#LiberationSans-2e" x="55.615234"/>
       <use xlink:href="#LiberationSans-35" x="83.398438"/>
      </g>
     </g>
    </g>
    <g id="ytick_2">
     <g id="line2d_9">
      <g>
       <use xlink:href="#mc38e348700" x="54" y="200.88" style="stroke: #000000; stroke-width: 0.8"/>
      </g>
     </g>
     <g id="text_10">
      <!-- 0.6 -->
      <g transform="translate(27.54 205.952812) scale(0.14 -0.14)">
       <defs>
        <path id="LiberationSans-36" d="M 3278 1441 
Q 3278 744 2900 340 
Q 2522 -63 1856 -63 
Q 1113 -63 719 490 
Q 325 1044 325 2100 
Q 325 3244 734 3856 
Q 1144 4469 1900 4469 
Q 2897 4469 3156 3572 
L 2619 3475 
Q 2453 4013 1894 4013 
Q 1413 4013 1148 3564 
Q 884 3116 884 2266 
Q 1038 2550 1316 2698 
Q 1594 2847 1953 2847 
Q 2563 2847 2920 2465 
Q 3278 2084 3278 1441 
z
M 2706 1416 
Q 2706 1894 2472 2153 
Q 2238 2413 1819 2413 
Q 1425 2413 1183 2183 
Q 941 1953 941 1550 
Q 941 1041 1192 716 
Q 1444 391 1838 391 
Q 2244 391 2475 664 
Q 2706 938 2706 1416 
z
" transform="scale(0.015625)"/>
       </defs>
       <use xlink:href="#LiberationSans-30"/>
       <use xlink:href="#LiberationSans-2e" x="55.615234"/>
       <use xlink:href="#LiberationSans-36" x="83.398438"/>
      </g>
     </g>
    </g>
    <g id="ytick_3">
     <g id="line2d_10">
      <g>
       <use xlink:href="#mc38e348700" x="54" y="163.92" style="stroke: #000000; stroke-width: 0.8"/>
      </g>
     </g>
     <g id="text_11">
      <!-- 0.7 -->
      <g transform="translate(27.54 168.992812) scale(0.14 -0.14)">
       <defs>
        <path id="LiberationSans-37" d="M 3238 3947 
Q 2563 2916 2284 2331 
Q 2006 1747 1867 1178 
Q 1728 609 1728 0 
L 1141 0 
Q 1141 844 1498 1776 
Q 1856 2709 2694 3925 
L 328 3925 
L 328 4403 
L 3238 4403 
L 3238 3947 
z
" transform="scale(0.015625)"/>
       </defs>
       <use xlink:href="#LiberationSans-30"/>
       <use xlink:href="#LiberationSans-2e" x="55.615234"/>
       <use xlink:href="#LiberationSans-37" x="83.398438"/>
      </g>
     </g>
    </g>
    <g id="ytick_4">
     <g id="line2d_11">
      <g>
       <use xlink:href="#mc38e348700" x="54" y="126.96" style="stroke: #000000; stroke-width: 0.8"/>
      </g>
     </g>
     <g id="text_12">
      <!-- 0.8 -->
      <g transform="translate(27.54 132.032812) scale(0.14 -0.14)">
       <defs>
        <path id="LiberationSans-38" d="M 3281 1228 
Q 3281 619 2893 278 
Q 2506 -63 1781 -63 
Q 1075 -63 676 271 
Q 278 606 278 1222 
Q 278 1653 525 1947 
Q 772 2241 1156 2303 
L 1156 2316 
Q 797 2400 589 2681 
Q 381 2963 381 3341 
Q 381 3844 757 4156 
Q 1134 4469 1769 4469 
Q 2419 4469 2795 4162 
Q 3172 3856 3172 3334 
Q 3172 2956 2962 2675 
Q 2753 2394 2391 2322 
L 2391 2309 
Q 2813 2241 3047 1952 
Q 3281 1663 3281 1228 
z
M 2588 3303 
Q 2588 4050 1769 4050 
Q 1372 4050 1164 3862 
Q 956 3675 956 3303 
Q 956 2925 1170 2726 
Q 1384 2528 1775 2528 
Q 2172 2528 2380 2711 
Q 2588 2894 2588 3303 
z
M 2697 1281 
Q 2697 1691 2453 1898 
Q 2209 2106 1769 2106 
Q 1341 2106 1100 1882 
Q 859 1659 859 1269 
Q 859 359 1788 359 
Q 2247 359 2472 579 
Q 2697 800 2697 1281 
z
" transform="scale(0.015625)"/>
       </defs>
       <use xlink:href="#LiberationSans-30"/>
       <use xlink:href="#LiberationSans-2e" x="55.615234"/>
       <use xlink:href="#LiberationSans-38" x="83.398438"/>
      </g>
     </g>
    </g>
    <g id="ytick_5">
     <g id="line2d_12">
      <g>
       <use xlink:href="#mc38e348700" x="54" y="90" style="stroke: #000000; stroke-width: 0.8"/>
      </g>
     </g>
     <g id="text_13">
      <!-- 0.9 -->
      <g transform="translate(27.54 95.072812) scale(0.14 -0.14)">
       <defs>
        <path id="LiberationSans-39" d="M 3256 2291 
Q 3256 1156 2842 546 
Q 2428 -63 1663 -63 
Q 1147 -63 836 154 
Q 525 372 391 856 
L 928 941 
Q 1097 391 1672 391 
Q 2156 391 2422 841 
Q 2688 1291 2700 2125 
Q 2575 1844 2272 1673 
Q 1969 1503 1606 1503 
Q 1013 1503 656 1909 
Q 300 2316 300 2988 
Q 300 3678 687 4073 
Q 1075 4469 1766 4469 
Q 2500 4469 2878 3925 
Q 3256 3381 3256 2291 
z
M 2644 2834 
Q 2644 3366 2400 3689 
Q 2156 4013 1747 4013 
Q 1341 4013 1106 3736 
Q 872 3459 872 2988 
Q 872 2506 1106 2226 
Q 1341 1947 1741 1947 
Q 1984 1947 2193 2058 
Q 2403 2169 2523 2372 
Q 2644 2575 2644 2834 
z
" transform="scale(0.015625)"/>
       </defs>
       <use xlink:href="#LiberationSans-30"/>
       <use xlink:href="#LiberationSans-2e" x="55.615234"/>
       <use xlink:href="#LiberationSans-39" x="83.398438"/>
      </g>
     </g>
    </g>
    <g id="ytick_6">
     <g id="line2d_13">
      <g>
       <use xlink:href="#mc38e348700" x="54" y="53.04" style="stroke: #000000; stroke-width: 0.8"/>
      </g>
     </g>
     <g id="text_14">
      <!-- 1.0 -->
      <g transform="translate(27.54 58.112813) scale(0.14 -0.14)">
       <use xlink:href="#LiberationSans-31"/>
       <use xlink:href="#LiberationSans-2e" x="55.615234"/>
       <use xlink:href="#LiberationSans-30" x="83.398438"/>
      </g>
     </g>
    </g>
    <g id="text_15">
     <!-- Accuracy -->
     <g transform="translate(20.22 178.3375) rotate(-90) scale(0.16 -0.16)">
      <defs>
       <path id="LiberationSans-41" d="M 3647 0 
L 3144 1288 
L 1138 1288 
L 631 0 
L 13 0 
L 1809 4403 
L 2488 4403 
L 4256 0 
L 3647 0 
z
M 2141 3953 
L 2113 3866 
Q 2034 3606 1881 3200 
L 1319 1753 
L 2966 1753 
L 2400 3206 
Q 2313 3422 2225 3694 
L 2141 3953 
z
" transform="scale(0.015625)"/>
       <path id="LiberationSans-63" d="M 859 1706 
Q 859 1031 1071 706 
Q 1284 381 1713 381 
Q 2013 381 2214 543 
Q 2416 706 2463 1044 
L 3031 1006 
Q 2966 519 2616 228 
Q 2266 -63 1728 -63 
Q 1019 -63 645 385 
Q 272 834 272 1694 
Q 272 2547 647 2995 
Q 1022 3444 1722 3444 
Q 2241 3444 2583 3175 
Q 2925 2906 3013 2434 
L 2434 2391 
Q 2391 2672 2212 2837 
Q 2034 3003 1706 3003 
Q 1259 3003 1059 2706 
Q 859 2409 859 1706 
z
" transform="scale(0.015625)"/>
       <path id="LiberationSans-75" d="M 981 3381 
L 981 1238 
Q 981 903 1047 718 
Q 1113 534 1256 453 
Q 1400 372 1678 372 
Q 2084 372 2318 650 
Q 2553 928 2553 1422 
L 2553 3381 
L 3116 3381 
L 3116 722 
Q 3116 131 3134 0 
L 2603 0 
Q 2600 16 2597 84 
Q 2594 153 2589 242 
Q 2584 331 2578 578 
L 2569 578 
Q 2375 228 2120 82 
Q 1866 -63 1488 -63 
Q 931 -63 673 214 
Q 416 491 416 1128 
L 416 3381 
L 981 3381 
z
" transform="scale(0.015625)"/>
       <path id="LiberationSans-61" d="M 1294 -63 
Q 784 -63 528 206 
Q 272 475 272 944 
Q 272 1469 617 1750 
Q 963 2031 1731 2050 
L 2491 2063 
L 2491 2247 
Q 2491 2659 2316 2837 
Q 2141 3016 1766 3016 
Q 1388 3016 1216 2887 
Q 1044 2759 1009 2478 
L 422 2531 
Q 566 3444 1778 3444 
Q 2416 3444 2737 3151 
Q 3059 2859 3059 2306 
L 3059 850 
Q 3059 600 3125 473 
Q 3191 347 3375 347 
Q 3456 347 3559 369 
L 3559 19 
Q 3347 -31 3125 -31 
Q 2813 -31 2670 133 
Q 2528 297 2509 647 
L 2491 647 
Q 2275 259 1989 98 
Q 1703 -63 1294 -63 
z
M 1422 359 
Q 1731 359 1972 500 
Q 2213 641 2352 886 
Q 2491 1131 2491 1391 
L 2491 1669 
L 1875 1656 
Q 1478 1650 1273 1575 
Q 1069 1500 959 1344 
Q 850 1188 850 934 
Q 850 659 998 509 
Q 1147 359 1422 359 
z
" transform="scale(0.015625)"/>
       <path id="LiberationSans-79" d="M 597 -1328 
Q 366 -1328 209 -1294 
L 209 -872 
Q 328 -891 472 -891 
Q 997 -891 1303 -119 
L 1356 16 
L 16 3381 
L 616 3381 
L 1328 1513 
Q 1344 1469 1366 1408 
Q 1388 1347 1506 1000 
Q 1625 653 1634 613 
L 1853 1228 
L 2594 3381 
L 3188 3381 
L 1888 0 
Q 1678 -541 1497 -805 
Q 1316 -1069 1095 -1198 
Q 875 -1328 597 -1328 
z
" transform="scale(0.015625)"/>
      </defs>
      <use xlink:href="#LiberationSans-41"/>
      <use xlink:href="#LiberationSans-63" x="66.699219"/>
      <use xlink:href="#LiberationSans-63" x="116.699219"/>
      <use xlink:href="#LiberationSans-75" x="166.699219"/>
      <use xlink:href="#LiberationSans-72" x="222.314453"/>
      <use xlink:href="#LiberationSans-61" x="255.615234"/>
      <use xlink:href="#LiberationSans-63" x="311.230469"/>
      <use xlink:href="#LiberationSans-79" x="361.230469"/>
     </g>
    </g>
   </g>
   <g id="line2d_14">
    <path d="M 69.218182 57.905339 
L 72.261818 57.941397 
L 75.305455 58.155 
L 78.349091 58.577855 
L 81.392727 59.174511 
L 84.436364 60.019851 
L 87.48 61.172838 
L 90.523636 62.785048 
L 93.567273 64.964681 
L 96.610909 67.632574 
L 99.654545 70.680615 
L 102.698182 74.029347 
L 105.741818 77.904936 
L 108.785455 81.934199 
L 111.829091 86.136475 
L 114.872727 90.457437 
L 117.916364 94.631123 
L 120.96 98.741557 
L 124.003636 102.786676 
L 127.047273 106.710802 
L 130.090909 110.742998 
L 133.134545 114.778118 
L 136.178182 118.7888 
L 139.221818 122.7223 
L 142.265455 126.718881 
L 145.309091 130.761731 
L 148.352727 134.790093 
L 151.396364 138.706638 
L 154.44 142.343829 
L 157.483636 145.971993 
L 160.527273 149.694035 
L 163.570909 153.332125 
L 166.614545 156.824445 
L 169.658182 160.23732 
L 172.701818 163.355194 
L 175.745455 166.351904 
L 178.789091 169.24913 
L 181.832727 171.973076 
L 184.876364 174.567062 
L 187.92 177.122891 
L 190.963636 179.507061 
L 194.007273 181.763061 
L 197.050909 183.9279 
L 200.094545 185.934269 
L 203.138182 187.892161 
L 206.181818 189.74549 
L 209.225455 191.45912 
L 212.269091 193.074969 
L 215.312727 194.651338 
L 218.356364 196.038173 
L 221.4 197.313801 
L 224.443636 198.5585 
L 227.487273 199.778917 
L 230.530909 200.9311 
L 233.574545 202.035237 
L 236.618182 203.13448 
L 239.661818 204.216273 
L 242.705455 205.144624 
L 245.749091 206.045893 
L 248.792727 206.908697 
L 251.836364 207.707321 
L 254.88 208.453048 
L 257.923636 209.177369 
L 260.967273 209.878709 
L 264.010909 210.567639 
L 267.054545 211.256692 
L 270.098182 211.844051 
L 273.141818 212.367377 
L 276.185455 212.877981 
L 279.229091 213.357597 
L 282.272727 213.814735 
L 285.316364 214.209612 
L 288.36 214.608905 
L 291.403636 214.971577 
L 294.447273 215.35684 
L 297.490909 215.710429 
L 300.534545 216.069351 
L 303.578182 216.435353 
L 306.621818 216.770344 
L 309.665455 217.074886 
L 312.709091 217.357009 
L 315.752727 217.623319 
L 318.796364 217.863595 
L 321.84 218.131996 
L 324.883636 218.397823 
L 327.927273 218.652338 
L 330.970909 218.882769 
L 334.014545 219.094059 
L 337.058182 219.310508 
L 340.101818 219.488444 
L 343.145455 219.643204 
L 346.189091 219.795124 
L 349.232727 219.967433 
L 352.276364 220.123734 
L 355.32 220.269094 
L 358.363636 220.390465 
L 361.407273 220.51361 
L 364.450909 220.632702 
L 367.494545 220.745999 
L 370.538182 220.86587 
L 373.581818 220.964803 
" clip-path="url(#pd649dd2713)" style="fill: none; stroke: #c0d9ff; stroke-width: 1.5; stroke-linecap: square"/>
   </g>
   <g id="line2d_15">
    <path d="M 69.218182 58.63332 
L 72.261818 58.599281 
L 75.305455 58.762749 
L 78.349091 59.053074 
L 81.392727 59.620022 
L 84.436364 60.501202 
L 87.48 61.752035 
L 90.523636 63.383 
L 93.567273 65.358818 
L 96.610909 67.915558 
L 99.654545 71.020166 
L 102.698182 74.661736 
L 105.741818 78.971322 
L 108.785455 83.693318 
L 111.829091 88.895353 
L 114.872727 94.449486 
L 117.916364 100.03436 
L 120.96 105.566397 
L 124.003636 111.00952 
L 127.047273 116.353866 
L 130.090909 121.582822 
L 133.134545 126.564305 
L 136.178182 131.136056 
L 139.221818 135.61024 
L 142.265455 140.012728 
L 145.309091 144.305384 
L 148.352727 148.595815 
L 151.396364 152.742282 
L 154.44 156.820055 
L 157.483636 160.781764 
L 160.527273 164.527411 
L 163.570909 167.892718 
L 166.614545 171.032501 
L 169.658182 174.136737 
L 172.701818 177.220984 
L 175.745455 180.178928 
L 178.789091 183.04046 
L 181.832727 185.796535 
L 184.876364 188.573964 
L 187.92 191.097723 
L 190.963636 193.540351 
L 194.007273 195.907479 
L 197.050909 198.183254 
L 200.094545 200.394511 
L 203.138182 202.588944 
L 206.181818 204.653218 
L 209.225455 206.533899 
L 212.269091 208.346425 
L 215.312727 210.100591 
L 218.356364 211.711047 
L 221.4 213.295808 
L 224.443636 214.81339 
L 227.487273 216.175307 
L 230.530909 217.479505 
L 233.574545 218.702141 
L 236.618182 219.834244 
L 239.661818 220.911247 
L 242.705455 222.050552 
L 245.749091 223.075975 
L 248.792727 224.08601 
L 251.836364 225.055998 
L 254.88 225.913298 
L 257.923636 226.795157 
L 260.967273 227.602657 
L 264.010909 228.369563 
L 267.054545 229.077666 
L 270.098182 229.724838 
L 273.141818 230.363133 
L 276.185455 230.913678 
L 279.229091 231.439846 
L 282.272727 231.996056 
L 285.316364 232.482566 
L 288.36 232.955364 
L 291.403636 233.388244 
L 294.447273 233.808234 
L 297.490909 234.202811 
L 300.534545 234.565332 
L 303.578182 234.973375 
L 306.621818 235.327189 
L 309.665455 235.66358 
L 312.709091 235.984562 
L 315.752727 236.274937 
L 318.796364 236.562612 
L 321.84 236.821675 
L 324.883636 237.076635 
L 327.927273 237.330451 
L 330.970909 237.557063 
L 334.014545 237.770823 
L 337.058182 237.945691 
L 340.101818 238.102959 
L 343.145455 238.284024 
L 346.189091 238.476525 
L 349.232727 238.62753 
L 352.276364 238.808787 
L 355.32 238.959399 
L 358.363636 239.08247 
L 361.407273 239.236468 
L 364.450909 239.383465 
L 367.494545 239.513854 
L 370.538182 239.625522 
L 373.581818 239.736104 
" clip-path="url(#pd649dd2713)" style="fill: none; stroke: #ffbfc4; stroke-width: 1.5; stroke-linecap: square"/>
   </g>
   <g id="patch_3">
    <path d="M 54 256.32 
L 54 34.56 
" style="fill: none; stroke: #000000; stroke-width: 1.5; stroke-linejoin: miter; stroke-linecap: square"/>
   </g>
   <g id="patch_4">
    <path d="M 54 256.32 
L 388.8 256.32 
" style="fill: none; stroke: #000000; stroke-width: 1.5; stroke-linejoin: miter; stroke-linecap: square"/>
   </g>
  </g>
 </g>
 <defs>
  <clipPath id="pd649dd2713">
   <rect x="54" y="34.56" width="334.8" height="221.76"/>
  </clipPath>
 </defs>
</svg>
