<?xml version="1.0" encoding="utf-8" standalone="no"?>
<!DOCTYPE svg PUBLIC "-//W3C//DTD SVG 1.1//EN"
  "http://www.w3.org/Graphics/SVG/1.1/DTD/svg11.dtd">
<svg height="288pt" version="1.1" viewBox="0 0 432 288" width="432pt" xmlns="http://www.w3.org/2000/svg" xmlns:xlink="http://www.w3.org/1999/xlink">
 <metadata>
  <rdf:RDF xmlns:cc="http://creativecommons.org/ns#" xmlns:dc="http://purl.org/dc/elements/1.1/" xmlns:rdf="http://www.w3.org/1999/02/22-rdf-syntax-ns#">
   <cc:Work>
    <dc:type rdf:resource="http://purl.org/dc/dcmitype/StillImage"/>
    <dc:date>2023-05-14T19:53:09.146314</dc:date>
    <dc:format>image/svg+xml</dc:format>
    <dc:creator>
     <cc:Agent>
      <dc:title>Matplotlib v3.4.3, https://matplotlib.org/</dc:title>
     </cc:Agent>
    </dc:creator>
   </cc:Work>
  </rdf:RDF>
 </metadata>
 <defs>
  <style type="text/css">*{stroke-linecap:butt;stroke-linejoin:round;}</style>
 </defs>
 <g id="figure_1">
  <g id="patch_1">
   <path d="M 0 288 
L 432 288 
L 432 0 
L 0 0 
z
" style="fill:#ffffff;"/>
  </g>
  <g id="axes_1">
   <g id="patch_2">
    <path d="M 54 256.32 
L 388.8 256.32 
L 388.8 34.56 
L 54 34.56 
z
" style="fill:#ffffff;"/>
   </g>
   <g id="matplotlib.axis_1">
    <g id="xtick_1">
     <g id="line2d_1">
      <defs>
       <path d="M 0 0 
L 0 6 
" id="m5780dd59eb" style="stroke:#262626;stroke-width:1.25;"/>
      </defs>
      <g>
       <use style="fill:#262626;stroke:#262626;stroke-width:1.25;" x="69.218182" xlink:href="#m5780dd59eb" y="256.32"/>
      </g>
     </g>
     <g id="text_1">
      <!-- 0.0 -->
      <g style="fill:#262626;" transform="translate(60.878182 274.51625)scale(0.12 -0.12)">
       <defs>
        <path d="M 3309 2203 
Q 3309 1100 2920 518 
Q 2531 -63 1772 -63 
Q 1013 -63 631 515 
Q 250 1094 250 2203 
Q 250 3338 620 3903 
Q 991 4469 1791 4469 
Q 2569 4469 2939 3897 
Q 3309 3325 3309 2203 
z
M 2738 2203 
Q 2738 3156 2517 3584 
Q 2297 4013 1791 4013 
Q 1272 4013 1045 3591 
Q 819 3169 819 2203 
Q 819 1266 1048 831 
Q 1278 397 1778 397 
Q 2275 397 2506 840 
Q 2738 1284 2738 2203 
z
" id="LiberationSans-30" transform="scale(0.015625)"/>
        <path d="M 584 0 
L 584 684 
L 1194 684 
L 1194 0 
L 584 0 
z
" id="LiberationSans-2e" transform="scale(0.015625)"/>
       </defs>
       <use xlink:href="#LiberationSans-30"/>
       <use x="55.615234" xlink:href="#LiberationSans-2e"/>
       <use x="83.398438" xlink:href="#LiberationSans-30"/>
      </g>
     </g>
    </g>
    <g id="xtick_2">
     <g id="line2d_2">
      <g>
       <use style="fill:#262626;stroke:#262626;stroke-width:1.25;" x="130.090909" xlink:href="#m5780dd59eb" y="256.32"/>
      </g>
     </g>
     <g id="text_2">
      <!-- 0.2 -->
      <g style="fill:#262626;" transform="translate(121.750909 274.51625)scale(0.12 -0.12)">
       <defs>
        <path d="M 322 0 
L 322 397 
Q 481 763 711 1042 
Q 941 1322 1194 1548 
Q 1447 1775 1695 1969 
Q 1944 2163 2144 2356 
Q 2344 2550 2467 2762 
Q 2591 2975 2591 3244 
Q 2591 3606 2378 3806 
Q 2166 4006 1788 4006 
Q 1428 4006 1195 3811 
Q 963 3616 922 3263 
L 347 3316 
Q 409 3844 795 4156 
Q 1181 4469 1788 4469 
Q 2453 4469 2811 4155 
Q 3169 3841 3169 3263 
Q 3169 3006 3051 2753 
Q 2934 2500 2703 2247 
Q 2472 1994 1819 1463 
Q 1459 1169 1246 933 
Q 1034 697 941 478 
L 3238 478 
L 3238 0 
L 322 0 
z
" id="LiberationSans-32" transform="scale(0.015625)"/>
       </defs>
       <use xlink:href="#LiberationSans-30"/>
       <use x="55.615234" xlink:href="#LiberationSans-2e"/>
       <use x="83.398438" xlink:href="#LiberationSans-32"/>
      </g>
     </g>
    </g>
    <g id="xtick_3">
     <g id="line2d_3">
      <g>
       <use style="fill:#262626;stroke:#262626;stroke-width:1.25;" x="190.963636" xlink:href="#m5780dd59eb" y="256.32"/>
      </g>
     </g>
     <g id="text_3">
      <!-- 0.4 -->
      <g style="fill:#262626;" transform="translate(182.623636 274.51625)scale(0.12 -0.12)">
       <defs>
        <path d="M 2753 997 
L 2753 0 
L 2222 0 
L 2222 997 
L 147 997 
L 147 1434 
L 2163 4403 
L 2753 4403 
L 2753 1441 
L 3372 1441 
L 3372 997 
L 2753 997 
z
M 2222 3769 
Q 2216 3750 2134 3603 
Q 2053 3456 2013 3397 
L 884 1734 
L 716 1503 
L 666 1441 
L 2222 1441 
L 2222 3769 
z
" id="LiberationSans-34" transform="scale(0.015625)"/>
       </defs>
       <use xlink:href="#LiberationSans-30"/>
       <use x="55.615234" xlink:href="#LiberationSans-2e"/>
       <use x="83.398438" xlink:href="#LiberationSans-34"/>
      </g>
     </g>
    </g>
    <g id="xtick_4">
     <g id="line2d_4">
      <g>
       <use style="fill:#262626;stroke:#262626;stroke-width:1.25;" x="251.836364" xlink:href="#m5780dd59eb" y="256.32"/>
      </g>
     </g>
     <g id="text_4">
      <!-- 0.6 -->
      <g style="fill:#262626;" transform="translate(243.496364 274.51625)scale(0.12 -0.12)">
       <defs>
        <path d="M 3278 1441 
Q 3278 744 2900 340 
Q 2522 -63 1856 -63 
Q 1113 -63 719 490 
Q 325 1044 325 2100 
Q 325 3244 734 3856 
Q 1144 4469 1900 4469 
Q 2897 4469 3156 3572 
L 2619 3475 
Q 2453 4013 1894 4013 
Q 1413 4013 1148 3564 
Q 884 3116 884 2266 
Q 1038 2550 1316 2698 
Q 1594 2847 1953 2847 
Q 2563 2847 2920 2465 
Q 3278 2084 3278 1441 
z
M 2706 1416 
Q 2706 1894 2472 2153 
Q 2238 2413 1819 2413 
Q 1425 2413 1183 2183 
Q 941 1953 941 1550 
Q 941 1041 1192 716 
Q 1444 391 1838 391 
Q 2244 391 2475 664 
Q 2706 938 2706 1416 
z
" id="LiberationSans-36" transform="scale(0.015625)"/>
       </defs>
       <use xlink:href="#LiberationSans-30"/>
       <use x="55.615234" xlink:href="#LiberationSans-2e"/>
       <use x="83.398438" xlink:href="#LiberationSans-36"/>
      </g>
     </g>
    </g>
    <g id="xtick_5">
     <g id="line2d_5">
      <g>
       <use style="fill:#262626;stroke:#262626;stroke-width:1.25;" x="312.709091" xlink:href="#m5780dd59eb" y="256.32"/>
      </g>
     </g>
     <g id="text_5">
      <!-- 0.8 -->
      <g style="fill:#262626;" transform="translate(304.369091 274.51625)scale(0.12 -0.12)">
       <defs>
        <path d="M 3281 1228 
Q 3281 619 2893 278 
Q 2506 -63 1781 -63 
Q 1075 -63 676 271 
Q 278 606 278 1222 
Q 278 1653 525 1947 
Q 772 2241 1156 2303 
L 1156 2316 
Q 797 2400 589 2681 
Q 381 2963 381 3341 
Q 381 3844 757 4156 
Q 1134 4469 1769 4469 
Q 2419 4469 2795 4162 
Q 3172 3856 3172 3334 
Q 3172 2956 2962 2675 
Q 2753 2394 2391 2322 
L 2391 2309 
Q 2813 2241 3047 1952 
Q 3281 1663 3281 1228 
z
M 2588 3303 
Q 2588 4050 1769 4050 
Q 1372 4050 1164 3862 
Q 956 3675 956 3303 
Q 956 2925 1170 2726 
Q 1384 2528 1775 2528 
Q 2172 2528 2380 2711 
Q 2588 2894 2588 3303 
z
M 2697 1281 
Q 2697 1691 2453 1898 
Q 2209 2106 1769 2106 
Q 1341 2106 1100 1882 
Q 859 1659 859 1269 
Q 859 359 1788 359 
Q 2247 359 2472 579 
Q 2697 800 2697 1281 
z
" id="LiberationSans-38" transform="scale(0.015625)"/>
       </defs>
       <use xlink:href="#LiberationSans-30"/>
       <use x="55.615234" xlink:href="#LiberationSans-2e"/>
       <use x="83.398438" xlink:href="#LiberationSans-38"/>
      </g>
     </g>
    </g>
    <g id="xtick_6">
     <g id="line2d_6">
      <g>
       <use style="fill:#262626;stroke:#262626;stroke-width:1.25;" x="373.581818" xlink:href="#m5780dd59eb" y="256.32"/>
      </g>
     </g>
     <g id="text_6">
      <!-- 1.0 -->
      <g style="fill:#262626;" transform="translate(365.241818 274.51625)scale(0.12 -0.12)">
       <defs>
        <path d="M 488 0 
L 488 478 
L 1609 478 
L 1609 3866 
L 616 3156 
L 616 3688 
L 1656 4403 
L 2175 4403 
L 2175 478 
L 3247 478 
L 3247 0 
L 488 0 
z
" id="LiberationSans-31" transform="scale(0.015625)"/>
       </defs>
       <use xlink:href="#LiberationSans-31"/>
       <use x="55.615234" xlink:href="#LiberationSans-2e"/>
       <use x="83.398438" xlink:href="#LiberationSans-30"/>
      </g>
     </g>
    </g>
    <g id="text_7">
     <!-- Context Strength -->
     <g style="fill:#262626;" transform="translate(161.36875 292.60125)scale(0.16 -0.16)">
      <defs>
       <path d="M 2475 3981 
Q 1744 3981 1337 3511 
Q 931 3041 931 2222 
Q 931 1413 1354 920 
Q 1778 428 2500 428 
Q 3425 428 3891 1344 
L 4378 1100 
Q 4106 531 3614 234 
Q 3122 -63 2472 -63 
Q 1806 -63 1320 214 
Q 834 491 579 1005 
Q 325 1519 325 2222 
Q 325 3275 894 3872 
Q 1463 4469 2469 4469 
Q 3172 4469 3644 4194 
Q 4116 3919 4338 3378 
L 3772 3191 
Q 3619 3575 3280 3778 
Q 2941 3981 2475 3981 
z
" id="LiberationSans-43" transform="scale(0.015625)"/>
       <path d="M 3291 1694 
Q 3291 806 2900 371 
Q 2509 -63 1766 -63 
Q 1025 -63 647 389 
Q 269 841 269 1694 
Q 269 3444 1784 3444 
Q 2559 3444 2925 3017 
Q 3291 2591 3291 1694 
z
M 2700 1694 
Q 2700 2394 2492 2711 
Q 2284 3028 1794 3028 
Q 1300 3028 1079 2704 
Q 859 2381 859 1694 
Q 859 1025 1076 689 
Q 1294 353 1759 353 
Q 2266 353 2483 678 
Q 2700 1003 2700 1694 
z
" id="LiberationSans-6f" transform="scale(0.015625)"/>
       <path d="M 2578 0 
L 2578 2144 
Q 2578 2478 2512 2662 
Q 2447 2847 2303 2928 
Q 2159 3009 1881 3009 
Q 1475 3009 1240 2731 
Q 1006 2453 1006 1959 
L 1006 0 
L 444 0 
L 444 2659 
Q 444 3250 425 3381 
L 956 3381 
Q 959 3366 962 3297 
Q 966 3228 970 3139 
Q 975 3050 981 2803 
L 991 2803 
Q 1184 3153 1439 3298 
Q 1694 3444 2072 3444 
Q 2628 3444 2886 3167 
Q 3144 2891 3144 2253 
L 3144 0 
L 2578 0 
z
" id="LiberationSans-6e" transform="scale(0.015625)"/>
       <path d="M 1731 25 
Q 1453 -50 1163 -50 
Q 488 -50 488 716 
L 488 2972 
L 97 2972 
L 97 3381 
L 509 3381 
L 675 4138 
L 1050 4138 
L 1050 3381 
L 1675 3381 
L 1675 2972 
L 1050 2972 
L 1050 838 
Q 1050 594 1129 495 
Q 1209 397 1406 397 
Q 1519 397 1731 441 
L 1731 25 
z
" id="LiberationSans-74" transform="scale(0.015625)"/>
       <path d="M 863 1572 
Q 863 991 1103 675 
Q 1344 359 1806 359 
Q 2172 359 2392 506 
Q 2613 653 2691 878 
L 3184 738 
Q 2881 -63 1806 -63 
Q 1056 -63 664 384 
Q 272 831 272 1713 
Q 272 2550 664 2997 
Q 1056 3444 1784 3444 
Q 3275 3444 3275 1647 
L 3275 1572 
L 863 1572 
z
M 2694 2003 
Q 2647 2538 2422 2783 
Q 2197 3028 1775 3028 
Q 1366 3028 1127 2754 
Q 888 2481 869 2003 
L 2694 2003 
z
" id="LiberationSans-65" transform="scale(0.015625)"/>
       <path d="M 2503 0 
L 1594 1388 
L 678 0 
L 72 0 
L 1275 1738 
L 128 3381 
L 750 3381 
L 1594 2066 
L 2431 3381 
L 3059 3381 
L 1913 1744 
L 3131 0 
L 2503 0 
z
" id="LiberationSans-78" transform="scale(0.015625)"/>
       <path id="LiberationSans-20" transform="scale(0.015625)"/>
       <path d="M 3975 1216 
Q 3975 606 3498 271 
Q 3022 -63 2156 -63 
Q 547 -63 291 1056 
L 869 1172 
Q 969 775 1294 589 
Q 1619 403 2178 403 
Q 2756 403 3070 601 
Q 3384 800 3384 1184 
Q 3384 1400 3286 1534 
Q 3188 1669 3009 1756 
Q 2831 1844 2584 1903 
Q 2338 1963 2038 2031 
Q 1516 2147 1245 2262 
Q 975 2378 819 2520 
Q 663 2663 580 2853 
Q 497 3044 497 3291 
Q 497 3856 930 4162 
Q 1363 4469 2169 4469 
Q 2919 4469 3316 4239 
Q 3713 4009 3872 3456 
L 3284 3353 
Q 3188 3703 2916 3861 
Q 2644 4019 2163 4019 
Q 1634 4019 1356 3844 
Q 1078 3669 1078 3322 
Q 1078 3119 1186 2986 
Q 1294 2853 1497 2761 
Q 1700 2669 2306 2534 
Q 2509 2488 2711 2439 
Q 2913 2391 3097 2323 
Q 3281 2256 3442 2165 
Q 3603 2075 3722 1944 
Q 3841 1813 3908 1634 
Q 3975 1456 3975 1216 
z
" id="LiberationSans-53" transform="scale(0.015625)"/>
       <path d="M 444 0 
L 444 2594 
Q 444 2950 425 3381 
L 956 3381 
Q 981 2806 981 2691 
L 994 2691 
Q 1128 3125 1303 3284 
Q 1478 3444 1797 3444 
Q 1909 3444 2025 3413 
L 2025 2897 
Q 1913 2928 1725 2928 
Q 1375 2928 1190 2626 
Q 1006 2325 1006 1763 
L 1006 0 
L 444 0 
z
" id="LiberationSans-72" transform="scale(0.015625)"/>
       <path d="M 1713 -1328 
Q 1159 -1328 831 -1111 
Q 503 -894 409 -494 
L 975 -413 
Q 1031 -647 1223 -773 
Q 1416 -900 1728 -900 
Q 2569 -900 2569 84 
L 2569 628 
L 2563 628 
Q 2403 303 2125 139 
Q 1847 -25 1475 -25 
Q 853 -25 561 387 
Q 269 800 269 1684 
Q 269 2581 583 3007 
Q 897 3434 1538 3434 
Q 1897 3434 2161 3270 
Q 2425 3106 2569 2803 
L 2575 2803 
Q 2575 2897 2587 3128 
Q 2600 3359 2613 3381 
L 3147 3381 
Q 3128 3213 3128 2681 
L 3128 97 
Q 3128 -1328 1713 -1328 
z
M 2569 1691 
Q 2569 2103 2456 2401 
Q 2344 2700 2139 2858 
Q 1934 3016 1675 3016 
Q 1244 3016 1047 2703 
Q 850 2391 850 1691 
Q 850 997 1034 694 
Q 1219 391 1666 391 
Q 1931 391 2137 547 
Q 2344 703 2456 995 
Q 2569 1288 2569 1691 
z
" id="LiberationSans-67" transform="scale(0.015625)"/>
       <path d="M 991 2803 
Q 1172 3134 1426 3289 
Q 1681 3444 2072 3444 
Q 2622 3444 2883 3170 
Q 3144 2897 3144 2253 
L 3144 0 
L 2578 0 
L 2578 2144 
Q 2578 2500 2512 2673 
Q 2447 2847 2297 2928 
Q 2147 3009 1881 3009 
Q 1484 3009 1245 2734 
Q 1006 2459 1006 1994 
L 1006 0 
L 444 0 
L 444 4638 
L 1006 4638 
L 1006 3431 
Q 1006 3241 995 3037 
Q 984 2834 981 2803 
L 991 2803 
z
" id="LiberationSans-68" transform="scale(0.015625)"/>
      </defs>
      <use xlink:href="#LiberationSans-43"/>
      <use x="72.216797" xlink:href="#LiberationSans-6f"/>
      <use x="127.832031" xlink:href="#LiberationSans-6e"/>
      <use x="183.447266" xlink:href="#LiberationSans-74"/>
      <use x="211.230469" xlink:href="#LiberationSans-65"/>
      <use x="266.845703" xlink:href="#LiberationSans-78"/>
      <use x="316.845703" xlink:href="#LiberationSans-74"/>
      <use x="344.628906" xlink:href="#LiberationSans-20"/>
      <use x="372.412109" xlink:href="#LiberationSans-53"/>
      <use x="439.111328" xlink:href="#LiberationSans-74"/>
      <use x="466.894531" xlink:href="#LiberationSans-72"/>
      <use x="500.195312" xlink:href="#LiberationSans-65"/>
      <use x="555.810547" xlink:href="#LiberationSans-6e"/>
      <use x="611.425781" xlink:href="#LiberationSans-67"/>
      <use x="667.041016" xlink:href="#LiberationSans-74"/>
      <use x="694.824219" xlink:href="#LiberationSans-68"/>
     </g>
    </g>
   </g>
   <g id="matplotlib.axis_2">
    <g id="ytick_1">
     <g id="line2d_7">
      <defs>
       <path d="M 0 0 
L -6 0 
" id="m5f91ca1c96" style="stroke:#262626;stroke-width:1.25;"/>
      </defs>
      <g>
       <use style="fill:#262626;stroke:#262626;stroke-width:1.25;" x="54" xlink:href="#m5f91ca1c96" y="237.84"/>
      </g>
     </g>
     <g id="text_8">
      <!-- 0.5 -->
      <g style="fill:#262626;" transform="translate(27.82 242.188125)scale(0.12 -0.12)">
       <defs>
        <path d="M 3291 1434 
Q 3291 738 2877 337 
Q 2463 -63 1728 -63 
Q 1113 -63 734 206 
Q 356 475 256 984 
L 825 1050 
Q 1003 397 1741 397 
Q 2194 397 2450 670 
Q 2706 944 2706 1422 
Q 2706 1838 2448 2094 
Q 2191 2350 1753 2350 
Q 1525 2350 1328 2278 
Q 1131 2206 934 2034 
L 384 2034 
L 531 4403 
L 3034 4403 
L 3034 3925 
L 1044 3925 
L 959 2528 
Q 1325 2809 1869 2809 
Q 2519 2809 2905 2428 
Q 3291 2047 3291 1434 
z
" id="LiberationSans-35" transform="scale(0.015625)"/>
       </defs>
       <use xlink:href="#LiberationSans-30"/>
       <use x="55.615234" xlink:href="#LiberationSans-2e"/>
       <use x="83.398438" xlink:href="#LiberationSans-35"/>
      </g>
     </g>
    </g>
    <g id="ytick_2">
     <g id="line2d_8">
      <g>
       <use style="fill:#262626;stroke:#262626;stroke-width:1.25;" x="54" xlink:href="#m5f91ca1c96" y="200.88"/>
      </g>
     </g>
     <g id="text_9">
      <!-- 0.6 -->
      <g style="fill:#262626;" transform="translate(27.82 205.228125)scale(0.12 -0.12)">
       <use xlink:href="#LiberationSans-30"/>
       <use x="55.615234" xlink:href="#LiberationSans-2e"/>
       <use x="83.398438" xlink:href="#LiberationSans-36"/>
      </g>
     </g>
    </g>
    <g id="ytick_3">
     <g id="line2d_9">
      <g>
       <use style="fill:#262626;stroke:#262626;stroke-width:1.25;" x="54" xlink:href="#m5f91ca1c96" y="163.92"/>
      </g>
     </g>
     <g id="text_10">
      <!-- 0.7 -->
      <g style="fill:#262626;" transform="translate(27.82 168.268125)scale(0.12 -0.12)">
       <defs>
        <path d="M 3238 3947 
Q 2563 2916 2284 2331 
Q 2006 1747 1867 1178 
Q 1728 609 1728 0 
L 1141 0 
Q 1141 844 1498 1776 
Q 1856 2709 2694 3925 
L 328 3925 
L 328 4403 
L 3238 4403 
L 3238 3947 
z
" id="LiberationSans-37" transform="scale(0.015625)"/>
       </defs>
       <use xlink:href="#LiberationSans-30"/>
       <use x="55.615234" xlink:href="#LiberationSans-2e"/>
       <use x="83.398438" xlink:href="#LiberationSans-37"/>
      </g>
     </g>
    </g>
    <g id="ytick_4">
     <g id="line2d_10">
      <g>
       <use style="fill:#262626;stroke:#262626;stroke-width:1.25;" x="54" xlink:href="#m5f91ca1c96" y="126.96"/>
      </g>
     </g>
     <g id="text_11">
      <!-- 0.8 -->
      <g style="fill:#262626;" transform="translate(27.82 131.308125)scale(0.12 -0.12)">
       <use xlink:href="#LiberationSans-30"/>
       <use x="55.615234" xlink:href="#LiberationSans-2e"/>
       <use x="83.398438" xlink:href="#LiberationSans-38"/>
      </g>
     </g>
    </g>
    <g id="ytick_5">
     <g id="line2d_11">
      <g>
       <use style="fill:#262626;stroke:#262626;stroke-width:1.25;" x="54" xlink:href="#m5f91ca1c96" y="90"/>
      </g>
     </g>
     <g id="text_12">
      <!-- 0.9 -->
      <g style="fill:#262626;" transform="translate(27.82 94.348125)scale(0.12 -0.12)">
       <defs>
        <path d="M 3256 2291 
Q 3256 1156 2842 546 
Q 2428 -63 1663 -63 
Q 1147 -63 836 154 
Q 525 372 391 856 
L 928 941 
Q 1097 391 1672 391 
Q 2156 391 2422 841 
Q 2688 1291 2700 2125 
Q 2575 1844 2272 1673 
Q 1969 1503 1606 1503 
Q 1013 1503 656 1909 
Q 300 2316 300 2988 
Q 300 3678 687 4073 
Q 1075 4469 1766 4469 
Q 2500 4469 2878 3925 
Q 3256 3381 3256 2291 
z
M 2644 2834 
Q 2644 3366 2400 3689 
Q 2156 4013 1747 4013 
Q 1341 4013 1106 3736 
Q 872 3459 872 2988 
Q 872 2506 1106 2226 
Q 1341 1947 1741 1947 
Q 1984 1947 2193 2058 
Q 2403 2169 2523 2372 
Q 2644 2575 2644 2834 
z
" id="LiberationSans-39" transform="scale(0.015625)"/>
       </defs>
       <use xlink:href="#LiberationSans-30"/>
       <use x="55.615234" xlink:href="#LiberationSans-2e"/>
       <use x="83.398438" xlink:href="#LiberationSans-39"/>
      </g>
     </g>
    </g>
    <g id="ytick_6">
     <g id="line2d_12">
      <g>
       <use style="fill:#262626;stroke:#262626;stroke-width:1.25;" x="54" xlink:href="#m5f91ca1c96" y="53.04"/>
      </g>
     </g>
     <g id="text_13">
      <!-- 1.0 -->
      <g style="fill:#262626;" transform="translate(27.82 57.388125)scale(0.12 -0.12)">
       <use xlink:href="#LiberationSans-31"/>
       <use x="55.615234" xlink:href="#LiberationSans-2e"/>
       <use x="83.398438" xlink:href="#LiberationSans-30"/>
      </g>
     </g>
    </g>
    <g id="text_14">
     <!-- Accuracy -->
     <g style="fill:#262626;" transform="translate(20.5 178.3375)rotate(-90)scale(0.16 -0.16)">
      <defs>
       <path d="M 3647 0 
L 3144 1288 
L 1138 1288 
L 631 0 
L 13 0 
L 1809 4403 
L 2488 4403 
L 4256 0 
L 3647 0 
z
M 2141 3953 
L 2113 3866 
Q 2034 3606 1881 3200 
L 1319 1753 
L 2966 1753 
L 2400 3206 
Q 2313 3422 2225 3694 
L 2141 3953 
z
" id="LiberationSans-41" transform="scale(0.015625)"/>
       <path d="M 859 1706 
Q 859 1031 1071 706 
Q 1284 381 1713 381 
Q 2013 381 2214 543 
Q 2416 706 2463 1044 
L 3031 1006 
Q 2966 519 2616 228 
Q 2266 -63 1728 -63 
Q 1019 -63 645 385 
Q 272 834 272 1694 
Q 272 2547 647 2995 
Q 1022 3444 1722 3444 
Q 2241 3444 2583 3175 
Q 2925 2906 3013 2434 
L 2434 2391 
Q 2391 2672 2212 2837 
Q 2034 3003 1706 3003 
Q 1259 3003 1059 2706 
Q 859 2409 859 1706 
z
" id="LiberationSans-63" transform="scale(0.015625)"/>
       <path d="M 981 3381 
L 981 1238 
Q 981 903 1047 718 
Q 1113 534 1256 453 
Q 1400 372 1678 372 
Q 2084 372 2318 650 
Q 2553 928 2553 1422 
L 2553 3381 
L 3116 3381 
L 3116 722 
Q 3116 131 3134 0 
L 2603 0 
Q 2600 16 2597 84 
Q 2594 153 2589 242 
Q 2584 331 2578 578 
L 2569 578 
Q 2375 228 2120 82 
Q 1866 -63 1488 -63 
Q 931 -63 673 214 
Q 416 491 416 1128 
L 416 3381 
L 981 3381 
z
" id="LiberationSans-75" transform="scale(0.015625)"/>
       <path d="M 1294 -63 
Q 784 -63 528 206 
Q 272 475 272 944 
Q 272 1469 617 1750 
Q 963 2031 1731 2050 
L 2491 2063 
L 2491 2247 
Q 2491 2659 2316 2837 
Q 2141 3016 1766 3016 
Q 1388 3016 1216 2887 
Q 1044 2759 1009 2478 
L 422 2531 
Q 566 3444 1778 3444 
Q 2416 3444 2737 3151 
Q 3059 2859 3059 2306 
L 3059 850 
Q 3059 600 3125 473 
Q 3191 347 3375 347 
Q 3456 347 3559 369 
L 3559 19 
Q 3347 -31 3125 -31 
Q 2813 -31 2670 133 
Q 2528 297 2509 647 
L 2491 647 
Q 2275 259 1989 98 
Q 1703 -63 1294 -63 
z
M 1422 359 
Q 1731 359 1972 500 
Q 2213 641 2352 886 
Q 2491 1131 2491 1391 
L 2491 1669 
L 1875 1656 
Q 1478 1650 1273 1575 
Q 1069 1500 959 1344 
Q 850 1188 850 934 
Q 850 659 998 509 
Q 1147 359 1422 359 
z
" id="LiberationSans-61" transform="scale(0.015625)"/>
       <path d="M 597 -1328 
Q 366 -1328 209 -1294 
L 209 -872 
Q 328 -891 472 -891 
Q 997 -891 1303 -119 
L 1356 16 
L 16 3381 
L 616 3381 
L 1328 1513 
Q 1344 1469 1366 1408 
Q 1388 1347 1506 1000 
Q 1625 653 1634 613 
L 1853 1228 
L 2594 3381 
L 3188 3381 
L 1888 0 
Q 1678 -541 1497 -805 
Q 1316 -1069 1095 -1198 
Q 875 -1328 597 -1328 
z
" id="LiberationSans-79" transform="scale(0.015625)"/>
      </defs>
      <use xlink:href="#LiberationSans-41"/>
      <use x="66.699219" xlink:href="#LiberationSans-63"/>
      <use x="116.699219" xlink:href="#LiberationSans-63"/>
      <use x="166.699219" xlink:href="#LiberationSans-75"/>
      <use x="222.314453" xlink:href="#LiberationSans-72"/>
      <use x="255.615234" xlink:href="#LiberationSans-61"/>
      <use x="311.230469" xlink:href="#LiberationSans-63"/>
      <use x="361.230469" xlink:href="#LiberationSans-79"/>
     </g>
    </g>
   </g>
   <g id="PolyCollection_1">
    <defs>
     <path d="M 69.218182 -190.816814 
L 69.218182 -124.315955 
L 72.261818 -124.541819 
L 75.305455 -124.77137 
L 78.349091 -125.004131 
L 81.392727 -125.241702 
L 84.436364 -125.485617 
L 87.48 -125.724942 
L 90.523636 -125.961862 
L 93.567273 -126.198086 
L 96.610909 -126.434659 
L 99.654545 -126.673445 
L 102.698182 -126.912721 
L 105.741818 -127.151498 
L 108.785455 -127.394505 
L 111.829091 -127.641522 
L 114.872727 -127.892109 
L 117.916364 -128.145684 
L 120.96 -128.396911 
L 124.003636 -128.649646 
L 127.047273 -128.905952 
L 130.090909 -129.167484 
L 133.134545 -129.431381 
L 136.178182 -129.696442 
L 139.221818 -129.965482 
L 142.265455 -130.237884 
L 145.309091 -130.513138 
L 148.352727 -130.789241 
L 151.396364 -131.065306 
L 154.44 -131.33984 
L 157.483636 -131.613397 
L 160.527273 -131.888036 
L 163.570909 -132.162427 
L 166.614545 -132.435488 
L 169.658182 -132.710101 
L 172.701818 -132.984259 
L 175.745455 -133.257633 
L 178.789091 -133.529916 
L 181.832727 -133.799608 
L 184.876364 -134.065599 
L 187.92 -134.328617 
L 190.963636 -134.589194 
L 194.007273 -134.845285 
L 197.050909 -135.100098 
L 200.094545 -135.351553 
L 203.138182 -135.60123 
L 206.181818 -135.847304 
L 209.225455 -136.092751 
L 212.269091 -136.334286 
L 215.312727 -136.572242 
L 218.356364 -136.806676 
L 221.4 -137.03509 
L 224.443636 -137.261619 
L 227.487273 -137.480534 
L 230.530909 -137.693785 
L 233.574545 -137.904308 
L 236.618182 -138.109359 
L 239.661818 -138.309088 
L 242.705455 -138.500525 
L 245.749091 -138.68153 
L 248.792727 -138.852407 
L 251.836364 -139.01535 
L 254.88 -139.168592 
L 257.923636 -139.31214 
L 260.967273 -139.44815 
L 264.010909 -139.577684 
L 267.054545 -139.697774 
L 270.098182 -139.806246 
L 273.141818 -139.901332 
L 276.185455 -139.984746 
L 279.229091 -140.05362 
L 282.272727 -140.106176 
L 285.316364 -140.144652 
L 288.36 -140.167741 
L 291.403636 -140.176219 
L 294.447273 -140.170339 
L 297.490909 -140.15033 
L 300.534545 -140.114991 
L 303.578182 -140.063863 
L 306.621818 -139.997359 
L 309.665455 -139.916677 
L 312.709091 -139.822612 
L 315.752727 -139.718026 
L 318.796364 -139.602376 
L 321.84 -139.474863 
L 324.883636 -139.333713 
L 327.927273 -139.181757 
L 330.970909 -139.023048 
L 334.014545 -138.857238 
L 337.058182 -138.680575 
L 340.101818 -138.497067 
L 343.145455 -138.308606 
L 346.189091 -138.112987 
L 349.232727 -137.9086 
L 352.276364 -137.701424 
L 355.32 -137.491041 
L 358.363636 -137.276677 
L 361.407273 -137.05659 
L 364.450909 -136.834042 
L 367.494545 -136.609213 
L 370.538182 -136.38292 
L 373.581818 -136.156892 
L 373.581818 -190.815567 
L 373.581818 -190.815567 
L 370.538182 -190.581981 
L 367.494545 -190.349548 
L 364.450909 -190.125274 
L 361.407273 -189.904132 
L 358.363636 -189.681694 
L 355.32 -189.457264 
L 352.276364 -189.233397 
L 349.232727 -189.007322 
L 346.189091 -188.783361 
L 343.145455 -188.566164 
L 340.101818 -188.355801 
L 337.058182 -188.15149 
L 334.014545 -187.954758 
L 330.970909 -187.763973 
L 327.927273 -187.579388 
L 324.883636 -187.403082 
L 321.84 -187.232209 
L 318.796364 -187.064793 
L 315.752727 -186.902557 
L 312.709091 -186.747365 
L 309.665455 -186.602681 
L 306.621818 -186.467678 
L 303.578182 -186.342775 
L 300.534545 -186.225697 
L 297.490909 -186.115818 
L 294.447273 -186.012605 
L 291.403636 -185.918881 
L 288.36 -185.830596 
L 285.316364 -185.749008 
L 282.272727 -185.674354 
L 279.229091 -185.608947 
L 276.185455 -185.552155 
L 273.141818 -185.509356 
L 270.098182 -185.476425 
L 267.054545 -185.448199 
L 264.010909 -185.424136 
L 260.967273 -185.406825 
L 257.923636 -185.395088 
L 254.88 -185.387632 
L 251.836364 -185.384087 
L 248.792727 -185.38645 
L 245.749091 -185.399149 
L 242.705455 -185.417313 
L 239.661818 -185.438792 
L 236.618182 -185.471089 
L 233.574545 -185.509534 
L 230.530909 -185.552199 
L 227.487273 -185.600512 
L 224.443636 -185.654578 
L 221.4 -185.713311 
L 218.356364 -185.772859 
L 215.312727 -185.835907 
L 212.269091 -185.904923 
L 209.225455 -185.975821 
L 206.181818 -186.053237 
L 203.138182 -186.139381 
L 200.094545 -186.225967 
L 197.050909 -186.312995 
L 194.007273 -186.402513 
L 190.963636 -186.496544 
L 187.92 -186.594113 
L 184.876364 -186.693326 
L 181.832727 -186.796467 
L 178.789091 -186.90355 
L 175.745455 -187.008397 
L 172.701818 -187.107937 
L 169.658182 -187.203379 
L 166.614545 -187.30216 
L 163.570909 -187.409691 
L 160.527273 -187.522079 
L 157.483636 -187.639852 
L 154.44 -187.755198 
L 151.396364 -187.86734 
L 148.352727 -187.979593 
L 145.309091 -188.093247 
L 142.265455 -188.20756 
L 139.221818 -188.321006 
L 136.178182 -188.437567 
L 133.134545 -188.552352 
L 130.090909 -188.662924 
L 127.047273 -188.772634 
L 124.003636 -188.884889 
L 120.96 -188.996129 
L 117.916364 -189.102516 
L 114.872727 -189.208098 
L 111.829091 -189.314885 
L 108.785455 -189.424792 
L 105.741818 -189.538057 
L 102.698182 -189.651005 
L 99.654545 -189.765578 
L 96.610909 -189.88055 
L 93.567273 -189.995868 
L 90.523636 -190.106609 
L 87.48 -190.212309 
L 84.436364 -190.314643 
L 81.392727 -190.417157 
L 78.349091 -190.520093 
L 75.305455 -190.620332 
L 72.261818 -190.720201 
L 69.218182 -190.816814 
z
" id="mca34370510" style="stroke:#ffffff;stroke-opacity:0.5;"/>
    </defs>
    <g clip-path="url(#p0821088136)">
     <use style="fill:#a1c9f4;fill-opacity:0.5;stroke:#ffffff;stroke-opacity:0.5;" x="0" xlink:href="#mca34370510" y="288"/>
    </g>
   </g>
   <g id="PolyCollection_2">
    <defs>
     <path d="M 69.218182 -187.912589 
L 69.218182 -120.563355 
L 72.261818 -120.665249 
L 75.305455 -120.768713 
L 78.349091 -120.871772 
L 81.392727 -120.976733 
L 84.436364 -121.080868 
L 87.48 -121.183924 
L 90.523636 -121.288785 
L 93.567273 -121.397432 
L 96.610909 -121.511052 
L 99.654545 -121.626072 
L 102.698182 -121.740866 
L 105.741818 -121.854095 
L 108.785455 -121.968441 
L 111.829091 -122.080109 
L 114.872727 -122.187705 
L 117.916364 -122.293591 
L 120.96 -122.399705 
L 124.003636 -122.510474 
L 127.047273 -122.622563 
L 130.090909 -122.731232 
L 133.134545 -122.839623 
L 136.178182 -122.952236 
L 139.221818 -123.06681 
L 142.265455 -123.178743 
L 145.309091 -123.292088 
L 148.352727 -123.405096 
L 151.396364 -123.516136 
L 154.44 -123.627152 
L 157.483636 -123.740248 
L 160.527273 -123.850423 
L 163.570909 -123.956574 
L 166.614545 -124.061412 
L 169.658182 -124.159082 
L 172.701818 -124.252769 
L 175.745455 -124.348495 
L 178.789091 -124.448969 
L 181.832727 -124.55117 
L 184.876364 -124.64886 
L 187.92 -124.744129 
L 190.963636 -124.838171 
L 194.007273 -124.928564 
L 197.050909 -125.015023 
L 200.094545 -125.09982 
L 203.138182 -125.184241 
L 206.181818 -125.267617 
L 209.225455 -125.34194 
L 212.269091 -125.410261 
L 215.312727 -125.476608 
L 218.356364 -125.536308 
L 221.4 -125.591766 
L 224.443636 -125.645733 
L 227.487273 -125.695606 
L 230.530909 -125.739661 
L 233.574545 -125.778237 
L 236.618182 -125.81275 
L 239.661818 -125.841503 
L 242.705455 -125.860101 
L 245.749091 -125.875774 
L 248.792727 -125.885729 
L 251.836364 -125.885307 
L 254.88 -125.878396 
L 257.923636 -125.867459 
L 260.967273 -125.852309 
L 264.010909 -125.831615 
L 267.054545 -125.804122 
L 270.098182 -125.773593 
L 273.141818 -125.738401 
L 276.185455 -125.692512 
L 279.229091 -125.632792 
L 282.272727 -125.565408 
L 285.316364 -125.488878 
L 288.36 -125.405301 
L 291.403636 -125.315261 
L 294.447273 -125.219789 
L 297.490909 -125.114468 
L 300.534545 -125.002604 
L 303.578182 -124.883688 
L 306.621818 -124.75748 
L 309.665455 -124.621154 
L 312.709091 -124.475274 
L 315.752727 -124.319305 
L 318.796364 -124.156512 
L 321.84 -123.988581 
L 324.883636 -123.817139 
L 327.927273 -123.640016 
L 330.970909 -123.454347 
L 334.014545 -123.262159 
L 337.058182 -123.063931 
L 340.101818 -122.858118 
L 343.145455 -122.646098 
L 346.189091 -122.426564 
L 349.232727 -122.200093 
L 352.276364 -121.970878 
L 355.32 -121.74362 
L 358.363636 -121.515197 
L 361.407273 -121.2884 
L 364.450909 -121.062493 
L 367.494545 -120.833053 
L 370.538182 -120.594697 
L 373.581818 -120.3546 
L 373.581818 -175.352797 
L 373.581818 -175.352797 
L 370.538182 -175.143817 
L 367.494545 -174.935001 
L 364.450909 -174.728097 
L 361.407273 -174.523412 
L 358.363636 -174.320594 
L 355.32 -174.123457 
L 352.276364 -173.930581 
L 349.232727 -173.741029 
L 346.189091 -173.55453 
L 343.145455 -173.376938 
L 340.101818 -173.206621 
L 337.058182 -173.041188 
L 334.014545 -172.882748 
L 330.970909 -172.734783 
L 327.927273 -172.593891 
L 324.883636 -172.459989 
L 321.84 -172.33708 
L 318.796364 -172.227811 
L 315.752727 -172.130192 
L 312.709091 -172.043458 
L 309.665455 -171.966785 
L 306.621818 -171.902626 
L 303.578182 -171.851997 
L 300.534545 -171.816663 
L 297.490909 -171.796467 
L 294.447273 -171.790683 
L 291.403636 -171.798958 
L 288.36 -171.821466 
L 285.316364 -171.85797 
L 282.272727 -171.909025 
L 279.229091 -171.973511 
L 276.185455 -172.05419 
L 273.141818 -172.148897 
L 270.098182 -172.254639 
L 267.054545 -172.372984 
L 264.010909 -172.502814 
L 260.967273 -172.641752 
L 257.923636 -172.787378 
L 254.88 -172.940775 
L 251.836364 -173.103486 
L 248.792727 -173.27582 
L 245.749091 -173.455929 
L 242.705455 -173.645773 
L 239.661818 -173.845572 
L 236.618182 -174.052866 
L 233.574545 -174.265245 
L 230.530909 -174.482992 
L 227.487273 -174.703182 
L 224.443636 -174.928528 
L 221.4 -175.161005 
L 218.356364 -175.394903 
L 215.312727 -175.634731 
L 212.269091 -175.877362 
L 209.225455 -176.123328 
L 206.181818 -176.372708 
L 203.138182 -176.622942 
L 200.094545 -176.876659 
L 197.050909 -177.13243 
L 194.007273 -177.391258 
L 190.963636 -177.651349 
L 187.92 -177.915958 
L 184.876364 -178.182829 
L 181.832727 -178.452358 
L 178.789091 -178.725276 
L 175.745455 -179.000229 
L 172.701818 -179.276607 
L 169.658182 -179.553426 
L 166.614545 -179.830667 
L 163.570909 -180.10642 
L 160.527273 -180.382847 
L 157.483636 -180.659062 
L 154.44 -180.93395 
L 151.396364 -181.209939 
L 148.352727 -181.48679 
L 145.309091 -181.763338 
L 142.265455 -182.03798 
L 139.221818 -182.309419 
L 136.178182 -182.577121 
L 133.134545 -182.840803 
L 130.090909 -183.102713 
L 127.047273 -183.36157 
L 124.003636 -183.615111 
L 120.96 -183.865376 
L 117.916364 -184.114462 
L 114.872727 -184.366176 
L 111.829091 -184.615258 
L 108.785455 -184.860447 
L 105.741818 -185.100857 
L 102.698182 -185.337025 
L 99.654545 -185.573137 
L 96.610909 -185.808237 
L 93.567273 -186.04191 
L 90.523636 -186.275335 
L 87.48 -186.510242 
L 84.436364 -186.748323 
L 81.392727 -186.991258 
L 78.349091 -187.227812 
L 75.305455 -187.45965 
L 72.261818 -187.687964 
L 69.218182 -187.912589 
z
" id="m73a1ca59c7" style="stroke:#ffffff;stroke-opacity:0.5;"/>
    </defs>
    <g clip-path="url(#p0821088136)">
     <use style="fill:#ffb482;fill-opacity:0.5;stroke:#ffffff;stroke-opacity:0.5;" x="0" xlink:href="#m73a1ca59c7" y="288"/>
    </g>
   </g>
   <g id="line2d_13">
    <path clip-path="url(#p0821088136)" d="M 69.218182 130.433615 
L 72.261818 130.36899 
L 75.305455 130.304149 
L 78.349091 130.237888 
L 81.392727 130.170571 
L 84.436364 130.09987 
L 87.48 130.031375 
L 90.523636 129.965764 
L 93.567273 129.903023 
L 96.610909 129.842395 
L 99.654545 129.780488 
L 102.698182 129.718137 
L 105.741818 129.655222 
L 108.785455 129.590352 
L 111.829091 129.521796 
L 114.872727 129.449897 
L 117.916364 129.3759 
L 120.96 129.30348 
L 124.003636 129.232733 
L 127.047273 129.160707 
L 130.090909 129.084796 
L 133.134545 129.008133 
L 136.178182 128.932996 
L 139.221818 128.856756 
L 142.265455 128.777278 
L 145.309091 128.696808 
L 148.352727 128.615583 
L 151.396364 128.533677 
L 154.44 128.452481 
L 157.483636 128.373376 
L 160.527273 128.294943 
L 163.570909 128.213941 
L 166.614545 128.131176 
L 169.658182 128.04326 
L 172.701818 127.953902 
L 175.745455 127.866985 
L 178.789091 127.783267 
L 181.832727 127.701963 
L 184.876364 127.620537 
L 187.92 127.538635 
L 190.963636 127.457131 
L 194.007273 127.376101 
L 197.050909 127.293453 
L 200.094545 127.21124 
L 203.138182 127.129694 
L 206.181818 127.04973 
L 209.225455 126.965714 
L 212.269091 126.880395 
L 215.312727 126.795926 
L 218.356364 126.710233 
L 221.4 126.625799 
L 224.443636 126.541902 
L 227.487273 126.459477 
L 230.530909 126.377008 
L 233.574545 126.293079 
L 236.618182 126.209776 
L 239.661818 126.12606 
L 242.705455 126.041081 
L 245.749091 125.95966 
L 248.792727 125.880572 
L 251.836364 125.800282 
L 254.88 125.721888 
L 257.923636 125.646386 
L 260.967273 125.572513 
L 264.010909 125.49909 
L 267.054545 125.427013 
L 270.098182 125.358664 
L 273.141818 125.294656 
L 276.185455 125.23155 
L 279.229091 125.168717 
L 282.272727 125.109735 
L 285.316364 125.05317 
L 288.36 125.000832 
L 291.403636 124.95245 
L 294.447273 124.908528 
L 297.490909 124.866926 
L 300.534545 124.829656 
L 303.578182 124.796681 
L 306.621818 124.767481 
L 309.665455 124.740321 
L 312.709091 124.715012 
L 315.752727 124.689709 
L 318.796364 124.666415 
L 321.84 124.646464 
L 324.883636 124.631603 
L 327.927273 124.619428 
L 330.970909 124.606489 
L 334.014545 124.594002 
L 337.058182 124.583968 
L 340.101818 124.573566 
L 343.145455 124.562615 
L 346.189091 124.551826 
L 349.232727 124.542039 
L 352.276364 124.53259 
L 355.32 124.525847 
L 358.363636 124.520815 
L 361.407273 124.519639 
L 364.450909 124.520342 
L 367.494545 124.520619 
L 370.538182 124.51755 
L 373.581818 124.51377 
" style="fill:none;stroke:#a1c9f4;stroke-linecap:round;stroke-width:1.5;"/>
   </g>
   <g id="line2d_14">
    <path clip-path="url(#p0821088136)" d="M 69.218182 133.762028 
L 72.261818 133.823393 
L 75.305455 133.885818 
L 78.349091 133.950208 
L 81.392727 134.016005 
L 84.436364 134.085405 
L 87.48 134.152917 
L 90.523636 134.21794 
L 93.567273 134.280329 
L 96.610909 134.340356 
L 99.654545 134.400395 
L 102.698182 134.461055 
L 105.741818 134.522524 
L 108.785455 134.585556 
L 111.829091 134.652317 
L 114.872727 134.72306 
L 117.916364 134.795973 
L 120.96 134.86746 
L 124.003636 134.937208 
L 127.047273 135.007933 
L 130.090909 135.083027 
L 133.134545 135.159787 
L 136.178182 135.235322 
L 139.221818 135.311886 
L 142.265455 135.391639 
L 145.309091 135.472287 
L 148.352727 135.554057 
L 151.396364 135.636962 
L 154.44 135.719449 
L 157.483636 135.800345 
L 160.527273 135.883365 
L 163.570909 135.968503 
L 166.614545 136.053961 
L 169.658182 136.143746 
L 172.701818 136.235312 
L 175.745455 136.325638 
L 178.789091 136.412877 
L 181.832727 136.498236 
L 184.876364 136.584155 
L 187.92 136.669956 
L 190.963636 136.75524 
L 194.007273 136.840089 
L 197.050909 136.926273 
L 200.094545 137.01176 
L 203.138182 137.096408 
L 206.181818 137.179837 
L 209.225455 137.267366 
L 212.269091 137.356189 
L 215.312727 137.444331 
L 218.356364 137.534395 
L 221.4 137.623615 
L 224.443636 137.71287 
L 227.487273 137.800606 
L 230.530909 137.888673 
L 233.574545 137.978259 
L 236.618182 138.067192 
L 239.661818 138.156463 
L 242.705455 138.247063 
L 245.749091 138.334149 
L 248.792727 138.419225 
L 251.836364 138.505604 
L 254.88 138.590414 
L 257.923636 138.672582 
L 260.967273 138.752969 
L 264.010909 138.832785 
L 267.054545 138.911447 
L 270.098182 138.985884 
L 273.141818 139.056351 
L 276.185455 139.126649 
L 279.229091 139.196848 
L 282.272727 139.262784 
L 285.316364 139.326576 
L 288.36 139.386617 
L 291.403636 139.442891 
L 294.447273 139.494764 
L 297.490909 139.544533 
L 300.534545 139.590367 
L 303.578182 139.632158 
L 306.621818 139.669947 
L 309.665455 139.70603 
L 312.709091 139.740634 
L 315.752727 139.775251 
L 318.796364 139.807839 
L 321.84 139.83717 
L 324.883636 139.861436 
L 327.927273 139.883046 
L 330.970909 139.905435 
L 334.014545 139.927546 
L 337.058182 139.94744 
L 340.101818 139.967631 
L 343.145455 139.988482 
L 346.189091 140.009453 
L 349.232727 140.029439 
L 352.276364 140.049271 
L 355.32 140.066461 
L 358.363636 140.082105 
L 361.407273 140.094094 
L 364.450909 140.104705 
L 367.494545 140.115973 
L 370.538182 140.130743 
L 373.581818 140.146301 
" style="fill:none;stroke:#ffb482;stroke-linecap:round;stroke-width:1.5;"/>
   </g>
   <g id="patch_3">
    <path d="M 54 256.32 
L 54 34.56 
" style="fill:none;stroke:#262626;stroke-linecap:square;stroke-linejoin:miter;stroke-width:1.25;"/>
   </g>
   <g id="patch_4">
    <path d="M 54 256.32 
L 388.8 256.32 
" style="fill:none;stroke:#262626;stroke-linecap:square;stroke-linejoin:miter;stroke-width:1.25;"/>
   </g>
  </g>
 </g>
 <defs>
  <clipPath id="p0821088136">
   <rect height="221.76" width="334.8" x="54" y="34.56"/>
  </clipPath>
 </defs>
</svg>
