<?xml version="1.0" encoding="utf-8" standalone="no"?>
<!DOCTYPE svg PUBLIC "-//W3C//DTD SVG 1.1//EN"
  "http://www.w3.org/Graphics/SVG/1.1/DTD/svg11.dtd">
<svg xmlns:xlink="http://www.w3.org/1999/xlink" width="432pt" height="288pt" viewBox="0 0 432 288" xmlns="http://www.w3.org/2000/svg" version="1.1">
 <metadata>
  <rdf:RDF xmlns:dc="http://purl.org/dc/elements/1.1/" xmlns:cc="http://creativecommons.org/ns#" xmlns:rdf="http://www.w3.org/1999/02/22-rdf-syntax-ns#">
   <cc:Work>
    <dc:type rdf:resource="http://purl.org/dc/dcmitype/StillImage"/>
    <dc:date>2024-01-27T18:04:43.351098</dc:date>
    <dc:format>image/svg+xml</dc:format>
    <dc:creator>
     <cc:Agent>
      <dc:title>Matplotlib v3.7.4, https://matplotlib.org/</dc:title>
     </cc:Agent>
    </dc:creator>
   </cc:Work>
  </rdf:RDF>
 </metadata>
 <defs>
  <style type="text/css">*{stroke-linejoin: round; stroke-linecap: butt}</style>
 </defs>
 <g id="figure_1">
  <g id="patch_1">
   <path d="M 0 288 
L 432 288 
L 432 0 
L 0 0 
z
" style="fill: #ffffff"/>
  </g>
  <g id="axes_1">
   <g id="patch_2">
    <path d="M 54 256.32 
L 388.8 256.32 
L 388.8 34.56 
L 54 34.56 
z
" style="fill: #ffffff"/>
   </g>
   <g id="PolyCollection_1">
    <defs>
     <path id="m253185fbc9" d="M 69.218182 -82.611836 
L 69.218182 -79.993312 
L 72.261818 -80.023797 
L 75.305455 -80.058081 
L 78.349091 -80.096556 
L 81.392727 -80.132255 
L 84.436364 -80.165857 
L 87.48 -80.200881 
L 90.523636 -80.235619 
L 93.567273 -80.272695 
L 96.610909 -80.312961 
L 99.654545 -80.35911 
L 102.698182 -80.408775 
L 105.741818 -80.466146 
L 108.785455 -80.53655 
L 111.829091 -80.631684 
L 114.872727 -80.736516 
L 117.916364 -80.853025 
L 120.96 -80.992208 
L 124.003636 -81.14207 
L 127.047273 -81.291523 
L 130.090909 -81.449551 
L 133.134545 -81.622685 
L 136.178182 -81.786383 
L 139.221818 -81.957623 
L 142.265455 -82.104136 
L 145.309091 -82.200997 
L 148.352727 -82.364834 
L 151.396364 -82.537667 
L 154.44 -82.763473 
L 157.483636 -83.047923 
L 160.527273 -83.478315 
L 163.570909 -83.865125 
L 166.614545 -84.370102 
L 169.658182 -84.989086 
L 172.701818 -85.766592 
L 175.745455 -86.637418 
L 178.789091 -87.730734 
L 181.832727 -89.107398 
L 184.876364 -90.692385 
L 187.92 -92.562393 
L 190.963636 -94.769936 
L 194.007273 -97.381886 
L 197.050909 -100.299626 
L 200.094545 -103.583117 
L 203.138182 -107.271436 
L 206.181818 -111.381857 
L 209.225455 -115.981293 
L 212.269091 -120.91238 
L 215.312727 -126.06469 
L 218.356364 -131.436286 
L 221.4 -137.035089 
L 224.443636 -142.879688 
L 227.487273 -148.981579 
L 230.530909 -155.168223 
L 233.574545 -161.392973 
L 236.618182 -167.534211 
L 239.661818 -173.571832 
L 242.705455 -179.460009 
L 245.749091 -184.990801 
L 248.792727 -190.180273 
L 251.836364 -195.044804 
L 254.88 -199.487685 
L 257.923636 -203.423241 
L 260.967273 -207.020669 
L 264.010909 -210.199709 
L 267.054545 -213.060618 
L 270.098182 -215.603307 
L 273.141818 -217.849945 
L 276.185455 -219.709991 
L 279.229091 -221.236677 
L 282.272727 -222.559221 
L 285.316364 -223.672017 
L 288.36 -224.602912 
L 291.403636 -225.388475 
L 294.447273 -226.057405 
L 297.490909 -226.618836 
L 300.534545 -227.077038 
L 303.578182 -227.471071 
L 306.621818 -227.815749 
L 309.665455 -228.118589 
L 312.709091 -228.36246 
L 315.752727 -228.572349 
L 318.796364 -228.739085 
L 321.84 -228.884996 
L 324.883636 -229.011813 
L 327.927273 -229.122387 
L 330.970909 -229.214263 
L 334.014545 -229.291477 
L 337.058182 -229.362817 
L 340.101818 -229.427563 
L 343.145455 -229.484183 
L 346.189091 -229.531825 
L 349.232727 -229.568731 
L 352.276364 -229.598206 
L 355.32 -229.624191 
L 358.363636 -229.647272 
L 361.407273 -229.669203 
L 364.450909 -229.689009 
L 367.494545 -229.706062 
L 370.538182 -229.721596 
L 373.581818 -229.736385 
L 373.581818 -230.452937 
L 373.581818 -230.452937 
L 370.538182 -230.450796 
L 367.494545 -230.447468 
L 364.450909 -230.442612 
L 361.407273 -230.437669 
L 358.363636 -230.434385 
L 355.32 -230.430276 
L 352.276364 -230.426148 
L 349.232727 -230.421648 
L 346.189091 -230.41709 
L 343.145455 -230.413214 
L 340.101818 -230.407254 
L 337.058182 -230.399865 
L 334.014545 -230.390714 
L 330.970909 -230.379932 
L 327.927273 -230.371029 
L 324.883636 -230.360284 
L 321.84 -230.349025 
L 318.796364 -230.335626 
L 315.752727 -230.319094 
L 312.709091 -230.306155 
L 309.665455 -230.294371 
L 306.621818 -230.279169 
L 303.578182 -230.247865 
L 300.534545 -230.208802 
L 297.490909 -230.160988 
L 294.447273 -230.107787 
L 291.403636 -230.042757 
L 288.36 -229.963966 
L 285.316364 -229.86835 
L 282.272727 -229.748151 
L 279.229091 -229.606183 
L 276.185455 -229.413877 
L 273.141818 -229.188008 
L 270.098182 -228.91081 
L 267.054545 -228.534413 
L 264.010909 -228.056797 
L 260.967273 -227.381429 
L 257.923636 -226.546065 
L 254.88 -225.412848 
L 251.836364 -223.991698 
L 248.792727 -222.273684 
L 245.749091 -220.177645 
L 242.705455 -217.681743 
L 239.661818 -214.751794 
L 236.618182 -211.270219 
L 233.574545 -207.327511 
L 230.530909 -202.767646 
L 227.487273 -197.659091 
L 224.443636 -191.889135 
L 221.4 -185.713311 
L 218.356364 -179.126813 
L 215.312727 -172.419083 
L 212.269091 -165.686282 
L 209.225455 -158.962767 
L 206.181818 -152.36808 
L 203.138182 -146.114833 
L 200.094545 -140.13653 
L 197.050909 -134.472939 
L 194.007273 -129.39837 
L 190.963636 -124.741045 
L 187.92 -120.381351 
L 184.876364 -116.417671 
L 181.832727 -112.717911 
L 178.789091 -109.217702 
L 175.745455 -105.91746 
L 172.701818 -102.916681 
L 169.658182 -100.359634 
L 166.614545 -97.967052 
L 163.570909 -95.845986 
L 160.527273 -93.894036 
L 157.483636 -92.319148 
L 154.44 -90.764689 
L 151.396364 -89.393628 
L 148.352727 -88.178574 
L 145.309091 -87.160242 
L 142.265455 -86.186601 
L 139.221818 -85.489001 
L 136.178182 -84.941385 
L 133.134545 -84.505488 
L 130.090909 -84.198865 
L 127.047273 -83.937262 
L 124.003636 -83.724786 
L 120.96 -83.551956 
L 117.916364 -83.42055 
L 114.872727 -83.322091 
L 111.829091 -83.235493 
L 108.785455 -83.159415 
L 105.741818 -83.098513 
L 102.698182 -83.041188 
L 99.654545 -82.989643 
L 96.610909 -82.941614 
L 93.567273 -82.895756 
L 90.523636 -82.854791 
L 87.48 -82.816657 
L 84.436364 -82.779943 
L 81.392727 -82.745335 
L 78.349091 -82.71182 
L 75.305455 -82.679906 
L 72.261818 -82.646206 
L 69.218182 -82.611836 
z
" style="stroke: #c0d9ff; stroke-opacity: 0.5"/>
    </defs>
    <g clip-path="url(#p83b48f7665)">
     <use xlink:href="#m253185fbc9" x="0" y="288" style="fill: #c0d9ff; fill-opacity: 0.5; stroke: #c0d9ff; stroke-opacity: 0.5"/>
    </g>
   </g>
   <g id="PolyCollection_2">
    <defs>
     <path id="m63c3646d9a" d="M 69.218182 -229.758296 
L 69.218182 -228.975065 
L 72.261818 -228.958432 
L 75.305455 -228.939258 
L 78.349091 -228.917674 
L 81.392727 -228.896799 
L 84.436364 -228.875979 
L 87.48 -228.854071 
L 90.523636 -228.829844 
L 93.567273 -228.799753 
L 96.610909 -228.766858 
L 99.654545 -228.726916 
L 102.698182 -228.683165 
L 105.741818 -228.633363 
L 108.785455 -228.582146 
L 111.829091 -228.532492 
L 114.872727 -228.464661 
L 117.916364 -228.377699 
L 120.96 -228.258111 
L 124.003636 -228.075691 
L 127.047273 -227.836759 
L 130.090909 -227.519097 
L 133.134545 -227.141832 
L 136.178182 -226.628622 
L 139.221818 -226.013568 
L 142.265455 -225.259742 
L 145.309091 -224.245754 
L 148.352727 -223.213879 
L 151.396364 -221.997387 
L 154.44 -220.641822 
L 157.483636 -219.10182 
L 160.527273 -217.535044 
L 163.570909 -215.601201 
L 166.614545 -213.487747 
L 169.658182 -211.109112 
L 172.701818 -208.554423 
L 175.745455 -205.562397 
L 178.789091 -202.273307 
L 181.832727 -198.780997 
L 184.876364 -195.079581 
L 187.92 -191.096237 
L 190.963636 -186.730048 
L 194.007273 -182.056752 
L 197.050909 -176.968474 
L 200.094545 -171.304636 
L 203.138182 -165.311174 
L 206.181818 -159.038027 
L 209.225455 -152.419953 
L 212.269091 -145.683066 
L 215.312727 -138.944428 
L 218.356364 -132.202742 
L 221.4 -125.591767 
L 224.443636 -119.394168 
L 227.487273 -113.596073 
L 230.530909 -108.46633 
L 233.574545 -103.88718 
L 236.618182 -99.93514 
L 239.661818 -96.443812 
L 242.705455 -93.496976 
L 245.749091 -90.987531 
L 248.792727 -88.878593 
L 251.836364 -87.152554 
L 254.88 -85.725179 
L 257.923636 -84.580526 
L 260.967273 -83.723345 
L 264.010909 -83.027956 
L 267.054545 -82.521185 
L 270.098182 -82.115129 
L 273.141818 -81.800641 
L 276.185455 -81.535454 
L 279.229091 -81.309014 
L 282.272727 -81.135494 
L 285.316364 -80.98842 
L 288.36 -80.8666 
L 291.403636 -80.764153 
L 294.447273 -80.675829 
L 297.490909 -80.600481 
L 300.534545 -80.531048 
L 303.578182 -80.469701 
L 306.621818 -80.415231 
L 309.665455 -80.374223 
L 312.709091 -80.339141 
L 315.752727 -80.304123 
L 318.796364 -80.268874 
L 321.84 -80.238251 
L 324.883636 -80.2103 
L 327.927273 -80.18255 
L 330.970909 -80.155062 
L 334.014545 -80.127226 
L 337.058182 -80.101543 
L 340.101818 -80.075928 
L 343.145455 -80.051065 
L 346.189091 -80.024598 
L 349.232727 -79.998089 
L 352.276364 -79.973228 
L 355.32 -79.949663 
L 358.363636 -79.926294 
L 361.407273 -79.903104 
L 364.450909 -79.879415 
L 367.494545 -79.857668 
L 370.538182 -79.837487 
L 373.581818 -79.81806 
L 373.581818 -82.379662 
L 373.581818 -82.379662 
L 370.538182 -82.404745 
L 367.494545 -82.43109 
L 364.450909 -82.458721 
L 361.407273 -82.488563 
L 358.363636 -82.518862 
L 355.32 -82.550868 
L 352.276364 -82.585008 
L 349.232727 -82.622008 
L 346.189091 -82.665287 
L 343.145455 -82.718322 
L 340.101818 -82.783435 
L 337.058182 -82.856992 
L 334.014545 -82.935858 
L 330.970909 -83.021876 
L 327.927273 -83.122644 
L 324.883636 -83.241843 
L 321.84 -83.377011 
L 318.796364 -83.530588 
L 315.752727 -83.705769 
L 312.709091 -83.922222 
L 309.665455 -84.170966 
L 306.621818 -84.476844 
L 303.578182 -84.823589 
L 300.534545 -85.218008 
L 297.490909 -85.677552 
L 294.447273 -86.237022 
L 291.403636 -86.902852 
L 288.36 -87.681927 
L 285.316364 -88.605615 
L 282.272727 -89.715174 
L 279.229091 -91.027195 
L 276.185455 -92.5436 
L 273.141818 -94.393578 
L 270.098182 -96.630977 
L 267.054545 -99.164062 
L 264.010909 -102.018471 
L 260.967273 -105.198232 
L 257.923636 -108.794591 
L 254.88 -112.736038 
L 251.836364 -117.18583 
L 248.792727 -122.059594 
L 245.749091 -127.255822 
L 242.705455 -132.799825 
L 239.661818 -138.688355 
L 236.618182 -144.723714 
L 233.574545 -150.85788 
L 230.530909 -157.076961 
L 227.487273 -163.250967 
L 224.443636 -169.333077 
L 221.4 -175.161006 
L 218.356364 -180.730219 
L 215.312727 -186.072327 
L 212.269091 -191.191308 
L 209.225455 -196.080266 
L 206.181818 -200.630735 
L 203.138182 -204.694831 
L 200.094545 -208.331024 
L 197.050909 -211.569241 
L 194.007273 -214.430781 
L 190.963636 -216.971616 
L 187.92 -219.118643 
L 184.876364 -220.925367 
L 181.832727 -222.456259 
L 178.789091 -223.77707 
L 175.745455 -224.819557 
L 172.701818 -225.63867 
L 169.658182 -226.362707 
L 166.614545 -226.934697 
L 163.570909 -227.39245 
L 160.527273 -227.733548 
L 157.483636 -228.111058 
L 154.44 -228.347905 
L 151.396364 -228.532594 
L 148.352727 -228.652275 
L 145.309091 -228.756368 
L 142.265455 -228.771449 
L 139.221818 -228.823777 
L 136.178182 -228.884805 
L 133.134545 -228.926027 
L 130.090909 -228.986066 
L 127.047273 -229.043841 
L 124.003636 -229.117588 
L 120.96 -229.212981 
L 117.916364 -229.317703 
L 114.872727 -229.403153 
L 111.829091 -229.487603 
L 108.785455 -229.571563 
L 105.741818 -229.612052 
L 102.698182 -229.632435 
L 99.654545 -229.646075 
L 96.610909 -229.660815 
L 93.567273 -229.673449 
L 90.523636 -229.683676 
L 87.48 -229.693222 
L 84.436364 -229.705295 
L 81.392727 -229.715642 
L 78.349091 -229.727513 
L 75.305455 -229.73998 
L 72.261818 -229.750097 
L 69.218182 -229.758296 
z
" style="stroke: #ffbfc4; stroke-opacity: 0.5"/>
    </defs>
    <g clip-path="url(#p83b48f7665)">
     <use xlink:href="#m63c3646d9a" x="0" y="288" style="fill: #ffbfc4; fill-opacity: 0.5; stroke: #ffbfc4; stroke-opacity: 0.5"/>
    </g>
   </g>
   <g id="matplotlib.axis_1">
    <g id="xtick_1">
     <g id="line2d_1">
      <defs>
       <path id="m93e41b749e" d="M 0 0 
L 0 3.5 
" style="stroke: #000000; stroke-width: 1.5"/>
      </defs>
      <g>
       <use xlink:href="#m93e41b749e" x="69.218182" y="256.32" style="stroke: #000000; stroke-width: 1.5"/>
      </g>
     </g>
     <g id="text_1">
      <!-- 0.0 -->
      <g transform="translate(59.488182 273.465625) scale(0.14 -0.14)">
       <defs>
        <path id="LiberationSans-30" d="M 3309 2203 
Q 3309 1100 2920 518 
Q 2531 -63 1772 -63 
Q 1013 -63 631 515 
Q 250 1094 250 2203 
Q 250 3338 620 3903 
Q 991 4469 1791 4469 
Q 2569 4469 2939 3897 
Q 3309 3325 3309 2203 
z
M 2738 2203 
Q 2738 3156 2517 3584 
Q 2297 4013 1791 4013 
Q 1272 4013 1045 3591 
Q 819 3169 819 2203 
Q 819 1266 1048 831 
Q 1278 397 1778 397 
Q 2275 397 2506 840 
Q 2738 1284 2738 2203 
z
" transform="scale(0.015625)"/>
        <path id="LiberationSans-2e" d="M 584 0 
L 584 684 
L 1194 684 
L 1194 0 
L 584 0 
z
" transform="scale(0.015625)"/>
       </defs>
       <use xlink:href="#LiberationSans-30"/>
       <use xlink:href="#LiberationSans-2e" x="55.615234"/>
       <use xlink:href="#LiberationSans-30" x="83.398438"/>
      </g>
     </g>
    </g>
    <g id="xtick_2">
     <g id="line2d_2">
      <g>
       <use xlink:href="#m93e41b749e" x="130.090909" y="256.32" style="stroke: #000000; stroke-width: 1.5"/>
      </g>
     </g>
     <g id="text_2">
      <!-- 0.2 -->
      <g transform="translate(120.360909 273.465625) scale(0.14 -0.14)">
       <defs>
        <path id="LiberationSans-32" d="M 322 0 
L 322 397 
Q 481 763 711 1042 
Q 941 1322 1194 1548 
Q 1447 1775 1695 1969 
Q 1944 2163 2144 2356 
Q 2344 2550 2467 2762 
Q 2591 2975 2591 3244 
Q 2591 3606 2378 3806 
Q 2166 4006 1788 4006 
Q 1428 4006 1195 3811 
Q 963 3616 922 3263 
L 347 3316 
Q 409 3844 795 4156 
Q 1181 4469 1788 4469 
Q 2453 4469 2811 4155 
Q 3169 3841 3169 3263 
Q 3169 3006 3051 2753 
Q 2934 2500 2703 2247 
Q 2472 1994 1819 1463 
Q 1459 1169 1246 933 
Q 1034 697 941 478 
L 3238 478 
L 3238 0 
L 322 0 
z
" transform="scale(0.015625)"/>
       </defs>
       <use xlink:href="#LiberationSans-30"/>
       <use xlink:href="#LiberationSans-2e" x="55.615234"/>
       <use xlink:href="#LiberationSans-32" x="83.398438"/>
      </g>
     </g>
    </g>
    <g id="xtick_3">
     <g id="line2d_3">
      <g>
       <use xlink:href="#m93e41b749e" x="190.963636" y="256.32" style="stroke: #000000; stroke-width: 1.5"/>
      </g>
     </g>
     <g id="text_3">
      <!-- 0.4 -->
      <g transform="translate(181.233636 273.465625) scale(0.14 -0.14)">
       <defs>
        <path id="LiberationSans-34" d="M 2753 997 
L 2753 0 
L 2222 0 
L 2222 997 
L 147 997 
L 147 1434 
L 2163 4403 
L 2753 4403 
L 2753 1441 
L 3372 1441 
L 3372 997 
L 2753 997 
z
M 2222 3769 
Q 2216 3750 2134 3603 
Q 2053 3456 2013 3397 
L 884 1734 
L 716 1503 
L 666 1441 
L 2222 1441 
L 2222 3769 
z
" transform="scale(0.015625)"/>
       </defs>
       <use xlink:href="#LiberationSans-30"/>
       <use xlink:href="#LiberationSans-2e" x="55.615234"/>
       <use xlink:href="#LiberationSans-34" x="83.398438"/>
      </g>
     </g>
    </g>
    <g id="xtick_4">
     <g id="line2d_4">
      <g>
       <use xlink:href="#m93e41b749e" x="251.836364" y="256.32" style="stroke: #000000; stroke-width: 1.5"/>
      </g>
     </g>
     <g id="text_4">
      <!-- 0.6 -->
      <g transform="translate(242.106364 273.465625) scale(0.14 -0.14)">
       <defs>
        <path id="LiberationSans-36" d="M 3278 1441 
Q 3278 744 2900 340 
Q 2522 -63 1856 -63 
Q 1113 -63 719 490 
Q 325 1044 325 2100 
Q 325 3244 734 3856 
Q 1144 4469 1900 4469 
Q 2897 4469 3156 3572 
L 2619 3475 
Q 2453 4013 1894 4013 
Q 1413 4013 1148 3564 
Q 884 3116 884 2266 
Q 1038 2550 1316 2698 
Q 1594 2847 1953 2847 
Q 2563 2847 2920 2465 
Q 3278 2084 3278 1441 
z
M 2706 1416 
Q 2706 1894 2472 2153 
Q 2238 2413 1819 2413 
Q 1425 2413 1183 2183 
Q 941 1953 941 1550 
Q 941 1041 1192 716 
Q 1444 391 1838 391 
Q 2244 391 2475 664 
Q 2706 938 2706 1416 
z
" transform="scale(0.015625)"/>
       </defs>
       <use xlink:href="#LiberationSans-30"/>
       <use xlink:href="#LiberationSans-2e" x="55.615234"/>
       <use xlink:href="#LiberationSans-36" x="83.398438"/>
      </g>
     </g>
    </g>
    <g id="xtick_5">
     <g id="line2d_5">
      <g>
       <use xlink:href="#m93e41b749e" x="312.709091" y="256.32" style="stroke: #000000; stroke-width: 1.5"/>
      </g>
     </g>
     <g id="text_5">
      <!-- 0.8 -->
      <g transform="translate(302.979091 273.465625) scale(0.14 -0.14)">
       <defs>
        <path id="LiberationSans-38" d="M 3281 1228 
Q 3281 619 2893 278 
Q 2506 -63 1781 -63 
Q 1075 -63 676 271 
Q 278 606 278 1222 
Q 278 1653 525 1947 
Q 772 2241 1156 2303 
L 1156 2316 
Q 797 2400 589 2681 
Q 381 2963 381 3341 
Q 381 3844 757 4156 
Q 1134 4469 1769 4469 
Q 2419 4469 2795 4162 
Q 3172 3856 3172 3334 
Q 3172 2956 2962 2675 
Q 2753 2394 2391 2322 
L 2391 2309 
Q 2813 2241 3047 1952 
Q 3281 1663 3281 1228 
z
M 2588 3303 
Q 2588 4050 1769 4050 
Q 1372 4050 1164 3862 
Q 956 3675 956 3303 
Q 956 2925 1170 2726 
Q 1384 2528 1775 2528 
Q 2172 2528 2380 2711 
Q 2588 2894 2588 3303 
z
M 2697 1281 
Q 2697 1691 2453 1898 
Q 2209 2106 1769 2106 
Q 1341 2106 1100 1882 
Q 859 1659 859 1269 
Q 859 359 1788 359 
Q 2247 359 2472 579 
Q 2697 800 2697 1281 
z
" transform="scale(0.015625)"/>
       </defs>
       <use xlink:href="#LiberationSans-30"/>
       <use xlink:href="#LiberationSans-2e" x="55.615234"/>
       <use xlink:href="#LiberationSans-38" x="83.398438"/>
      </g>
     </g>
    </g>
    <g id="xtick_6">
     <g id="line2d_6">
      <g>
       <use xlink:href="#m93e41b749e" x="373.581818" y="256.32" style="stroke: #000000; stroke-width: 1.5"/>
      </g>
     </g>
     <g id="text_6">
      <!-- 1.0 -->
      <g transform="translate(363.851818 273.465625) scale(0.14 -0.14)">
       <defs>
        <path id="LiberationSans-31" d="M 488 0 
L 488 478 
L 1609 478 
L 1609 3866 
L 616 3156 
L 616 3688 
L 1656 4403 
L 2175 4403 
L 2175 478 
L 3247 478 
L 3247 0 
L 488 0 
z
" transform="scale(0.015625)"/>
       </defs>
       <use xlink:href="#LiberationSans-31"/>
       <use xlink:href="#LiberationSans-2e" x="55.615234"/>
       <use xlink:href="#LiberationSans-30" x="83.398438"/>
      </g>
     </g>
    </g>
    <g id="text_7">
     <!-- Context Strength -->
     <g transform="translate(161.36875 291.965625) scale(0.16 -0.16)">
      <defs>
       <path id="LiberationSans-43" d="M 2475 3981 
Q 1744 3981 1337 3511 
Q 931 3041 931 2222 
Q 931 1413 1354 920 
Q 1778 428 2500 428 
Q 3425 428 3891 1344 
L 4378 1100 
Q 4106 531 3614 234 
Q 3122 -63 2472 -63 
Q 1806 -63 1320 214 
Q 834 491 579 1005 
Q 325 1519 325 2222 
Q 325 3275 894 3872 
Q 1463 4469 2469 4469 
Q 3172 4469 3644 4194 
Q 4116 3919 4338 3378 
L 3772 3191 
Q 3619 3575 3280 3778 
Q 2941 3981 2475 3981 
z
" transform="scale(0.015625)"/>
       <path id="LiberationSans-6f" d="M 3291 1694 
Q 3291 806 2900 371 
Q 2509 -63 1766 -63 
Q 1025 -63 647 389 
Q 269 841 269 1694 
Q 269 3444 1784 3444 
Q 2559 3444 2925 3017 
Q 3291 2591 3291 1694 
z
M 2700 1694 
Q 2700 2394 2492 2711 
Q 2284 3028 1794 3028 
Q 1300 3028 1079 2704 
Q 859 2381 859 1694 
Q 859 1025 1076 689 
Q 1294 353 1759 353 
Q 2266 353 2483 678 
Q 2700 1003 2700 1694 
z
" transform="scale(0.015625)"/>
       <path id="LiberationSans-6e" d="M 2578 0 
L 2578 2144 
Q 2578 2478 2512 2662 
Q 2447 2847 2303 2928 
Q 2159 3009 1881 3009 
Q 1475 3009 1240 2731 
Q 1006 2453 1006 1959 
L 1006 0 
L 444 0 
L 444 2659 
Q 444 3250 425 3381 
L 956 3381 
Q 959 3366 962 3297 
Q 966 3228 970 3139 
Q 975 3050 981 2803 
L 991 2803 
Q 1184 3153 1439 3298 
Q 1694 3444 2072 3444 
Q 2628 3444 2886 3167 
Q 3144 2891 3144 2253 
L 3144 0 
L 2578 0 
z
" transform="scale(0.015625)"/>
       <path id="LiberationSans-74" d="M 1731 25 
Q 1453 -50 1163 -50 
Q 488 -50 488 716 
L 488 2972 
L 97 2972 
L 97 3381 
L 509 3381 
L 675 4138 
L 1050 4138 
L 1050 3381 
L 1675 3381 
L 1675 2972 
L 1050 2972 
L 1050 838 
Q 1050 594 1129 495 
Q 1209 397 1406 397 
Q 1519 397 1731 441 
L 1731 25 
z
" transform="scale(0.015625)"/>
       <path id="LiberationSans-65" d="M 863 1572 
Q 863 991 1103 675 
Q 1344 359 1806 359 
Q 2172 359 2392 506 
Q 2613 653 2691 878 
L 3184 738 
Q 2881 -63 1806 -63 
Q 1056 -63 664 384 
Q 272 831 272 1713 
Q 272 2550 664 2997 
Q 1056 3444 1784 3444 
Q 3275 3444 3275 1647 
L 3275 1572 
L 863 1572 
z
M 2694 2003 
Q 2647 2538 2422 2783 
Q 2197 3028 1775 3028 
Q 1366 3028 1127 2754 
Q 888 2481 869 2003 
L 2694 2003 
z
" transform="scale(0.015625)"/>
       <path id="LiberationSans-78" d="M 2503 0 
L 1594 1388 
L 678 0 
L 72 0 
L 1275 1738 
L 128 3381 
L 750 3381 
L 1594 2066 
L 2431 3381 
L 3059 3381 
L 1913 1744 
L 3131 0 
L 2503 0 
z
" transform="scale(0.015625)"/>
       <path id="LiberationSans-20" transform="scale(0.015625)"/>
       <path id="LiberationSans-53" d="M 3975 1216 
Q 3975 606 3498 271 
Q 3022 -63 2156 -63 
Q 547 -63 291 1056 
L 869 1172 
Q 969 775 1294 589 
Q 1619 403 2178 403 
Q 2756 403 3070 601 
Q 3384 800 3384 1184 
Q 3384 1400 3286 1534 
Q 3188 1669 3009 1756 
Q 2831 1844 2584 1903 
Q 2338 1963 2038 2031 
Q 1516 2147 1245 2262 
Q 975 2378 819 2520 
Q 663 2663 580 2853 
Q 497 3044 497 3291 
Q 497 3856 930 4162 
Q 1363 4469 2169 4469 
Q 2919 4469 3316 4239 
Q 3713 4009 3872 3456 
L 3284 3353 
Q 3188 3703 2916 3861 
Q 2644 4019 2163 4019 
Q 1634 4019 1356 3844 
Q 1078 3669 1078 3322 
Q 1078 3119 1186 2986 
Q 1294 2853 1497 2761 
Q 1700 2669 2306 2534 
Q 2509 2488 2711 2439 
Q 2913 2391 3097 2323 
Q 3281 2256 3442 2165 
Q 3603 2075 3722 1944 
Q 3841 1813 3908 1634 
Q 3975 1456 3975 1216 
z
" transform="scale(0.015625)"/>
       <path id="LiberationSans-72" d="M 444 0 
L 444 2594 
Q 444 2950 425 3381 
L 956 3381 
Q 981 2806 981 2691 
L 994 2691 
Q 1128 3125 1303 3284 
Q 1478 3444 1797 3444 
Q 1909 3444 2025 3413 
L 2025 2897 
Q 1913 2928 1725 2928 
Q 1375 2928 1190 2626 
Q 1006 2325 1006 1763 
L 1006 0 
L 444 0 
z
" transform="scale(0.015625)"/>
       <path id="LiberationSans-67" d="M 1713 -1328 
Q 1159 -1328 831 -1111 
Q 503 -894 409 -494 
L 975 -413 
Q 1031 -647 1223 -773 
Q 1416 -900 1728 -900 
Q 2569 -900 2569 84 
L 2569 628 
L 2563 628 
Q 2403 303 2125 139 
Q 1847 -25 1475 -25 
Q 853 -25 561 387 
Q 269 800 269 1684 
Q 269 2581 583 3007 
Q 897 3434 1538 3434 
Q 1897 3434 2161 3270 
Q 2425 3106 2569 2803 
L 2575 2803 
Q 2575 2897 2587 3128 
Q 2600 3359 2613 3381 
L 3147 3381 
Q 3128 3213 3128 2681 
L 3128 97 
Q 3128 -1328 1713 -1328 
z
M 2569 1691 
Q 2569 2103 2456 2401 
Q 2344 2700 2139 2858 
Q 1934 3016 1675 3016 
Q 1244 3016 1047 2703 
Q 850 2391 850 1691 
Q 850 997 1034 694 
Q 1219 391 1666 391 
Q 1931 391 2137 547 
Q 2344 703 2456 995 
Q 2569 1288 2569 1691 
z
" transform="scale(0.015625)"/>
       <path id="LiberationSans-68" d="M 991 2803 
Q 1172 3134 1426 3289 
Q 1681 3444 2072 3444 
Q 2622 3444 2883 3170 
Q 3144 2897 3144 2253 
L 3144 0 
L 2578 0 
L 2578 2144 
Q 2578 2500 2512 2673 
Q 2447 2847 2297 2928 
Q 2147 3009 1881 3009 
Q 1484 3009 1245 2734 
Q 1006 2459 1006 1994 
L 1006 0 
L 444 0 
L 444 4638 
L 1006 4638 
L 1006 3431 
Q 1006 3241 995 3037 
Q 984 2834 981 2803 
L 991 2803 
z
" transform="scale(0.015625)"/>
      </defs>
      <use xlink:href="#LiberationSans-43"/>
      <use xlink:href="#LiberationSans-6f" x="72.216797"/>
      <use xlink:href="#LiberationSans-6e" x="127.832031"/>
      <use xlink:href="#LiberationSans-74" x="183.447266"/>
      <use xlink:href="#LiberationSans-65" x="211.230469"/>
      <use xlink:href="#LiberationSans-78" x="266.845703"/>
      <use xlink:href="#LiberationSans-74" x="316.845703"/>
      <use xlink:href="#LiberationSans-20" x="344.628906"/>
      <use xlink:href="#LiberationSans-53" x="372.412109"/>
      <use xlink:href="#LiberationSans-74" x="439.111328"/>
      <use xlink:href="#LiberationSans-72" x="466.894531"/>
      <use xlink:href="#LiberationSans-65" x="500.195312"/>
      <use xlink:href="#LiberationSans-6e" x="555.810547"/>
      <use xlink:href="#LiberationSans-67" x="611.425781"/>
      <use xlink:href="#LiberationSans-74" x="667.041016"/>
      <use xlink:href="#LiberationSans-68" x="694.824219"/>
     </g>
    </g>
   </g>
   <g id="matplotlib.axis_2">
    <g id="ytick_1">
     <g id="line2d_7">
      <defs>
       <path id="m04ffd1e23a" d="M 0 0 
L -3.5 0 
" style="stroke: #000000; stroke-width: 0.8"/>
      </defs>
      <g>
       <use xlink:href="#m04ffd1e23a" x="54" y="237.84" style="stroke: #000000; stroke-width: 0.8"/>
      </g>
     </g>
     <g id="text_8">
      <!-- 0.5 -->
      <g transform="translate(27.54 242.912813) scale(0.14 -0.14)">
       <defs>
        <path id="LiberationSans-35" d="M 3291 1434 
Q 3291 738 2877 337 
Q 2463 -63 1728 -63 
Q 1113 -63 734 206 
Q 356 475 256 984 
L 825 1050 
Q 1003 397 1741 397 
Q 2194 397 2450 670 
Q 2706 944 2706 1422 
Q 2706 1838 2448 2094 
Q 2191 2350 1753 2350 
Q 1525 2350 1328 2278 
Q 1131 2206 934 2034 
L 384 2034 
L 531 4403 
L 3034 4403 
L 3034 3925 
L 1044 3925 
L 959 2528 
Q 1325 2809 1869 2809 
Q 2519 2809 2905 2428 
Q 3291 2047 3291 1434 
z
" transform="scale(0.015625)"/>
       </defs>
       <use xlink:href="#LiberationSans-30"/>
       <use xlink:href="#LiberationSans-2e" x="55.615234"/>
       <use xlink:href="#LiberationSans-35" x="83.398438"/>
      </g>
     </g>
    </g>
    <g id="ytick_2">
     <g id="line2d_8">
      <g>
       <use xlink:href="#m04ffd1e23a" x="54" y="200.88" style="stroke: #000000; stroke-width: 0.8"/>
      </g>
     </g>
     <g id="text_9">
      <!-- 0.6 -->
      <g transform="translate(27.54 205.952812) scale(0.14 -0.14)">
       <use xlink:href="#LiberationSans-30"/>
       <use xlink:href="#LiberationSans-2e" x="55.615234"/>
       <use xlink:href="#LiberationSans-36" x="83.398438"/>
      </g>
     </g>
    </g>
    <g id="ytick_3">
     <g id="line2d_9">
      <g>
       <use xlink:href="#m04ffd1e23a" x="54" y="163.92" style="stroke: #000000; stroke-width: 0.8"/>
      </g>
     </g>
     <g id="text_10">
      <!-- 0.7 -->
      <g transform="translate(27.54 168.992812) scale(0.14 -0.14)">
       <defs>
        <path id="LiberationSans-37" d="M 3238 3947 
Q 2563 2916 2284 2331 
Q 2006 1747 1867 1178 
Q 1728 609 1728 0 
L 1141 0 
Q 1141 844 1498 1776 
Q 1856 2709 2694 3925 
L 328 3925 
L 328 4403 
L 3238 4403 
L 3238 3947 
z
" transform="scale(0.015625)"/>
       </defs>
       <use xlink:href="#LiberationSans-30"/>
       <use xlink:href="#LiberationSans-2e" x="55.615234"/>
       <use xlink:href="#LiberationSans-37" x="83.398438"/>
      </g>
     </g>
    </g>
    <g id="ytick_4">
     <g id="line2d_10">
      <g>
       <use xlink:href="#m04ffd1e23a" x="54" y="126.96" style="stroke: #000000; stroke-width: 0.8"/>
      </g>
     </g>
     <g id="text_11">
      <!-- 0.8 -->
      <g transform="translate(27.54 132.032812) scale(0.14 -0.14)">
       <use xlink:href="#LiberationSans-30"/>
       <use xlink:href="#LiberationSans-2e" x="55.615234"/>
       <use xlink:href="#LiberationSans-38" x="83.398438"/>
      </g>
     </g>
    </g>
    <g id="ytick_5">
     <g id="line2d_11">
      <g>
       <use xlink:href="#m04ffd1e23a" x="54" y="90" style="stroke: #000000; stroke-width: 0.8"/>
      </g>
     </g>
     <g id="text_12">
      <!-- 0.9 -->
      <g transform="translate(27.54 95.072812) scale(0.14 -0.14)">
       <defs>
        <path id="LiberationSans-39" d="M 3256 2291 
Q 3256 1156 2842 546 
Q 2428 -63 1663 -63 
Q 1147 -63 836 154 
Q 525 372 391 856 
L 928 941 
Q 1097 391 1672 391 
Q 2156 391 2422 841 
Q 2688 1291 2700 2125 
Q 2575 1844 2272 1673 
Q 1969 1503 1606 1503 
Q 1013 1503 656 1909 
Q 300 2316 300 2988 
Q 300 3678 687 4073 
Q 1075 4469 1766 4469 
Q 2500 4469 2878 3925 
Q 3256 3381 3256 2291 
z
M 2644 2834 
Q 2644 3366 2400 3689 
Q 2156 4013 1747 4013 
Q 1341 4013 1106 3736 
Q 872 3459 872 2988 
Q 872 2506 1106 2226 
Q 1341 1947 1741 1947 
Q 1984 1947 2193 2058 
Q 2403 2169 2523 2372 
Q 2644 2575 2644 2834 
z
" transform="scale(0.015625)"/>
       </defs>
       <use xlink:href="#LiberationSans-30"/>
       <use xlink:href="#LiberationSans-2e" x="55.615234"/>
       <use xlink:href="#LiberationSans-39" x="83.398438"/>
      </g>
     </g>
    </g>
    <g id="ytick_6">
     <g id="line2d_12">
      <g>
       <use xlink:href="#m04ffd1e23a" x="54" y="53.04" style="stroke: #000000; stroke-width: 0.8"/>
      </g>
     </g>
     <g id="text_13">
      <!-- 1.0 -->
      <g transform="translate(27.54 58.112813) scale(0.14 -0.14)">
       <use xlink:href="#LiberationSans-31"/>
       <use xlink:href="#LiberationSans-2e" x="55.615234"/>
       <use xlink:href="#LiberationSans-30" x="83.398438"/>
      </g>
     </g>
    </g>
    <g id="text_14">
     <!-- Accuracy -->
     <g transform="translate(20.22 178.3375) rotate(-90) scale(0.16 -0.16)">
      <defs>
       <path id="LiberationSans-41" d="M 3647 0 
L 3144 1288 
L 1138 1288 
L 631 0 
L 13 0 
L 1809 4403 
L 2488 4403 
L 4256 0 
L 3647 0 
z
M 2141 3953 
L 2113 3866 
Q 2034 3606 1881 3200 
L 1319 1753 
L 2966 1753 
L 2400 3206 
Q 2313 3422 2225 3694 
L 2141 3953 
z
" transform="scale(0.015625)"/>
       <path id="LiberationSans-63" d="M 859 1706 
Q 859 1031 1071 706 
Q 1284 381 1713 381 
Q 2013 381 2214 543 
Q 2416 706 2463 1044 
L 3031 1006 
Q 2966 519 2616 228 
Q 2266 -63 1728 -63 
Q 1019 -63 645 385 
Q 272 834 272 1694 
Q 272 2547 647 2995 
Q 1022 3444 1722 3444 
Q 2241 3444 2583 3175 
Q 2925 2906 3013 2434 
L 2434 2391 
Q 2391 2672 2212 2837 
Q 2034 3003 1706 3003 
Q 1259 3003 1059 2706 
Q 859 2409 859 1706 
z
" transform="scale(0.015625)"/>
       <path id="LiberationSans-75" d="M 981 3381 
L 981 1238 
Q 981 903 1047 718 
Q 1113 534 1256 453 
Q 1400 372 1678 372 
Q 2084 372 2318 650 
Q 2553 928 2553 1422 
L 2553 3381 
L 3116 3381 
L 3116 722 
Q 3116 131 3134 0 
L 2603 0 
Q 2600 16 2597 84 
Q 2594 153 2589 242 
Q 2584 331 2578 578 
L 2569 578 
Q 2375 228 2120 82 
Q 1866 -63 1488 -63 
Q 931 -63 673 214 
Q 416 491 416 1128 
L 416 3381 
L 981 3381 
z
" transform="scale(0.015625)"/>
       <path id="LiberationSans-61" d="M 1294 -63 
Q 784 -63 528 206 
Q 272 475 272 944 
Q 272 1469 617 1750 
Q 963 2031 1731 2050 
L 2491 2063 
L 2491 2247 
Q 2491 2659 2316 2837 
Q 2141 3016 1766 3016 
Q 1388 3016 1216 2887 
Q 1044 2759 1009 2478 
L 422 2531 
Q 566 3444 1778 3444 
Q 2416 3444 2737 3151 
Q 3059 2859 3059 2306 
L 3059 850 
Q 3059 600 3125 473 
Q 3191 347 3375 347 
Q 3456 347 3559 369 
L 3559 19 
Q 3347 -31 3125 -31 
Q 2813 -31 2670 133 
Q 2528 297 2509 647 
L 2491 647 
Q 2275 259 1989 98 
Q 1703 -63 1294 -63 
z
M 1422 359 
Q 1731 359 1972 500 
Q 2213 641 2352 886 
Q 2491 1131 2491 1391 
L 2491 1669 
L 1875 1656 
Q 1478 1650 1273 1575 
Q 1069 1500 959 1344 
Q 850 1188 850 934 
Q 850 659 998 509 
Q 1147 359 1422 359 
z
" transform="scale(0.015625)"/>
       <path id="LiberationSans-79" d="M 597 -1328 
Q 366 -1328 209 -1294 
L 209 -872 
Q 328 -891 472 -891 
Q 997 -891 1303 -119 
L 1356 16 
L 16 3381 
L 616 3381 
L 1328 1513 
Q 1344 1469 1366 1408 
Q 1388 1347 1506 1000 
Q 1625 653 1634 613 
L 1853 1228 
L 2594 3381 
L 3188 3381 
L 1888 0 
Q 1678 -541 1497 -805 
Q 1316 -1069 1095 -1198 
Q 875 -1328 597 -1328 
z
" transform="scale(0.015625)"/>
      </defs>
      <use xlink:href="#LiberationSans-41"/>
      <use xlink:href="#LiberationSans-63" x="66.699219"/>
      <use xlink:href="#LiberationSans-63" x="116.699219"/>
      <use xlink:href="#LiberationSans-75" x="166.699219"/>
      <use xlink:href="#LiberationSans-72" x="222.314453"/>
      <use xlink:href="#LiberationSans-61" x="255.615234"/>
      <use xlink:href="#LiberationSans-63" x="311.230469"/>
      <use xlink:href="#LiberationSans-79" x="361.230469"/>
     </g>
    </g>
   </g>
   <g id="line2d_13">
    <path d="M 69.218182 206.697426 
L 72.261818 206.664999 
L 75.305455 206.631007 
L 78.349091 206.595812 
L 81.392727 206.561205 
L 84.436364 206.5271 
L 87.48 206.491231 
L 90.523636 206.454795 
L 93.567273 206.415775 
L 96.610909 206.372713 
L 99.654545 206.325623 
L 102.698182 206.275018 
L 105.741818 206.21767 
L 108.785455 206.152018 
L 111.829091 206.066411 
L 114.872727 205.970696 
L 117.916364 205.863212 
L 120.96 205.727918 
L 124.003636 205.566572 
L 127.047273 205.385607 
L 130.090909 205.175792 
L 133.134545 204.935913 
L 136.178182 204.636116 
L 139.221818 204.276688 
L 142.265455 203.854631 
L 145.309091 203.319381 
L 148.352727 202.728296 
L 151.396364 202.034352 
L 154.44 201.235919 
L 157.483636 200.316465 
L 160.527273 199.313825 
L 163.570909 198.144445 
L 166.614545 196.831423 
L 169.658182 195.32564 
L 172.701818 193.658363 
L 175.745455 191.722561 
L 178.789091 189.525782 
L 181.832727 187.087346 
L 184.876364 184.444972 
L 187.92 181.528128 
L 190.963636 178.244509 
L 194.007273 174.609872 
L 197.050909 170.613718 
L 200.094545 166.140176 
L 203.138182 161.306865 
L 206.181818 156.125032 
L 209.225455 150.52797 
L 212.269091 144.700669 
L 215.312727 138.758113 
L 218.356364 132.718451 
L 221.4 126.6258 
L 224.443636 120.615588 
L 227.487273 114.679665 
L 230.530909 109.032066 
L 233.574545 103.639758 
L 236.618182 98.597785 
L 239.661818 93.838187 
L 242.705455 89.429124 
L 245.749091 85.415777 
L 248.792727 81.773021 
L 251.836364 78.481749 
L 254.88 75.549733 
L 257.923636 73.015347 
L 260.967273 70.798951 
L 264.010909 68.871747 
L 267.054545 67.202484 
L 270.098182 65.742941 
L 273.141818 64.481023 
L 276.185455 63.438066 
L 279.229091 62.57857 
L 282.272727 61.846314 
L 285.316364 61.229816 
L 288.36 60.716561 
L 291.403636 60.284384 
L 294.447273 59.917404 
L 297.490909 59.610088 
L 300.534545 59.35708 
L 303.578182 59.140532 
L 306.621818 58.952541 
L 309.665455 58.79352 
L 312.709091 58.665693 
L 315.752727 58.554278 
L 318.796364 58.462644 
L 321.84 58.382989 
L 324.883636 58.313951 
L 327.927273 58.253292 
L 330.970909 58.202903 
L 334.014545 58.158904 
L 337.058182 58.118659 
L 340.101818 58.082592 
L 343.145455 58.051301 
L 346.189091 58.025543 
L 349.232727 58.00481 
L 352.276364 57.987823 
L 355.32 57.972767 
L 358.363636 57.959171 
L 361.407273 57.946564 
L 364.450909 57.93419 
L 367.494545 57.923235 
L 370.538182 57.913804 
L 373.581818 57.905339 
" clip-path="url(#p83b48f7665)" style="fill: none; stroke: #c0d9ff; stroke-width: 1.5; stroke-linecap: square"/>
   </g>
   <g id="line2d_14">
    <path d="M 69.218182 58.63332 
L 72.261818 58.645736 
L 75.305455 58.660381 
L 78.349091 58.677407 
L 81.392727 58.693779 
L 84.436364 58.709363 
L 87.48 58.726354 
L 90.523636 58.74324 
L 93.567273 58.763399 
L 96.610909 58.786163 
L 99.654545 58.813505 
L 102.698182 58.8422 
L 105.741818 58.877293 
L 108.785455 58.923145 
L 111.829091 58.989953 
L 114.872727 59.066093 
L 117.916364 59.152299 
L 120.96 59.264454 
L 124.003636 59.403361 
L 127.047273 59.5597 
L 130.090909 59.747418 
L 133.134545 59.966071 
L 136.178182 60.243286 
L 139.221818 60.581327 
L 142.265455 60.984405 
L 145.309091 61.498939 
L 148.352727 62.066923 
L 151.396364 62.73501 
L 154.44 63.505136 
L 157.483636 64.393561 
L 160.527273 65.365704 
L 163.570909 66.503174 
L 166.614545 67.788778 
L 169.658182 69.26409 
L 172.701818 70.903454 
L 175.745455 72.809023 
L 178.789091 74.974812 
L 181.832727 77.381372 
L 184.876364 79.997526 
L 187.92 82.89256 
L 190.963636 86.149168 
L 194.007273 89.756234 
L 197.050909 93.731143 
L 200.094545 98.18217 
L 203.138182 102.996997 
L 206.181818 108.165619 
L 209.225455 113.74989 
L 212.269091 119.562813 
L 215.312727 125.491622 
L 218.356364 131.533519 
L 221.4 137.623614 
L 224.443636 143.636378 
L 227.487273 149.57648 
L 230.530909 155.228355 
L 233.574545 160.62747 
L 236.618182 165.670573 
L 239.661818 170.433917 
L 242.705455 174.851599 
L 245.749091 178.878323 
L 248.792727 182.530907 
L 251.836364 185.830808 
L 254.88 188.769391 
L 257.923636 191.312442 
L 260.967273 193.539211 
L 264.010909 195.476787 
L 267.054545 197.157376 
L 270.098182 198.626947 
L 273.141818 199.902891 
L 276.185455 200.960473 
L 279.229091 201.831895 
L 282.272727 202.574666 
L 285.316364 203.202983 
L 288.36 203.725736 
L 291.403636 204.166498 
L 294.447273 204.543575 
L 297.490909 204.860983 
L 300.534545 205.125472 
L 303.578182 205.353355 
L 306.621818 205.553963 
L 309.665455 205.727406 
L 312.709091 205.869318 
L 315.752727 205.995054 
L 318.796364 206.100269 
L 321.84 206.192369 
L 324.883636 206.273928 
L 327.927273 206.347403 
L 330.970909 206.411531 
L 334.014545 206.468458 
L 337.058182 206.520732 
L 340.101818 206.570318 
L 343.145455 206.615307 
L 346.189091 206.655057 
L 349.232727 206.689951 
L 352.276364 206.720882 
L 355.32 206.749735 
L 358.363636 206.777422 
L 361.407273 206.804166 
L 364.450909 206.830932 
L 367.494545 206.855621 
L 370.538182 206.878884 
L 373.581818 206.901139 
" clip-path="url(#p83b48f7665)" style="fill: none; stroke: #ffbfc4; stroke-width: 1.5; stroke-linecap: square"/>
   </g>
   <g id="patch_3">
    <path d="M 54 256.32 
L 54 34.56 
" style="fill: none; stroke: #000000; stroke-width: 1.5; stroke-linejoin: miter; stroke-linecap: square"/>
   </g>
   <g id="patch_4">
    <path d="M 54 256.32 
L 388.8 256.32 
" style="fill: none; stroke: #000000; stroke-width: 1.5; stroke-linejoin: miter; stroke-linecap: square"/>
   </g>
   <g id="legend_1">
    <g id="patch_5">
     <path d="M 298.414688 167.590625 
L 379 167.590625 
Q 381.8 167.590625 381.8 164.790625 
L 381.8 126.089375 
Q 381.8 123.289375 379 123.289375 
L 298.414688 123.289375 
Q 295.614688 123.289375 295.614688 126.089375 
L 295.614688 164.790625 
Q 295.614688 167.590625 298.414688 167.590625 
z
" style="fill: #ffffff; opacity: 0.8; stroke: #cccccc; stroke-linejoin: miter"/>
    </g>
    <g id="line2d_15">
     <path d="M 301.214688 134.135 
L 315.214688 134.135 
L 329.214688 134.135 
" style="fill: none; stroke: #c0d9ff; stroke-width: 1.5; stroke-linecap: square"/>
    </g>
    <g id="text_15">
     <!-- Parity -->
     <g transform="translate(340.414688 139.035) scale(0.14 -0.14)">
      <defs>
       <path id="LiberationSans-50" d="M 3931 3078 
Q 3931 2453 3523 2084 
Q 3116 1716 2416 1716 
L 1122 1716 
L 1122 0 
L 525 0 
L 525 4403 
L 2378 4403 
Q 3119 4403 3525 4056 
Q 3931 3709 3931 3078 
z
M 3331 3072 
Q 3331 3925 2306 3925 
L 1122 3925 
L 1122 2188 
L 2331 2188 
Q 3331 2188 3331 3072 
z
" transform="scale(0.015625)"/>
       <path id="LiberationSans-69" d="M 428 4100 
L 428 4638 
L 991 4638 
L 991 4100 
L 428 4100 
z
M 428 0 
L 428 3381 
L 991 3381 
L 991 0 
L 428 0 
z
" transform="scale(0.015625)"/>
      </defs>
      <use xlink:href="#LiberationSans-50"/>
      <use xlink:href="#LiberationSans-61" x="66.699219"/>
      <use xlink:href="#LiberationSans-72" x="122.314453"/>
      <use xlink:href="#LiberationSans-69" x="155.615234"/>
      <use xlink:href="#LiberationSans-74" x="177.832031"/>
      <use xlink:href="#LiberationSans-79" x="205.615234"/>
     </g>
    </g>
    <g id="line2d_16">
     <path d="M 301.214688 154.185625 
L 315.214688 154.185625 
L 329.214688 154.185625 
" style="fill: none; stroke: #ffbfc4; stroke-width: 1.5; stroke-linecap: square"/>
    </g>
    <g id="text_16">
     <!-- Value -->
     <g transform="translate(340.414688 159.085625) scale(0.14 -0.14)">
      <defs>
       <path id="LiberationSans-56" d="M 2444 0 
L 1825 0 
L 28 4403 
L 656 4403 
L 1875 1303 
L 2138 525 
L 2400 1303 
L 3613 4403 
L 4241 4403 
L 2444 0 
z
" transform="scale(0.015625)"/>
       <path id="LiberationSans-6c" d="M 431 0 
L 431 4638 
L 994 4638 
L 994 0 
L 431 0 
z
" transform="scale(0.015625)"/>
      </defs>
      <use xlink:href="#LiberationSans-56"/>
      <use xlink:href="#LiberationSans-61" x="59.324219"/>
      <use xlink:href="#LiberationSans-6c" x="114.939453"/>
      <use xlink:href="#LiberationSans-75" x="137.15625"/>
      <use xlink:href="#LiberationSans-65" x="192.771484"/>
     </g>
    </g>
   </g>
  </g>
 </g>
 <defs>
  <clipPath id="p83b48f7665">
   <rect x="54" y="34.56" width="334.8" height="221.76"/>
  </clipPath>
 </defs>
</svg>
