<?xml version="1.0" encoding="utf-8" standalone="no"?>
<!DOCTYPE svg PUBLIC "-//W3C//DTD SVG 1.1//EN"
  "http://www.w3.org/Graphics/SVG/1.1/DTD/svg11.dtd">
<svg xmlns:xlink="http://www.w3.org/1999/xlink" width="432pt" height="288pt" viewBox="0 0 432 288" xmlns="http://www.w3.org/2000/svg" version="1.1">
 <metadata>
  <rdf:RDF xmlns:dc="http://purl.org/dc/elements/1.1/" xmlns:cc="http://creativecommons.org/ns#" xmlns:rdf="http://www.w3.org/1999/02/22-rdf-syntax-ns#">
   <cc:Work>
    <dc:type rdf:resource="http://purl.org/dc/dcmitype/StillImage"/>
    <dc:date>2024-01-27T18:10:53.560400</dc:date>
    <dc:format>image/svg+xml</dc:format>
    <dc:creator>
     <cc:Agent>
      <dc:title>Matplotlib v3.7.4, https://matplotlib.org/</dc:title>
     </cc:Agent>
    </dc:creator>
   </cc:Work>
  </rdf:RDF>
 </metadata>
 <defs>
  <style type="text/css">*{stroke-linejoin: round; stroke-linecap: butt}</style>
 </defs>
 <g id="figure_1">
  <g id="patch_1">
   <path d="M 0 288 
L 432 288 
L 432 0 
L 0 0 
z
" style="fill: #ffffff"/>
  </g>
  <g id="axes_1">
   <g id="patch_2">
    <path d="M 54 256.32 
L 388.8 256.32 
L 388.8 34.56 
L 54 34.56 
z
" style="fill: #ffffff"/>
   </g>
   <g id="PolyCollection_1">
    <defs>
     <path id="m3b4302ba11" d="M 69.218182 -190.816814 
L 69.218182 -124.315955 
L 72.261818 -127.219401 
L 75.305455 -130.152395 
L 78.349091 -133.122998 
L 81.392727 -136.199051 
L 84.436364 -139.334609 
L 87.48 -142.563335 
L 90.523636 -145.804646 
L 93.567273 -149.062471 
L 96.610909 -152.351082 
L 99.654545 -155.634089 
L 102.698182 -158.932962 
L 105.741818 -162.226988 
L 108.785455 -165.478281 
L 111.829091 -168.638487 
L 114.872727 -171.7128 
L 117.916364 -174.77032 
L 120.96 -177.764782 
L 124.003636 -180.73841 
L 127.047273 -183.629139 
L 130.090909 -186.411229 
L 133.134545 -189.119159 
L 136.178182 -191.70368 
L 139.221818 -194.158165 
L 142.265455 -196.511798 
L 145.309091 -198.770645 
L 148.352727 -200.961355 
L 151.396364 -203.062728 
L 154.44 -205.096191 
L 157.483636 -207.014449 
L 160.527273 -208.810828 
L 163.570909 -210.470049 
L 166.614545 -212.015177 
L 169.658182 -213.475153 
L 172.701818 -214.834857 
L 175.745455 -216.097338 
L 178.789091 -217.243299 
L 181.832727 -218.283282 
L 184.876364 -219.230619 
L 187.92 -220.107464 
L 190.963636 -220.935314 
L 194.007273 -221.697215 
L 197.050909 -222.364389 
L 200.094545 -222.969727 
L 203.138182 -223.513002 
L 206.181818 -224.009879 
L 209.225455 -224.471549 
L 212.269091 -224.898942 
L 215.312727 -225.283843 
L 218.356364 -225.638547 
L 221.4 -225.966603 
L 224.443636 -226.274875 
L 227.487273 -226.554878 
L 230.530909 -226.810278 
L 233.574545 -227.043424 
L 236.618182 -227.255066 
L 239.661818 -227.458004 
L 242.705455 -227.653757 
L 245.749091 -227.825168 
L 248.792727 -227.97389 
L 251.836364 -228.116546 
L 254.88 -228.253769 
L 257.923636 -228.383571 
L 260.967273 -228.512473 
L 264.010909 -228.634278 
L 267.054545 -228.743642 
L 270.098182 -228.839344 
L 273.141818 -228.917417 
L 276.185455 -228.981099 
L 279.229091 -229.040377 
L 282.272727 -229.097597 
L 285.316364 -229.15011 
L 288.36 -229.198609 
L 291.403636 -229.24451 
L 294.447273 -229.287279 
L 297.490909 -229.324674 
L 300.534545 -229.357362 
L 303.578182 -229.38707 
L 306.621818 -229.417325 
L 309.665455 -229.448898 
L 312.709091 -229.477815 
L 315.752727 -229.504452 
L 318.796364 -229.531116 
L 321.84 -229.555121 
L 324.883636 -229.574747 
L 327.927273 -229.590951 
L 330.970909 -229.605371 
L 334.014545 -229.618675 
L 337.058182 -229.63111 
L 340.101818 -229.643226 
L 343.145455 -229.654702 
L 346.189091 -229.665317 
L 349.232727 -229.675546 
L 352.276364 -229.685454 
L 355.32 -229.694179 
L 358.363636 -229.702156 
L 361.407273 -229.709761 
L 364.450909 -229.717049 
L 367.494545 -229.72374 
L 370.538182 -229.730275 
L 373.581818 -229.736385 
L 373.581818 -230.452937 
L 373.581818 -230.452937 
L 370.538182 -230.453882 
L 367.494545 -230.453971 
L 364.450909 -230.453987 
L 361.407273 -230.454102 
L 358.363636 -230.453604 
L 355.32 -230.453297 
L 352.276364 -230.452435 
L 349.232727 -230.452231 
L 346.189091 -230.452015 
L 343.145455 -230.450668 
L 340.101818 -230.448298 
L 337.058182 -230.446273 
L 334.014545 -230.444236 
L 330.970909 -230.441788 
L 327.927273 -230.439237 
L 324.883636 -230.436791 
L 321.84 -230.433871 
L 318.796364 -230.431263 
L 315.752727 -230.430026 
L 312.709091 -230.428001 
L 309.665455 -230.425016 
L 306.621818 -230.421855 
L 303.578182 -230.417984 
L 300.534545 -230.413999 
L 297.490909 -230.409537 
L 294.447273 -230.404787 
L 291.403636 -230.400048 
L 288.36 -230.394256 
L 285.316364 -230.388516 
L 282.272727 -230.384145 
L 279.229091 -230.380279 
L 276.185455 -230.375279 
L 273.141818 -230.368413 
L 270.098182 -230.363532 
L 267.054545 -230.36228 
L 264.010909 -230.360355 
L 260.967273 -230.363001 
L 257.923636 -230.367543 
L 254.88 -230.370727 
L 251.836364 -230.373708 
L 248.792727 -230.37747 
L 245.749091 -230.377791 
L 242.705455 -230.377031 
L 239.661818 -230.375962 
L 236.618182 -230.371889 
L 233.574545 -230.361389 
L 230.530909 -230.346912 
L 227.487273 -230.331886 
L 224.443636 -230.318713 
L 221.4 -230.3014 
L 218.356364 -230.278453 
L 215.312727 -230.247838 
L 212.269091 -230.206562 
L 209.225455 -230.162766 
L 206.181818 -230.115511 
L 203.138182 -230.070908 
L 200.094545 -230.017191 
L 197.050909 -229.9497 
L 194.007273 -229.881319 
L 190.963636 -229.807214 
L 187.92 -229.725593 
L 184.876364 -229.638458 
L 181.832727 -229.545049 
L 178.789091 -229.43883 
L 175.745455 -229.321283 
L 172.701818 -229.197077 
L 169.658182 -229.058573 
L 166.614545 -228.90309 
L 163.570909 -228.721331 
L 160.527273 -228.523298 
L 157.483636 -228.308695 
L 154.44 -228.053465 
L 151.396364 -227.768464 
L 148.352727 -227.447821 
L 145.309091 -227.056352 
L 142.265455 -226.609019 
L 139.221818 -226.109393 
L 136.178182 -225.555737 
L 133.134545 -224.921501 
L 130.090909 -224.214457 
L 127.047273 -223.452281 
L 124.003636 -222.592242 
L 120.96 -221.661232 
L 117.916364 -220.662617 
L 114.872727 -219.53764 
L 111.829091 -218.337841 
L 108.785455 -217.03763 
L 105.741818 -215.647649 
L 102.698182 -214.1927 
L 99.654545 -212.637578 
L 96.610909 -210.915728 
L 93.567273 -209.046799 
L 90.523636 -207.105764 
L 87.48 -205.044398 
L 84.436364 -202.859584 
L 81.392727 -200.62365 
L 78.349091 -198.327581 
L 75.305455 -195.958449 
L 72.261818 -193.436846 
L 69.218182 -190.816814 
z
" style="stroke: #c0d9ff; stroke-opacity: 0.5"/>
    </defs>
    <g clip-path="url(#p4edbb84a2b)">
     <use xlink:href="#m3b4302ba11" x="0" y="288" style="fill: #c0d9ff; fill-opacity: 0.5; stroke: #c0d9ff; stroke-opacity: 0.5"/>
    </g>
   </g>
   <g id="PolyCollection_2">
    <defs>
     <path id="me720630897" d="M 69.218182 -187.912589 
L 69.218182 -120.563356 
L 72.261818 -123.342541 
L 75.305455 -126.13874 
L 78.349091 -128.932735 
L 81.392727 -131.836364 
L 84.436364 -134.859803 
L 87.48 -137.939524 
L 90.523636 -140.96402 
L 93.567273 -143.929847 
L 96.610909 -146.835912 
L 99.654545 -149.679711 
L 102.698182 -152.50028 
L 105.741818 -155.355639 
L 108.785455 -158.100536 
L 111.829091 -160.723972 
L 114.872727 -163.246436 
L 117.916364 -165.696055 
L 120.96 -168.0671 
L 124.003636 -170.360413 
L 127.047273 -172.671059 
L 130.090909 -174.923944 
L 133.134545 -177.162206 
L 136.178182 -179.362533 
L 139.221818 -181.557457 
L 142.265455 -183.732311 
L 145.309091 -185.896221 
L 148.352727 -188.058035 
L 151.396364 -190.248255 
L 154.44 -192.467224 
L 157.483636 -194.653635 
L 160.527273 -196.827025 
L 163.570909 -198.930771 
L 166.614545 -200.969552 
L 169.658182 -202.969935 
L 172.701818 -204.963893 
L 175.745455 -206.883957 
L 178.789091 -208.739182 
L 181.832727 -210.477323 
L 184.876364 -212.102491 
L 187.92 -213.603262 
L 190.963636 -214.987842 
L 194.007273 -216.260874 
L 197.050909 -217.465541 
L 200.094545 -218.579328 
L 203.138182 -219.59752 
L 206.181818 -220.486851 
L 209.225455 -221.281401 
L 212.269091 -222.023333 
L 215.312727 -222.703917 
L 218.356364 -223.347193 
L 221.4 -223.950691 
L 224.443636 -224.509149 
L 227.487273 -225.001991 
L 230.530909 -225.418829 
L 233.574545 -225.806216 
L 236.618182 -226.131914 
L 239.661818 -226.4209 
L 242.705455 -226.711281 
L 245.749091 -226.95912 
L 248.792727 -227.177599 
L 251.836364 -227.380215 
L 254.88 -227.572367 
L 257.923636 -227.746462 
L 260.967273 -227.903851 
L 264.010909 -228.038526 
L 267.054545 -228.150691 
L 270.098182 -228.257581 
L 273.141818 -228.346417 
L 276.185455 -228.415626 
L 279.229091 -228.468033 
L 282.272727 -228.514587 
L 285.316364 -228.551426 
L 288.36 -228.582751 
L 291.403636 -228.610139 
L 294.447273 -228.636865 
L 297.490909 -228.662909 
L 300.534545 -228.686875 
L 303.578182 -228.710413 
L 306.621818 -228.732412 
L 309.665455 -228.751819 
L 312.709091 -228.772534 
L 315.752727 -228.791799 
L 318.796364 -228.80749 
L 321.84 -228.822471 
L 324.883636 -228.836564 
L 327.927273 -228.849739 
L 330.970909 -228.861135 
L 334.014545 -228.872369 
L 337.058182 -228.883121 
L 340.101818 -228.893385 
L 343.145455 -228.902346 
L 346.189091 -228.910477 
L 349.232727 -228.919542 
L 352.276364 -228.927362 
L 355.32 -228.935293 
L 358.363636 -228.943758 
L 361.407273 -228.951569 
L 364.450909 -228.959523 
L 367.494545 -228.965371 
L 370.538182 -228.969803 
L 373.581818 -228.975065 
L 373.581818 -229.758296 
L 373.581818 -229.758296 
L 370.538182 -229.751199 
L 367.494545 -229.743647 
L 364.450909 -229.736389 
L 361.407273 -229.728027 
L 358.363636 -229.719783 
L 355.32 -229.711428 
L 352.276364 -229.70375 
L 349.232727 -229.697076 
L 346.189091 -229.691844 
L 343.145455 -229.687258 
L 340.101818 -229.681791 
L 337.058182 -229.673895 
L 334.014545 -229.668722 
L 330.970909 -229.664011 
L 327.927273 -229.657583 
L 324.883636 -229.649938 
L 321.84 -229.643008 
L 318.796364 -229.635365 
L 315.752727 -229.627299 
L 312.709091 -229.620607 
L 309.665455 -229.612304 
L 306.621818 -229.601414 
L 303.578182 -229.590585 
L 300.534545 -229.578057 
L 297.490909 -229.561636 
L 294.447273 -229.546401 
L 291.403636 -229.519303 
L 288.36 -229.47568 
L 285.316364 -229.436958 
L 282.272727 -229.40472 
L 279.229091 -229.376725 
L 276.185455 -229.344004 
L 273.141818 -229.302297 
L 270.098182 -229.259792 
L 267.054545 -229.229498 
L 264.010909 -229.207311 
L 260.967273 -229.184389 
L 257.923636 -229.167463 
L 254.88 -229.158194 
L 251.836364 -229.149237 
L 248.792727 -229.138243 
L 245.749091 -229.125704 
L 242.705455 -229.120402 
L 239.661818 -229.118933 
L 236.618182 -229.106857 
L 233.574545 -229.095225 
L 230.530909 -229.095112 
L 227.487273 -229.080608 
L 224.443636 -229.064441 
L 221.4 -229.064324 
L 218.356364 -229.064347 
L 215.312727 -229.052797 
L 212.269091 -229.034579 
L 209.225455 -229.007381 
L 206.181818 -228.979912 
L 203.138182 -228.956779 
L 200.094545 -228.946042 
L 197.050909 -228.949781 
L 194.007273 -228.969206 
L 190.963636 -228.98685 
L 187.92 -229.027881 
L 184.876364 -229.090965 
L 181.832727 -229.176998 
L 178.789091 -229.249711 
L 175.745455 -229.294701 
L 172.701818 -229.320754 
L 169.658182 -229.328837 
L 166.614545 -229.305435 
L 163.570909 -229.253296 
L 160.527273 -229.144266 
L 157.483636 -228.986414 
L 154.44 -228.773922 
L 151.396364 -228.505275 
L 148.352727 -228.171051 
L 145.309091 -227.750681 
L 142.265455 -227.243802 
L 139.221818 -226.641637 
L 136.178182 -225.959423 
L 133.134545 -225.188638 
L 130.090909 -224.327288 
L 127.047273 -223.372677 
L 124.003636 -222.269135 
L 120.96 -221.094767 
L 117.916364 -219.824274 
L 114.872727 -218.460367 
L 111.829091 -217.043554 
L 108.785455 -215.531376 
L 105.741818 -213.903656 
L 102.698182 -212.194263 
L 99.654545 -210.403325 
L 96.610909 -208.49186 
L 93.567273 -206.492246 
L 90.523636 -204.411759 
L 87.48 -202.26395 
L 84.436364 -200.038039 
L 81.392727 -197.749937 
L 78.349091 -195.377229 
L 75.305455 -192.971494 
L 72.261818 -190.47939 
L 69.218182 -187.912589 
z
" style="stroke: #ffbfc4; stroke-opacity: 0.5"/>
    </defs>
    <g clip-path="url(#p4edbb84a2b)">
     <use xlink:href="#me720630897" x="0" y="288" style="fill: #ffbfc4; fill-opacity: 0.5; stroke: #ffbfc4; stroke-opacity: 0.5"/>
    </g>
   </g>
   <g id="matplotlib.axis_1">
    <g id="xtick_1">
     <g id="line2d_1">
      <defs>
       <path id="m40630c27a1" d="M 0 0 
L 0 3.5 
" style="stroke: #000000; stroke-width: 1.5"/>
      </defs>
      <g>
       <use xlink:href="#m40630c27a1" x="69.218182" y="256.32" style="stroke: #000000; stroke-width: 1.5"/>
      </g>
     </g>
     <g id="text_1">
      <!-- 0.0 -->
      <g transform="translate(59.488182 273.465625) scale(0.14 -0.14)">
       <defs>
        <path id="LiberationSans-30" d="M 3309 2203 
Q 3309 1100 2920 518 
Q 2531 -63 1772 -63 
Q 1013 -63 631 515 
Q 250 1094 250 2203 
Q 250 3338 620 3903 
Q 991 4469 1791 4469 
Q 2569 4469 2939 3897 
Q 3309 3325 3309 2203 
z
M 2738 2203 
Q 2738 3156 2517 3584 
Q 2297 4013 1791 4013 
Q 1272 4013 1045 3591 
Q 819 3169 819 2203 
Q 819 1266 1048 831 
Q 1278 397 1778 397 
Q 2275 397 2506 840 
Q 2738 1284 2738 2203 
z
" transform="scale(0.015625)"/>
        <path id="LiberationSans-2e" d="M 584 0 
L 584 684 
L 1194 684 
L 1194 0 
L 584 0 
z
" transform="scale(0.015625)"/>
       </defs>
       <use xlink:href="#LiberationSans-30"/>
       <use xlink:href="#LiberationSans-2e" x="55.615234"/>
       <use xlink:href="#LiberationSans-30" x="83.398438"/>
      </g>
     </g>
    </g>
    <g id="xtick_2">
     <g id="line2d_2">
      <g>
       <use xlink:href="#m40630c27a1" x="130.090909" y="256.32" style="stroke: #000000; stroke-width: 1.5"/>
      </g>
     </g>
     <g id="text_2">
      <!-- 0.2 -->
      <g transform="translate(120.360909 273.465625) scale(0.14 -0.14)">
       <defs>
        <path id="LiberationSans-32" d="M 322 0 
L 322 397 
Q 481 763 711 1042 
Q 941 1322 1194 1548 
Q 1447 1775 1695 1969 
Q 1944 2163 2144 2356 
Q 2344 2550 2467 2762 
Q 2591 2975 2591 3244 
Q 2591 3606 2378 3806 
Q 2166 4006 1788 4006 
Q 1428 4006 1195 3811 
Q 963 3616 922 3263 
L 347 3316 
Q 409 3844 795 4156 
Q 1181 4469 1788 4469 
Q 2453 4469 2811 4155 
Q 3169 3841 3169 3263 
Q 3169 3006 3051 2753 
Q 2934 2500 2703 2247 
Q 2472 1994 1819 1463 
Q 1459 1169 1246 933 
Q 1034 697 941 478 
L 3238 478 
L 3238 0 
L 322 0 
z
" transform="scale(0.015625)"/>
       </defs>
       <use xlink:href="#LiberationSans-30"/>
       <use xlink:href="#LiberationSans-2e" x="55.615234"/>
       <use xlink:href="#LiberationSans-32" x="83.398438"/>
      </g>
     </g>
    </g>
    <g id="xtick_3">
     <g id="line2d_3">
      <g>
       <use xlink:href="#m40630c27a1" x="190.963636" y="256.32" style="stroke: #000000; stroke-width: 1.5"/>
      </g>
     </g>
     <g id="text_3">
      <!-- 0.4 -->
      <g transform="translate(181.233636 273.465625) scale(0.14 -0.14)">
       <defs>
        <path id="LiberationSans-34" d="M 2753 997 
L 2753 0 
L 2222 0 
L 2222 997 
L 147 997 
L 147 1434 
L 2163 4403 
L 2753 4403 
L 2753 1441 
L 3372 1441 
L 3372 997 
L 2753 997 
z
M 2222 3769 
Q 2216 3750 2134 3603 
Q 2053 3456 2013 3397 
L 884 1734 
L 716 1503 
L 666 1441 
L 2222 1441 
L 2222 3769 
z
" transform="scale(0.015625)"/>
       </defs>
       <use xlink:href="#LiberationSans-30"/>
       <use xlink:href="#LiberationSans-2e" x="55.615234"/>
       <use xlink:href="#LiberationSans-34" x="83.398438"/>
      </g>
     </g>
    </g>
    <g id="xtick_4">
     <g id="line2d_4">
      <g>
       <use xlink:href="#m40630c27a1" x="251.836364" y="256.32" style="stroke: #000000; stroke-width: 1.5"/>
      </g>
     </g>
     <g id="text_4">
      <!-- 0.6 -->
      <g transform="translate(242.106364 273.465625) scale(0.14 -0.14)">
       <defs>
        <path id="LiberationSans-36" d="M 3278 1441 
Q 3278 744 2900 340 
Q 2522 -63 1856 -63 
Q 1113 -63 719 490 
Q 325 1044 325 2100 
Q 325 3244 734 3856 
Q 1144 4469 1900 4469 
Q 2897 4469 3156 3572 
L 2619 3475 
Q 2453 4013 1894 4013 
Q 1413 4013 1148 3564 
Q 884 3116 884 2266 
Q 1038 2550 1316 2698 
Q 1594 2847 1953 2847 
Q 2563 2847 2920 2465 
Q 3278 2084 3278 1441 
z
M 2706 1416 
Q 2706 1894 2472 2153 
Q 2238 2413 1819 2413 
Q 1425 2413 1183 2183 
Q 941 1953 941 1550 
Q 941 1041 1192 716 
Q 1444 391 1838 391 
Q 2244 391 2475 664 
Q 2706 938 2706 1416 
z
" transform="scale(0.015625)"/>
       </defs>
       <use xlink:href="#LiberationSans-30"/>
       <use xlink:href="#LiberationSans-2e" x="55.615234"/>
       <use xlink:href="#LiberationSans-36" x="83.398438"/>
      </g>
     </g>
    </g>
    <g id="xtick_5">
     <g id="line2d_5">
      <g>
       <use xlink:href="#m40630c27a1" x="312.709091" y="256.32" style="stroke: #000000; stroke-width: 1.5"/>
      </g>
     </g>
     <g id="text_5">
      <!-- 0.8 -->
      <g transform="translate(302.979091 273.465625) scale(0.14 -0.14)">
       <defs>
        <path id="LiberationSans-38" d="M 3281 1228 
Q 3281 619 2893 278 
Q 2506 -63 1781 -63 
Q 1075 -63 676 271 
Q 278 606 278 1222 
Q 278 1653 525 1947 
Q 772 2241 1156 2303 
L 1156 2316 
Q 797 2400 589 2681 
Q 381 2963 381 3341 
Q 381 3844 757 4156 
Q 1134 4469 1769 4469 
Q 2419 4469 2795 4162 
Q 3172 3856 3172 3334 
Q 3172 2956 2962 2675 
Q 2753 2394 2391 2322 
L 2391 2309 
Q 2813 2241 3047 1952 
Q 3281 1663 3281 1228 
z
M 2588 3303 
Q 2588 4050 1769 4050 
Q 1372 4050 1164 3862 
Q 956 3675 956 3303 
Q 956 2925 1170 2726 
Q 1384 2528 1775 2528 
Q 2172 2528 2380 2711 
Q 2588 2894 2588 3303 
z
M 2697 1281 
Q 2697 1691 2453 1898 
Q 2209 2106 1769 2106 
Q 1341 2106 1100 1882 
Q 859 1659 859 1269 
Q 859 359 1788 359 
Q 2247 359 2472 579 
Q 2697 800 2697 1281 
z
" transform="scale(0.015625)"/>
       </defs>
       <use xlink:href="#LiberationSans-30"/>
       <use xlink:href="#LiberationSans-2e" x="55.615234"/>
       <use xlink:href="#LiberationSans-38" x="83.398438"/>
      </g>
     </g>
    </g>
    <g id="xtick_6">
     <g id="line2d_6">
      <g>
       <use xlink:href="#m40630c27a1" x="373.581818" y="256.32" style="stroke: #000000; stroke-width: 1.5"/>
      </g>
     </g>
     <g id="text_6">
      <!-- 1.0 -->
      <g transform="translate(363.851818 273.465625) scale(0.14 -0.14)">
       <defs>
        <path id="LiberationSans-31" d="M 488 0 
L 488 478 
L 1609 478 
L 1609 3866 
L 616 3156 
L 616 3688 
L 1656 4403 
L 2175 4403 
L 2175 478 
L 3247 478 
L 3247 0 
L 488 0 
z
" transform="scale(0.015625)"/>
       </defs>
       <use xlink:href="#LiberationSans-31"/>
       <use xlink:href="#LiberationSans-2e" x="55.615234"/>
       <use xlink:href="#LiberationSans-30" x="83.398438"/>
      </g>
     </g>
    </g>
    <g id="text_7">
     <!-- Context Strength -->
     <g transform="translate(161.36875 291.965625) scale(0.16 -0.16)">
      <defs>
       <path id="LiberationSans-43" d="M 2475 3981 
Q 1744 3981 1337 3511 
Q 931 3041 931 2222 
Q 931 1413 1354 920 
Q 1778 428 2500 428 
Q 3425 428 3891 1344 
L 4378 1100 
Q 4106 531 3614 234 
Q 3122 -63 2472 -63 
Q 1806 -63 1320 214 
Q 834 491 579 1005 
Q 325 1519 325 2222 
Q 325 3275 894 3872 
Q 1463 4469 2469 4469 
Q 3172 4469 3644 4194 
Q 4116 3919 4338 3378 
L 3772 3191 
Q 3619 3575 3280 3778 
Q 2941 3981 2475 3981 
z
" transform="scale(0.015625)"/>
       <path id="LiberationSans-6f" d="M 3291 1694 
Q 3291 806 2900 371 
Q 2509 -63 1766 -63 
Q 1025 -63 647 389 
Q 269 841 269 1694 
Q 269 3444 1784 3444 
Q 2559 3444 2925 3017 
Q 3291 2591 3291 1694 
z
M 2700 1694 
Q 2700 2394 2492 2711 
Q 2284 3028 1794 3028 
Q 1300 3028 1079 2704 
Q 859 2381 859 1694 
Q 859 1025 1076 689 
Q 1294 353 1759 353 
Q 2266 353 2483 678 
Q 2700 1003 2700 1694 
z
" transform="scale(0.015625)"/>
       <path id="LiberationSans-6e" d="M 2578 0 
L 2578 2144 
Q 2578 2478 2512 2662 
Q 2447 2847 2303 2928 
Q 2159 3009 1881 3009 
Q 1475 3009 1240 2731 
Q 1006 2453 1006 1959 
L 1006 0 
L 444 0 
L 444 2659 
Q 444 3250 425 3381 
L 956 3381 
Q 959 3366 962 3297 
Q 966 3228 970 3139 
Q 975 3050 981 2803 
L 991 2803 
Q 1184 3153 1439 3298 
Q 1694 3444 2072 3444 
Q 2628 3444 2886 3167 
Q 3144 2891 3144 2253 
L 3144 0 
L 2578 0 
z
" transform="scale(0.015625)"/>
       <path id="LiberationSans-74" d="M 1731 25 
Q 1453 -50 1163 -50 
Q 488 -50 488 716 
L 488 2972 
L 97 2972 
L 97 3381 
L 509 3381 
L 675 4138 
L 1050 4138 
L 1050 3381 
L 1675 3381 
L 1675 2972 
L 1050 2972 
L 1050 838 
Q 1050 594 1129 495 
Q 1209 397 1406 397 
Q 1519 397 1731 441 
L 1731 25 
z
" transform="scale(0.015625)"/>
       <path id="LiberationSans-65" d="M 863 1572 
Q 863 991 1103 675 
Q 1344 359 1806 359 
Q 2172 359 2392 506 
Q 2613 653 2691 878 
L 3184 738 
Q 2881 -63 1806 -63 
Q 1056 -63 664 384 
Q 272 831 272 1713 
Q 272 2550 664 2997 
Q 1056 3444 1784 3444 
Q 3275 3444 3275 1647 
L 3275 1572 
L 863 1572 
z
M 2694 2003 
Q 2647 2538 2422 2783 
Q 2197 3028 1775 3028 
Q 1366 3028 1127 2754 
Q 888 2481 869 2003 
L 2694 2003 
z
" transform="scale(0.015625)"/>
       <path id="LiberationSans-78" d="M 2503 0 
L 1594 1388 
L 678 0 
L 72 0 
L 1275 1738 
L 128 3381 
L 750 3381 
L 1594 2066 
L 2431 3381 
L 3059 3381 
L 1913 1744 
L 3131 0 
L 2503 0 
z
" transform="scale(0.015625)"/>
       <path id="LiberationSans-20" transform="scale(0.015625)"/>
       <path id="LiberationSans-53" d="M 3975 1216 
Q 3975 606 3498 271 
Q 3022 -63 2156 -63 
Q 547 -63 291 1056 
L 869 1172 
Q 969 775 1294 589 
Q 1619 403 2178 403 
Q 2756 403 3070 601 
Q 3384 800 3384 1184 
Q 3384 1400 3286 1534 
Q 3188 1669 3009 1756 
Q 2831 1844 2584 1903 
Q 2338 1963 2038 2031 
Q 1516 2147 1245 2262 
Q 975 2378 819 2520 
Q 663 2663 580 2853 
Q 497 3044 497 3291 
Q 497 3856 930 4162 
Q 1363 4469 2169 4469 
Q 2919 4469 3316 4239 
Q 3713 4009 3872 3456 
L 3284 3353 
Q 3188 3703 2916 3861 
Q 2644 4019 2163 4019 
Q 1634 4019 1356 3844 
Q 1078 3669 1078 3322 
Q 1078 3119 1186 2986 
Q 1294 2853 1497 2761 
Q 1700 2669 2306 2534 
Q 2509 2488 2711 2439 
Q 2913 2391 3097 2323 
Q 3281 2256 3442 2165 
Q 3603 2075 3722 1944 
Q 3841 1813 3908 1634 
Q 3975 1456 3975 1216 
z
" transform="scale(0.015625)"/>
       <path id="LiberationSans-72" d="M 444 0 
L 444 2594 
Q 444 2950 425 3381 
L 956 3381 
Q 981 2806 981 2691 
L 994 2691 
Q 1128 3125 1303 3284 
Q 1478 3444 1797 3444 
Q 1909 3444 2025 3413 
L 2025 2897 
Q 1913 2928 1725 2928 
Q 1375 2928 1190 2626 
Q 1006 2325 1006 1763 
L 1006 0 
L 444 0 
z
" transform="scale(0.015625)"/>
       <path id="LiberationSans-67" d="M 1713 -1328 
Q 1159 -1328 831 -1111 
Q 503 -894 409 -494 
L 975 -413 
Q 1031 -647 1223 -773 
Q 1416 -900 1728 -900 
Q 2569 -900 2569 84 
L 2569 628 
L 2563 628 
Q 2403 303 2125 139 
Q 1847 -25 1475 -25 
Q 853 -25 561 387 
Q 269 800 269 1684 
Q 269 2581 583 3007 
Q 897 3434 1538 3434 
Q 1897 3434 2161 3270 
Q 2425 3106 2569 2803 
L 2575 2803 
Q 2575 2897 2587 3128 
Q 2600 3359 2613 3381 
L 3147 3381 
Q 3128 3213 3128 2681 
L 3128 97 
Q 3128 -1328 1713 -1328 
z
M 2569 1691 
Q 2569 2103 2456 2401 
Q 2344 2700 2139 2858 
Q 1934 3016 1675 3016 
Q 1244 3016 1047 2703 
Q 850 2391 850 1691 
Q 850 997 1034 694 
Q 1219 391 1666 391 
Q 1931 391 2137 547 
Q 2344 703 2456 995 
Q 2569 1288 2569 1691 
z
" transform="scale(0.015625)"/>
       <path id="LiberationSans-68" d="M 991 2803 
Q 1172 3134 1426 3289 
Q 1681 3444 2072 3444 
Q 2622 3444 2883 3170 
Q 3144 2897 3144 2253 
L 3144 0 
L 2578 0 
L 2578 2144 
Q 2578 2500 2512 2673 
Q 2447 2847 2297 2928 
Q 2147 3009 1881 3009 
Q 1484 3009 1245 2734 
Q 1006 2459 1006 1994 
L 1006 0 
L 444 0 
L 444 4638 
L 1006 4638 
L 1006 3431 
Q 1006 3241 995 3037 
Q 984 2834 981 2803 
L 991 2803 
z
" transform="scale(0.015625)"/>
      </defs>
      <use xlink:href="#LiberationSans-43"/>
      <use xlink:href="#LiberationSans-6f" x="72.216797"/>
      <use xlink:href="#LiberationSans-6e" x="127.832031"/>
      <use xlink:href="#LiberationSans-74" x="183.447266"/>
      <use xlink:href="#LiberationSans-65" x="211.230469"/>
      <use xlink:href="#LiberationSans-78" x="266.845703"/>
      <use xlink:href="#LiberationSans-74" x="316.845703"/>
      <use xlink:href="#LiberationSans-20" x="344.628906"/>
      <use xlink:href="#LiberationSans-53" x="372.412109"/>
      <use xlink:href="#LiberationSans-74" x="439.111328"/>
      <use xlink:href="#LiberationSans-72" x="466.894531"/>
      <use xlink:href="#LiberationSans-65" x="500.195312"/>
      <use xlink:href="#LiberationSans-6e" x="555.810547"/>
      <use xlink:href="#LiberationSans-67" x="611.425781"/>
      <use xlink:href="#LiberationSans-74" x="667.041016"/>
      <use xlink:href="#LiberationSans-68" x="694.824219"/>
     </g>
    </g>
   </g>
   <g id="matplotlib.axis_2">
    <g id="ytick_1">
     <g id="line2d_7">
      <defs>
       <path id="m9fdb8f2d5f" d="M 0 0 
L -3.5 0 
" style="stroke: #000000; stroke-width: 0.8"/>
      </defs>
      <g>
       <use xlink:href="#m9fdb8f2d5f" x="54" y="237.84" style="stroke: #000000; stroke-width: 0.8"/>
      </g>
     </g>
     <g id="text_8">
      <!-- 0.5 -->
      <g transform="translate(27.54 242.912813) scale(0.14 -0.14)">
       <defs>
        <path id="LiberationSans-35" d="M 3291 1434 
Q 3291 738 2877 337 
Q 2463 -63 1728 -63 
Q 1113 -63 734 206 
Q 356 475 256 984 
L 825 1050 
Q 1003 397 1741 397 
Q 2194 397 2450 670 
Q 2706 944 2706 1422 
Q 2706 1838 2448 2094 
Q 2191 2350 1753 2350 
Q 1525 2350 1328 2278 
Q 1131 2206 934 2034 
L 384 2034 
L 531 4403 
L 3034 4403 
L 3034 3925 
L 1044 3925 
L 959 2528 
Q 1325 2809 1869 2809 
Q 2519 2809 2905 2428 
Q 3291 2047 3291 1434 
z
" transform="scale(0.015625)"/>
       </defs>
       <use xlink:href="#LiberationSans-30"/>
       <use xlink:href="#LiberationSans-2e" x="55.615234"/>
       <use xlink:href="#LiberationSans-35" x="83.398438"/>
      </g>
     </g>
    </g>
    <g id="ytick_2">
     <g id="line2d_8">
      <g>
       <use xlink:href="#m9fdb8f2d5f" x="54" y="200.88" style="stroke: #000000; stroke-width: 0.8"/>
      </g>
     </g>
     <g id="text_9">
      <!-- 0.6 -->
      <g transform="translate(27.54 205.952812) scale(0.14 -0.14)">
       <use xlink:href="#LiberationSans-30"/>
       <use xlink:href="#LiberationSans-2e" x="55.615234"/>
       <use xlink:href="#LiberationSans-36" x="83.398438"/>
      </g>
     </g>
    </g>
    <g id="ytick_3">
     <g id="line2d_9">
      <g>
       <use xlink:href="#m9fdb8f2d5f" x="54" y="163.92" style="stroke: #000000; stroke-width: 0.8"/>
      </g>
     </g>
     <g id="text_10">
      <!-- 0.7 -->
      <g transform="translate(27.54 168.992812) scale(0.14 -0.14)">
       <defs>
        <path id="LiberationSans-37" d="M 3238 3947 
Q 2563 2916 2284 2331 
Q 2006 1747 1867 1178 
Q 1728 609 1728 0 
L 1141 0 
Q 1141 844 1498 1776 
Q 1856 2709 2694 3925 
L 328 3925 
L 328 4403 
L 3238 4403 
L 3238 3947 
z
" transform="scale(0.015625)"/>
       </defs>
       <use xlink:href="#LiberationSans-30"/>
       <use xlink:href="#LiberationSans-2e" x="55.615234"/>
       <use xlink:href="#LiberationSans-37" x="83.398438"/>
      </g>
     </g>
    </g>
    <g id="ytick_4">
     <g id="line2d_10">
      <g>
       <use xlink:href="#m9fdb8f2d5f" x="54" y="126.96" style="stroke: #000000; stroke-width: 0.8"/>
      </g>
     </g>
     <g id="text_11">
      <!-- 0.8 -->
      <g transform="translate(27.54 132.032812) scale(0.14 -0.14)">
       <use xlink:href="#LiberationSans-30"/>
       <use xlink:href="#LiberationSans-2e" x="55.615234"/>
       <use xlink:href="#LiberationSans-38" x="83.398438"/>
      </g>
     </g>
    </g>
    <g id="ytick_5">
     <g id="line2d_11">
      <g>
       <use xlink:href="#m9fdb8f2d5f" x="54" y="90" style="stroke: #000000; stroke-width: 0.8"/>
      </g>
     </g>
     <g id="text_12">
      <!-- 0.9 -->
      <g transform="translate(27.54 95.072812) scale(0.14 -0.14)">
       <defs>
        <path id="LiberationSans-39" d="M 3256 2291 
Q 3256 1156 2842 546 
Q 2428 -63 1663 -63 
Q 1147 -63 836 154 
Q 525 372 391 856 
L 928 941 
Q 1097 391 1672 391 
Q 2156 391 2422 841 
Q 2688 1291 2700 2125 
Q 2575 1844 2272 1673 
Q 1969 1503 1606 1503 
Q 1013 1503 656 1909 
Q 300 2316 300 2988 
Q 300 3678 687 4073 
Q 1075 4469 1766 4469 
Q 2500 4469 2878 3925 
Q 3256 3381 3256 2291 
z
M 2644 2834 
Q 2644 3366 2400 3689 
Q 2156 4013 1747 4013 
Q 1341 4013 1106 3736 
Q 872 3459 872 2988 
Q 872 2506 1106 2226 
Q 1341 1947 1741 1947 
Q 1984 1947 2193 2058 
Q 2403 2169 2523 2372 
Q 2644 2575 2644 2834 
z
" transform="scale(0.015625)"/>
       </defs>
       <use xlink:href="#LiberationSans-30"/>
       <use xlink:href="#LiberationSans-2e" x="55.615234"/>
       <use xlink:href="#LiberationSans-39" x="83.398438"/>
      </g>
     </g>
    </g>
    <g id="ytick_6">
     <g id="line2d_12">
      <g>
       <use xlink:href="#m9fdb8f2d5f" x="54" y="53.04" style="stroke: #000000; stroke-width: 0.8"/>
      </g>
     </g>
     <g id="text_13">
      <!-- 1.0 -->
      <g transform="translate(27.54 58.112813) scale(0.14 -0.14)">
       <use xlink:href="#LiberationSans-31"/>
       <use xlink:href="#LiberationSans-2e" x="55.615234"/>
       <use xlink:href="#LiberationSans-30" x="83.398438"/>
      </g>
     </g>
    </g>
    <g id="text_14">
     <!-- Accuracy -->
     <g transform="translate(20.22 178.3375) rotate(-90) scale(0.16 -0.16)">
      <defs>
       <path id="LiberationSans-41" d="M 3647 0 
L 3144 1288 
L 1138 1288 
L 631 0 
L 13 0 
L 1809 4403 
L 2488 4403 
L 4256 0 
L 3647 0 
z
M 2141 3953 
L 2113 3866 
Q 2034 3606 1881 3200 
L 1319 1753 
L 2966 1753 
L 2400 3206 
Q 2313 3422 2225 3694 
L 2141 3953 
z
" transform="scale(0.015625)"/>
       <path id="LiberationSans-63" d="M 859 1706 
Q 859 1031 1071 706 
Q 1284 381 1713 381 
Q 2013 381 2214 543 
Q 2416 706 2463 1044 
L 3031 1006 
Q 2966 519 2616 228 
Q 2266 -63 1728 -63 
Q 1019 -63 645 385 
Q 272 834 272 1694 
Q 272 2547 647 2995 
Q 1022 3444 1722 3444 
Q 2241 3444 2583 3175 
Q 2925 2906 3013 2434 
L 2434 2391 
Q 2391 2672 2212 2837 
Q 2034 3003 1706 3003 
Q 1259 3003 1059 2706 
Q 859 2409 859 1706 
z
" transform="scale(0.015625)"/>
       <path id="LiberationSans-75" d="M 981 3381 
L 981 1238 
Q 981 903 1047 718 
Q 1113 534 1256 453 
Q 1400 372 1678 372 
Q 2084 372 2318 650 
Q 2553 928 2553 1422 
L 2553 3381 
L 3116 3381 
L 3116 722 
Q 3116 131 3134 0 
L 2603 0 
Q 2600 16 2597 84 
Q 2594 153 2589 242 
Q 2584 331 2578 578 
L 2569 578 
Q 2375 228 2120 82 
Q 1866 -63 1488 -63 
Q 931 -63 673 214 
Q 416 491 416 1128 
L 416 3381 
L 981 3381 
z
" transform="scale(0.015625)"/>
       <path id="LiberationSans-61" d="M 1294 -63 
Q 784 -63 528 206 
Q 272 475 272 944 
Q 272 1469 617 1750 
Q 963 2031 1731 2050 
L 2491 2063 
L 2491 2247 
Q 2491 2659 2316 2837 
Q 2141 3016 1766 3016 
Q 1388 3016 1216 2887 
Q 1044 2759 1009 2478 
L 422 2531 
Q 566 3444 1778 3444 
Q 2416 3444 2737 3151 
Q 3059 2859 3059 2306 
L 3059 850 
Q 3059 600 3125 473 
Q 3191 347 3375 347 
Q 3456 347 3559 369 
L 3559 19 
Q 3347 -31 3125 -31 
Q 2813 -31 2670 133 
Q 2528 297 2509 647 
L 2491 647 
Q 2275 259 1989 98 
Q 1703 -63 1294 -63 
z
M 1422 359 
Q 1731 359 1972 500 
Q 2213 641 2352 886 
Q 2491 1131 2491 1391 
L 2491 1669 
L 1875 1656 
Q 1478 1650 1273 1575 
Q 1069 1500 959 1344 
Q 850 1188 850 934 
Q 850 659 998 509 
Q 1147 359 1422 359 
z
" transform="scale(0.015625)"/>
       <path id="LiberationSans-79" d="M 597 -1328 
Q 366 -1328 209 -1294 
L 209 -872 
Q 328 -891 472 -891 
Q 997 -891 1303 -119 
L 1356 16 
L 16 3381 
L 616 3381 
L 1328 1513 
Q 1344 1469 1366 1408 
Q 1388 1347 1506 1000 
Q 1625 653 1634 613 
L 1853 1228 
L 2594 3381 
L 3188 3381 
L 1888 0 
Q 1678 -541 1497 -805 
Q 1316 -1069 1095 -1198 
Q 875 -1328 597 -1328 
z
" transform="scale(0.015625)"/>
      </defs>
      <use xlink:href="#LiberationSans-41"/>
      <use xlink:href="#LiberationSans-63" x="66.699219"/>
      <use xlink:href="#LiberationSans-63" x="116.699219"/>
      <use xlink:href="#LiberationSans-75" x="166.699219"/>
      <use xlink:href="#LiberationSans-72" x="222.314453"/>
      <use xlink:href="#LiberationSans-61" x="255.615234"/>
      <use xlink:href="#LiberationSans-63" x="311.230469"/>
      <use xlink:href="#LiberationSans-79" x="361.230469"/>
     </g>
    </g>
   </g>
   <g id="line2d_13">
    <path d="M 69.218182 130.433616 
L 72.261818 127.671877 
L 75.305455 124.944578 
L 78.349091 122.274711 
L 81.392727 119.58865 
L 84.436364 116.902904 
L 87.48 114.196133 
L 90.523636 111.544795 
L 93.567273 108.945365 
L 96.610909 106.366595 
L 99.654545 103.864166 
L 102.698182 101.437169 
L 105.741818 99.062682 
L 108.785455 96.742045 
L 111.829091 94.511836 
L 114.872727 92.37478 
L 117.916364 90.283532 
L 120.96 88.286993 
L 124.003636 86.334674 
L 127.047273 84.45929 
L 130.090909 82.687157 
L 133.134545 80.97967 
L 136.178182 79.370291 
L 139.221818 77.866221 
L 142.265455 76.439592 
L 145.309091 75.086501 
L 148.352727 73.795412 
L 151.396364 72.584404 
L 154.44 71.425172 
L 157.483636 70.338428 
L 160.527273 69.332937 
L 163.570909 68.40431 
L 166.614545 67.540866 
L 169.658182 66.733137 
L 172.701818 65.984033 
L 175.745455 65.29069 
L 178.789091 64.658936 
L 181.832727 64.085834 
L 184.876364 63.565462 
L 187.92 63.083472 
L 190.963636 62.628736 
L 194.007273 62.210733 
L 197.050909 61.842956 
L 200.094545 61.506541 
L 203.138182 61.208045 
L 206.181818 60.937305 
L 209.225455 60.682842 
L 212.269091 60.447248 
L 215.312727 60.234159 
L 218.356364 60.0415 
L 221.4 59.865998 
L 224.443636 59.703206 
L 227.487273 59.556618 
L 230.530909 59.421405 
L 233.574545 59.297593 
L 236.618182 59.186523 
L 239.661818 59.083017 
L 242.705455 58.984606 
L 245.749091 58.898521 
L 248.792727 58.82432 
L 251.836364 58.754873 
L 254.88 58.687752 
L 257.923636 58.624443 
L 260.967273 58.562263 
L 264.010909 58.502683 
L 267.054545 58.447039 
L 270.098182 58.398562 
L 273.141818 58.357085 
L 276.185455 58.321811 
L 279.229091 58.289672 
L 282.272727 58.259129 
L 285.316364 58.230687 
L 288.36 58.203567 
L 291.403636 58.177721 
L 294.447273 58.153967 
L 297.490909 58.132894 
L 300.534545 58.114319 
L 303.578182 58.097473 
L 306.621818 58.08041 
L 309.665455 58.063043 
L 312.709091 58.047092 
L 315.752727 58.032761 
L 318.796364 58.01881 
L 321.84 58.005504 
L 324.883636 57.994231 
L 327.927273 57.984906 
L 330.970909 57.976421 
L 334.014545 57.968545 
L 337.058182 57.961308 
L 340.101818 57.954238 
L 343.145455 57.947315 
L 346.189091 57.941334 
L 349.232727 57.936112 
L 352.276364 57.931055 
L 355.32 57.926262 
L 358.363636 57.92212 
L 361.407273 57.918068 
L 364.450909 57.914482 
L 367.494545 57.911145 
L 370.538182 57.907921 
L 373.581818 57.905339 
" clip-path="url(#p4edbb84a2b)" style="fill: none; stroke: #c0d9ff; stroke-width: 1.5; stroke-linecap: square"/>
   </g>
   <g id="line2d_14">
    <path d="M 69.218182 133.762027 
L 72.261818 131.089034 
L 75.305455 128.444883 
L 78.349091 125.845018 
L 81.392727 123.20685 
L 84.436364 120.551079 
L 87.48 117.898263 
L 90.523636 115.31211 
L 93.567273 112.788954 
L 96.610909 110.336114 
L 99.654545 107.958482 
L 102.698182 105.652729 
L 105.741818 103.370352 
L 108.785455 101.184044 
L 111.829091 99.116237 
L 114.872727 97.146599 
L 117.916364 95.239835 
L 120.96 93.419066 
L 124.003636 91.685226 
L 127.047273 89.978132 
L 130.090909 88.374384 
L 133.134545 86.824578 
L 136.178182 85.339022 
L 139.221818 83.900453 
L 142.265455 82.511944 
L 145.309091 81.176549 
L 148.352727 79.885457 
L 151.396364 78.623235 
L 154.44 77.379427 
L 157.483636 76.179975 
L 160.527273 75.014355 
L 163.570909 73.907966 
L 166.614545 72.862507 
L 169.658182 71.850614 
L 172.701818 70.857677 
L 175.745455 69.910671 
L 178.789091 69.005553 
L 181.832727 68.172839 
L 184.876364 67.403272 
L 187.92 66.684429 
L 190.963636 66.012654 
L 194.007273 65.38496 
L 197.050909 64.792339 
L 200.094545 64.237315 
L 203.138182 63.72285 
L 206.181818 63.266619 
L 209.225455 62.855609 
L 212.269091 62.471044 
L 215.312727 62.121643 
L 218.356364 61.79423 
L 221.4 61.492493 
L 224.443636 61.213205 
L 227.487273 60.9587 
L 230.530909 60.74303 
L 233.574545 60.549279 
L 236.618182 60.380614 
L 239.661818 60.230083 
L 242.705455 60.084159 
L 245.749091 59.957588 
L 248.792727 59.842079 
L 251.836364 59.735274 
L 254.88 59.634719 
L 257.923636 59.543038 
L 260.967273 59.45588 
L 264.010909 59.377082 
L 267.054545 59.309905 
L 270.098182 59.241314 
L 273.141818 59.175643 
L 276.185455 59.120185 
L 279.229091 59.077621 
L 282.272727 59.040347 
L 285.316364 59.005808 
L 288.36 58.970785 
L 291.403636 58.935279 
L 294.447273 58.908367 
L 297.490909 58.887727 
L 300.534545 58.867534 
L 303.578182 58.849501 
L 306.621818 58.833087 
L 309.665455 58.817939 
L 312.709091 58.80343 
L 315.752727 58.790451 
L 318.796364 58.778572 
L 321.84 58.767261 
L 324.883636 58.756749 
L 327.927273 58.746339 
L 330.970909 58.737427 
L 334.014545 58.729454 
L 337.058182 58.721492 
L 340.101818 58.712412 
L 343.145455 58.705198 
L 346.189091 58.698839 
L 349.232727 58.691691 
L 352.276364 58.684444 
L 355.32 58.676639 
L 358.363636 58.668229 
L 361.407273 58.660202 
L 364.450909 58.652044 
L 367.494545 58.645491 
L 370.538182 58.639499 
L 373.581818 58.63332 
" clip-path="url(#p4edbb84a2b)" style="fill: none; stroke: #ffbfc4; stroke-width: 1.5; stroke-linecap: square"/>
   </g>
   <g id="patch_3">
    <path d="M 54 256.32 
L 54 34.56 
" style="fill: none; stroke: #000000; stroke-width: 1.5; stroke-linejoin: miter; stroke-linecap: square"/>
   </g>
   <g id="patch_4">
    <path d="M 54 256.32 
L 388.8 256.32 
" style="fill: none; stroke: #000000; stroke-width: 1.5; stroke-linejoin: miter; stroke-linecap: square"/>
   </g>
  </g>
 </g>
 <defs>
  <clipPath id="p4edbb84a2b">
   <rect x="54" y="34.56" width="334.8" height="221.76"/>
  </clipPath>
 </defs>
</svg>
