<?xml version="1.0" encoding="utf-8" standalone="no"?>
<!DOCTYPE svg PUBLIC "-//W3C//DTD SVG 1.1//EN"
  "http://www.w3.org/Graphics/SVG/1.1/DTD/svg11.dtd">
<svg xmlns:xlink="http://www.w3.org/1999/xlink" width="432pt" height="288pt" viewBox="0 0 432 288" xmlns="http://www.w3.org/2000/svg" version="1.1">
 <metadata>
  <rdf:RDF xmlns:dc="http://purl.org/dc/elements/1.1/" xmlns:cc="http://creativecommons.org/ns#" xmlns:rdf="http://www.w3.org/1999/02/22-rdf-syntax-ns#">
   <cc:Work>
    <dc:type rdf:resource="http://purl.org/dc/dcmitype/StillImage"/>
    <dc:date>2024-02-04T17:03:26.997737</dc:date>
    <dc:format>image/svg+xml</dc:format>
    <dc:creator>
     <cc:Agent>
      <dc:title>Matplotlib v3.7.4, https://matplotlib.org/</dc:title>
     </cc:Agent>
    </dc:creator>
   </cc:Work>
  </rdf:RDF>
 </metadata>
 <defs>
  <style type="text/css">*{stroke-linejoin: round; stroke-linecap: butt}</style>
 </defs>
 <g id="figure_1">
  <g id="patch_1">
   <path d="M 0 288 
L 432 288 
L 432 0 
L 0 0 
z
" style="fill: #ffffff"/>
  </g>
  <g id="axes_1">
   <g id="patch_2">
    <path d="M 54 256.32 
L 388.8 256.32 
L 388.8 34.56 
L 54 34.56 
z
" style="fill: #ffffff"/>
   </g>
   <g id="PolyCollection_1">
    <defs>
     <path id="m35813db61b" d="M 69.218182 -212.692444 
L 69.218182 -151.307035 
L 72.261818 -153.987139 
L 75.305455 -156.694518 
L 78.349091 -159.436613 
L 81.392727 -162.276047 
L 84.436364 -165.170408 
L 87.48 -168.150771 
L 90.523636 -171.14275 
L 93.567273 -174.149973 
L 96.610909 -177.185614 
L 99.654545 -180.216082 
L 102.698182 -183.261195 
L 105.741818 -186.301835 
L 108.785455 -189.303028 
L 111.829091 -192.220142 
L 114.872727 -195.057969 
L 117.916364 -197.880295 
L 120.96 -200.644414 
L 124.003636 -203.389301 
L 127.047273 -206.057667 
L 130.090909 -208.62575 
L 133.134545 -211.125378 
L 136.178182 -213.51109 
L 139.221818 -215.776768 
L 142.265455 -217.949352 
L 145.309091 -220.034442 
L 148.352727 -222.056635 
L 151.396364 -223.996364 
L 154.44 -225.873407 
L 157.483636 -227.644107 
L 160.527273 -229.302303 
L 163.570909 -230.833892 
L 166.614545 -232.260164 
L 169.658182 -233.607834 
L 172.701818 -234.862945 
L 175.745455 -236.028312 
L 178.789091 -237.086122 
L 181.832727 -238.046106 
L 184.876364 -238.920571 
L 187.92 -239.729967 
L 190.963636 -240.494136 
L 194.007273 -241.197429 
L 197.050909 -241.813282 
L 200.094545 -242.372056 
L 203.138182 -242.87354 
L 206.181818 -243.332196 
L 209.225455 -243.758353 
L 212.269091 -244.152869 
L 215.312727 -244.508163 
L 218.356364 -244.835582 
L 221.4 -245.138403 
L 224.443636 -245.422962 
L 227.487273 -245.681426 
L 230.530909 -245.91718 
L 233.574545 -246.132392 
L 236.618182 -246.327753 
L 239.661818 -246.51508 
L 242.705455 -246.695776 
L 245.749091 -246.854001 
L 248.792727 -246.991284 
L 251.836364 -247.122965 
L 254.88 -247.249633 
L 257.923636 -247.36945 
L 260.967273 -247.488437 
L 264.010909 -247.600872 
L 267.054545 -247.701823 
L 270.098182 -247.790163 
L 273.141818 -247.862231 
L 276.185455 -247.921015 
L 279.229091 -247.975733 
L 282.272727 -248.028551 
L 285.316364 -248.077024 
L 288.36 -248.121793 
L 291.403636 -248.164163 
L 294.447273 -248.203642 
L 297.490909 -248.238161 
L 300.534545 -248.268334 
L 303.578182 -248.295757 
L 306.621818 -248.323684 
L 309.665455 -248.352829 
L 312.709091 -248.379522 
L 315.752727 -248.40411 
L 318.796364 -248.428723 
L 321.84 -248.450881 
L 324.883636 -248.468997 
L 327.927273 -248.483954 
L 330.970909 -248.497265 
L 334.014545 -248.509546 
L 337.058182 -248.521025 
L 340.101818 -248.532208 
L 343.145455 -248.542802 
L 346.189091 -248.5526 
L 349.232727 -248.562043 
L 352.276364 -248.571188 
L 355.32 -248.579242 
L 358.363636 -248.586605 
L 361.407273 -248.593625 
L 364.450909 -248.600353 
L 367.494545 -248.606529 
L 370.538182 -248.612562 
L 373.581818 -248.618201 
L 373.581818 -249.279634 
L 373.581818 -249.279634 
L 370.538182 -249.280507 
L 367.494545 -249.280589 
L 364.450909 -249.280603 
L 361.407273 -249.28071 
L 358.363636 -249.28025 
L 355.32 -249.279966 
L 352.276364 -249.279171 
L 349.232727 -249.278982 
L 346.189091 -249.278783 
L 343.145455 -249.277539 
L 340.101818 -249.275352 
L 337.058182 -249.273483 
L 334.014545 -249.271602 
L 330.970909 -249.269343 
L 327.927273 -249.266988 
L 324.883636 -249.26473 
L 321.84 -249.262035 
L 318.796364 -249.259628 
L 315.752727 -249.258486 
L 312.709091 -249.256616 
L 309.665455 -249.253861 
L 306.621818 -249.250943 
L 303.578182 -249.247369 
L 300.534545 -249.243691 
L 297.490909 -249.239573 
L 294.447273 -249.235188 
L 291.403636 -249.230813 
L 288.36 -249.225467 
L 285.316364 -249.220169 
L 282.272727 -249.216134 
L 279.229091 -249.212566 
L 276.185455 -249.20795 
L 273.141818 -249.201612 
L 270.098182 -249.197107 
L 267.054545 -249.19595 
L 264.010909 -249.194174 
L 260.967273 -249.196616 
L 257.923636 -249.200809 
L 254.88 -249.203748 
L 251.836364 -249.2065 
L 248.792727 -249.209972 
L 245.749091 -249.210268 
L 242.705455 -249.209567 
L 239.661818 -249.20858 
L 236.618182 -249.20482 
L 233.574545 -249.195128 
L 230.530909 -249.181765 
L 227.487273 -249.167895 
L 224.443636 -249.155735 
L 221.4 -249.139754 
L 218.356364 -249.118572 
L 215.312727 -249.090312 
L 212.269091 -249.052211 
L 209.225455 -249.011784 
L 206.181818 -248.968164 
L 203.138182 -248.926992 
L 200.094545 -248.877407 
L 197.050909 -248.815107 
L 194.007273 -248.751987 
L 190.963636 -248.683582 
L 187.92 -248.608239 
L 184.876364 -248.527808 
L 181.832727 -248.441584 
L 178.789091 -248.343535 
L 175.745455 -248.235031 
L 172.701818 -248.120378 
L 169.658182 -247.992529 
L 166.614545 -247.849006 
L 163.570909 -247.681228 
L 160.527273 -247.498428 
L 157.483636 -247.300333 
L 154.44 -247.064737 
L 151.396364 -246.801659 
L 148.352727 -246.505681 
L 145.309091 -246.144325 
L 142.265455 -245.731402 
L 139.221818 -245.270209 
L 136.178182 -244.759142 
L 133.134545 -244.173693 
L 130.090909 -243.521037 
L 127.047273 -242.81749 
L 124.003636 -242.023608 
L 120.96 -241.164214 
L 117.916364 -240.242416 
L 114.872727 -239.203975 
L 111.829091 -238.096468 
L 108.785455 -236.896274 
L 105.741818 -235.613214 
L 102.698182 -234.270185 
L 99.654545 -232.834687 
L 96.610909 -231.245287 
L 93.567273 -229.520122 
L 90.523636 -227.728397 
L 87.48 -225.825598 
L 84.436364 -223.808847 
L 81.392727 -221.744908 
L 78.349091 -219.625459 
L 75.305455 -217.438568 
L 72.261818 -215.110935 
L 69.218182 -212.692444 
z
" style="stroke: #c0d9ff; stroke-opacity: 0.5"/>
    </defs>
    <g clip-path="url(#p3f6b5781ba)">
     <use xlink:href="#m35813db61b" x="0" y="288" style="fill: #c0d9ff; fill-opacity: 0.5; stroke: #c0d9ff; stroke-opacity: 0.5"/>
    </g>
   </g>
   <g id="PolyCollection_2">
    <defs>
     <path id="m7044e51a1f" d="M 69.218182 -210.011621 
L 69.218182 -147.843098 
L 72.261818 -150.408499 
L 75.305455 -152.989606 
L 78.349091 -155.568678 
L 81.392727 -158.248951 
L 84.436364 -161.039819 
L 87.48 -163.882637 
L 90.523636 -166.67448 
L 93.567273 -169.412166 
L 96.610909 -172.094688 
L 99.654545 -174.719733 
L 102.698182 -177.323336 
L 105.741818 -179.959052 
L 108.785455 -182.492802 
L 111.829091 -184.914436 
L 114.872727 -187.242864 
L 117.916364 -189.504051 
L 120.96 -191.692708 
L 124.003636 -193.809612 
L 127.047273 -195.942516 
L 130.090909 -198.022103 
L 133.134545 -200.08819 
L 136.178182 -202.119261 
L 139.221818 -204.145345 
L 142.265455 -206.152903 
L 145.309091 -208.150357 
L 148.352727 -210.145878 
L 151.396364 -212.16762 
L 154.44 -214.215899 
L 157.483636 -216.234125 
L 160.527273 -218.240331 
L 163.570909 -220.18225 
L 166.614545 -222.064202 
L 169.658182 -223.910709 
L 172.701818 -225.751286 
L 175.745455 -227.523652 
L 178.789091 -229.236168 
L 181.832727 -230.840606 
L 184.876364 -232.340761 
L 187.92 -233.726088 
L 190.963636 -235.004161 
L 194.007273 -236.179268 
L 197.050909 -237.291269 
L 200.094545 -238.31938 
L 203.138182 -239.259249 
L 206.181818 -240.08017 
L 209.225455 -240.813601 
L 212.269091 -241.498461 
L 215.312727 -242.126692 
L 218.356364 -242.720486 
L 221.4 -243.277561 
L 224.443636 -243.79306 
L 227.487273 -244.247992 
L 230.530909 -244.632765 
L 233.574545 -244.990353 
L 236.618182 -245.290998 
L 239.661818 -245.557754 
L 242.705455 -245.825798 
L 245.749091 -246.054572 
L 248.792727 -246.256245 
L 251.836364 -246.443276 
L 254.88 -246.620647 
L 257.923636 -246.78135 
L 260.967273 -246.926632 
L 264.010909 -247.050947 
L 267.054545 -247.154484 
L 270.098182 -247.253151 
L 273.141818 -247.335154 
L 276.185455 -247.39904 
L 279.229091 -247.447415 
L 282.272727 -247.490388 
L 285.316364 -247.524393 
L 288.36 -247.553308 
L 291.403636 -247.57859 
L 294.447273 -247.60326 
L 297.490909 -247.627301 
L 300.534545 -247.649423 
L 303.578182 -247.671151 
L 306.621818 -247.691457 
L 309.665455 -247.709371 
L 312.709091 -247.728493 
L 315.752727 -247.746276 
L 318.796364 -247.76076 
L 321.84 -247.774588 
L 324.883636 -247.787597 
L 327.927273 -247.799759 
L 330.970909 -247.810278 
L 334.014545 -247.820649 
L 337.058182 -247.830573 
L 340.101818 -247.840048 
L 343.145455 -247.848319 
L 346.189091 -247.855825 
L 349.232727 -247.864193 
L 352.276364 -247.871411 
L 355.32 -247.878732 
L 358.363636 -247.886546 
L 361.407273 -247.893756 
L 364.450909 -247.901098 
L 367.494545 -247.906496 
L 370.538182 -247.910588 
L 373.581818 -247.915444 
L 373.581818 -248.638427 
L 373.581818 -248.638427 
L 370.538182 -248.631876 
L 367.494545 -248.624904 
L 364.450909 -248.618205 
L 361.407273 -248.610486 
L 358.363636 -248.602877 
L 355.32 -248.595165 
L 352.276364 -248.588077 
L 349.232727 -248.581916 
L 346.189091 -248.577087 
L 343.145455 -248.572853 
L 340.101818 -248.567807 
L 337.058182 -248.560519 
L 334.014545 -248.555743 
L 330.970909 -248.551394 
L 327.927273 -248.545461 
L 324.883636 -248.538404 
L 321.84 -248.532007 
L 318.796364 -248.524953 
L 315.752727 -248.517507 
L 312.709091 -248.51133 
L 309.665455 -248.503665 
L 306.621818 -248.493613 
L 303.578182 -248.483617 
L 300.534545 -248.472052 
L 297.490909 -248.456895 
L 294.447273 -248.442832 
L 291.403636 -248.417818 
L 288.36 -248.377551 
L 285.316364 -248.341807 
L 282.272727 -248.312049 
L 279.229091 -248.286207 
L 276.185455 -248.256003 
L 273.141818 -248.217505 
L 270.098182 -248.17827 
L 267.054545 -248.150306 
L 264.010909 -248.129825 
L 260.967273 -248.108667 
L 257.923636 -248.093043 
L 254.88 -248.084487 
L 251.836364 -248.076219 
L 248.792727 -248.06607 
L 245.749091 -248.054496 
L 242.705455 -248.049602 
L 239.661818 -248.048245 
L 236.618182 -248.037099 
L 233.574545 -248.026362 
L 230.530909 -248.026257 
L 227.487273 -248.012869 
L 224.443636 -247.997946 
L 221.4 -247.997838 
L 218.356364 -247.997858 
L 215.312727 -247.987197 
L 212.269091 -247.970381 
L 209.225455 -247.945275 
L 206.181818 -247.919918 
L 203.138182 -247.898565 
L 200.094545 -247.888654 
L 197.050909 -247.892105 
L 194.007273 -247.910036 
L 190.963636 -247.926324 
L 187.92 -247.964198 
L 184.876364 -248.022429 
L 181.832727 -248.101845 
L 178.789091 -248.168964 
L 175.745455 -248.210493 
L 172.701818 -248.234542 
L 169.658182 -248.242004 
L 166.614545 -248.220401 
L 163.570909 -248.172273 
L 160.527273 -248.07163 
L 157.483636 -247.925921 
L 154.44 -247.729774 
L 151.396364 -247.481792 
L 148.352727 -247.173278 
L 145.309091 -246.785244 
L 142.265455 -246.317355 
L 139.221818 -245.761511 
L 136.178182 -245.131775 
L 133.134545 -244.420282 
L 130.090909 -243.625189 
L 127.047273 -242.74401 
L 124.003636 -241.725355 
L 120.96 -240.641324 
L 117.916364 -239.468561 
L 114.872727 -238.20957 
L 111.829091 -236.901742 
L 108.785455 -235.505886 
L 105.741818 -234.003374 
L 102.698182 -232.425473 
L 99.654545 -230.7723 
L 96.610909 -229.00787 
L 93.567273 -227.162073 
L 90.523636 -225.241624 
L 87.48 -223.259031 
L 84.436364 -221.204344 
L 81.392727 -219.092249 
L 78.349091 -216.902058 
L 75.305455 -214.681379 
L 72.261818 -212.380976 
L 69.218182 -210.011621 
z
" style="stroke: #ffbfc4; stroke-opacity: 0.5"/>
    </defs>
    <g clip-path="url(#p3f6b5781ba)">
     <use xlink:href="#m7044e51a1f" x="0" y="288" style="fill: #ffbfc4; fill-opacity: 0.5; stroke: #ffbfc4; stroke-opacity: 0.5"/>
    </g>
   </g>
   <g id="matplotlib.axis_1">
    <g id="xtick_1">
     <g id="line2d_1">
      <defs>
       <path id="m3340b008e0" d="M 0 0 
L 0 3.5 
" style="stroke: #000000; stroke-width: 1.5"/>
      </defs>
      <g>
       <use xlink:href="#m3340b008e0" x="69.218182" y="256.32" style="stroke: #000000; stroke-width: 1.5"/>
      </g>
     </g>
     <g id="text_1">
      <!-- 0.0 -->
      <g transform="translate(59.488182 273.465625) scale(0.14 -0.14)">
       <defs>
        <path id="LiberationSans-30" d="M 3309 2203 
Q 3309 1100 2920 518 
Q 2531 -63 1772 -63 
Q 1013 -63 631 515 
Q 250 1094 250 2203 
Q 250 3338 620 3903 
Q 991 4469 1791 4469 
Q 2569 4469 2939 3897 
Q 3309 3325 3309 2203 
z
M 2738 2203 
Q 2738 3156 2517 3584 
Q 2297 4013 1791 4013 
Q 1272 4013 1045 3591 
Q 819 3169 819 2203 
Q 819 1266 1048 831 
Q 1278 397 1778 397 
Q 2275 397 2506 840 
Q 2738 1284 2738 2203 
z
" transform="scale(0.015625)"/>
        <path id="LiberationSans-2e" d="M 584 0 
L 584 684 
L 1194 684 
L 1194 0 
L 584 0 
z
" transform="scale(0.015625)"/>
       </defs>
       <use xlink:href="#LiberationSans-30"/>
       <use xlink:href="#LiberationSans-2e" x="55.615234"/>
       <use xlink:href="#LiberationSans-30" x="83.398438"/>
      </g>
     </g>
    </g>
    <g id="xtick_2">
     <g id="line2d_2">
      <g>
       <use xlink:href="#m3340b008e0" x="130.090909" y="256.32" style="stroke: #000000; stroke-width: 1.5"/>
      </g>
     </g>
     <g id="text_2">
      <!-- 0.2 -->
      <g transform="translate(120.360909 273.465625) scale(0.14 -0.14)">
       <defs>
        <path id="LiberationSans-32" d="M 322 0 
L 322 397 
Q 481 763 711 1042 
Q 941 1322 1194 1548 
Q 1447 1775 1695 1969 
Q 1944 2163 2144 2356 
Q 2344 2550 2467 2762 
Q 2591 2975 2591 3244 
Q 2591 3606 2378 3806 
Q 2166 4006 1788 4006 
Q 1428 4006 1195 3811 
Q 963 3616 922 3263 
L 347 3316 
Q 409 3844 795 4156 
Q 1181 4469 1788 4469 
Q 2453 4469 2811 4155 
Q 3169 3841 3169 3263 
Q 3169 3006 3051 2753 
Q 2934 2500 2703 2247 
Q 2472 1994 1819 1463 
Q 1459 1169 1246 933 
Q 1034 697 941 478 
L 3238 478 
L 3238 0 
L 322 0 
z
" transform="scale(0.015625)"/>
       </defs>
       <use xlink:href="#LiberationSans-30"/>
       <use xlink:href="#LiberationSans-2e" x="55.615234"/>
       <use xlink:href="#LiberationSans-32" x="83.398438"/>
      </g>
     </g>
    </g>
    <g id="xtick_3">
     <g id="line2d_3">
      <g>
       <use xlink:href="#m3340b008e0" x="190.963636" y="256.32" style="stroke: #000000; stroke-width: 1.5"/>
      </g>
     </g>
     <g id="text_3">
      <!-- 0.4 -->
      <g transform="translate(181.233636 273.465625) scale(0.14 -0.14)">
       <defs>
        <path id="LiberationSans-34" d="M 2753 997 
L 2753 0 
L 2222 0 
L 2222 997 
L 147 997 
L 147 1434 
L 2163 4403 
L 2753 4403 
L 2753 1441 
L 3372 1441 
L 3372 997 
L 2753 997 
z
M 2222 3769 
Q 2216 3750 2134 3603 
Q 2053 3456 2013 3397 
L 884 1734 
L 716 1503 
L 666 1441 
L 2222 1441 
L 2222 3769 
z
" transform="scale(0.015625)"/>
       </defs>
       <use xlink:href="#LiberationSans-30"/>
       <use xlink:href="#LiberationSans-2e" x="55.615234"/>
       <use xlink:href="#LiberationSans-34" x="83.398438"/>
      </g>
     </g>
    </g>
    <g id="xtick_4">
     <g id="line2d_4">
      <g>
       <use xlink:href="#m3340b008e0" x="251.836364" y="256.32" style="stroke: #000000; stroke-width: 1.5"/>
      </g>
     </g>
     <g id="text_4">
      <!-- 0.6 -->
      <g transform="translate(242.106364 273.465625) scale(0.14 -0.14)">
       <defs>
        <path id="LiberationSans-36" d="M 3278 1441 
Q 3278 744 2900 340 
Q 2522 -63 1856 -63 
Q 1113 -63 719 490 
Q 325 1044 325 2100 
Q 325 3244 734 3856 
Q 1144 4469 1900 4469 
Q 2897 4469 3156 3572 
L 2619 3475 
Q 2453 4013 1894 4013 
Q 1413 4013 1148 3564 
Q 884 3116 884 2266 
Q 1038 2550 1316 2698 
Q 1594 2847 1953 2847 
Q 2563 2847 2920 2465 
Q 3278 2084 3278 1441 
z
M 2706 1416 
Q 2706 1894 2472 2153 
Q 2238 2413 1819 2413 
Q 1425 2413 1183 2183 
Q 941 1953 941 1550 
Q 941 1041 1192 716 
Q 1444 391 1838 391 
Q 2244 391 2475 664 
Q 2706 938 2706 1416 
z
" transform="scale(0.015625)"/>
       </defs>
       <use xlink:href="#LiberationSans-30"/>
       <use xlink:href="#LiberationSans-2e" x="55.615234"/>
       <use xlink:href="#LiberationSans-36" x="83.398438"/>
      </g>
     </g>
    </g>
    <g id="xtick_5">
     <g id="line2d_5">
      <g>
       <use xlink:href="#m3340b008e0" x="312.709091" y="256.32" style="stroke: #000000; stroke-width: 1.5"/>
      </g>
     </g>
     <g id="text_5">
      <!-- 0.8 -->
      <g transform="translate(302.979091 273.465625) scale(0.14 -0.14)">
       <defs>
        <path id="LiberationSans-38" d="M 3281 1228 
Q 3281 619 2893 278 
Q 2506 -63 1781 -63 
Q 1075 -63 676 271 
Q 278 606 278 1222 
Q 278 1653 525 1947 
Q 772 2241 1156 2303 
L 1156 2316 
Q 797 2400 589 2681 
Q 381 2963 381 3341 
Q 381 3844 757 4156 
Q 1134 4469 1769 4469 
Q 2419 4469 2795 4162 
Q 3172 3856 3172 3334 
Q 3172 2956 2962 2675 
Q 2753 2394 2391 2322 
L 2391 2309 
Q 2813 2241 3047 1952 
Q 3281 1663 3281 1228 
z
M 2588 3303 
Q 2588 4050 1769 4050 
Q 1372 4050 1164 3862 
Q 956 3675 956 3303 
Q 956 2925 1170 2726 
Q 1384 2528 1775 2528 
Q 2172 2528 2380 2711 
Q 2588 2894 2588 3303 
z
M 2697 1281 
Q 2697 1691 2453 1898 
Q 2209 2106 1769 2106 
Q 1341 2106 1100 1882 
Q 859 1659 859 1269 
Q 859 359 1788 359 
Q 2247 359 2472 579 
Q 2697 800 2697 1281 
z
" transform="scale(0.015625)"/>
       </defs>
       <use xlink:href="#LiberationSans-30"/>
       <use xlink:href="#LiberationSans-2e" x="55.615234"/>
       <use xlink:href="#LiberationSans-38" x="83.398438"/>
      </g>
     </g>
    </g>
    <g id="xtick_6">
     <g id="line2d_6">
      <g>
       <use xlink:href="#m3340b008e0" x="373.581818" y="256.32" style="stroke: #000000; stroke-width: 1.5"/>
      </g>
     </g>
     <g id="text_6">
      <!-- 1.0 -->
      <g transform="translate(363.851818 273.465625) scale(0.14 -0.14)">
       <defs>
        <path id="LiberationSans-31" d="M 488 0 
L 488 478 
L 1609 478 
L 1609 3866 
L 616 3156 
L 616 3688 
L 1656 4403 
L 2175 4403 
L 2175 478 
L 3247 478 
L 3247 0 
L 488 0 
z
" transform="scale(0.015625)"/>
       </defs>
       <use xlink:href="#LiberationSans-31"/>
       <use xlink:href="#LiberationSans-2e" x="55.615234"/>
       <use xlink:href="#LiberationSans-30" x="83.398438"/>
      </g>
     </g>
    </g>
    <g id="text_7">
     <!-- Context Strength -->
     <g transform="translate(161.36875 291.965625) scale(0.16 -0.16)">
      <defs>
       <path id="LiberationSans-43" d="M 2475 3981 
Q 1744 3981 1337 3511 
Q 931 3041 931 2222 
Q 931 1413 1354 920 
Q 1778 428 2500 428 
Q 3425 428 3891 1344 
L 4378 1100 
Q 4106 531 3614 234 
Q 3122 -63 2472 -63 
Q 1806 -63 1320 214 
Q 834 491 579 1005 
Q 325 1519 325 2222 
Q 325 3275 894 3872 
Q 1463 4469 2469 4469 
Q 3172 4469 3644 4194 
Q 4116 3919 4338 3378 
L 3772 3191 
Q 3619 3575 3280 3778 
Q 2941 3981 2475 3981 
z
" transform="scale(0.015625)"/>
       <path id="LiberationSans-6f" d="M 3291 1694 
Q 3291 806 2900 371 
Q 2509 -63 1766 -63 
Q 1025 -63 647 389 
Q 269 841 269 1694 
Q 269 3444 1784 3444 
Q 2559 3444 2925 3017 
Q 3291 2591 3291 1694 
z
M 2700 1694 
Q 2700 2394 2492 2711 
Q 2284 3028 1794 3028 
Q 1300 3028 1079 2704 
Q 859 2381 859 1694 
Q 859 1025 1076 689 
Q 1294 353 1759 353 
Q 2266 353 2483 678 
Q 2700 1003 2700 1694 
z
" transform="scale(0.015625)"/>
       <path id="LiberationSans-6e" d="M 2578 0 
L 2578 2144 
Q 2578 2478 2512 2662 
Q 2447 2847 2303 2928 
Q 2159 3009 1881 3009 
Q 1475 3009 1240 2731 
Q 1006 2453 1006 1959 
L 1006 0 
L 444 0 
L 444 2659 
Q 444 3250 425 3381 
L 956 3381 
Q 959 3366 962 3297 
Q 966 3228 970 3139 
Q 975 3050 981 2803 
L 991 2803 
Q 1184 3153 1439 3298 
Q 1694 3444 2072 3444 
Q 2628 3444 2886 3167 
Q 3144 2891 3144 2253 
L 3144 0 
L 2578 0 
z
" transform="scale(0.015625)"/>
       <path id="LiberationSans-74" d="M 1731 25 
Q 1453 -50 1163 -50 
Q 488 -50 488 716 
L 488 2972 
L 97 2972 
L 97 3381 
L 509 3381 
L 675 4138 
L 1050 4138 
L 1050 3381 
L 1675 3381 
L 1675 2972 
L 1050 2972 
L 1050 838 
Q 1050 594 1129 495 
Q 1209 397 1406 397 
Q 1519 397 1731 441 
L 1731 25 
z
" transform="scale(0.015625)"/>
       <path id="LiberationSans-65" d="M 863 1572 
Q 863 991 1103 675 
Q 1344 359 1806 359 
Q 2172 359 2392 506 
Q 2613 653 2691 878 
L 3184 738 
Q 2881 -63 1806 -63 
Q 1056 -63 664 384 
Q 272 831 272 1713 
Q 272 2550 664 2997 
Q 1056 3444 1784 3444 
Q 3275 3444 3275 1647 
L 3275 1572 
L 863 1572 
z
M 2694 2003 
Q 2647 2538 2422 2783 
Q 2197 3028 1775 3028 
Q 1366 3028 1127 2754 
Q 888 2481 869 2003 
L 2694 2003 
z
" transform="scale(0.015625)"/>
       <path id="LiberationSans-78" d="M 2503 0 
L 1594 1388 
L 678 0 
L 72 0 
L 1275 1738 
L 128 3381 
L 750 3381 
L 1594 2066 
L 2431 3381 
L 3059 3381 
L 1913 1744 
L 3131 0 
L 2503 0 
z
" transform="scale(0.015625)"/>
       <path id="LiberationSans-20" transform="scale(0.015625)"/>
       <path id="LiberationSans-53" d="M 3975 1216 
Q 3975 606 3498 271 
Q 3022 -63 2156 -63 
Q 547 -63 291 1056 
L 869 1172 
Q 969 775 1294 589 
Q 1619 403 2178 403 
Q 2756 403 3070 601 
Q 3384 800 3384 1184 
Q 3384 1400 3286 1534 
Q 3188 1669 3009 1756 
Q 2831 1844 2584 1903 
Q 2338 1963 2038 2031 
Q 1516 2147 1245 2262 
Q 975 2378 819 2520 
Q 663 2663 580 2853 
Q 497 3044 497 3291 
Q 497 3856 930 4162 
Q 1363 4469 2169 4469 
Q 2919 4469 3316 4239 
Q 3713 4009 3872 3456 
L 3284 3353 
Q 3188 3703 2916 3861 
Q 2644 4019 2163 4019 
Q 1634 4019 1356 3844 
Q 1078 3669 1078 3322 
Q 1078 3119 1186 2986 
Q 1294 2853 1497 2761 
Q 1700 2669 2306 2534 
Q 2509 2488 2711 2439 
Q 2913 2391 3097 2323 
Q 3281 2256 3442 2165 
Q 3603 2075 3722 1944 
Q 3841 1813 3908 1634 
Q 3975 1456 3975 1216 
z
" transform="scale(0.015625)"/>
       <path id="LiberationSans-72" d="M 444 0 
L 444 2594 
Q 444 2950 425 3381 
L 956 3381 
Q 981 2806 981 2691 
L 994 2691 
Q 1128 3125 1303 3284 
Q 1478 3444 1797 3444 
Q 1909 3444 2025 3413 
L 2025 2897 
Q 1913 2928 1725 2928 
Q 1375 2928 1190 2626 
Q 1006 2325 1006 1763 
L 1006 0 
L 444 0 
z
" transform="scale(0.015625)"/>
       <path id="LiberationSans-67" d="M 1713 -1328 
Q 1159 -1328 831 -1111 
Q 503 -894 409 -494 
L 975 -413 
Q 1031 -647 1223 -773 
Q 1416 -900 1728 -900 
Q 2569 -900 2569 84 
L 2569 628 
L 2563 628 
Q 2403 303 2125 139 
Q 1847 -25 1475 -25 
Q 853 -25 561 387 
Q 269 800 269 1684 
Q 269 2581 583 3007 
Q 897 3434 1538 3434 
Q 1897 3434 2161 3270 
Q 2425 3106 2569 2803 
L 2575 2803 
Q 2575 2897 2587 3128 
Q 2600 3359 2613 3381 
L 3147 3381 
Q 3128 3213 3128 2681 
L 3128 97 
Q 3128 -1328 1713 -1328 
z
M 2569 1691 
Q 2569 2103 2456 2401 
Q 2344 2700 2139 2858 
Q 1934 3016 1675 3016 
Q 1244 3016 1047 2703 
Q 850 2391 850 1691 
Q 850 997 1034 694 
Q 1219 391 1666 391 
Q 1931 391 2137 547 
Q 2344 703 2456 995 
Q 2569 1288 2569 1691 
z
" transform="scale(0.015625)"/>
       <path id="LiberationSans-68" d="M 991 2803 
Q 1172 3134 1426 3289 
Q 1681 3444 2072 3444 
Q 2622 3444 2883 3170 
Q 3144 2897 3144 2253 
L 3144 0 
L 2578 0 
L 2578 2144 
Q 2578 2500 2512 2673 
Q 2447 2847 2297 2928 
Q 2147 3009 1881 3009 
Q 1484 3009 1245 2734 
Q 1006 2459 1006 1994 
L 1006 0 
L 444 0 
L 444 4638 
L 1006 4638 
L 1006 3431 
Q 1006 3241 995 3037 
Q 984 2834 981 2803 
L 991 2803 
z
" transform="scale(0.015625)"/>
      </defs>
      <use xlink:href="#LiberationSans-43"/>
      <use xlink:href="#LiberationSans-6f" x="72.216797"/>
      <use xlink:href="#LiberationSans-6e" x="127.832031"/>
      <use xlink:href="#LiberationSans-74" x="183.447266"/>
      <use xlink:href="#LiberationSans-65" x="211.230469"/>
      <use xlink:href="#LiberationSans-78" x="266.845703"/>
      <use xlink:href="#LiberationSans-74" x="316.845703"/>
      <use xlink:href="#LiberationSans-20" x="344.628906"/>
      <use xlink:href="#LiberationSans-53" x="372.412109"/>
      <use xlink:href="#LiberationSans-74" x="439.111328"/>
      <use xlink:href="#LiberationSans-72" x="466.894531"/>
      <use xlink:href="#LiberationSans-65" x="500.195312"/>
      <use xlink:href="#LiberationSans-6e" x="555.810547"/>
      <use xlink:href="#LiberationSans-67" x="611.425781"/>
      <use xlink:href="#LiberationSans-74" x="667.041016"/>
      <use xlink:href="#LiberationSans-68" x="694.824219"/>
     </g>
    </g>
   </g>
   <g id="matplotlib.axis_2">
    <g id="ytick_1">
     <g id="line2d_7">
      <defs>
       <path id="mafe78a4393" d="M 0 0 
L -3.5 0 
" style="stroke: #000000; stroke-width: 1.5"/>
      </defs>
      <g>
       <use xlink:href="#mafe78a4393" x="54" y="239.261538" style="stroke: #000000; stroke-width: 1.5"/>
      </g>
     </g>
     <g id="text_8">
      <!-- 0.4 -->
      <g transform="translate(27.54 244.334351) scale(0.14 -0.14)">
       <use xlink:href="#LiberationSans-30"/>
       <use xlink:href="#LiberationSans-2e" x="55.615234"/>
       <use xlink:href="#LiberationSans-34" x="83.398438"/>
      </g>
     </g>
    </g>
    <g id="ytick_2">
     <g id="line2d_8">
      <g>
       <use xlink:href="#mafe78a4393" x="54" y="205.144615" style="stroke: #000000; stroke-width: 1.5"/>
      </g>
     </g>
     <g id="text_9">
      <!-- 0.5 -->
      <g transform="translate(27.54 210.217428) scale(0.14 -0.14)">
       <defs>
        <path id="LiberationSans-35" d="M 3291 1434 
Q 3291 738 2877 337 
Q 2463 -63 1728 -63 
Q 1113 -63 734 206 
Q 356 475 256 984 
L 825 1050 
Q 1003 397 1741 397 
Q 2194 397 2450 670 
Q 2706 944 2706 1422 
Q 2706 1838 2448 2094 
Q 2191 2350 1753 2350 
Q 1525 2350 1328 2278 
Q 1131 2206 934 2034 
L 384 2034 
L 531 4403 
L 3034 4403 
L 3034 3925 
L 1044 3925 
L 959 2528 
Q 1325 2809 1869 2809 
Q 2519 2809 2905 2428 
Q 3291 2047 3291 1434 
z
" transform="scale(0.015625)"/>
       </defs>
       <use xlink:href="#LiberationSans-30"/>
       <use xlink:href="#LiberationSans-2e" x="55.615234"/>
       <use xlink:href="#LiberationSans-35" x="83.398438"/>
      </g>
     </g>
    </g>
    <g id="ytick_3">
     <g id="line2d_9">
      <g>
       <use xlink:href="#mafe78a4393" x="54" y="171.027692" style="stroke: #000000; stroke-width: 1.5"/>
      </g>
     </g>
     <g id="text_10">
      <!-- 0.6 -->
      <g transform="translate(27.54 176.100505) scale(0.14 -0.14)">
       <use xlink:href="#LiberationSans-30"/>
       <use xlink:href="#LiberationSans-2e" x="55.615234"/>
       <use xlink:href="#LiberationSans-36" x="83.398438"/>
      </g>
     </g>
    </g>
    <g id="ytick_4">
     <g id="line2d_10">
      <g>
       <use xlink:href="#mafe78a4393" x="54" y="136.910769" style="stroke: #000000; stroke-width: 1.5"/>
      </g>
     </g>
     <g id="text_11">
      <!-- 0.7 -->
      <g transform="translate(27.54 141.983582) scale(0.14 -0.14)">
       <defs>
        <path id="LiberationSans-37" d="M 3238 3947 
Q 2563 2916 2284 2331 
Q 2006 1747 1867 1178 
Q 1728 609 1728 0 
L 1141 0 
Q 1141 844 1498 1776 
Q 1856 2709 2694 3925 
L 328 3925 
L 328 4403 
L 3238 4403 
L 3238 3947 
z
" transform="scale(0.015625)"/>
       </defs>
       <use xlink:href="#LiberationSans-30"/>
       <use xlink:href="#LiberationSans-2e" x="55.615234"/>
       <use xlink:href="#LiberationSans-37" x="83.398438"/>
      </g>
     </g>
    </g>
    <g id="ytick_5">
     <g id="line2d_11">
      <g>
       <use xlink:href="#mafe78a4393" x="54" y="102.793846" style="stroke: #000000; stroke-width: 1.5"/>
      </g>
     </g>
     <g id="text_12">
      <!-- 0.8 -->
      <g transform="translate(27.54 107.866659) scale(0.14 -0.14)">
       <use xlink:href="#LiberationSans-30"/>
       <use xlink:href="#LiberationSans-2e" x="55.615234"/>
       <use xlink:href="#LiberationSans-38" x="83.398438"/>
      </g>
     </g>
    </g>
    <g id="ytick_6">
     <g id="line2d_12">
      <g>
       <use xlink:href="#mafe78a4393" x="54" y="68.676923" style="stroke: #000000; stroke-width: 1.5"/>
      </g>
     </g>
     <g id="text_13">
      <!-- 0.9 -->
      <g transform="translate(27.54 73.749736) scale(0.14 -0.14)">
       <defs>
        <path id="LiberationSans-39" d="M 3256 2291 
Q 3256 1156 2842 546 
Q 2428 -63 1663 -63 
Q 1147 -63 836 154 
Q 525 372 391 856 
L 928 941 
Q 1097 391 1672 391 
Q 2156 391 2422 841 
Q 2688 1291 2700 2125 
Q 2575 1844 2272 1673 
Q 1969 1503 1606 1503 
Q 1013 1503 656 1909 
Q 300 2316 300 2988 
Q 300 3678 687 4073 
Q 1075 4469 1766 4469 
Q 2500 4469 2878 3925 
Q 3256 3381 3256 2291 
z
M 2644 2834 
Q 2644 3366 2400 3689 
Q 2156 4013 1747 4013 
Q 1341 4013 1106 3736 
Q 872 3459 872 2988 
Q 872 2506 1106 2226 
Q 1341 1947 1741 1947 
Q 1984 1947 2193 2058 
Q 2403 2169 2523 2372 
Q 2644 2575 2644 2834 
z
" transform="scale(0.015625)"/>
       </defs>
       <use xlink:href="#LiberationSans-30"/>
       <use xlink:href="#LiberationSans-2e" x="55.615234"/>
       <use xlink:href="#LiberationSans-39" x="83.398438"/>
      </g>
     </g>
    </g>
    <g id="ytick_7">
     <g id="line2d_13">
      <g>
       <use xlink:href="#mafe78a4393" x="54" y="34.56" style="stroke: #000000; stroke-width: 1.5"/>
      </g>
     </g>
     <g id="text_14">
      <!-- 1.0 -->
      <g transform="translate(27.54 39.632812) scale(0.14 -0.14)">
       <use xlink:href="#LiberationSans-31"/>
       <use xlink:href="#LiberationSans-2e" x="55.615234"/>
       <use xlink:href="#LiberationSans-30" x="83.398438"/>
      </g>
     </g>
    </g>
    <g id="text_15">
     <!-- Accuracy -->
     <g transform="translate(20.22 178.3375) rotate(-90) scale(0.16 -0.16)">
      <defs>
       <path id="LiberationSans-41" d="M 3647 0 
L 3144 1288 
L 1138 1288 
L 631 0 
L 13 0 
L 1809 4403 
L 2488 4403 
L 4256 0 
L 3647 0 
z
M 2141 3953 
L 2113 3866 
Q 2034 3606 1881 3200 
L 1319 1753 
L 2966 1753 
L 2400 3206 
Q 2313 3422 2225 3694 
L 2141 3953 
z
" transform="scale(0.015625)"/>
       <path id="LiberationSans-63" d="M 859 1706 
Q 859 1031 1071 706 
Q 1284 381 1713 381 
Q 2013 381 2214 543 
Q 2416 706 2463 1044 
L 3031 1006 
Q 2966 519 2616 228 
Q 2266 -63 1728 -63 
Q 1019 -63 645 385 
Q 272 834 272 1694 
Q 272 2547 647 2995 
Q 1022 3444 1722 3444 
Q 2241 3444 2583 3175 
Q 2925 2906 3013 2434 
L 2434 2391 
Q 2391 2672 2212 2837 
Q 2034 3003 1706 3003 
Q 1259 3003 1059 2706 
Q 859 2409 859 1706 
z
" transform="scale(0.015625)"/>
       <path id="LiberationSans-75" d="M 981 3381 
L 981 1238 
Q 981 903 1047 718 
Q 1113 534 1256 453 
Q 1400 372 1678 372 
Q 2084 372 2318 650 
Q 2553 928 2553 1422 
L 2553 3381 
L 3116 3381 
L 3116 722 
Q 3116 131 3134 0 
L 2603 0 
Q 2600 16 2597 84 
Q 2594 153 2589 242 
Q 2584 331 2578 578 
L 2569 578 
Q 2375 228 2120 82 
Q 1866 -63 1488 -63 
Q 931 -63 673 214 
Q 416 491 416 1128 
L 416 3381 
L 981 3381 
z
" transform="scale(0.015625)"/>
       <path id="LiberationSans-61" d="M 1294 -63 
Q 784 -63 528 206 
Q 272 475 272 944 
Q 272 1469 617 1750 
Q 963 2031 1731 2050 
L 2491 2063 
L 2491 2247 
Q 2491 2659 2316 2837 
Q 2141 3016 1766 3016 
Q 1388 3016 1216 2887 
Q 1044 2759 1009 2478 
L 422 2531 
Q 566 3444 1778 3444 
Q 2416 3444 2737 3151 
Q 3059 2859 3059 2306 
L 3059 850 
Q 3059 600 3125 473 
Q 3191 347 3375 347 
Q 3456 347 3559 369 
L 3559 19 
Q 3347 -31 3125 -31 
Q 2813 -31 2670 133 
Q 2528 297 2509 647 
L 2491 647 
Q 2275 259 1989 98 
Q 1703 -63 1294 -63 
z
M 1422 359 
Q 1731 359 1972 500 
Q 2213 641 2352 886 
Q 2491 1131 2491 1391 
L 2491 1669 
L 1875 1656 
Q 1478 1650 1273 1575 
Q 1069 1500 959 1344 
Q 850 1188 850 934 
Q 850 659 998 509 
Q 1147 359 1422 359 
z
" transform="scale(0.015625)"/>
       <path id="LiberationSans-79" d="M 597 -1328 
Q 366 -1328 209 -1294 
L 209 -872 
Q 328 -891 472 -891 
Q 997 -891 1303 -119 
L 1356 16 
L 16 3381 
L 616 3381 
L 1328 1513 
Q 1344 1469 1366 1408 
Q 1388 1347 1506 1000 
Q 1625 653 1634 613 
L 1853 1228 
L 2594 3381 
L 3188 3381 
L 1888 0 
Q 1678 -541 1497 -805 
Q 1316 -1069 1095 -1198 
Q 875 -1328 597 -1328 
z
" transform="scale(0.015625)"/>
      </defs>
      <use xlink:href="#LiberationSans-41"/>
      <use xlink:href="#LiberationSans-63" x="66.699219"/>
      <use xlink:href="#LiberationSans-63" x="116.699219"/>
      <use xlink:href="#LiberationSans-75" x="166.699219"/>
      <use xlink:href="#LiberationSans-72" x="222.314453"/>
      <use xlink:href="#LiberationSans-61" x="255.615234"/>
      <use xlink:href="#LiberationSans-63" x="311.230469"/>
      <use xlink:href="#LiberationSans-79" x="361.230469"/>
     </g>
    </g>
   </g>
   <g id="line2d_14">
    <path d="M 69.218182 106.00026 
L 72.261818 103.450963 
L 75.305455 100.933457 
L 78.349091 98.468964 
L 81.392727 95.989523 
L 84.436364 93.510373 
L 87.48 91.011815 
L 90.523636 88.564426 
L 93.567273 86.164952 
L 96.610909 83.784549 
L 99.654545 81.474615 
L 102.698182 79.23431 
L 105.741818 77.042476 
L 108.785455 74.900349 
L 111.829091 72.841695 
L 114.872727 70.869028 
L 117.916364 68.938645 
L 120.96 67.095686 
L 124.003636 65.293546 
L 127.047273 63.562422 
L 130.090909 61.926606 
L 133.134545 60.350465 
L 136.178182 58.864884 
L 139.221818 57.476512 
L 142.265455 56.159623 
L 145.309091 54.910617 
L 148.352727 53.718842 
L 151.396364 52.600988 
L 154.44 51.530928 
L 157.483636 50.52778 
L 160.527273 49.599634 
L 163.570909 48.74244 
L 166.614545 47.945415 
L 169.658182 47.199819 
L 172.701818 46.508338 
L 175.745455 45.868329 
L 178.789091 45.285171 
L 181.832727 44.756155 
L 184.876364 44.275811 
L 187.92 43.830897 
L 190.963636 43.411141 
L 194.007273 43.025292 
L 197.050909 42.685805 
L 200.094545 42.375268 
L 203.138182 42.099734 
L 206.181818 41.84982 
L 209.225455 41.614931 
L 212.269091 41.39746 
L 215.312727 41.200763 
L 218.356364 41.022923 
L 221.4 40.860922 
L 224.443636 40.710651 
L 227.487273 40.575339 
L 230.530909 40.450527 
L 233.574545 40.33624 
L 236.618182 40.233713 
L 239.661818 40.13817 
L 242.705455 40.047329 
L 245.749091 39.967865 
L 248.792727 39.899372 
L 251.836364 39.835267 
L 254.88 39.773309 
L 257.923636 39.714871 
L 260.967273 39.657473 
L 264.010909 39.602477 
L 267.054545 39.551113 
L 270.098182 39.506365 
L 273.141818 39.468078 
L 276.185455 39.435518 
L 279.229091 39.405851 
L 282.272727 39.377657 
L 285.316364 39.351403 
L 288.36 39.32637 
L 291.403636 39.302512 
L 294.447273 39.280585 
L 297.490909 39.261133 
L 300.534545 39.243987 
L 303.578182 39.228437 
L 306.621818 39.212686 
L 309.665455 39.196655 
L 312.709091 39.181931 
L 315.752727 39.168702 
L 318.796364 39.155825 
L 321.84 39.143542 
L 324.883636 39.133136 
L 327.927273 39.124529 
L 330.970909 39.116696 
L 334.014545 39.109426 
L 337.058182 39.102746 
L 340.101818 39.09622 
L 343.145455 39.089829 
L 346.189091 39.084308 
L 349.232727 39.079488 
L 352.276364 39.07482 
L 355.32 39.070396 
L 358.363636 39.066572 
L 361.407273 39.062832 
L 364.450909 39.059522 
L 367.494545 39.056441 
L 370.538182 39.053466 
L 373.581818 39.051082 
" clip-path="url(#p3f6b5781ba)" style="fill: none; stroke: #c0d9ff; stroke-width: 1.5; stroke-linecap: square"/>
   </g>
   <g id="line2d_15">
    <path d="M 69.218182 109.072641 
L 72.261818 106.605263 
L 75.305455 104.164507 
L 78.349091 101.764632 
L 81.392727 99.3294 
L 84.436364 96.877919 
L 87.48 94.429166 
L 90.523636 92.041948 
L 93.567273 89.71288 
L 96.610909 87.448721 
L 99.654545 85.253983 
L 102.698182 83.125596 
L 105.741818 81.018787 
L 108.785455 79.000656 
L 111.829091 77.091911 
L 114.872727 75.273783 
L 117.916364 73.513694 
L 120.96 71.832984 
L 124.003636 70.232516 
L 127.047273 68.656737 
L 130.090909 67.176354 
L 133.134545 65.745764 
L 136.178182 64.374482 
L 139.221818 63.046572 
L 142.265455 61.764871 
L 145.309091 60.532199 
L 148.352727 59.340422 
L 151.396364 58.175294 
L 154.44 57.027164 
L 157.483636 55.919977 
L 160.527273 54.84402 
L 163.570909 53.822738 
L 166.614545 52.857698 
L 169.658182 51.923644 
L 172.701818 51.007086 
L 175.745455 50.132927 
L 178.789091 49.297434 
L 181.832727 48.528775 
L 184.876364 47.818405 
L 187.92 47.154857 
L 190.963636 46.534758 
L 194.007273 45.955348 
L 197.050909 45.408313 
L 200.094545 44.895983 
L 203.138182 44.421093 
L 206.181818 43.999956 
L 209.225455 43.620562 
L 212.269091 43.265579 
L 215.312727 42.943055 
L 218.356364 42.640828 
L 221.4 42.362301 
L 224.443636 42.104497 
L 227.487273 41.86957 
L 230.530909 41.670489 
L 233.574545 41.491643 
L 236.618182 41.335952 
L 239.661818 41.197 
L 242.705455 41.0623 
L 245.749091 40.945466 
L 248.792727 40.838842 
L 251.836364 40.740253 
L 254.88 40.647433 
L 257.923636 40.562804 
L 260.967273 40.482351 
L 264.010909 40.409614 
L 267.054545 40.347605 
L 270.098182 40.284289 
L 273.141818 40.223671 
L 276.185455 40.172479 
L 279.229091 40.133189 
L 282.272727 40.098782 
L 285.316364 40.0669 
L 288.36 40.034571 
L 291.403636 40.001796 
L 294.447273 39.976954 
L 297.490909 39.957902 
L 300.534545 39.939262 
L 303.578182 39.922616 
L 306.621818 39.907465 
L 309.665455 39.893482 
L 312.709091 39.880089 
L 315.752727 39.868109 
L 318.796364 39.857143 
L 321.84 39.846702 
L 324.883636 39.836999 
L 327.927273 39.82739 
L 330.970909 39.819164 
L 334.014545 39.811804 
L 337.058182 39.804454 
L 340.101818 39.796073 
L 343.145455 39.789414 
L 346.189091 39.783544 
L 349.232727 39.776946 
L 352.276364 39.770256 
L 355.32 39.763052 
L 358.363636 39.755289 
L 361.407273 39.747879 
L 364.450909 39.740348 
L 367.494545 39.7343 
L 370.538182 39.728768 
L 373.581818 39.723064 
" clip-path="url(#p3f6b5781ba)" style="fill: none; stroke: #ffbfc4; stroke-width: 1.5; stroke-linecap: square"/>
   </g>
   <g id="patch_3">
    <path d="M 54 256.32 
L 54 34.56 
" style="fill: none; stroke: #000000; stroke-width: 1.5; stroke-linejoin: miter; stroke-linecap: square"/>
   </g>
   <g id="patch_4">
    <path d="M 54 256.32 
L 388.8 256.32 
" style="fill: none; stroke: #000000; stroke-width: 1.5; stroke-linejoin: miter; stroke-linecap: square"/>
   </g>
  </g>
 </g>
 <defs>
  <clipPath id="p3f6b5781ba">
   <rect x="54" y="34.56" width="334.8" height="221.76"/>
  </clipPath>
 </defs>
</svg>
