<?xml version="1.0" encoding="utf-8" standalone="no"?>
<!DOCTYPE svg PUBLIC "-//W3C//DTD SVG 1.1//EN"
  "http://www.w3.org/Graphics/SVG/1.1/DTD/svg11.dtd">
<svg height="279.770469pt" version="1.1" viewBox="0 0 402.265312 279.770469" width="402.265312pt" xmlns="http://www.w3.org/2000/svg" xmlns:xlink="http://www.w3.org/1999/xlink">
 <metadata>
  <rdf:RDF xmlns:cc="http://creativecommons.org/ns#" xmlns:dc="http://purl.org/dc/elements/1.1/" xmlns:rdf="http://www.w3.org/1999/02/22-rdf-syntax-ns#">
   <cc:Work>
    <dc:type rdf:resource="http://purl.org/dc/dcmitype/StillImage"/>
    <dc:date>2024-01-13T17:06:21.362610</dc:date>
    <dc:format>image/svg+xml</dc:format>
    <dc:creator>
     <cc:Agent>
      <dc:title>Matplotlib v3.4.3, https://matplotlib.org/</dc:title>
     </cc:Agent>
    </dc:creator>
   </cc:Work>
  </rdf:RDF>
 </metadata>
 <defs>
  <style type="text/css">*{stroke-linecap:butt;stroke-linejoin:round;}</style>
 </defs>
 <g id="figure_1">
  <g id="patch_1">
   <path d="M 0 279.770469 
L 402.265312 279.770469 
L 402.265312 0 
L 0 0 
z
" style="fill:none;"/>
  </g>
  <g id="axes_1">
   <g id="patch_2">
    <path d="M 60.265313 233.970469 
L 395.065313 233.970469 
L 395.065313 12.210469 
L 60.265313 12.210469 
z
" style="fill:none;"/>
   </g>
   <g id="PathCollection_1">
    <defs>
     <path d="M 0 2.5 
C 0.663008 2.5 1.29895 2.236584 1.767767 1.767767 
C 2.236584 1.29895 2.5 0.663008 2.5 -0 
C 2.5 -0.663008 2.236584 -1.29895 1.767767 -1.767767 
C 1.29895 -2.236584 0.663008 -2.5 0 -2.5 
C -0.663008 -2.5 -1.29895 -2.236584 -1.767767 -1.767767 
C -2.236584 -1.29895 -2.5 -0.663008 -2.5 0 
C -2.5 0.663008 -2.236584 1.29895 -1.767767 1.767767 
C -1.29895 2.236584 -0.663008 2.5 0 2.5 
z
" id="C0_0_6a4bb453f7"/>
    </defs>
    <g clip-path="url(#pe9500f9a2c)">
     <use style="fill:#fbc5f4;" x="110.674907" xlink:href="#C0_0_6a4bb453f7" y="60.620089"/>
    </g>
    <g clip-path="url(#pe9500f9a2c)">
     <use style="fill:#fbc5f4;" x="106.876498" xlink:href="#C0_0_6a4bb453f7" y="61.193483"/>
    </g>
    <g clip-path="url(#pe9500f9a2c)">
     <use style="fill:#fbc5f4;" x="110.661472" xlink:href="#C0_0_6a4bb453f7" y="76.703007"/>
    </g>
    <g clip-path="url(#pe9500f9a2c)">
     <use style="fill:#fbc5f4;" x="107.390168" xlink:href="#C0_0_6a4bb453f7" y="58.454593"/>
    </g>
    <g clip-path="url(#pe9500f9a2c)">
     <use style="fill:#fbc5f4;" x="104.811952" xlink:href="#C0_0_6a4bb453f7" y="83.719578"/>
    </g>
    <g clip-path="url(#pe9500f9a2c)">
     <use style="fill:#fbc5f4;" x="106.686221" xlink:href="#C0_0_6a4bb453f7" y="63.293615"/>
    </g>
    <g clip-path="url(#pe9500f9a2c)">
     <use style="fill:#fbc5f4;" x="107.033148" xlink:href="#C0_0_6a4bb453f7" y="71.474954"/>
    </g>
    <g clip-path="url(#pe9500f9a2c)">
     <use style="fill:#fbc5f4;" x="107.786025" xlink:href="#C0_0_6a4bb453f7" y="56.206646"/>
    </g>
    <g clip-path="url(#pe9500f9a2c)">
     <use style="fill:#fbc5f4;" x="105.767241" xlink:href="#C0_0_6a4bb453f7" y="64.427903"/>
    </g>
    <g clip-path="url(#pe9500f9a2c)">
     <use style="fill:#fbc5f4;" x="110.088133" xlink:href="#C0_0_6a4bb453f7" y="65.096342"/>
    </g>
   </g>
   <g id="PathCollection_2">
    <defs>
     <path d="M 0 2.5 
C 0.663008 2.5 1.29895 2.236584 1.767767 1.767767 
C 2.236584 1.29895 2.5 0.663008 2.5 -0 
C 2.5 -0.663008 2.236584 -1.29895 1.767767 -1.767767 
C 1.29895 -2.236584 0.663008 -2.5 0 -2.5 
C -0.663008 -2.5 -1.29895 -2.236584 -1.767767 -1.767767 
C -2.236584 -1.29895 -2.5 -0.663008 -2.5 0 
C -2.5 0.663008 -2.236584 1.29895 -1.767767 1.767767 
C -1.29895 2.236584 -0.663008 2.5 0 2.5 
z
" id="C1_0_a401756d0e"/>
    </defs>
    <g clip-path="url(#pe9500f9a2c)">
     <use style="fill:#ffb7bc;" x="130.474143" xlink:href="#C1_0_a401756d0e" y="67.979469"/>
    </g>
    <g clip-path="url(#pe9500f9a2c)">
     <use style="fill:#ffb7bc;" x="135.01065" xlink:href="#C1_0_a401756d0e" y="66.772333"/>
    </g>
    <g clip-path="url(#pe9500f9a2c)">
     <use style="fill:#ffb7bc;" x="131.835942" xlink:href="#C1_0_a401756d0e" y="67.61354"/>
    </g>
    <g clip-path="url(#pe9500f9a2c)">
     <use style="fill:#ffb7bc;" x="133.910327" xlink:href="#C1_0_a401756d0e" y="62.7246"/>
    </g>
    <g clip-path="url(#pe9500f9a2c)">
     <use style="fill:#ffb7bc;" x="134.276282" xlink:href="#C1_0_a401756d0e" y="68.555601"/>
    </g>
    <g clip-path="url(#pe9500f9a2c)">
     <use style="fill:#ffb7bc;" x="133.393343" xlink:href="#C1_0_a401756d0e" y="58.847048"/>
    </g>
    <g clip-path="url(#pe9500f9a2c)">
     <use style="fill:#ffb7bc;" x="131.305637" xlink:href="#C1_0_a401756d0e" y="61.262473"/>
    </g>
    <g clip-path="url(#pe9500f9a2c)">
     <use style="fill:#ffb7bc;" x="133.396426" xlink:href="#C1_0_a401756d0e" y="61.116324"/>
    </g>
    <g clip-path="url(#pe9500f9a2c)">
     <use style="fill:#ffb7bc;" x="135.051221" xlink:href="#C1_0_a401756d0e" y="63.212629"/>
    </g>
    <g clip-path="url(#pe9500f9a2c)">
     <use style="fill:#ffb7bc;" x="135.639115" xlink:href="#C1_0_a401756d0e" y="61.968577"/>
    </g>
   </g>
   <g id="PathCollection_3">
    <defs>
     <path d="M 0 2.5 
C 0.663008 2.5 1.29895 2.236584 1.767767 1.767767 
C 2.236584 1.29895 2.5 0.663008 2.5 -0 
C 2.5 -0.663008 2.236584 -1.29895 1.767767 -1.767767 
C 1.29895 -2.236584 0.663008 -2.5 0 -2.5 
C -0.663008 -2.5 -1.29895 -2.236584 -1.767767 -1.767767 
C -2.236584 -1.29895 -2.5 -0.663008 -2.5 0 
C -2.5 0.663008 -2.236584 1.29895 -1.767767 1.767767 
C -1.29895 2.236584 -0.663008 2.5 0 2.5 
z
" id="C2_0_d031c5720b"/>
    </defs>
    <g clip-path="url(#pe9500f9a2c)">
     <use style="fill:#bdc0ff;" x="155.869089" xlink:href="#C2_0_d031c5720b" y="53.710609"/>
    </g>
    <g clip-path="url(#pe9500f9a2c)">
     <use style="fill:#bdc0ff;" x="161.303171" xlink:href="#C2_0_d031c5720b" y="67.376015"/>
    </g>
    <g clip-path="url(#pe9500f9a2c)">
     <use style="fill:#bdc0ff;" x="155.903975" xlink:href="#C2_0_d031c5720b" y="56.133046"/>
    </g>
    <g clip-path="url(#pe9500f9a2c)">
     <use style="fill:#bdc0ff;" x="160.116736" xlink:href="#C2_0_d031c5720b" y="61.496501"/>
    </g>
    <g clip-path="url(#pe9500f9a2c)">
     <use style="fill:#bdc0ff;" x="157.956918" xlink:href="#C2_0_d031c5720b" y="59.665102"/>
    </g>
    <g clip-path="url(#pe9500f9a2c)">
     <use style="fill:#bdc0ff;" x="155.466344" xlink:href="#C2_0_d031c5720b" y="60.776352"/>
    </g>
    <g clip-path="url(#pe9500f9a2c)">
     <use style="fill:#bdc0ff;" x="157.393763" xlink:href="#C2_0_d031c5720b" y="70.81604"/>
    </g>
    <g clip-path="url(#pe9500f9a2c)">
     <use style="fill:#bdc0ff;" x="155.294596" xlink:href="#C2_0_d031c5720b" y="54.230917"/>
    </g>
    <g clip-path="url(#pe9500f9a2c)">
     <use style="fill:#bdc0ff;" x="155.369265" xlink:href="#C2_0_d031c5720b" y="62.689577"/>
    </g>
    <g clip-path="url(#pe9500f9a2c)">
     <use style="fill:#bdc0ff;" x="156.109777" xlink:href="#C2_0_d031c5720b" y="63.630265"/>
    </g>
   </g>
   <g id="PathCollection_4">
    <defs>
     <path d="M 0 2.5 
C 0.663008 2.5 1.29895 2.236584 1.767767 1.767767 
C 2.236584 1.29895 2.5 0.663008 2.5 -0 
C 2.5 -0.663008 2.236584 -1.29895 1.767767 -1.767767 
C 1.29895 -2.236584 0.663008 -2.5 0 -2.5 
C -0.663008 -2.5 -1.29895 -2.236584 -1.767767 -1.767767 
C -2.236584 -1.29895 -2.5 -0.663008 -2.5 0 
C -2.5 0.663008 -2.236584 1.29895 -1.767767 1.767767 
C -1.29895 2.236584 -0.663008 2.5 0 2.5 
z
" id="C3_0_5cedc8235a"/>
    </defs>
    <g clip-path="url(#pe9500f9a2c)">
     <use style="fill:#fbc5f4;" x="203.064354" xlink:href="#C3_0_5cedc8235a" y="64.923961"/>
    </g>
    <g clip-path="url(#pe9500f9a2c)">
     <use style="fill:#fbc5f4;" x="201.869271" xlink:href="#C3_0_5cedc8235a" y="67.741749"/>
    </g>
    <g clip-path="url(#pe9500f9a2c)">
     <use style="fill:#fbc5f4;" x="202.970832" xlink:href="#C3_0_5cedc8235a" y="73.779365"/>
    </g>
    <g clip-path="url(#pe9500f9a2c)">
     <use style="fill:#fbc5f4;" x="202.661983" xlink:href="#C3_0_5cedc8235a" y="72.977971"/>
    </g>
    <g clip-path="url(#pe9500f9a2c)">
     <use style="fill:#fbc5f4;" x="204.268405" xlink:href="#C3_0_5cedc8235a" y="76.897487"/>
    </g>
    <g clip-path="url(#pe9500f9a2c)">
     <use style="fill:#fbc5f4;" x="201.408881" xlink:href="#C3_0_5cedc8235a" y="81.086195"/>
    </g>
    <g clip-path="url(#pe9500f9a2c)">
     <use style="fill:#fbc5f4;" x="204.885765" xlink:href="#C3_0_5cedc8235a" y="63.567485"/>
    </g>
    <g clip-path="url(#pe9500f9a2c)">
     <use style="fill:#fbc5f4;" x="200.386252" xlink:href="#C3_0_5cedc8235a" y="74.091009"/>
    </g>
    <g clip-path="url(#pe9500f9a2c)">
     <use style="fill:#fbc5f4;" x="202.095119" xlink:href="#C3_0_5cedc8235a" y="63.652982"/>
    </g>
    <g clip-path="url(#pe9500f9a2c)">
     <use style="fill:#fbc5f4;" x="199.368411" xlink:href="#C3_0_5cedc8235a" y="69.566748"/>
    </g>
   </g>
   <g id="PathCollection_5">
    <defs>
     <path d="M 0 2.5 
C 0.663008 2.5 1.29895 2.236584 1.767767 1.767767 
C 2.236584 1.29895 2.5 0.663008 2.5 -0 
C 2.5 -0.663008 2.236584 -1.29895 1.767767 -1.767767 
C 1.29895 -2.236584 0.663008 -2.5 0 -2.5 
C -0.663008 -2.5 -1.29895 -2.236584 -1.767767 -1.767767 
C -2.236584 -1.29895 -2.5 -0.663008 -2.5 0 
C -2.5 0.663008 -2.236584 1.29895 -1.767767 1.767767 
C -1.29895 2.236584 -0.663008 2.5 0 2.5 
z
" id="C4_0_45af2b3ea8"/>
    </defs>
    <g clip-path="url(#pe9500f9a2c)">
     <use style="fill:#ffb7bc;" x="230.325272" xlink:href="#C4_0_45af2b3ea8" y="68.139263"/>
    </g>
    <g clip-path="url(#pe9500f9a2c)">
     <use style="fill:#ffb7bc;" x="226.694452" xlink:href="#C4_0_45af2b3ea8" y="72.062154"/>
    </g>
    <g clip-path="url(#pe9500f9a2c)">
     <use style="fill:#ffb7bc;" x="228.322886" xlink:href="#C4_0_45af2b3ea8" y="70.366044"/>
    </g>
    <g clip-path="url(#pe9500f9a2c)">
     <use style="fill:#ffb7bc;" x="229.389011" xlink:href="#C4_0_45af2b3ea8" y="83.576187"/>
    </g>
    <g clip-path="url(#pe9500f9a2c)">
     <use style="fill:#ffb7bc;" x="225.648227" xlink:href="#C4_0_45af2b3ea8" y="74.591359"/>
    </g>
    <g clip-path="url(#pe9500f9a2c)">
     <use style="fill:#ffb7bc;" x="226.34053" xlink:href="#C4_0_45af2b3ea8" y="63.044658"/>
    </g>
    <g clip-path="url(#pe9500f9a2c)">
     <use style="fill:#ffb7bc;" x="228.271513" xlink:href="#C4_0_45af2b3ea8" y="59.52486"/>
    </g>
    <g clip-path="url(#pe9500f9a2c)">
     <use style="fill:#ffb7bc;" x="225.937527" xlink:href="#C4_0_45af2b3ea8" y="64.542994"/>
    </g>
    <g clip-path="url(#pe9500f9a2c)">
     <use style="fill:#ffb7bc;" x="227.494708" xlink:href="#C4_0_45af2b3ea8" y="70.155437"/>
    </g>
    <g clip-path="url(#pe9500f9a2c)">
     <use style="fill:#ffb7bc;" x="225.955798" xlink:href="#C4_0_45af2b3ea8" y="72.134407"/>
    </g>
   </g>
   <g id="PathCollection_6">
    <defs>
     <path d="M 0 2.5 
C 0.663008 2.5 1.29895 2.236584 1.767767 1.767767 
C 2.236584 1.29895 2.5 0.663008 2.5 -0 
C 2.5 -0.663008 2.236584 -1.29895 1.767767 -1.767767 
C 1.29895 -2.236584 0.663008 -2.5 0 -2.5 
C -0.663008 -2.5 -1.29895 -2.236584 -1.767767 -1.767767 
C -2.236584 -1.29895 -2.5 -0.663008 -2.5 0 
C -2.5 0.663008 -2.236584 1.29895 -1.767767 1.767767 
C -1.29895 2.236584 -0.663008 2.5 0 2.5 
z
" id="C5_0_56edc26952"/>
    </defs>
    <g clip-path="url(#pe9500f9a2c)">
     <use style="fill:#bdc0ff;" x="250.194558" xlink:href="#C5_0_56edc26952" y="61.701463"/>
    </g>
    <g clip-path="url(#pe9500f9a2c)">
     <use style="fill:#bdc0ff;" x="252.922322" xlink:href="#C5_0_56edc26952" y="75.323636"/>
    </g>
    <g clip-path="url(#pe9500f9a2c)">
     <use style="fill:#bdc0ff;" x="250.667969" xlink:href="#C5_0_56edc26952" y="65.709826"/>
    </g>
    <g clip-path="url(#pe9500f9a2c)">
     <use style="fill:#bdc0ff;" x="256.075539" xlink:href="#C5_0_56edc26952" y="68.096074"/>
    </g>
    <g clip-path="url(#pe9500f9a2c)">
     <use style="fill:#bdc0ff;" x="255.337086" xlink:href="#C5_0_56edc26952" y="63.458715"/>
    </g>
    <g clip-path="url(#pe9500f9a2c)">
     <use style="fill:#bdc0ff;" x="255.474887" xlink:href="#C5_0_56edc26952" y="66.192092"/>
    </g>
    <g clip-path="url(#pe9500f9a2c)">
     <use style="fill:#bdc0ff;" x="251.531339" xlink:href="#C5_0_56edc26952" y="69.638718"/>
    </g>
    <g clip-path="url(#pe9500f9a2c)">
     <use style="fill:#bdc0ff;" x="253.773384" xlink:href="#C5_0_56edc26952" y="60.030562"/>
    </g>
    <g clip-path="url(#pe9500f9a2c)">
     <use style="fill:#bdc0ff;" x="251.323809" xlink:href="#C5_0_56edc26952" y="63.723644"/>
    </g>
    <g clip-path="url(#pe9500f9a2c)">
     <use style="fill:#bdc0ff;" x="252.39762" xlink:href="#C5_0_56edc26952" y="68.099596"/>
    </g>
   </g>
   <g id="PathCollection_7">
    <defs>
     <path d="M 0 2.5 
C 0.663008 2.5 1.29895 2.236584 1.767767 1.767767 
C 2.236584 1.29895 2.5 0.663008 2.5 -0 
C 2.5 -0.663008 2.236584 -1.29895 1.767767 -1.767767 
C 1.29895 -2.236584 0.663008 -2.5 0 -2.5 
C -0.663008 -2.5 -1.29895 -2.236584 -1.767767 -1.767767 
C -2.236584 -1.29895 -2.5 -0.663008 -2.5 0 
C -2.5 0.663008 -2.236584 1.29895 -1.767767 1.767767 
C -1.29895 2.236584 -0.663008 2.5 0 2.5 
z
" id="C6_0_7932ade4f2"/>
    </defs>
    <g clip-path="url(#pe9500f9a2c)">
     <use style="fill:#fbc5f4;" x="299.844959" xlink:href="#C6_0_7932ade4f2" y="99.252619"/>
    </g>
    <g clip-path="url(#pe9500f9a2c)">
     <use style="fill:#fbc5f4;" x="296.393593" xlink:href="#C6_0_7932ade4f2" y="104.921795"/>
    </g>
    <g clip-path="url(#pe9500f9a2c)">
     <use style="fill:#fbc5f4;" x="297.429592" xlink:href="#C6_0_7932ade4f2" y="127.572283"/>
    </g>
    <g clip-path="url(#pe9500f9a2c)">
     <use style="fill:#fbc5f4;" x="295.27567" xlink:href="#C6_0_7932ade4f2" y="106.411451"/>
    </g>
    <g clip-path="url(#pe9500f9a2c)">
     <use style="fill:#fbc5f4;" x="298.906359" xlink:href="#C6_0_7932ade4f2" y="133.475666"/>
    </g>
    <g clip-path="url(#pe9500f9a2c)">
     <use style="fill:#fbc5f4;" x="299.025348" xlink:href="#C6_0_7932ade4f2" y="120.155547"/>
    </g>
    <g clip-path="url(#pe9500f9a2c)">
     <use style="fill:#fbc5f4;" x="294.333007" xlink:href="#C6_0_7932ade4f2" y="105.916605"/>
    </g>
    <g clip-path="url(#pe9500f9a2c)">
     <use style="fill:#fbc5f4;" x="297.202141" xlink:href="#C6_0_7932ade4f2" y="106.472851"/>
    </g>
    <g clip-path="url(#pe9500f9a2c)">
     <use style="fill:#fbc5f4;" x="299.767319" xlink:href="#C6_0_7932ade4f2" y="104.266779"/>
    </g>
    <g clip-path="url(#pe9500f9a2c)">
     <use style="fill:#fbc5f4;" x="298.007224" xlink:href="#C6_0_7932ade4f2" y="109.777565"/>
    </g>
   </g>
   <g id="PathCollection_8">
    <defs>
     <path d="M 0 2.5 
C 0.663008 2.5 1.29895 2.236584 1.767767 1.767767 
C 2.236584 1.29895 2.5 0.663008 2.5 -0 
C 2.5 -0.663008 2.236584 -1.29895 1.767767 -1.767767 
C 1.29895 -2.236584 0.663008 -2.5 0 -2.5 
C -0.663008 -2.5 -1.29895 -2.236584 -1.767767 -1.767767 
C -2.236584 -1.29895 -2.5 -0.663008 -2.5 0 
C -2.5 0.663008 -2.236584 1.29895 -1.767767 1.767767 
C -1.29895 2.236584 -0.663008 2.5 0 2.5 
z
" id="C7_0_1dedf77eae"/>
    </defs>
    <g clip-path="url(#pe9500f9a2c)">
     <use style="fill:#ffb7bc;" x="323.257443" xlink:href="#C7_0_1dedf77eae" y="97.866107"/>
    </g>
    <g clip-path="url(#pe9500f9a2c)">
     <use style="fill:#ffb7bc;" x="320.446664" xlink:href="#C7_0_1dedf77eae" y="101.892462"/>
    </g>
    <g clip-path="url(#pe9500f9a2c)">
     <use style="fill:#ffb7bc;" x="324.828908" xlink:href="#C7_0_1dedf77eae" y="100.910232"/>
    </g>
    <g clip-path="url(#pe9500f9a2c)">
     <use style="fill:#ffb7bc;" x="322.203465" xlink:href="#C7_0_1dedf77eae" y="110.381701"/>
    </g>
    <g clip-path="url(#pe9500f9a2c)">
     <use style="fill:#ffb7bc;" x="321.071718" xlink:href="#C7_0_1dedf77eae" y="107.857308"/>
    </g>
    <g clip-path="url(#pe9500f9a2c)">
     <use style="fill:#ffb7bc;" x="320.090356" xlink:href="#C7_0_1dedf77eae" y="89.229464"/>
    </g>
    <g clip-path="url(#pe9500f9a2c)">
     <use style="fill:#ffb7bc;" x="323.407076" xlink:href="#C7_0_1dedf77eae" y="86.766978"/>
    </g>
    <g clip-path="url(#pe9500f9a2c)">
     <use style="fill:#ffb7bc;" x="324.810298" xlink:href="#C7_0_1dedf77eae" y="92.963625"/>
    </g>
    <g clip-path="url(#pe9500f9a2c)">
     <use style="fill:#ffb7bc;" x="320.367692" xlink:href="#C7_0_1dedf77eae" y="98.281196"/>
    </g>
    <g clip-path="url(#pe9500f9a2c)">
     <use style="fill:#ffb7bc;" x="321.198726" xlink:href="#C7_0_1dedf77eae" y="100.545075"/>
    </g>
   </g>
   <g id="PathCollection_9">
    <defs>
     <path d="M 0 2.5 
C 0.663008 2.5 1.29895 2.236584 1.767767 1.767767 
C 2.236584 1.29895 2.5 0.663008 2.5 -0 
C 2.5 -0.663008 2.236584 -1.29895 1.767767 -1.767767 
C 1.29895 -2.236584 0.663008 -2.5 0 -2.5 
C -0.663008 -2.5 -1.29895 -2.236584 -1.767767 -1.767767 
C -2.236584 -1.29895 -2.5 -0.663008 -2.5 0 
C -2.5 0.663008 -2.236584 1.29895 -1.767767 1.767767 
C -1.29895 2.236584 -0.663008 2.5 0 2.5 
z
" id="C8_0_8b44ebac86"/>
    </defs>
    <g clip-path="url(#pe9500f9a2c)">
     <use style="fill:#bdc0ff;" x="349.9823" xlink:href="#C8_0_8b44ebac86" y="82.849269"/>
    </g>
    <g clip-path="url(#pe9500f9a2c)">
     <use style="fill:#bdc0ff;" x="346.688458" xlink:href="#C8_0_8b44ebac86" y="103.445536"/>
    </g>
    <g clip-path="url(#pe9500f9a2c)">
     <use style="fill:#bdc0ff;" x="348.371451" xlink:href="#C8_0_8b44ebac86" y="90.038326"/>
    </g>
    <g clip-path="url(#pe9500f9a2c)">
     <use style="fill:#bdc0ff;" x="348.577016" xlink:href="#C8_0_8b44ebac86" y="95.653405"/>
    </g>
    <g clip-path="url(#pe9500f9a2c)">
     <use style="fill:#bdc0ff;" x="348.355534" xlink:href="#C8_0_8b44ebac86" y="90.924707"/>
    </g>
    <g clip-path="url(#pe9500f9a2c)">
     <use style="fill:#bdc0ff;" x="348.590843" xlink:href="#C8_0_8b44ebac86" y="94.351373"/>
    </g>
    <g clip-path="url(#pe9500f9a2c)">
     <use style="fill:#bdc0ff;" x="349.188284" xlink:href="#C8_0_8b44ebac86" y="107.982211"/>
    </g>
    <g clip-path="url(#pe9500f9a2c)">
     <use style="fill:#bdc0ff;" x="345.568628" xlink:href="#C8_0_8b44ebac86" y="83.379175"/>
    </g>
    <g clip-path="url(#pe9500f9a2c)">
     <use style="fill:#bdc0ff;" x="350.587253" xlink:href="#C8_0_8b44ebac86" y="93.261421"/>
    </g>
    <g clip-path="url(#pe9500f9a2c)">
     <use style="fill:#bdc0ff;" x="344.791556" xlink:href="#C8_0_8b44ebac86" y="98.95749"/>
    </g>
   </g>
   <g id="patch_3">
    <path clip-path="url(#pe9500f9a2c)" d="M 95.261388 69.880301 
L 120.023954 69.880301 
L 120.023954 60.763437 
L 95.261388 60.763437 
L 95.261388 69.880301 
z
" style="fill:#f4ccef;stroke:#000000;stroke-linejoin:miter;"/>
   </g>
   <g id="patch_4">
    <path clip-path="url(#pe9500f9a2c)" d="M 120.529313 67.403239 
L 145.291879 67.403239 
L 145.291879 61.438999 
L 120.529313 61.438999 
L 120.529313 67.403239 
z
" style="fill:#f6c0c4;stroke:#000000;stroke-linejoin:miter;"/>
   </g>
   <g id="patch_5">
    <path clip-path="url(#pe9500f9a2c)" d="M 145.797237 63.395093 
L 170.559803 63.395093 
L 170.559803 57.01606 
L 145.797237 57.01606 
L 145.797237 63.395093 
z
" style="fill:#c5c7f7;stroke:#000000;stroke-linejoin:miter;"/>
   </g>
   <g id="patch_6">
    <path clip-path="url(#pe9500f9a2c)" d="M 190.016105 74.013098 
L 214.778671 74.013098 
L 214.778671 65.628408 
L 190.016105 65.628408 
L 190.016105 74.013098 
z
" style="fill:#f4ccef;stroke:#000000;stroke-linejoin:miter;"/>
   </g>
   <g id="patch_7">
    <path clip-path="url(#pe9500f9a2c)" d="M 215.284029 72.116344 
L 240.046596 72.116344 
L 240.046596 65.442061 
L 215.284029 65.442061 
L 215.284029 72.116344 
z
" style="fill:#f6c0c4;stroke:#000000;stroke-linejoin:miter;"/>
   </g>
   <g id="patch_8">
    <path clip-path="url(#pe9500f9a2c)" d="M 240.551954 68.098716 
L 265.31452 68.098716 
L 265.31452 63.524947 
L 240.551954 63.524947 
L 240.551954 68.098716 
z
" style="fill:#c5c7f7;stroke:#000000;stroke-linejoin:miter;"/>
   </g>
   <g id="patch_9">
    <path clip-path="url(#pe9500f9a2c)" d="M 284.770822 117.561052 
L 309.533388 117.561052 
L 309.533388 105.170498 
L 284.770822 105.170498 
L 284.770822 117.561052 
z
" style="fill:#f4ccef;stroke:#000000;stroke-linejoin:miter;"/>
   </g>
   <g id="patch_10">
    <path clip-path="url(#pe9500f9a2c)" d="M 310.038746 101.646904 
L 334.801312 101.646904 
L 334.801312 94.189246 
L 310.038746 94.189246 
L 310.038746 101.646904 
z
" style="fill:#f6c0c4;stroke:#000000;stroke-linejoin:miter;"/>
   </g>
   <g id="patch_11">
    <path clip-path="url(#pe9500f9a2c)" d="M 335.306671 98.131469 
L 360.069237 98.131469 
L 360.069237 90.259921 
L 335.306671 90.259921 
L 335.306671 98.131469 
z
" style="fill:#c5c7f7;stroke:#000000;stroke-linejoin:miter;"/>
   </g>
   <g id="PathCollection_10"/>
   <g id="PathCollection_11"/>
   <g id="PathCollection_12"/>
   <g id="patch_12">
    <path clip-path="url(#pe9500f9a2c)" d="M 132.910596 3708.210469 
L 132.910596 3708.210469 
L 132.910596 3708.210469 
L 132.910596 3708.210469 
z
" style="fill:#f4ccef;stroke:#838383;stroke-linejoin:miter;stroke-width:0.75;"/>
   </g>
   <g id="patch_13">
    <path clip-path="url(#pe9500f9a2c)" d="M 132.910596 3708.210469 
L 132.910596 3708.210469 
L 132.910596 3708.210469 
L 132.910596 3708.210469 
z
" style="fill:#f6c0c4;stroke:#838383;stroke-linejoin:miter;stroke-width:0.75;"/>
   </g>
   <g id="patch_14">
    <path clip-path="url(#pe9500f9a2c)" d="M 132.910596 3708.210469 
L 132.910596 3708.210469 
L 132.910596 3708.210469 
L 132.910596 3708.210469 
z
" style="fill:#c5c7f7;stroke:#838383;stroke-linejoin:miter;stroke-width:0.75;"/>
   </g>
   <g id="matplotlib.axis_1">
    <g id="xtick_1">
     <g id="line2d_1">
      <defs>
       <path d="M 0 0 
L 0 3.5 
" id="me82d1eb79c" style="stroke:#000000;stroke-width:1.5;"/>
      </defs>
      <g>
       <use style="stroke:#000000;stroke-width:1.5;" x="132.910596" xlink:href="#me82d1eb79c" y="233.970469"/>
      </g>
     </g>
     <g id="text_1">
      <!-- Parity -->
      <g transform="translate(115.017939 250.991406)scale(0.14 -0.14)">
       <defs>
        <path d="M 494 0 
L 494 4581 
L 2222 4581 
Q 2678 4581 2919 4538 
Q 3256 4481 3484 4323 
Q 3713 4166 3852 3881 
Q 3991 3597 3991 3256 
Q 3991 2672 3619 2267 
Q 3247 1863 2275 1863 
L 1100 1863 
L 1100 0 
L 494 0 
z
M 1100 2403 
L 2284 2403 
Q 2872 2403 3119 2622 
Q 3366 2841 3366 3238 
Q 3366 3525 3220 3729 
Q 3075 3934 2838 4000 
Q 2684 4041 2272 4041 
L 1100 4041 
L 1100 2403 
z
" id="ArialMT-50" transform="scale(0.015625)"/>
        <path d="M 2588 409 
Q 2275 144 1986 34 
Q 1697 -75 1366 -75 
Q 819 -75 525 192 
Q 231 459 231 875 
Q 231 1119 342 1320 
Q 453 1522 633 1644 
Q 813 1766 1038 1828 
Q 1203 1872 1538 1913 
Q 2219 1994 2541 2106 
Q 2544 2222 2544 2253 
Q 2544 2597 2384 2738 
Q 2169 2928 1744 2928 
Q 1347 2928 1158 2789 
Q 969 2650 878 2297 
L 328 2372 
Q 403 2725 575 2942 
Q 747 3159 1072 3276 
Q 1397 3394 1825 3394 
Q 2250 3394 2515 3294 
Q 2781 3194 2906 3042 
Q 3031 2891 3081 2659 
Q 3109 2516 3109 2141 
L 3109 1391 
Q 3109 606 3145 398 
Q 3181 191 3288 0 
L 2700 0 
Q 2613 175 2588 409 
z
M 2541 1666 
Q 2234 1541 1622 1453 
Q 1275 1403 1131 1340 
Q 988 1278 909 1158 
Q 831 1038 831 891 
Q 831 666 1001 516 
Q 1172 366 1500 366 
Q 1825 366 2078 508 
Q 2331 650 2450 897 
Q 2541 1088 2541 1459 
L 2541 1666 
z
" id="ArialMT-61" transform="scale(0.015625)"/>
        <path d="M 416 0 
L 416 3319 
L 922 3319 
L 922 2816 
Q 1116 3169 1280 3281 
Q 1444 3394 1641 3394 
Q 1925 3394 2219 3213 
L 2025 2691 
Q 1819 2813 1613 2813 
Q 1428 2813 1281 2702 
Q 1134 2591 1072 2394 
Q 978 2094 978 1738 
L 978 0 
L 416 0 
z
" id="ArialMT-72" transform="scale(0.015625)"/>
        <path d="M 425 3934 
L 425 4581 
L 988 4581 
L 988 3934 
L 425 3934 
z
M 425 0 
L 425 3319 
L 988 3319 
L 988 0 
L 425 0 
z
" id="ArialMT-69" transform="scale(0.015625)"/>
        <path d="M 1650 503 
L 1731 6 
Q 1494 -44 1306 -44 
Q 1000 -44 831 53 
Q 663 150 594 308 
Q 525 466 525 972 
L 525 2881 
L 113 2881 
L 113 3319 
L 525 3319 
L 525 4141 
L 1084 4478 
L 1084 3319 
L 1650 3319 
L 1650 2881 
L 1084 2881 
L 1084 941 
Q 1084 700 1114 631 
Q 1144 563 1211 522 
Q 1278 481 1403 481 
Q 1497 481 1650 503 
z
" id="ArialMT-74" transform="scale(0.015625)"/>
        <path d="M 397 -1278 
L 334 -750 
Q 519 -800 656 -800 
Q 844 -800 956 -737 
Q 1069 -675 1141 -563 
Q 1194 -478 1313 -144 
Q 1328 -97 1363 -6 
L 103 3319 
L 709 3319 
L 1400 1397 
Q 1534 1031 1641 628 
Q 1738 1016 1872 1384 
L 2581 3319 
L 3144 3319 
L 1881 -56 
Q 1678 -603 1566 -809 
Q 1416 -1088 1222 -1217 
Q 1028 -1347 759 -1347 
Q 597 -1347 397 -1278 
z
" id="ArialMT-79" transform="scale(0.015625)"/>
       </defs>
       <use xlink:href="#ArialMT-50"/>
       <use x="66.699219" xlink:href="#ArialMT-61"/>
       <use x="122.314453" xlink:href="#ArialMT-72"/>
       <use x="155.615234" xlink:href="#ArialMT-69"/>
       <use x="177.832031" xlink:href="#ArialMT-74"/>
       <use x="205.615234" xlink:href="#ArialMT-79"/>
      </g>
     </g>
    </g>
    <g id="xtick_2">
     <g id="line2d_2">
      <g>
       <use style="stroke:#000000;stroke-width:1.5;" x="227.665312" xlink:href="#me82d1eb79c" y="233.970469"/>
      </g>
     </g>
     <g id="text_2">
      <!-- Value -->
      <g transform="translate(210.279063 250.991406)scale(0.14 -0.14)">
       <defs>
        <path d="M 1803 0 
L 28 4581 
L 684 4581 
L 1875 1253 
Q 2019 853 2116 503 
Q 2222 878 2363 1253 
L 3600 4581 
L 4219 4581 
L 2425 0 
L 1803 0 
z
" id="ArialMT-56" transform="scale(0.015625)"/>
        <path d="M 409 0 
L 409 4581 
L 972 4581 
L 972 0 
L 409 0 
z
" id="ArialMT-6c" transform="scale(0.015625)"/>
        <path d="M 2597 0 
L 2597 488 
Q 2209 -75 1544 -75 
Q 1250 -75 995 37 
Q 741 150 617 320 
Q 494 491 444 738 
Q 409 903 409 1263 
L 409 3319 
L 972 3319 
L 972 1478 
Q 972 1038 1006 884 
Q 1059 663 1231 536 
Q 1403 409 1656 409 
Q 1909 409 2131 539 
Q 2353 669 2445 892 
Q 2538 1116 2538 1541 
L 2538 3319 
L 3100 3319 
L 3100 0 
L 2597 0 
z
" id="ArialMT-75" transform="scale(0.015625)"/>
        <path d="M 2694 1069 
L 3275 997 
Q 3138 488 2766 206 
Q 2394 -75 1816 -75 
Q 1088 -75 661 373 
Q 234 822 234 1631 
Q 234 2469 665 2931 
Q 1097 3394 1784 3394 
Q 2450 3394 2872 2941 
Q 3294 2488 3294 1666 
Q 3294 1616 3291 1516 
L 816 1516 
Q 847 969 1125 678 
Q 1403 388 1819 388 
Q 2128 388 2347 550 
Q 2566 713 2694 1069 
z
M 847 1978 
L 2700 1978 
Q 2663 2397 2488 2606 
Q 2219 2931 1791 2931 
Q 1403 2931 1139 2672 
Q 875 2413 847 1978 
z
" id="ArialMT-65" transform="scale(0.015625)"/>
       </defs>
       <use xlink:href="#ArialMT-56"/>
       <use x="59.324219" xlink:href="#ArialMT-61"/>
       <use x="114.939453" xlink:href="#ArialMT-6c"/>
       <use x="137.15625" xlink:href="#ArialMT-75"/>
       <use x="192.771484" xlink:href="#ArialMT-65"/>
      </g>
     </g>
    </g>
    <g id="xtick_3">
     <g id="line2d_3">
      <g>
       <use style="stroke:#000000;stroke-width:1.5;" x="322.420029" xlink:href="#me82d1eb79c" y="233.970469"/>
      </g>
     </g>
     <g id="text_3">
      <!-- Joint -->
      <g transform="translate(307.634717 250.991406)scale(0.14 -0.14)">
       <defs>
        <path d="M 184 1300 
L 731 1375 
Q 753 850 928 656 
Q 1103 463 1413 463 
Q 1641 463 1806 567 
Q 1972 672 2034 851 
Q 2097 1031 2097 1425 
L 2097 4581 
L 2703 4581 
L 2703 1459 
Q 2703 884 2564 568 
Q 2425 253 2123 87 
Q 1822 -78 1416 -78 
Q 813 -78 492 269 
Q 172 616 184 1300 
z
" id="ArialMT-4a" transform="scale(0.015625)"/>
        <path d="M 213 1659 
Q 213 2581 725 3025 
Q 1153 3394 1769 3394 
Q 2453 3394 2887 2945 
Q 3322 2497 3322 1706 
Q 3322 1066 3130 698 
Q 2938 331 2570 128 
Q 2203 -75 1769 -75 
Q 1072 -75 642 372 
Q 213 819 213 1659 
z
M 791 1659 
Q 791 1022 1069 705 
Q 1347 388 1769 388 
Q 2188 388 2466 706 
Q 2744 1025 2744 1678 
Q 2744 2294 2464 2611 
Q 2184 2928 1769 2928 
Q 1347 2928 1069 2612 
Q 791 2297 791 1659 
z
" id="ArialMT-6f" transform="scale(0.015625)"/>
        <path d="M 422 0 
L 422 3319 
L 928 3319 
L 928 2847 
Q 1294 3394 1984 3394 
Q 2284 3394 2536 3286 
Q 2788 3178 2913 3003 
Q 3038 2828 3088 2588 
Q 3119 2431 3119 2041 
L 3119 0 
L 2556 0 
L 2556 2019 
Q 2556 2363 2490 2533 
Q 2425 2703 2258 2804 
Q 2091 2906 1866 2906 
Q 1506 2906 1245 2678 
Q 984 2450 984 1813 
L 984 0 
L 422 0 
z
" id="ArialMT-6e" transform="scale(0.015625)"/>
       </defs>
       <use xlink:href="#ArialMT-4a"/>
       <use x="50" xlink:href="#ArialMT-6f"/>
       <use x="105.615234" xlink:href="#ArialMT-69"/>
       <use x="127.832031" xlink:href="#ArialMT-6e"/>
       <use x="183.447266" xlink:href="#ArialMT-74"/>
      </g>
     </g>
    </g>
    <g id="text_4">
     <!-- Task -->
     <g transform="translate(211.220313 269.390469)scale(0.16 -0.16)">
      <defs>
       <path d="M 1659 0 
L 1659 4041 
L 150 4041 
L 150 4581 
L 3781 4581 
L 3781 4041 
L 2266 4041 
L 2266 0 
L 1659 0 
z
" id="ArialMT-54" transform="scale(0.015625)"/>
       <path d="M 197 991 
L 753 1078 
Q 800 744 1014 566 
Q 1228 388 1613 388 
Q 2000 388 2187 545 
Q 2375 703 2375 916 
Q 2375 1106 2209 1216 
Q 2094 1291 1634 1406 
Q 1016 1563 777 1677 
Q 538 1791 414 1992 
Q 291 2194 291 2438 
Q 291 2659 392 2848 
Q 494 3038 669 3163 
Q 800 3259 1026 3326 
Q 1253 3394 1513 3394 
Q 1903 3394 2198 3281 
Q 2494 3169 2634 2976 
Q 2775 2784 2828 2463 
L 2278 2388 
Q 2241 2644 2061 2787 
Q 1881 2931 1553 2931 
Q 1166 2931 1000 2803 
Q 834 2675 834 2503 
Q 834 2394 903 2306 
Q 972 2216 1119 2156 
Q 1203 2125 1616 2013 
Q 2213 1853 2448 1751 
Q 2684 1650 2818 1456 
Q 2953 1263 2953 975 
Q 2953 694 2789 445 
Q 2625 197 2315 61 
Q 2006 -75 1616 -75 
Q 969 -75 630 194 
Q 291 463 197 991 
z
" id="ArialMT-73" transform="scale(0.015625)"/>
       <path d="M 425 0 
L 425 4581 
L 988 4581 
L 988 1969 
L 2319 3319 
L 3047 3319 
L 1778 2088 
L 3175 0 
L 2481 0 
L 1384 1697 
L 988 1316 
L 988 0 
L 425 0 
z
" id="ArialMT-6b" transform="scale(0.015625)"/>
      </defs>
      <use xlink:href="#ArialMT-54"/>
      <use x="49.958984" xlink:href="#ArialMT-61"/>
      <use x="105.574219" xlink:href="#ArialMT-73"/>
      <use x="155.574219" xlink:href="#ArialMT-6b"/>
     </g>
    </g>
   </g>
   <g id="matplotlib.axis_2">
    <g id="ytick_1">
     <g id="line2d_4">
      <defs>
       <path d="M 0 0 
L -3.5 0 
" id="m6da7bdfa2e" style="stroke:#000000;stroke-width:1.5;"/>
      </defs>
      <g>
       <use style="stroke:#000000;stroke-width:1.5;" x="60.265313" xlink:href="#m6da7bdfa2e" y="233.970469"/>
      </g>
     </g>
     <g id="text_5">
      <!-- 0.94 -->
      <g transform="translate(26.02 238.980937)scale(0.14 -0.14)">
       <defs>
        <path d="M 266 2259 
Q 266 3072 433 3567 
Q 600 4063 929 4331 
Q 1259 4600 1759 4600 
Q 2128 4600 2406 4451 
Q 2684 4303 2865 4023 
Q 3047 3744 3150 3342 
Q 3253 2941 3253 2259 
Q 3253 1453 3087 958 
Q 2922 463 2592 192 
Q 2263 -78 1759 -78 
Q 1097 -78 719 397 
Q 266 969 266 2259 
z
M 844 2259 
Q 844 1131 1108 757 
Q 1372 384 1759 384 
Q 2147 384 2411 759 
Q 2675 1134 2675 2259 
Q 2675 3391 2411 3762 
Q 2147 4134 1753 4134 
Q 1366 4134 1134 3806 
Q 844 3388 844 2259 
z
" id="ArialMT-30" transform="scale(0.015625)"/>
        <path d="M 581 0 
L 581 641 
L 1222 641 
L 1222 0 
L 581 0 
z
" id="ArialMT-2e" transform="scale(0.015625)"/>
        <path d="M 350 1059 
L 891 1109 
Q 959 728 1153 556 
Q 1347 384 1650 384 
Q 1909 384 2104 503 
Q 2300 622 2425 820 
Q 2550 1019 2634 1356 
Q 2719 1694 2719 2044 
Q 2719 2081 2716 2156 
Q 2547 1888 2255 1720 
Q 1963 1553 1622 1553 
Q 1053 1553 659 1965 
Q 266 2378 266 3053 
Q 266 3750 677 4175 
Q 1088 4600 1706 4600 
Q 2153 4600 2523 4359 
Q 2894 4119 3086 3673 
Q 3278 3228 3278 2384 
Q 3278 1506 3087 986 
Q 2897 466 2520 194 
Q 2144 -78 1638 -78 
Q 1100 -78 759 220 
Q 419 519 350 1059 
z
M 2653 3081 
Q 2653 3566 2395 3850 
Q 2138 4134 1775 4134 
Q 1400 4134 1122 3828 
Q 844 3522 844 3034 
Q 844 2597 1108 2323 
Q 1372 2050 1759 2050 
Q 2150 2050 2401 2323 
Q 2653 2597 2653 3081 
z
" id="ArialMT-39" transform="scale(0.015625)"/>
        <path d="M 2069 0 
L 2069 1097 
L 81 1097 
L 81 1613 
L 2172 4581 
L 2631 4581 
L 2631 1613 
L 3250 1613 
L 3250 1097 
L 2631 1097 
L 2631 0 
L 2069 0 
z
M 2069 1613 
L 2069 3678 
L 634 1613 
L 2069 1613 
z
" id="ArialMT-34" transform="scale(0.015625)"/>
       </defs>
       <use xlink:href="#ArialMT-30"/>
       <use x="55.615234" xlink:href="#ArialMT-2e"/>
       <use x="83.398438" xlink:href="#ArialMT-39"/>
       <use x="139.013672" xlink:href="#ArialMT-34"/>
      </g>
     </g>
    </g>
    <g id="ytick_2">
     <g id="line2d_5">
      <g>
       <use style="stroke:#000000;stroke-width:1.5;" x="60.265313" xlink:href="#m6da7bdfa2e" y="197.010469"/>
      </g>
     </g>
     <g id="text_6">
      <!-- 0.95 -->
      <g transform="translate(26.02 202.020937)scale(0.14 -0.14)">
       <defs>
        <path d="M 266 1200 
L 856 1250 
Q 922 819 1161 601 
Q 1400 384 1738 384 
Q 2144 384 2425 690 
Q 2706 997 2706 1503 
Q 2706 1984 2436 2262 
Q 2166 2541 1728 2541 
Q 1456 2541 1237 2417 
Q 1019 2294 894 2097 
L 366 2166 
L 809 4519 
L 3088 4519 
L 3088 3981 
L 1259 3981 
L 1013 2750 
Q 1425 3038 1878 3038 
Q 2478 3038 2890 2622 
Q 3303 2206 3303 1553 
Q 3303 931 2941 478 
Q 2500 -78 1738 -78 
Q 1113 -78 717 272 
Q 322 622 266 1200 
z
" id="ArialMT-35" transform="scale(0.015625)"/>
       </defs>
       <use xlink:href="#ArialMT-30"/>
       <use x="55.615234" xlink:href="#ArialMT-2e"/>
       <use x="83.398438" xlink:href="#ArialMT-39"/>
       <use x="139.013672" xlink:href="#ArialMT-35"/>
      </g>
     </g>
    </g>
    <g id="ytick_3">
     <g id="line2d_6">
      <g>
       <use style="stroke:#000000;stroke-width:1.5;" x="60.265313" xlink:href="#m6da7bdfa2e" y="160.050469"/>
      </g>
     </g>
     <g id="text_7">
      <!-- 0.96 -->
      <g transform="translate(26.02 165.060937)scale(0.14 -0.14)">
       <defs>
        <path d="M 3184 3459 
L 2625 3416 
Q 2550 3747 2413 3897 
Q 2184 4138 1850 4138 
Q 1581 4138 1378 3988 
Q 1113 3794 959 3422 
Q 806 3050 800 2363 
Q 1003 2672 1297 2822 
Q 1591 2972 1913 2972 
Q 2475 2972 2870 2558 
Q 3266 2144 3266 1488 
Q 3266 1056 3080 686 
Q 2894 316 2569 119 
Q 2244 -78 1831 -78 
Q 1128 -78 684 439 
Q 241 956 241 2144 
Q 241 3472 731 4075 
Q 1159 4600 1884 4600 
Q 2425 4600 2770 4297 
Q 3116 3994 3184 3459 
z
M 888 1484 
Q 888 1194 1011 928 
Q 1134 663 1356 523 
Q 1578 384 1822 384 
Q 2178 384 2434 671 
Q 2691 959 2691 1453 
Q 2691 1928 2437 2201 
Q 2184 2475 1800 2475 
Q 1419 2475 1153 2201 
Q 888 1928 888 1484 
z
" id="ArialMT-36" transform="scale(0.015625)"/>
       </defs>
       <use xlink:href="#ArialMT-30"/>
       <use x="55.615234" xlink:href="#ArialMT-2e"/>
       <use x="83.398438" xlink:href="#ArialMT-39"/>
       <use x="139.013672" xlink:href="#ArialMT-36"/>
      </g>
     </g>
    </g>
    <g id="ytick_4">
     <g id="line2d_7">
      <g>
       <use style="stroke:#000000;stroke-width:1.5;" x="60.265313" xlink:href="#m6da7bdfa2e" y="123.090469"/>
      </g>
     </g>
     <g id="text_8">
      <!-- 0.97 -->
      <g transform="translate(26.02 128.100937)scale(0.14 -0.14)">
       <defs>
        <path d="M 303 3981 
L 303 4522 
L 3269 4522 
L 3269 4084 
Q 2831 3619 2401 2847 
Q 1972 2075 1738 1259 
Q 1569 684 1522 0 
L 944 0 
Q 953 541 1156 1306 
Q 1359 2072 1739 2783 
Q 2119 3494 2547 3981 
L 303 3981 
z
" id="ArialMT-37" transform="scale(0.015625)"/>
       </defs>
       <use xlink:href="#ArialMT-30"/>
       <use x="55.615234" xlink:href="#ArialMT-2e"/>
       <use x="83.398438" xlink:href="#ArialMT-39"/>
       <use x="139.013672" xlink:href="#ArialMT-37"/>
      </g>
     </g>
    </g>
    <g id="ytick_5">
     <g id="line2d_8">
      <g>
       <use style="stroke:#000000;stroke-width:1.5;" x="60.265313" xlink:href="#m6da7bdfa2e" y="86.130469"/>
      </g>
     </g>
     <g id="text_9">
      <!-- 0.98 -->
      <g transform="translate(26.02 91.140937)scale(0.14 -0.14)">
       <defs>
        <path d="M 1131 2484 
Q 781 2613 612 2850 
Q 444 3088 444 3419 
Q 444 3919 803 4259 
Q 1163 4600 1759 4600 
Q 2359 4600 2725 4251 
Q 3091 3903 3091 3403 
Q 3091 3084 2923 2848 
Q 2756 2613 2416 2484 
Q 2838 2347 3058 2040 
Q 3278 1734 3278 1309 
Q 3278 722 2862 322 
Q 2447 -78 1769 -78 
Q 1091 -78 675 323 
Q 259 725 259 1325 
Q 259 1772 486 2073 
Q 713 2375 1131 2484 
z
M 1019 3438 
Q 1019 3113 1228 2906 
Q 1438 2700 1772 2700 
Q 2097 2700 2305 2904 
Q 2513 3109 2513 3406 
Q 2513 3716 2298 3927 
Q 2084 4138 1766 4138 
Q 1444 4138 1231 3931 
Q 1019 3725 1019 3438 
z
M 838 1322 
Q 838 1081 952 856 
Q 1066 631 1291 507 
Q 1516 384 1775 384 
Q 2178 384 2440 643 
Q 2703 903 2703 1303 
Q 2703 1709 2433 1975 
Q 2163 2241 1756 2241 
Q 1359 2241 1098 1978 
Q 838 1716 838 1322 
z
" id="ArialMT-38" transform="scale(0.015625)"/>
       </defs>
       <use xlink:href="#ArialMT-30"/>
       <use x="55.615234" xlink:href="#ArialMT-2e"/>
       <use x="83.398438" xlink:href="#ArialMT-39"/>
       <use x="139.013672" xlink:href="#ArialMT-38"/>
      </g>
     </g>
    </g>
    <g id="ytick_6">
     <g id="line2d_9">
      <g>
       <use style="stroke:#000000;stroke-width:1.5;" x="60.265313" xlink:href="#m6da7bdfa2e" y="49.170469"/>
      </g>
     </g>
     <g id="text_10">
      <!-- 0.99 -->
      <g transform="translate(26.02 54.180937)scale(0.14 -0.14)">
       <use xlink:href="#ArialMT-30"/>
       <use x="55.615234" xlink:href="#ArialMT-2e"/>
       <use x="83.398438" xlink:href="#ArialMT-39"/>
       <use x="139.013672" xlink:href="#ArialMT-39"/>
      </g>
     </g>
    </g>
    <g id="ytick_7">
     <g id="line2d_10">
      <g>
       <use style="stroke:#000000;stroke-width:1.5;" x="60.265313" xlink:href="#m6da7bdfa2e" y="12.210469"/>
      </g>
     </g>
     <g id="text_11">
      <!-- 1.00 -->
      <g transform="translate(26.02 17.220937)scale(0.14 -0.14)">
       <defs>
        <path d="M 2384 0 
L 1822 0 
L 1822 3584 
Q 1619 3391 1289 3197 
Q 959 3003 697 2906 
L 697 3450 
Q 1169 3672 1522 3987 
Q 1875 4303 2022 4600 
L 2384 4600 
L 2384 0 
z
" id="ArialMT-31" transform="scale(0.015625)"/>
       </defs>
       <use xlink:href="#ArialMT-31"/>
       <use x="55.615234" xlink:href="#ArialMT-2e"/>
       <use x="83.398438" xlink:href="#ArialMT-30"/>
       <use x="139.013672" xlink:href="#ArialMT-30"/>
      </g>
     </g>
    </g>
    <g id="text_12">
     <!-- Accuracy -->
     <g transform="translate(18.6525 155.987969)rotate(-90)scale(0.16 -0.16)">
      <defs>
       <path d="M -9 0 
L 1750 4581 
L 2403 4581 
L 4278 0 
L 3588 0 
L 3053 1388 
L 1138 1388 
L 634 0 
L -9 0 
z
M 1313 1881 
L 2866 1881 
L 2388 3150 
Q 2169 3728 2063 4100 
Q 1975 3659 1816 3225 
L 1313 1881 
z
" id="ArialMT-41" transform="scale(0.015625)"/>
       <path d="M 2588 1216 
L 3141 1144 
Q 3050 572 2676 248 
Q 2303 -75 1759 -75 
Q 1078 -75 664 370 
Q 250 816 250 1647 
Q 250 2184 428 2587 
Q 606 2991 970 3192 
Q 1334 3394 1763 3394 
Q 2303 3394 2647 3120 
Q 2991 2847 3088 2344 
L 2541 2259 
Q 2463 2594 2264 2762 
Q 2066 2931 1784 2931 
Q 1359 2931 1093 2626 
Q 828 2322 828 1663 
Q 828 994 1084 691 
Q 1341 388 1753 388 
Q 2084 388 2306 591 
Q 2528 794 2588 1216 
z
" id="ArialMT-63" transform="scale(0.015625)"/>
      </defs>
      <use xlink:href="#ArialMT-41"/>
      <use x="66.699219" xlink:href="#ArialMT-63"/>
      <use x="116.699219" xlink:href="#ArialMT-63"/>
      <use x="166.699219" xlink:href="#ArialMT-75"/>
      <use x="222.314453" xlink:href="#ArialMT-72"/>
      <use x="255.615234" xlink:href="#ArialMT-61"/>
      <use x="311.230469" xlink:href="#ArialMT-63"/>
      <use x="361.230469" xlink:href="#ArialMT-79"/>
     </g>
    </g>
   </g>
   <g id="line2d_11">
    <path clip-path="url(#pe9500f9a2c)" d="M 107.642671 69.880301 
L 107.642671 76.703007 
" style="fill:none;stroke:#000000;stroke-linecap:square;"/>
   </g>
   <g id="line2d_12">
    <path clip-path="url(#pe9500f9a2c)" d="M 107.642671 60.763437 
L 107.642671 56.206646 
" style="fill:none;stroke:#000000;stroke-linecap:square;"/>
   </g>
   <g id="line2d_13">
    <path clip-path="url(#pe9500f9a2c)" d="M 101.452029 76.703007 
L 113.833312 76.703007 
" style="fill:none;stroke:#000000;stroke-linecap:square;"/>
   </g>
   <g id="line2d_14">
    <path clip-path="url(#pe9500f9a2c)" d="M 101.452029 56.206646 
L 113.833312 56.206646 
" style="fill:none;stroke:#000000;stroke-linecap:square;"/>
   </g>
   <g id="line2d_15">
    <path clip-path="url(#pe9500f9a2c)" d="M 132.910596 67.403239 
L 132.910596 68.555601 
" style="fill:none;stroke:#000000;stroke-linecap:square;"/>
   </g>
   <g id="line2d_16">
    <path clip-path="url(#pe9500f9a2c)" d="M 132.910596 61.438999 
L 132.910596 58.847048 
" style="fill:none;stroke:#000000;stroke-linecap:square;"/>
   </g>
   <g id="line2d_17">
    <path clip-path="url(#pe9500f9a2c)" d="M 126.719954 68.555601 
L 139.101237 68.555601 
" style="fill:none;stroke:#000000;stroke-linecap:square;"/>
   </g>
   <g id="line2d_18">
    <path clip-path="url(#pe9500f9a2c)" d="M 126.719954 58.847048 
L 139.101237 58.847048 
" style="fill:none;stroke:#000000;stroke-linecap:square;"/>
   </g>
   <g id="line2d_19">
    <path clip-path="url(#pe9500f9a2c)" d="M 158.17852 63.395093 
L 158.17852 70.81604 
" style="fill:none;stroke:#000000;stroke-linecap:square;"/>
   </g>
   <g id="line2d_20">
    <path clip-path="url(#pe9500f9a2c)" d="M 158.17852 57.01606 
L 158.17852 53.710609 
" style="fill:none;stroke:#000000;stroke-linecap:square;"/>
   </g>
   <g id="line2d_21">
    <path clip-path="url(#pe9500f9a2c)" d="M 151.987879 70.81604 
L 164.369162 70.81604 
" style="fill:none;stroke:#000000;stroke-linecap:square;"/>
   </g>
   <g id="line2d_22">
    <path clip-path="url(#pe9500f9a2c)" d="M 151.987879 53.710609 
L 164.369162 53.710609 
" style="fill:none;stroke:#000000;stroke-linecap:square;"/>
   </g>
   <g id="line2d_23">
    <path clip-path="url(#pe9500f9a2c)" d="M 202.397388 74.013098 
L 202.397388 81.086195 
" style="fill:none;stroke:#000000;stroke-linecap:square;"/>
   </g>
   <g id="line2d_24">
    <path clip-path="url(#pe9500f9a2c)" d="M 202.397388 65.628408 
L 202.397388 63.567485 
" style="fill:none;stroke:#000000;stroke-linecap:square;"/>
   </g>
   <g id="line2d_25">
    <path clip-path="url(#pe9500f9a2c)" d="M 196.206746 81.086195 
L 208.588029 81.086195 
" style="fill:none;stroke:#000000;stroke-linecap:square;"/>
   </g>
   <g id="line2d_26">
    <path clip-path="url(#pe9500f9a2c)" d="M 196.206746 63.567485 
L 208.588029 63.567485 
" style="fill:none;stroke:#000000;stroke-linecap:square;"/>
   </g>
   <g id="line2d_27">
    <path clip-path="url(#pe9500f9a2c)" d="M 227.665312 72.116344 
L 227.665312 74.591359 
" style="fill:none;stroke:#000000;stroke-linecap:square;"/>
   </g>
   <g id="line2d_28">
    <path clip-path="url(#pe9500f9a2c)" d="M 227.665312 65.442061 
L 227.665312 59.52486 
" style="fill:none;stroke:#000000;stroke-linecap:square;"/>
   </g>
   <g id="line2d_29">
    <path clip-path="url(#pe9500f9a2c)" d="M 221.474671 74.591359 
L 233.855954 74.591359 
" style="fill:none;stroke:#000000;stroke-linecap:square;"/>
   </g>
   <g id="line2d_30">
    <path clip-path="url(#pe9500f9a2c)" d="M 221.474671 59.52486 
L 233.855954 59.52486 
" style="fill:none;stroke:#000000;stroke-linecap:square;"/>
   </g>
   <g id="line2d_31">
    <path clip-path="url(#pe9500f9a2c)" d="M 252.933237 68.098716 
L 252.933237 69.638718 
" style="fill:none;stroke:#000000;stroke-linecap:square;"/>
   </g>
   <g id="line2d_32">
    <path clip-path="url(#pe9500f9a2c)" d="M 252.933237 63.524947 
L 252.933237 60.030562 
" style="fill:none;stroke:#000000;stroke-linecap:square;"/>
   </g>
   <g id="line2d_33">
    <path clip-path="url(#pe9500f9a2c)" d="M 246.742596 69.638718 
L 259.123879 69.638718 
" style="fill:none;stroke:#000000;stroke-linecap:square;"/>
   </g>
   <g id="line2d_34">
    <path clip-path="url(#pe9500f9a2c)" d="M 246.742596 60.030562 
L 259.123879 60.030562 
" style="fill:none;stroke:#000000;stroke-linecap:square;"/>
   </g>
   <g id="line2d_35">
    <path clip-path="url(#pe9500f9a2c)" d="M 297.152105 117.561052 
L 297.152105 133.475666 
" style="fill:none;stroke:#000000;stroke-linecap:square;"/>
   </g>
   <g id="line2d_36">
    <path clip-path="url(#pe9500f9a2c)" d="M 297.152105 105.170498 
L 297.152105 99.252619 
" style="fill:none;stroke:#000000;stroke-linecap:square;"/>
   </g>
   <g id="line2d_37">
    <path clip-path="url(#pe9500f9a2c)" d="M 290.961463 133.475666 
L 303.342746 133.475666 
" style="fill:none;stroke:#000000;stroke-linecap:square;"/>
   </g>
   <g id="line2d_38">
    <path clip-path="url(#pe9500f9a2c)" d="M 290.961463 99.252619 
L 303.342746 99.252619 
" style="fill:none;stroke:#000000;stroke-linecap:square;"/>
   </g>
   <g id="line2d_39">
    <path clip-path="url(#pe9500f9a2c)" d="M 322.420029 101.646904 
L 322.420029 110.381701 
" style="fill:none;stroke:#000000;stroke-linecap:square;"/>
   </g>
   <g id="line2d_40">
    <path clip-path="url(#pe9500f9a2c)" d="M 322.420029 94.189246 
L 322.420029 86.766978 
" style="fill:none;stroke:#000000;stroke-linecap:square;"/>
   </g>
   <g id="line2d_41">
    <path clip-path="url(#pe9500f9a2c)" d="M 316.229388 110.381701 
L 328.610671 110.381701 
" style="fill:none;stroke:#000000;stroke-linecap:square;"/>
   </g>
   <g id="line2d_42">
    <path clip-path="url(#pe9500f9a2c)" d="M 316.229388 86.766978 
L 328.610671 86.766978 
" style="fill:none;stroke:#000000;stroke-linecap:square;"/>
   </g>
   <g id="line2d_43">
    <path clip-path="url(#pe9500f9a2c)" d="M 347.687954 98.131469 
L 347.687954 107.982211 
" style="fill:none;stroke:#000000;stroke-linecap:square;"/>
   </g>
   <g id="line2d_44">
    <path clip-path="url(#pe9500f9a2c)" d="M 347.687954 90.259921 
L 347.687954 82.849269 
" style="fill:none;stroke:#000000;stroke-linecap:square;"/>
   </g>
   <g id="line2d_45">
    <path clip-path="url(#pe9500f9a2c)" d="M 341.497313 107.982211 
L 353.878596 107.982211 
" style="fill:none;stroke:#000000;stroke-linecap:square;"/>
   </g>
   <g id="line2d_46">
    <path clip-path="url(#pe9500f9a2c)" d="M 341.497313 82.849269 
L 353.878596 82.849269 
" style="fill:none;stroke:#000000;stroke-linecap:square;"/>
   </g>
   <g id="line2d_47">
    <path d="M 297.152105 81.502484 
L 297.152105 79.747653 
L 322.420029 79.747653 
L 322.420029 81.502484 
" style="fill:none;stroke:#333333;stroke-linecap:square;stroke-width:1.5;"/>
   </g>
   <g id="line2d_48">
    <path d="M 297.152105 68.131075 
L 297.152105 66.376244 
L 347.687954 66.376244 
L 347.687954 68.131075 
" style="fill:none;stroke:#333333;stroke-linecap:square;stroke-width:1.5;"/>
   </g>
   <g id="line2d_49">
    <path clip-path="url(#pe9500f9a2c)" d="M 95.261388 63.860759 
L 120.023954 63.860759 
" style="fill:none;stroke:#000000;stroke-linecap:square;"/>
   </g>
   <g id="line2d_50">
    <path clip-path="url(#pe9500f9a2c)" d="M 120.529313 62.968614 
L 145.291879 62.968614 
" style="fill:none;stroke:#000000;stroke-linecap:square;"/>
   </g>
   <g id="line2d_51">
    <path clip-path="url(#pe9500f9a2c)" d="M 145.797237 61.136427 
L 170.559803 61.136427 
" style="fill:none;stroke:#000000;stroke-linecap:square;"/>
   </g>
   <g id="line2d_52">
    <path clip-path="url(#pe9500f9a2c)" d="M 190.016105 71.27236 
L 214.778671 71.27236 
" style="fill:none;stroke:#000000;stroke-linecap:square;"/>
   </g>
   <g id="line2d_53">
    <path clip-path="url(#pe9500f9a2c)" d="M 215.284029 70.260741 
L 240.046596 70.260741 
" style="fill:none;stroke:#000000;stroke-linecap:square;"/>
   </g>
   <g id="line2d_54">
    <path clip-path="url(#pe9500f9a2c)" d="M 240.551954 65.950959 
L 265.31452 65.950959 
" style="fill:none;stroke:#000000;stroke-linecap:square;"/>
   </g>
   <g id="line2d_55">
    <path clip-path="url(#pe9500f9a2c)" d="M 284.770822 106.442151 
L 309.533388 106.442151 
" style="fill:none;stroke:#000000;stroke-linecap:square;"/>
   </g>
   <g id="line2d_56">
    <path clip-path="url(#pe9500f9a2c)" d="M 310.038746 99.413135 
L 334.801312 99.413135 
" style="fill:none;stroke:#000000;stroke-linecap:square;"/>
   </g>
   <g id="line2d_57">
    <path clip-path="url(#pe9500f9a2c)" d="M 335.306671 93.806397 
L 360.069237 93.806397 
" style="fill:none;stroke:#000000;stroke-linecap:square;"/>
   </g>
   <g id="patch_15">
    <path d="M 60.265313 233.970469 
L 60.265313 12.210469 
" style="fill:none;stroke:#000000;stroke-linecap:square;stroke-linejoin:miter;stroke-width:1.5;"/>
   </g>
   <g id="patch_16">
    <path d="M 60.265312 233.970469 
L 395.065313 233.970469 
" style="fill:none;stroke:#000000;stroke-linecap:square;stroke-linejoin:miter;stroke-width:1.5;"/>
   </g>
   <g id="text_13">
    <!-- ** -->
    <g transform="translate(303.947786 75.766403)scale(0.15 -0.15)">
     <defs>
      <path d="M 200 3741 
L 344 4184 
Q 841 4009 1066 3881 
Q 1006 4447 1003 4659 
L 1456 4659 
Q 1447 4350 1384 3884 
Q 1706 4047 2122 4184 
L 2266 3741 
Q 1869 3609 1488 3566 
Q 1678 3400 2025 2975 
L 1650 2709 
Q 1469 2956 1222 3381 
Q 991 2941 816 2709 
L 447 2975 
Q 809 3422 966 3566 
Q 563 3644 200 3741 
z
" id="ArialMT-2a" transform="scale(0.015625)"/>
     </defs>
     <use xlink:href="#ArialMT-2a"/>
     <use x="38.916016" xlink:href="#ArialMT-2a"/>
    </g>
   </g>
   <g id="text_14">
    <!-- ** -->
    <g transform="translate(316.581748 62.394994)scale(0.15 -0.15)">
     <use xlink:href="#ArialMT-2a"/>
     <use x="38.916016" xlink:href="#ArialMT-2a"/>
    </g>
   </g>
   <g id="legend_1">
    <g id="patch_17">
     <path d="M 68.665313 227.970469 
L 187.084688 227.970469 
Q 189.484688 227.970469 189.484688 225.570469 
L 189.484688 175.414219 
Q 189.484688 173.014219 187.084688 173.014219 
L 68.665313 173.014219 
Q 66.265313 173.014219 66.265313 175.414219 
L 66.265313 225.570469 
Q 66.265313 227.970469 68.665313 227.970469 
z
" style="fill:#ffffff;opacity:0.8;stroke:#cccccc;stroke-linejoin:miter;"/>
    </g>
    <g id="patch_18">
     <path d="M 71.065313 186.549844 
L 95.065313 186.549844 
L 95.065313 178.149844 
L 71.065313 178.149844 
z
" style="fill:#f4ccef;stroke:#838383;stroke-linejoin:miter;stroke-width:0.75;"/>
    </g>
    <g id="text_15">
     <!-- Sequential -->
     <g transform="translate(104.665312 186.549844)scale(0.12 -0.12)">
      <defs>
       <path d="M 288 1472 
L 859 1522 
Q 900 1178 1048 958 
Q 1197 738 1509 602 
Q 1822 466 2213 466 
Q 2559 466 2825 569 
Q 3091 672 3220 851 
Q 3350 1031 3350 1244 
Q 3350 1459 3225 1620 
Q 3100 1781 2813 1891 
Q 2628 1963 1997 2114 
Q 1366 2266 1113 2400 
Q 784 2572 623 2826 
Q 463 3081 463 3397 
Q 463 3744 659 4045 
Q 856 4347 1234 4503 
Q 1613 4659 2075 4659 
Q 2584 4659 2973 4495 
Q 3363 4331 3572 4012 
Q 3781 3694 3797 3291 
L 3216 3247 
Q 3169 3681 2898 3903 
Q 2628 4125 2100 4125 
Q 1550 4125 1298 3923 
Q 1047 3722 1047 3438 
Q 1047 3191 1225 3031 
Q 1400 2872 2139 2705 
Q 2878 2538 3153 2413 
Q 3553 2228 3743 1945 
Q 3934 1663 3934 1294 
Q 3934 928 3725 604 
Q 3516 281 3123 101 
Q 2731 -78 2241 -78 
Q 1619 -78 1198 103 
Q 778 284 539 648 
Q 300 1013 288 1472 
z
" id="ArialMT-53" transform="scale(0.015625)"/>
       <path d="M 2538 -1272 
L 2538 353 
Q 2406 169 2170 47 
Q 1934 -75 1669 -75 
Q 1078 -75 651 397 
Q 225 869 225 1691 
Q 225 2191 398 2587 
Q 572 2984 901 3189 
Q 1231 3394 1625 3394 
Q 2241 3394 2594 2875 
L 2594 3319 
L 3100 3319 
L 3100 -1272 
L 2538 -1272 
z
M 803 1669 
Q 803 1028 1072 708 
Q 1341 388 1716 388 
Q 2075 388 2334 692 
Q 2594 997 2594 1619 
Q 2594 2281 2320 2615 
Q 2047 2950 1678 2950 
Q 1313 2950 1058 2639 
Q 803 2328 803 1669 
z
" id="ArialMT-71" transform="scale(0.015625)"/>
      </defs>
      <use xlink:href="#ArialMT-53"/>
      <use x="66.699219" xlink:href="#ArialMT-65"/>
      <use x="122.314453" xlink:href="#ArialMT-71"/>
      <use x="177.929688" xlink:href="#ArialMT-75"/>
      <use x="233.544922" xlink:href="#ArialMT-65"/>
      <use x="289.160156" xlink:href="#ArialMT-6e"/>
      <use x="344.775391" xlink:href="#ArialMT-74"/>
      <use x="372.558594" xlink:href="#ArialMT-69"/>
      <use x="394.775391" xlink:href="#ArialMT-61"/>
      <use x="450.390625" xlink:href="#ArialMT-6c"/>
     </g>
    </g>
    <g id="patch_19">
     <path d="M 71.065313 203.524219 
L 95.065313 203.524219 
L 95.065313 195.124219 
L 71.065313 195.124219 
z
" style="fill:#f6c0c4;stroke:#838383;stroke-linejoin:miter;stroke-width:0.75;"/>
    </g>
    <g id="text_16">
     <!-- Parallel -->
     <g transform="translate(104.665312 203.524219)scale(0.12 -0.12)">
      <use xlink:href="#ArialMT-50"/>
      <use x="66.699219" xlink:href="#ArialMT-61"/>
      <use x="122.314453" xlink:href="#ArialMT-72"/>
      <use x="155.615234" xlink:href="#ArialMT-61"/>
      <use x="211.230469" xlink:href="#ArialMT-6c"/>
      <use x="233.447266" xlink:href="#ArialMT-6c"/>
      <use x="255.664062" xlink:href="#ArialMT-65"/>
      <use x="311.279297" xlink:href="#ArialMT-6c"/>
     </g>
    </g>
    <g id="patch_20">
     <path d="M 71.065313 220.644844 
L 95.065313 220.644844 
L 95.065313 212.244844 
L 71.065313 212.244844 
z
" style="fill:#c5c7f7;stroke:#838383;stroke-linejoin:miter;stroke-width:0.75;"/>
    </g>
    <g id="text_17">
     <!-- Task-Switching -->
     <g transform="translate(104.665312 220.644844)scale(0.12 -0.12)">
      <defs>
       <path d="M 203 1375 
L 203 1941 
L 1931 1941 
L 1931 1375 
L 203 1375 
z
" id="ArialMT-2d" transform="scale(0.015625)"/>
       <path d="M 1034 0 
L 19 3319 
L 600 3319 
L 1128 1403 
L 1325 691 
Q 1338 744 1497 1375 
L 2025 3319 
L 2603 3319 
L 3100 1394 
L 3266 759 
L 3456 1400 
L 4025 3319 
L 4572 3319 
L 3534 0 
L 2950 0 
L 2422 1988 
L 2294 2553 
L 1622 0 
L 1034 0 
z
" id="ArialMT-77" transform="scale(0.015625)"/>
       <path d="M 422 0 
L 422 4581 
L 984 4581 
L 984 2938 
Q 1378 3394 1978 3394 
Q 2347 3394 2619 3248 
Q 2891 3103 3008 2847 
Q 3125 2591 3125 2103 
L 3125 0 
L 2563 0 
L 2563 2103 
Q 2563 2525 2380 2717 
Q 2197 2909 1863 2909 
Q 1613 2909 1392 2779 
Q 1172 2650 1078 2428 
Q 984 2206 984 1816 
L 984 0 
L 422 0 
z
" id="ArialMT-68" transform="scale(0.015625)"/>
       <path d="M 319 -275 
L 866 -356 
Q 900 -609 1056 -725 
Q 1266 -881 1628 -881 
Q 2019 -881 2231 -725 
Q 2444 -569 2519 -288 
Q 2563 -116 2559 434 
Q 2191 0 1641 0 
Q 956 0 581 494 
Q 206 988 206 1678 
Q 206 2153 378 2554 
Q 550 2956 876 3175 
Q 1203 3394 1644 3394 
Q 2231 3394 2613 2919 
L 2613 3319 
L 3131 3319 
L 3131 450 
Q 3131 -325 2973 -648 
Q 2816 -972 2473 -1159 
Q 2131 -1347 1631 -1347 
Q 1038 -1347 672 -1080 
Q 306 -813 319 -275 
z
M 784 1719 
Q 784 1066 1043 766 
Q 1303 466 1694 466 
Q 2081 466 2343 764 
Q 2606 1063 2606 1700 
Q 2606 2309 2336 2618 
Q 2066 2928 1684 2928 
Q 1309 2928 1046 2623 
Q 784 2319 784 1719 
z
" id="ArialMT-67" transform="scale(0.015625)"/>
      </defs>
      <use xlink:href="#ArialMT-54"/>
      <use x="49.958984" xlink:href="#ArialMT-61"/>
      <use x="105.574219" xlink:href="#ArialMT-73"/>
      <use x="155.574219" xlink:href="#ArialMT-6b"/>
      <use x="205.574219" xlink:href="#ArialMT-2d"/>
      <use x="238.875" xlink:href="#ArialMT-53"/>
      <use x="305.574219" xlink:href="#ArialMT-77"/>
      <use x="377.791016" xlink:href="#ArialMT-69"/>
      <use x="400.007812" xlink:href="#ArialMT-74"/>
      <use x="427.791016" xlink:href="#ArialMT-63"/>
      <use x="477.791016" xlink:href="#ArialMT-68"/>
      <use x="533.40625" xlink:href="#ArialMT-69"/>
      <use x="555.623047" xlink:href="#ArialMT-6e"/>
      <use x="611.238281" xlink:href="#ArialMT-67"/>
     </g>
    </g>
   </g>
  </g>
 </g>
 <defs>
  <clipPath id="pe9500f9a2c">
   <rect height="221.76" width="334.8" x="60.265313" y="12.210469"/>
  </clipPath>
 </defs>
</svg>
