<?xml version="1.0" encoding="utf-8" standalone="no"?>
<!DOCTYPE svg PUBLIC "-//W3C//DTD SVG 1.1//EN"
  "http://www.w3.org/Graphics/SVG/1.1/DTD/svg11.dtd">
<svg height="274.595937pt" version="1.1" viewBox="0 0 402.265312 274.595937" width="402.265312pt" xmlns="http://www.w3.org/2000/svg" xmlns:xlink="http://www.w3.org/1999/xlink">
 <metadata>
  <rdf:RDF xmlns:cc="http://creativecommons.org/ns#" xmlns:dc="http://purl.org/dc/elements/1.1/" xmlns:rdf="http://www.w3.org/1999/02/22-rdf-syntax-ns#">
   <cc:Work>
    <dc:type rdf:resource="http://purl.org/dc/dcmitype/StillImage"/>
    <dc:date>2024-01-13T17:12:53.087452</dc:date>
    <dc:format>image/svg+xml</dc:format>
    <dc:creator>
     <cc:Agent>
      <dc:title>Matplotlib v3.4.3, https://matplotlib.org/</dc:title>
     </cc:Agent>
    </dc:creator>
   </cc:Work>
  </rdf:RDF>
 </metadata>
 <defs>
  <style type="text/css">*{stroke-linecap:butt;stroke-linejoin:round;}</style>
 </defs>
 <g id="figure_1">
  <g id="patch_1">
   <path d="M 0 274.595937 
L 402.265312 274.595937 
L 402.265312 0 
L 0 0 
z
" style="fill:none;"/>
  </g>
  <g id="axes_1">
   <g id="patch_2">
    <path d="M 60.265313 228.96 
L 395.065313 228.96 
L 395.065313 7.2 
L 60.265313 7.2 
z
" style="fill:none;"/>
   </g>
   <g id="PathCollection_1">
    <defs>
     <path d="M 0 2.5 
C 0.663008 2.5 1.29895 2.236584 1.767767 1.767767 
C 2.236584 1.29895 2.5 0.663008 2.5 -0 
C 2.5 -0.663008 2.236584 -1.29895 1.767767 -1.767767 
C 1.29895 -2.236584 0.663008 -2.5 0 -2.5 
C -0.663008 -2.5 -1.29895 -2.236584 -1.767767 -1.767767 
C -2.236584 -1.29895 -2.5 -0.663008 -2.5 0 
C -2.5 0.663008 -2.236584 1.29895 -1.767767 1.767767 
C -1.29895 2.236584 -0.663008 2.5 0 2.5 
z
" id="C0_0_a9357842d2"/>
    </defs>
    <g clip-path="url(#p16a9e6bea2)">
     <use style="fill:#fbc5f4;" x="110.438774" xlink:href="#C0_0_a9357842d2" y="27.060087"/>
    </g>
    <g clip-path="url(#p16a9e6bea2)">
     <use style="fill:#fbc5f4;" x="107.403516" xlink:href="#C0_0_a9357842d2" y="37.465174"/>
    </g>
    <g clip-path="url(#p16a9e6bea2)">
     <use style="fill:#fbc5f4;" x="106.233556" xlink:href="#C0_0_a9357842d2" y="33.990633"/>
    </g>
    <g clip-path="url(#p16a9e6bea2)">
     <use style="fill:#fbc5f4;" x="106.364234" xlink:href="#C0_0_a9357842d2" y="20.275078"/>
    </g>
    <g clip-path="url(#p16a9e6bea2)">
     <use style="fill:#fbc5f4;" x="106.602798" xlink:href="#C0_0_a9357842d2" y="22.024974"/>
    </g>
    <g clip-path="url(#p16a9e6bea2)">
     <use style="fill:#fbc5f4;" x="109.366727" xlink:href="#C0_0_a9357842d2" y="39.052716"/>
    </g>
    <g clip-path="url(#p16a9e6bea2)">
     <use style="fill:#fbc5f4;" x="109.446444" xlink:href="#C0_0_a9357842d2" y="39.433684"/>
    </g>
    <g clip-path="url(#p16a9e6bea2)">
     <use style="fill:#fbc5f4;" x="109.838217" xlink:href="#C0_0_a9357842d2" y="31.418488"/>
    </g>
    <g clip-path="url(#p16a9e6bea2)">
     <use style="fill:#fbc5f4;" x="109.053523" xlink:href="#C0_0_a9357842d2" y="32.409284"/>
    </g>
    <g clip-path="url(#p16a9e6bea2)">
     <use style="fill:#fbc5f4;" x="109.345114" xlink:href="#C0_0_a9357842d2" y="39.553147"/>
    </g>
   </g>
   <g id="PathCollection_2">
    <defs>
     <path d="M 0 2.5 
C 0.663008 2.5 1.29895 2.236584 1.767767 1.767767 
C 2.236584 1.29895 2.5 0.663008 2.5 -0 
C 2.5 -0.663008 2.236584 -1.29895 1.767767 -1.767767 
C 1.29895 -2.236584 0.663008 -2.5 0 -2.5 
C -0.663008 -2.5 -1.29895 -2.236584 -1.767767 -1.767767 
C -2.236584 -1.29895 -2.5 -0.663008 -2.5 0 
C -2.5 0.663008 -2.236584 1.29895 -1.767767 1.767767 
C -1.29895 2.236584 -0.663008 2.5 0 2.5 
z
" id="C1_0_ae2e4d7d08"/>
    </defs>
    <g clip-path="url(#p16a9e6bea2)">
     <use style="fill:#ffb7bc;" x="135.207527" xlink:href="#C1_0_ae2e4d7d08" y="24.770953"/>
    </g>
    <g clip-path="url(#p16a9e6bea2)">
     <use style="fill:#ffb7bc;" x="131.447909" xlink:href="#C1_0_ae2e4d7d08" y="31.113917"/>
    </g>
    <g clip-path="url(#p16a9e6bea2)">
     <use style="fill:#ffb7bc;" x="135.567666" xlink:href="#C1_0_ae2e4d7d08" y="35.478022"/>
    </g>
    <g clip-path="url(#p16a9e6bea2)">
     <use style="fill:#ffb7bc;" x="132.630936" xlink:href="#C1_0_ae2e4d7d08" y="17.28"/>
    </g>
    <g clip-path="url(#p16a9e6bea2)">
     <use style="fill:#ffb7bc;" x="131.644101" xlink:href="#C1_0_ae2e4d7d08" y="32.958241"/>
    </g>
    <g clip-path="url(#p16a9e6bea2)">
     <use style="fill:#ffb7bc;" x="135.529664" xlink:href="#C1_0_ae2e4d7d08" y="29.177303"/>
    </g>
    <g clip-path="url(#p16a9e6bea2)">
     <use style="fill:#ffb7bc;" x="134.436692" xlink:href="#C1_0_ae2e4d7d08" y="30.087956"/>
    </g>
    <g clip-path="url(#p16a9e6bea2)">
     <use style="fill:#ffb7bc;" x="135.031918" xlink:href="#C1_0_ae2e4d7d08" y="28.575201"/>
    </g>
    <g clip-path="url(#p16a9e6bea2)">
     <use style="fill:#ffb7bc;" x="133.538111" xlink:href="#C1_0_ae2e4d7d08" y="30.803069"/>
    </g>
    <g clip-path="url(#p16a9e6bea2)">
     <use style="fill:#ffb7bc;" x="131.673898" xlink:href="#C1_0_ae2e4d7d08" y="27.896621"/>
    </g>
   </g>
   <g id="PathCollection_3">
    <defs>
     <path d="M 0 2.5 
C 0.663008 2.5 1.29895 2.236584 1.767767 1.767767 
C 2.236584 1.29895 2.5 0.663008 2.5 -0 
C 2.5 -0.663008 2.236584 -1.29895 1.767767 -1.767767 
C 1.29895 -2.236584 0.663008 -2.5 0 -2.5 
C -0.663008 -2.5 -1.29895 -2.236584 -1.767767 -1.767767 
C -2.236584 -1.29895 -2.5 -0.663008 -2.5 0 
C -2.5 0.663008 -2.236584 1.29895 -1.767767 1.767767 
C -1.29895 2.236584 -0.663008 2.5 0 2.5 
z
" id="C2_0_dbceba7c63"/>
    </defs>
    <g clip-path="url(#p16a9e6bea2)">
     <use style="fill:#bdc0ff;" x="157.599469" xlink:href="#C2_0_dbceba7c63" y="26.745099"/>
    </g>
    <g clip-path="url(#p16a9e6bea2)">
     <use style="fill:#bdc0ff;" x="158.32659" xlink:href="#C2_0_dbceba7c63" y="38.470208"/>
    </g>
    <g clip-path="url(#p16a9e6bea2)">
     <use style="fill:#bdc0ff;" x="155.18589" xlink:href="#C2_0_dbceba7c63" y="38.293988"/>
    </g>
    <g clip-path="url(#p16a9e6bea2)">
     <use style="fill:#bdc0ff;" x="156.887137" xlink:href="#C2_0_dbceba7c63" y="19.208398"/>
    </g>
    <g clip-path="url(#p16a9e6bea2)">
     <use style="fill:#bdc0ff;" x="156.599168" xlink:href="#C2_0_dbceba7c63" y="22.758417"/>
    </g>
    <g clip-path="url(#p16a9e6bea2)">
     <use style="fill:#bdc0ff;" x="158.166422" xlink:href="#C2_0_dbceba7c63" y="30.300091"/>
    </g>
    <g clip-path="url(#p16a9e6bea2)">
     <use style="fill:#bdc0ff;" x="160.145523" xlink:href="#C2_0_dbceba7c63" y="33.455798"/>
    </g>
    <g clip-path="url(#p16a9e6bea2)">
     <use style="fill:#bdc0ff;" x="156.82654" xlink:href="#C2_0_dbceba7c63" y="33.258203"/>
    </g>
    <g clip-path="url(#p16a9e6bea2)">
     <use style="fill:#bdc0ff;" x="160.458456" xlink:href="#C2_0_dbceba7c63" y="32.572682"/>
    </g>
    <g clip-path="url(#p16a9e6bea2)">
     <use style="fill:#bdc0ff;" x="158.997269" xlink:href="#C2_0_dbceba7c63" y="26.561478"/>
    </g>
   </g>
   <g id="PathCollection_4">
    <defs>
     <path d="M 0 2.5 
C 0.663008 2.5 1.29895 2.236584 1.767767 1.767767 
C 2.236584 1.29895 2.5 0.663008 2.5 -0 
C 2.5 -0.663008 2.236584 -1.29895 1.767767 -1.767767 
C 1.29895 -2.236584 0.663008 -2.5 0 -2.5 
C -0.663008 -2.5 -1.29895 -2.236584 -1.767767 -1.767767 
C -2.236584 -1.29895 -2.5 -0.663008 -2.5 0 
C -2.5 0.663008 -2.236584 1.29895 -1.767767 1.767767 
C -1.29895 2.236584 -0.663008 2.5 0 2.5 
z
" id="C3_0_1819db25e6"/>
    </defs>
    <g clip-path="url(#p16a9e6bea2)">
     <use style="fill:#fbc5f4;" x="203.674395" xlink:href="#C3_0_1819db25e6" y="63.885253"/>
    </g>
    <g clip-path="url(#p16a9e6bea2)">
     <use style="fill:#fbc5f4;" x="200.564729" xlink:href="#C3_0_1819db25e6" y="75.432293"/>
    </g>
    <g clip-path="url(#p16a9e6bea2)">
     <use style="fill:#fbc5f4;" x="201.349857" xlink:href="#C3_0_1819db25e6" y="70.83671"/>
    </g>
    <g clip-path="url(#p16a9e6bea2)">
     <use style="fill:#fbc5f4;" x="203.211622" xlink:href="#C3_0_1819db25e6" y="66.76085"/>
    </g>
    <g clip-path="url(#p16a9e6bea2)">
     <use style="fill:#fbc5f4;" x="200.80894" xlink:href="#C3_0_1819db25e6" y="53.283552"/>
    </g>
    <g clip-path="url(#p16a9e6bea2)">
     <use style="fill:#fbc5f4;" x="204.743638" xlink:href="#C3_0_1819db25e6" y="67.065474"/>
    </g>
    <g clip-path="url(#p16a9e6bea2)">
     <use style="fill:#fbc5f4;" x="200.130588" xlink:href="#C3_0_1819db25e6" y="60.831438"/>
    </g>
    <g clip-path="url(#p16a9e6bea2)">
     <use style="fill:#fbc5f4;" x="199.540206" xlink:href="#C3_0_1819db25e6" y="83.959232"/>
    </g>
    <g clip-path="url(#p16a9e6bea2)">
     <use style="fill:#fbc5f4;" x="204.132959" xlink:href="#C3_0_1819db25e6" y="70.313538"/>
    </g>
    <g clip-path="url(#p16a9e6bea2)">
     <use style="fill:#fbc5f4;" x="202.524874" xlink:href="#C3_0_1819db25e6" y="60.93379"/>
    </g>
   </g>
   <g id="PathCollection_5">
    <defs>
     <path d="M 0 2.5 
C 0.663008 2.5 1.29895 2.236584 1.767767 1.767767 
C 2.236584 1.29895 2.5 0.663008 2.5 -0 
C 2.5 -0.663008 2.236584 -1.29895 1.767767 -1.767767 
C 1.29895 -2.236584 0.663008 -2.5 0 -2.5 
C -0.663008 -2.5 -1.29895 -2.236584 -1.767767 -1.767767 
C -2.236584 -1.29895 -2.5 -0.663008 -2.5 0 
C -2.5 0.663008 -2.236584 1.29895 -1.767767 1.767767 
C -1.29895 2.236584 -0.663008 2.5 0 2.5 
z
" id="C4_0_7af902718d"/>
    </defs>
    <g clip-path="url(#p16a9e6bea2)">
     <use style="fill:#ffb7bc;" x="225.860322" xlink:href="#C4_0_7af902718d" y="64.170258"/>
    </g>
    <g clip-path="url(#p16a9e6bea2)">
     <use style="fill:#ffb7bc;" x="227.729746" xlink:href="#C4_0_7af902718d" y="65.101973"/>
    </g>
    <g clip-path="url(#p16a9e6bea2)">
     <use style="fill:#ffb7bc;" x="230.54134" xlink:href="#C4_0_7af902718d" y="65.894894"/>
    </g>
    <g clip-path="url(#p16a9e6bea2)">
     <use style="fill:#ffb7bc;" x="229.311465" xlink:href="#C4_0_7af902718d" y="68.19091"/>
    </g>
    <g clip-path="url(#p16a9e6bea2)">
     <use style="fill:#ffb7bc;" x="224.902158" xlink:href="#C4_0_7af902718d" y="56.991721"/>
    </g>
    <g clip-path="url(#p16a9e6bea2)">
     <use style="fill:#ffb7bc;" x="226.45987" xlink:href="#C4_0_7af902718d" y="68.294321"/>
    </g>
    <g clip-path="url(#p16a9e6bea2)">
     <use style="fill:#ffb7bc;" x="230.275159" xlink:href="#C4_0_7af902718d" y="77.18102"/>
    </g>
    <g clip-path="url(#p16a9e6bea2)">
     <use style="fill:#ffb7bc;" x="224.813406" xlink:href="#C4_0_7af902718d" y="85.474454"/>
    </g>
    <g clip-path="url(#p16a9e6bea2)">
     <use style="fill:#ffb7bc;" x="227.125319" xlink:href="#C4_0_7af902718d" y="72.766647"/>
    </g>
    <g clip-path="url(#p16a9e6bea2)">
     <use style="fill:#ffb7bc;" x="226.273228" xlink:href="#C4_0_7af902718d" y="70.642687"/>
    </g>
   </g>
   <g id="PathCollection_6">
    <defs>
     <path d="M 0 2.5 
C 0.663008 2.5 1.29895 2.236584 1.767767 1.767767 
C 2.236584 1.29895 2.5 0.663008 2.5 -0 
C 2.5 -0.663008 2.236584 -1.29895 1.767767 -1.767767 
C 1.29895 -2.236584 0.663008 -2.5 0 -2.5 
C -0.663008 -2.5 -1.29895 -2.236584 -1.767767 -1.767767 
C -2.236584 -1.29895 -2.5 -0.663008 -2.5 0 
C -2.5 0.663008 -2.236584 1.29895 -1.767767 1.767767 
C -1.29895 2.236584 -0.663008 2.5 0 2.5 
z
" id="C5_0_cc6747a453"/>
    </defs>
    <g clip-path="url(#p16a9e6bea2)">
     <use style="fill:#bdc0ff;" x="255.34151" xlink:href="#C5_0_cc6747a453" y="55.900109"/>
    </g>
    <g clip-path="url(#p16a9e6bea2)">
     <use style="fill:#bdc0ff;" x="254.528943" xlink:href="#C5_0_cc6747a453" y="69.669623"/>
    </g>
    <g clip-path="url(#p16a9e6bea2)">
     <use style="fill:#bdc0ff;" x="254.684621" xlink:href="#C5_0_cc6747a453" y="73.290985"/>
    </g>
    <g clip-path="url(#p16a9e6bea2)">
     <use style="fill:#bdc0ff;" x="254.329112" xlink:href="#C5_0_cc6747a453" y="73.694341"/>
    </g>
    <g clip-path="url(#p16a9e6bea2)">
     <use style="fill:#bdc0ff;" x="253.134612" xlink:href="#C5_0_cc6747a453" y="59.456562"/>
    </g>
    <g clip-path="url(#p16a9e6bea2)">
     <use style="fill:#bdc0ff;" x="251.801711" xlink:href="#C5_0_cc6747a453" y="72.457982"/>
    </g>
    <g clip-path="url(#p16a9e6bea2)">
     <use style="fill:#bdc0ff;" x="254.113835" xlink:href="#C5_0_cc6747a453" y="68.559102"/>
    </g>
    <g clip-path="url(#p16a9e6bea2)">
     <use style="fill:#bdc0ff;" x="250.832169" xlink:href="#C5_0_cc6747a453" y="80.637331"/>
    </g>
    <g clip-path="url(#p16a9e6bea2)">
     <use style="fill:#bdc0ff;" x="253.616298" xlink:href="#C5_0_cc6747a453" y="69.513532"/>
    </g>
    <g clip-path="url(#p16a9e6bea2)">
     <use style="fill:#bdc0ff;" x="250.742975" xlink:href="#C5_0_cc6747a453" y="69.146336"/>
    </g>
   </g>
   <g id="PathCollection_7">
    <defs>
     <path d="M 0 2.5 
C 0.663008 2.5 1.29895 2.236584 1.767767 1.767767 
C 2.236584 1.29895 2.5 0.663008 2.5 -0 
C 2.5 -0.663008 2.236584 -1.29895 1.767767 -1.767767 
C 1.29895 -2.236584 0.663008 -2.5 0 -2.5 
C -0.663008 -2.5 -1.29895 -2.236584 -1.767767 -1.767767 
C -2.236584 -1.29895 -2.5 -0.663008 -2.5 0 
C -2.5 0.663008 -2.236584 1.29895 -1.767767 1.767767 
C -1.29895 2.236584 -0.663008 2.5 0 2.5 
z
" id="C6_0_a5b6627b17"/>
    </defs>
    <g clip-path="url(#p16a9e6bea2)">
     <use style="fill:#fbc5f4;" x="297.03621" xlink:href="#C6_0_a5b6627b17" y="193.576138"/>
    </g>
    <g clip-path="url(#p16a9e6bea2)">
     <use style="fill:#fbc5f4;" x="296.017577" xlink:href="#C6_0_a5b6627b17" y="215.029612"/>
    </g>
    <g clip-path="url(#p16a9e6bea2)">
     <use style="fill:#fbc5f4;" x="294.4705" xlink:href="#C6_0_a5b6627b17" y="206.757324"/>
    </g>
    <g clip-path="url(#p16a9e6bea2)">
     <use style="fill:#fbc5f4;" x="296.889927" xlink:href="#C6_0_a5b6627b17" y="187.547549"/>
    </g>
    <g clip-path="url(#p16a9e6bea2)">
     <use style="fill:#fbc5f4;" x="295.60308" xlink:href="#C6_0_a5b6627b17" y="180.90295"/>
    </g>
    <g clip-path="url(#p16a9e6bea2)">
     <use style="fill:#fbc5f4;" x="297.27123" xlink:href="#C6_0_a5b6627b17" y="210.113346"/>
    </g>
    <g clip-path="url(#p16a9e6bea2)">
     <use style="fill:#fbc5f4;" x="296.183867" xlink:href="#C6_0_a5b6627b17" y="201.055002"/>
    </g>
    <g clip-path="url(#p16a9e6bea2)">
     <use style="fill:#fbc5f4;" x="297.578555" xlink:href="#C6_0_a5b6627b17" y="218.88"/>
    </g>
    <g clip-path="url(#p16a9e6bea2)">
     <use style="fill:#fbc5f4;" x="300.081419" xlink:href="#C6_0_a5b6627b17" y="206.846581"/>
    </g>
    <g clip-path="url(#p16a9e6bea2)">
     <use style="fill:#fbc5f4;" x="296.614923" xlink:href="#C6_0_a5b6627b17" y="200.629048"/>
    </g>
   </g>
   <g id="PathCollection_8">
    <defs>
     <path d="M 0 2.5 
C 0.663008 2.5 1.29895 2.236584 1.767767 1.767767 
C 2.236584 1.29895 2.5 0.663008 2.5 -0 
C 2.5 -0.663008 2.236584 -1.29895 1.767767 -1.767767 
C 1.29895 -2.236584 0.663008 -2.5 0 -2.5 
C -0.663008 -2.5 -1.29895 -2.236584 -1.767767 -1.767767 
C -2.236584 -1.29895 -2.5 -0.663008 -2.5 0 
C -2.5 0.663008 -2.236584 1.29895 -1.767767 1.767767 
C -1.29895 2.236584 -0.663008 2.5 0 2.5 
z
" id="C7_0_3e6da30fe8"/>
    </defs>
    <g clip-path="url(#p16a9e6bea2)">
     <use style="fill:#ffb7bc;" x="320.414984" xlink:href="#C7_0_3e6da30fe8" y="181.646255"/>
    </g>
    <g clip-path="url(#p16a9e6bea2)">
     <use style="fill:#ffb7bc;" x="323.220964" xlink:href="#C7_0_3e6da30fe8" y="192.831325"/>
    </g>
    <g clip-path="url(#p16a9e6bea2)">
     <use style="fill:#ffb7bc;" x="325.268396" xlink:href="#C7_0_3e6da30fe8" y="193.418427"/>
    </g>
    <g clip-path="url(#p16a9e6bea2)">
     <use style="fill:#ffb7bc;" x="321.247081" xlink:href="#C7_0_3e6da30fe8" y="179.742438"/>
    </g>
    <g clip-path="url(#p16a9e6bea2)">
     <use style="fill:#ffb7bc;" x="322.264417" xlink:href="#C7_0_3e6da30fe8" y="186.351626"/>
    </g>
    <g clip-path="url(#p16a9e6bea2)">
     <use style="fill:#ffb7bc;" x="322.192433" xlink:href="#C7_0_3e6da30fe8" y="190.89251"/>
    </g>
    <g clip-path="url(#p16a9e6bea2)">
     <use style="fill:#ffb7bc;" x="321.883664" xlink:href="#C7_0_3e6da30fe8" y="200.043679"/>
    </g>
    <g clip-path="url(#p16a9e6bea2)">
     <use style="fill:#ffb7bc;" x="320.952309" xlink:href="#C7_0_3e6da30fe8" y="205.54526"/>
    </g>
    <g clip-path="url(#p16a9e6bea2)">
     <use style="fill:#ffb7bc;" x="322.404013" xlink:href="#C7_0_3e6da30fe8" y="196.952526"/>
    </g>
    <g clip-path="url(#p16a9e6bea2)">
     <use style="fill:#ffb7bc;" x="322.205836" xlink:href="#C7_0_3e6da30fe8" y="191.7231"/>
    </g>
   </g>
   <g id="PathCollection_9">
    <defs>
     <path d="M 0 2.5 
C 0.663008 2.5 1.29895 2.236584 1.767767 1.767767 
C 2.236584 1.29895 2.5 0.663008 2.5 -0 
C 2.5 -0.663008 2.236584 -1.29895 1.767767 -1.767767 
C 1.29895 -2.236584 0.663008 -2.5 0 -2.5 
C -0.663008 -2.5 -1.29895 -2.236584 -1.767767 -1.767767 
C -2.236584 -1.29895 -2.5 -0.663008 -2.5 0 
C -2.5 0.663008 -2.236584 1.29895 -1.767767 1.767767 
C -1.29895 2.236584 -0.663008 2.5 0 2.5 
z
" id="C8_0_8b5b1b7ab6"/>
    </defs>
    <g clip-path="url(#p16a9e6bea2)">
     <use style="fill:#bdc0ff;" x="345.699591" xlink:href="#C8_0_8b5b1b7ab6" y="180.014152"/>
    </g>
    <g clip-path="url(#p16a9e6bea2)">
     <use style="fill:#bdc0ff;" x="344.989758" xlink:href="#C8_0_8b5b1b7ab6" y="201.822698"/>
    </g>
    <g clip-path="url(#p16a9e6bea2)">
     <use style="fill:#bdc0ff;" x="349.604736" xlink:href="#C8_0_8b5b1b7ab6" y="203.247353"/>
    </g>
    <g clip-path="url(#p16a9e6bea2)">
     <use style="fill:#bdc0ff;" x="347.180695" xlink:href="#C8_0_8b5b1b7ab6" y="188.69006"/>
    </g>
    <g clip-path="url(#p16a9e6bea2)">
     <use style="fill:#bdc0ff;" x="349.86211" xlink:href="#C8_0_8b5b1b7ab6" y="181.68393"/>
    </g>
    <g clip-path="url(#p16a9e6bea2)">
     <use style="fill:#bdc0ff;" x="349.257947" xlink:href="#C8_0_8b5b1b7ab6" y="198.313181"/>
    </g>
    <g clip-path="url(#p16a9e6bea2)">
     <use style="fill:#bdc0ff;" x="347.243393" xlink:href="#C8_0_8b5b1b7ab6" y="198.595305"/>
    </g>
    <g clip-path="url(#p16a9e6bea2)">
     <use style="fill:#bdc0ff;" x="344.943128" xlink:href="#C8_0_8b5b1b7ab6" y="210.413494"/>
    </g>
    <g clip-path="url(#p16a9e6bea2)">
     <use style="fill:#bdc0ff;" x="347.549428" xlink:href="#C8_0_8b5b1b7ab6" y="201.965916"/>
    </g>
    <g clip-path="url(#p16a9e6bea2)">
     <use style="fill:#bdc0ff;" x="345.060279" xlink:href="#C8_0_8b5b1b7ab6" y="191.682177"/>
    </g>
   </g>
   <g id="patch_3">
    <path clip-path="url(#p16a9e6bea2)" d="M 95.261388 38.655831 
L 120.023954 38.655831 
L 120.023954 28.149688 
L 95.261388 28.149688 
L 95.261388 38.655831 
z
" style="fill:#f4ccef;stroke:#000000;stroke-linejoin:miter;"/>
   </g>
   <g id="patch_4">
    <path clip-path="url(#p16a9e6bea2)" d="M 120.529313 31.036205 
L 145.291879 31.036205 
L 145.291879 28.066266 
L 120.529313 28.066266 
L 120.529313 31.036205 
z
" style="fill:#f6c0c4;stroke:#000000;stroke-linejoin:miter;"/>
   </g>
   <g id="patch_5">
    <path clip-path="url(#p16a9e6bea2)" d="M 145.797237 33.406399 
L 170.559803 33.406399 
L 170.559803 26.607383 
L 145.797237 26.607383 
L 145.797237 33.406399 
z
" style="fill:#c5c7f7;stroke:#000000;stroke-linejoin:miter;"/>
   </g>
   <g id="patch_6">
    <path clip-path="url(#p16a9e6bea2)" d="M 190.016105 70.705917 
L 214.778671 70.705917 
L 214.778671 61.671656 
L 190.016105 61.671656 
L 190.016105 70.705917 
z
" style="fill:#f4ccef;stroke:#000000;stroke-linejoin:miter;"/>
   </g>
   <g id="patch_7">
    <path clip-path="url(#p16a9e6bea2)" d="M 215.284029 72.235657 
L 240.046596 72.235657 
L 240.046596 65.300203 
L 215.284029 65.300203 
L 215.284029 72.235657 
z
" style="fill:#f6c0c4;stroke:#000000;stroke-linejoin:miter;"/>
   </g>
   <g id="patch_8">
    <path clip-path="url(#p16a9e6bea2)" d="M 240.551954 73.082734 
L 265.31452 73.082734 
L 265.31452 68.70591 
L 240.551954 68.70591 
L 240.551954 73.082734 
z
" style="fill:#c5c7f7;stroke:#000000;stroke-linejoin:miter;"/>
   </g>
   <g id="patch_9">
    <path clip-path="url(#p16a9e6bea2)" d="M 284.770822 209.296655 
L 309.533388 209.296655 
L 309.533388 195.339365 
L 284.770822 195.339365 
L 284.770822 209.296655 
z
" style="fill:#f4ccef;stroke:#000000;stroke-linejoin:miter;"/>
   </g>
   <g id="patch_10">
    <path clip-path="url(#p16a9e6bea2)" d="M 310.038746 196.069001 
L 334.801312 196.069001 
L 334.801312 187.486847 
L 310.038746 187.486847 
L 310.038746 196.069001 
z
" style="fill:#f6c0c4;stroke:#000000;stroke-linejoin:miter;"/>
   </g>
   <g id="patch_11">
    <path clip-path="url(#p16a9e6bea2)" d="M 335.306671 201.930112 
L 360.069237 201.930112 
L 360.069237 189.438089 
L 335.306671 189.438089 
L 335.306671 201.930112 
z
" style="fill:#c5c7f7;stroke:#000000;stroke-linejoin:miter;"/>
   </g>
   <g id="PathCollection_10"/>
   <g id="PathCollection_11"/>
   <g id="PathCollection_12"/>
   <g id="patch_12">
    <path clip-path="url(#p16a9e6bea2)" d="M 132.910596 2692.792337 
L 132.910596 2692.792337 
L 132.910596 2692.792337 
L 132.910596 2692.792337 
z
" style="fill:#f4ccef;stroke:#838383;stroke-linejoin:miter;stroke-width:0.75;"/>
   </g>
   <g id="patch_13">
    <path clip-path="url(#p16a9e6bea2)" d="M 132.910596 2692.792337 
L 132.910596 2692.792337 
L 132.910596 2692.792337 
L 132.910596 2692.792337 
z
" style="fill:#f6c0c4;stroke:#838383;stroke-linejoin:miter;stroke-width:0.75;"/>
   </g>
   <g id="patch_14">
    <path clip-path="url(#p16a9e6bea2)" d="M 132.910596 2692.792337 
L 132.910596 2692.792337 
L 132.910596 2692.792337 
L 132.910596 2692.792337 
z
" style="fill:#c5c7f7;stroke:#838383;stroke-linejoin:miter;stroke-width:0.75;"/>
   </g>
   <g id="matplotlib.axis_1">
    <g id="xtick_1">
     <g id="line2d_1">
      <defs>
       <path d="M 0 0 
L 0 3.5 
" id="ma588bd2b28" style="stroke:#000000;stroke-width:1.5;"/>
      </defs>
      <g>
       <use style="stroke:#000000;stroke-width:1.5;" x="132.910596" xlink:href="#ma588bd2b28" y="228.96"/>
      </g>
     </g>
     <g id="text_1">
      <!-- Vowel -->
      <g transform="translate(114.230439 245.980937)scale(0.14 -0.14)">
       <defs>
        <path d="M 1803 0 
L 28 4581 
L 684 4581 
L 1875 1253 
Q 2019 853 2116 503 
Q 2222 878 2363 1253 
L 3600 4581 
L 4219 4581 
L 2425 0 
L 1803 0 
z
" id="ArialMT-56" transform="scale(0.015625)"/>
        <path d="M 213 1659 
Q 213 2581 725 3025 
Q 1153 3394 1769 3394 
Q 2453 3394 2887 2945 
Q 3322 2497 3322 1706 
Q 3322 1066 3130 698 
Q 2938 331 2570 128 
Q 2203 -75 1769 -75 
Q 1072 -75 642 372 
Q 213 819 213 1659 
z
M 791 1659 
Q 791 1022 1069 705 
Q 1347 388 1769 388 
Q 2188 388 2466 706 
Q 2744 1025 2744 1678 
Q 2744 2294 2464 2611 
Q 2184 2928 1769 2928 
Q 1347 2928 1069 2612 
Q 791 2297 791 1659 
z
" id="ArialMT-6f" transform="scale(0.015625)"/>
        <path d="M 1034 0 
L 19 3319 
L 600 3319 
L 1128 1403 
L 1325 691 
Q 1338 744 1497 1375 
L 2025 3319 
L 2603 3319 
L 3100 1394 
L 3266 759 
L 3456 1400 
L 4025 3319 
L 4572 3319 
L 3534 0 
L 2950 0 
L 2422 1988 
L 2294 2553 
L 1622 0 
L 1034 0 
z
" id="ArialMT-77" transform="scale(0.015625)"/>
        <path d="M 2694 1069 
L 3275 997 
Q 3138 488 2766 206 
Q 2394 -75 1816 -75 
Q 1088 -75 661 373 
Q 234 822 234 1631 
Q 234 2469 665 2931 
Q 1097 3394 1784 3394 
Q 2450 3394 2872 2941 
Q 3294 2488 3294 1666 
Q 3294 1616 3291 1516 
L 816 1516 
Q 847 969 1125 678 
Q 1403 388 1819 388 
Q 2128 388 2347 550 
Q 2566 713 2694 1069 
z
M 847 1978 
L 2700 1978 
Q 2663 2397 2488 2606 
Q 2219 2931 1791 2931 
Q 1403 2931 1139 2672 
Q 875 2413 847 1978 
z
" id="ArialMT-65" transform="scale(0.015625)"/>
        <path d="M 409 0 
L 409 4581 
L 972 4581 
L 972 0 
L 409 0 
z
" id="ArialMT-6c" transform="scale(0.015625)"/>
       </defs>
       <use xlink:href="#ArialMT-56"/>
       <use x="61.199219" xlink:href="#ArialMT-6f"/>
       <use x="116.814453" xlink:href="#ArialMT-77"/>
       <use x="189.03125" xlink:href="#ArialMT-65"/>
       <use x="244.646484" xlink:href="#ArialMT-6c"/>
      </g>
     </g>
    </g>
    <g id="xtick_2">
     <g id="line2d_2">
      <g>
       <use style="stroke:#000000;stroke-width:1.5;" x="227.665312" xlink:href="#ma588bd2b28" y="228.96"/>
      </g>
     </g>
     <g id="text_2">
      <!-- Position -->
      <g transform="translate(202.762812 245.980937)scale(0.14 -0.14)">
       <defs>
        <path d="M 494 0 
L 494 4581 
L 2222 4581 
Q 2678 4581 2919 4538 
Q 3256 4481 3484 4323 
Q 3713 4166 3852 3881 
Q 3991 3597 3991 3256 
Q 3991 2672 3619 2267 
Q 3247 1863 2275 1863 
L 1100 1863 
L 1100 0 
L 494 0 
z
M 1100 2403 
L 2284 2403 
Q 2872 2403 3119 2622 
Q 3366 2841 3366 3238 
Q 3366 3525 3220 3729 
Q 3075 3934 2838 4000 
Q 2684 4041 2272 4041 
L 1100 4041 
L 1100 2403 
z
" id="ArialMT-50" transform="scale(0.015625)"/>
        <path d="M 197 991 
L 753 1078 
Q 800 744 1014 566 
Q 1228 388 1613 388 
Q 2000 388 2187 545 
Q 2375 703 2375 916 
Q 2375 1106 2209 1216 
Q 2094 1291 1634 1406 
Q 1016 1563 777 1677 
Q 538 1791 414 1992 
Q 291 2194 291 2438 
Q 291 2659 392 2848 
Q 494 3038 669 3163 
Q 800 3259 1026 3326 
Q 1253 3394 1513 3394 
Q 1903 3394 2198 3281 
Q 2494 3169 2634 2976 
Q 2775 2784 2828 2463 
L 2278 2388 
Q 2241 2644 2061 2787 
Q 1881 2931 1553 2931 
Q 1166 2931 1000 2803 
Q 834 2675 834 2503 
Q 834 2394 903 2306 
Q 972 2216 1119 2156 
Q 1203 2125 1616 2013 
Q 2213 1853 2448 1751 
Q 2684 1650 2818 1456 
Q 2953 1263 2953 975 
Q 2953 694 2789 445 
Q 2625 197 2315 61 
Q 2006 -75 1616 -75 
Q 969 -75 630 194 
Q 291 463 197 991 
z
" id="ArialMT-73" transform="scale(0.015625)"/>
        <path d="M 425 3934 
L 425 4581 
L 988 4581 
L 988 3934 
L 425 3934 
z
M 425 0 
L 425 3319 
L 988 3319 
L 988 0 
L 425 0 
z
" id="ArialMT-69" transform="scale(0.015625)"/>
        <path d="M 1650 503 
L 1731 6 
Q 1494 -44 1306 -44 
Q 1000 -44 831 53 
Q 663 150 594 308 
Q 525 466 525 972 
L 525 2881 
L 113 2881 
L 113 3319 
L 525 3319 
L 525 4141 
L 1084 4478 
L 1084 3319 
L 1650 3319 
L 1650 2881 
L 1084 2881 
L 1084 941 
Q 1084 700 1114 631 
Q 1144 563 1211 522 
Q 1278 481 1403 481 
Q 1497 481 1650 503 
z
" id="ArialMT-74" transform="scale(0.015625)"/>
        <path d="M 422 0 
L 422 3319 
L 928 3319 
L 928 2847 
Q 1294 3394 1984 3394 
Q 2284 3394 2536 3286 
Q 2788 3178 2913 3003 
Q 3038 2828 3088 2588 
Q 3119 2431 3119 2041 
L 3119 0 
L 2556 0 
L 2556 2019 
Q 2556 2363 2490 2533 
Q 2425 2703 2258 2804 
Q 2091 2906 1866 2906 
Q 1506 2906 1245 2678 
Q 984 2450 984 1813 
L 984 0 
L 422 0 
z
" id="ArialMT-6e" transform="scale(0.015625)"/>
       </defs>
       <use xlink:href="#ArialMT-50"/>
       <use x="66.699219" xlink:href="#ArialMT-6f"/>
       <use x="122.314453" xlink:href="#ArialMT-73"/>
       <use x="172.314453" xlink:href="#ArialMT-69"/>
       <use x="194.53125" xlink:href="#ArialMT-74"/>
       <use x="222.314453" xlink:href="#ArialMT-69"/>
       <use x="244.53125" xlink:href="#ArialMT-6f"/>
       <use x="300.146484" xlink:href="#ArialMT-6e"/>
      </g>
     </g>
    </g>
    <g id="xtick_3">
     <g id="line2d_3">
      <g>
       <use style="stroke:#000000;stroke-width:1.5;" x="322.420029" xlink:href="#ma588bd2b28" y="228.96"/>
      </g>
     </g>
     <g id="text_3">
      <!-- Joint -->
      <g transform="translate(307.634717 245.980937)scale(0.14 -0.14)">
       <defs>
        <path d="M 184 1300 
L 731 1375 
Q 753 850 928 656 
Q 1103 463 1413 463 
Q 1641 463 1806 567 
Q 1972 672 2034 851 
Q 2097 1031 2097 1425 
L 2097 4581 
L 2703 4581 
L 2703 1459 
Q 2703 884 2564 568 
Q 2425 253 2123 87 
Q 1822 -78 1416 -78 
Q 813 -78 492 269 
Q 172 616 184 1300 
z
" id="ArialMT-4a" transform="scale(0.015625)"/>
       </defs>
       <use xlink:href="#ArialMT-4a"/>
       <use x="50" xlink:href="#ArialMT-6f"/>
       <use x="105.615234" xlink:href="#ArialMT-69"/>
       <use x="127.832031" xlink:href="#ArialMT-6e"/>
       <use x="183.447266" xlink:href="#ArialMT-74"/>
      </g>
     </g>
    </g>
    <g id="text_4">
     <!-- Task -->
     <g transform="translate(211.220313 264.215937)scale(0.16 -0.16)">
      <defs>
       <path d="M 1659 0 
L 1659 4041 
L 150 4041 
L 150 4581 
L 3781 4581 
L 3781 4041 
L 2266 4041 
L 2266 0 
L 1659 0 
z
" id="ArialMT-54" transform="scale(0.015625)"/>
       <path d="M 2588 409 
Q 2275 144 1986 34 
Q 1697 -75 1366 -75 
Q 819 -75 525 192 
Q 231 459 231 875 
Q 231 1119 342 1320 
Q 453 1522 633 1644 
Q 813 1766 1038 1828 
Q 1203 1872 1538 1913 
Q 2219 1994 2541 2106 
Q 2544 2222 2544 2253 
Q 2544 2597 2384 2738 
Q 2169 2928 1744 2928 
Q 1347 2928 1158 2789 
Q 969 2650 878 2297 
L 328 2372 
Q 403 2725 575 2942 
Q 747 3159 1072 3276 
Q 1397 3394 1825 3394 
Q 2250 3394 2515 3294 
Q 2781 3194 2906 3042 
Q 3031 2891 3081 2659 
Q 3109 2516 3109 2141 
L 3109 1391 
Q 3109 606 3145 398 
Q 3181 191 3288 0 
L 2700 0 
Q 2613 175 2588 409 
z
M 2541 1666 
Q 2234 1541 1622 1453 
Q 1275 1403 1131 1340 
Q 988 1278 909 1158 
Q 831 1038 831 891 
Q 831 666 1001 516 
Q 1172 366 1500 366 
Q 1825 366 2078 508 
Q 2331 650 2450 897 
Q 2541 1088 2541 1459 
L 2541 1666 
z
" id="ArialMT-61" transform="scale(0.015625)"/>
       <path d="M 425 0 
L 425 4581 
L 988 4581 
L 988 1969 
L 2319 3319 
L 3047 3319 
L 1778 2088 
L 3175 0 
L 2481 0 
L 1384 1697 
L 988 1316 
L 988 0 
L 425 0 
z
" id="ArialMT-6b" transform="scale(0.015625)"/>
      </defs>
      <use xlink:href="#ArialMT-54"/>
      <use x="49.958984" xlink:href="#ArialMT-61"/>
      <use x="105.574219" xlink:href="#ArialMT-73"/>
      <use x="155.574219" xlink:href="#ArialMT-6b"/>
     </g>
    </g>
   </g>
   <g id="matplotlib.axis_2">
    <g id="ytick_1">
     <g id="line2d_4">
      <defs>
       <path d="M 0 0 
L -3.5 0 
" id="m63b59d6de1" style="stroke:#000000;stroke-width:1.5;"/>
      </defs>
      <g>
       <use style="stroke:#000000;stroke-width:1.5;" x="60.265313" xlink:href="#m63b59d6de1" y="219.058394"/>
      </g>
     </g>
     <g id="text_5">
      <!-- 0.88 -->
      <g transform="translate(26.02 224.068863)scale(0.14 -0.14)">
       <defs>
        <path d="M 266 2259 
Q 266 3072 433 3567 
Q 600 4063 929 4331 
Q 1259 4600 1759 4600 
Q 2128 4600 2406 4451 
Q 2684 4303 2865 4023 
Q 3047 3744 3150 3342 
Q 3253 2941 3253 2259 
Q 3253 1453 3087 958 
Q 2922 463 2592 192 
Q 2263 -78 1759 -78 
Q 1097 -78 719 397 
Q 266 969 266 2259 
z
M 844 2259 
Q 844 1131 1108 757 
Q 1372 384 1759 384 
Q 2147 384 2411 759 
Q 2675 1134 2675 2259 
Q 2675 3391 2411 3762 
Q 2147 4134 1753 4134 
Q 1366 4134 1134 3806 
Q 844 3388 844 2259 
z
" id="ArialMT-30" transform="scale(0.015625)"/>
        <path d="M 581 0 
L 581 641 
L 1222 641 
L 1222 0 
L 581 0 
z
" id="ArialMT-2e" transform="scale(0.015625)"/>
        <path d="M 1131 2484 
Q 781 2613 612 2850 
Q 444 3088 444 3419 
Q 444 3919 803 4259 
Q 1163 4600 1759 4600 
Q 2359 4600 2725 4251 
Q 3091 3903 3091 3403 
Q 3091 3084 2923 2848 
Q 2756 2613 2416 2484 
Q 2838 2347 3058 2040 
Q 3278 1734 3278 1309 
Q 3278 722 2862 322 
Q 2447 -78 1769 -78 
Q 1091 -78 675 323 
Q 259 725 259 1325 
Q 259 1772 486 2073 
Q 713 2375 1131 2484 
z
M 1019 3438 
Q 1019 3113 1228 2906 
Q 1438 2700 1772 2700 
Q 2097 2700 2305 2904 
Q 2513 3109 2513 3406 
Q 2513 3716 2298 3927 
Q 2084 4138 1766 4138 
Q 1444 4138 1231 3931 
Q 1019 3725 1019 3438 
z
M 838 1322 
Q 838 1081 952 856 
Q 1066 631 1291 507 
Q 1516 384 1775 384 
Q 2178 384 2440 643 
Q 2703 903 2703 1303 
Q 2703 1709 2433 1975 
Q 2163 2241 1756 2241 
Q 1359 2241 1098 1978 
Q 838 1716 838 1322 
z
" id="ArialMT-38" transform="scale(0.015625)"/>
       </defs>
       <use xlink:href="#ArialMT-30"/>
       <use x="55.615234" xlink:href="#ArialMT-2e"/>
       <use x="83.398438" xlink:href="#ArialMT-38"/>
       <use x="139.013672" xlink:href="#ArialMT-38"/>
      </g>
     </g>
    </g>
    <g id="ytick_2">
     <g id="line2d_5">
      <g>
       <use style="stroke:#000000;stroke-width:1.5;" x="60.265313" xlink:href="#m63b59d6de1" y="162.837168"/>
      </g>
     </g>
     <g id="text_6">
      <!-- 0.90 -->
      <g transform="translate(26.02 167.847637)scale(0.14 -0.14)">
       <defs>
        <path d="M 350 1059 
L 891 1109 
Q 959 728 1153 556 
Q 1347 384 1650 384 
Q 1909 384 2104 503 
Q 2300 622 2425 820 
Q 2550 1019 2634 1356 
Q 2719 1694 2719 2044 
Q 2719 2081 2716 2156 
Q 2547 1888 2255 1720 
Q 1963 1553 1622 1553 
Q 1053 1553 659 1965 
Q 266 2378 266 3053 
Q 266 3750 677 4175 
Q 1088 4600 1706 4600 
Q 2153 4600 2523 4359 
Q 2894 4119 3086 3673 
Q 3278 3228 3278 2384 
Q 3278 1506 3087 986 
Q 2897 466 2520 194 
Q 2144 -78 1638 -78 
Q 1100 -78 759 220 
Q 419 519 350 1059 
z
M 2653 3081 
Q 2653 3566 2395 3850 
Q 2138 4134 1775 4134 
Q 1400 4134 1122 3828 
Q 844 3522 844 3034 
Q 844 2597 1108 2323 
Q 1372 2050 1759 2050 
Q 2150 2050 2401 2323 
Q 2653 2597 2653 3081 
z
" id="ArialMT-39" transform="scale(0.015625)"/>
       </defs>
       <use xlink:href="#ArialMT-30"/>
       <use x="55.615234" xlink:href="#ArialMT-2e"/>
       <use x="83.398438" xlink:href="#ArialMT-39"/>
       <use x="139.013672" xlink:href="#ArialMT-30"/>
      </g>
     </g>
    </g>
    <g id="ytick_3">
     <g id="line2d_6">
      <g>
       <use style="stroke:#000000;stroke-width:1.5;" x="60.265313" xlink:href="#m63b59d6de1" y="106.615942"/>
      </g>
     </g>
     <g id="text_7">
      <!-- 0.92 -->
      <g transform="translate(26.02 111.626411)scale(0.14 -0.14)">
       <defs>
        <path d="M 3222 541 
L 3222 0 
L 194 0 
Q 188 203 259 391 
Q 375 700 629 1000 
Q 884 1300 1366 1694 
Q 2113 2306 2375 2664 
Q 2638 3022 2638 3341 
Q 2638 3675 2398 3904 
Q 2159 4134 1775 4134 
Q 1369 4134 1125 3890 
Q 881 3647 878 3216 
L 300 3275 
Q 359 3922 746 4261 
Q 1134 4600 1788 4600 
Q 2447 4600 2831 4234 
Q 3216 3869 3216 3328 
Q 3216 3053 3103 2787 
Q 2991 2522 2730 2228 
Q 2469 1934 1863 1422 
Q 1356 997 1212 845 
Q 1069 694 975 541 
L 3222 541 
z
" id="ArialMT-32" transform="scale(0.015625)"/>
       </defs>
       <use xlink:href="#ArialMT-30"/>
       <use x="55.615234" xlink:href="#ArialMT-2e"/>
       <use x="83.398438" xlink:href="#ArialMT-39"/>
       <use x="139.013672" xlink:href="#ArialMT-32"/>
      </g>
     </g>
    </g>
    <g id="ytick_4">
     <g id="line2d_7">
      <g>
       <use style="stroke:#000000;stroke-width:1.5;" x="60.265313" xlink:href="#m63b59d6de1" y="50.394716"/>
      </g>
     </g>
     <g id="text_8">
      <!-- 0.94 -->
      <g transform="translate(26.02 55.405185)scale(0.14 -0.14)">
       <defs>
        <path d="M 2069 0 
L 2069 1097 
L 81 1097 
L 81 1613 
L 2172 4581 
L 2631 4581 
L 2631 1613 
L 3250 1613 
L 3250 1097 
L 2631 1097 
L 2631 0 
L 2069 0 
z
M 2069 1613 
L 2069 3678 
L 634 1613 
L 2069 1613 
z
" id="ArialMT-34" transform="scale(0.015625)"/>
       </defs>
       <use xlink:href="#ArialMT-30"/>
       <use x="55.615234" xlink:href="#ArialMT-2e"/>
       <use x="83.398438" xlink:href="#ArialMT-39"/>
       <use x="139.013672" xlink:href="#ArialMT-34"/>
      </g>
     </g>
    </g>
    <g id="text_9">
     <!-- Accuracy -->
     <g transform="translate(18.6525 150.9775)rotate(-90)scale(0.16 -0.16)">
      <defs>
       <path d="M -9 0 
L 1750 4581 
L 2403 4581 
L 4278 0 
L 3588 0 
L 3053 1388 
L 1138 1388 
L 634 0 
L -9 0 
z
M 1313 1881 
L 2866 1881 
L 2388 3150 
Q 2169 3728 2063 4100 
Q 1975 3659 1816 3225 
L 1313 1881 
z
" id="ArialMT-41" transform="scale(0.015625)"/>
       <path d="M 2588 1216 
L 3141 1144 
Q 3050 572 2676 248 
Q 2303 -75 1759 -75 
Q 1078 -75 664 370 
Q 250 816 250 1647 
Q 250 2184 428 2587 
Q 606 2991 970 3192 
Q 1334 3394 1763 3394 
Q 2303 3394 2647 3120 
Q 2991 2847 3088 2344 
L 2541 2259 
Q 2463 2594 2264 2762 
Q 2066 2931 1784 2931 
Q 1359 2931 1093 2626 
Q 828 2322 828 1663 
Q 828 994 1084 691 
Q 1341 388 1753 388 
Q 2084 388 2306 591 
Q 2528 794 2588 1216 
z
" id="ArialMT-63" transform="scale(0.015625)"/>
       <path d="M 2597 0 
L 2597 488 
Q 2209 -75 1544 -75 
Q 1250 -75 995 37 
Q 741 150 617 320 
Q 494 491 444 738 
Q 409 903 409 1263 
L 409 3319 
L 972 3319 
L 972 1478 
Q 972 1038 1006 884 
Q 1059 663 1231 536 
Q 1403 409 1656 409 
Q 1909 409 2131 539 
Q 2353 669 2445 892 
Q 2538 1116 2538 1541 
L 2538 3319 
L 3100 3319 
L 3100 0 
L 2597 0 
z
" id="ArialMT-75" transform="scale(0.015625)"/>
       <path d="M 416 0 
L 416 3319 
L 922 3319 
L 922 2816 
Q 1116 3169 1280 3281 
Q 1444 3394 1641 3394 
Q 1925 3394 2219 3213 
L 2025 2691 
Q 1819 2813 1613 2813 
Q 1428 2813 1281 2702 
Q 1134 2591 1072 2394 
Q 978 2094 978 1738 
L 978 0 
L 416 0 
z
" id="ArialMT-72" transform="scale(0.015625)"/>
       <path d="M 397 -1278 
L 334 -750 
Q 519 -800 656 -800 
Q 844 -800 956 -737 
Q 1069 -675 1141 -563 
Q 1194 -478 1313 -144 
Q 1328 -97 1363 -6 
L 103 3319 
L 709 3319 
L 1400 1397 
Q 1534 1031 1641 628 
Q 1738 1016 1872 1384 
L 2581 3319 
L 3144 3319 
L 1881 -56 
Q 1678 -603 1566 -809 
Q 1416 -1088 1222 -1217 
Q 1028 -1347 759 -1347 
Q 597 -1347 397 -1278 
z
" id="ArialMT-79" transform="scale(0.015625)"/>
      </defs>
      <use xlink:href="#ArialMT-41"/>
      <use x="66.699219" xlink:href="#ArialMT-63"/>
      <use x="116.699219" xlink:href="#ArialMT-63"/>
      <use x="166.699219" xlink:href="#ArialMT-75"/>
      <use x="222.314453" xlink:href="#ArialMT-72"/>
      <use x="255.615234" xlink:href="#ArialMT-61"/>
      <use x="311.230469" xlink:href="#ArialMT-63"/>
      <use x="361.230469" xlink:href="#ArialMT-79"/>
     </g>
    </g>
   </g>
   <g id="line2d_8">
    <path clip-path="url(#p16a9e6bea2)" d="M 107.642671 38.655831 
L 107.642671 39.553147 
" style="fill:none;stroke:#000000;stroke-linecap:square;"/>
   </g>
   <g id="line2d_9">
    <path clip-path="url(#p16a9e6bea2)" d="M 107.642671 28.149688 
L 107.642671 20.275078 
" style="fill:none;stroke:#000000;stroke-linecap:square;"/>
   </g>
   <g id="line2d_10">
    <path clip-path="url(#p16a9e6bea2)" d="M 101.452029 39.553147 
L 113.833312 39.553147 
" style="fill:none;stroke:#000000;stroke-linecap:square;"/>
   </g>
   <g id="line2d_11">
    <path clip-path="url(#p16a9e6bea2)" d="M 101.452029 20.275078 
L 113.833312 20.275078 
" style="fill:none;stroke:#000000;stroke-linecap:square;"/>
   </g>
   <g id="line2d_12">
    <path clip-path="url(#p16a9e6bea2)" d="M 132.910596 31.036205 
L 132.910596 35.478022 
" style="fill:none;stroke:#000000;stroke-linecap:square;"/>
   </g>
   <g id="line2d_13">
    <path clip-path="url(#p16a9e6bea2)" d="M 132.910596 28.066266 
L 132.910596 24.770953 
" style="fill:none;stroke:#000000;stroke-linecap:square;"/>
   </g>
   <g id="line2d_14">
    <path clip-path="url(#p16a9e6bea2)" d="M 126.719954 35.478022 
L 139.101237 35.478022 
" style="fill:none;stroke:#000000;stroke-linecap:square;"/>
   </g>
   <g id="line2d_15">
    <path clip-path="url(#p16a9e6bea2)" d="M 126.719954 24.770953 
L 139.101237 24.770953 
" style="fill:none;stroke:#000000;stroke-linecap:square;"/>
   </g>
   <g id="line2d_16">
    <path clip-path="url(#p16a9e6bea2)" d="M 158.17852 33.406399 
L 158.17852 38.470208 
" style="fill:none;stroke:#000000;stroke-linecap:square;"/>
   </g>
   <g id="line2d_17">
    <path clip-path="url(#p16a9e6bea2)" d="M 158.17852 26.607383 
L 158.17852 19.208398 
" style="fill:none;stroke:#000000;stroke-linecap:square;"/>
   </g>
   <g id="line2d_18">
    <path clip-path="url(#p16a9e6bea2)" d="M 151.987879 38.470208 
L 164.369162 38.470208 
" style="fill:none;stroke:#000000;stroke-linecap:square;"/>
   </g>
   <g id="line2d_19">
    <path clip-path="url(#p16a9e6bea2)" d="M 151.987879 19.208398 
L 164.369162 19.208398 
" style="fill:none;stroke:#000000;stroke-linecap:square;"/>
   </g>
   <g id="line2d_20">
    <path clip-path="url(#p16a9e6bea2)" d="M 202.397388 70.705917 
L 202.397388 83.959232 
" style="fill:none;stroke:#000000;stroke-linecap:square;"/>
   </g>
   <g id="line2d_21">
    <path clip-path="url(#p16a9e6bea2)" d="M 202.397388 61.671656 
L 202.397388 53.283552 
" style="fill:none;stroke:#000000;stroke-linecap:square;"/>
   </g>
   <g id="line2d_22">
    <path clip-path="url(#p16a9e6bea2)" d="M 196.206746 83.959232 
L 208.588029 83.959232 
" style="fill:none;stroke:#000000;stroke-linecap:square;"/>
   </g>
   <g id="line2d_23">
    <path clip-path="url(#p16a9e6bea2)" d="M 196.206746 53.283552 
L 208.588029 53.283552 
" style="fill:none;stroke:#000000;stroke-linecap:square;"/>
   </g>
   <g id="line2d_24">
    <path clip-path="url(#p16a9e6bea2)" d="M 227.665312 72.235657 
L 227.665312 77.18102 
" style="fill:none;stroke:#000000;stroke-linecap:square;"/>
   </g>
   <g id="line2d_25">
    <path clip-path="url(#p16a9e6bea2)" d="M 227.665312 65.300203 
L 227.665312 56.991721 
" style="fill:none;stroke:#000000;stroke-linecap:square;"/>
   </g>
   <g id="line2d_26">
    <path clip-path="url(#p16a9e6bea2)" d="M 221.474671 77.18102 
L 233.855954 77.18102 
" style="fill:none;stroke:#000000;stroke-linecap:square;"/>
   </g>
   <g id="line2d_27">
    <path clip-path="url(#p16a9e6bea2)" d="M 221.474671 56.991721 
L 233.855954 56.991721 
" style="fill:none;stroke:#000000;stroke-linecap:square;"/>
   </g>
   <g id="line2d_28">
    <path clip-path="url(#p16a9e6bea2)" d="M 252.933237 73.082734 
L 252.933237 73.694341 
" style="fill:none;stroke:#000000;stroke-linecap:square;"/>
   </g>
   <g id="line2d_29">
    <path clip-path="url(#p16a9e6bea2)" d="M 252.933237 68.70591 
L 252.933237 68.559102 
" style="fill:none;stroke:#000000;stroke-linecap:square;"/>
   </g>
   <g id="line2d_30">
    <path clip-path="url(#p16a9e6bea2)" d="M 246.742596 73.694341 
L 259.123879 73.694341 
" style="fill:none;stroke:#000000;stroke-linecap:square;"/>
   </g>
   <g id="line2d_31">
    <path clip-path="url(#p16a9e6bea2)" d="M 246.742596 68.559102 
L 259.123879 68.559102 
" style="fill:none;stroke:#000000;stroke-linecap:square;"/>
   </g>
   <g id="line2d_32">
    <path clip-path="url(#p16a9e6bea2)" d="M 297.152105 209.296655 
L 297.152105 218.88 
" style="fill:none;stroke:#000000;stroke-linecap:square;"/>
   </g>
   <g id="line2d_33">
    <path clip-path="url(#p16a9e6bea2)" d="M 297.152105 195.339365 
L 297.152105 180.90295 
" style="fill:none;stroke:#000000;stroke-linecap:square;"/>
   </g>
   <g id="line2d_34">
    <path clip-path="url(#p16a9e6bea2)" d="M 290.961463 218.88 
L 303.342746 218.88 
" style="fill:none;stroke:#000000;stroke-linecap:square;"/>
   </g>
   <g id="line2d_35">
    <path clip-path="url(#p16a9e6bea2)" d="M 290.961463 180.90295 
L 303.342746 180.90295 
" style="fill:none;stroke:#000000;stroke-linecap:square;"/>
   </g>
   <g id="line2d_36">
    <path clip-path="url(#p16a9e6bea2)" d="M 322.420029 196.069001 
L 322.420029 205.54526 
" style="fill:none;stroke:#000000;stroke-linecap:square;"/>
   </g>
   <g id="line2d_37">
    <path clip-path="url(#p16a9e6bea2)" d="M 322.420029 187.486847 
L 322.420029 179.742438 
" style="fill:none;stroke:#000000;stroke-linecap:square;"/>
   </g>
   <g id="line2d_38">
    <path clip-path="url(#p16a9e6bea2)" d="M 316.229388 205.54526 
L 328.610671 205.54526 
" style="fill:none;stroke:#000000;stroke-linecap:square;"/>
   </g>
   <g id="line2d_39">
    <path clip-path="url(#p16a9e6bea2)" d="M 316.229388 179.742438 
L 328.610671 179.742438 
" style="fill:none;stroke:#000000;stroke-linecap:square;"/>
   </g>
   <g id="line2d_40">
    <path clip-path="url(#p16a9e6bea2)" d="M 347.687954 201.930112 
L 347.687954 210.413494 
" style="fill:none;stroke:#000000;stroke-linecap:square;"/>
   </g>
   <g id="line2d_41">
    <path clip-path="url(#p16a9e6bea2)" d="M 347.687954 189.438089 
L 347.687954 180.014152 
" style="fill:none;stroke:#000000;stroke-linecap:square;"/>
   </g>
   <g id="line2d_42">
    <path clip-path="url(#p16a9e6bea2)" d="M 341.497313 210.413494 
L 353.878596 210.413494 
" style="fill:none;stroke:#000000;stroke-linecap:square;"/>
   </g>
   <g id="line2d_43">
    <path clip-path="url(#p16a9e6bea2)" d="M 341.497313 180.014152 
L 353.878596 180.014152 
" style="fill:none;stroke:#000000;stroke-linecap:square;"/>
   </g>
   <g id="line2d_44">
    <path d="M 297.152105 166.436838 
L 297.152105 162.001638 
L 322.420029 162.001638 
L 322.420029 166.436838 
" style="fill:none;stroke:#333333;stroke-linecap:square;stroke-width:1.5;"/>
   </g>
   <g id="line2d_45">
    <path d="M 297.152105 132.641638 
L 297.152105 128.206438 
L 347.687954 128.206438 
L 347.687954 132.641638 
" style="fill:none;stroke:#333333;stroke-linecap:square;stroke-width:1.5;"/>
   </g>
   <g id="line2d_46">
    <path clip-path="url(#p16a9e6bea2)" d="M 95.261388 33.199959 
L 120.023954 33.199959 
" style="fill:none;stroke:#000000;stroke-linecap:square;"/>
   </g>
   <g id="line2d_47">
    <path clip-path="url(#p16a9e6bea2)" d="M 120.529313 29.63263 
L 145.291879 29.63263 
" style="fill:none;stroke:#000000;stroke-linecap:square;"/>
   </g>
   <g id="line2d_48">
    <path clip-path="url(#p16a9e6bea2)" d="M 145.797237 31.436387 
L 170.559803 31.436387 
" style="fill:none;stroke:#000000;stroke-linecap:square;"/>
   </g>
   <g id="line2d_49">
    <path clip-path="url(#p16a9e6bea2)" d="M 190.016105 66.913162 
L 214.778671 66.913162 
" style="fill:none;stroke:#000000;stroke-linecap:square;"/>
   </g>
   <g id="line2d_50">
    <path clip-path="url(#p16a9e6bea2)" d="M 215.284029 68.242615 
L 240.046596 68.242615 
" style="fill:none;stroke:#000000;stroke-linecap:square;"/>
   </g>
   <g id="line2d_51">
    <path clip-path="url(#p16a9e6bea2)" d="M 240.551954 69.591578 
L 265.31452 69.591578 
" style="fill:none;stroke:#000000;stroke-linecap:square;"/>
   </g>
   <g id="line2d_52">
    <path clip-path="url(#p16a9e6bea2)" d="M 284.770822 203.906163 
L 309.533388 203.906163 
" style="fill:none;stroke:#000000;stroke-linecap:square;"/>
   </g>
   <g id="line2d_53">
    <path clip-path="url(#p16a9e6bea2)" d="M 310.038746 192.277213 
L 334.801312 192.277213 
" style="fill:none;stroke:#000000;stroke-linecap:square;"/>
   </g>
   <g id="line2d_54">
    <path clip-path="url(#p16a9e6bea2)" d="M 335.306671 198.454243 
L 360.069237 198.454243 
" style="fill:none;stroke:#000000;stroke-linecap:square;"/>
   </g>
   <g id="patch_15">
    <path d="M 60.265313 228.96 
L 60.265313 7.2 
" style="fill:none;stroke:#000000;stroke-linecap:square;stroke-linejoin:miter;stroke-width:1.5;"/>
   </g>
   <g id="patch_16">
    <path d="M 60.265312 228.96 
L 395.065313 228.96 
" style="fill:none;stroke:#000000;stroke-linecap:square;stroke-linejoin:miter;stroke-width:1.5;"/>
   </g>
   <g id="text_10">
    <!-- ** -->
    <g transform="translate(303.947786 158.020388)scale(0.15 -0.15)">
     <defs>
      <path d="M 200 3741 
L 344 4184 
Q 841 4009 1066 3881 
Q 1006 4447 1003 4659 
L 1456 4659 
Q 1447 4350 1384 3884 
Q 1706 4047 2122 4184 
L 2266 3741 
Q 1869 3609 1488 3566 
Q 1678 3400 2025 2975 
L 1650 2709 
Q 1469 2956 1222 3381 
Q 991 2941 816 2709 
L 447 2975 
Q 809 3422 966 3566 
Q 563 3644 200 3741 
z
" id="ArialMT-2a" transform="scale(0.015625)"/>
     </defs>
     <use xlink:href="#ArialMT-2a"/>
     <use x="38.916016" xlink:href="#ArialMT-2a"/>
    </g>
   </g>
   <g id="text_11">
    <!-- ** -->
    <g transform="translate(316.581748 124.225188)scale(0.15 -0.15)">
     <use xlink:href="#ArialMT-2a"/>
     <use x="38.916016" xlink:href="#ArialMT-2a"/>
    </g>
   </g>
   <g id="legend_1">
    <g id="patch_17">
     <path d="M 68.665313 222.96 
L 187.084688 222.96 
Q 189.484688 222.96 189.484688 220.56 
L 189.484688 170.40375 
Q 189.484688 168.00375 187.084688 168.00375 
L 68.665313 168.00375 
Q 66.265313 168.00375 66.265313 170.40375 
L 66.265313 220.56 
Q 66.265313 222.96 68.665313 222.96 
z
" style="fill:#ffffff;opacity:0.8;stroke:#cccccc;stroke-linejoin:miter;"/>
    </g>
    <g id="patch_18">
     <path d="M 71.065313 181.539375 
L 95.065313 181.539375 
L 95.065313 173.139375 
L 71.065313 173.139375 
z
" style="fill:#f4ccef;stroke:#838383;stroke-linejoin:miter;stroke-width:0.75;"/>
    </g>
    <g id="text_12">
     <!-- Sequential -->
     <g transform="translate(104.665312 181.539375)scale(0.12 -0.12)">
      <defs>
       <path d="M 288 1472 
L 859 1522 
Q 900 1178 1048 958 
Q 1197 738 1509 602 
Q 1822 466 2213 466 
Q 2559 466 2825 569 
Q 3091 672 3220 851 
Q 3350 1031 3350 1244 
Q 3350 1459 3225 1620 
Q 3100 1781 2813 1891 
Q 2628 1963 1997 2114 
Q 1366 2266 1113 2400 
Q 784 2572 623 2826 
Q 463 3081 463 3397 
Q 463 3744 659 4045 
Q 856 4347 1234 4503 
Q 1613 4659 2075 4659 
Q 2584 4659 2973 4495 
Q 3363 4331 3572 4012 
Q 3781 3694 3797 3291 
L 3216 3247 
Q 3169 3681 2898 3903 
Q 2628 4125 2100 4125 
Q 1550 4125 1298 3923 
Q 1047 3722 1047 3438 
Q 1047 3191 1225 3031 
Q 1400 2872 2139 2705 
Q 2878 2538 3153 2413 
Q 3553 2228 3743 1945 
Q 3934 1663 3934 1294 
Q 3934 928 3725 604 
Q 3516 281 3123 101 
Q 2731 -78 2241 -78 
Q 1619 -78 1198 103 
Q 778 284 539 648 
Q 300 1013 288 1472 
z
" id="ArialMT-53" transform="scale(0.015625)"/>
       <path d="M 2538 -1272 
L 2538 353 
Q 2406 169 2170 47 
Q 1934 -75 1669 -75 
Q 1078 -75 651 397 
Q 225 869 225 1691 
Q 225 2191 398 2587 
Q 572 2984 901 3189 
Q 1231 3394 1625 3394 
Q 2241 3394 2594 2875 
L 2594 3319 
L 3100 3319 
L 3100 -1272 
L 2538 -1272 
z
M 803 1669 
Q 803 1028 1072 708 
Q 1341 388 1716 388 
Q 2075 388 2334 692 
Q 2594 997 2594 1619 
Q 2594 2281 2320 2615 
Q 2047 2950 1678 2950 
Q 1313 2950 1058 2639 
Q 803 2328 803 1669 
z
" id="ArialMT-71" transform="scale(0.015625)"/>
      </defs>
      <use xlink:href="#ArialMT-53"/>
      <use x="66.699219" xlink:href="#ArialMT-65"/>
      <use x="122.314453" xlink:href="#ArialMT-71"/>
      <use x="177.929688" xlink:href="#ArialMT-75"/>
      <use x="233.544922" xlink:href="#ArialMT-65"/>
      <use x="289.160156" xlink:href="#ArialMT-6e"/>
      <use x="344.775391" xlink:href="#ArialMT-74"/>
      <use x="372.558594" xlink:href="#ArialMT-69"/>
      <use x="394.775391" xlink:href="#ArialMT-61"/>
      <use x="450.390625" xlink:href="#ArialMT-6c"/>
     </g>
    </g>
    <g id="patch_19">
     <path d="M 71.065313 198.51375 
L 95.065313 198.51375 
L 95.065313 190.11375 
L 71.065313 190.11375 
z
" style="fill:#f6c0c4;stroke:#838383;stroke-linejoin:miter;stroke-width:0.75;"/>
    </g>
    <g id="text_13">
     <!-- Parallel -->
     <g transform="translate(104.665312 198.51375)scale(0.12 -0.12)">
      <use xlink:href="#ArialMT-50"/>
      <use x="66.699219" xlink:href="#ArialMT-61"/>
      <use x="122.314453" xlink:href="#ArialMT-72"/>
      <use x="155.615234" xlink:href="#ArialMT-61"/>
      <use x="211.230469" xlink:href="#ArialMT-6c"/>
      <use x="233.447266" xlink:href="#ArialMT-6c"/>
      <use x="255.664062" xlink:href="#ArialMT-65"/>
      <use x="311.279297" xlink:href="#ArialMT-6c"/>
     </g>
    </g>
    <g id="patch_20">
     <path d="M 71.065313 215.634375 
L 95.065313 215.634375 
L 95.065313 207.234375 
L 71.065313 207.234375 
z
" style="fill:#c5c7f7;stroke:#838383;stroke-linejoin:miter;stroke-width:0.75;"/>
    </g>
    <g id="text_14">
     <!-- Task-Switching -->
     <g transform="translate(104.665312 215.634375)scale(0.12 -0.12)">
      <defs>
       <path d="M 203 1375 
L 203 1941 
L 1931 1941 
L 1931 1375 
L 203 1375 
z
" id="ArialMT-2d" transform="scale(0.015625)"/>
       <path d="M 422 0 
L 422 4581 
L 984 4581 
L 984 2938 
Q 1378 3394 1978 3394 
Q 2347 3394 2619 3248 
Q 2891 3103 3008 2847 
Q 3125 2591 3125 2103 
L 3125 0 
L 2563 0 
L 2563 2103 
Q 2563 2525 2380 2717 
Q 2197 2909 1863 2909 
Q 1613 2909 1392 2779 
Q 1172 2650 1078 2428 
Q 984 2206 984 1816 
L 984 0 
L 422 0 
z
" id="ArialMT-68" transform="scale(0.015625)"/>
       <path d="M 319 -275 
L 866 -356 
Q 900 -609 1056 -725 
Q 1266 -881 1628 -881 
Q 2019 -881 2231 -725 
Q 2444 -569 2519 -288 
Q 2563 -116 2559 434 
Q 2191 0 1641 0 
Q 956 0 581 494 
Q 206 988 206 1678 
Q 206 2153 378 2554 
Q 550 2956 876 3175 
Q 1203 3394 1644 3394 
Q 2231 3394 2613 2919 
L 2613 3319 
L 3131 3319 
L 3131 450 
Q 3131 -325 2973 -648 
Q 2816 -972 2473 -1159 
Q 2131 -1347 1631 -1347 
Q 1038 -1347 672 -1080 
Q 306 -813 319 -275 
z
M 784 1719 
Q 784 1066 1043 766 
Q 1303 466 1694 466 
Q 2081 466 2343 764 
Q 2606 1063 2606 1700 
Q 2606 2309 2336 2618 
Q 2066 2928 1684 2928 
Q 1309 2928 1046 2623 
Q 784 2319 784 1719 
z
" id="ArialMT-67" transform="scale(0.015625)"/>
      </defs>
      <use xlink:href="#ArialMT-54"/>
      <use x="49.958984" xlink:href="#ArialMT-61"/>
      <use x="105.574219" xlink:href="#ArialMT-73"/>
      <use x="155.574219" xlink:href="#ArialMT-6b"/>
      <use x="205.574219" xlink:href="#ArialMT-2d"/>
      <use x="238.875" xlink:href="#ArialMT-53"/>
      <use x="305.574219" xlink:href="#ArialMT-77"/>
      <use x="377.791016" xlink:href="#ArialMT-69"/>
      <use x="400.007812" xlink:href="#ArialMT-74"/>
      <use x="427.791016" xlink:href="#ArialMT-63"/>
      <use x="477.791016" xlink:href="#ArialMT-68"/>
      <use x="533.40625" xlink:href="#ArialMT-69"/>
      <use x="555.623047" xlink:href="#ArialMT-6e"/>
      <use x="611.238281" xlink:href="#ArialMT-67"/>
     </g>
    </g>
   </g>
  </g>
 </g>
 <defs>
  <clipPath id="p16a9e6bea2">
   <rect height="221.76" width="334.8" x="60.265313" y="7.2"/>
  </clipPath>
 </defs>
</svg>
