<?xml version="1.0" encoding="utf-8" standalone="no"?>
<!DOCTYPE svg PUBLIC "-//W3C//DTD SVG 1.1//EN"
  "http://www.w3.org/Graphics/SVG/1.1/DTD/svg11.dtd">
<svg xmlns:xlink="http://www.w3.org/1999/xlink" width="432pt" height="288pt" viewBox="0 0 432 288" xmlns="http://www.w3.org/2000/svg" version="1.1">
 <metadata>
  <rdf:RDF xmlns:dc="http://purl.org/dc/elements/1.1/" xmlns:cc="http://creativecommons.org/ns#" xmlns:rdf="http://www.w3.org/1999/02/22-rdf-syntax-ns#">
   <cc:Work>
    <dc:type rdf:resource="http://purl.org/dc/dcmitype/StillImage"/>
    <dc:date>2024-01-13T11:34:22.100192</dc:date>
    <dc:format>image/svg+xml</dc:format>
    <dc:creator>
     <cc:Agent>
      <dc:title>Matplotlib v3.7.4, https://matplotlib.org/</dc:title>
     </cc:Agent>
    </dc:creator>
   </cc:Work>
  </rdf:RDF>
 </metadata>
 <defs>
  <style type="text/css">*{stroke-linejoin: round; stroke-linecap: butt}</style>
 </defs>
 <g id="figure_1">
  <g id="patch_1">
   <path d="M 0 288 
L 432 288 
L 432 0 
L 0 0 
z
" style="fill: #ffffff"/>
  </g>
  <g id="axes_1">
   <g id="patch_2">
    <path d="M 54 256.32 
L 388.8 256.32 
L 388.8 34.56 
L 54 34.56 
z
" style="fill: #ffffff"/>
   </g>
   <g id="PathCollection_1">
    <defs>
     <path id="C0_0_6e34c1741d" d="M 0 2.5 
C 0.663008 2.5 1.29895 2.236584 1.767767 1.767767 
C 2.236584 1.29895 2.5 0.663008 2.5 -0 
C 2.5 -0.663008 2.236584 -1.29895 1.767767 -1.767767 
C 1.29895 -2.236584 0.663008 -2.5 0 -2.5 
C -0.663008 -2.5 -1.29895 -2.236584 -1.767767 -1.767767 
C -2.236584 -1.29895 -2.5 -0.663008 -2.5 0 
C -2.5 0.663008 -2.236584 1.29895 -1.767767 1.767767 
C -1.29895 2.236584 -0.663008 2.5 0 2.5 
z
"/>
    </defs>
    <g clip-path="url(#pb3d30db51f)">
     <use xlink:href="#C0_0_6e34c1741d" x="80.391876" y="82.96962" style="fill: #a1c9f4"/>
    </g>
    <g clip-path="url(#pb3d30db51f)">
     <use xlink:href="#C0_0_6e34c1741d" x="80.109139" y="83.543014" style="fill: #a1c9f4"/>
    </g>
    <g clip-path="url(#pb3d30db51f)">
     <use xlink:href="#C0_0_6e34c1741d" x="79.242957" y="99.052538" style="fill: #a1c9f4"/>
    </g>
    <g clip-path="url(#pb3d30db51f)">
     <use xlink:href="#C0_0_6e34c1741d" x="78.361367" y="80.804125" style="fill: #a1c9f4"/>
    </g>
    <g clip-path="url(#pb3d30db51f)">
     <use xlink:href="#C0_0_6e34c1741d" x="83.399206" y="106.06911" style="fill: #a1c9f4"/>
    </g>
    <g clip-path="url(#pb3d30db51f)">
     <use xlink:href="#C0_0_6e34c1741d" x="81.542509" y="85.643146" style="fill: #a1c9f4"/>
    </g>
    <g clip-path="url(#pb3d30db51f)">
     <use xlink:href="#C0_0_6e34c1741d" x="81.828521" y="93.824485" style="fill: #a1c9f4"/>
    </g>
    <g clip-path="url(#pb3d30db51f)">
     <use xlink:href="#C0_0_6e34c1741d" x="82.413251" y="78.556178" style="fill: #a1c9f4"/>
    </g>
    <g clip-path="url(#pb3d30db51f)">
     <use xlink:href="#C0_0_6e34c1741d" x="82.880527" y="86.777434" style="fill: #a1c9f4"/>
    </g>
    <g clip-path="url(#pb3d30db51f)">
     <use xlink:href="#C0_0_6e34c1741d" x="79.143467" y="87.445874" style="fill: #a1c9f4"/>
    </g>
   </g>
   <g id="PathCollection_2">
    <defs>
     <path id="C1_0_d17867e57b" d="M 0 2.5 
C 0.663008 2.5 1.29895 2.236584 1.767767 1.767767 
C 2.236584 1.29895 2.5 0.663008 2.5 -0 
C 2.5 -0.663008 2.236584 -1.29895 1.767767 -1.767767 
C 1.29895 -2.236584 0.663008 -2.5 0 -2.5 
C -0.663008 -2.5 -1.29895 -2.236584 -1.767767 -1.767767 
C -2.236584 -1.29895 -2.5 -0.663008 -2.5 0 
C -2.5 0.663008 -2.236584 1.29895 -1.767767 1.767767 
C -1.29895 2.236584 -0.663008 2.5 0 2.5 
z
"/>
    </defs>
    <g clip-path="url(#pb3d30db51f)">
     <use xlink:href="#C1_0_d17867e57b" x="107.691406" y="90.329" style="fill: #ffb482"/>
    </g>
    <g clip-path="url(#pb3d30db51f)">
     <use xlink:href="#C1_0_d17867e57b" x="107.252361" y="89.121864" style="fill: #ffb482"/>
    </g>
    <g clip-path="url(#pb3d30db51f)">
     <use xlink:href="#C1_0_d17867e57b" x="111.989985" y="89.963072" style="fill: #ffb482"/>
    </g>
    <g clip-path="url(#pb3d30db51f)">
     <use xlink:href="#C1_0_d17867e57b" x="111.883483" y="85.074131" style="fill: #ffb482"/>
    </g>
    <g clip-path="url(#pb3d30db51f)">
     <use xlink:href="#C1_0_d17867e57b" x="111.826146" y="90.905133" style="fill: #ffb482"/>
    </g>
    <g clip-path="url(#pb3d30db51f)">
     <use xlink:href="#C1_0_d17867e57b" x="106.899738" y="81.196579" style="fill: #ffb482"/>
    </g>
    <g clip-path="url(#pb3d30db51f)">
     <use xlink:href="#C1_0_d17867e57b" x="108.834586" y="83.612004" style="fill: #ffb482"/>
    </g>
    <g clip-path="url(#pb3d30db51f)">
     <use xlink:href="#C1_0_d17867e57b" x="112.870112" y="83.465855" style="fill: #ffb482"/>
    </g>
    <g clip-path="url(#pb3d30db51f)">
     <use xlink:href="#C1_0_d17867e57b" x="106.575187" y="85.562161" style="fill: #ffb482"/>
    </g>
    <g clip-path="url(#pb3d30db51f)">
     <use xlink:href="#C1_0_d17867e57b" x="109.256388" y="84.318108" style="fill: #ffb482"/>
    </g>
   </g>
   <g id="PathCollection_3">
    <defs>
     <path id="C2_0_b749f2aa15" d="M 0 2.5 
C 0.663008 2.5 1.29895 2.236584 1.767767 1.767767 
C 2.236584 1.29895 2.5 0.663008 2.5 -0 
C 2.5 -0.663008 2.236584 -1.29895 1.767767 -1.767767 
C 1.29895 -2.236584 0.663008 -2.5 0 -2.5 
C -0.663008 -2.5 -1.29895 -2.236584 -1.767767 -1.767767 
C -2.236584 -1.29895 -2.5 -0.663008 -2.5 0 
C -2.5 0.663008 -2.236584 1.29895 -1.767767 1.767767 
C -1.29895 2.236584 -0.663008 2.5 0 2.5 
z
"/>
    </defs>
    <g clip-path="url(#pb3d30db51f)">
     <use xlink:href="#C2_0_b749f2aa15" x="136.82689" y="76.06014" style="fill: #8de5a1"/>
    </g>
    <g clip-path="url(#pb3d30db51f)">
     <use xlink:href="#C2_0_b749f2aa15" x="139.517045" y="89.725547" style="fill: #8de5a1"/>
    </g>
    <g clip-path="url(#pb3d30db51f)">
     <use xlink:href="#C2_0_b749f2aa15" x="139.714313" y="78.482577" style="fill: #8de5a1"/>
    </g>
    <g clip-path="url(#pb3d30db51f)">
     <use xlink:href="#C2_0_b749f2aa15" x="137.06572" y="83.846033" style="fill: #8de5a1"/>
    </g>
    <g clip-path="url(#pb3d30db51f)">
     <use xlink:href="#C2_0_b749f2aa15" x="141.892167" y="82.014633" style="fill: #8de5a1"/>
    </g>
    <g clip-path="url(#pb3d30db51f)">
     <use xlink:href="#C2_0_b749f2aa15" x="136.76902" y="83.125883" style="fill: #8de5a1"/>
    </g>
    <g clip-path="url(#pb3d30db51f)">
     <use xlink:href="#C2_0_b749f2aa15" x="141.674772" y="93.165571" style="fill: #8de5a1"/>
    </g>
    <g clip-path="url(#pb3d30db51f)">
     <use xlink:href="#C2_0_b749f2aa15" x="139.159257" y="76.580448" style="fill: #8de5a1"/>
    </g>
    <g clip-path="url(#pb3d30db51f)">
     <use xlink:href="#C2_0_b749f2aa15" x="135.946237" y="85.039109" style="fill: #8de5a1"/>
    </g>
    <g clip-path="url(#pb3d30db51f)">
     <use xlink:href="#C2_0_b749f2aa15" x="138.49999" y="85.979796" style="fill: #8de5a1"/>
    </g>
   </g>
   <g id="PathCollection_4">
    <defs>
     <path id="C3_0_d3e0ee7cce" d="M 0 2.5 
C 0.663008 2.5 1.29895 2.236584 1.767767 1.767767 
C 2.236584 1.29895 2.5 0.663008 2.5 -0 
C 2.5 -0.663008 2.236584 -1.29895 1.767767 -1.767767 
C 1.29895 -2.236584 0.663008 -2.5 0 -2.5 
C -0.663008 -2.5 -1.29895 -2.236584 -1.767767 -1.767767 
C -2.236584 -1.29895 -2.5 -0.663008 -2.5 0 
C -2.5 0.663008 -2.236584 1.29895 -1.767767 1.767767 
C -1.29895 2.236584 -0.663008 2.5 0 2.5 
z
"/>
    </defs>
    <g clip-path="url(#pb3d30db51f)">
     <use xlink:href="#C3_0_d3e0ee7cce" x="191.245761" y="87.273492" style="fill: #a1c9f4"/>
    </g>
    <g clip-path="url(#pb3d30db51f)">
     <use xlink:href="#C3_0_d3e0ee7cce" x="190.701105" y="90.091281" style="fill: #a1c9f4"/>
    </g>
    <g clip-path="url(#pb3d30db51f)">
     <use xlink:href="#C3_0_d3e0ee7cce" x="194.610998" y="96.128896" style="fill: #a1c9f4"/>
    </g>
    <g clip-path="url(#pb3d30db51f)">
     <use xlink:href="#C3_0_d3e0ee7cce" x="192.068798" y="95.327502" style="fill: #a1c9f4"/>
    </g>
    <g clip-path="url(#pb3d30db51f)">
     <use xlink:href="#C3_0_d3e0ee7cce" x="190.189966" y="99.247019" style="fill: #a1c9f4"/>
    </g>
    <g clip-path="url(#pb3d30db51f)">
     <use xlink:href="#C3_0_d3e0ee7cce" x="189.087478" y="103.435726" style="fill: #a1c9f4"/>
    </g>
    <g clip-path="url(#pb3d30db51f)">
     <use xlink:href="#C3_0_d3e0ee7cce" x="193.044174" y="85.917016" style="fill: #a1c9f4"/>
    </g>
    <g clip-path="url(#pb3d30db51f)">
     <use xlink:href="#C3_0_d3e0ee7cce" x="195.07364" y="96.440541" style="fill: #a1c9f4"/>
    </g>
    <g clip-path="url(#pb3d30db51f)">
     <use xlink:href="#C3_0_d3e0ee7cce" x="188.991261" y="86.002513" style="fill: #a1c9f4"/>
    </g>
    <g clip-path="url(#pb3d30db51f)">
     <use xlink:href="#C3_0_d3e0ee7cce" x="189.090418" y="91.916279" style="fill: #a1c9f4"/>
    </g>
   </g>
   <g id="PathCollection_5">
    <defs>
     <path id="C4_0_31d38652d4" d="M 0 2.5 
C 0.663008 2.5 1.29895 2.236584 1.767767 1.767767 
C 2.236584 1.29895 2.5 0.663008 2.5 -0 
C 2.5 -0.663008 2.236584 -1.29895 1.767767 -1.767767 
C 1.29895 -2.236584 0.663008 -2.5 0 -2.5 
C -0.663008 -2.5 -1.29895 -2.236584 -1.767767 -1.767767 
C -2.236584 -1.29895 -2.5 -0.663008 -2.5 0 
C -2.5 0.663008 -2.236584 1.29895 -1.767767 1.767767 
C -1.29895 2.236584 -0.663008 2.5 0 2.5 
z
"/>
    </defs>
    <g clip-path="url(#pb3d30db51f)">
     <use xlink:href="#C4_0_31d38652d4" x="222.193654" y="90.488794" style="fill: #ffb482"/>
    </g>
    <g clip-path="url(#pb3d30db51f)">
     <use xlink:href="#C4_0_31d38652d4" x="225.027572" y="94.411685" style="fill: #ffb482"/>
    </g>
    <g clip-path="url(#pb3d30db51f)">
     <use xlink:href="#C4_0_31d38652d4" x="221.015082" y="92.715575" style="fill: #ffb482"/>
    </g>
    <g clip-path="url(#pb3d30db51f)">
     <use xlink:href="#C4_0_31d38652d4" x="221.937361" y="105.925719" style="fill: #ffb482"/>
    </g>
    <g clip-path="url(#pb3d30db51f)">
     <use xlink:href="#C4_0_31d38652d4" x="221.679201" y="96.94089" style="fill: #ffb482"/>
    </g>
    <g clip-path="url(#pb3d30db51f)">
     <use xlink:href="#C4_0_31d38652d4" x="224.915498" y="85.394189" style="fill: #ffb482"/>
    </g>
    <g clip-path="url(#pb3d30db51f)">
     <use xlink:href="#C4_0_31d38652d4" x="218.413061" y="81.874392" style="fill: #ffb482"/>
    </g>
    <g clip-path="url(#pb3d30db51f)">
     <use xlink:href="#C4_0_31d38652d4" x="220.881263" y="86.892526" style="fill: #ffb482"/>
    </g>
    <g clip-path="url(#pb3d30db51f)">
     <use xlink:href="#C4_0_31d38652d4" x="218.048914" y="92.504968" style="fill: #ffb482"/>
    </g>
    <g clip-path="url(#pb3d30db51f)">
     <use xlink:href="#C4_0_31d38652d4" x="222.140662" y="94.483938" style="fill: #ffb482"/>
    </g>
   </g>
   <g id="PathCollection_6">
    <defs>
     <path id="C5_0_cf2d4eccb4" d="M 0 2.5 
C 0.663008 2.5 1.29895 2.236584 1.767767 1.767767 
C 2.236584 1.29895 2.5 0.663008 2.5 -0 
C 2.5 -0.663008 2.236584 -1.29895 1.767767 -1.767767 
C 1.29895 -2.236584 0.663008 -2.5 0 -2.5 
C -0.663008 -2.5 -1.29895 -2.236584 -1.767767 -1.767767 
C -2.236584 -1.29895 -2.5 -0.663008 -2.5 0 
C -2.5 0.663008 -2.236584 1.29895 -1.767767 1.767767 
C -1.29895 2.236584 -0.663008 2.5 0 2.5 
z
"/>
    </defs>
    <g clip-path="url(#pb3d30db51f)">
     <use xlink:href="#C5_0_cf2d4eccb4" x="251.689355" y="84.050994" style="fill: #8de5a1"/>
    </g>
    <g clip-path="url(#pb3d30db51f)">
     <use xlink:href="#C5_0_cf2d4eccb4" x="253.088207" y="97.673167" style="fill: #8de5a1"/>
    </g>
    <g clip-path="url(#pb3d30db51f)">
     <use xlink:href="#C5_0_cf2d4eccb4" x="247.887107" y="88.059357" style="fill: #8de5a1"/>
    </g>
    <g clip-path="url(#pb3d30db51f)">
     <use xlink:href="#C5_0_cf2d4eccb4" x="249.849911" y="90.445606" style="fill: #8de5a1"/>
    </g>
    <g clip-path="url(#pb3d30db51f)">
     <use xlink:href="#C5_0_cf2d4eccb4" x="250.02547" y="85.808247" style="fill: #8de5a1"/>
    </g>
    <g clip-path="url(#pb3d30db51f)">
     <use xlink:href="#C5_0_cf2d4eccb4" x="251.306792" y="88.541624" style="fill: #8de5a1"/>
    </g>
    <g clip-path="url(#pb3d30db51f)">
     <use xlink:href="#C5_0_cf2d4eccb4" x="253.58089" y="91.98825" style="fill: #8de5a1"/>
    </g>
    <g clip-path="url(#pb3d30db51f)">
     <use xlink:href="#C5_0_cf2d4eccb4" x="248.417631" y="82.380093" style="fill: #8de5a1"/>
    </g>
    <g clip-path="url(#pb3d30db51f)">
     <use xlink:href="#C5_0_cf2d4eccb4" x="252.487327" y="86.073175" style="fill: #8de5a1"/>
    </g>
    <g clip-path="url(#pb3d30db51f)">
     <use xlink:href="#C5_0_cf2d4eccb4" x="254.026168" y="90.449128" style="fill: #8de5a1"/>
    </g>
   </g>
   <g id="PathCollection_7">
    <defs>
     <path id="C6_0_e1772e8c6f" d="M 0 2.5 
C 0.663008 2.5 1.29895 2.236584 1.767767 1.767767 
C 2.236584 1.29895 2.5 0.663008 2.5 -0 
C 2.5 -0.663008 2.236584 -1.29895 1.767767 -1.767767 
C 1.29895 -2.236584 0.663008 -2.5 0 -2.5 
C -0.663008 -2.5 -1.29895 -2.236584 -1.767767 -1.767767 
C -2.236584 -1.29895 -2.5 -0.663008 -2.5 0 
C -2.5 0.663008 -2.236584 1.29895 -1.767767 1.767767 
C -1.29895 2.236584 -0.663008 2.5 0 2.5 
z
"/>
    </defs>
    <g clip-path="url(#pb3d30db51f)">
     <use xlink:href="#C6_0_e1772e8c6f" x="302.452012" y="121.60215" style="fill: #a1c9f4"/>
    </g>
    <g clip-path="url(#pb3d30db51f)">
     <use xlink:href="#C6_0_e1772e8c6f" x="302.875337" y="127.271326" style="fill: #a1c9f4"/>
    </g>
    <g clip-path="url(#pb3d30db51f)">
     <use xlink:href="#C6_0_e1772e8c6f" x="300.057439" y="149.921814" style="fill: #a1c9f4"/>
    </g>
    <g clip-path="url(#pb3d30db51f)">
     <use xlink:href="#C6_0_e1772e8c6f" x="302.743633" y="128.760982" style="fill: #a1c9f4"/>
    </g>
    <g clip-path="url(#pb3d30db51f)">
     <use xlink:href="#C6_0_e1772e8c6f" x="306.861043" y="155.825197" style="fill: #a1c9f4"/>
    </g>
    <g clip-path="url(#pb3d30db51f)">
     <use xlink:href="#C6_0_e1772e8c6f" x="303.790962" y="142.505079" style="fill: #a1c9f4"/>
    </g>
    <g clip-path="url(#pb3d30db51f)">
     <use xlink:href="#C6_0_e1772e8c6f" x="302.835319" y="128.266136" style="fill: #a1c9f4"/>
    </g>
    <g clip-path="url(#pb3d30db51f)">
     <use xlink:href="#C6_0_e1772e8c6f" x="301.703697" y="128.822382" style="fill: #a1c9f4"/>
    </g>
    <g clip-path="url(#pb3d30db51f)">
     <use xlink:href="#C6_0_e1772e8c6f" x="306.171329" y="126.61631" style="fill: #a1c9f4"/>
    </g>
    <g clip-path="url(#pb3d30db51f)">
     <use xlink:href="#C6_0_e1772e8c6f" x="299.643276" y="132.127096" style="fill: #a1c9f4"/>
    </g>
   </g>
   <g id="PathCollection_8">
    <defs>
     <path id="C7_0_b360cd04c0" d="M 0 2.5 
C 0.663008 2.5 1.29895 2.236584 1.767767 1.767767 
C 2.236584 1.29895 2.5 0.663008 2.5 -0 
C 2.5 -0.663008 2.236584 -1.29895 1.767767 -1.767767 
C 1.29895 -2.236584 0.663008 -2.5 0 -2.5 
C -0.663008 -2.5 -1.29895 -2.236584 -1.767767 -1.767767 
C -2.236584 -1.29895 -2.5 -0.663008 -2.5 0 
C -2.5 0.663008 -2.236584 1.29895 -1.767767 1.767767 
C -1.29895 2.236584 -0.663008 2.5 0 2.5 
z
"/>
    </defs>
    <g clip-path="url(#pb3d30db51f)">
     <use xlink:href="#C7_0_b360cd04c0" x="334.215534" y="120.215639" style="fill: #ffb482"/>
    </g>
    <g clip-path="url(#pb3d30db51f)">
     <use xlink:href="#C7_0_b360cd04c0" x="333.236484" y="124.241993" style="fill: #ffb482"/>
    </g>
    <g clip-path="url(#pb3d30db51f)">
     <use xlink:href="#C7_0_b360cd04c0" x="333.577723" y="123.259763" style="fill: #ffb482"/>
    </g>
    <g clip-path="url(#pb3d30db51f)">
     <use xlink:href="#C7_0_b360cd04c0" x="332.398191" y="132.731232" style="fill: #ffb482"/>
    </g>
    <g clip-path="url(#pb3d30db51f)">
     <use xlink:href="#C7_0_b360cd04c0" x="335.235127" y="130.206839" style="fill: #ffb482"/>
    </g>
    <g clip-path="url(#pb3d30db51f)">
     <use xlink:href="#C7_0_b360cd04c0" x="329.52408" y="111.578995" style="fill: #ffb482"/>
    </g>
    <g clip-path="url(#pb3d30db51f)">
     <use xlink:href="#C7_0_b360cd04c0" x="330.176452" y="109.116509" style="fill: #ffb482"/>
    </g>
    <g clip-path="url(#pb3d30db51f)">
     <use xlink:href="#C7_0_b360cd04c0" x="329.56483" y="115.313156" style="fill: #ffb482"/>
    </g>
    <g clip-path="url(#pb3d30db51f)">
     <use xlink:href="#C7_0_b360cd04c0" x="331.527714" y="120.630727" style="fill: #ffb482"/>
    </g>
    <g clip-path="url(#pb3d30db51f)">
     <use xlink:href="#C7_0_b360cd04c0" x="332.911413" y="122.894606" style="fill: #ffb482"/>
    </g>
   </g>
   <g id="PathCollection_9">
    <defs>
     <path id="C8_0_4c1f1c7e50" d="M 0 2.5 
C 0.663008 2.5 1.29895 2.236584 1.767767 1.767767 
C 2.236584 1.29895 2.5 0.663008 2.5 -0 
C 2.5 -0.663008 2.236584 -1.29895 1.767767 -1.767767 
C 1.29895 -2.236584 0.663008 -2.5 0 -2.5 
C -0.663008 -2.5 -1.29895 -2.236584 -1.767767 -1.767767 
C -2.236584 -1.29895 -2.5 -0.663008 -2.5 0 
C -2.5 0.663008 -2.236584 1.29895 -1.767767 1.767767 
C -1.29895 2.236584 -0.663008 2.5 0 2.5 
z
"/>
    </defs>
    <g clip-path="url(#pb3d30db51f)">
     <use xlink:href="#C8_0_4c1f1c7e50" x="359.532537" y="105.1988" style="fill: #8de5a1"/>
    </g>
    <g clip-path="url(#pb3d30db51f)">
     <use xlink:href="#C8_0_4c1f1c7e50" x="360.620809" y="125.795067" style="fill: #8de5a1"/>
    </g>
    <g clip-path="url(#pb3d30db51f)">
     <use xlink:href="#C8_0_4c1f1c7e50" x="361.005189" y="112.387857" style="fill: #8de5a1"/>
    </g>
    <g clip-path="url(#pb3d30db51f)">
     <use xlink:href="#C8_0_4c1f1c7e50" x="361.376185" y="118.002936" style="fill: #8de5a1"/>
    </g>
    <g clip-path="url(#pb3d30db51f)">
     <use xlink:href="#C8_0_4c1f1c7e50" x="361.041178" y="113.274238" style="fill: #8de5a1"/>
    </g>
    <g clip-path="url(#pb3d30db51f)">
     <use xlink:href="#C8_0_4c1f1c7e50" x="365.53413" y="116.700904" style="fill: #8de5a1"/>
    </g>
    <g clip-path="url(#pb3d30db51f)">
     <use xlink:href="#C8_0_4c1f1c7e50" x="364.391136" y="130.331742" style="fill: #8de5a1"/>
    </g>
    <g clip-path="url(#pb3d30db51f)">
     <use xlink:href="#C8_0_4c1f1c7e50" x="363.577927" y="105.728706" style="fill: #8de5a1"/>
    </g>
    <g clip-path="url(#pb3d30db51f)">
     <use xlink:href="#C8_0_4c1f1c7e50" x="360.461779" y="115.610952" style="fill: #8de5a1"/>
    </g>
    <g clip-path="url(#pb3d30db51f)">
     <use xlink:href="#C8_0_4c1f1c7e50" x="362.750643" y="121.307021" style="fill: #8de5a1"/>
    </g>
   </g>
   <g id="line2d_1"/>
   <g id="line2d_2"/>
   <g id="line2d_3"/>
   <g id="matplotlib.axis_1">
    <g id="xtick_1">
     <g id="line2d_4">
      <defs>
       <path id="m16b25b833a" d="M 0 0 
L 0 6 
" style="stroke: #262626; stroke-width: 1.25"/>
      </defs>
      <g>
       <use xlink:href="#m16b25b833a" x="109.8" y="256.32" style="fill: #262626; stroke: #262626; stroke-width: 1.25"/>
      </g>
     </g>
     <g id="text_1">
      <!-- Parity -->
      <g style="fill: #262626" transform="translate(95.741484 273.791562) scale(0.11 -0.11)">
       <defs>
        <path id="LiberationSans-50" d="M 3931 3078 
Q 3931 2453 3523 2084 
Q 3116 1716 2416 1716 
L 1122 1716 
L 1122 0 
L 525 0 
L 525 4403 
L 2378 4403 
Q 3119 4403 3525 4056 
Q 3931 3709 3931 3078 
z
M 3331 3072 
Q 3331 3925 2306 3925 
L 1122 3925 
L 1122 2188 
L 2331 2188 
Q 3331 2188 3331 3072 
z
" transform="scale(0.015625)"/>
        <path id="LiberationSans-61" d="M 1294 -63 
Q 784 -63 528 206 
Q 272 475 272 944 
Q 272 1469 617 1750 
Q 963 2031 1731 2050 
L 2491 2063 
L 2491 2247 
Q 2491 2659 2316 2837 
Q 2141 3016 1766 3016 
Q 1388 3016 1216 2887 
Q 1044 2759 1009 2478 
L 422 2531 
Q 566 3444 1778 3444 
Q 2416 3444 2737 3151 
Q 3059 2859 3059 2306 
L 3059 850 
Q 3059 600 3125 473 
Q 3191 347 3375 347 
Q 3456 347 3559 369 
L 3559 19 
Q 3347 -31 3125 -31 
Q 2813 -31 2670 133 
Q 2528 297 2509 647 
L 2491 647 
Q 2275 259 1989 98 
Q 1703 -63 1294 -63 
z
M 1422 359 
Q 1731 359 1972 500 
Q 2213 641 2352 886 
Q 2491 1131 2491 1391 
L 2491 1669 
L 1875 1656 
Q 1478 1650 1273 1575 
Q 1069 1500 959 1344 
Q 850 1188 850 934 
Q 850 659 998 509 
Q 1147 359 1422 359 
z
" transform="scale(0.015625)"/>
        <path id="LiberationSans-72" d="M 444 0 
L 444 2594 
Q 444 2950 425 3381 
L 956 3381 
Q 981 2806 981 2691 
L 994 2691 
Q 1128 3125 1303 3284 
Q 1478 3444 1797 3444 
Q 1909 3444 2025 3413 
L 2025 2897 
Q 1913 2928 1725 2928 
Q 1375 2928 1190 2626 
Q 1006 2325 1006 1763 
L 1006 0 
L 444 0 
z
" transform="scale(0.015625)"/>
        <path id="LiberationSans-69" d="M 428 4100 
L 428 4638 
L 991 4638 
L 991 4100 
L 428 4100 
z
M 428 0 
L 428 3381 
L 991 3381 
L 991 0 
L 428 0 
z
" transform="scale(0.015625)"/>
        <path id="LiberationSans-74" d="M 1731 25 
Q 1453 -50 1163 -50 
Q 488 -50 488 716 
L 488 2972 
L 97 2972 
L 97 3381 
L 509 3381 
L 675 4138 
L 1050 4138 
L 1050 3381 
L 1675 3381 
L 1675 2972 
L 1050 2972 
L 1050 838 
Q 1050 594 1129 495 
Q 1209 397 1406 397 
Q 1519 397 1731 441 
L 1731 25 
z
" transform="scale(0.015625)"/>
        <path id="LiberationSans-79" d="M 597 -1328 
Q 366 -1328 209 -1294 
L 209 -872 
Q 328 -891 472 -891 
Q 997 -891 1303 -119 
L 1356 16 
L 16 3381 
L 616 3381 
L 1328 1513 
Q 1344 1469 1366 1408 
Q 1388 1347 1506 1000 
Q 1625 653 1634 613 
L 1853 1228 
L 2594 3381 
L 3188 3381 
L 1888 0 
Q 1678 -541 1497 -805 
Q 1316 -1069 1095 -1198 
Q 875 -1328 597 -1328 
z
" transform="scale(0.015625)"/>
       </defs>
       <use xlink:href="#LiberationSans-50"/>
       <use xlink:href="#LiberationSans-61" x="66.699219"/>
       <use xlink:href="#LiberationSans-72" x="122.314453"/>
       <use xlink:href="#LiberationSans-69" x="155.615234"/>
       <use xlink:href="#LiberationSans-74" x="177.832031"/>
       <use xlink:href="#LiberationSans-79" x="205.615234"/>
      </g>
     </g>
    </g>
    <g id="xtick_2">
     <g id="line2d_5">
      <g>
       <use xlink:href="#m16b25b833a" x="221.4" y="256.32" style="fill: #262626; stroke: #262626; stroke-width: 1.25"/>
      </g>
     </g>
     <g id="text_2">
      <!-- Value -->
      <g style="fill: #262626" transform="translate(207.739375 273.791562) scale(0.11 -0.11)">
       <defs>
        <path id="LiberationSans-56" d="M 2444 0 
L 1825 0 
L 28 4403 
L 656 4403 
L 1875 1303 
L 2138 525 
L 2400 1303 
L 3613 4403 
L 4241 4403 
L 2444 0 
z
" transform="scale(0.015625)"/>
        <path id="LiberationSans-6c" d="M 431 0 
L 431 4638 
L 994 4638 
L 994 0 
L 431 0 
z
" transform="scale(0.015625)"/>
        <path id="LiberationSans-75" d="M 981 3381 
L 981 1238 
Q 981 903 1047 718 
Q 1113 534 1256 453 
Q 1400 372 1678 372 
Q 2084 372 2318 650 
Q 2553 928 2553 1422 
L 2553 3381 
L 3116 3381 
L 3116 722 
Q 3116 131 3134 0 
L 2603 0 
Q 2600 16 2597 84 
Q 2594 153 2589 242 
Q 2584 331 2578 578 
L 2569 578 
Q 2375 228 2120 82 
Q 1866 -63 1488 -63 
Q 931 -63 673 214 
Q 416 491 416 1128 
L 416 3381 
L 981 3381 
z
" transform="scale(0.015625)"/>
        <path id="LiberationSans-65" d="M 863 1572 
Q 863 991 1103 675 
Q 1344 359 1806 359 
Q 2172 359 2392 506 
Q 2613 653 2691 878 
L 3184 738 
Q 2881 -63 1806 -63 
Q 1056 -63 664 384 
Q 272 831 272 1713 
Q 272 2550 664 2997 
Q 1056 3444 1784 3444 
Q 3275 3444 3275 1647 
L 3275 1572 
L 863 1572 
z
M 2694 2003 
Q 2647 2538 2422 2783 
Q 2197 3028 1775 3028 
Q 1366 3028 1127 2754 
Q 888 2481 869 2003 
L 2694 2003 
z
" transform="scale(0.015625)"/>
       </defs>
       <use xlink:href="#LiberationSans-56"/>
       <use xlink:href="#LiberationSans-61" x="59.324219"/>
       <use xlink:href="#LiberationSans-6c" x="114.939453"/>
       <use xlink:href="#LiberationSans-75" x="137.15625"/>
       <use xlink:href="#LiberationSans-65" x="192.771484"/>
      </g>
     </g>
    </g>
    <g id="xtick_3">
     <g id="line2d_6">
      <g>
       <use xlink:href="#m16b25b833a" x="333" y="256.32" style="fill: #262626; stroke: #262626; stroke-width: 1.25"/>
      </g>
     </g>
     <g id="text_3">
      <!-- Joint -->
      <g style="fill: #262626" transform="translate(321.382969 273.791562) scale(0.11 -0.11)">
       <defs>
        <path id="LiberationSans-4a" d="M 1428 -63 
Q 309 -63 100 1094 
L 684 1191 
Q 741 828 937 625 
Q 1134 422 1431 422 
Q 1756 422 1943 645 
Q 2131 869 2131 1300 
L 2131 3916 
L 1284 3916 
L 1284 4403 
L 2725 4403 
L 2725 1313 
Q 2725 672 2378 304 
Q 2031 -63 1428 -63 
z
" transform="scale(0.015625)"/>
        <path id="LiberationSans-6f" d="M 3291 1694 
Q 3291 806 2900 371 
Q 2509 -63 1766 -63 
Q 1025 -63 647 389 
Q 269 841 269 1694 
Q 269 3444 1784 3444 
Q 2559 3444 2925 3017 
Q 3291 2591 3291 1694 
z
M 2700 1694 
Q 2700 2394 2492 2711 
Q 2284 3028 1794 3028 
Q 1300 3028 1079 2704 
Q 859 2381 859 1694 
Q 859 1025 1076 689 
Q 1294 353 1759 353 
Q 2266 353 2483 678 
Q 2700 1003 2700 1694 
z
" transform="scale(0.015625)"/>
        <path id="LiberationSans-6e" d="M 2578 0 
L 2578 2144 
Q 2578 2478 2512 2662 
Q 2447 2847 2303 2928 
Q 2159 3009 1881 3009 
Q 1475 3009 1240 2731 
Q 1006 2453 1006 1959 
L 1006 0 
L 444 0 
L 444 2659 
Q 444 3250 425 3381 
L 956 3381 
Q 959 3366 962 3297 
Q 966 3228 970 3139 
Q 975 3050 981 2803 
L 991 2803 
Q 1184 3153 1439 3298 
Q 1694 3444 2072 3444 
Q 2628 3444 2886 3167 
Q 3144 2891 3144 2253 
L 3144 0 
L 2578 0 
z
" transform="scale(0.015625)"/>
       </defs>
       <use xlink:href="#LiberationSans-4a"/>
       <use xlink:href="#LiberationSans-6f" x="50"/>
       <use xlink:href="#LiberationSans-69" x="105.615234"/>
       <use xlink:href="#LiberationSans-6e" x="127.832031"/>
       <use xlink:href="#LiberationSans-74" x="183.447266"/>
      </g>
     </g>
    </g>
    <g id="text_4">
     <!-- Task -->
     <g style="fill: #262626" transform="translate(204.955 291.669062) scale(0.16 -0.16)">
      <defs>
       <path id="LiberationSans-54" d="M 2250 3916 
L 2250 0 
L 1656 0 
L 1656 3916 
L 144 3916 
L 144 4403 
L 3763 4403 
L 3763 3916 
L 2250 3916 
z
" transform="scale(0.015625)"/>
       <path id="LiberationSans-73" d="M 2969 934 
Q 2969 456 2608 196 
Q 2247 -63 1597 -63 
Q 966 -63 623 145 
Q 281 353 178 794 
L 675 891 
Q 747 619 972 492 
Q 1197 366 1597 366 
Q 2025 366 2223 497 
Q 2422 628 2422 891 
Q 2422 1091 2284 1216 
Q 2147 1341 1841 1422 
L 1438 1528 
Q 953 1653 748 1773 
Q 544 1894 428 2066 
Q 313 2238 313 2488 
Q 313 2950 642 3192 
Q 972 3434 1603 3434 
Q 2163 3434 2492 3237 
Q 2822 3041 2909 2606 
L 2403 2544 
Q 2356 2769 2151 2889 
Q 1947 3009 1603 3009 
Q 1222 3009 1040 2893 
Q 859 2778 859 2544 
Q 859 2400 934 2306 
Q 1009 2213 1156 2147 
Q 1303 2081 1775 1966 
Q 2222 1853 2419 1758 
Q 2616 1663 2730 1547 
Q 2844 1431 2906 1279 
Q 2969 1128 2969 934 
z
" transform="scale(0.015625)"/>
       <path id="LiberationSans-6b" d="M 2550 0 
L 1406 1544 
L 994 1203 
L 994 0 
L 431 0 
L 431 4638 
L 994 4638 
L 994 1741 
L 2478 3381 
L 3138 3381 
L 1766 1928 
L 3209 0 
L 2550 0 
z
" transform="scale(0.015625)"/>
      </defs>
      <use xlink:href="#LiberationSans-54"/>
      <use xlink:href="#LiberationSans-61" x="49.958984"/>
      <use xlink:href="#LiberationSans-73" x="105.574219"/>
      <use xlink:href="#LiberationSans-6b" x="155.574219"/>
     </g>
    </g>
   </g>
   <g id="matplotlib.axis_2">
    <g id="ytick_1">
     <g id="line2d_7">
      <defs>
       <path id="mc5cf5f090e" d="M 0 0 
L -6 0 
" style="stroke: #262626; stroke-width: 1.25"/>
      </defs>
      <g>
       <use xlink:href="#mc5cf5f090e" x="54" y="256.32" style="fill: #262626; stroke: #262626; stroke-width: 1.25"/>
      </g>
     </g>
     <g id="text_5">
      <!-- 0.94 -->
      <g style="fill: #262626" transform="translate(23.092969 260.305781) scale(0.11 -0.11)">
       <defs>
        <path id="LiberationSans-30" d="M 3309 2203 
Q 3309 1100 2920 518 
Q 2531 -63 1772 -63 
Q 1013 -63 631 515 
Q 250 1094 250 2203 
Q 250 3338 620 3903 
Q 991 4469 1791 4469 
Q 2569 4469 2939 3897 
Q 3309 3325 3309 2203 
z
M 2738 2203 
Q 2738 3156 2517 3584 
Q 2297 4013 1791 4013 
Q 1272 4013 1045 3591 
Q 819 3169 819 2203 
Q 819 1266 1048 831 
Q 1278 397 1778 397 
Q 2275 397 2506 840 
Q 2738 1284 2738 2203 
z
" transform="scale(0.015625)"/>
        <path id="LiberationSans-2e" d="M 584 0 
L 584 684 
L 1194 684 
L 1194 0 
L 584 0 
z
" transform="scale(0.015625)"/>
        <path id="LiberationSans-39" d="M 3256 2291 
Q 3256 1156 2842 546 
Q 2428 -63 1663 -63 
Q 1147 -63 836 154 
Q 525 372 391 856 
L 928 941 
Q 1097 391 1672 391 
Q 2156 391 2422 841 
Q 2688 1291 2700 2125 
Q 2575 1844 2272 1673 
Q 1969 1503 1606 1503 
Q 1013 1503 656 1909 
Q 300 2316 300 2988 
Q 300 3678 687 4073 
Q 1075 4469 1766 4469 
Q 2500 4469 2878 3925 
Q 3256 3381 3256 2291 
z
M 2644 2834 
Q 2644 3366 2400 3689 
Q 2156 4013 1747 4013 
Q 1341 4013 1106 3736 
Q 872 3459 872 2988 
Q 872 2506 1106 2226 
Q 1341 1947 1741 1947 
Q 1984 1947 2193 2058 
Q 2403 2169 2523 2372 
Q 2644 2575 2644 2834 
z
" transform="scale(0.015625)"/>
        <path id="LiberationSans-34" d="M 2753 997 
L 2753 0 
L 2222 0 
L 2222 997 
L 147 997 
L 147 1434 
L 2163 4403 
L 2753 4403 
L 2753 1441 
L 3372 1441 
L 3372 997 
L 2753 997 
z
M 2222 3769 
Q 2216 3750 2134 3603 
Q 2053 3456 2013 3397 
L 884 1734 
L 716 1503 
L 666 1441 
L 2222 1441 
L 2222 3769 
z
" transform="scale(0.015625)"/>
       </defs>
       <use xlink:href="#LiberationSans-30"/>
       <use xlink:href="#LiberationSans-2e" x="55.615234"/>
       <use xlink:href="#LiberationSans-39" x="83.398438"/>
       <use xlink:href="#LiberationSans-34" x="139.013672"/>
      </g>
     </g>
    </g>
    <g id="ytick_2">
     <g id="line2d_8">
      <g>
       <use xlink:href="#mc5cf5f090e" x="54" y="219.36" style="fill: #262626; stroke: #262626; stroke-width: 1.25"/>
      </g>
     </g>
     <g id="text_6">
      <!-- 0.95 -->
      <g style="fill: #262626" transform="translate(23.092969 223.345781) scale(0.11 -0.11)">
       <defs>
        <path id="LiberationSans-35" d="M 3291 1434 
Q 3291 738 2877 337 
Q 2463 -63 1728 -63 
Q 1113 -63 734 206 
Q 356 475 256 984 
L 825 1050 
Q 1003 397 1741 397 
Q 2194 397 2450 670 
Q 2706 944 2706 1422 
Q 2706 1838 2448 2094 
Q 2191 2350 1753 2350 
Q 1525 2350 1328 2278 
Q 1131 2206 934 2034 
L 384 2034 
L 531 4403 
L 3034 4403 
L 3034 3925 
L 1044 3925 
L 959 2528 
Q 1325 2809 1869 2809 
Q 2519 2809 2905 2428 
Q 3291 2047 3291 1434 
z
" transform="scale(0.015625)"/>
       </defs>
       <use xlink:href="#LiberationSans-30"/>
       <use xlink:href="#LiberationSans-2e" x="55.615234"/>
       <use xlink:href="#LiberationSans-39" x="83.398438"/>
       <use xlink:href="#LiberationSans-35" x="139.013672"/>
      </g>
     </g>
    </g>
    <g id="ytick_3">
     <g id="line2d_9">
      <g>
       <use xlink:href="#mc5cf5f090e" x="54" y="182.4" style="fill: #262626; stroke: #262626; stroke-width: 1.25"/>
      </g>
     </g>
     <g id="text_7">
      <!-- 0.96 -->
      <g style="fill: #262626" transform="translate(23.092969 186.385781) scale(0.11 -0.11)">
       <defs>
        <path id="LiberationSans-36" d="M 3278 1441 
Q 3278 744 2900 340 
Q 2522 -63 1856 -63 
Q 1113 -63 719 490 
Q 325 1044 325 2100 
Q 325 3244 734 3856 
Q 1144 4469 1900 4469 
Q 2897 4469 3156 3572 
L 2619 3475 
Q 2453 4013 1894 4013 
Q 1413 4013 1148 3564 
Q 884 3116 884 2266 
Q 1038 2550 1316 2698 
Q 1594 2847 1953 2847 
Q 2563 2847 2920 2465 
Q 3278 2084 3278 1441 
z
M 2706 1416 
Q 2706 1894 2472 2153 
Q 2238 2413 1819 2413 
Q 1425 2413 1183 2183 
Q 941 1953 941 1550 
Q 941 1041 1192 716 
Q 1444 391 1838 391 
Q 2244 391 2475 664 
Q 2706 938 2706 1416 
z
" transform="scale(0.015625)"/>
       </defs>
       <use xlink:href="#LiberationSans-30"/>
       <use xlink:href="#LiberationSans-2e" x="55.615234"/>
       <use xlink:href="#LiberationSans-39" x="83.398438"/>
       <use xlink:href="#LiberationSans-36" x="139.013672"/>
      </g>
     </g>
    </g>
    <g id="ytick_4">
     <g id="line2d_10">
      <g>
       <use xlink:href="#mc5cf5f090e" x="54" y="145.44" style="fill: #262626; stroke: #262626; stroke-width: 1.25"/>
      </g>
     </g>
     <g id="text_8">
      <!-- 0.97 -->
      <g style="fill: #262626" transform="translate(23.092969 149.425781) scale(0.11 -0.11)">
       <defs>
        <path id="LiberationSans-37" d="M 3238 3947 
Q 2563 2916 2284 2331 
Q 2006 1747 1867 1178 
Q 1728 609 1728 0 
L 1141 0 
Q 1141 844 1498 1776 
Q 1856 2709 2694 3925 
L 328 3925 
L 328 4403 
L 3238 4403 
L 3238 3947 
z
" transform="scale(0.015625)"/>
       </defs>
       <use xlink:href="#LiberationSans-30"/>
       <use xlink:href="#LiberationSans-2e" x="55.615234"/>
       <use xlink:href="#LiberationSans-39" x="83.398438"/>
       <use xlink:href="#LiberationSans-37" x="139.013672"/>
      </g>
     </g>
    </g>
    <g id="ytick_5">
     <g id="line2d_11">
      <g>
       <use xlink:href="#mc5cf5f090e" x="54" y="108.48" style="fill: #262626; stroke: #262626; stroke-width: 1.25"/>
      </g>
     </g>
     <g id="text_9">
      <!-- 0.98 -->
      <g style="fill: #262626" transform="translate(23.092969 112.465781) scale(0.11 -0.11)">
       <defs>
        <path id="LiberationSans-38" d="M 3281 1228 
Q 3281 619 2893 278 
Q 2506 -63 1781 -63 
Q 1075 -63 676 271 
Q 278 606 278 1222 
Q 278 1653 525 1947 
Q 772 2241 1156 2303 
L 1156 2316 
Q 797 2400 589 2681 
Q 381 2963 381 3341 
Q 381 3844 757 4156 
Q 1134 4469 1769 4469 
Q 2419 4469 2795 4162 
Q 3172 3856 3172 3334 
Q 3172 2956 2962 2675 
Q 2753 2394 2391 2322 
L 2391 2309 
Q 2813 2241 3047 1952 
Q 3281 1663 3281 1228 
z
M 2588 3303 
Q 2588 4050 1769 4050 
Q 1372 4050 1164 3862 
Q 956 3675 956 3303 
Q 956 2925 1170 2726 
Q 1384 2528 1775 2528 
Q 2172 2528 2380 2711 
Q 2588 2894 2588 3303 
z
M 2697 1281 
Q 2697 1691 2453 1898 
Q 2209 2106 1769 2106 
Q 1341 2106 1100 1882 
Q 859 1659 859 1269 
Q 859 359 1788 359 
Q 2247 359 2472 579 
Q 2697 800 2697 1281 
z
" transform="scale(0.015625)"/>
       </defs>
       <use xlink:href="#LiberationSans-30"/>
       <use xlink:href="#LiberationSans-2e" x="55.615234"/>
       <use xlink:href="#LiberationSans-39" x="83.398438"/>
       <use xlink:href="#LiberationSans-38" x="139.013672"/>
      </g>
     </g>
    </g>
    <g id="ytick_6">
     <g id="line2d_12">
      <g>
       <use xlink:href="#mc5cf5f090e" x="54" y="71.52" style="fill: #262626; stroke: #262626; stroke-width: 1.25"/>
      </g>
     </g>
     <g id="text_10">
      <!-- 0.99 -->
      <g style="fill: #262626" transform="translate(23.092969 75.505781) scale(0.11 -0.11)">
       <use xlink:href="#LiberationSans-30"/>
       <use xlink:href="#LiberationSans-2e" x="55.615234"/>
       <use xlink:href="#LiberationSans-39" x="83.398438"/>
       <use xlink:href="#LiberationSans-39" x="139.013672"/>
      </g>
     </g>
    </g>
    <g id="ytick_7">
     <g id="line2d_13">
      <g>
       <use xlink:href="#mc5cf5f090e" x="54" y="34.56" style="fill: #262626; stroke: #262626; stroke-width: 1.25"/>
      </g>
     </g>
     <g id="text_11">
      <!-- 1.00 -->
      <g style="fill: #262626" transform="translate(23.092969 38.545781) scale(0.11 -0.11)">
       <defs>
        <path id="LiberationSans-31" d="M 488 0 
L 488 478 
L 1609 478 
L 1609 3866 
L 616 3156 
L 616 3688 
L 1656 4403 
L 2175 4403 
L 2175 478 
L 3247 478 
L 3247 0 
L 488 0 
z
" transform="scale(0.015625)"/>
       </defs>
       <use xlink:href="#LiberationSans-31"/>
       <use xlink:href="#LiberationSans-2e" x="55.615234"/>
       <use xlink:href="#LiberationSans-30" x="83.398438"/>
       <use xlink:href="#LiberationSans-30" x="139.013672"/>
      </g>
     </g>
    </g>
    <g id="text_12">
     <!-- Accuracy -->
     <g style="fill: #262626" transform="translate(15.772969 178.3375) rotate(-90) scale(0.16 -0.16)">
      <defs>
       <path id="LiberationSans-41" d="M 3647 0 
L 3144 1288 
L 1138 1288 
L 631 0 
L 13 0 
L 1809 4403 
L 2488 4403 
L 4256 0 
L 3647 0 
z
M 2141 3953 
L 2113 3866 
Q 2034 3606 1881 3200 
L 1319 1753 
L 2966 1753 
L 2400 3206 
Q 2313 3422 2225 3694 
L 2141 3953 
z
" transform="scale(0.015625)"/>
       <path id="LiberationSans-63" d="M 859 1706 
Q 859 1031 1071 706 
Q 1284 381 1713 381 
Q 2013 381 2214 543 
Q 2416 706 2463 1044 
L 3031 1006 
Q 2966 519 2616 228 
Q 2266 -63 1728 -63 
Q 1019 -63 645 385 
Q 272 834 272 1694 
Q 272 2547 647 2995 
Q 1022 3444 1722 3444 
Q 2241 3444 2583 3175 
Q 2925 2906 3013 2434 
L 2434 2391 
Q 2391 2672 2212 2837 
Q 2034 3003 1706 3003 
Q 1259 3003 1059 2706 
Q 859 2409 859 1706 
z
" transform="scale(0.015625)"/>
      </defs>
      <use xlink:href="#LiberationSans-41"/>
      <use xlink:href="#LiberationSans-63" x="66.699219"/>
      <use xlink:href="#LiberationSans-63" x="116.699219"/>
      <use xlink:href="#LiberationSans-75" x="166.699219"/>
      <use xlink:href="#LiberationSans-72" x="222.314453"/>
      <use xlink:href="#LiberationSans-61" x="255.615234"/>
      <use xlink:href="#LiberationSans-63" x="311.230469"/>
      <use xlink:href="#LiberationSans-79" x="361.230469"/>
     </g>
    </g>
   </g>
   <g id="patch_3">
    <path d="M 109.8 3730.56 
L 109.8 3730.56 
L 109.8 3730.56 
L 109.8 3730.56 
z
" clip-path="url(#pb3d30db51f)" style="fill: #abc9ea; stroke: #6f6f6f; stroke-linejoin: miter"/>
   </g>
   <g id="patch_4">
    <path d="M 109.8 3730.56 
L 109.8 3730.56 
L 109.8 3730.56 
L 109.8 3730.56 
z
" clip-path="url(#pb3d30db51f)" style="fill: #efb792; stroke: #6f6f6f; stroke-linejoin: miter"/>
   </g>
   <g id="patch_5">
    <path d="M 109.8 3730.56 
L 109.8 3730.56 
L 109.8 3730.56 
L 109.8 3730.56 
z
" clip-path="url(#pb3d30db51f)" style="fill: #98daa7; stroke: #6f6f6f; stroke-linejoin: miter"/>
   </g>
   <g id="patch_6">
    <path d="M 65.16 92.229832 
L 94.92 92.229832 
L 94.92 83.112968 
L 65.16 83.112968 
L 65.16 92.229832 
z
" clip-path="url(#pb3d30db51f)" style="fill: #abc9ea; stroke: #6f6f6f; stroke-linejoin: miter"/>
   </g>
   <g id="line2d_14">
    <path d="M 80.04 92.229832 
L 80.04 99.052538 
" clip-path="url(#pb3d30db51f)" style="fill: none; stroke: #6f6f6f"/>
   </g>
   <g id="line2d_15">
    <path d="M 80.04 83.112968 
L 80.04 78.556178 
" clip-path="url(#pb3d30db51f)" style="fill: none; stroke: #6f6f6f"/>
   </g>
   <g id="line2d_16">
    <path d="M 72.6 99.052538 
L 87.48 99.052538 
" clip-path="url(#pb3d30db51f)" style="fill: none; stroke: #6f6f6f; stroke-linecap: round"/>
   </g>
   <g id="line2d_17">
    <path d="M 72.6 78.556178 
L 87.48 78.556178 
" clip-path="url(#pb3d30db51f)" style="fill: none; stroke: #6f6f6f; stroke-linecap: round"/>
   </g>
   <g id="patch_7">
    <path d="M 176.76 96.36263 
L 206.52 96.36263 
L 206.52 87.977939 
L 176.76 87.977939 
L 176.76 96.36263 
z
" clip-path="url(#pb3d30db51f)" style="fill: #abc9ea; stroke: #6f6f6f; stroke-linejoin: miter"/>
   </g>
   <g id="line2d_18">
    <path d="M 191.64 96.36263 
L 191.64 103.435726 
" clip-path="url(#pb3d30db51f)" style="fill: none; stroke: #6f6f6f"/>
   </g>
   <g id="line2d_19">
    <path d="M 191.64 87.977939 
L 191.64 85.917016 
" clip-path="url(#pb3d30db51f)" style="fill: none; stroke: #6f6f6f"/>
   </g>
   <g id="line2d_20">
    <path d="M 184.2 103.435726 
L 199.08 103.435726 
" clip-path="url(#pb3d30db51f)" style="fill: none; stroke: #6f6f6f; stroke-linecap: round"/>
   </g>
   <g id="line2d_21">
    <path d="M 184.2 85.917016 
L 199.08 85.917016 
" clip-path="url(#pb3d30db51f)" style="fill: none; stroke: #6f6f6f; stroke-linecap: round"/>
   </g>
   <g id="patch_8">
    <path d="M 288.36 139.910583 
L 318.12 139.910583 
L 318.12 127.520029 
L 288.36 127.520029 
L 288.36 139.910583 
z
" clip-path="url(#pb3d30db51f)" style="fill: #abc9ea; stroke: #6f6f6f; stroke-linejoin: miter"/>
   </g>
   <g id="line2d_22">
    <path d="M 303.24 139.910583 
L 303.24 155.825197 
" clip-path="url(#pb3d30db51f)" style="fill: none; stroke: #6f6f6f"/>
   </g>
   <g id="line2d_23">
    <path d="M 303.24 127.520029 
L 303.24 121.60215 
" clip-path="url(#pb3d30db51f)" style="fill: none; stroke: #6f6f6f"/>
   </g>
   <g id="line2d_24">
    <path d="M 295.8 155.825197 
L 310.68 155.825197 
" clip-path="url(#pb3d30db51f)" style="fill: none; stroke: #6f6f6f; stroke-linecap: round"/>
   </g>
   <g id="line2d_25">
    <path d="M 295.8 121.60215 
L 310.68 121.60215 
" clip-path="url(#pb3d30db51f)" style="fill: none; stroke: #6f6f6f; stroke-linecap: round"/>
   </g>
   <g id="patch_9">
    <path d="M 94.92 89.75277 
L 124.68 89.75277 
L 124.68 83.78853 
L 94.92 83.78853 
L 94.92 89.75277 
z
" clip-path="url(#pb3d30db51f)" style="fill: #efb792; stroke: #6f6f6f; stroke-linejoin: miter"/>
   </g>
   <g id="line2d_26">
    <path d="M 109.8 89.75277 
L 109.8 90.905133 
" clip-path="url(#pb3d30db51f)" style="fill: none; stroke: #6f6f6f"/>
   </g>
   <g id="line2d_27">
    <path d="M 109.8 83.78853 
L 109.8 81.196579 
" clip-path="url(#pb3d30db51f)" style="fill: none; stroke: #6f6f6f"/>
   </g>
   <g id="line2d_28">
    <path d="M 102.36 90.905133 
L 117.24 90.905133 
" clip-path="url(#pb3d30db51f)" style="fill: none; stroke: #6f6f6f; stroke-linecap: round"/>
   </g>
   <g id="line2d_29">
    <path d="M 102.36 81.196579 
L 117.24 81.196579 
" clip-path="url(#pb3d30db51f)" style="fill: none; stroke: #6f6f6f; stroke-linecap: round"/>
   </g>
   <g id="patch_10">
    <path d="M 206.52 94.465875 
L 236.28 94.465875 
L 236.28 87.791593 
L 206.52 87.791593 
L 206.52 94.465875 
z
" clip-path="url(#pb3d30db51f)" style="fill: #efb792; stroke: #6f6f6f; stroke-linejoin: miter"/>
   </g>
   <g id="line2d_30">
    <path d="M 221.4 94.465875 
L 221.4 96.94089 
" clip-path="url(#pb3d30db51f)" style="fill: none; stroke: #6f6f6f"/>
   </g>
   <g id="line2d_31">
    <path d="M 221.4 87.791593 
L 221.4 81.874392 
" clip-path="url(#pb3d30db51f)" style="fill: none; stroke: #6f6f6f"/>
   </g>
   <g id="line2d_32">
    <path d="M 213.96 96.94089 
L 228.84 96.94089 
" clip-path="url(#pb3d30db51f)" style="fill: none; stroke: #6f6f6f; stroke-linecap: round"/>
   </g>
   <g id="line2d_33">
    <path d="M 213.96 81.874392 
L 228.84 81.874392 
" clip-path="url(#pb3d30db51f)" style="fill: none; stroke: #6f6f6f; stroke-linecap: round"/>
   </g>
   <g id="patch_11">
    <path d="M 318.12 123.996435 
L 347.88 123.996435 
L 347.88 116.538777 
L 318.12 116.538777 
L 318.12 123.996435 
z
" clip-path="url(#pb3d30db51f)" style="fill: #efb792; stroke: #6f6f6f; stroke-linejoin: miter"/>
   </g>
   <g id="line2d_34">
    <path d="M 333 123.996435 
L 333 132.731232 
" clip-path="url(#pb3d30db51f)" style="fill: none; stroke: #6f6f6f"/>
   </g>
   <g id="line2d_35">
    <path d="M 333 116.538777 
L 333 109.116509 
" clip-path="url(#pb3d30db51f)" style="fill: none; stroke: #6f6f6f"/>
   </g>
   <g id="line2d_36">
    <path d="M 325.56 132.731232 
L 340.44 132.731232 
" clip-path="url(#pb3d30db51f)" style="fill: none; stroke: #6f6f6f; stroke-linecap: round"/>
   </g>
   <g id="line2d_37">
    <path d="M 325.56 109.116509 
L 340.44 109.116509 
" clip-path="url(#pb3d30db51f)" style="fill: none; stroke: #6f6f6f; stroke-linecap: round"/>
   </g>
   <g id="patch_12">
    <path d="M 124.68 85.744624 
L 154.44 85.744624 
L 154.44 79.365591 
L 124.68 79.365591 
L 124.68 85.744624 
z
" clip-path="url(#pb3d30db51f)" style="fill: #98daa7; stroke: #6f6f6f; stroke-linejoin: miter"/>
   </g>
   <g id="line2d_38">
    <path d="M 139.56 85.744624 
L 139.56 93.165571 
" clip-path="url(#pb3d30db51f)" style="fill: none; stroke: #6f6f6f"/>
   </g>
   <g id="line2d_39">
    <path d="M 139.56 79.365591 
L 139.56 76.06014 
" clip-path="url(#pb3d30db51f)" style="fill: none; stroke: #6f6f6f"/>
   </g>
   <g id="line2d_40">
    <path d="M 132.12 93.165571 
L 147 93.165571 
" clip-path="url(#pb3d30db51f)" style="fill: none; stroke: #6f6f6f; stroke-linecap: round"/>
   </g>
   <g id="line2d_41">
    <path d="M 132.12 76.06014 
L 147 76.06014 
" clip-path="url(#pb3d30db51f)" style="fill: none; stroke: #6f6f6f; stroke-linecap: round"/>
   </g>
   <g id="patch_13">
    <path d="M 236.28 90.448247 
L 266.04 90.448247 
L 266.04 85.874479 
L 236.28 85.874479 
L 236.28 90.448247 
z
" clip-path="url(#pb3d30db51f)" style="fill: #98daa7; stroke: #6f6f6f; stroke-linejoin: miter"/>
   </g>
   <g id="line2d_42">
    <path d="M 251.16 90.448247 
L 251.16 91.98825 
" clip-path="url(#pb3d30db51f)" style="fill: none; stroke: #6f6f6f"/>
   </g>
   <g id="line2d_43">
    <path d="M 251.16 85.874479 
L 251.16 82.380093 
" clip-path="url(#pb3d30db51f)" style="fill: none; stroke: #6f6f6f"/>
   </g>
   <g id="line2d_44">
    <path d="M 243.72 91.98825 
L 258.6 91.98825 
" clip-path="url(#pb3d30db51f)" style="fill: none; stroke: #6f6f6f; stroke-linecap: round"/>
   </g>
   <g id="line2d_45">
    <path d="M 243.72 82.380093 
L 258.6 82.380093 
" clip-path="url(#pb3d30db51f)" style="fill: none; stroke: #6f6f6f; stroke-linecap: round"/>
   </g>
   <g id="patch_14">
    <path d="M 347.88 120.481 
L 377.64 120.481 
L 377.64 112.609453 
L 347.88 112.609453 
L 347.88 120.481 
z
" clip-path="url(#pb3d30db51f)" style="fill: #98daa7; stroke: #6f6f6f; stroke-linejoin: miter"/>
   </g>
   <g id="line2d_46">
    <path d="M 362.76 120.481 
L 362.76 130.331742 
" clip-path="url(#pb3d30db51f)" style="fill: none; stroke: #6f6f6f"/>
   </g>
   <g id="line2d_47">
    <path d="M 362.76 112.609453 
L 362.76 105.1988 
" clip-path="url(#pb3d30db51f)" style="fill: none; stroke: #6f6f6f"/>
   </g>
   <g id="line2d_48">
    <path d="M 355.32 130.331742 
L 370.2 130.331742 
" clip-path="url(#pb3d30db51f)" style="fill: none; stroke: #6f6f6f; stroke-linecap: round"/>
   </g>
   <g id="line2d_49">
    <path d="M 355.32 105.1988 
L 370.2 105.1988 
" clip-path="url(#pb3d30db51f)" style="fill: none; stroke: #6f6f6f; stroke-linecap: round"/>
   </g>
   <g id="line2d_50">
    <path d="M 65.16 86.21029 
L 94.92 86.21029 
" clip-path="url(#pb3d30db51f)" style="fill: none; stroke: #6f6f6f"/>
   </g>
   <g id="line2d_51">
    <path d="M 176.76 93.621891 
L 206.52 93.621891 
" clip-path="url(#pb3d30db51f)" style="fill: none; stroke: #6f6f6f"/>
   </g>
   <g id="line2d_52">
    <path d="M 288.36 128.791682 
L 318.12 128.791682 
" clip-path="url(#pb3d30db51f)" style="fill: none; stroke: #6f6f6f"/>
   </g>
   <g id="line2d_53">
    <path d="M 94.92 85.318146 
L 124.68 85.318146 
" clip-path="url(#pb3d30db51f)" style="fill: none; stroke: #6f6f6f"/>
   </g>
   <g id="line2d_54">
    <path d="M 206.52 92.610272 
L 236.28 92.610272 
" clip-path="url(#pb3d30db51f)" style="fill: none; stroke: #6f6f6f"/>
   </g>
   <g id="line2d_55">
    <path d="M 318.12 121.762667 
L 347.88 121.762667 
" clip-path="url(#pb3d30db51f)" style="fill: none; stroke: #6f6f6f"/>
   </g>
   <g id="line2d_56">
    <path d="M 124.68 83.485958 
L 154.44 83.485958 
" clip-path="url(#pb3d30db51f)" style="fill: none; stroke: #6f6f6f"/>
   </g>
   <g id="line2d_57">
    <path d="M 236.28 88.300491 
L 266.04 88.300491 
" clip-path="url(#pb3d30db51f)" style="fill: none; stroke: #6f6f6f"/>
   </g>
   <g id="line2d_58">
    <path d="M 347.88 116.155928 
L 377.64 116.155928 
" clip-path="url(#pb3d30db51f)" style="fill: none; stroke: #6f6f6f"/>
   </g>
   <g id="patch_15">
    <path d="M 54 256.32 
L 54 34.56 
" style="fill: none; stroke: #262626; stroke-width: 1.25; stroke-linejoin: miter; stroke-linecap: square"/>
   </g>
   <g id="patch_16">
    <path d="M 54 256.32 
L 388.8 256.32 
" style="fill: none; stroke: #262626; stroke-width: 1.25; stroke-linejoin: miter; stroke-linecap: square"/>
   </g>
   <g id="legend_1">
    <g id="patch_17">
     <path d="M 62.4 250.32 
L 180.1575 250.32 
Q 182.5575 250.32 182.5575 247.92 
L 182.5575 146.0025 
Q 182.5575 143.6025 180.1575 143.6025 
L 62.4 143.6025 
Q 60 143.6025 60 146.0025 
L 60 247.92 
Q 60 250.32 62.4 250.32 
z
" style="fill: #ffffff; opacity: 0.8; stroke: #cccccc; stroke-linejoin: miter"/>
    </g>
    <g id="patch_18">
     <path d="M 64.8 157.09875 
L 88.8 157.09875 
L 88.8 148.69875 
L 64.8 148.69875 
z
" style="fill: #abc9ea; stroke: #6f6f6f; stroke-linejoin: miter"/>
    </g>
    <g id="text_13">
     <!-- Individual -->
     <g style="fill: #262626" transform="translate(98.4 157.09875) scale(0.12 -0.12)">
      <defs>
       <path id="LiberationSans-49" d="M 591 0 
L 591 4403 
L 1188 4403 
L 1188 0 
L 591 0 
z
" transform="scale(0.015625)"/>
       <path id="LiberationSans-64" d="M 2566 544 
Q 2409 219 2151 78 
Q 1894 -63 1513 -63 
Q 872 -63 570 368 
Q 269 800 269 1675 
Q 269 3444 1513 3444 
Q 1897 3444 2153 3303 
Q 2409 3163 2566 2856 
L 2572 2856 
L 2566 3234 
L 2566 4638 
L 3128 4638 
L 3128 697 
Q 3128 169 3147 0 
L 2609 0 
Q 2600 50 2589 231 
Q 2578 413 2578 544 
L 2566 544 
z
M 859 1694 
Q 859 984 1046 678 
Q 1234 372 1656 372 
Q 2134 372 2350 703 
Q 2566 1034 2566 1731 
Q 2566 2403 2350 2715 
Q 2134 3028 1663 3028 
Q 1238 3028 1048 2714 
Q 859 2400 859 1694 
z
" transform="scale(0.015625)"/>
       <path id="LiberationSans-76" d="M 1916 0 
L 1250 0 
L 22 3381 
L 622 3381 
L 1366 1181 
Q 1406 1056 1581 441 
L 1691 806 
L 1813 1175 
L 2581 3381 
L 3178 3381 
L 1916 0 
z
" transform="scale(0.015625)"/>
      </defs>
      <use xlink:href="#LiberationSans-49"/>
      <use xlink:href="#LiberationSans-6e" x="27.783203"/>
      <use xlink:href="#LiberationSans-64" x="83.398438"/>
      <use xlink:href="#LiberationSans-69" x="139.013672"/>
      <use xlink:href="#LiberationSans-76" x="161.230469"/>
      <use xlink:href="#LiberationSans-69" x="211.230469"/>
      <use xlink:href="#LiberationSans-64" x="233.447266"/>
      <use xlink:href="#LiberationSans-75" x="289.0625"/>
      <use xlink:href="#LiberationSans-61" x="344.677734"/>
      <use xlink:href="#LiberationSans-6c" x="400.292969"/>
     </g>
    </g>
    <g id="patch_19">
     <path d="M 64.8 174.285 
L 88.8 174.285 
L 88.8 165.885 
L 64.8 165.885 
z
" style="fill: #efb792; stroke: #6f6f6f; stroke-linejoin: miter"/>
    </g>
    <g id="text_14">
     <!-- Parallel -->
     <g style="fill: #262626" transform="translate(98.4 174.285) scale(0.12 -0.12)">
      <use xlink:href="#LiberationSans-50"/>
      <use xlink:href="#LiberationSans-61" x="66.699219"/>
      <use xlink:href="#LiberationSans-72" x="122.314453"/>
      <use xlink:href="#LiberationSans-61" x="155.615234"/>
      <use xlink:href="#LiberationSans-6c" x="211.230469"/>
      <use xlink:href="#LiberationSans-6c" x="233.447266"/>
      <use xlink:href="#LiberationSans-65" x="255.664062"/>
      <use xlink:href="#LiberationSans-6c" x="311.279297"/>
     </g>
    </g>
    <g id="patch_20">
     <path d="M 64.8 191.47125 
L 88.8 191.47125 
L 88.8 183.07125 
L 64.8 183.07125 
z
" style="fill: #98daa7; stroke: #6f6f6f; stroke-linejoin: miter"/>
    </g>
    <g id="text_15">
     <!-- Task Switching -->
     <g style="fill: #262626" transform="translate(98.4 191.47125) scale(0.12 -0.12)">
      <defs>
       <path id="LiberationSans-20" transform="scale(0.015625)"/>
       <path id="LiberationSans-53" d="M 3975 1216 
Q 3975 606 3498 271 
Q 3022 -63 2156 -63 
Q 547 -63 291 1056 
L 869 1172 
Q 969 775 1294 589 
Q 1619 403 2178 403 
Q 2756 403 3070 601 
Q 3384 800 3384 1184 
Q 3384 1400 3286 1534 
Q 3188 1669 3009 1756 
Q 2831 1844 2584 1903 
Q 2338 1963 2038 2031 
Q 1516 2147 1245 2262 
Q 975 2378 819 2520 
Q 663 2663 580 2853 
Q 497 3044 497 3291 
Q 497 3856 930 4162 
Q 1363 4469 2169 4469 
Q 2919 4469 3316 4239 
Q 3713 4009 3872 3456 
L 3284 3353 
Q 3188 3703 2916 3861 
Q 2644 4019 2163 4019 
Q 1634 4019 1356 3844 
Q 1078 3669 1078 3322 
Q 1078 3119 1186 2986 
Q 1294 2853 1497 2761 
Q 1700 2669 2306 2534 
Q 2509 2488 2711 2439 
Q 2913 2391 3097 2323 
Q 3281 2256 3442 2165 
Q 3603 2075 3722 1944 
Q 3841 1813 3908 1634 
Q 3975 1456 3975 1216 
z
" transform="scale(0.015625)"/>
       <path id="LiberationSans-77" d="M 3669 0 
L 3016 0 
L 2425 2391 
L 2313 2919 
Q 2284 2778 2225 2514 
Q 2166 2250 1588 0 
L 938 0 
L -9 3381 
L 547 3381 
L 1119 1084 
Q 1141 1009 1253 466 
L 1306 697 
L 2013 3381 
L 2616 3381 
L 3206 1059 
L 3350 466 
L 3447 900 
L 4088 3381 
L 4638 3381 
L 3669 0 
z
" transform="scale(0.015625)"/>
       <path id="LiberationSans-68" d="M 991 2803 
Q 1172 3134 1426 3289 
Q 1681 3444 2072 3444 
Q 2622 3444 2883 3170 
Q 3144 2897 3144 2253 
L 3144 0 
L 2578 0 
L 2578 2144 
Q 2578 2500 2512 2673 
Q 2447 2847 2297 2928 
Q 2147 3009 1881 3009 
Q 1484 3009 1245 2734 
Q 1006 2459 1006 1994 
L 1006 0 
L 444 0 
L 444 4638 
L 1006 4638 
L 1006 3431 
Q 1006 3241 995 3037 
Q 984 2834 981 2803 
L 991 2803 
z
" transform="scale(0.015625)"/>
       <path id="LiberationSans-67" d="M 1713 -1328 
Q 1159 -1328 831 -1111 
Q 503 -894 409 -494 
L 975 -413 
Q 1031 -647 1223 -773 
Q 1416 -900 1728 -900 
Q 2569 -900 2569 84 
L 2569 628 
L 2563 628 
Q 2403 303 2125 139 
Q 1847 -25 1475 -25 
Q 853 -25 561 387 
Q 269 800 269 1684 
Q 269 2581 583 3007 
Q 897 3434 1538 3434 
Q 1897 3434 2161 3270 
Q 2425 3106 2569 2803 
L 2575 2803 
Q 2575 2897 2587 3128 
Q 2600 3359 2613 3381 
L 3147 3381 
Q 3128 3213 3128 2681 
L 3128 97 
Q 3128 -1328 1713 -1328 
z
M 2569 1691 
Q 2569 2103 2456 2401 
Q 2344 2700 2139 2858 
Q 1934 3016 1675 3016 
Q 1244 3016 1047 2703 
Q 850 2391 850 1691 
Q 850 997 1034 694 
Q 1219 391 1666 391 
Q 1931 391 2137 547 
Q 2344 703 2456 995 
Q 2569 1288 2569 1691 
z
" transform="scale(0.015625)"/>
      </defs>
      <use xlink:href="#LiberationSans-54"/>
      <use xlink:href="#LiberationSans-61" x="49.958984"/>
      <use xlink:href="#LiberationSans-73" x="105.574219"/>
      <use xlink:href="#LiberationSans-6b" x="155.574219"/>
      <use xlink:href="#LiberationSans-20" x="205.574219"/>
      <use xlink:href="#LiberationSans-53" x="233.357422"/>
      <use xlink:href="#LiberationSans-77" x="300.056641"/>
      <use xlink:href="#LiberationSans-69" x="372.273438"/>
      <use xlink:href="#LiberationSans-74" x="394.490234"/>
      <use xlink:href="#LiberationSans-63" x="422.273438"/>
      <use xlink:href="#LiberationSans-68" x="472.273438"/>
      <use xlink:href="#LiberationSans-69" x="527.888672"/>
      <use xlink:href="#LiberationSans-6e" x="550.105469"/>
      <use xlink:href="#LiberationSans-67" x="605.720703"/>
     </g>
    </g>
    <g id="line2d_59">
     <defs>
      <path id="m2c1c62e255" d="M 0 2.5 
C 0.663008 2.5 1.29895 2.236584 1.767767 1.767767 
C 2.236584 1.29895 2.5 0.663008 2.5 0 
C 2.5 -0.663008 2.236584 -1.29895 1.767767 -1.767767 
C 1.29895 -2.236584 0.663008 -2.5 0 -2.5 
C -0.663008 -2.5 -1.29895 -2.236584 -1.767767 -1.767767 
C -2.236584 -1.29895 -2.5 -0.663008 -2.5 0 
C -2.5 0.663008 -2.236584 1.29895 -1.767767 1.767767 
C -1.29895 2.236584 -0.663008 2.5 0 2.5 
z
"/>
     </defs>
     <g>
      <use xlink:href="#m2c1c62e255" x="76.8" y="204.4575" style="fill: #a1c9f4"/>
     </g>
    </g>
    <g id="text_16">
     <!-- Individual -->
     <g style="fill: #262626" transform="translate(98.4 208.6575) scale(0.12 -0.12)">
      <use xlink:href="#LiberationSans-49"/>
      <use xlink:href="#LiberationSans-6e" x="27.783203"/>
      <use xlink:href="#LiberationSans-64" x="83.398438"/>
      <use xlink:href="#LiberationSans-69" x="139.013672"/>
      <use xlink:href="#LiberationSans-76" x="161.230469"/>
      <use xlink:href="#LiberationSans-69" x="211.230469"/>
      <use xlink:href="#LiberationSans-64" x="233.447266"/>
      <use xlink:href="#LiberationSans-75" x="289.0625"/>
      <use xlink:href="#LiberationSans-61" x="344.677734"/>
      <use xlink:href="#LiberationSans-6c" x="400.292969"/>
     </g>
    </g>
    <g id="line2d_60">
     <defs>
      <path id="ma8c8ac9f64" d="M 0 2.5 
C 0.663008 2.5 1.29895 2.236584 1.767767 1.767767 
C 2.236584 1.29895 2.5 0.663008 2.5 0 
C 2.5 -0.663008 2.236584 -1.29895 1.767767 -1.767767 
C 1.29895 -2.236584 0.663008 -2.5 0 -2.5 
C -0.663008 -2.5 -1.29895 -2.236584 -1.767767 -1.767767 
C -2.236584 -1.29895 -2.5 -0.663008 -2.5 0 
C -2.5 0.663008 -2.236584 1.29895 -1.767767 1.767767 
C -1.29895 2.236584 -0.663008 2.5 0 2.5 
z
"/>
     </defs>
     <g>
      <use xlink:href="#ma8c8ac9f64" x="76.8" y="221.64375" style="fill: #ffb482"/>
     </g>
    </g>
    <g id="text_17">
     <!-- Parallel -->
     <g style="fill: #262626" transform="translate(98.4 225.84375) scale(0.12 -0.12)">
      <use xlink:href="#LiberationSans-50"/>
      <use xlink:href="#LiberationSans-61" x="66.699219"/>
      <use xlink:href="#LiberationSans-72" x="122.314453"/>
      <use xlink:href="#LiberationSans-61" x="155.615234"/>
      <use xlink:href="#LiberationSans-6c" x="211.230469"/>
      <use xlink:href="#LiberationSans-6c" x="233.447266"/>
      <use xlink:href="#LiberationSans-65" x="255.664062"/>
      <use xlink:href="#LiberationSans-6c" x="311.279297"/>
     </g>
    </g>
    <g id="line2d_61">
     <defs>
      <path id="m28be515e5f" d="M 0 2.5 
C 0.663008 2.5 1.29895 2.236584 1.767767 1.767767 
C 2.236584 1.29895 2.5 0.663008 2.5 0 
C 2.5 -0.663008 2.236584 -1.29895 1.767767 -1.767767 
C 1.29895 -2.236584 0.663008 -2.5 0 -2.5 
C -0.663008 -2.5 -1.29895 -2.236584 -1.767767 -1.767767 
C -2.236584 -1.29895 -2.5 -0.663008 -2.5 0 
C -2.5 0.663008 -2.236584 1.29895 -1.767767 1.767767 
C -1.29895 2.236584 -0.663008 2.5 0 2.5 
z
"/>
     </defs>
     <g>
      <use xlink:href="#m28be515e5f" x="76.8" y="238.83" style="fill: #8de5a1"/>
     </g>
    </g>
    <g id="text_18">
     <!-- Task Switching -->
     <g style="fill: #262626" transform="translate(98.4 243.03) scale(0.12 -0.12)">
      <use xlink:href="#LiberationSans-54"/>
      <use xlink:href="#LiberationSans-61" x="49.958984"/>
      <use xlink:href="#LiberationSans-73" x="105.574219"/>
      <use xlink:href="#LiberationSans-6b" x="155.574219"/>
      <use xlink:href="#LiberationSans-20" x="205.574219"/>
      <use xlink:href="#LiberationSans-53" x="233.357422"/>
      <use xlink:href="#LiberationSans-77" x="300.056641"/>
      <use xlink:href="#LiberationSans-69" x="372.273438"/>
      <use xlink:href="#LiberationSans-74" x="394.490234"/>
      <use xlink:href="#LiberationSans-63" x="422.273438"/>
      <use xlink:href="#LiberationSans-68" x="472.273438"/>
      <use xlink:href="#LiberationSans-69" x="527.888672"/>
      <use xlink:href="#LiberationSans-6e" x="550.105469"/>
      <use xlink:href="#LiberationSans-67" x="605.720703"/>
     </g>
    </g>
   </g>
  </g>
 </g>
 <defs>
  <clipPath id="pb3d30db51f">
   <rect x="54" y="34.56" width="334.8" height="221.76"/>
  </clipPath>
 </defs>
</svg>
