<?xml version="1.0" encoding="utf-8" standalone="no"?>
<!DOCTYPE svg PUBLIC "-//W3C//DTD SVG 1.1//EN"
  "http://www.w3.org/Graphics/SVG/1.1/DTD/svg11.dtd">
<svg height="288pt" version="1.1" viewBox="0 0 432 288" width="432pt" xmlns="http://www.w3.org/2000/svg" xmlns:xlink="http://www.w3.org/1999/xlink">
 <metadata>
  <rdf:RDF xmlns:cc="http://creativecommons.org/ns#" xmlns:dc="http://purl.org/dc/elements/1.1/" xmlns:rdf="http://www.w3.org/1999/02/22-rdf-syntax-ns#">
   <cc:Work>
    <dc:type rdf:resource="http://purl.org/dc/dcmitype/StillImage"/>
    <dc:date>2023-05-13T17:53:26.948990</dc:date>
    <dc:format>image/svg+xml</dc:format>
    <dc:creator>
     <cc:Agent>
      <dc:title>Matplotlib v3.4.3, https://matplotlib.org/</dc:title>
     </cc:Agent>
    </dc:creator>
   </cc:Work>
  </rdf:RDF>
 </metadata>
 <defs>
  <style type="text/css">*{stroke-linecap:butt;stroke-linejoin:round;}</style>
 </defs>
 <g id="figure_1">
  <g id="patch_1">
   <path d="M 0 288 
L 432 288 
L 432 0 
L 0 0 
z
" style="fill:#ffffff;"/>
  </g>
  <g id="axes_1">
   <g id="patch_2">
    <path d="M 54 256.32 
L 388.8 256.32 
L 388.8 34.56 
L 54 34.56 
z
" style="fill:#ffffff;"/>
   </g>
   <g id="PathCollection_1">
    <defs>
     <path d="M 0 2.5 
C 0.663008 2.5 1.29895 2.236584 1.767767 1.767767 
C 2.236584 1.29895 2.5 0.663008 2.5 -0 
C 2.5 -0.663008 2.236584 -1.29895 1.767767 -1.767767 
C 1.29895 -2.236584 0.663008 -2.5 0 -2.5 
C -0.663008 -2.5 -1.29895 -2.236584 -1.767767 -1.767767 
C -2.236584 -1.29895 -2.5 -0.663008 -2.5 0 
C -2.5 0.663008 -2.236584 1.29895 -1.767767 1.767767 
C -1.29895 2.236584 -0.663008 2.5 0 2.5 
z
" id="C0_0_40205e7b79"/>
    </defs>
    <g clip-path="url(#pff53fc033c)">
     <use style="fill:#a1c9f4;" x="76.685935" xlink:href="#C0_0_40205e7b79" y="107.17443"/>
    </g>
    <g clip-path="url(#pff53fc033c)">
     <use style="fill:#a1c9f4;" x="78.599426" xlink:href="#C0_0_40205e7b79" y="108.034521"/>
    </g>
    <g clip-path="url(#pff53fc033c)">
     <use style="fill:#a1c9f4;" x="82.985954" xlink:href="#C0_0_40205e7b79" y="131.298807"/>
    </g>
    <g clip-path="url(#pff53fc033c)">
     <use style="fill:#a1c9f4;" x="79.159123" xlink:href="#C0_0_40205e7b79" y="103.926187"/>
    </g>
    <g clip-path="url(#pff53fc033c)">
     <use style="fill:#a1c9f4;" x="79.761231" xlink:href="#C0_0_40205e7b79" y="141.823664"/>
    </g>
    <g clip-path="url(#pff53fc033c)">
     <use style="fill:#a1c9f4;" x="77.342922" xlink:href="#C0_0_40205e7b79" y="111.184719"/>
    </g>
    <g clip-path="url(#pff53fc033c)">
     <use style="fill:#a1c9f4;" x="77.875431" xlink:href="#C0_0_40205e7b79" y="123.456728"/>
    </g>
    <g clip-path="url(#pff53fc033c)">
     <use style="fill:#a1c9f4;" x="83.686393" xlink:href="#C0_0_40205e7b79" y="100.554266"/>
    </g>
    <g clip-path="url(#pff53fc033c)">
     <use style="fill:#a1c9f4;" x="77.5227" xlink:href="#C0_0_40205e7b79" y="112.886152"/>
    </g>
    <g clip-path="url(#pff53fc033c)">
     <use style="fill:#a1c9f4;" x="76.381192" xlink:href="#C0_0_40205e7b79" y="113.888811"/>
    </g>
   </g>
   <g id="PathCollection_2">
    <defs>
     <path d="M 0 2.5 
C 0.663008 2.5 1.29895 2.236584 1.767767 1.767767 
C 2.236584 1.29895 2.5 0.663008 2.5 -0 
C 2.5 -0.663008 2.236584 -1.29895 1.767767 -1.767767 
C 1.29895 -2.236584 0.663008 -2.5 0 -2.5 
C -0.663008 -2.5 -1.29895 -2.236584 -1.767767 -1.767767 
C -2.236584 -1.29895 -2.5 -0.663008 -2.5 0 
C -2.5 0.663008 -2.236584 1.29895 -1.767767 1.767767 
C -1.29895 2.236584 -0.663008 2.5 0 2.5 
z
" id="C1_0_2d95e1b0c3"/>
    </defs>
    <g clip-path="url(#pff53fc033c)">
     <use style="fill:#ffb482;" x="112.745279" xlink:href="#C1_0_2d95e1b0c3" y="118.2135"/>
    </g>
    <g clip-path="url(#pff53fc033c)">
     <use style="fill:#ffb482;" x="109.62292" xlink:href="#C1_0_2d95e1b0c3" y="116.402797"/>
    </g>
    <g clip-path="url(#pff53fc033c)">
     <use style="fill:#ffb482;" x="109.60625" xlink:href="#C1_0_2d95e1b0c3" y="117.664607"/>
    </g>
    <g clip-path="url(#pff53fc033c)">
     <use style="fill:#ffb482;" x="107.513502" xlink:href="#C1_0_2d95e1b0c3" y="110.331196"/>
    </g>
    <g clip-path="url(#pff53fc033c)">
     <use style="fill:#ffb482;" x="108.209014" xlink:href="#C1_0_2d95e1b0c3" y="119.077699"/>
    </g>
    <g clip-path="url(#pff53fc033c)">
     <use style="fill:#ffb482;" x="110.673141" xlink:href="#C1_0_2d95e1b0c3" y="104.514869"/>
    </g>
    <g clip-path="url(#pff53fc033c)">
     <use style="fill:#ffb482;" x="112.209527" xlink:href="#C1_0_2d95e1b0c3" y="108.138006"/>
    </g>
    <g clip-path="url(#pff53fc033c)">
     <use style="fill:#ffb482;" x="111.975058" xlink:href="#C1_0_2d95e1b0c3" y="107.918783"/>
    </g>
    <g clip-path="url(#pff53fc033c)">
     <use style="fill:#ffb482;" x="108.351855" xlink:href="#C1_0_2d95e1b0c3" y="111.063241"/>
    </g>
    <g clip-path="url(#pff53fc033c)">
     <use style="fill:#ffb482;" x="107.38714" xlink:href="#C1_0_2d95e1b0c3" y="109.197162"/>
    </g>
   </g>
   <g id="PathCollection_3">
    <defs>
     <path d="M 0 2.5 
C 0.663008 2.5 1.29895 2.236584 1.767767 1.767767 
C 2.236584 1.29895 2.5 0.663008 2.5 -0 
C 2.5 -0.663008 2.236584 -1.29895 1.767767 -1.767767 
C 1.29895 -2.236584 0.663008 -2.5 0 -2.5 
C -0.663008 -2.5 -1.29895 -2.236584 -1.767767 -1.767767 
C -2.236584 -1.29895 -2.5 -0.663008 -2.5 0 
C -2.5 0.663008 -2.236584 1.29895 -1.767767 1.767767 
C -1.29895 2.236584 -0.663008 2.5 0 2.5 
z
" id="C2_0_6ff5de25c1"/>
    </defs>
    <g clip-path="url(#pff53fc033c)">
     <use style="fill:#8de5a1;" x="140.045662" xlink:href="#C2_0_6ff5de25c1" y="96.81021"/>
    </g>
    <g clip-path="url(#pff53fc033c)">
     <use style="fill:#8de5a1;" x="137.293099" xlink:href="#C2_0_6ff5de25c1" y="117.30832"/>
    </g>
    <g clip-path="url(#pff53fc033c)">
     <use style="fill:#8de5a1;" x="140.8914" xlink:href="#C2_0_6ff5de25c1" y="100.443866"/>
    </g>
    <g clip-path="url(#pff53fc033c)">
     <use style="fill:#8de5a1;" x="139.544353" xlink:href="#C2_0_6ff5de25c1" y="108.489049"/>
    </g>
    <g clip-path="url(#pff53fc033c)">
     <use style="fill:#8de5a1;" x="141.215907" xlink:href="#C2_0_6ff5de25c1" y="105.741949"/>
    </g>
    <g clip-path="url(#pff53fc033c)">
     <use style="fill:#8de5a1;" x="137.37355" xlink:href="#C2_0_6ff5de25c1" y="107.408825"/>
    </g>
    <g clip-path="url(#pff53fc033c)">
     <use style="fill:#8de5a1;" x="138.929046" xlink:href="#C2_0_6ff5de25c1" y="122.468357"/>
    </g>
    <g clip-path="url(#pff53fc033c)">
     <use style="fill:#8de5a1;" x="139.064542" xlink:href="#C2_0_6ff5de25c1" y="97.590672"/>
    </g>
    <g clip-path="url(#pff53fc033c)">
     <use style="fill:#8de5a1;" x="141.935526" xlink:href="#C2_0_6ff5de25c1" y="110.278663"/>
    </g>
    <g clip-path="url(#pff53fc033c)">
     <use style="fill:#8de5a1;" x="140.659725" xlink:href="#C2_0_6ff5de25c1" y="111.689695"/>
    </g>
   </g>
   <g id="PathCollection_4">
    <defs>
     <path d="M 0 2.5 
C 0.663008 2.5 1.29895 2.236584 1.767767 1.767767 
C 2.236584 1.29895 2.5 0.663008 2.5 -0 
C 2.5 -0.663008 2.236584 -1.29895 1.767767 -1.767767 
C 1.29895 -2.236584 0.663008 -2.5 0 -2.5 
C -0.663008 -2.5 -1.29895 -2.236584 -1.767767 -1.767767 
C -2.236584 -1.29895 -2.5 -0.663008 -2.5 0 
C -2.5 0.663008 -2.236584 1.29895 -1.767767 1.767767 
C -1.29895 2.236584 -0.663008 2.5 0 2.5 
z
" id="C3_0_0b44b6fd7d"/>
    </defs>
    <g clip-path="url(#pff53fc033c)">
     <use style="fill:#a1c9f4;" x="192.015832" xlink:href="#C3_0_0b44b6fd7d" y="113.630238"/>
    </g>
    <g clip-path="url(#pff53fc033c)">
     <use style="fill:#a1c9f4;" x="192.129569" xlink:href="#C3_0_0b44b6fd7d" y="117.856921"/>
    </g>
    <g clip-path="url(#pff53fc033c)">
     <use style="fill:#a1c9f4;" x="190.884736" xlink:href="#C3_0_0b44b6fd7d" y="126.913345"/>
    </g>
    <g clip-path="url(#pff53fc033c)">
     <use style="fill:#a1c9f4;" x="191.280039" xlink:href="#C3_0_0b44b6fd7d" y="125.711254"/>
    </g>
    <g clip-path="url(#pff53fc033c)">
     <use style="fill:#a1c9f4;" x="188.998997" xlink:href="#C3_0_0b44b6fd7d" y="131.590528"/>
    </g>
    <g clip-path="url(#pff53fc033c)">
     <use style="fill:#a1c9f4;" x="192.554116" xlink:href="#C3_0_0b44b6fd7d" y="137.87359"/>
    </g>
    <g clip-path="url(#pff53fc033c)">
     <use style="fill:#a1c9f4;" x="188.769187" xlink:href="#C3_0_0b44b6fd7d" y="111.595524"/>
    </g>
    <g clip-path="url(#pff53fc033c)">
     <use style="fill:#a1c9f4;" x="193.439122" xlink:href="#C3_0_0b44b6fd7d" y="127.380811"/>
    </g>
    <g clip-path="url(#pff53fc033c)">
     <use style="fill:#a1c9f4;" x="193.570453" xlink:href="#C3_0_0b44b6fd7d" y="111.723769"/>
    </g>
    <g clip-path="url(#pff53fc033c)">
     <use style="fill:#a1c9f4;" x="190.916751" xlink:href="#C3_0_0b44b6fd7d" y="120.594419"/>
    </g>
   </g>
   <g id="PathCollection_5">
    <defs>
     <path d="M 0 2.5 
C 0.663008 2.5 1.29895 2.236584 1.767767 1.767767 
C 2.236584 1.29895 2.5 0.663008 2.5 -0 
C 2.5 -0.663008 2.236584 -1.29895 1.767767 -1.767767 
C 1.29895 -2.236584 0.663008 -2.5 0 -2.5 
C -0.663008 -2.5 -1.29895 -2.236584 -1.767767 -1.767767 
C -2.236584 -1.29895 -2.5 -0.663008 -2.5 0 
C -2.5 0.663008 -2.236584 1.29895 -1.767767 1.767767 
C -1.29895 2.236584 -0.663008 2.5 0 2.5 
z
" id="C4_0_e0a97de46b"/>
    </defs>
    <g clip-path="url(#pff53fc033c)">
     <use style="fill:#ffb482;" x="223.253625" xlink:href="#C4_0_e0a97de46b" y="118.453191"/>
    </g>
    <g clip-path="url(#pff53fc033c)">
     <use style="fill:#ffb482;" x="222.17736" xlink:href="#C4_0_e0a97de46b" y="124.337528"/>
    </g>
    <g clip-path="url(#pff53fc033c)">
     <use style="fill:#ffb482;" x="218.902776" xlink:href="#C4_0_e0a97de46b" y="121.793363"/>
    </g>
    <g clip-path="url(#pff53fc033c)">
     <use style="fill:#ffb482;" x="220.590843" xlink:href="#C4_0_e0a97de46b" y="141.608578"/>
    </g>
    <g clip-path="url(#pff53fc033c)">
     <use style="fill:#ffb482;" x="223.447651" xlink:href="#C4_0_e0a97de46b" y="128.131335"/>
    </g>
    <g clip-path="url(#pff53fc033c)">
     <use style="fill:#ffb482;" x="224.067419" xlink:href="#C4_0_e0a97de46b" y="110.811284"/>
    </g>
    <g clip-path="url(#pff53fc033c)">
     <use style="fill:#ffb482;" x="219.604422" xlink:href="#C4_0_e0a97de46b" y="105.531588"/>
    </g>
    <g clip-path="url(#pff53fc033c)">
     <use style="fill:#ffb482;" x="221.907569" xlink:href="#C4_0_e0a97de46b" y="113.058788"/>
    </g>
    <g clip-path="url(#pff53fc033c)">
     <use style="fill:#ffb482;" x="222.316195" xlink:href="#C4_0_e0a97de46b" y="121.477452"/>
    </g>
    <g clip-path="url(#pff53fc033c)">
     <use style="fill:#ffb482;" x="222.401133" xlink:href="#C4_0_e0a97de46b" y="124.445907"/>
    </g>
   </g>
   <g id="PathCollection_6">
    <defs>
     <path d="M 0 2.5 
C 0.663008 2.5 1.29895 2.236584 1.767767 1.767767 
C 2.236584 1.29895 2.5 0.663008 2.5 -0 
C 2.5 -0.663008 2.236584 -1.29895 1.767767 -1.767767 
C 1.29895 -2.236584 0.663008 -2.5 0 -2.5 
C -0.663008 -2.5 -1.29895 -2.236584 -1.767767 -1.767767 
C -2.236584 -1.29895 -2.5 -0.663008 -2.5 0 
C -2.5 0.663008 -2.236584 1.29895 -1.767767 1.767767 
C -1.29895 2.236584 -0.663008 2.5 0 2.5 
z
" id="C5_0_a77c34c3ae"/>
    </defs>
    <g clip-path="url(#pff53fc033c)">
     <use style="fill:#8de5a1;" x="252.496066" xlink:href="#C5_0_a77c34c3ae" y="108.796491"/>
    </g>
    <g clip-path="url(#pff53fc033c)">
     <use style="fill:#8de5a1;" x="254.12653" xlink:href="#C5_0_a77c34c3ae" y="129.229751"/>
    </g>
    <g clip-path="url(#pff53fc033c)">
     <use style="fill:#8de5a1;" x="251.864681" xlink:href="#C5_0_a77c34c3ae" y="114.809036"/>
    </g>
    <g clip-path="url(#pff53fc033c)">
     <use style="fill:#8de5a1;" x="248.145388" xlink:href="#C5_0_a77c34c3ae" y="118.388408"/>
    </g>
    <g clip-path="url(#pff53fc033c)">
     <use style="fill:#8de5a1;" x="253.635506" xlink:href="#C5_0_a77c34c3ae" y="111.43237"/>
    </g>
    <g clip-path="url(#pff53fc033c)">
     <use style="fill:#8de5a1;" x="248.566509" xlink:href="#C5_0_a77c34c3ae" y="115.532435"/>
    </g>
    <g clip-path="url(#pff53fc033c)">
     <use style="fill:#8de5a1;" x="248.125223" xlink:href="#C5_0_a77c34c3ae" y="120.702374"/>
    </g>
    <g clip-path="url(#pff53fc033c)">
     <use style="fill:#8de5a1;" x="248.359126" xlink:href="#C5_0_a77c34c3ae" y="106.29014"/>
    </g>
    <g clip-path="url(#pff53fc033c)">
     <use style="fill:#8de5a1;" x="251.416618" xlink:href="#C5_0_a77c34c3ae" y="111.829762"/>
    </g>
    <g clip-path="url(#pff53fc033c)">
     <use style="fill:#8de5a1;" x="254.505016" xlink:href="#C5_0_a77c34c3ae" y="118.393691"/>
    </g>
   </g>
   <g id="PathCollection_7">
    <defs>
     <path d="M 0 2.5 
C 0.663008 2.5 1.29895 2.236584 1.767767 1.767767 
C 2.236584 1.29895 2.5 0.663008 2.5 -0 
C 2.5 -0.663008 2.236584 -1.29895 1.767767 -1.767767 
C 1.29895 -2.236584 0.663008 -2.5 0 -2.5 
C -0.663008 -2.5 -1.29895 -2.236584 -1.767767 -1.767767 
C -2.236584 -1.29895 -2.5 -0.663008 -2.5 0 
C -2.5 0.663008 -2.236584 1.29895 -1.767767 1.767767 
C -1.29895 2.236584 -0.663008 2.5 0 2.5 
z
" id="C6_0_96e02185b2"/>
    </defs>
    <g clip-path="url(#pff53fc033c)">
     <use style="fill:#a1c9f4;" x="302.128809" xlink:href="#C6_0_96e02185b2" y="165.123228"/>
    </g>
    <g clip-path="url(#pff53fc033c)">
     <use style="fill:#a1c9f4;" x="304.20948" xlink:href="#C6_0_96e02185b2" y="173.626989"/>
    </g>
    <g clip-path="url(#pff53fc033c)">
     <use style="fill:#a1c9f4;" x="300.842626" xlink:href="#C6_0_96e02185b2" y="207.602717"/>
    </g>
    <g clip-path="url(#pff53fc033c)">
     <use style="fill:#a1c9f4;" x="306.302091" xlink:href="#C6_0_96e02185b2" y="175.86147"/>
    </g>
    <g clip-path="url(#pff53fc033c)">
     <use style="fill:#a1c9f4;" x="305.752818" xlink:href="#C6_0_96e02185b2" y="216.457799"/>
    </g>
    <g clip-path="url(#pff53fc033c)">
     <use style="fill:#a1c9f4;" x="303.683038" xlink:href="#C6_0_96e02185b2" y="196.477616"/>
    </g>
    <g clip-path="url(#pff53fc033c)">
     <use style="fill:#a1c9f4;" x="304.28116" xlink:href="#C6_0_96e02185b2" y="175.119206"/>
    </g>
    <g clip-path="url(#pff53fc033c)">
     <use style="fill:#a1c9f4;" x="300.31034" xlink:href="#C6_0_96e02185b2" y="175.953575"/>
    </g>
    <g clip-path="url(#pff53fc033c)">
     <use style="fill:#a1c9f4;" x="305.131525" xlink:href="#C6_0_96e02185b2" y="172.644464"/>
    </g>
    <g clip-path="url(#pff53fc033c)">
     <use style="fill:#a1c9f4;" x="306.525379" xlink:href="#C6_0_96e02185b2" y="180.910638"/>
    </g>
   </g>
   <g id="PathCollection_8">
    <defs>
     <path d="M 0 2.5 
C 0.663008 2.5 1.29895 2.236584 1.767767 1.767767 
C 2.236584 1.29895 2.5 0.663008 2.5 -0 
C 2.5 -0.663008 2.236584 -1.29895 1.767767 -1.767767 
C 1.29895 -2.236584 0.663008 -2.5 0 -2.5 
C -0.663008 -2.5 -1.29895 -2.236584 -1.767767 -1.767767 
C -2.236584 -1.29895 -2.5 -0.663008 -2.5 0 
C -2.5 0.663008 -2.236584 1.29895 -1.767767 1.767767 
C -1.29895 2.236584 -0.663008 2.5 0 2.5 
z
" id="C7_0_fdcc67aed0"/>
    </defs>
    <g clip-path="url(#pff53fc033c)">
     <use style="fill:#ffb482;" x="334.816927" xlink:href="#C7_0_fdcc67aed0" y="163.043456"/>
    </g>
    <g clip-path="url(#pff53fc033c)">
     <use style="fill:#ffb482;" x="333.311959" xlink:href="#C7_0_fdcc67aed0" y="169.082996"/>
    </g>
    <g clip-path="url(#pff53fc033c)">
     <use style="fill:#ffb482;" x="331.969455" xlink:href="#C7_0_fdcc67aed0" y="167.609649"/>
    </g>
    <g clip-path="url(#pff53fc033c)">
     <use style="fill:#ffb482;" x="335.885245" xlink:href="#C7_0_fdcc67aed0" y="181.816848"/>
    </g>
    <g clip-path="url(#pff53fc033c)">
     <use style="fill:#ffb482;" x="329.53936" xlink:href="#C7_0_fdcc67aed0" y="178.030253"/>
    </g>
    <g clip-path="url(#pff53fc033c)">
     <use style="fill:#ffb482;" x="334.127227" xlink:href="#C7_0_fdcc67aed0" y="150.088495"/>
    </g>
    <g clip-path="url(#pff53fc033c)">
     <use style="fill:#ffb482;" x="335.887432" xlink:href="#C7_0_fdcc67aed0" y="146.39477"/>
    </g>
    <g clip-path="url(#pff53fc033c)">
     <use style="fill:#ffb482;" x="335.87304" xlink:href="#C7_0_fdcc67aed0" y="155.689736"/>
    </g>
    <g clip-path="url(#pff53fc033c)">
     <use style="fill:#ffb482;" x="335.064378" xlink:href="#C7_0_fdcc67aed0" y="163.666093"/>
    </g>
    <g clip-path="url(#pff53fc033c)">
     <use style="fill:#ffb482;" x="334.275434" xlink:href="#C7_0_fdcc67aed0" y="167.061905"/>
    </g>
   </g>
   <g id="PathCollection_9">
    <defs>
     <path d="M 0 2.5 
C 0.663008 2.5 1.29895 2.236584 1.767767 1.767767 
C 2.236584 1.29895 2.5 0.663008 2.5 -0 
C 2.5 -0.663008 2.236584 -1.29895 1.767767 -1.767767 
C 1.29895 -2.236584 0.663008 -2.5 0 -2.5 
C -0.663008 -2.5 -1.29895 -2.236584 -1.767767 -1.767767 
C -2.236584 -1.29895 -2.5 -0.663008 -2.5 0 
C -2.5 0.663008 -2.236584 1.29895 -1.767767 1.767767 
C -1.29895 2.236584 -0.663008 2.5 0 2.5 
z
" id="C8_0_27bb87e301"/>
    </defs>
    <g clip-path="url(#pff53fc033c)">
     <use style="fill:#8de5a1;" x="362.831458" xlink:href="#C8_0_27bb87e301" y="140.518189"/>
    </g>
    <g clip-path="url(#pff53fc033c)">
     <use style="fill:#8de5a1;" x="361.288699" xlink:href="#C8_0_27bb87e301" y="171.412593"/>
    </g>
    <g clip-path="url(#pff53fc033c)">
     <use style="fill:#8de5a1;" x="366.259513" xlink:href="#C8_0_27bb87e301" y="151.301784"/>
    </g>
    <g clip-path="url(#pff53fc033c)">
     <use style="fill:#8de5a1;" x="363.160322" xlink:href="#C8_0_27bb87e301" y="159.724402"/>
    </g>
    <g clip-path="url(#pff53fc033c)">
     <use style="fill:#8de5a1;" x="364.810304" xlink:href="#C8_0_27bb87e301" y="152.631362"/>
    </g>
    <g clip-path="url(#pff53fc033c)">
     <use style="fill:#8de5a1;" x="359.378038" xlink:href="#C8_0_27bb87e301" y="157.77135"/>
    </g>
    <g clip-path="url(#pff53fc033c)">
     <use style="fill:#8de5a1;" x="364.25417" xlink:href="#C8_0_27bb87e301" y="178.217616"/>
    </g>
    <g clip-path="url(#pff53fc033c)">
     <use style="fill:#8de5a1;" x="364.399613" xlink:href="#C8_0_27bb87e301" y="141.313066"/>
    </g>
    <g clip-path="url(#pff53fc033c)">
     <use style="fill:#8de5a1;" x="365.865444" xlink:href="#C8_0_27bb87e301" y="156.136433"/>
    </g>
    <g clip-path="url(#pff53fc033c)">
     <use style="fill:#8de5a1;" x="365.353866" xlink:href="#C8_0_27bb87e301" y="164.680534"/>
    </g>
   </g>
   <g id="matplotlib.axis_1">
    <g id="xtick_1">
     <g id="line2d_1">
      <defs>
       <path d="M 0 0 
L 0 6 
" id="m8c25540e5c" style="stroke:#262626;stroke-width:1.25;"/>
      </defs>
      <g>
       <use style="fill:#262626;stroke:#262626;stroke-width:1.25;" x="109.8" xlink:href="#m8c25540e5c" y="256.32"/>
      </g>
     </g>
     <g id="text_1">
      <!-- Parity -->
      <g style="fill:#262626;" transform="translate(95.741484 273.791562)scale(0.11 -0.11)">
       <defs>
        <path d="M 3931 3078 
Q 3931 2453 3523 2084 
Q 3116 1716 2416 1716 
L 1122 1716 
L 1122 0 
L 525 0 
L 525 4403 
L 2378 4403 
Q 3119 4403 3525 4056 
Q 3931 3709 3931 3078 
z
M 3331 3072 
Q 3331 3925 2306 3925 
L 1122 3925 
L 1122 2188 
L 2331 2188 
Q 3331 2188 3331 3072 
z
" id="LiberationSans-50" transform="scale(0.015625)"/>
        <path d="M 1294 -63 
Q 784 -63 528 206 
Q 272 475 272 944 
Q 272 1469 617 1750 
Q 963 2031 1731 2050 
L 2491 2063 
L 2491 2247 
Q 2491 2659 2316 2837 
Q 2141 3016 1766 3016 
Q 1388 3016 1216 2887 
Q 1044 2759 1009 2478 
L 422 2531 
Q 566 3444 1778 3444 
Q 2416 3444 2737 3151 
Q 3059 2859 3059 2306 
L 3059 850 
Q 3059 600 3125 473 
Q 3191 347 3375 347 
Q 3456 347 3559 369 
L 3559 19 
Q 3347 -31 3125 -31 
Q 2813 -31 2670 133 
Q 2528 297 2509 647 
L 2491 647 
Q 2275 259 1989 98 
Q 1703 -63 1294 -63 
z
M 1422 359 
Q 1731 359 1972 500 
Q 2213 641 2352 886 
Q 2491 1131 2491 1391 
L 2491 1669 
L 1875 1656 
Q 1478 1650 1273 1575 
Q 1069 1500 959 1344 
Q 850 1188 850 934 
Q 850 659 998 509 
Q 1147 359 1422 359 
z
" id="LiberationSans-61" transform="scale(0.015625)"/>
        <path d="M 444 0 
L 444 2594 
Q 444 2950 425 3381 
L 956 3381 
Q 981 2806 981 2691 
L 994 2691 
Q 1128 3125 1303 3284 
Q 1478 3444 1797 3444 
Q 1909 3444 2025 3413 
L 2025 2897 
Q 1913 2928 1725 2928 
Q 1375 2928 1190 2626 
Q 1006 2325 1006 1763 
L 1006 0 
L 444 0 
z
" id="LiberationSans-72" transform="scale(0.015625)"/>
        <path d="M 428 4100 
L 428 4638 
L 991 4638 
L 991 4100 
L 428 4100 
z
M 428 0 
L 428 3381 
L 991 3381 
L 991 0 
L 428 0 
z
" id="LiberationSans-69" transform="scale(0.015625)"/>
        <path d="M 1731 25 
Q 1453 -50 1163 -50 
Q 488 -50 488 716 
L 488 2972 
L 97 2972 
L 97 3381 
L 509 3381 
L 675 4138 
L 1050 4138 
L 1050 3381 
L 1675 3381 
L 1675 2972 
L 1050 2972 
L 1050 838 
Q 1050 594 1129 495 
Q 1209 397 1406 397 
Q 1519 397 1731 441 
L 1731 25 
z
" id="LiberationSans-74" transform="scale(0.015625)"/>
        <path d="M 597 -1328 
Q 366 -1328 209 -1294 
L 209 -872 
Q 328 -891 472 -891 
Q 997 -891 1303 -119 
L 1356 16 
L 16 3381 
L 616 3381 
L 1328 1513 
Q 1344 1469 1366 1408 
Q 1388 1347 1506 1000 
Q 1625 653 1634 613 
L 1853 1228 
L 2594 3381 
L 3188 3381 
L 1888 0 
Q 1678 -541 1497 -805 
Q 1316 -1069 1095 -1198 
Q 875 -1328 597 -1328 
z
" id="LiberationSans-79" transform="scale(0.015625)"/>
       </defs>
       <use xlink:href="#LiberationSans-50"/>
       <use x="66.699219" xlink:href="#LiberationSans-61"/>
       <use x="122.314453" xlink:href="#LiberationSans-72"/>
       <use x="155.615234" xlink:href="#LiberationSans-69"/>
       <use x="177.832031" xlink:href="#LiberationSans-74"/>
       <use x="205.615234" xlink:href="#LiberationSans-79"/>
      </g>
     </g>
    </g>
    <g id="xtick_2">
     <g id="line2d_2">
      <g>
       <use style="fill:#262626;stroke:#262626;stroke-width:1.25;" x="221.4" xlink:href="#m8c25540e5c" y="256.32"/>
      </g>
     </g>
     <g id="text_2">
      <!-- Value -->
      <g style="fill:#262626;" transform="translate(207.739375 273.791562)scale(0.11 -0.11)">
       <defs>
        <path d="M 2444 0 
L 1825 0 
L 28 4403 
L 656 4403 
L 1875 1303 
L 2138 525 
L 2400 1303 
L 3613 4403 
L 4241 4403 
L 2444 0 
z
" id="LiberationSans-56" transform="scale(0.015625)"/>
        <path d="M 431 0 
L 431 4638 
L 994 4638 
L 994 0 
L 431 0 
z
" id="LiberationSans-6c" transform="scale(0.015625)"/>
        <path d="M 981 3381 
L 981 1238 
Q 981 903 1047 718 
Q 1113 534 1256 453 
Q 1400 372 1678 372 
Q 2084 372 2318 650 
Q 2553 928 2553 1422 
L 2553 3381 
L 3116 3381 
L 3116 722 
Q 3116 131 3134 0 
L 2603 0 
Q 2600 16 2597 84 
Q 2594 153 2589 242 
Q 2584 331 2578 578 
L 2569 578 
Q 2375 228 2120 82 
Q 1866 -63 1488 -63 
Q 931 -63 673 214 
Q 416 491 416 1128 
L 416 3381 
L 981 3381 
z
" id="LiberationSans-75" transform="scale(0.015625)"/>
        <path d="M 863 1572 
Q 863 991 1103 675 
Q 1344 359 1806 359 
Q 2172 359 2392 506 
Q 2613 653 2691 878 
L 3184 738 
Q 2881 -63 1806 -63 
Q 1056 -63 664 384 
Q 272 831 272 1713 
Q 272 2550 664 2997 
Q 1056 3444 1784 3444 
Q 3275 3444 3275 1647 
L 3275 1572 
L 863 1572 
z
M 2694 2003 
Q 2647 2538 2422 2783 
Q 2197 3028 1775 3028 
Q 1366 3028 1127 2754 
Q 888 2481 869 2003 
L 2694 2003 
z
" id="LiberationSans-65" transform="scale(0.015625)"/>
       </defs>
       <use xlink:href="#LiberationSans-56"/>
       <use x="59.324219" xlink:href="#LiberationSans-61"/>
       <use x="114.939453" xlink:href="#LiberationSans-6c"/>
       <use x="137.15625" xlink:href="#LiberationSans-75"/>
       <use x="192.771484" xlink:href="#LiberationSans-65"/>
      </g>
     </g>
    </g>
    <g id="xtick_3">
     <g id="line2d_3">
      <g>
       <use style="fill:#262626;stroke:#262626;stroke-width:1.25;" x="333" xlink:href="#m8c25540e5c" y="256.32"/>
      </g>
     </g>
     <g id="text_3">
      <!-- Joint -->
      <g style="fill:#262626;" transform="translate(321.382969 273.791562)scale(0.11 -0.11)">
       <defs>
        <path d="M 1428 -63 
Q 309 -63 100 1094 
L 684 1191 
Q 741 828 937 625 
Q 1134 422 1431 422 
Q 1756 422 1943 645 
Q 2131 869 2131 1300 
L 2131 3916 
L 1284 3916 
L 1284 4403 
L 2725 4403 
L 2725 1313 
Q 2725 672 2378 304 
Q 2031 -63 1428 -63 
z
" id="LiberationSans-4a" transform="scale(0.015625)"/>
        <path d="M 3291 1694 
Q 3291 806 2900 371 
Q 2509 -63 1766 -63 
Q 1025 -63 647 389 
Q 269 841 269 1694 
Q 269 3444 1784 3444 
Q 2559 3444 2925 3017 
Q 3291 2591 3291 1694 
z
M 2700 1694 
Q 2700 2394 2492 2711 
Q 2284 3028 1794 3028 
Q 1300 3028 1079 2704 
Q 859 2381 859 1694 
Q 859 1025 1076 689 
Q 1294 353 1759 353 
Q 2266 353 2483 678 
Q 2700 1003 2700 1694 
z
" id="LiberationSans-6f" transform="scale(0.015625)"/>
        <path d="M 2578 0 
L 2578 2144 
Q 2578 2478 2512 2662 
Q 2447 2847 2303 2928 
Q 2159 3009 1881 3009 
Q 1475 3009 1240 2731 
Q 1006 2453 1006 1959 
L 1006 0 
L 444 0 
L 444 2659 
Q 444 3250 425 3381 
L 956 3381 
Q 959 3366 962 3297 
Q 966 3228 970 3139 
Q 975 3050 981 2803 
L 991 2803 
Q 1184 3153 1439 3298 
Q 1694 3444 2072 3444 
Q 2628 3444 2886 3167 
Q 3144 2891 3144 2253 
L 3144 0 
L 2578 0 
z
" id="LiberationSans-6e" transform="scale(0.015625)"/>
       </defs>
       <use xlink:href="#LiberationSans-4a"/>
       <use x="50" xlink:href="#LiberationSans-6f"/>
       <use x="105.615234" xlink:href="#LiberationSans-69"/>
       <use x="127.832031" xlink:href="#LiberationSans-6e"/>
       <use x="183.447266" xlink:href="#LiberationSans-74"/>
      </g>
     </g>
    </g>
    <g id="text_4">
     <!-- Task -->
     <g style="fill:#262626;" transform="translate(204.955 291.669062)scale(0.16 -0.16)">
      <defs>
       <path d="M 2250 3916 
L 2250 0 
L 1656 0 
L 1656 3916 
L 144 3916 
L 144 4403 
L 3763 4403 
L 3763 3916 
L 2250 3916 
z
" id="LiberationSans-54" transform="scale(0.015625)"/>
       <path d="M 2969 934 
Q 2969 456 2608 196 
Q 2247 -63 1597 -63 
Q 966 -63 623 145 
Q 281 353 178 794 
L 675 891 
Q 747 619 972 492 
Q 1197 366 1597 366 
Q 2025 366 2223 497 
Q 2422 628 2422 891 
Q 2422 1091 2284 1216 
Q 2147 1341 1841 1422 
L 1438 1528 
Q 953 1653 748 1773 
Q 544 1894 428 2066 
Q 313 2238 313 2488 
Q 313 2950 642 3192 
Q 972 3434 1603 3434 
Q 2163 3434 2492 3237 
Q 2822 3041 2909 2606 
L 2403 2544 
Q 2356 2769 2151 2889 
Q 1947 3009 1603 3009 
Q 1222 3009 1040 2893 
Q 859 2778 859 2544 
Q 859 2400 934 2306 
Q 1009 2213 1156 2147 
Q 1303 2081 1775 1966 
Q 2222 1853 2419 1758 
Q 2616 1663 2730 1547 
Q 2844 1431 2906 1279 
Q 2969 1128 2969 934 
z
" id="LiberationSans-73" transform="scale(0.015625)"/>
       <path d="M 2550 0 
L 1406 1544 
L 994 1203 
L 994 0 
L 431 0 
L 431 4638 
L 994 4638 
L 994 1741 
L 2478 3381 
L 3138 3381 
L 1766 1928 
L 3209 0 
L 2550 0 
z
" id="LiberationSans-6b" transform="scale(0.015625)"/>
      </defs>
      <use xlink:href="#LiberationSans-54"/>
      <use x="49.958984" xlink:href="#LiberationSans-61"/>
      <use x="105.574219" xlink:href="#LiberationSans-73"/>
      <use x="155.574219" xlink:href="#LiberationSans-6b"/>
     </g>
    </g>
   </g>
   <g id="matplotlib.axis_2">
    <g id="ytick_1">
     <g id="line2d_4">
      <defs>
       <path d="M 0 0 
L -6 0 
" id="m1f610ba076" style="stroke:#262626;stroke-width:1.25;"/>
      </defs>
      <g>
       <use style="fill:#262626;stroke:#262626;stroke-width:1.25;" x="54" xlink:href="#m1f610ba076" y="256.32"/>
      </g>
     </g>
     <g id="text_5">
      <!-- 0.960 -->
      <g style="fill:#262626;" transform="translate(16.975938 260.305781)scale(0.11 -0.11)">
       <defs>
        <path d="M 3309 2203 
Q 3309 1100 2920 518 
Q 2531 -63 1772 -63 
Q 1013 -63 631 515 
Q 250 1094 250 2203 
Q 250 3338 620 3903 
Q 991 4469 1791 4469 
Q 2569 4469 2939 3897 
Q 3309 3325 3309 2203 
z
M 2738 2203 
Q 2738 3156 2517 3584 
Q 2297 4013 1791 4013 
Q 1272 4013 1045 3591 
Q 819 3169 819 2203 
Q 819 1266 1048 831 
Q 1278 397 1778 397 
Q 2275 397 2506 840 
Q 2738 1284 2738 2203 
z
" id="LiberationSans-30" transform="scale(0.015625)"/>
        <path d="M 584 0 
L 584 684 
L 1194 684 
L 1194 0 
L 584 0 
z
" id="LiberationSans-2e" transform="scale(0.015625)"/>
        <path d="M 3256 2291 
Q 3256 1156 2842 546 
Q 2428 -63 1663 -63 
Q 1147 -63 836 154 
Q 525 372 391 856 
L 928 941 
Q 1097 391 1672 391 
Q 2156 391 2422 841 
Q 2688 1291 2700 2125 
Q 2575 1844 2272 1673 
Q 1969 1503 1606 1503 
Q 1013 1503 656 1909 
Q 300 2316 300 2988 
Q 300 3678 687 4073 
Q 1075 4469 1766 4469 
Q 2500 4469 2878 3925 
Q 3256 3381 3256 2291 
z
M 2644 2834 
Q 2644 3366 2400 3689 
Q 2156 4013 1747 4013 
Q 1341 4013 1106 3736 
Q 872 3459 872 2988 
Q 872 2506 1106 2226 
Q 1341 1947 1741 1947 
Q 1984 1947 2193 2058 
Q 2403 2169 2523 2372 
Q 2644 2575 2644 2834 
z
" id="LiberationSans-39" transform="scale(0.015625)"/>
        <path d="M 3278 1441 
Q 3278 744 2900 340 
Q 2522 -63 1856 -63 
Q 1113 -63 719 490 
Q 325 1044 325 2100 
Q 325 3244 734 3856 
Q 1144 4469 1900 4469 
Q 2897 4469 3156 3572 
L 2619 3475 
Q 2453 4013 1894 4013 
Q 1413 4013 1148 3564 
Q 884 3116 884 2266 
Q 1038 2550 1316 2698 
Q 1594 2847 1953 2847 
Q 2563 2847 2920 2465 
Q 3278 2084 3278 1441 
z
M 2706 1416 
Q 2706 1894 2472 2153 
Q 2238 2413 1819 2413 
Q 1425 2413 1183 2183 
Q 941 1953 941 1550 
Q 941 1041 1192 716 
Q 1444 391 1838 391 
Q 2244 391 2475 664 
Q 2706 938 2706 1416 
z
" id="LiberationSans-36" transform="scale(0.015625)"/>
       </defs>
       <use xlink:href="#LiberationSans-30"/>
       <use x="55.615234" xlink:href="#LiberationSans-2e"/>
       <use x="83.398438" xlink:href="#LiberationSans-39"/>
       <use x="139.013672" xlink:href="#LiberationSans-36"/>
       <use x="194.628906" xlink:href="#LiberationSans-30"/>
      </g>
     </g>
    </g>
    <g id="ytick_2">
     <g id="line2d_5">
      <g>
       <use style="fill:#262626;stroke:#262626;stroke-width:1.25;" x="54" xlink:href="#m1f610ba076" y="228.6"/>
      </g>
     </g>
     <g id="text_6">
      <!-- 0.965 -->
      <g style="fill:#262626;" transform="translate(16.975938 232.585781)scale(0.11 -0.11)">
       <defs>
        <path d="M 3291 1434 
Q 3291 738 2877 337 
Q 2463 -63 1728 -63 
Q 1113 -63 734 206 
Q 356 475 256 984 
L 825 1050 
Q 1003 397 1741 397 
Q 2194 397 2450 670 
Q 2706 944 2706 1422 
Q 2706 1838 2448 2094 
Q 2191 2350 1753 2350 
Q 1525 2350 1328 2278 
Q 1131 2206 934 2034 
L 384 2034 
L 531 4403 
L 3034 4403 
L 3034 3925 
L 1044 3925 
L 959 2528 
Q 1325 2809 1869 2809 
Q 2519 2809 2905 2428 
Q 3291 2047 3291 1434 
z
" id="LiberationSans-35" transform="scale(0.015625)"/>
       </defs>
       <use xlink:href="#LiberationSans-30"/>
       <use x="55.615234" xlink:href="#LiberationSans-2e"/>
       <use x="83.398438" xlink:href="#LiberationSans-39"/>
       <use x="139.013672" xlink:href="#LiberationSans-36"/>
       <use x="194.628906" xlink:href="#LiberationSans-35"/>
      </g>
     </g>
    </g>
    <g id="ytick_3">
     <g id="line2d_6">
      <g>
       <use style="fill:#262626;stroke:#262626;stroke-width:1.25;" x="54" xlink:href="#m1f610ba076" y="200.88"/>
      </g>
     </g>
     <g id="text_7">
      <!-- 0.970 -->
      <g style="fill:#262626;" transform="translate(16.975938 204.865781)scale(0.11 -0.11)">
       <defs>
        <path d="M 3238 3947 
Q 2563 2916 2284 2331 
Q 2006 1747 1867 1178 
Q 1728 609 1728 0 
L 1141 0 
Q 1141 844 1498 1776 
Q 1856 2709 2694 3925 
L 328 3925 
L 328 4403 
L 3238 4403 
L 3238 3947 
z
" id="LiberationSans-37" transform="scale(0.015625)"/>
       </defs>
       <use xlink:href="#LiberationSans-30"/>
       <use x="55.615234" xlink:href="#LiberationSans-2e"/>
       <use x="83.398438" xlink:href="#LiberationSans-39"/>
       <use x="139.013672" xlink:href="#LiberationSans-37"/>
       <use x="194.628906" xlink:href="#LiberationSans-30"/>
      </g>
     </g>
    </g>
    <g id="ytick_4">
     <g id="line2d_7">
      <g>
       <use style="fill:#262626;stroke:#262626;stroke-width:1.25;" x="54" xlink:href="#m1f610ba076" y="173.16"/>
      </g>
     </g>
     <g id="text_8">
      <!-- 0.975 -->
      <g style="fill:#262626;" transform="translate(16.975938 177.145781)scale(0.11 -0.11)">
       <use xlink:href="#LiberationSans-30"/>
       <use x="55.615234" xlink:href="#LiberationSans-2e"/>
       <use x="83.398438" xlink:href="#LiberationSans-39"/>
       <use x="139.013672" xlink:href="#LiberationSans-37"/>
       <use x="194.628906" xlink:href="#LiberationSans-35"/>
      </g>
     </g>
    </g>
    <g id="ytick_5">
     <g id="line2d_8">
      <g>
       <use style="fill:#262626;stroke:#262626;stroke-width:1.25;" x="54" xlink:href="#m1f610ba076" y="145.44"/>
      </g>
     </g>
     <g id="text_9">
      <!-- 0.980 -->
      <g style="fill:#262626;" transform="translate(16.975938 149.425781)scale(0.11 -0.11)">
       <defs>
        <path d="M 3281 1228 
Q 3281 619 2893 278 
Q 2506 -63 1781 -63 
Q 1075 -63 676 271 
Q 278 606 278 1222 
Q 278 1653 525 1947 
Q 772 2241 1156 2303 
L 1156 2316 
Q 797 2400 589 2681 
Q 381 2963 381 3341 
Q 381 3844 757 4156 
Q 1134 4469 1769 4469 
Q 2419 4469 2795 4162 
Q 3172 3856 3172 3334 
Q 3172 2956 2962 2675 
Q 2753 2394 2391 2322 
L 2391 2309 
Q 2813 2241 3047 1952 
Q 3281 1663 3281 1228 
z
M 2588 3303 
Q 2588 4050 1769 4050 
Q 1372 4050 1164 3862 
Q 956 3675 956 3303 
Q 956 2925 1170 2726 
Q 1384 2528 1775 2528 
Q 2172 2528 2380 2711 
Q 2588 2894 2588 3303 
z
M 2697 1281 
Q 2697 1691 2453 1898 
Q 2209 2106 1769 2106 
Q 1341 2106 1100 1882 
Q 859 1659 859 1269 
Q 859 359 1788 359 
Q 2247 359 2472 579 
Q 2697 800 2697 1281 
z
" id="LiberationSans-38" transform="scale(0.015625)"/>
       </defs>
       <use xlink:href="#LiberationSans-30"/>
       <use x="55.615234" xlink:href="#LiberationSans-2e"/>
       <use x="83.398438" xlink:href="#LiberationSans-39"/>
       <use x="139.013672" xlink:href="#LiberationSans-38"/>
       <use x="194.628906" xlink:href="#LiberationSans-30"/>
      </g>
     </g>
    </g>
    <g id="ytick_6">
     <g id="line2d_9">
      <g>
       <use style="fill:#262626;stroke:#262626;stroke-width:1.25;" x="54" xlink:href="#m1f610ba076" y="117.72"/>
      </g>
     </g>
     <g id="text_10">
      <!-- 0.985 -->
      <g style="fill:#262626;" transform="translate(16.975938 121.705781)scale(0.11 -0.11)">
       <use xlink:href="#LiberationSans-30"/>
       <use x="55.615234" xlink:href="#LiberationSans-2e"/>
       <use x="83.398438" xlink:href="#LiberationSans-39"/>
       <use x="139.013672" xlink:href="#LiberationSans-38"/>
       <use x="194.628906" xlink:href="#LiberationSans-35"/>
      </g>
     </g>
    </g>
    <g id="ytick_7">
     <g id="line2d_10">
      <g>
       <use style="fill:#262626;stroke:#262626;stroke-width:1.25;" x="54" xlink:href="#m1f610ba076" y="90"/>
      </g>
     </g>
     <g id="text_11">
      <!-- 0.990 -->
      <g style="fill:#262626;" transform="translate(16.975938 93.985781)scale(0.11 -0.11)">
       <use xlink:href="#LiberationSans-30"/>
       <use x="55.615234" xlink:href="#LiberationSans-2e"/>
       <use x="83.398438" xlink:href="#LiberationSans-39"/>
       <use x="139.013672" xlink:href="#LiberationSans-39"/>
       <use x="194.628906" xlink:href="#LiberationSans-30"/>
      </g>
     </g>
    </g>
    <g id="ytick_8">
     <g id="line2d_11">
      <g>
       <use style="fill:#262626;stroke:#262626;stroke-width:1.25;" x="54" xlink:href="#m1f610ba076" y="62.28"/>
      </g>
     </g>
     <g id="text_12">
      <!-- 0.995 -->
      <g style="fill:#262626;" transform="translate(16.975938 66.265781)scale(0.11 -0.11)">
       <use xlink:href="#LiberationSans-30"/>
       <use x="55.615234" xlink:href="#LiberationSans-2e"/>
       <use x="83.398438" xlink:href="#LiberationSans-39"/>
       <use x="139.013672" xlink:href="#LiberationSans-39"/>
       <use x="194.628906" xlink:href="#LiberationSans-35"/>
      </g>
     </g>
    </g>
    <g id="ytick_9">
     <g id="line2d_12">
      <g>
       <use style="fill:#262626;stroke:#262626;stroke-width:1.25;" x="54" xlink:href="#m1f610ba076" y="34.56"/>
      </g>
     </g>
     <g id="text_13">
      <!-- 1.000 -->
      <g style="fill:#262626;" transform="translate(16.975938 38.545781)scale(0.11 -0.11)">
       <defs>
        <path d="M 488 0 
L 488 478 
L 1609 478 
L 1609 3866 
L 616 3156 
L 616 3688 
L 1656 4403 
L 2175 4403 
L 2175 478 
L 3247 478 
L 3247 0 
L 488 0 
z
" id="LiberationSans-31" transform="scale(0.015625)"/>
       </defs>
       <use xlink:href="#LiberationSans-31"/>
       <use x="55.615234" xlink:href="#LiberationSans-2e"/>
       <use x="83.398438" xlink:href="#LiberationSans-30"/>
       <use x="139.013672" xlink:href="#LiberationSans-30"/>
       <use x="194.628906" xlink:href="#LiberationSans-30"/>
      </g>
     </g>
    </g>
    <g id="text_14">
     <!-- Accuracy -->
     <g style="fill:#262626;" transform="translate(9.655937 178.3375)rotate(-90)scale(0.16 -0.16)">
      <defs>
       <path d="M 3647 0 
L 3144 1288 
L 1138 1288 
L 631 0 
L 13 0 
L 1809 4403 
L 2488 4403 
L 4256 0 
L 3647 0 
z
M 2141 3953 
L 2113 3866 
Q 2034 3606 1881 3200 
L 1319 1753 
L 2966 1753 
L 2400 3206 
Q 2313 3422 2225 3694 
L 2141 3953 
z
" id="LiberationSans-41" transform="scale(0.015625)"/>
       <path d="M 859 1706 
Q 859 1031 1071 706 
Q 1284 381 1713 381 
Q 2013 381 2214 543 
Q 2416 706 2463 1044 
L 3031 1006 
Q 2966 519 2616 228 
Q 2266 -63 1728 -63 
Q 1019 -63 645 385 
Q 272 834 272 1694 
Q 272 2547 647 2995 
Q 1022 3444 1722 3444 
Q 2241 3444 2583 3175 
Q 2925 2906 3013 2434 
L 2434 2391 
Q 2391 2672 2212 2837 
Q 2034 3003 1706 3003 
Q 1259 3003 1059 2706 
Q 859 2409 859 1706 
z
" id="LiberationSans-63" transform="scale(0.015625)"/>
      </defs>
      <use xlink:href="#LiberationSans-41"/>
      <use x="66.699219" xlink:href="#LiberationSans-63"/>
      <use x="116.699219" xlink:href="#LiberationSans-63"/>
      <use x="166.699219" xlink:href="#LiberationSans-75"/>
      <use x="222.314453" xlink:href="#LiberationSans-72"/>
      <use x="255.615234" xlink:href="#LiberationSans-61"/>
      <use x="311.230469" xlink:href="#LiberationSans-63"/>
      <use x="361.230469" xlink:href="#LiberationSans-79"/>
     </g>
    </g>
   </g>
   <g id="patch_3">
    <path clip-path="url(#pff53fc033c)" d="M 65.4576 121.064749 
L 94.6224 121.064749 
L 94.6224 107.389453 
L 65.4576 107.389453 
L 65.4576 121.064749 
z
" style="fill:#abc9ea;stroke:#6f6f6f;stroke-linejoin:miter;stroke-width:1.5;"/>
   </g>
   <g id="patch_4">
    <path clip-path="url(#pff53fc033c)" d="M 95.2176 117.349155 
L 124.3824 117.349155 
L 124.3824 108.402795 
L 95.2176 108.402795 
L 95.2176 117.349155 
z
" style="fill:#efb792;stroke:#6f6f6f;stroke-linejoin:miter;stroke-width:1.5;"/>
   </g>
   <g id="patch_5">
    <path clip-path="url(#pff53fc033c)" d="M 124.9776 111.336937 
L 154.1424 111.336937 
L 154.1424 101.768387 
L 124.9776 101.768387 
L 124.9776 111.336937 
z
" style="fill:#98daa7;stroke:#6f6f6f;stroke-linejoin:miter;stroke-width:1.5;"/>
   </g>
   <g id="patch_6">
    <path clip-path="url(#pff53fc033c)" d="M 177.0576 127.263944 
L 206.2224 127.263944 
L 206.2224 114.686909 
L 177.0576 114.686909 
L 177.0576 127.263944 
z
" style="fill:#abc9ea;stroke:#6f6f6f;stroke-linejoin:miter;stroke-width:1.5;"/>
   </g>
   <g id="patch_7">
    <path clip-path="url(#pff53fc033c)" d="M 206.8176 124.418812 
L 235.9824 124.418812 
L 235.9824 114.407389 
L 206.8176 114.407389 
L 206.8176 124.418812 
z
" style="fill:#efb792;stroke:#6f6f6f;stroke-linejoin:miter;stroke-width:1.5;"/>
   </g>
   <g id="patch_8">
    <path clip-path="url(#pff53fc033c)" d="M 236.5776 118.392371 
L 265.7424 118.392371 
L 265.7424 111.531718 
L 236.5776 111.531718 
L 236.5776 118.392371 
z
" style="fill:#98daa7;stroke:#6f6f6f;stroke-linejoin:miter;stroke-width:1.5;"/>
   </g>
   <g id="patch_9">
    <path clip-path="url(#pff53fc033c)" d="M 288.6576 192.585871 
L 317.8224 192.585871 
L 317.8224 174.000043 
L 288.6576 174.000043 
L 288.6576 192.585871 
z
" style="fill:#abc9ea;stroke:#6f6f6f;stroke-linejoin:miter;stroke-width:1.5;"/>
   </g>
   <g id="patch_10">
    <path clip-path="url(#pff53fc033c)" d="M 318.4176 168.71466 
L 347.5824 168.71466 
L 347.5824 157.528166 
L 318.4176 157.528166 
L 318.4176 168.71466 
z
" style="fill:#efb792;stroke:#6f6f6f;stroke-linejoin:miter;stroke-width:1.5;"/>
   </g>
   <g id="patch_11">
    <path clip-path="url(#pff53fc033c)" d="M 348.1776 163.441501 
L 377.3424 163.441501 
L 377.3424 151.634179 
L 348.1776 151.634179 
L 348.1776 163.441501 
z
" style="fill:#98daa7;stroke:#6f6f6f;stroke-linejoin:miter;stroke-width:1.5;"/>
   </g>
   <g id="PathCollection_10"/>
   <g id="PathCollection_11"/>
   <g id="PathCollection_12"/>
   <g id="patch_12">
    <path clip-path="url(#pff53fc033c)" d="M 109.8 5578.56 
L 109.8 5578.56 
L 109.8 5578.56 
L 109.8 5578.56 
z
" style="fill:#abc9ea;stroke:#6f6f6f;stroke-linejoin:miter;stroke-width:0.75;"/>
   </g>
   <g id="patch_13">
    <path clip-path="url(#pff53fc033c)" d="M 109.8 5578.56 
L 109.8 5578.56 
L 109.8 5578.56 
L 109.8 5578.56 
z
" style="fill:#efb792;stroke:#6f6f6f;stroke-linejoin:miter;stroke-width:0.75;"/>
   </g>
   <g id="patch_14">
    <path clip-path="url(#pff53fc033c)" d="M 109.8 5578.56 
L 109.8 5578.56 
L 109.8 5578.56 
L 109.8 5578.56 
z
" style="fill:#98daa7;stroke:#6f6f6f;stroke-linejoin:miter;stroke-width:0.75;"/>
   </g>
   <g id="line2d_13">
    <path clip-path="url(#pff53fc033c)" d="M 80.04 121.064749 
L 80.04 131.298807 
" style="fill:none;stroke:#6f6f6f;stroke-linecap:round;stroke-width:1.5;"/>
   </g>
   <g id="line2d_14">
    <path clip-path="url(#pff53fc033c)" d="M 80.04 107.389453 
L 80.04 100.554266 
" style="fill:none;stroke:#6f6f6f;stroke-linecap:round;stroke-width:1.5;"/>
   </g>
   <g id="line2d_15">
    <path clip-path="url(#pff53fc033c)" d="M 72.7488 131.298807 
L 87.3312 131.298807 
" style="fill:none;stroke:#6f6f6f;stroke-linecap:round;stroke-width:1.5;"/>
   </g>
   <g id="line2d_16">
    <path clip-path="url(#pff53fc033c)" d="M 72.7488 100.554266 
L 87.3312 100.554266 
" style="fill:none;stroke:#6f6f6f;stroke-linecap:round;stroke-width:1.5;"/>
   </g>
   <g id="line2d_17">
    <path clip-path="url(#pff53fc033c)" d="M 109.8 117.349155 
L 109.8 119.077699 
" style="fill:none;stroke:#6f6f6f;stroke-linecap:round;stroke-width:1.5;"/>
   </g>
   <g id="line2d_18">
    <path clip-path="url(#pff53fc033c)" d="M 109.8 108.402795 
L 109.8 104.514869 
" style="fill:none;stroke:#6f6f6f;stroke-linecap:round;stroke-width:1.5;"/>
   </g>
   <g id="line2d_19">
    <path clip-path="url(#pff53fc033c)" d="M 102.5088 119.077699 
L 117.0912 119.077699 
" style="fill:none;stroke:#6f6f6f;stroke-linecap:round;stroke-width:1.5;"/>
   </g>
   <g id="line2d_20">
    <path clip-path="url(#pff53fc033c)" d="M 102.5088 104.514869 
L 117.0912 104.514869 
" style="fill:none;stroke:#6f6f6f;stroke-linecap:round;stroke-width:1.5;"/>
   </g>
   <g id="line2d_21">
    <path clip-path="url(#pff53fc033c)" d="M 139.56 111.336937 
L 139.56 122.468357 
" style="fill:none;stroke:#6f6f6f;stroke-linecap:round;stroke-width:1.5;"/>
   </g>
   <g id="line2d_22">
    <path clip-path="url(#pff53fc033c)" d="M 139.56 101.768387 
L 139.56 96.81021 
" style="fill:none;stroke:#6f6f6f;stroke-linecap:round;stroke-width:1.5;"/>
   </g>
   <g id="line2d_23">
    <path clip-path="url(#pff53fc033c)" d="M 132.2688 122.468357 
L 146.8512 122.468357 
" style="fill:none;stroke:#6f6f6f;stroke-linecap:round;stroke-width:1.5;"/>
   </g>
   <g id="line2d_24">
    <path clip-path="url(#pff53fc033c)" d="M 132.2688 96.81021 
L 146.8512 96.81021 
" style="fill:none;stroke:#6f6f6f;stroke-linecap:round;stroke-width:1.5;"/>
   </g>
   <g id="line2d_25">
    <path clip-path="url(#pff53fc033c)" d="M 191.64 127.263944 
L 191.64 137.87359 
" style="fill:none;stroke:#6f6f6f;stroke-linecap:round;stroke-width:1.5;"/>
   </g>
   <g id="line2d_26">
    <path clip-path="url(#pff53fc033c)" d="M 191.64 114.686909 
L 191.64 111.595524 
" style="fill:none;stroke:#6f6f6f;stroke-linecap:round;stroke-width:1.5;"/>
   </g>
   <g id="line2d_27">
    <path clip-path="url(#pff53fc033c)" d="M 184.3488 137.87359 
L 198.9312 137.87359 
" style="fill:none;stroke:#6f6f6f;stroke-linecap:round;stroke-width:1.5;"/>
   </g>
   <g id="line2d_28">
    <path clip-path="url(#pff53fc033c)" d="M 184.3488 111.595524 
L 198.9312 111.595524 
" style="fill:none;stroke:#6f6f6f;stroke-linecap:round;stroke-width:1.5;"/>
   </g>
   <g id="line2d_29">
    <path clip-path="url(#pff53fc033c)" d="M 221.4 124.418812 
L 221.4 128.131335 
" style="fill:none;stroke:#6f6f6f;stroke-linecap:round;stroke-width:1.5;"/>
   </g>
   <g id="line2d_30">
    <path clip-path="url(#pff53fc033c)" d="M 221.4 114.407389 
L 221.4 105.531588 
" style="fill:none;stroke:#6f6f6f;stroke-linecap:round;stroke-width:1.5;"/>
   </g>
   <g id="line2d_31">
    <path clip-path="url(#pff53fc033c)" d="M 214.1088 128.131335 
L 228.6912 128.131335 
" style="fill:none;stroke:#6f6f6f;stroke-linecap:round;stroke-width:1.5;"/>
   </g>
   <g id="line2d_32">
    <path clip-path="url(#pff53fc033c)" d="M 214.1088 105.531588 
L 228.6912 105.531588 
" style="fill:none;stroke:#6f6f6f;stroke-linecap:round;stroke-width:1.5;"/>
   </g>
   <g id="line2d_33">
    <path clip-path="url(#pff53fc033c)" d="M 251.16 118.392371 
L 251.16 120.702374 
" style="fill:none;stroke:#6f6f6f;stroke-linecap:round;stroke-width:1.5;"/>
   </g>
   <g id="line2d_34">
    <path clip-path="url(#pff53fc033c)" d="M 251.16 111.531718 
L 251.16 106.29014 
" style="fill:none;stroke:#6f6f6f;stroke-linecap:round;stroke-width:1.5;"/>
   </g>
   <g id="line2d_35">
    <path clip-path="url(#pff53fc033c)" d="M 243.8688 120.702374 
L 258.4512 120.702374 
" style="fill:none;stroke:#6f6f6f;stroke-linecap:round;stroke-width:1.5;"/>
   </g>
   <g id="line2d_36">
    <path clip-path="url(#pff53fc033c)" d="M 243.8688 106.29014 
L 258.4512 106.29014 
" style="fill:none;stroke:#6f6f6f;stroke-linecap:round;stroke-width:1.5;"/>
   </g>
   <g id="line2d_37">
    <path clip-path="url(#pff53fc033c)" d="M 303.24 192.585871 
L 303.24 216.457799 
" style="fill:none;stroke:#6f6f6f;stroke-linecap:round;stroke-width:1.5;"/>
   </g>
   <g id="line2d_38">
    <path clip-path="url(#pff53fc033c)" d="M 303.24 174.000043 
L 303.24 165.123228 
" style="fill:none;stroke:#6f6f6f;stroke-linecap:round;stroke-width:1.5;"/>
   </g>
   <g id="line2d_39">
    <path clip-path="url(#pff53fc033c)" d="M 295.9488 216.457799 
L 310.5312 216.457799 
" style="fill:none;stroke:#6f6f6f;stroke-linecap:round;stroke-width:1.5;"/>
   </g>
   <g id="line2d_40">
    <path clip-path="url(#pff53fc033c)" d="M 295.9488 165.123228 
L 310.5312 165.123228 
" style="fill:none;stroke:#6f6f6f;stroke-linecap:round;stroke-width:1.5;"/>
   </g>
   <g id="line2d_41">
    <path clip-path="url(#pff53fc033c)" d="M 333 168.71466 
L 333 181.816848 
" style="fill:none;stroke:#6f6f6f;stroke-linecap:round;stroke-width:1.5;"/>
   </g>
   <g id="line2d_42">
    <path clip-path="url(#pff53fc033c)" d="M 333 157.528166 
L 333 146.39477 
" style="fill:none;stroke:#6f6f6f;stroke-linecap:round;stroke-width:1.5;"/>
   </g>
   <g id="line2d_43">
    <path clip-path="url(#pff53fc033c)" d="M 325.7088 181.816848 
L 340.2912 181.816848 
" style="fill:none;stroke:#6f6f6f;stroke-linecap:round;stroke-width:1.5;"/>
   </g>
   <g id="line2d_44">
    <path clip-path="url(#pff53fc033c)" d="M 325.7088 146.39477 
L 340.2912 146.39477 
" style="fill:none;stroke:#6f6f6f;stroke-linecap:round;stroke-width:1.5;"/>
   </g>
   <g id="line2d_45">
    <path clip-path="url(#pff53fc033c)" d="M 362.76 163.441501 
L 362.76 178.217616 
" style="fill:none;stroke:#6f6f6f;stroke-linecap:round;stroke-width:1.5;"/>
   </g>
   <g id="line2d_46">
    <path clip-path="url(#pff53fc033c)" d="M 362.76 151.634179 
L 362.76 140.518189 
" style="fill:none;stroke:#6f6f6f;stroke-linecap:round;stroke-width:1.5;"/>
   </g>
   <g id="line2d_47">
    <path clip-path="url(#pff53fc033c)" d="M 355.4688 178.217616 
L 370.0512 178.217616 
" style="fill:none;stroke:#6f6f6f;stroke-linecap:round;stroke-width:1.5;"/>
   </g>
   <g id="line2d_48">
    <path clip-path="url(#pff53fc033c)" d="M 355.4688 140.518189 
L 370.0512 140.518189 
" style="fill:none;stroke:#6f6f6f;stroke-linecap:round;stroke-width:1.5;"/>
   </g>
   <g id="line2d_49">
    <path clip-path="url(#pff53fc033c)" d="M 65.4576 112.035435 
L 94.6224 112.035435 
" style="fill:none;stroke:#6f6f6f;stroke-linecap:round;stroke-width:1.5;"/>
   </g>
   <g id="line2d_50">
    <path clip-path="url(#pff53fc033c)" d="M 95.2176 110.697219 
L 124.3824 110.697219 
" style="fill:none;stroke:#6f6f6f;stroke-linecap:round;stroke-width:1.5;"/>
   </g>
   <g id="line2d_51">
    <path clip-path="url(#pff53fc033c)" d="M 124.9776 107.948937 
L 154.1424 107.948937 
" style="fill:none;stroke:#6f6f6f;stroke-linecap:round;stroke-width:1.5;"/>
   </g>
   <g id="line2d_52">
    <path clip-path="url(#pff53fc033c)" d="M 177.0576 123.152836 
L 206.2224 123.152836 
" style="fill:none;stroke:#6f6f6f;stroke-linecap:round;stroke-width:1.5;"/>
   </g>
   <g id="line2d_53">
    <path clip-path="url(#pff53fc033c)" d="M 206.8176 121.635408 
L 235.9824 121.635408 
" style="fill:none;stroke:#6f6f6f;stroke-linecap:round;stroke-width:1.5;"/>
   </g>
   <g id="line2d_54">
    <path clip-path="url(#pff53fc033c)" d="M 236.5776 115.170736 
L 265.7424 115.170736 
" style="fill:none;stroke:#6f6f6f;stroke-linecap:round;stroke-width:1.5;"/>
   </g>
   <g id="line2d_55">
    <path clip-path="url(#pff53fc033c)" d="M 288.6576 175.907522 
L 317.8224 175.907522 
" style="fill:none;stroke:#6f6f6f;stroke-linecap:round;stroke-width:1.5;"/>
   </g>
   <g id="line2d_56">
    <path clip-path="url(#pff53fc033c)" d="M 318.4176 165.363999 
L 347.5824 165.363999 
" style="fill:none;stroke:#6f6f6f;stroke-linecap:round;stroke-width:1.5;"/>
   </g>
   <g id="line2d_57">
    <path clip-path="url(#pff53fc033c)" d="M 348.1776 156.953892 
L 377.3424 156.953892 
" style="fill:none;stroke:#6f6f6f;stroke-linecap:round;stroke-width:1.5;"/>
   </g>
   <g id="patch_15">
    <path d="M 54 256.32 
L 54 34.56 
" style="fill:none;stroke:#262626;stroke-linecap:square;stroke-linejoin:miter;stroke-width:1.25;"/>
   </g>
   <g id="patch_16">
    <path d="M 54 256.32 
L 388.8 256.32 
" style="fill:none;stroke:#262626;stroke-linecap:square;stroke-linejoin:miter;stroke-width:1.25;"/>
   </g>
   <g id="legend_1">
    <g id="patch_17">
     <path d="M 62.4 250.32 
L 180.1575 250.32 
Q 182.5575 250.32 182.5575 247.92 
L 182.5575 146.0025 
Q 182.5575 143.6025 180.1575 143.6025 
L 62.4 143.6025 
Q 60 143.6025 60 146.0025 
L 60 247.92 
Q 60 250.32 62.4 250.32 
z
" style="fill:#ffffff;opacity:0.8;stroke:#cccccc;stroke-linejoin:miter;"/>
    </g>
    <g id="patch_18">
     <path d="M 64.8 157.09875 
L 88.8 157.09875 
L 88.8 148.69875 
L 64.8 148.69875 
z
" style="fill:#abc9ea;stroke:#6f6f6f;stroke-linejoin:miter;stroke-width:0.75;"/>
    </g>
    <g id="text_15">
     <!-- Individual -->
     <g style="fill:#262626;" transform="translate(98.4 157.09875)scale(0.12 -0.12)">
      <defs>
       <path d="M 591 0 
L 591 4403 
L 1188 4403 
L 1188 0 
L 591 0 
z
" id="LiberationSans-49" transform="scale(0.015625)"/>
       <path d="M 2566 544 
Q 2409 219 2151 78 
Q 1894 -63 1513 -63 
Q 872 -63 570 368 
Q 269 800 269 1675 
Q 269 3444 1513 3444 
Q 1897 3444 2153 3303 
Q 2409 3163 2566 2856 
L 2572 2856 
L 2566 3234 
L 2566 4638 
L 3128 4638 
L 3128 697 
Q 3128 169 3147 0 
L 2609 0 
Q 2600 50 2589 231 
Q 2578 413 2578 544 
L 2566 544 
z
M 859 1694 
Q 859 984 1046 678 
Q 1234 372 1656 372 
Q 2134 372 2350 703 
Q 2566 1034 2566 1731 
Q 2566 2403 2350 2715 
Q 2134 3028 1663 3028 
Q 1238 3028 1048 2714 
Q 859 2400 859 1694 
z
" id="LiberationSans-64" transform="scale(0.015625)"/>
       <path d="M 1916 0 
L 1250 0 
L 22 3381 
L 622 3381 
L 1366 1181 
Q 1406 1056 1581 441 
L 1691 806 
L 1813 1175 
L 2581 3381 
L 3178 3381 
L 1916 0 
z
" id="LiberationSans-76" transform="scale(0.015625)"/>
      </defs>
      <use xlink:href="#LiberationSans-49"/>
      <use x="27.783203" xlink:href="#LiberationSans-6e"/>
      <use x="83.398438" xlink:href="#LiberationSans-64"/>
      <use x="139.013672" xlink:href="#LiberationSans-69"/>
      <use x="161.230469" xlink:href="#LiberationSans-76"/>
      <use x="211.230469" xlink:href="#LiberationSans-69"/>
      <use x="233.447266" xlink:href="#LiberationSans-64"/>
      <use x="289.0625" xlink:href="#LiberationSans-75"/>
      <use x="344.677734" xlink:href="#LiberationSans-61"/>
      <use x="400.292969" xlink:href="#LiberationSans-6c"/>
     </g>
    </g>
    <g id="patch_19">
     <path d="M 64.8 174.285 
L 88.8 174.285 
L 88.8 165.885 
L 64.8 165.885 
z
" style="fill:#efb792;stroke:#6f6f6f;stroke-linejoin:miter;stroke-width:0.75;"/>
    </g>
    <g id="text_16">
     <!-- Parallel -->
     <g style="fill:#262626;" transform="translate(98.4 174.285)scale(0.12 -0.12)">
      <use xlink:href="#LiberationSans-50"/>
      <use x="66.699219" xlink:href="#LiberationSans-61"/>
      <use x="122.314453" xlink:href="#LiberationSans-72"/>
      <use x="155.615234" xlink:href="#LiberationSans-61"/>
      <use x="211.230469" xlink:href="#LiberationSans-6c"/>
      <use x="233.447266" xlink:href="#LiberationSans-6c"/>
      <use x="255.664062" xlink:href="#LiberationSans-65"/>
      <use x="311.279297" xlink:href="#LiberationSans-6c"/>
     </g>
    </g>
    <g id="patch_20">
     <path d="M 64.8 191.47125 
L 88.8 191.47125 
L 88.8 183.07125 
L 64.8 183.07125 
z
" style="fill:#98daa7;stroke:#6f6f6f;stroke-linejoin:miter;stroke-width:0.75;"/>
    </g>
    <g id="text_17">
     <!-- Task Switching -->
     <g style="fill:#262626;" transform="translate(98.4 191.47125)scale(0.12 -0.12)">
      <defs>
       <path id="LiberationSans-20" transform="scale(0.015625)"/>
       <path d="M 3975 1216 
Q 3975 606 3498 271 
Q 3022 -63 2156 -63 
Q 547 -63 291 1056 
L 869 1172 
Q 969 775 1294 589 
Q 1619 403 2178 403 
Q 2756 403 3070 601 
Q 3384 800 3384 1184 
Q 3384 1400 3286 1534 
Q 3188 1669 3009 1756 
Q 2831 1844 2584 1903 
Q 2338 1963 2038 2031 
Q 1516 2147 1245 2262 
Q 975 2378 819 2520 
Q 663 2663 580 2853 
Q 497 3044 497 3291 
Q 497 3856 930 4162 
Q 1363 4469 2169 4469 
Q 2919 4469 3316 4239 
Q 3713 4009 3872 3456 
L 3284 3353 
Q 3188 3703 2916 3861 
Q 2644 4019 2163 4019 
Q 1634 4019 1356 3844 
Q 1078 3669 1078 3322 
Q 1078 3119 1186 2986 
Q 1294 2853 1497 2761 
Q 1700 2669 2306 2534 
Q 2509 2488 2711 2439 
Q 2913 2391 3097 2323 
Q 3281 2256 3442 2165 
Q 3603 2075 3722 1944 
Q 3841 1813 3908 1634 
Q 3975 1456 3975 1216 
z
" id="LiberationSans-53" transform="scale(0.015625)"/>
       <path d="M 3669 0 
L 3016 0 
L 2425 2391 
L 2313 2919 
Q 2284 2778 2225 2514 
Q 2166 2250 1588 0 
L 938 0 
L -9 3381 
L 547 3381 
L 1119 1084 
Q 1141 1009 1253 466 
L 1306 697 
L 2013 3381 
L 2616 3381 
L 3206 1059 
L 3350 466 
L 3447 900 
L 4088 3381 
L 4638 3381 
L 3669 0 
z
" id="LiberationSans-77" transform="scale(0.015625)"/>
       <path d="M 991 2803 
Q 1172 3134 1426 3289 
Q 1681 3444 2072 3444 
Q 2622 3444 2883 3170 
Q 3144 2897 3144 2253 
L 3144 0 
L 2578 0 
L 2578 2144 
Q 2578 2500 2512 2673 
Q 2447 2847 2297 2928 
Q 2147 3009 1881 3009 
Q 1484 3009 1245 2734 
Q 1006 2459 1006 1994 
L 1006 0 
L 444 0 
L 444 4638 
L 1006 4638 
L 1006 3431 
Q 1006 3241 995 3037 
Q 984 2834 981 2803 
L 991 2803 
z
" id="LiberationSans-68" transform="scale(0.015625)"/>
       <path d="M 1713 -1328 
Q 1159 -1328 831 -1111 
Q 503 -894 409 -494 
L 975 -413 
Q 1031 -647 1223 -773 
Q 1416 -900 1728 -900 
Q 2569 -900 2569 84 
L 2569 628 
L 2563 628 
Q 2403 303 2125 139 
Q 1847 -25 1475 -25 
Q 853 -25 561 387 
Q 269 800 269 1684 
Q 269 2581 583 3007 
Q 897 3434 1538 3434 
Q 1897 3434 2161 3270 
Q 2425 3106 2569 2803 
L 2575 2803 
Q 2575 2897 2587 3128 
Q 2600 3359 2613 3381 
L 3147 3381 
Q 3128 3213 3128 2681 
L 3128 97 
Q 3128 -1328 1713 -1328 
z
M 2569 1691 
Q 2569 2103 2456 2401 
Q 2344 2700 2139 2858 
Q 1934 3016 1675 3016 
Q 1244 3016 1047 2703 
Q 850 2391 850 1691 
Q 850 997 1034 694 
Q 1219 391 1666 391 
Q 1931 391 2137 547 
Q 2344 703 2456 995 
Q 2569 1288 2569 1691 
z
" id="LiberationSans-67" transform="scale(0.015625)"/>
      </defs>
      <use xlink:href="#LiberationSans-54"/>
      <use x="49.958984" xlink:href="#LiberationSans-61"/>
      <use x="105.574219" xlink:href="#LiberationSans-73"/>
      <use x="155.574219" xlink:href="#LiberationSans-6b"/>
      <use x="205.574219" xlink:href="#LiberationSans-20"/>
      <use x="233.357422" xlink:href="#LiberationSans-53"/>
      <use x="300.056641" xlink:href="#LiberationSans-77"/>
      <use x="372.273438" xlink:href="#LiberationSans-69"/>
      <use x="394.490234" xlink:href="#LiberationSans-74"/>
      <use x="422.273438" xlink:href="#LiberationSans-63"/>
      <use x="472.273438" xlink:href="#LiberationSans-68"/>
      <use x="527.888672" xlink:href="#LiberationSans-69"/>
      <use x="550.105469" xlink:href="#LiberationSans-6e"/>
      <use x="605.720703" xlink:href="#LiberationSans-67"/>
     </g>
    </g>
    <g id="PathCollection_13">
     <defs>
      <path d="M 0 3 
C 0.795609 3 1.55874 2.683901 2.12132 2.12132 
C 2.683901 1.55874 3 0.795609 3 0 
C 3 -0.795609 2.683901 -1.55874 2.12132 -2.12132 
C 1.55874 -2.683901 0.795609 -3 0 -3 
C -0.795609 -3 -1.55874 -2.683901 -2.12132 -2.12132 
C -2.683901 -1.55874 -3 -0.795609 -3 0 
C -3 0.795609 -2.683901 1.55874 -2.12132 2.12132 
C -1.55874 2.683901 -0.795609 3 0 3 
z
" id="m3b647c9c56" style="stroke:#a1c9f4;"/>
     </defs>
     <g>
      <use style="fill:#a1c9f4;stroke:#a1c9f4;" x="76.8" xlink:href="#m3b647c9c56" y="205.5075"/>
     </g>
    </g>
    <g id="text_18">
     <!-- Individual -->
     <g style="fill:#262626;" transform="translate(98.4 208.6575)scale(0.12 -0.12)">
      <use xlink:href="#LiberationSans-49"/>
      <use x="27.783203" xlink:href="#LiberationSans-6e"/>
      <use x="83.398438" xlink:href="#LiberationSans-64"/>
      <use x="139.013672" xlink:href="#LiberationSans-69"/>
      <use x="161.230469" xlink:href="#LiberationSans-76"/>
      <use x="211.230469" xlink:href="#LiberationSans-69"/>
      <use x="233.447266" xlink:href="#LiberationSans-64"/>
      <use x="289.0625" xlink:href="#LiberationSans-75"/>
      <use x="344.677734" xlink:href="#LiberationSans-61"/>
      <use x="400.292969" xlink:href="#LiberationSans-6c"/>
     </g>
    </g>
    <g id="PathCollection_14">
     <defs>
      <path d="M 0 3 
C 0.795609 3 1.55874 2.683901 2.12132 2.12132 
C 2.683901 1.55874 3 0.795609 3 0 
C 3 -0.795609 2.683901 -1.55874 2.12132 -2.12132 
C 1.55874 -2.683901 0.795609 -3 0 -3 
C -0.795609 -3 -1.55874 -2.683901 -2.12132 -2.12132 
C -2.683901 -1.55874 -3 -0.795609 -3 0 
C -3 0.795609 -2.683901 1.55874 -2.12132 2.12132 
C -1.55874 2.683901 -0.795609 3 0 3 
z
" id="m6003a2fae1" style="stroke:#ffb482;"/>
     </defs>
     <g>
      <use style="fill:#ffb482;stroke:#ffb482;" x="76.8" xlink:href="#m6003a2fae1" y="222.69375"/>
     </g>
    </g>
    <g id="text_19">
     <!-- Parallel -->
     <g style="fill:#262626;" transform="translate(98.4 225.84375)scale(0.12 -0.12)">
      <use xlink:href="#LiberationSans-50"/>
      <use x="66.699219" xlink:href="#LiberationSans-61"/>
      <use x="122.314453" xlink:href="#LiberationSans-72"/>
      <use x="155.615234" xlink:href="#LiberationSans-61"/>
      <use x="211.230469" xlink:href="#LiberationSans-6c"/>
      <use x="233.447266" xlink:href="#LiberationSans-6c"/>
      <use x="255.664062" xlink:href="#LiberationSans-65"/>
      <use x="311.279297" xlink:href="#LiberationSans-6c"/>
     </g>
    </g>
    <g id="PathCollection_15">
     <defs>
      <path d="M 0 3 
C 0.795609 3 1.55874 2.683901 2.12132 2.12132 
C 2.683901 1.55874 3 0.795609 3 0 
C 3 -0.795609 2.683901 -1.55874 2.12132 -2.12132 
C 1.55874 -2.683901 0.795609 -3 0 -3 
C -0.795609 -3 -1.55874 -2.683901 -2.12132 -2.12132 
C -2.683901 -1.55874 -3 -0.795609 -3 0 
C -3 0.795609 -2.683901 1.55874 -2.12132 2.12132 
C -1.55874 2.683901 -0.795609 3 0 3 
z
" id="m58b26eff4e" style="stroke:#8de5a1;"/>
     </defs>
     <g>
      <use style="fill:#8de5a1;stroke:#8de5a1;" x="76.8" xlink:href="#m58b26eff4e" y="239.88"/>
     </g>
    </g>
    <g id="text_20">
     <!-- Task Switching -->
     <g style="fill:#262626;" transform="translate(98.4 243.03)scale(0.12 -0.12)">
      <use xlink:href="#LiberationSans-54"/>
      <use x="49.958984" xlink:href="#LiberationSans-61"/>
      <use x="105.574219" xlink:href="#LiberationSans-73"/>
      <use x="155.574219" xlink:href="#LiberationSans-6b"/>
      <use x="205.574219" xlink:href="#LiberationSans-20"/>
      <use x="233.357422" xlink:href="#LiberationSans-53"/>
      <use x="300.056641" xlink:href="#LiberationSans-77"/>
      <use x="372.273438" xlink:href="#LiberationSans-69"/>
      <use x="394.490234" xlink:href="#LiberationSans-74"/>
      <use x="422.273438" xlink:href="#LiberationSans-63"/>
      <use x="472.273438" xlink:href="#LiberationSans-68"/>
      <use x="527.888672" xlink:href="#LiberationSans-69"/>
      <use x="550.105469" xlink:href="#LiberationSans-6e"/>
      <use x="605.720703" xlink:href="#LiberationSans-67"/>
     </g>
    </g>
   </g>
  </g>
 </g>
 <defs>
  <clipPath id="pff53fc033c">
   <rect height="221.76" width="334.8" x="54" y="34.56"/>
  </clipPath>
 </defs>
</svg>
