<?xml version="1.0" encoding="utf-8" standalone="no"?>
<!DOCTYPE svg PUBLIC "-//W3C//DTD SVG 1.1//EN"
  "http://www.w3.org/Graphics/SVG/1.1/DTD/svg11.dtd">
<svg xmlns:xlink="http://www.w3.org/1999/xlink" width="432pt" height="252pt" viewBox="0 0 432 252" xmlns="http://www.w3.org/2000/svg" version="1.1">
 <metadata>
  <rdf:RDF xmlns:dc="http://purl.org/dc/elements/1.1/" xmlns:cc="http://creativecommons.org/ns#" xmlns:rdf="http://www.w3.org/1999/02/22-rdf-syntax-ns#">
   <cc:Work>
    <dc:type rdf:resource="http://purl.org/dc/dcmitype/StillImage"/>
    <dc:date>2024-01-22T15:45:18.981294</dc:date>
    <dc:format>image/svg+xml</dc:format>
    <dc:creator>
     <cc:Agent>
      <dc:title>Matplotlib v3.7.4, https://matplotlib.org/</dc:title>
     </cc:Agent>
    </dc:creator>
   </cc:Work>
  </rdf:RDF>
 </metadata>
 <defs>
  <style type="text/css">*{stroke-linejoin: round; stroke-linecap: butt}</style>
 </defs>
 <g id="figure_1">
  <g id="patch_1">
   <path d="M 0 252 
L 432 252 
L 432 0 
L 0 0 
L 0 252 
z
" style="fill: none"/>
  </g>
  <g id="axes_1">
   <g id="patch_2">
    <path d="M 50.33 204.28 
L 421.2 204.28 
L 421.2 10.8 
L 50.33 10.8 
L 50.33 204.28 
z
" style="fill: none"/>
   </g>
   <g id="patch_3">
    <path d="M 67.187727 204.28 
L 72.37472 204.28 
L 72.37472 179.378428 
L 67.187727 179.378428 
z
" clip-path="url(#p2a4788bea1)" style="fill: #c0d9ff"/>
   </g>
   <g id="patch_4">
    <path d="M 101.767681 204.28 
L 106.954674 204.28 
L 106.954674 141.600422 
L 101.767681 141.600422 
z
" clip-path="url(#p2a4788bea1)" style="fill: #c0d9ff"/>
   </g>
   <g id="patch_5">
    <path d="M 136.347634 204.28 
L 141.534627 204.28 
L 141.534627 61.604712 
L 136.347634 61.604712 
z
" clip-path="url(#p2a4788bea1)" style="fill: #c0d9ff"/>
   </g>
   <g id="patch_6">
    <path d="M 170.927587 204.28 
L 176.11458 204.28 
L 176.11458 54.245277 
L 170.927587 54.245277 
z
" clip-path="url(#p2a4788bea1)" style="fill: #c0d9ff"/>
   </g>
   <g id="patch_7">
    <path d="M 205.507541 204.28 
L 210.694534 204.28 
L 210.694534 106.412587 
L 205.507541 106.412587 
z
" clip-path="url(#p2a4788bea1)" style="fill: #c0d9ff"/>
   </g>
   <g id="patch_8">
    <path d="M 240.087494 204.28 
L 245.274487 204.28 
L 245.274487 151.228769 
L 240.087494 151.228769 
z
" clip-path="url(#p2a4788bea1)" style="fill: #c0d9ff"/>
   </g>
   <g id="patch_9">
    <path d="M 274.667448 204.28 
L 279.854441 204.28 
L 279.854441 176.999382 
L 274.667448 176.999382 
z
" clip-path="url(#p2a4788bea1)" style="fill: #c0d9ff"/>
   </g>
   <g id="patch_10">
    <path d="M 309.247401 204.28 
L 314.434394 204.28 
L 314.434394 182.502691 
L 309.247401 182.502691 
z
" clip-path="url(#p2a4788bea1)" style="fill: #c0d9ff"/>
   </g>
   <g id="patch_11">
    <path d="M 343.827354 204.28 
L 349.014347 204.28 
L 349.014347 186.741854 
L 343.827354 186.741854 
z
" clip-path="url(#p2a4788bea1)" style="fill: #c0d9ff"/>
   </g>
   <g id="patch_12">
    <path d="M 378.407308 204.28 
L 383.594301 204.28 
L 383.594301 187.100567 
L 378.407308 187.100567 
z
" clip-path="url(#p2a4788bea1)" style="fill: #c0d9ff"/>
   </g>
   <g id="patch_13">
    <path d="M 72.37472 204.28 
L 77.561713 204.28 
L 77.561713 180.544584 
L 72.37472 180.544584 
z
" clip-path="url(#p2a4788bea1)" style="fill: #bfc1ff"/>
   </g>
   <g id="patch_14">
    <path d="M 106.954674 204.28 
L 112.141667 204.28 
L 112.141667 152.445872 
L 106.954674 152.445872 
z
" clip-path="url(#p2a4788bea1)" style="fill: #bfc1ff"/>
   </g>
   <g id="patch_15">
    <path d="M 141.534627 204.28 
L 146.72162 204.28 
L 146.72162 75.766856 
L 141.534627 75.766856 
z
" clip-path="url(#p2a4788bea1)" style="fill: #bfc1ff"/>
   </g>
   <g id="patch_16">
    <path d="M 176.11458 204.28 
L 181.301573 204.28 
L 181.301573 86.599179 
L 176.11458 86.599179 
z
" clip-path="url(#p2a4788bea1)" style="fill: #bfc1ff"/>
   </g>
   <g id="patch_17">
    <path d="M 210.694534 204.28 
L 215.881527 204.28 
L 215.881527 136.794099 
L 210.694534 136.794099 
z
" clip-path="url(#p2a4788bea1)" style="fill: #bfc1ff"/>
   </g>
   <g id="patch_18">
    <path d="M 245.274487 204.28 
L 250.46148 204.28 
L 250.46148 162.310229 
L 245.274487 162.310229 
z
" clip-path="url(#p2a4788bea1)" style="fill: #bfc1ff"/>
   </g>
   <g id="patch_19">
    <path d="M 279.854441 204.28 
L 285.041434 204.28 
L 285.041434 180.598407 
L 279.854441 180.598407 
z
" clip-path="url(#p2a4788bea1)" style="fill: #bfc1ff"/>
   </g>
   <g id="patch_20">
    <path d="M 314.434394 204.28 
L 319.621387 204.28 
L 319.621387 183.169478 
L 314.434394 183.169478 
z
" clip-path="url(#p2a4788bea1)" style="fill: #bfc1ff"/>
   </g>
   <g id="patch_21">
    <path d="M 349.014347 204.28 
L 354.20134 204.28 
L 354.20134 187.414637 
L 349.014347 187.414637 
z
" clip-path="url(#p2a4788bea1)" style="fill: #bfc1ff"/>
   </g>
   <g id="patch_22">
    <path d="M 383.594301 204.28 
L 388.781294 204.28 
L 388.781294 185.925955 
L 383.594301 185.925955 
z
" clip-path="url(#p2a4788bea1)" style="fill: #bfc1ff"/>
   </g>
   <g id="patch_23">
    <path d="M 77.561713 204.28 
L 82.748706 204.28 
L 82.748706 178.330653 
L 77.561713 178.330653 
z
" clip-path="url(#p2a4788bea1)" style="fill: #e3bfff"/>
   </g>
   <g id="patch_24">
    <path d="M 112.141667 204.28 
L 117.32866 204.28 
L 117.32866 140.891817 
L 112.141667 140.891817 
z
" clip-path="url(#p2a4788bea1)" style="fill: #e3bfff"/>
   </g>
   <g id="patch_25">
    <path d="M 146.72162 204.28 
L 151.908613 204.28 
L 151.908613 55.312835 
L 146.72162 55.312835 
z
" clip-path="url(#p2a4788bea1)" style="fill: #e3bfff"/>
   </g>
   <g id="patch_26">
    <path d="M 181.301573 204.28 
L 186.488566 204.28 
L 186.488566 53.639589 
L 181.301573 53.639589 
z
" clip-path="url(#p2a4788bea1)" style="fill: #e3bfff"/>
   </g>
   <g id="patch_27">
    <path d="M 215.881527 204.28 
L 221.06852 204.28 
L 221.06852 105.358487 
L 215.881527 105.358487 
z
" clip-path="url(#p2a4788bea1)" style="fill: #e3bfff"/>
   </g>
   <g id="patch_28">
    <path d="M 250.46148 204.28 
L 255.648473 204.28 
L 255.648473 155.528449 
L 250.46148 155.528449 
z
" clip-path="url(#p2a4788bea1)" style="fill: #e3bfff"/>
   </g>
   <g id="patch_29">
    <path d="M 285.041434 204.28 
L 290.228427 204.28 
L 290.228427 178.467682 
L 285.041434 178.467682 
z
" clip-path="url(#p2a4788bea1)" style="fill: #e3bfff"/>
   </g>
   <g id="patch_30">
    <path d="M 319.621387 204.28 
L 324.80838 204.28 
L 324.80838 181.551365 
L 319.621387 181.551365 
z
" clip-path="url(#p2a4788bea1)" style="fill: #e3bfff"/>
   </g>
   <g id="patch_31">
    <path d="M 354.20134 204.28 
L 359.388333 204.28 
L 359.388333 187.08467 
L 354.20134 187.08467 
z
" clip-path="url(#p2a4788bea1)" style="fill: #e3bfff"/>
   </g>
   <g id="patch_32">
    <path d="M 388.781294 204.28 
L 393.968287 204.28 
L 393.968287 187.031831 
L 388.781294 187.031831 
z
" clip-path="url(#p2a4788bea1)" style="fill: #e3bfff"/>
   </g>
   <g id="patch_33">
    <path d="M 82.748706 204.28 
L 87.935699 204.28 
L 87.935699 180.703643 
L 82.748706 180.703643 
z
" clip-path="url(#p2a4788bea1)" style="fill: #ffbfe6"/>
   </g>
   <g id="patch_34">
    <path d="M 117.32866 204.28 
L 122.515653 204.28 
L 122.515653 139.936917 
L 117.32866 139.936917 
z
" clip-path="url(#p2a4788bea1)" style="fill: #ffbfe6"/>
   </g>
   <g id="patch_35">
    <path d="M 151.908613 204.28 
L 157.095606 204.28 
L 157.095606 70.336273 
L 151.908613 70.336273 
z
" clip-path="url(#p2a4788bea1)" style="fill: #ffbfe6"/>
   </g>
   <g id="patch_36">
    <path d="M 186.488566 204.28 
L 191.675559 204.28 
L 191.675559 86.207752 
L 186.488566 86.207752 
z
" clip-path="url(#p2a4788bea1)" style="fill: #ffbfe6"/>
   </g>
   <g id="patch_37">
    <path d="M 221.06852 204.28 
L 226.255513 204.28 
L 226.255513 136.807609 
L 221.06852 136.807609 
z
" clip-path="url(#p2a4788bea1)" style="fill: #ffbfe6"/>
   </g>
   <g id="patch_38">
    <path d="M 255.648473 204.28 
L 260.835466 204.28 
L 260.835466 164.969396 
L 255.648473 164.969396 
z
" clip-path="url(#p2a4788bea1)" style="fill: #ffbfe6"/>
   </g>
   <g id="patch_39">
    <path d="M 290.228427 204.28 
L 295.41542 204.28 
L 295.41542 182.088524 
L 290.228427 182.088524 
z
" clip-path="url(#p2a4788bea1)" style="fill: #ffbfe6"/>
   </g>
   <g id="patch_40">
    <path d="M 324.80838 204.28 
L 329.995373 204.28 
L 329.995373 183.778119 
L 324.80838 183.778119 
z
" clip-path="url(#p2a4788bea1)" style="fill: #ffbfe6"/>
   </g>
   <g id="patch_41">
    <path d="M 359.388333 204.28 
L 364.575326 204.28 
L 364.575326 186.356239 
L 359.388333 186.356239 
z
" clip-path="url(#p2a4788bea1)" style="fill: #ffbfe6"/>
   </g>
   <g id="patch_42">
    <path d="M 393.968287 204.28 
L 399.15528 204.28 
L 399.15528 187.414518 
L 393.968287 187.414518 
z
" clip-path="url(#p2a4788bea1)" style="fill: #ffbfe6"/>
   </g>
   <g id="patch_43">
    <path d="M 87.935699 204.28 
L 93.122692 204.28 
L 93.122692 183.064698 
L 87.935699 183.064698 
z
" clip-path="url(#p2a4788bea1)" style="fill: #ffbfc4"/>
   </g>
   <g id="patch_44">
    <path d="M 122.515653 204.28 
L 127.702646 204.28 
L 127.702646 157.243517 
L 122.515653 157.243517 
z
" clip-path="url(#p2a4788bea1)" style="fill: #ffbfc4"/>
   </g>
   <g id="patch_45">
    <path d="M 157.095606 204.28 
L 162.282599 204.28 
L 162.282599 66.461994 
L 157.095606 66.461994 
z
" clip-path="url(#p2a4788bea1)" style="fill: #ffbfc4"/>
   </g>
   <g id="patch_46">
    <path d="M 191.675559 204.28 
L 196.862552 204.28 
L 196.862552 35.07496 
L 191.675559 35.07496 
z
" clip-path="url(#p2a4788bea1)" style="fill: #ffbfc4"/>
   </g>
   <g id="patch_47">
    <path d="M 226.255513 204.28 
L 231.442506 204.28 
L 231.442506 74.256853 
L 226.255513 74.256853 
z
" clip-path="url(#p2a4788bea1)" style="fill: #ffbfc4"/>
   </g>
   <g id="patch_48">
    <path d="M 260.835466 204.28 
L 266.022459 204.28 
L 266.022459 138.256287 
L 260.835466 138.256287 
z
" clip-path="url(#p2a4788bea1)" style="fill: #ffbfc4"/>
   </g>
   <g id="patch_49">
    <path d="M 295.41542 204.28 
L 300.602413 204.28 
L 300.602413 170.410901 
L 295.41542 170.410901 
z
" clip-path="url(#p2a4788bea1)" style="fill: #ffbfc4"/>
   </g>
   <g id="patch_50">
    <path d="M 329.995373 204.28 
L 335.182366 204.28 
L 335.182366 176.872485 
L 329.995373 176.872485 
z
" clip-path="url(#p2a4788bea1)" style="fill: #ffbfc4"/>
   </g>
   <g id="patch_51">
    <path d="M 364.575326 204.28 
L 369.762319 204.28 
L 369.762319 183.136037 
L 364.575326 183.136037 
z
" clip-path="url(#p2a4788bea1)" style="fill: #ffbfc4"/>
   </g>
   <g id="patch_52">
    <path d="M 399.15528 204.28 
L 404.342273 204.28 
L 404.342273 185.429421 
L 399.15528 185.429421 
z
" clip-path="url(#p2a4788bea1)" style="fill: #ffbfc4"/>
   </g>
   <g id="matplotlib.axis_1">
    <g id="xtick_1">
     <g id="line2d_1">
      <defs>
       <path id="m3a42e1a648" d="M 0 0 
L 0 3.5 
" style="stroke: #000000; stroke-width: 1.5"/>
      </defs>
      <g>
       <use xlink:href="#m3a42e1a648" x="80.15521" y="204.28" style="stroke: #000000; stroke-width: 1.5"/>
      </g>
     </g>
     <g id="text_1">
      <!-- 1 -->
      <g transform="translate(76.818647 219.97625) scale(0.12 -0.12)">
       <defs>
        <path id="LiberationSans-31" d="M 488 0 
L 488 478 
L 1609 478 
L 1609 3866 
L 616 3156 
L 616 3688 
L 1656 4403 
L 2175 4403 
L 2175 478 
L 3247 478 
L 3247 0 
L 488 0 
z
" transform="scale(0.015625)"/>
       </defs>
       <use xlink:href="#LiberationSans-31"/>
      </g>
     </g>
    </g>
    <g id="xtick_2">
     <g id="line2d_2">
      <g>
       <use xlink:href="#m3a42e1a648" x="114.735163" y="204.28" style="stroke: #000000; stroke-width: 1.5"/>
      </g>
     </g>
     <g id="text_2">
      <!-- 2 -->
      <g transform="translate(111.398601 219.97625) scale(0.12 -0.12)">
       <defs>
        <path id="LiberationSans-32" d="M 322 0 
L 322 397 
Q 481 763 711 1042 
Q 941 1322 1194 1548 
Q 1447 1775 1695 1969 
Q 1944 2163 2144 2356 
Q 2344 2550 2467 2762 
Q 2591 2975 2591 3244 
Q 2591 3606 2378 3806 
Q 2166 4006 1788 4006 
Q 1428 4006 1195 3811 
Q 963 3616 922 3263 
L 347 3316 
Q 409 3844 795 4156 
Q 1181 4469 1788 4469 
Q 2453 4469 2811 4155 
Q 3169 3841 3169 3263 
Q 3169 3006 3051 2753 
Q 2934 2500 2703 2247 
Q 2472 1994 1819 1463 
Q 1459 1169 1246 933 
Q 1034 697 941 478 
L 3238 478 
L 3238 0 
L 322 0 
z
" transform="scale(0.015625)"/>
       </defs>
       <use xlink:href="#LiberationSans-32"/>
      </g>
     </g>
    </g>
    <g id="xtick_3">
     <g id="line2d_3">
      <g>
       <use xlink:href="#m3a42e1a648" x="149.315117" y="204.28" style="stroke: #000000; stroke-width: 1.5"/>
      </g>
     </g>
     <g id="text_3">
      <!-- 3 -->
      <g transform="translate(145.978554 219.97625) scale(0.12 -0.12)">
       <defs>
        <path id="LiberationSans-33" d="M 3278 1216 
Q 3278 606 2890 271 
Q 2503 -63 1784 -63 
Q 1116 -63 717 239 
Q 319 541 244 1131 
L 825 1184 
Q 938 403 1784 403 
Q 2209 403 2451 612 
Q 2694 822 2694 1234 
Q 2694 1594 2417 1795 
Q 2141 1997 1619 1997 
L 1300 1997 
L 1300 2484 
L 1606 2484 
Q 2069 2484 2323 2686 
Q 2578 2888 2578 3244 
Q 2578 3597 2370 3801 
Q 2163 4006 1753 4006 
Q 1381 4006 1151 3815 
Q 922 3625 884 3278 
L 319 3322 
Q 381 3863 767 4166 
Q 1153 4469 1759 4469 
Q 2422 4469 2789 4161 
Q 3156 3853 3156 3303 
Q 3156 2881 2920 2617 
Q 2684 2353 2234 2259 
L 2234 2247 
Q 2728 2194 3003 1916 
Q 3278 1638 3278 1216 
z
" transform="scale(0.015625)"/>
       </defs>
       <use xlink:href="#LiberationSans-33"/>
      </g>
     </g>
    </g>
    <g id="xtick_4">
     <g id="line2d_4">
      <g>
       <use xlink:href="#m3a42e1a648" x="183.89507" y="204.28" style="stroke: #000000; stroke-width: 1.5"/>
      </g>
     </g>
     <g id="text_4">
      <!-- 4 -->
      <g transform="translate(180.558507 219.97625) scale(0.12 -0.12)">
       <defs>
        <path id="LiberationSans-34" d="M 2753 997 
L 2753 0 
L 2222 0 
L 2222 997 
L 147 997 
L 147 1434 
L 2163 4403 
L 2753 4403 
L 2753 1441 
L 3372 1441 
L 3372 997 
L 2753 997 
z
M 2222 3769 
Q 2216 3750 2134 3603 
Q 2053 3456 2013 3397 
L 884 1734 
L 716 1503 
L 666 1441 
L 2222 1441 
L 2222 3769 
z
" transform="scale(0.015625)"/>
       </defs>
       <use xlink:href="#LiberationSans-34"/>
      </g>
     </g>
    </g>
    <g id="xtick_5">
     <g id="line2d_5">
      <g>
       <use xlink:href="#m3a42e1a648" x="218.475023" y="204.28" style="stroke: #000000; stroke-width: 1.5"/>
      </g>
     </g>
     <g id="text_5">
      <!-- 5 -->
      <g transform="translate(215.138461 219.97625) scale(0.12 -0.12)">
       <defs>
        <path id="LiberationSans-35" d="M 3291 1434 
Q 3291 738 2877 337 
Q 2463 -63 1728 -63 
Q 1113 -63 734 206 
Q 356 475 256 984 
L 825 1050 
Q 1003 397 1741 397 
Q 2194 397 2450 670 
Q 2706 944 2706 1422 
Q 2706 1838 2448 2094 
Q 2191 2350 1753 2350 
Q 1525 2350 1328 2278 
Q 1131 2206 934 2034 
L 384 2034 
L 531 4403 
L 3034 4403 
L 3034 3925 
L 1044 3925 
L 959 2528 
Q 1325 2809 1869 2809 
Q 2519 2809 2905 2428 
Q 3291 2047 3291 1434 
z
" transform="scale(0.015625)"/>
       </defs>
       <use xlink:href="#LiberationSans-35"/>
      </g>
     </g>
    </g>
    <g id="xtick_6">
     <g id="line2d_6">
      <g>
       <use xlink:href="#m3a42e1a648" x="253.054977" y="204.28" style="stroke: #000000; stroke-width: 1.5"/>
      </g>
     </g>
     <g id="text_6">
      <!-- 6 -->
      <g transform="translate(249.718414 219.97625) scale(0.12 -0.12)">
       <defs>
        <path id="LiberationSans-36" d="M 3278 1441 
Q 3278 744 2900 340 
Q 2522 -63 1856 -63 
Q 1113 -63 719 490 
Q 325 1044 325 2100 
Q 325 3244 734 3856 
Q 1144 4469 1900 4469 
Q 2897 4469 3156 3572 
L 2619 3475 
Q 2453 4013 1894 4013 
Q 1413 4013 1148 3564 
Q 884 3116 884 2266 
Q 1038 2550 1316 2698 
Q 1594 2847 1953 2847 
Q 2563 2847 2920 2465 
Q 3278 2084 3278 1441 
z
M 2706 1416 
Q 2706 1894 2472 2153 
Q 2238 2413 1819 2413 
Q 1425 2413 1183 2183 
Q 941 1953 941 1550 
Q 941 1041 1192 716 
Q 1444 391 1838 391 
Q 2244 391 2475 664 
Q 2706 938 2706 1416 
z
" transform="scale(0.015625)"/>
       </defs>
       <use xlink:href="#LiberationSans-36"/>
      </g>
     </g>
    </g>
    <g id="xtick_7">
     <g id="line2d_7">
      <g>
       <use xlink:href="#m3a42e1a648" x="287.63493" y="204.28" style="stroke: #000000; stroke-width: 1.5"/>
      </g>
     </g>
     <g id="text_7">
      <!-- 7 -->
      <g transform="translate(284.298368 219.97625) scale(0.12 -0.12)">
       <defs>
        <path id="LiberationSans-37" d="M 3238 3947 
Q 2563 2916 2284 2331 
Q 2006 1747 1867 1178 
Q 1728 609 1728 0 
L 1141 0 
Q 1141 844 1498 1776 
Q 1856 2709 2694 3925 
L 328 3925 
L 328 4403 
L 3238 4403 
L 3238 3947 
z
" transform="scale(0.015625)"/>
       </defs>
       <use xlink:href="#LiberationSans-37"/>
      </g>
     </g>
    </g>
    <g id="xtick_8">
     <g id="line2d_8">
      <g>
       <use xlink:href="#m3a42e1a648" x="322.214883" y="204.28" style="stroke: #000000; stroke-width: 1.5"/>
      </g>
     </g>
     <g id="text_8">
      <!-- 8 -->
      <g transform="translate(318.878321 219.97625) scale(0.12 -0.12)">
       <defs>
        <path id="LiberationSans-38" d="M 3281 1228 
Q 3281 619 2893 278 
Q 2506 -63 1781 -63 
Q 1075 -63 676 271 
Q 278 606 278 1222 
Q 278 1653 525 1947 
Q 772 2241 1156 2303 
L 1156 2316 
Q 797 2400 589 2681 
Q 381 2963 381 3341 
Q 381 3844 757 4156 
Q 1134 4469 1769 4469 
Q 2419 4469 2795 4162 
Q 3172 3856 3172 3334 
Q 3172 2956 2962 2675 
Q 2753 2394 2391 2322 
L 2391 2309 
Q 2813 2241 3047 1952 
Q 3281 1663 3281 1228 
z
M 2588 3303 
Q 2588 4050 1769 4050 
Q 1372 4050 1164 3862 
Q 956 3675 956 3303 
Q 956 2925 1170 2726 
Q 1384 2528 1775 2528 
Q 2172 2528 2380 2711 
Q 2588 2894 2588 3303 
z
M 2697 1281 
Q 2697 1691 2453 1898 
Q 2209 2106 1769 2106 
Q 1341 2106 1100 1882 
Q 859 1659 859 1269 
Q 859 359 1788 359 
Q 2247 359 2472 579 
Q 2697 800 2697 1281 
z
" transform="scale(0.015625)"/>
       </defs>
       <use xlink:href="#LiberationSans-38"/>
      </g>
     </g>
    </g>
    <g id="xtick_9">
     <g id="line2d_9">
      <g>
       <use xlink:href="#m3a42e1a648" x="356.794837" y="204.28" style="stroke: #000000; stroke-width: 1.5"/>
      </g>
     </g>
     <g id="text_9">
      <!-- 9 -->
      <g transform="translate(353.458274 219.97625) scale(0.12 -0.12)">
       <defs>
        <path id="LiberationSans-39" d="M 3256 2291 
Q 3256 1156 2842 546 
Q 2428 -63 1663 -63 
Q 1147 -63 836 154 
Q 525 372 391 856 
L 928 941 
Q 1097 391 1672 391 
Q 2156 391 2422 841 
Q 2688 1291 2700 2125 
Q 2575 1844 2272 1673 
Q 1969 1503 1606 1503 
Q 1013 1503 656 1909 
Q 300 2316 300 2988 
Q 300 3678 687 4073 
Q 1075 4469 1766 4469 
Q 2500 4469 2878 3925 
Q 3256 3381 3256 2291 
z
M 2644 2834 
Q 2644 3366 2400 3689 
Q 2156 4013 1747 4013 
Q 1341 4013 1106 3736 
Q 872 3459 872 2988 
Q 872 2506 1106 2226 
Q 1341 1947 1741 1947 
Q 1984 1947 2193 2058 
Q 2403 2169 2523 2372 
Q 2644 2575 2644 2834 
z
" transform="scale(0.015625)"/>
       </defs>
       <use xlink:href="#LiberationSans-39"/>
      </g>
     </g>
    </g>
    <g id="xtick_10">
     <g id="line2d_10">
      <g>
       <use xlink:href="#m3a42e1a648" x="391.37479" y="204.28" style="stroke: #000000; stroke-width: 1.5"/>
      </g>
     </g>
     <g id="text_10">
      <!-- 10 -->
      <g transform="translate(384.701665 219.97625) scale(0.12 -0.12)">
       <defs>
        <path id="LiberationSans-30" d="M 3309 2203 
Q 3309 1100 2920 518 
Q 2531 -63 1772 -63 
Q 1013 -63 631 515 
Q 250 1094 250 2203 
Q 250 3338 620 3903 
Q 991 4469 1791 4469 
Q 2569 4469 2939 3897 
Q 3309 3325 3309 2203 
z
M 2738 2203 
Q 2738 3156 2517 3584 
Q 2297 4013 1791 4013 
Q 1272 4013 1045 3591 
Q 819 3169 819 2203 
Q 819 1266 1048 831 
Q 1278 397 1778 397 
Q 2275 397 2506 840 
Q 2738 1284 2738 2203 
z
" transform="scale(0.015625)"/>
       </defs>
       <use xlink:href="#LiberationSans-31"/>
       <use xlink:href="#LiberationSans-30" x="55.615234"/>
      </g>
     </g>
    </g>
    <g id="text_11">
     <!-- Layer -->
     <g transform="translate(215.755 238.06125) scale(0.16 -0.16)">
      <defs>
       <path id="LiberationSans-4c" d="M 525 0 
L 525 4403 
L 1122 4403 
L 1122 488 
L 3347 488 
L 3347 0 
L 525 0 
z
" transform="scale(0.015625)"/>
       <path id="LiberationSans-61" d="M 1294 -63 
Q 784 -63 528 206 
Q 272 475 272 944 
Q 272 1469 617 1750 
Q 963 2031 1731 2050 
L 2491 2063 
L 2491 2247 
Q 2491 2659 2316 2837 
Q 2141 3016 1766 3016 
Q 1388 3016 1216 2887 
Q 1044 2759 1009 2478 
L 422 2531 
Q 566 3444 1778 3444 
Q 2416 3444 2737 3151 
Q 3059 2859 3059 2306 
L 3059 850 
Q 3059 600 3125 473 
Q 3191 347 3375 347 
Q 3456 347 3559 369 
L 3559 19 
Q 3347 -31 3125 -31 
Q 2813 -31 2670 133 
Q 2528 297 2509 647 
L 2491 647 
Q 2275 259 1989 98 
Q 1703 -63 1294 -63 
z
M 1422 359 
Q 1731 359 1972 500 
Q 2213 641 2352 886 
Q 2491 1131 2491 1391 
L 2491 1669 
L 1875 1656 
Q 1478 1650 1273 1575 
Q 1069 1500 959 1344 
Q 850 1188 850 934 
Q 850 659 998 509 
Q 1147 359 1422 359 
z
" transform="scale(0.015625)"/>
       <path id="LiberationSans-79" d="M 597 -1328 
Q 366 -1328 209 -1294 
L 209 -872 
Q 328 -891 472 -891 
Q 997 -891 1303 -119 
L 1356 16 
L 16 3381 
L 616 3381 
L 1328 1513 
Q 1344 1469 1366 1408 
Q 1388 1347 1506 1000 
Q 1625 653 1634 613 
L 1853 1228 
L 2594 3381 
L 3188 3381 
L 1888 0 
Q 1678 -541 1497 -805 
Q 1316 -1069 1095 -1198 
Q 875 -1328 597 -1328 
z
" transform="scale(0.015625)"/>
       <path id="LiberationSans-65" d="M 863 1572 
Q 863 991 1103 675 
Q 1344 359 1806 359 
Q 2172 359 2392 506 
Q 2613 653 2691 878 
L 3184 738 
Q 2881 -63 1806 -63 
Q 1056 -63 664 384 
Q 272 831 272 1713 
Q 272 2550 664 2997 
Q 1056 3444 1784 3444 
Q 3275 3444 3275 1647 
L 3275 1572 
L 863 1572 
z
M 2694 2003 
Q 2647 2538 2422 2783 
Q 2197 3028 1775 3028 
Q 1366 3028 1127 2754 
Q 888 2481 869 2003 
L 2694 2003 
z
" transform="scale(0.015625)"/>
       <path id="LiberationSans-72" d="M 444 0 
L 444 2594 
Q 444 2950 425 3381 
L 956 3381 
Q 981 2806 981 2691 
L 994 2691 
Q 1128 3125 1303 3284 
Q 1478 3444 1797 3444 
Q 1909 3444 2025 3413 
L 2025 2897 
Q 1913 2928 1725 2928 
Q 1375 2928 1190 2626 
Q 1006 2325 1006 1763 
L 1006 0 
L 444 0 
z
" transform="scale(0.015625)"/>
      </defs>
      <use xlink:href="#LiberationSans-4c"/>
      <use xlink:href="#LiberationSans-61" x="55.615234"/>
      <use xlink:href="#LiberationSans-79" x="111.230469"/>
      <use xlink:href="#LiberationSans-65" x="161.230469"/>
      <use xlink:href="#LiberationSans-72" x="216.845703"/>
     </g>
    </g>
   </g>
   <g id="matplotlib.axis_2">
    <g id="ytick_1">
     <g id="line2d_11">
      <defs>
       <path id="m82c3eac5e8" d="M 0 0 
L -3.5 0 
" style="stroke: #000000; stroke-width: 0.8"/>
      </defs>
      <g>
       <use xlink:href="#m82c3eac5e8" x="50.33" y="204.28" style="stroke: #000000; stroke-width: 0.8"/>
      </g>
     </g>
     <g id="text_12">
      <!-- 0 -->
      <g transform="translate(36.656875 208.628125) scale(0.12 -0.12)">
       <use xlink:href="#LiberationSans-30"/>
      </g>
     </g>
    </g>
    <g id="ytick_2">
     <g id="line2d_12">
      <g>
       <use xlink:href="#m82c3eac5e8" x="50.33" y="177.294638" style="stroke: #000000; stroke-width: 0.8"/>
      </g>
     </g>
     <g id="text_13">
      <!-- 2 -->
      <g transform="translate(36.656875 181.642763) scale(0.12 -0.12)">
       <use xlink:href="#LiberationSans-32"/>
      </g>
     </g>
    </g>
    <g id="ytick_3">
     <g id="line2d_13">
      <g>
       <use xlink:href="#m82c3eac5e8" x="50.33" y="150.309276" style="stroke: #000000; stroke-width: 0.8"/>
      </g>
     </g>
     <g id="text_14">
      <!-- 4 -->
      <g transform="translate(36.656875 154.657401) scale(0.12 -0.12)">
       <use xlink:href="#LiberationSans-34"/>
      </g>
     </g>
    </g>
    <g id="ytick_4">
     <g id="line2d_14">
      <g>
       <use xlink:href="#m82c3eac5e8" x="50.33" y="123.323914" style="stroke: #000000; stroke-width: 0.8"/>
      </g>
     </g>
     <g id="text_15">
      <!-- 6 -->
      <g transform="translate(36.656875 127.672039) scale(0.12 -0.12)">
       <use xlink:href="#LiberationSans-36"/>
      </g>
     </g>
    </g>
    <g id="ytick_5">
     <g id="line2d_15">
      <g>
       <use xlink:href="#m82c3eac5e8" x="50.33" y="96.338552" style="stroke: #000000; stroke-width: 0.8"/>
      </g>
     </g>
     <g id="text_16">
      <!-- 8 -->
      <g transform="translate(36.656875 100.686677) scale(0.12 -0.12)">
       <use xlink:href="#LiberationSans-38"/>
      </g>
     </g>
    </g>
    <g id="ytick_6">
     <g id="line2d_16">
      <g>
       <use xlink:href="#m82c3eac5e8" x="50.33" y="69.353189" style="stroke: #000000; stroke-width: 0.8"/>
      </g>
     </g>
     <g id="text_17">
      <!-- 10 -->
      <g transform="translate(29.98375 73.701314) scale(0.12 -0.12)">
       <use xlink:href="#LiberationSans-31"/>
       <use xlink:href="#LiberationSans-30" x="55.615234"/>
      </g>
     </g>
    </g>
    <g id="ytick_7">
     <g id="line2d_17">
      <g>
       <use xlink:href="#m82c3eac5e8" x="50.33" y="42.367827" style="stroke: #000000; stroke-width: 0.8"/>
      </g>
     </g>
     <g id="text_18">
      <!-- 12 -->
      <g transform="translate(29.98375 46.715952) scale(0.12 -0.12)">
       <use xlink:href="#LiberationSans-31"/>
       <use xlink:href="#LiberationSans-32" x="55.615234"/>
      </g>
     </g>
    </g>
    <g id="ytick_8">
     <g id="line2d_18">
      <g>
       <use xlink:href="#m82c3eac5e8" x="50.33" y="15.382465" style="stroke: #000000; stroke-width: 0.8"/>
      </g>
     </g>
     <g id="text_19">
      <!-- 14 -->
      <g transform="translate(29.98375 19.73059) scale(0.12 -0.12)">
       <use xlink:href="#LiberationSans-31"/>
       <use xlink:href="#LiberationSans-34" x="55.615234"/>
      </g>
     </g>
    </g>
    <g id="text_20">
     <!-- Bias Magnitude -->
     <g transform="translate(22.66375 162.68125) rotate(-90) scale(0.16 -0.16)">
      <defs>
       <path id="LiberationSans-42" d="M 3931 1241 
Q 3931 653 3503 326 
Q 3075 0 2313 0 
L 525 0 
L 525 4403 
L 2125 4403 
Q 3675 4403 3675 3334 
Q 3675 2944 3456 2678 
Q 3238 2413 2838 2322 
Q 3363 2259 3647 1970 
Q 3931 1681 3931 1241 
z
M 3075 3263 
Q 3075 3619 2831 3772 
Q 2588 3925 2125 3925 
L 1122 3925 
L 1122 2531 
L 2125 2531 
Q 2603 2531 2839 2711 
Q 3075 2891 3075 3263 
z
M 3328 1288 
Q 3328 2066 2234 2066 
L 1122 2066 
L 1122 478 
L 2281 478 
Q 2828 478 3078 681 
Q 3328 884 3328 1288 
z
" transform="scale(0.015625)"/>
       <path id="LiberationSans-69" d="M 428 4100 
L 428 4638 
L 991 4638 
L 991 4100 
L 428 4100 
z
M 428 0 
L 428 3381 
L 991 3381 
L 991 0 
L 428 0 
z
" transform="scale(0.015625)"/>
       <path id="LiberationSans-73" d="M 2969 934 
Q 2969 456 2608 196 
Q 2247 -63 1597 -63 
Q 966 -63 623 145 
Q 281 353 178 794 
L 675 891 
Q 747 619 972 492 
Q 1197 366 1597 366 
Q 2025 366 2223 497 
Q 2422 628 2422 891 
Q 2422 1091 2284 1216 
Q 2147 1341 1841 1422 
L 1438 1528 
Q 953 1653 748 1773 
Q 544 1894 428 2066 
Q 313 2238 313 2488 
Q 313 2950 642 3192 
Q 972 3434 1603 3434 
Q 2163 3434 2492 3237 
Q 2822 3041 2909 2606 
L 2403 2544 
Q 2356 2769 2151 2889 
Q 1947 3009 1603 3009 
Q 1222 3009 1040 2893 
Q 859 2778 859 2544 
Q 859 2400 934 2306 
Q 1009 2213 1156 2147 
Q 1303 2081 1775 1966 
Q 2222 1853 2419 1758 
Q 2616 1663 2730 1547 
Q 2844 1431 2906 1279 
Q 2969 1128 2969 934 
z
" transform="scale(0.015625)"/>
       <path id="LiberationSans-20" transform="scale(0.015625)"/>
       <path id="LiberationSans-4d" d="M 4269 0 
L 4269 2938 
Q 4269 3425 4297 3875 
Q 4144 3316 4022 3000 
L 2884 0 
L 2466 0 
L 1313 3000 
L 1138 3531 
L 1034 3875 
L 1044 3528 
L 1056 2938 
L 1056 0 
L 525 0 
L 525 4403 
L 1309 4403 
L 2481 1350 
Q 2544 1166 2601 955 
Q 2659 744 2678 650 
Q 2703 775 2783 1029 
Q 2863 1284 2891 1350 
L 4041 4403 
L 4806 4403 
L 4806 0 
L 4269 0 
z
" transform="scale(0.015625)"/>
       <path id="LiberationSans-67" d="M 1713 -1328 
Q 1159 -1328 831 -1111 
Q 503 -894 409 -494 
L 975 -413 
Q 1031 -647 1223 -773 
Q 1416 -900 1728 -900 
Q 2569 -900 2569 84 
L 2569 628 
L 2563 628 
Q 2403 303 2125 139 
Q 1847 -25 1475 -25 
Q 853 -25 561 387 
Q 269 800 269 1684 
Q 269 2581 583 3007 
Q 897 3434 1538 3434 
Q 1897 3434 2161 3270 
Q 2425 3106 2569 2803 
L 2575 2803 
Q 2575 2897 2587 3128 
Q 2600 3359 2613 3381 
L 3147 3381 
Q 3128 3213 3128 2681 
L 3128 97 
Q 3128 -1328 1713 -1328 
z
M 2569 1691 
Q 2569 2103 2456 2401 
Q 2344 2700 2139 2858 
Q 1934 3016 1675 3016 
Q 1244 3016 1047 2703 
Q 850 2391 850 1691 
Q 850 997 1034 694 
Q 1219 391 1666 391 
Q 1931 391 2137 547 
Q 2344 703 2456 995 
Q 2569 1288 2569 1691 
z
" transform="scale(0.015625)"/>
       <path id="LiberationSans-6e" d="M 2578 0 
L 2578 2144 
Q 2578 2478 2512 2662 
Q 2447 2847 2303 2928 
Q 2159 3009 1881 3009 
Q 1475 3009 1240 2731 
Q 1006 2453 1006 1959 
L 1006 0 
L 444 0 
L 444 2659 
Q 444 3250 425 3381 
L 956 3381 
Q 959 3366 962 3297 
Q 966 3228 970 3139 
Q 975 3050 981 2803 
L 991 2803 
Q 1184 3153 1439 3298 
Q 1694 3444 2072 3444 
Q 2628 3444 2886 3167 
Q 3144 2891 3144 2253 
L 3144 0 
L 2578 0 
z
" transform="scale(0.015625)"/>
       <path id="LiberationSans-74" d="M 1731 25 
Q 1453 -50 1163 -50 
Q 488 -50 488 716 
L 488 2972 
L 97 2972 
L 97 3381 
L 509 3381 
L 675 4138 
L 1050 4138 
L 1050 3381 
L 1675 3381 
L 1675 2972 
L 1050 2972 
L 1050 838 
Q 1050 594 1129 495 
Q 1209 397 1406 397 
Q 1519 397 1731 441 
L 1731 25 
z
" transform="scale(0.015625)"/>
       <path id="LiberationSans-75" d="M 981 3381 
L 981 1238 
Q 981 903 1047 718 
Q 1113 534 1256 453 
Q 1400 372 1678 372 
Q 2084 372 2318 650 
Q 2553 928 2553 1422 
L 2553 3381 
L 3116 3381 
L 3116 722 
Q 3116 131 3134 0 
L 2603 0 
Q 2600 16 2597 84 
Q 2594 153 2589 242 
Q 2584 331 2578 578 
L 2569 578 
Q 2375 228 2120 82 
Q 1866 -63 1488 -63 
Q 931 -63 673 214 
Q 416 491 416 1128 
L 416 3381 
L 981 3381 
z
" transform="scale(0.015625)"/>
       <path id="LiberationSans-64" d="M 2566 544 
Q 2409 219 2151 78 
Q 1894 -63 1513 -63 
Q 872 -63 570 368 
Q 269 800 269 1675 
Q 269 3444 1513 3444 
Q 1897 3444 2153 3303 
Q 2409 3163 2566 2856 
L 2572 2856 
L 2566 3234 
L 2566 4638 
L 3128 4638 
L 3128 697 
Q 3128 169 3147 0 
L 2609 0 
Q 2600 50 2589 231 
Q 2578 413 2578 544 
L 2566 544 
z
M 859 1694 
Q 859 984 1046 678 
Q 1234 372 1656 372 
Q 2134 372 2350 703 
Q 2566 1034 2566 1731 
Q 2566 2403 2350 2715 
Q 2134 3028 1663 3028 
Q 1238 3028 1048 2714 
Q 859 2400 859 1694 
z
" transform="scale(0.015625)"/>
      </defs>
      <use xlink:href="#LiberationSans-42"/>
      <use xlink:href="#LiberationSans-69" x="66.699219"/>
      <use xlink:href="#LiberationSans-61" x="88.916016"/>
      <use xlink:href="#LiberationSans-73" x="144.53125"/>
      <use xlink:href="#LiberationSans-20" x="194.53125"/>
      <use xlink:href="#LiberationSans-4d" x="222.314453"/>
      <use xlink:href="#LiberationSans-61" x="305.615234"/>
      <use xlink:href="#LiberationSans-67" x="361.230469"/>
      <use xlink:href="#LiberationSans-6e" x="416.845703"/>
      <use xlink:href="#LiberationSans-69" x="472.460938"/>
      <use xlink:href="#LiberationSans-74" x="494.677734"/>
      <use xlink:href="#LiberationSans-75" x="522.460938"/>
      <use xlink:href="#LiberationSans-64" x="578.076172"/>
      <use xlink:href="#LiberationSans-65" x="633.691406"/>
     </g>
    </g>
   </g>
   <g id="LineCollection_1">
    <path d="M 69.781224 181.477564 
L 69.781224 177.279291 
" clip-path="url(#p2a4788bea1)" style="fill: none; stroke: #000000; stroke-width: 1.5"/>
    <path d="M 104.361177 156.258462 
L 104.361177 126.942382 
" clip-path="url(#p2a4788bea1)" style="fill: none; stroke: #000000; stroke-width: 1.5"/>
    <path d="M 138.941131 74.518453 
L 138.941131 48.69097 
" clip-path="url(#p2a4788bea1)" style="fill: none; stroke: #000000; stroke-width: 1.5"/>
    <path d="M 173.521084 68.151758 
L 173.521084 40.338796 
" clip-path="url(#p2a4788bea1)" style="fill: none; stroke: #000000; stroke-width: 1.5"/>
    <path d="M 208.101037 123.665366 
L 208.101037 89.159808 
" clip-path="url(#p2a4788bea1)" style="fill: none; stroke: #000000; stroke-width: 1.5"/>
    <path d="M 242.680991 163.776342 
L 242.680991 138.681196 
" clip-path="url(#p2a4788bea1)" style="fill: none; stroke: #000000; stroke-width: 1.5"/>
    <path d="M 277.260944 181.585181 
L 277.260944 172.413583 
" clip-path="url(#p2a4788bea1)" style="fill: none; stroke: #000000; stroke-width: 1.5"/>
    <path d="M 311.840897 186.819363 
L 311.840897 178.186019 
" clip-path="url(#p2a4788bea1)" style="fill: none; stroke: #000000; stroke-width: 1.5"/>
    <path d="M 346.420851 189.868479 
L 346.420851 183.615229 
" clip-path="url(#p2a4788bea1)" style="fill: none; stroke: #000000; stroke-width: 1.5"/>
    <path d="M 381.000804 188.770931 
L 381.000804 185.430203 
" clip-path="url(#p2a4788bea1)" style="fill: none; stroke: #000000; stroke-width: 1.5"/>
   </g>
   <g id="line2d_19">
    <defs>
     <path id="md1fd2b2de5" d="M 2 0 
L -2 -0 
" style="stroke: #000000"/>
    </defs>
    <g clip-path="url(#p2a4788bea1)">
     <use xlink:href="#md1fd2b2de5" x="69.781224" y="181.477564" style="stroke: #000000"/>
     <use xlink:href="#md1fd2b2de5" x="104.361177" y="156.258462" style="stroke: #000000"/>
     <use xlink:href="#md1fd2b2de5" x="138.941131" y="74.518453" style="stroke: #000000"/>
     <use xlink:href="#md1fd2b2de5" x="173.521084" y="68.151758" style="stroke: #000000"/>
     <use xlink:href="#md1fd2b2de5" x="208.101037" y="123.665366" style="stroke: #000000"/>
     <use xlink:href="#md1fd2b2de5" x="242.680991" y="163.776342" style="stroke: #000000"/>
     <use xlink:href="#md1fd2b2de5" x="277.260944" y="181.585181" style="stroke: #000000"/>
     <use xlink:href="#md1fd2b2de5" x="311.840897" y="186.819363" style="stroke: #000000"/>
     <use xlink:href="#md1fd2b2de5" x="346.420851" y="189.868479" style="stroke: #000000"/>
     <use xlink:href="#md1fd2b2de5" x="381.000804" y="188.770931" style="stroke: #000000"/>
    </g>
   </g>
   <g id="line2d_20">
    <g clip-path="url(#p2a4788bea1)">
     <use xlink:href="#md1fd2b2de5" x="69.781224" y="177.279291" style="stroke: #000000"/>
     <use xlink:href="#md1fd2b2de5" x="104.361177" y="126.942382" style="stroke: #000000"/>
     <use xlink:href="#md1fd2b2de5" x="138.941131" y="48.69097" style="stroke: #000000"/>
     <use xlink:href="#md1fd2b2de5" x="173.521084" y="40.338796" style="stroke: #000000"/>
     <use xlink:href="#md1fd2b2de5" x="208.101037" y="89.159808" style="stroke: #000000"/>
     <use xlink:href="#md1fd2b2de5" x="242.680991" y="138.681196" style="stroke: #000000"/>
     <use xlink:href="#md1fd2b2de5" x="277.260944" y="172.413583" style="stroke: #000000"/>
     <use xlink:href="#md1fd2b2de5" x="311.840897" y="178.186019" style="stroke: #000000"/>
     <use xlink:href="#md1fd2b2de5" x="346.420851" y="183.615229" style="stroke: #000000"/>
     <use xlink:href="#md1fd2b2de5" x="381.000804" y="185.430203" style="stroke: #000000"/>
    </g>
   </g>
   <g id="LineCollection_2">
    <path d="M 74.968217 182.592906 
L 74.968217 178.496262 
" clip-path="url(#p2a4788bea1)" style="fill: none; stroke: #000000; stroke-width: 1.5"/>
    <path d="M 109.54817 162.5486 
L 109.54817 142.343143 
" clip-path="url(#p2a4788bea1)" style="fill: none; stroke: #000000; stroke-width: 1.5"/>
    <path d="M 144.128124 83.422815 
L 144.128124 68.110896 
" clip-path="url(#p2a4788bea1)" style="fill: none; stroke: #000000; stroke-width: 1.5"/>
    <path d="M 178.708077 99.883323 
L 178.708077 73.315034 
" clip-path="url(#p2a4788bea1)" style="fill: none; stroke: #000000; stroke-width: 1.5"/>
    <path d="M 213.28803 150.513593 
L 213.28803 123.074606 
" clip-path="url(#p2a4788bea1)" style="fill: none; stroke: #000000; stroke-width: 1.5"/>
    <path d="M 247.867984 171.300248 
L 247.867984 153.320211 
" clip-path="url(#p2a4788bea1)" style="fill: none; stroke: #000000; stroke-width: 1.5"/>
    <path d="M 282.447937 185.396002 
L 282.447937 175.800812 
" clip-path="url(#p2a4788bea1)" style="fill: none; stroke: #000000; stroke-width: 1.5"/>
    <path d="M 317.02789 185.838613 
L 317.02789 180.500343 
" clip-path="url(#p2a4788bea1)" style="fill: none; stroke: #000000; stroke-width: 1.5"/>
    <path d="M 351.607844 191.002994 
L 351.607844 183.82628 
" clip-path="url(#p2a4788bea1)" style="fill: none; stroke: #000000; stroke-width: 1.5"/>
    <path d="M 386.187797 187.348397 
L 386.187797 184.503513 
" clip-path="url(#p2a4788bea1)" style="fill: none; stroke: #000000; stroke-width: 1.5"/>
   </g>
   <g id="line2d_21">
    <g clip-path="url(#p2a4788bea1)">
     <use xlink:href="#md1fd2b2de5" x="74.968217" y="182.592906" style="stroke: #000000"/>
     <use xlink:href="#md1fd2b2de5" x="109.54817" y="162.5486" style="stroke: #000000"/>
     <use xlink:href="#md1fd2b2de5" x="144.128124" y="83.422815" style="stroke: #000000"/>
     <use xlink:href="#md1fd2b2de5" x="178.708077" y="99.883323" style="stroke: #000000"/>
     <use xlink:href="#md1fd2b2de5" x="213.28803" y="150.513593" style="stroke: #000000"/>
     <use xlink:href="#md1fd2b2de5" x="247.867984" y="171.300248" style="stroke: #000000"/>
     <use xlink:href="#md1fd2b2de5" x="282.447937" y="185.396002" style="stroke: #000000"/>
     <use xlink:href="#md1fd2b2de5" x="317.02789" y="185.838613" style="stroke: #000000"/>
     <use xlink:href="#md1fd2b2de5" x="351.607844" y="191.002994" style="stroke: #000000"/>
     <use xlink:href="#md1fd2b2de5" x="386.187797" y="187.348397" style="stroke: #000000"/>
    </g>
   </g>
   <g id="line2d_22">
    <g clip-path="url(#p2a4788bea1)">
     <use xlink:href="#md1fd2b2de5" x="74.968217" y="178.496262" style="stroke: #000000"/>
     <use xlink:href="#md1fd2b2de5" x="109.54817" y="142.343143" style="stroke: #000000"/>
     <use xlink:href="#md1fd2b2de5" x="144.128124" y="68.110896" style="stroke: #000000"/>
     <use xlink:href="#md1fd2b2de5" x="178.708077" y="73.315034" style="stroke: #000000"/>
     <use xlink:href="#md1fd2b2de5" x="213.28803" y="123.074606" style="stroke: #000000"/>
     <use xlink:href="#md1fd2b2de5" x="247.867984" y="153.320211" style="stroke: #000000"/>
     <use xlink:href="#md1fd2b2de5" x="282.447937" y="175.800812" style="stroke: #000000"/>
     <use xlink:href="#md1fd2b2de5" x="317.02789" y="180.500343" style="stroke: #000000"/>
     <use xlink:href="#md1fd2b2de5" x="351.607844" y="183.82628" style="stroke: #000000"/>
     <use xlink:href="#md1fd2b2de5" x="386.187797" y="184.503513" style="stroke: #000000"/>
    </g>
   </g>
   <g id="LineCollection_3">
    <path d="M 80.15521 180.330272 
L 80.15521 176.331033 
" clip-path="url(#p2a4788bea1)" style="fill: none; stroke: #000000; stroke-width: 1.5"/>
    <path d="M 114.735163 153.432579 
L 114.735163 128.351055 
" clip-path="url(#p2a4788bea1)" style="fill: none; stroke: #000000; stroke-width: 1.5"/>
    <path d="M 149.315117 66.042312 
L 149.315117 44.583359 
" clip-path="url(#p2a4788bea1)" style="fill: none; stroke: #000000; stroke-width: 1.5"/>
    <path d="M 183.89507 72.145602 
L 183.89507 35.133575 
" clip-path="url(#p2a4788bea1)" style="fill: none; stroke: #000000; stroke-width: 1.5"/>
    <path d="M 218.475023 130.343733 
L 218.475023 80.373241 
" clip-path="url(#p2a4788bea1)" style="fill: none; stroke: #000000; stroke-width: 1.5"/>
    <path d="M 253.054977 168.552262 
L 253.054977 142.504635 
" clip-path="url(#p2a4788bea1)" style="fill: none; stroke: #000000; stroke-width: 1.5"/>
    <path d="M 287.63493 183.616977 
L 287.63493 173.318387 
" clip-path="url(#p2a4788bea1)" style="fill: none; stroke: #000000; stroke-width: 1.5"/>
    <path d="M 322.214883 185.745685 
L 322.214883 177.357045 
" clip-path="url(#p2a4788bea1)" style="fill: none; stroke: #000000; stroke-width: 1.5"/>
    <path d="M 356.794837 189.716044 
L 356.794837 184.453297 
" clip-path="url(#p2a4788bea1)" style="fill: none; stroke: #000000; stroke-width: 1.5"/>
    <path d="M 391.37479 188.866752 
L 391.37479 185.196911 
" clip-path="url(#p2a4788bea1)" style="fill: none; stroke: #000000; stroke-width: 1.5"/>
   </g>
   <g id="line2d_23">
    <g clip-path="url(#p2a4788bea1)">
     <use xlink:href="#md1fd2b2de5" x="80.15521" y="180.330272" style="stroke: #000000"/>
     <use xlink:href="#md1fd2b2de5" x="114.735163" y="153.432579" style="stroke: #000000"/>
     <use xlink:href="#md1fd2b2de5" x="149.315117" y="66.042312" style="stroke: #000000"/>
     <use xlink:href="#md1fd2b2de5" x="183.89507" y="72.145602" style="stroke: #000000"/>
     <use xlink:href="#md1fd2b2de5" x="218.475023" y="130.343733" style="stroke: #000000"/>
     <use xlink:href="#md1fd2b2de5" x="253.054977" y="168.552262" style="stroke: #000000"/>
     <use xlink:href="#md1fd2b2de5" x="287.63493" y="183.616977" style="stroke: #000000"/>
     <use xlink:href="#md1fd2b2de5" x="322.214883" y="185.745685" style="stroke: #000000"/>
     <use xlink:href="#md1fd2b2de5" x="356.794837" y="189.716044" style="stroke: #000000"/>
     <use xlink:href="#md1fd2b2de5" x="391.37479" y="188.866752" style="stroke: #000000"/>
    </g>
   </g>
   <g id="line2d_24">
    <g clip-path="url(#p2a4788bea1)">
     <use xlink:href="#md1fd2b2de5" x="80.15521" y="176.331033" style="stroke: #000000"/>
     <use xlink:href="#md1fd2b2de5" x="114.735163" y="128.351055" style="stroke: #000000"/>
     <use xlink:href="#md1fd2b2de5" x="149.315117" y="44.583359" style="stroke: #000000"/>
     <use xlink:href="#md1fd2b2de5" x="183.89507" y="35.133575" style="stroke: #000000"/>
     <use xlink:href="#md1fd2b2de5" x="218.475023" y="80.373241" style="stroke: #000000"/>
     <use xlink:href="#md1fd2b2de5" x="253.054977" y="142.504635" style="stroke: #000000"/>
     <use xlink:href="#md1fd2b2de5" x="287.63493" y="173.318387" style="stroke: #000000"/>
     <use xlink:href="#md1fd2b2de5" x="322.214883" y="177.357045" style="stroke: #000000"/>
     <use xlink:href="#md1fd2b2de5" x="356.794837" y="184.453297" style="stroke: #000000"/>
     <use xlink:href="#md1fd2b2de5" x="391.37479" y="185.196911" style="stroke: #000000"/>
    </g>
   </g>
   <g id="LineCollection_4">
    <path d="M 85.342203 182.519048 
L 85.342203 178.888238 
" clip-path="url(#p2a4788bea1)" style="fill: none; stroke: #000000; stroke-width: 1.5"/>
    <path d="M 119.922156 151.50526 
L 119.922156 128.368575 
" clip-path="url(#p2a4788bea1)" style="fill: none; stroke: #000000; stroke-width: 1.5"/>
    <path d="M 154.50211 81.695201 
L 154.50211 58.977345 
" clip-path="url(#p2a4788bea1)" style="fill: none; stroke: #000000; stroke-width: 1.5"/>
    <path d="M 189.082063 97.079146 
L 189.082063 75.336358 
" clip-path="url(#p2a4788bea1)" style="fill: none; stroke: #000000; stroke-width: 1.5"/>
    <path d="M 223.662016 152.323358 
L 223.662016 121.291861 
" clip-path="url(#p2a4788bea1)" style="fill: none; stroke: #000000; stroke-width: 1.5"/>
    <path d="M 258.24197 175.121058 
L 258.24197 154.817733 
" clip-path="url(#p2a4788bea1)" style="fill: none; stroke: #000000; stroke-width: 1.5"/>
    <path d="M 292.821923 185.935779 
L 292.821923 178.241268 
" clip-path="url(#p2a4788bea1)" style="fill: none; stroke: #000000; stroke-width: 1.5"/>
    <path d="M 327.401876 186.919295 
L 327.401876 180.636943 
" clip-path="url(#p2a4788bea1)" style="fill: none; stroke: #000000; stroke-width: 1.5"/>
    <path d="M 361.98183 189.60327 
L 361.98183 183.109207 
" clip-path="url(#p2a4788bea1)" style="fill: none; stroke: #000000; stroke-width: 1.5"/>
    <path d="M 396.561783 189.905752 
L 396.561783 184.923285 
" clip-path="url(#p2a4788bea1)" style="fill: none; stroke: #000000; stroke-width: 1.5"/>
   </g>
   <g id="line2d_25">
    <g clip-path="url(#p2a4788bea1)">
     <use xlink:href="#md1fd2b2de5" x="85.342203" y="182.519048" style="stroke: #000000"/>
     <use xlink:href="#md1fd2b2de5" x="119.922156" y="151.50526" style="stroke: #000000"/>
     <use xlink:href="#md1fd2b2de5" x="154.50211" y="81.695201" style="stroke: #000000"/>
     <use xlink:href="#md1fd2b2de5" x="189.082063" y="97.079146" style="stroke: #000000"/>
     <use xlink:href="#md1fd2b2de5" x="223.662016" y="152.323358" style="stroke: #000000"/>
     <use xlink:href="#md1fd2b2de5" x="258.24197" y="175.121058" style="stroke: #000000"/>
     <use xlink:href="#md1fd2b2de5" x="292.821923" y="185.935779" style="stroke: #000000"/>
     <use xlink:href="#md1fd2b2de5" x="327.401876" y="186.919295" style="stroke: #000000"/>
     <use xlink:href="#md1fd2b2de5" x="361.98183" y="189.60327" style="stroke: #000000"/>
     <use xlink:href="#md1fd2b2de5" x="396.561783" y="189.905752" style="stroke: #000000"/>
    </g>
   </g>
   <g id="line2d_26">
    <g clip-path="url(#p2a4788bea1)">
     <use xlink:href="#md1fd2b2de5" x="85.342203" y="178.888238" style="stroke: #000000"/>
     <use xlink:href="#md1fd2b2de5" x="119.922156" y="128.368575" style="stroke: #000000"/>
     <use xlink:href="#md1fd2b2de5" x="154.50211" y="58.977345" style="stroke: #000000"/>
     <use xlink:href="#md1fd2b2de5" x="189.082063" y="75.336358" style="stroke: #000000"/>
     <use xlink:href="#md1fd2b2de5" x="223.662016" y="121.291861" style="stroke: #000000"/>
     <use xlink:href="#md1fd2b2de5" x="258.24197" y="154.817733" style="stroke: #000000"/>
     <use xlink:href="#md1fd2b2de5" x="292.821923" y="178.241268" style="stroke: #000000"/>
     <use xlink:href="#md1fd2b2de5" x="327.401876" y="180.636943" style="stroke: #000000"/>
     <use xlink:href="#md1fd2b2de5" x="361.98183" y="183.109207" style="stroke: #000000"/>
     <use xlink:href="#md1fd2b2de5" x="396.561783" y="184.923285" style="stroke: #000000"/>
    </g>
   </g>
   <g id="LineCollection_5">
    <path d="M 90.529196 184.95259 
L 90.529196 181.176806 
" clip-path="url(#p2a4788bea1)" style="fill: none; stroke: #000000; stroke-width: 1.5"/>
    <path d="M 125.109149 163.985702 
L 125.109149 150.501333 
" clip-path="url(#p2a4788bea1)" style="fill: none; stroke: #000000; stroke-width: 1.5"/>
    <path d="M 159.689103 82.595118 
L 159.689103 50.32887 
" clip-path="url(#p2a4788bea1)" style="fill: none; stroke: #000000; stroke-width: 1.5"/>
    <path d="M 194.269056 50.136587 
L 194.269056 20.013333 
" clip-path="url(#p2a4788bea1)" style="fill: none; stroke: #000000; stroke-width: 1.5"/>
    <path d="M 228.849009 99.632864 
L 228.849009 48.880843 
" clip-path="url(#p2a4788bea1)" style="fill: none; stroke: #000000; stroke-width: 1.5"/>
    <path d="M 263.428963 164.374137 
L 263.428963 112.138437 
" clip-path="url(#p2a4788bea1)" style="fill: none; stroke: #000000; stroke-width: 1.5"/>
    <path d="M 298.008916 186.402553 
L 298.008916 154.419248 
" clip-path="url(#p2a4788bea1)" style="fill: none; stroke: #000000; stroke-width: 1.5"/>
    <path d="M 332.588869 188.326866 
L 332.588869 165.418105 
" clip-path="url(#p2a4788bea1)" style="fill: none; stroke: #000000; stroke-width: 1.5"/>
    <path d="M 367.168823 190.171322 
L 367.168823 176.100752 
" clip-path="url(#p2a4788bea1)" style="fill: none; stroke: #000000; stroke-width: 1.5"/>
    <path d="M 401.748776 189.620591 
L 401.748776 181.238251 
" clip-path="url(#p2a4788bea1)" style="fill: none; stroke: #000000; stroke-width: 1.5"/>
   </g>
   <g id="line2d_27">
    <g clip-path="url(#p2a4788bea1)">
     <use xlink:href="#md1fd2b2de5" x="90.529196" y="184.95259" style="stroke: #000000"/>
     <use xlink:href="#md1fd2b2de5" x="125.109149" y="163.985702" style="stroke: #000000"/>
     <use xlink:href="#md1fd2b2de5" x="159.689103" y="82.595118" style="stroke: #000000"/>
     <use xlink:href="#md1fd2b2de5" x="194.269056" y="50.136587" style="stroke: #000000"/>
     <use xlink:href="#md1fd2b2de5" x="228.849009" y="99.632864" style="stroke: #000000"/>
     <use xlink:href="#md1fd2b2de5" x="263.428963" y="164.374137" style="stroke: #000000"/>
     <use xlink:href="#md1fd2b2de5" x="298.008916" y="186.402553" style="stroke: #000000"/>
     <use xlink:href="#md1fd2b2de5" x="332.588869" y="188.326866" style="stroke: #000000"/>
     <use xlink:href="#md1fd2b2de5" x="367.168823" y="190.171322" style="stroke: #000000"/>
     <use xlink:href="#md1fd2b2de5" x="401.748776" y="189.620591" style="stroke: #000000"/>
    </g>
   </g>
   <g id="line2d_28">
    <g clip-path="url(#p2a4788bea1)">
     <use xlink:href="#md1fd2b2de5" x="90.529196" y="181.176806" style="stroke: #000000"/>
     <use xlink:href="#md1fd2b2de5" x="125.109149" y="150.501333" style="stroke: #000000"/>
     <use xlink:href="#md1fd2b2de5" x="159.689103" y="50.32887" style="stroke: #000000"/>
     <use xlink:href="#md1fd2b2de5" x="194.269056" y="20.013333" style="stroke: #000000"/>
     <use xlink:href="#md1fd2b2de5" x="228.849009" y="48.880843" style="stroke: #000000"/>
     <use xlink:href="#md1fd2b2de5" x="263.428963" y="112.138437" style="stroke: #000000"/>
     <use xlink:href="#md1fd2b2de5" x="298.008916" y="154.419248" style="stroke: #000000"/>
     <use xlink:href="#md1fd2b2de5" x="332.588869" y="165.418105" style="stroke: #000000"/>
     <use xlink:href="#md1fd2b2de5" x="367.168823" y="176.100752" style="stroke: #000000"/>
     <use xlink:href="#md1fd2b2de5" x="401.748776" y="181.238251" style="stroke: #000000"/>
    </g>
   </g>
   <g id="line2d_29"/>
   <g id="line2d_30"/>
   <g id="line2d_31"/>
   <g id="line2d_32"/>
   <g id="line2d_33"/>
   <g id="patch_53">
    <path d="M 50.33 204.28 
L 50.33 10.8 
" style="fill: none; stroke: #000000; stroke-width: 1.5; stroke-linejoin: miter; stroke-linecap: square"/>
   </g>
   <g id="patch_54">
    <path d="M 50.33 204.28 
L 421.2 204.28 
" style="fill: none; stroke: #000000; stroke-width: 1.5; stroke-linejoin: miter; stroke-linecap: square"/>
   </g>
   <g id="legend_1">
    <g id="patch_55">
     <path d="M 317.045625 106.33125 
L 412.8 106.33125 
Q 415.2 106.33125 415.2 103.93125 
L 415.2 19.2 
Q 415.2 16.8 412.8 16.8 
L 317.045625 16.8 
Q 314.645625 16.8 314.645625 19.2 
L 314.645625 103.93125 
Q 314.645625 106.33125 317.045625 106.33125 
z
" style="fill: #ffffff; opacity: 0.8; stroke: #cccccc; stroke-linejoin: miter"/>
    </g>
    <g id="patch_56">
     <path d="M 319.445625 30.29625 
L 343.445625 30.29625 
L 343.445625 21.89625 
L 319.445625 21.89625 
z
" style="fill: #c0d9ff"/>
    </g>
    <g id="text_21">
     <!-- Parity -->
     <g transform="translate(353.045625 30.29625) scale(0.12 -0.12)">
      <defs>
       <path id="LiberationSans-50" d="M 3931 3078 
Q 3931 2453 3523 2084 
Q 3116 1716 2416 1716 
L 1122 1716 
L 1122 0 
L 525 0 
L 525 4403 
L 2378 4403 
Q 3119 4403 3525 4056 
Q 3931 3709 3931 3078 
z
M 3331 3072 
Q 3331 3925 2306 3925 
L 1122 3925 
L 1122 2188 
L 2331 2188 
Q 3331 2188 3331 3072 
z
" transform="scale(0.015625)"/>
      </defs>
      <use xlink:href="#LiberationSans-50"/>
      <use xlink:href="#LiberationSans-61" x="66.699219"/>
      <use xlink:href="#LiberationSans-72" x="122.314453"/>
      <use xlink:href="#LiberationSans-69" x="155.615234"/>
      <use xlink:href="#LiberationSans-74" x="177.832031"/>
      <use xlink:href="#LiberationSans-79" x="205.615234"/>
     </g>
    </g>
    <g id="patch_57">
     <path d="M 319.445625 47.4825 
L 343.445625 47.4825 
L 343.445625 39.0825 
L 319.445625 39.0825 
z
" style="fill: #bfc1ff"/>
    </g>
    <g id="text_22">
     <!-- Value -->
     <g transform="translate(353.045625 47.4825) scale(0.12 -0.12)">
      <defs>
       <path id="LiberationSans-56" d="M 2444 0 
L 1825 0 
L 28 4403 
L 656 4403 
L 1875 1303 
L 2138 525 
L 2400 1303 
L 3613 4403 
L 4241 4403 
L 2444 0 
z
" transform="scale(0.015625)"/>
       <path id="LiberationSans-6c" d="M 431 0 
L 431 4638 
L 994 4638 
L 994 0 
L 431 0 
z
" transform="scale(0.015625)"/>
      </defs>
      <use xlink:href="#LiberationSans-56"/>
      <use xlink:href="#LiberationSans-61" x="59.324219"/>
      <use xlink:href="#LiberationSans-6c" x="114.939453"/>
      <use xlink:href="#LiberationSans-75" x="137.15625"/>
      <use xlink:href="#LiberationSans-65" x="192.771484"/>
     </g>
    </g>
    <g id="patch_58">
     <path d="M 319.445625 64.66875 
L 343.445625 64.66875 
L 343.445625 56.26875 
L 319.445625 56.26875 
z
" style="fill: #e3bfff"/>
    </g>
    <g id="text_23">
     <!-- Prime -->
     <g transform="translate(353.045625 64.66875) scale(0.12 -0.12)">
      <defs>
       <path id="LiberationSans-6d" d="M 2400 0 
L 2400 2144 
Q 2400 2634 2265 2821 
Q 2131 3009 1781 3009 
Q 1422 3009 1212 2734 
Q 1003 2459 1003 1959 
L 1003 0 
L 444 0 
L 444 2659 
Q 444 3250 425 3381 
L 956 3381 
Q 959 3366 962 3297 
Q 966 3228 970 3139 
Q 975 3050 981 2803 
L 991 2803 
Q 1172 3163 1406 3303 
Q 1641 3444 1978 3444 
Q 2363 3444 2586 3291 
Q 2809 3138 2897 2803 
L 2906 2803 
Q 3081 3144 3329 3294 
Q 3578 3444 3931 3444 
Q 4444 3444 4676 3166 
Q 4909 2888 4909 2253 
L 4909 0 
L 4353 0 
L 4353 2144 
Q 4353 2634 4218 2821 
Q 4084 3009 3734 3009 
Q 3366 3009 3161 2736 
Q 2956 2463 2956 1959 
L 2956 0 
L 2400 0 
z
" transform="scale(0.015625)"/>
      </defs>
      <use xlink:href="#LiberationSans-50"/>
      <use xlink:href="#LiberationSans-72" x="66.699219"/>
      <use xlink:href="#LiberationSans-69" x="100"/>
      <use xlink:href="#LiberationSans-6d" x="122.216797"/>
      <use xlink:href="#LiberationSans-65" x="205.517578"/>
     </g>
    </g>
    <g id="patch_59">
     <path d="M 319.445625 81.855 
L 343.445625 81.855 
L 343.445625 73.455 
L 319.445625 73.455 
z
" style="fill: #ffbfe6"/>
    </g>
    <g id="text_24">
     <!-- Fibonacci -->
     <g transform="translate(353.045625 81.855) scale(0.12 -0.12)">
      <defs>
       <path id="LiberationSans-46" d="M 1122 3916 
L 1122 2278 
L 3578 2278 
L 3578 1784 
L 1122 1784 
L 1122 0 
L 525 0 
L 525 4403 
L 3653 4403 
L 3653 3916 
L 1122 3916 
z
" transform="scale(0.015625)"/>
       <path id="LiberationSans-62" d="M 3291 1706 
Q 3291 -63 2047 -63 
Q 1663 -63 1408 76 
Q 1153 216 994 525 
L 988 525 
Q 988 428 975 229 
Q 963 31 956 0 
L 413 0 
Q 431 169 431 697 
L 431 4638 
L 994 4638 
L 994 3316 
Q 994 3113 981 2838 
L 994 2838 
Q 1150 3163 1408 3303 
Q 1666 3444 2047 3444 
Q 2688 3444 2989 3012 
Q 3291 2581 3291 1706 
z
M 2700 1688 
Q 2700 2397 2512 2703 
Q 2325 3009 1903 3009 
Q 1428 3009 1211 2684 
Q 994 2359 994 1653 
Q 994 988 1206 670 
Q 1419 353 1897 353 
Q 2322 353 2511 667 
Q 2700 981 2700 1688 
z
" transform="scale(0.015625)"/>
       <path id="LiberationSans-6f" d="M 3291 1694 
Q 3291 806 2900 371 
Q 2509 -63 1766 -63 
Q 1025 -63 647 389 
Q 269 841 269 1694 
Q 269 3444 1784 3444 
Q 2559 3444 2925 3017 
Q 3291 2591 3291 1694 
z
M 2700 1694 
Q 2700 2394 2492 2711 
Q 2284 3028 1794 3028 
Q 1300 3028 1079 2704 
Q 859 2381 859 1694 
Q 859 1025 1076 689 
Q 1294 353 1759 353 
Q 2266 353 2483 678 
Q 2700 1003 2700 1694 
z
" transform="scale(0.015625)"/>
       <path id="LiberationSans-63" d="M 859 1706 
Q 859 1031 1071 706 
Q 1284 381 1713 381 
Q 2013 381 2214 543 
Q 2416 706 2463 1044 
L 3031 1006 
Q 2966 519 2616 228 
Q 2266 -63 1728 -63 
Q 1019 -63 645 385 
Q 272 834 272 1694 
Q 272 2547 647 2995 
Q 1022 3444 1722 3444 
Q 2241 3444 2583 3175 
Q 2925 2906 3013 2434 
L 2434 2391 
Q 2391 2672 2212 2837 
Q 2034 3003 1706 3003 
Q 1259 3003 1059 2706 
Q 859 2409 859 1706 
z
" transform="scale(0.015625)"/>
      </defs>
      <use xlink:href="#LiberationSans-46"/>
      <use xlink:href="#LiberationSans-69" x="61.083984"/>
      <use xlink:href="#LiberationSans-62" x="83.300781"/>
      <use xlink:href="#LiberationSans-6f" x="138.916016"/>
      <use xlink:href="#LiberationSans-6e" x="194.53125"/>
      <use xlink:href="#LiberationSans-61" x="250.146484"/>
      <use xlink:href="#LiberationSans-63" x="305.761719"/>
      <use xlink:href="#LiberationSans-63" x="355.761719"/>
      <use xlink:href="#LiberationSans-69" x="405.761719"/>
     </g>
    </g>
    <g id="patch_60">
     <path d="M 319.445625 99.04125 
L 343.445625 99.04125 
L 343.445625 90.64125 
L 319.445625 90.64125 
z
" style="fill: #ffbfc4"/>
    </g>
    <g id="text_25">
     <!-- Multiples 3 -->
     <g transform="translate(353.045625 99.04125) scale(0.12 -0.12)">
      <defs>
       <path id="LiberationSans-70" d="M 3291 1706 
Q 3291 -63 2047 -63 
Q 1266 -63 997 525 
L 981 525 
Q 994 500 994 -6 
L 994 -1328 
L 431 -1328 
L 431 2691 
Q 431 3213 413 3381 
L 956 3381 
Q 959 3369 965 3292 
Q 972 3216 980 3056 
Q 988 2897 988 2838 
L 1000 2838 
Q 1150 3150 1397 3295 
Q 1644 3441 2047 3441 
Q 2672 3441 2981 3022 
Q 3291 2603 3291 1706 
z
M 2700 1694 
Q 2700 2400 2509 2703 
Q 2319 3006 1903 3006 
Q 1569 3006 1380 2865 
Q 1191 2725 1092 2426 
Q 994 2128 994 1650 
Q 994 984 1206 668 
Q 1419 353 1897 353 
Q 2316 353 2508 661 
Q 2700 969 2700 1694 
z
" transform="scale(0.015625)"/>
      </defs>
      <use xlink:href="#LiberationSans-4d"/>
      <use xlink:href="#LiberationSans-75" x="83.300781"/>
      <use xlink:href="#LiberationSans-6c" x="138.916016"/>
      <use xlink:href="#LiberationSans-74" x="161.132812"/>
      <use xlink:href="#LiberationSans-69" x="188.916016"/>
      <use xlink:href="#LiberationSans-70" x="211.132812"/>
      <use xlink:href="#LiberationSans-6c" x="266.748047"/>
      <use xlink:href="#LiberationSans-65" x="288.964844"/>
      <use xlink:href="#LiberationSans-73" x="344.580078"/>
      <use xlink:href="#LiberationSans-20" x="394.580078"/>
      <use xlink:href="#LiberationSans-33" x="422.363281"/>
     </g>
    </g>
   </g>
  </g>
 </g>
 <defs>
  <clipPath id="p2a4788bea1">
   <rect x="50.33" y="10.8" width="370.87" height="193.48"/>
  </clipPath>
 </defs>
</svg>
