<?xml version="1.0" encoding="utf-8" standalone="no"?>
<!DOCTYPE svg PUBLIC "-//W3C//DTD SVG 1.1//EN"
  "http://www.w3.org/Graphics/SVG/1.1/DTD/svg11.dtd">
<svg xmlns:xlink="http://www.w3.org/1999/xlink" width="432pt" height="288pt" viewBox="0 0 432 288" xmlns="http://www.w3.org/2000/svg" version="1.1">
 <metadata>
  <rdf:RDF xmlns:dc="http://purl.org/dc/elements/1.1/" xmlns:cc="http://creativecommons.org/ns#" xmlns:rdf="http://www.w3.org/1999/02/22-rdf-syntax-ns#">
   <cc:Work>
    <dc:type rdf:resource="http://purl.org/dc/dcmitype/StillImage"/>
    <dc:date>2024-01-19T16:35:54.358782</dc:date>
    <dc:format>image/svg+xml</dc:format>
    <dc:creator>
     <cc:Agent>
      <dc:title>Matplotlib v3.7.4, https://matplotlib.org/</dc:title>
     </cc:Agent>
    </dc:creator>
   </cc:Work>
  </rdf:RDF>
 </metadata>
 <defs>
  <style type="text/css">*{stroke-linejoin: round; stroke-linecap: butt}</style>
 </defs>
 <g id="figure_1">
  <g id="patch_1">
   <path d="M 0 288 
L 432 288 
L 432 0 
L 0 0 
L 0 288 
z
" style="fill: none"/>
  </g>
  <g id="axes_1">
   <g id="patch_2">
    <path d="M 43.67 240.28 
L 421.2 240.28 
L 421.2 15.12 
L 43.67 15.12 
L 43.67 240.28 
z
" style="fill: none"/>
   </g>
   <g id="patch_3">
    <path d="M 60.830455 240.28 
L 74.838989 240.28 
L 74.838989 172.165323 
L 60.830455 172.165323 
z
" clip-path="url(#p03e912ec19)" style="fill: #afc6e9"/>
   </g>
   <g id="patch_4">
    <path d="M 95.85179 240.28 
L 109.860325 240.28 
L 109.860325 125.986406 
L 95.85179 125.986406 
z
" clip-path="url(#p03e912ec19)" style="fill: #afc6e9"/>
   </g>
   <g id="patch_5">
    <path d="M 130.873126 240.28 
L 144.88166 240.28 
L 144.88166 63.435186 
L 130.873126 63.435186 
z
" clip-path="url(#p03e912ec19)" style="fill: #afc6e9"/>
   </g>
   <g id="patch_6">
    <path d="M 165.894462 240.28 
L 179.902996 240.28 
L 179.902996 52.045198 
L 165.894462 52.045198 
z
" clip-path="url(#p03e912ec19)" style="fill: #afc6e9"/>
   </g>
   <g id="patch_7">
    <path d="M 200.915798 240.28 
L 214.924332 240.28 
L 214.924332 129.865513 
L 200.915798 129.865513 
z
" clip-path="url(#p03e912ec19)" style="fill: #afc6e9"/>
   </g>
   <g id="patch_8">
    <path d="M 235.937134 240.28 
L 249.945668 240.28 
L 249.945668 199.902062 
L 235.937134 199.902062 
z
" clip-path="url(#p03e912ec19)" style="fill: #afc6e9"/>
   </g>
   <g id="patch_9">
    <path d="M 270.958469 240.28 
L 284.967004 240.28 
L 284.967004 207.3575 
L 270.958469 207.3575 
z
" clip-path="url(#p03e912ec19)" style="fill: #afc6e9"/>
   </g>
   <g id="patch_10">
    <path d="M 305.979805 240.28 
L 319.98834 240.28 
L 319.98834 211.607778 
L 305.979805 211.607778 
z
" clip-path="url(#p03e912ec19)" style="fill: #afc6e9"/>
   </g>
   <g id="patch_11">
    <path d="M 341.001141 240.28 
L 355.009675 240.28 
L 355.009675 213.73716 
L 341.001141 213.73716 
z
" clip-path="url(#p03e912ec19)" style="fill: #afc6e9"/>
   </g>
   <g id="patch_12">
    <path d="M 376.022477 240.28 
L 390.031011 240.28 
L 390.031011 204.955255 
L 376.022477 204.955255 
z
" clip-path="url(#p03e912ec19)" style="fill: #afc6e9"/>
   </g>
   <g id="patch_13">
    <path d="M 74.838989 240.28 
L 88.847523 240.28 
L 88.847523 177.057272 
L 74.838989 177.057272 
z
" clip-path="url(#p03e912ec19)" style="fill: #e9afaf"/>
   </g>
   <g id="patch_14">
    <path d="M 109.860325 240.28 
L 123.868859 240.28 
L 123.868859 135.268579 
L 109.860325 135.268579 
z
" clip-path="url(#p03e912ec19)" style="fill: #e9afaf"/>
   </g>
   <g id="patch_15">
    <path d="M 144.88166 240.28 
L 158.890195 240.28 
L 158.890195 59.972722 
L 144.88166 59.972722 
z
" clip-path="url(#p03e912ec19)" style="fill: #e9afaf"/>
   </g>
   <g id="patch_16">
    <path d="M 179.902996 240.28 
L 193.911531 240.28 
L 193.911531 48.64215 
L 179.902996 48.64215 
z
" clip-path="url(#p03e912ec19)" style="fill: #e9afaf"/>
   </g>
   <g id="patch_17">
    <path d="M 214.924332 240.28 
L 228.932866 240.28 
L 228.932866 129.957519 
L 214.924332 129.957519 
z
" clip-path="url(#p03e912ec19)" style="fill: #e9afaf"/>
   </g>
   <g id="patch_18">
    <path d="M 249.945668 240.28 
L 263.954202 240.28 
L 263.954202 199.207816 
L 249.945668 199.207816 
z
" clip-path="url(#p03e912ec19)" style="fill: #e9afaf"/>
   </g>
   <g id="patch_19">
    <path d="M 284.967004 240.28 
L 298.975538 240.28 
L 298.975538 207.125897 
L 284.967004 207.125897 
z
" clip-path="url(#p03e912ec19)" style="fill: #e9afaf"/>
   </g>
   <g id="patch_20">
    <path d="M 319.98834 240.28 
L 333.996874 240.28 
L 333.996874 211.945766 
L 319.98834 211.945766 
z
" clip-path="url(#p03e912ec19)" style="fill: #e9afaf"/>
   </g>
   <g id="patch_21">
    <path d="M 355.009675 240.28 
L 369.01821 240.28 
L 369.01821 211.607921 
L 355.009675 211.607921 
z
" clip-path="url(#p03e912ec19)" style="fill: #e9afaf"/>
   </g>
   <g id="patch_22">
    <path d="M 390.031011 240.28 
L 404.039545 240.28 
L 404.039545 198.808139 
L 390.031011 198.808139 
z
" clip-path="url(#p03e912ec19)" style="fill: #e9afaf"/>
   </g>
   <g id="matplotlib.axis_1">
    <g id="xtick_1">
     <g id="line2d_1">
      <defs>
       <path id="m6b152820de" d="M 0 0 
L 0 3.5 
" style="stroke: #000000; stroke-width: 1.5"/>
      </defs>
      <g>
       <use xlink:href="#m6b152820de" x="74.838989" y="240.28" style="stroke: #000000; stroke-width: 1.5"/>
      </g>
     </g>
     <g id="text_1">
      <!-- 1 -->
      <g transform="translate(71.502426 255.97625) scale(0.12 -0.12)">
       <defs>
        <path id="LiberationSans-31" d="M 488 0 
L 488 478 
L 1609 478 
L 1609 3866 
L 616 3156 
L 616 3688 
L 1656 4403 
L 2175 4403 
L 2175 478 
L 3247 478 
L 3247 0 
L 488 0 
z
" transform="scale(0.015625)"/>
       </defs>
       <use xlink:href="#LiberationSans-31"/>
      </g>
     </g>
    </g>
    <g id="xtick_2">
     <g id="line2d_2">
      <g>
       <use xlink:href="#m6b152820de" x="109.860325" y="240.28" style="stroke: #000000; stroke-width: 1.5"/>
      </g>
     </g>
     <g id="text_2">
      <!-- 2 -->
      <g transform="translate(106.523762 255.97625) scale(0.12 -0.12)">
       <defs>
        <path id="LiberationSans-32" d="M 322 0 
L 322 397 
Q 481 763 711 1042 
Q 941 1322 1194 1548 
Q 1447 1775 1695 1969 
Q 1944 2163 2144 2356 
Q 2344 2550 2467 2762 
Q 2591 2975 2591 3244 
Q 2591 3606 2378 3806 
Q 2166 4006 1788 4006 
Q 1428 4006 1195 3811 
Q 963 3616 922 3263 
L 347 3316 
Q 409 3844 795 4156 
Q 1181 4469 1788 4469 
Q 2453 4469 2811 4155 
Q 3169 3841 3169 3263 
Q 3169 3006 3051 2753 
Q 2934 2500 2703 2247 
Q 2472 1994 1819 1463 
Q 1459 1169 1246 933 
Q 1034 697 941 478 
L 3238 478 
L 3238 0 
L 322 0 
z
" transform="scale(0.015625)"/>
       </defs>
       <use xlink:href="#LiberationSans-32"/>
      </g>
     </g>
    </g>
    <g id="xtick_3">
     <g id="line2d_3">
      <g>
       <use xlink:href="#m6b152820de" x="144.88166" y="240.28" style="stroke: #000000; stroke-width: 1.5"/>
      </g>
     </g>
     <g id="text_3">
      <!-- 3 -->
      <g transform="translate(141.545098 255.97625) scale(0.12 -0.12)">
       <defs>
        <path id="LiberationSans-33" d="M 3278 1216 
Q 3278 606 2890 271 
Q 2503 -63 1784 -63 
Q 1116 -63 717 239 
Q 319 541 244 1131 
L 825 1184 
Q 938 403 1784 403 
Q 2209 403 2451 612 
Q 2694 822 2694 1234 
Q 2694 1594 2417 1795 
Q 2141 1997 1619 1997 
L 1300 1997 
L 1300 2484 
L 1606 2484 
Q 2069 2484 2323 2686 
Q 2578 2888 2578 3244 
Q 2578 3597 2370 3801 
Q 2163 4006 1753 4006 
Q 1381 4006 1151 3815 
Q 922 3625 884 3278 
L 319 3322 
Q 381 3863 767 4166 
Q 1153 4469 1759 4469 
Q 2422 4469 2789 4161 
Q 3156 3853 3156 3303 
Q 3156 2881 2920 2617 
Q 2684 2353 2234 2259 
L 2234 2247 
Q 2728 2194 3003 1916 
Q 3278 1638 3278 1216 
z
" transform="scale(0.015625)"/>
       </defs>
       <use xlink:href="#LiberationSans-33"/>
      </g>
     </g>
    </g>
    <g id="xtick_4">
     <g id="line2d_4">
      <g>
       <use xlink:href="#m6b152820de" x="179.902996" y="240.28" style="stroke: #000000; stroke-width: 1.5"/>
      </g>
     </g>
     <g id="text_4">
      <!-- 4 -->
      <g transform="translate(176.566434 255.97625) scale(0.12 -0.12)">
       <defs>
        <path id="LiberationSans-34" d="M 2753 997 
L 2753 0 
L 2222 0 
L 2222 997 
L 147 997 
L 147 1434 
L 2163 4403 
L 2753 4403 
L 2753 1441 
L 3372 1441 
L 3372 997 
L 2753 997 
z
M 2222 3769 
Q 2216 3750 2134 3603 
Q 2053 3456 2013 3397 
L 884 1734 
L 716 1503 
L 666 1441 
L 2222 1441 
L 2222 3769 
z
" transform="scale(0.015625)"/>
       </defs>
       <use xlink:href="#LiberationSans-34"/>
      </g>
     </g>
    </g>
    <g id="xtick_5">
     <g id="line2d_5">
      <g>
       <use xlink:href="#m6b152820de" x="214.924332" y="240.28" style="stroke: #000000; stroke-width: 1.5"/>
      </g>
     </g>
     <g id="text_5">
      <!-- 5 -->
      <g transform="translate(211.58777 255.97625) scale(0.12 -0.12)">
       <defs>
        <path id="LiberationSans-35" d="M 3291 1434 
Q 3291 738 2877 337 
Q 2463 -63 1728 -63 
Q 1113 -63 734 206 
Q 356 475 256 984 
L 825 1050 
Q 1003 397 1741 397 
Q 2194 397 2450 670 
Q 2706 944 2706 1422 
Q 2706 1838 2448 2094 
Q 2191 2350 1753 2350 
Q 1525 2350 1328 2278 
Q 1131 2206 934 2034 
L 384 2034 
L 531 4403 
L 3034 4403 
L 3034 3925 
L 1044 3925 
L 959 2528 
Q 1325 2809 1869 2809 
Q 2519 2809 2905 2428 
Q 3291 2047 3291 1434 
z
" transform="scale(0.015625)"/>
       </defs>
       <use xlink:href="#LiberationSans-35"/>
      </g>
     </g>
    </g>
    <g id="xtick_6">
     <g id="line2d_6">
      <g>
       <use xlink:href="#m6b152820de" x="249.945668" y="240.28" style="stroke: #000000; stroke-width: 1.5"/>
      </g>
     </g>
     <g id="text_6">
      <!-- 6 -->
      <g transform="translate(246.609105 255.97625) scale(0.12 -0.12)">
       <defs>
        <path id="LiberationSans-36" d="M 3278 1441 
Q 3278 744 2900 340 
Q 2522 -63 1856 -63 
Q 1113 -63 719 490 
Q 325 1044 325 2100 
Q 325 3244 734 3856 
Q 1144 4469 1900 4469 
Q 2897 4469 3156 3572 
L 2619 3475 
Q 2453 4013 1894 4013 
Q 1413 4013 1148 3564 
Q 884 3116 884 2266 
Q 1038 2550 1316 2698 
Q 1594 2847 1953 2847 
Q 2563 2847 2920 2465 
Q 3278 2084 3278 1441 
z
M 2706 1416 
Q 2706 1894 2472 2153 
Q 2238 2413 1819 2413 
Q 1425 2413 1183 2183 
Q 941 1953 941 1550 
Q 941 1041 1192 716 
Q 1444 391 1838 391 
Q 2244 391 2475 664 
Q 2706 938 2706 1416 
z
" transform="scale(0.015625)"/>
       </defs>
       <use xlink:href="#LiberationSans-36"/>
      </g>
     </g>
    </g>
    <g id="xtick_7">
     <g id="line2d_7">
      <g>
       <use xlink:href="#m6b152820de" x="284.967004" y="240.28" style="stroke: #000000; stroke-width: 1.5"/>
      </g>
     </g>
     <g id="text_7">
      <!-- 7 -->
      <g transform="translate(281.630441 255.97625) scale(0.12 -0.12)">
       <defs>
        <path id="LiberationSans-37" d="M 3238 3947 
Q 2563 2916 2284 2331 
Q 2006 1747 1867 1178 
Q 1728 609 1728 0 
L 1141 0 
Q 1141 844 1498 1776 
Q 1856 2709 2694 3925 
L 328 3925 
L 328 4403 
L 3238 4403 
L 3238 3947 
z
" transform="scale(0.015625)"/>
       </defs>
       <use xlink:href="#LiberationSans-37"/>
      </g>
     </g>
    </g>
    <g id="xtick_8">
     <g id="line2d_8">
      <g>
       <use xlink:href="#m6b152820de" x="319.98834" y="240.28" style="stroke: #000000; stroke-width: 1.5"/>
      </g>
     </g>
     <g id="text_8">
      <!-- 8 -->
      <g transform="translate(316.651777 255.97625) scale(0.12 -0.12)">
       <defs>
        <path id="LiberationSans-38" d="M 3281 1228 
Q 3281 619 2893 278 
Q 2506 -63 1781 -63 
Q 1075 -63 676 271 
Q 278 606 278 1222 
Q 278 1653 525 1947 
Q 772 2241 1156 2303 
L 1156 2316 
Q 797 2400 589 2681 
Q 381 2963 381 3341 
Q 381 3844 757 4156 
Q 1134 4469 1769 4469 
Q 2419 4469 2795 4162 
Q 3172 3856 3172 3334 
Q 3172 2956 2962 2675 
Q 2753 2394 2391 2322 
L 2391 2309 
Q 2813 2241 3047 1952 
Q 3281 1663 3281 1228 
z
M 2588 3303 
Q 2588 4050 1769 4050 
Q 1372 4050 1164 3862 
Q 956 3675 956 3303 
Q 956 2925 1170 2726 
Q 1384 2528 1775 2528 
Q 2172 2528 2380 2711 
Q 2588 2894 2588 3303 
z
M 2697 1281 
Q 2697 1691 2453 1898 
Q 2209 2106 1769 2106 
Q 1341 2106 1100 1882 
Q 859 1659 859 1269 
Q 859 359 1788 359 
Q 2247 359 2472 579 
Q 2697 800 2697 1281 
z
" transform="scale(0.015625)"/>
       </defs>
       <use xlink:href="#LiberationSans-38"/>
      </g>
     </g>
    </g>
    <g id="xtick_9">
     <g id="line2d_9">
      <g>
       <use xlink:href="#m6b152820de" x="355.009675" y="240.28" style="stroke: #000000; stroke-width: 1.5"/>
      </g>
     </g>
     <g id="text_9">
      <!-- 9 -->
      <g transform="translate(351.673113 255.97625) scale(0.12 -0.12)">
       <defs>
        <path id="LiberationSans-39" d="M 3256 2291 
Q 3256 1156 2842 546 
Q 2428 -63 1663 -63 
Q 1147 -63 836 154 
Q 525 372 391 856 
L 928 941 
Q 1097 391 1672 391 
Q 2156 391 2422 841 
Q 2688 1291 2700 2125 
Q 2575 1844 2272 1673 
Q 1969 1503 1606 1503 
Q 1013 1503 656 1909 
Q 300 2316 300 2988 
Q 300 3678 687 4073 
Q 1075 4469 1766 4469 
Q 2500 4469 2878 3925 
Q 3256 3381 3256 2291 
z
M 2644 2834 
Q 2644 3366 2400 3689 
Q 2156 4013 1747 4013 
Q 1341 4013 1106 3736 
Q 872 3459 872 2988 
Q 872 2506 1106 2226 
Q 1341 1947 1741 1947 
Q 1984 1947 2193 2058 
Q 2403 2169 2523 2372 
Q 2644 2575 2644 2834 
z
" transform="scale(0.015625)"/>
       </defs>
       <use xlink:href="#LiberationSans-39"/>
      </g>
     </g>
    </g>
    <g id="xtick_10">
     <g id="line2d_10">
      <g>
       <use xlink:href="#m6b152820de" x="390.031011" y="240.28" style="stroke: #000000; stroke-width: 1.5"/>
      </g>
     </g>
     <g id="text_10">
      <!-- 10 -->
      <g transform="translate(383.357886 255.97625) scale(0.12 -0.12)">
       <defs>
        <path id="LiberationSans-30" d="M 3309 2203 
Q 3309 1100 2920 518 
Q 2531 -63 1772 -63 
Q 1013 -63 631 515 
Q 250 1094 250 2203 
Q 250 3338 620 3903 
Q 991 4469 1791 4469 
Q 2569 4469 2939 3897 
Q 3309 3325 3309 2203 
z
M 2738 2203 
Q 2738 3156 2517 3584 
Q 2297 4013 1791 4013 
Q 1272 4013 1045 3591 
Q 819 3169 819 2203 
Q 819 1266 1048 831 
Q 1278 397 1778 397 
Q 2275 397 2506 840 
Q 2738 1284 2738 2203 
z
" transform="scale(0.015625)"/>
       </defs>
       <use xlink:href="#LiberationSans-31"/>
       <use xlink:href="#LiberationSans-30" x="55.615234"/>
      </g>
     </g>
    </g>
    <g id="text_11">
     <!-- Layer -->
     <g transform="translate(212.425 274.06125) scale(0.16 -0.16)">
      <defs>
       <path id="LiberationSans-4c" d="M 525 0 
L 525 4403 
L 1122 4403 
L 1122 488 
L 3347 488 
L 3347 0 
L 525 0 
z
" transform="scale(0.015625)"/>
       <path id="LiberationSans-61" d="M 1294 -63 
Q 784 -63 528 206 
Q 272 475 272 944 
Q 272 1469 617 1750 
Q 963 2031 1731 2050 
L 2491 2063 
L 2491 2247 
Q 2491 2659 2316 2837 
Q 2141 3016 1766 3016 
Q 1388 3016 1216 2887 
Q 1044 2759 1009 2478 
L 422 2531 
Q 566 3444 1778 3444 
Q 2416 3444 2737 3151 
Q 3059 2859 3059 2306 
L 3059 850 
Q 3059 600 3125 473 
Q 3191 347 3375 347 
Q 3456 347 3559 369 
L 3559 19 
Q 3347 -31 3125 -31 
Q 2813 -31 2670 133 
Q 2528 297 2509 647 
L 2491 647 
Q 2275 259 1989 98 
Q 1703 -63 1294 -63 
z
M 1422 359 
Q 1731 359 1972 500 
Q 2213 641 2352 886 
Q 2491 1131 2491 1391 
L 2491 1669 
L 1875 1656 
Q 1478 1650 1273 1575 
Q 1069 1500 959 1344 
Q 850 1188 850 934 
Q 850 659 998 509 
Q 1147 359 1422 359 
z
" transform="scale(0.015625)"/>
       <path id="LiberationSans-79" d="M 597 -1328 
Q 366 -1328 209 -1294 
L 209 -872 
Q 328 -891 472 -891 
Q 997 -891 1303 -119 
L 1356 16 
L 16 3381 
L 616 3381 
L 1328 1513 
Q 1344 1469 1366 1408 
Q 1388 1347 1506 1000 
Q 1625 653 1634 613 
L 1853 1228 
L 2594 3381 
L 3188 3381 
L 1888 0 
Q 1678 -541 1497 -805 
Q 1316 -1069 1095 -1198 
Q 875 -1328 597 -1328 
z
" transform="scale(0.015625)"/>
       <path id="LiberationSans-65" d="M 863 1572 
Q 863 991 1103 675 
Q 1344 359 1806 359 
Q 2172 359 2392 506 
Q 2613 653 2691 878 
L 3184 738 
Q 2881 -63 1806 -63 
Q 1056 -63 664 384 
Q 272 831 272 1713 
Q 272 2550 664 2997 
Q 1056 3444 1784 3444 
Q 3275 3444 3275 1647 
L 3275 1572 
L 863 1572 
z
M 2694 2003 
Q 2647 2538 2422 2783 
Q 2197 3028 1775 3028 
Q 1366 3028 1127 2754 
Q 888 2481 869 2003 
L 2694 2003 
z
" transform="scale(0.015625)"/>
       <path id="LiberationSans-72" d="M 444 0 
L 444 2594 
Q 444 2950 425 3381 
L 956 3381 
Q 981 2806 981 2691 
L 994 2691 
Q 1128 3125 1303 3284 
Q 1478 3444 1797 3444 
Q 1909 3444 2025 3413 
L 2025 2897 
Q 1913 2928 1725 2928 
Q 1375 2928 1190 2626 
Q 1006 2325 1006 1763 
L 1006 0 
L 444 0 
z
" transform="scale(0.015625)"/>
      </defs>
      <use xlink:href="#LiberationSans-4c"/>
      <use xlink:href="#LiberationSans-61" x="55.615234"/>
      <use xlink:href="#LiberationSans-79" x="111.230469"/>
      <use xlink:href="#LiberationSans-65" x="161.230469"/>
      <use xlink:href="#LiberationSans-72" x="216.845703"/>
     </g>
    </g>
   </g>
   <g id="matplotlib.axis_2">
    <g id="ytick_1">
     <g id="line2d_11">
      <defs>
       <path id="mee4dafe609" d="M 0 0 
L -3.5 0 
" style="stroke: #000000; stroke-width: 0.8"/>
      </defs>
      <g>
       <use xlink:href="#mee4dafe609" x="43.67" y="240.28" style="stroke: #000000; stroke-width: 0.8"/>
      </g>
     </g>
     <g id="text_12">
      <!-- 0 -->
      <g transform="translate(29.996875 244.628125) scale(0.12 -0.12)">
       <use xlink:href="#LiberationSans-30"/>
      </g>
     </g>
    </g>
    <g id="ytick_2">
     <g id="line2d_12">
      <g>
       <use xlink:href="#mee4dafe609" x="43.67" y="202.753333" style="stroke: #000000; stroke-width: 0.8"/>
      </g>
     </g>
     <g id="text_13">
      <!-- 1 -->
      <g transform="translate(29.996875 207.101458) scale(0.12 -0.12)">
       <use xlink:href="#LiberationSans-31"/>
      </g>
     </g>
    </g>
    <g id="ytick_3">
     <g id="line2d_13">
      <g>
       <use xlink:href="#mee4dafe609" x="43.67" y="165.226667" style="stroke: #000000; stroke-width: 0.8"/>
      </g>
     </g>
     <g id="text_14">
      <!-- 2 -->
      <g transform="translate(29.996875 169.574792) scale(0.12 -0.12)">
       <use xlink:href="#LiberationSans-32"/>
      </g>
     </g>
    </g>
    <g id="ytick_4">
     <g id="line2d_14">
      <g>
       <use xlink:href="#mee4dafe609" x="43.67" y="127.7" style="stroke: #000000; stroke-width: 0.8"/>
      </g>
     </g>
     <g id="text_15">
      <!-- 3 -->
      <g transform="translate(29.996875 132.048125) scale(0.12 -0.12)">
       <use xlink:href="#LiberationSans-33"/>
      </g>
     </g>
    </g>
    <g id="ytick_5">
     <g id="line2d_15">
      <g>
       <use xlink:href="#mee4dafe609" x="43.67" y="90.173333" style="stroke: #000000; stroke-width: 0.8"/>
      </g>
     </g>
     <g id="text_16">
      <!-- 4 -->
      <g transform="translate(29.996875 94.521458) scale(0.12 -0.12)">
       <use xlink:href="#LiberationSans-34"/>
      </g>
     </g>
    </g>
    <g id="ytick_6">
     <g id="line2d_16">
      <g>
       <use xlink:href="#mee4dafe609" x="43.67" y="52.646667" style="stroke: #000000; stroke-width: 0.8"/>
      </g>
     </g>
     <g id="text_17">
      <!-- 5 -->
      <g transform="translate(29.996875 56.994792) scale(0.12 -0.12)">
       <use xlink:href="#LiberationSans-35"/>
      </g>
     </g>
    </g>
    <g id="ytick_7">
     <g id="line2d_17">
      <g>
       <use xlink:href="#mee4dafe609" x="43.67" y="15.12" style="stroke: #000000; stroke-width: 0.8"/>
      </g>
     </g>
     <g id="text_18">
      <!-- 6 -->
      <g transform="translate(29.996875 19.468125) scale(0.12 -0.12)">
       <use xlink:href="#LiberationSans-36"/>
      </g>
     </g>
    </g>
    <g id="text_19">
     <!-- Bias Magnitude -->
     <g transform="translate(22.676875 182.84125) rotate(-90) scale(0.16 -0.16)">
      <defs>
       <path id="LiberationSans-42" d="M 3931 1241 
Q 3931 653 3503 326 
Q 3075 0 2313 0 
L 525 0 
L 525 4403 
L 2125 4403 
Q 3675 4403 3675 3334 
Q 3675 2944 3456 2678 
Q 3238 2413 2838 2322 
Q 3363 2259 3647 1970 
Q 3931 1681 3931 1241 
z
M 3075 3263 
Q 3075 3619 2831 3772 
Q 2588 3925 2125 3925 
L 1122 3925 
L 1122 2531 
L 2125 2531 
Q 2603 2531 2839 2711 
Q 3075 2891 3075 3263 
z
M 3328 1288 
Q 3328 2066 2234 2066 
L 1122 2066 
L 1122 478 
L 2281 478 
Q 2828 478 3078 681 
Q 3328 884 3328 1288 
z
" transform="scale(0.015625)"/>
       <path id="LiberationSans-69" d="M 428 4100 
L 428 4638 
L 991 4638 
L 991 4100 
L 428 4100 
z
M 428 0 
L 428 3381 
L 991 3381 
L 991 0 
L 428 0 
z
" transform="scale(0.015625)"/>
       <path id="LiberationSans-73" d="M 2969 934 
Q 2969 456 2608 196 
Q 2247 -63 1597 -63 
Q 966 -63 623 145 
Q 281 353 178 794 
L 675 891 
Q 747 619 972 492 
Q 1197 366 1597 366 
Q 2025 366 2223 497 
Q 2422 628 2422 891 
Q 2422 1091 2284 1216 
Q 2147 1341 1841 1422 
L 1438 1528 
Q 953 1653 748 1773 
Q 544 1894 428 2066 
Q 313 2238 313 2488 
Q 313 2950 642 3192 
Q 972 3434 1603 3434 
Q 2163 3434 2492 3237 
Q 2822 3041 2909 2606 
L 2403 2544 
Q 2356 2769 2151 2889 
Q 1947 3009 1603 3009 
Q 1222 3009 1040 2893 
Q 859 2778 859 2544 
Q 859 2400 934 2306 
Q 1009 2213 1156 2147 
Q 1303 2081 1775 1966 
Q 2222 1853 2419 1758 
Q 2616 1663 2730 1547 
Q 2844 1431 2906 1279 
Q 2969 1128 2969 934 
z
" transform="scale(0.015625)"/>
       <path id="LiberationSans-20" transform="scale(0.015625)"/>
       <path id="LiberationSans-4d" d="M 4269 0 
L 4269 2938 
Q 4269 3425 4297 3875 
Q 4144 3316 4022 3000 
L 2884 0 
L 2466 0 
L 1313 3000 
L 1138 3531 
L 1034 3875 
L 1044 3528 
L 1056 2938 
L 1056 0 
L 525 0 
L 525 4403 
L 1309 4403 
L 2481 1350 
Q 2544 1166 2601 955 
Q 2659 744 2678 650 
Q 2703 775 2783 1029 
Q 2863 1284 2891 1350 
L 4041 4403 
L 4806 4403 
L 4806 0 
L 4269 0 
z
" transform="scale(0.015625)"/>
       <path id="LiberationSans-67" d="M 1713 -1328 
Q 1159 -1328 831 -1111 
Q 503 -894 409 -494 
L 975 -413 
Q 1031 -647 1223 -773 
Q 1416 -900 1728 -900 
Q 2569 -900 2569 84 
L 2569 628 
L 2563 628 
Q 2403 303 2125 139 
Q 1847 -25 1475 -25 
Q 853 -25 561 387 
Q 269 800 269 1684 
Q 269 2581 583 3007 
Q 897 3434 1538 3434 
Q 1897 3434 2161 3270 
Q 2425 3106 2569 2803 
L 2575 2803 
Q 2575 2897 2587 3128 
Q 2600 3359 2613 3381 
L 3147 3381 
Q 3128 3213 3128 2681 
L 3128 97 
Q 3128 -1328 1713 -1328 
z
M 2569 1691 
Q 2569 2103 2456 2401 
Q 2344 2700 2139 2858 
Q 1934 3016 1675 3016 
Q 1244 3016 1047 2703 
Q 850 2391 850 1691 
Q 850 997 1034 694 
Q 1219 391 1666 391 
Q 1931 391 2137 547 
Q 2344 703 2456 995 
Q 2569 1288 2569 1691 
z
" transform="scale(0.015625)"/>
       <path id="LiberationSans-6e" d="M 2578 0 
L 2578 2144 
Q 2578 2478 2512 2662 
Q 2447 2847 2303 2928 
Q 2159 3009 1881 3009 
Q 1475 3009 1240 2731 
Q 1006 2453 1006 1959 
L 1006 0 
L 444 0 
L 444 2659 
Q 444 3250 425 3381 
L 956 3381 
Q 959 3366 962 3297 
Q 966 3228 970 3139 
Q 975 3050 981 2803 
L 991 2803 
Q 1184 3153 1439 3298 
Q 1694 3444 2072 3444 
Q 2628 3444 2886 3167 
Q 3144 2891 3144 2253 
L 3144 0 
L 2578 0 
z
" transform="scale(0.015625)"/>
       <path id="LiberationSans-74" d="M 1731 25 
Q 1453 -50 1163 -50 
Q 488 -50 488 716 
L 488 2972 
L 97 2972 
L 97 3381 
L 509 3381 
L 675 4138 
L 1050 4138 
L 1050 3381 
L 1675 3381 
L 1675 2972 
L 1050 2972 
L 1050 838 
Q 1050 594 1129 495 
Q 1209 397 1406 397 
Q 1519 397 1731 441 
L 1731 25 
z
" transform="scale(0.015625)"/>
       <path id="LiberationSans-75" d="M 981 3381 
L 981 1238 
Q 981 903 1047 718 
Q 1113 534 1256 453 
Q 1400 372 1678 372 
Q 2084 372 2318 650 
Q 2553 928 2553 1422 
L 2553 3381 
L 3116 3381 
L 3116 722 
Q 3116 131 3134 0 
L 2603 0 
Q 2600 16 2597 84 
Q 2594 153 2589 242 
Q 2584 331 2578 578 
L 2569 578 
Q 2375 228 2120 82 
Q 1866 -63 1488 -63 
Q 931 -63 673 214 
Q 416 491 416 1128 
L 416 3381 
L 981 3381 
z
" transform="scale(0.015625)"/>
       <path id="LiberationSans-64" d="M 2566 544 
Q 2409 219 2151 78 
Q 1894 -63 1513 -63 
Q 872 -63 570 368 
Q 269 800 269 1675 
Q 269 3444 1513 3444 
Q 1897 3444 2153 3303 
Q 2409 3163 2566 2856 
L 2572 2856 
L 2566 3234 
L 2566 4638 
L 3128 4638 
L 3128 697 
Q 3128 169 3147 0 
L 2609 0 
Q 2600 50 2589 231 
Q 2578 413 2578 544 
L 2566 544 
z
M 859 1694 
Q 859 984 1046 678 
Q 1234 372 1656 372 
Q 2134 372 2350 703 
Q 2566 1034 2566 1731 
Q 2566 2403 2350 2715 
Q 2134 3028 1663 3028 
Q 1238 3028 1048 2714 
Q 859 2400 859 1694 
z
" transform="scale(0.015625)"/>
      </defs>
      <use xlink:href="#LiberationSans-42"/>
      <use xlink:href="#LiberationSans-69" x="66.699219"/>
      <use xlink:href="#LiberationSans-61" x="88.916016"/>
      <use xlink:href="#LiberationSans-73" x="144.53125"/>
      <use xlink:href="#LiberationSans-20" x="194.53125"/>
      <use xlink:href="#LiberationSans-4d" x="222.314453"/>
      <use xlink:href="#LiberationSans-61" x="305.615234"/>
      <use xlink:href="#LiberationSans-67" x="361.230469"/>
      <use xlink:href="#LiberationSans-6e" x="416.845703"/>
      <use xlink:href="#LiberationSans-69" x="472.460938"/>
      <use xlink:href="#LiberationSans-74" x="494.677734"/>
      <use xlink:href="#LiberationSans-75" x="522.460938"/>
      <use xlink:href="#LiberationSans-64" x="578.076172"/>
      <use xlink:href="#LiberationSans-65" x="633.691406"/>
     </g>
    </g>
   </g>
   <g id="LineCollection_1">
    <path d="M 67.834722 179.330052 
L 67.834722 165.000594 
" clip-path="url(#p03e912ec19)" style="fill: none; stroke: #000000; stroke-width: 1.5"/>
    <path d="M 102.856058 133.359174 
L 102.856058 118.613637 
" clip-path="url(#p03e912ec19)" style="fill: none; stroke: #000000; stroke-width: 1.5"/>
    <path d="M 137.877393 74.785513 
L 137.877393 52.084859 
" clip-path="url(#p03e912ec19)" style="fill: none; stroke: #000000; stroke-width: 1.5"/>
    <path d="M 172.898729 79.928313 
L 172.898729 24.162083 
" clip-path="url(#p03e912ec19)" style="fill: none; stroke: #000000; stroke-width: 1.5"/>
    <path d="M 207.920065 158.137492 
L 207.920065 101.593534 
" clip-path="url(#p03e912ec19)" style="fill: none; stroke: #000000; stroke-width: 1.5"/>
    <path d="M 242.941401 206.248589 
L 242.941401 193.555535 
" clip-path="url(#p03e912ec19)" style="fill: none; stroke: #000000; stroke-width: 1.5"/>
    <path d="M 277.962737 210.555019 
L 277.962737 204.159981 
" clip-path="url(#p03e912ec19)" style="fill: none; stroke: #000000; stroke-width: 1.5"/>
    <path d="M 312.984072 215.129726 
L 312.984072 208.085829 
" clip-path="url(#p03e912ec19)" style="fill: none; stroke: #000000; stroke-width: 1.5"/>
    <path d="M 348.005408 216.82637 
L 348.005408 210.64795 
" clip-path="url(#p03e912ec19)" style="fill: none; stroke: #000000; stroke-width: 1.5"/>
    <path d="M 383.026744 211.183819 
L 383.026744 198.726691 
" clip-path="url(#p03e912ec19)" style="fill: none; stroke: #000000; stroke-width: 1.5"/>
   </g>
   <g id="line2d_18">
    <defs>
     <path id="m8f5b892e05" d="M 5 0 
L -5 -0 
" style="stroke: #000000"/>
    </defs>
    <g clip-path="url(#p03e912ec19)">
     <use xlink:href="#m8f5b892e05" x="67.834722" y="179.330052" style="stroke: #000000"/>
     <use xlink:href="#m8f5b892e05" x="102.856058" y="133.359174" style="stroke: #000000"/>
     <use xlink:href="#m8f5b892e05" x="137.877393" y="74.785513" style="stroke: #000000"/>
     <use xlink:href="#m8f5b892e05" x="172.898729" y="79.928313" style="stroke: #000000"/>
     <use xlink:href="#m8f5b892e05" x="207.920065" y="158.137492" style="stroke: #000000"/>
     <use xlink:href="#m8f5b892e05" x="242.941401" y="206.248589" style="stroke: #000000"/>
     <use xlink:href="#m8f5b892e05" x="277.962737" y="210.555019" style="stroke: #000000"/>
     <use xlink:href="#m8f5b892e05" x="312.984072" y="215.129726" style="stroke: #000000"/>
     <use xlink:href="#m8f5b892e05" x="348.005408" y="216.82637" style="stroke: #000000"/>
     <use xlink:href="#m8f5b892e05" x="383.026744" y="211.183819" style="stroke: #000000"/>
    </g>
   </g>
   <g id="line2d_19">
    <g clip-path="url(#p03e912ec19)">
     <use xlink:href="#m8f5b892e05" x="67.834722" y="165.000594" style="stroke: #000000"/>
     <use xlink:href="#m8f5b892e05" x="102.856058" y="118.613637" style="stroke: #000000"/>
     <use xlink:href="#m8f5b892e05" x="137.877393" y="52.084859" style="stroke: #000000"/>
     <use xlink:href="#m8f5b892e05" x="172.898729" y="24.162083" style="stroke: #000000"/>
     <use xlink:href="#m8f5b892e05" x="207.920065" y="101.593534" style="stroke: #000000"/>
     <use xlink:href="#m8f5b892e05" x="242.941401" y="193.555535" style="stroke: #000000"/>
     <use xlink:href="#m8f5b892e05" x="277.962737" y="204.159981" style="stroke: #000000"/>
     <use xlink:href="#m8f5b892e05" x="312.984072" y="208.085829" style="stroke: #000000"/>
     <use xlink:href="#m8f5b892e05" x="348.005408" y="210.64795" style="stroke: #000000"/>
     <use xlink:href="#m8f5b892e05" x="383.026744" y="198.726691" style="stroke: #000000"/>
    </g>
   </g>
   <g id="LineCollection_2">
    <path d="M 81.843256 182.189316 
L 81.843256 171.925229 
" clip-path="url(#p03e912ec19)" style="fill: none; stroke: #000000; stroke-width: 1.5"/>
    <path d="M 116.864592 143.770273 
L 116.864592 126.766885 
" clip-path="url(#p03e912ec19)" style="fill: none; stroke: #000000; stroke-width: 1.5"/>
    <path d="M 151.885928 74.915297 
L 151.885928 45.030148 
" clip-path="url(#p03e912ec19)" style="fill: none; stroke: #000000; stroke-width: 1.5"/>
    <path d="M 186.907263 75.826295 
L 186.907263 21.458006 
" clip-path="url(#p03e912ec19)" style="fill: none; stroke: #000000; stroke-width: 1.5"/>
    <path d="M 221.928599 151.621734 
L 221.928599 108.293304 
" clip-path="url(#p03e912ec19)" style="fill: none; stroke: #000000; stroke-width: 1.5"/>
    <path d="M 256.949935 205.676755 
L 256.949935 192.738876 
" clip-path="url(#p03e912ec19)" style="fill: none; stroke: #000000; stroke-width: 1.5"/>
    <path d="M 291.971271 210.200539 
L 291.971271 204.051255 
" clip-path="url(#p03e912ec19)" style="fill: none; stroke: #000000; stroke-width: 1.5"/>
    <path d="M 326.992607 213.784417 
L 326.992607 210.107114 
" clip-path="url(#p03e912ec19)" style="fill: none; stroke: #000000; stroke-width: 1.5"/>
    <path d="M 362.013942 215.180393 
L 362.013942 208.035448 
" clip-path="url(#p03e912ec19)" style="fill: none; stroke: #000000; stroke-width: 1.5"/>
    <path d="M 397.035278 204.61129 
L 397.035278 193.004989 
" clip-path="url(#p03e912ec19)" style="fill: none; stroke: #000000; stroke-width: 1.5"/>
   </g>
   <g id="line2d_20">
    <g clip-path="url(#p03e912ec19)">
     <use xlink:href="#m8f5b892e05" x="81.843256" y="182.189316" style="stroke: #000000"/>
     <use xlink:href="#m8f5b892e05" x="116.864592" y="143.770273" style="stroke: #000000"/>
     <use xlink:href="#m8f5b892e05" x="151.885928" y="74.915297" style="stroke: #000000"/>
     <use xlink:href="#m8f5b892e05" x="186.907263" y="75.826295" style="stroke: #000000"/>
     <use xlink:href="#m8f5b892e05" x="221.928599" y="151.621734" style="stroke: #000000"/>
     <use xlink:href="#m8f5b892e05" x="256.949935" y="205.676755" style="stroke: #000000"/>
     <use xlink:href="#m8f5b892e05" x="291.971271" y="210.200539" style="stroke: #000000"/>
     <use xlink:href="#m8f5b892e05" x="326.992607" y="213.784417" style="stroke: #000000"/>
     <use xlink:href="#m8f5b892e05" x="362.013942" y="215.180393" style="stroke: #000000"/>
     <use xlink:href="#m8f5b892e05" x="397.035278" y="204.61129" style="stroke: #000000"/>
    </g>
   </g>
   <g id="line2d_21">
    <g clip-path="url(#p03e912ec19)">
     <use xlink:href="#m8f5b892e05" x="81.843256" y="171.925229" style="stroke: #000000"/>
     <use xlink:href="#m8f5b892e05" x="116.864592" y="126.766885" style="stroke: #000000"/>
     <use xlink:href="#m8f5b892e05" x="151.885928" y="45.030148" style="stroke: #000000"/>
     <use xlink:href="#m8f5b892e05" x="186.907263" y="21.458006" style="stroke: #000000"/>
     <use xlink:href="#m8f5b892e05" x="221.928599" y="108.293304" style="stroke: #000000"/>
     <use xlink:href="#m8f5b892e05" x="256.949935" y="192.738876" style="stroke: #000000"/>
     <use xlink:href="#m8f5b892e05" x="291.971271" y="204.051255" style="stroke: #000000"/>
     <use xlink:href="#m8f5b892e05" x="326.992607" y="210.107114" style="stroke: #000000"/>
     <use xlink:href="#m8f5b892e05" x="362.013942" y="208.035448" style="stroke: #000000"/>
     <use xlink:href="#m8f5b892e05" x="397.035278" y="193.004989" style="stroke: #000000"/>
    </g>
   </g>
   <g id="line2d_22"/>
   <g id="line2d_23"/>
   <g id="patch_23">
    <path d="M 43.67 240.28 
L 43.67 15.12 
" style="fill: none; stroke: #000000; stroke-width: 1.5; stroke-linejoin: miter; stroke-linecap: square"/>
   </g>
   <g id="patch_24">
    <path d="M 43.67 240.28 
L 421.2 240.28 
" style="fill: none; stroke: #000000; stroke-width: 1.5; stroke-linejoin: miter; stroke-linecap: square"/>
   </g>
   <g id="legend_1">
    <g id="patch_25">
     <path d="M 343.726875 59.0925 
L 412.8 59.0925 
Q 415.2 59.0925 415.2 56.6925 
L 415.2 23.52 
Q 415.2 21.12 412.8 21.12 
L 343.726875 21.12 
Q 341.326875 21.12 341.326875 23.52 
L 341.326875 56.6925 
Q 341.326875 59.0925 343.726875 59.0925 
z
" style="fill: #ffffff; opacity: 0.8; stroke: #cccccc; stroke-linejoin: miter"/>
    </g>
    <g id="patch_26">
     <path d="M 346.126875 34.61625 
L 370.126875 34.61625 
L 370.126875 26.21625 
L 346.126875 26.21625 
z
" style="fill: #afc6e9"/>
    </g>
    <g id="text_20">
     <!-- Parity -->
     <g transform="translate(379.726875 34.61625) scale(0.12 -0.12)">
      <defs>
       <path id="LiberationSans-50" d="M 3931 3078 
Q 3931 2453 3523 2084 
Q 3116 1716 2416 1716 
L 1122 1716 
L 1122 0 
L 525 0 
L 525 4403 
L 2378 4403 
Q 3119 4403 3525 4056 
Q 3931 3709 3931 3078 
z
M 3331 3072 
Q 3331 3925 2306 3925 
L 1122 3925 
L 1122 2188 
L 2331 2188 
Q 3331 2188 3331 3072 
z
" transform="scale(0.015625)"/>
      </defs>
      <use xlink:href="#LiberationSans-50"/>
      <use xlink:href="#LiberationSans-61" x="66.699219"/>
      <use xlink:href="#LiberationSans-72" x="122.314453"/>
      <use xlink:href="#LiberationSans-69" x="155.615234"/>
      <use xlink:href="#LiberationSans-74" x="177.832031"/>
      <use xlink:href="#LiberationSans-79" x="205.615234"/>
     </g>
    </g>
    <g id="patch_27">
     <path d="M 346.126875 51.8025 
L 370.126875 51.8025 
L 370.126875 43.4025 
L 346.126875 43.4025 
z
" style="fill: #e9afaf"/>
    </g>
    <g id="text_21">
     <!-- Value -->
     <g transform="translate(379.726875 51.8025) scale(0.12 -0.12)">
      <defs>
       <path id="LiberationSans-56" d="M 2444 0 
L 1825 0 
L 28 4403 
L 656 4403 
L 1875 1303 
L 2138 525 
L 2400 1303 
L 3613 4403 
L 4241 4403 
L 2444 0 
z
" transform="scale(0.015625)"/>
       <path id="LiberationSans-6c" d="M 431 0 
L 431 4638 
L 994 4638 
L 994 0 
L 431 0 
z
" transform="scale(0.015625)"/>
      </defs>
      <use xlink:href="#LiberationSans-56"/>
      <use xlink:href="#LiberationSans-61" x="59.324219"/>
      <use xlink:href="#LiberationSans-6c" x="114.939453"/>
      <use xlink:href="#LiberationSans-75" x="137.15625"/>
      <use xlink:href="#LiberationSans-65" x="192.771484"/>
     </g>
    </g>
   </g>
  </g>
 </g>
 <defs>
  <clipPath id="p03e912ec19">
   <rect x="43.67" y="15.12" width="377.53" height="225.16"/>
  </clipPath>
 </defs>
</svg>
