<?xml version="1.0" encoding="utf-8" standalone="no"?>
<!DOCTYPE svg PUBLIC "-//W3C//DTD SVG 1.1//EN"
  "http://www.w3.org/Graphics/SVG/1.1/DTD/svg11.dtd">
<svg xmlns:xlink="http://www.w3.org/1999/xlink" width="432pt" height="288pt" viewBox="0 0 432 288" xmlns="http://www.w3.org/2000/svg" version="1.1">
 <metadata>
  <rdf:RDF xmlns:dc="http://purl.org/dc/elements/1.1/" xmlns:cc="http://creativecommons.org/ns#" xmlns:rdf="http://www.w3.org/1999/02/22-rdf-syntax-ns#">
   <cc:Work>
    <dc:type rdf:resource="http://purl.org/dc/dcmitype/StillImage"/>
    <dc:date>2024-08-12T16:45:00.668713</dc:date>
    <dc:format>image/svg+xml</dc:format>
    <dc:creator>
     <cc:Agent>
      <dc:title>Matplotlib v3.7.4, https://matplotlib.org/</dc:title>
     </cc:Agent>
    </dc:creator>
   </cc:Work>
  </rdf:RDF>
 </metadata>
 <defs>
  <style type="text/css">*{stroke-linejoin: round; stroke-linecap: butt}</style>
 </defs>
 <g id="figure_1">
  <g id="patch_1">
   <path d="M 0 288 
L 432 288 
L 432 0 
L 0 0 
z
" style="fill: #ffffff"/>
  </g>
  <g id="axes_1">
   <g id="patch_2">
    <path d="M 54 256.32 
L 388.8 256.32 
L 388.8 34.56 
L 54 34.56 
z
" style="fill: #ffffff"/>
   </g>
   <g id="matplotlib.axis_1">
    <g id="xtick_1">
     <g id="line2d_1">
      <defs>
       <path id="mf3015b6801" d="M 0 0 
L 0 3.5 
" style="stroke: #000000; stroke-width: 1.5"/>
      </defs>
      <g>
       <use xlink:href="#mf3015b6801" x="95.85" y="256.32" style="stroke: #000000; stroke-width: 1.5"/>
      </g>
     </g>
     <g id="text_1">
      <!-- 0.25 -->
      <g transform="translate(82.227344 273.465625) scale(0.14 -0.14)">
       <defs>
        <path id="LiberationSans-30" d="M 3309 2203 
Q 3309 1100 2920 518 
Q 2531 -63 1772 -63 
Q 1013 -63 631 515 
Q 250 1094 250 2203 
Q 250 3338 620 3903 
Q 991 4469 1791 4469 
Q 2569 4469 2939 3897 
Q 3309 3325 3309 2203 
z
M 2738 2203 
Q 2738 3156 2517 3584 
Q 2297 4013 1791 4013 
Q 1272 4013 1045 3591 
Q 819 3169 819 2203 
Q 819 1266 1048 831 
Q 1278 397 1778 397 
Q 2275 397 2506 840 
Q 2738 1284 2738 2203 
z
" transform="scale(0.015625)"/>
        <path id="LiberationSans-2e" d="M 584 0 
L 584 684 
L 1194 684 
L 1194 0 
L 584 0 
z
" transform="scale(0.015625)"/>
        <path id="LiberationSans-32" d="M 322 0 
L 322 397 
Q 481 763 711 1042 
Q 941 1322 1194 1548 
Q 1447 1775 1695 1969 
Q 1944 2163 2144 2356 
Q 2344 2550 2467 2762 
Q 2591 2975 2591 3244 
Q 2591 3606 2378 3806 
Q 2166 4006 1788 4006 
Q 1428 4006 1195 3811 
Q 963 3616 922 3263 
L 347 3316 
Q 409 3844 795 4156 
Q 1181 4469 1788 4469 
Q 2453 4469 2811 4155 
Q 3169 3841 3169 3263 
Q 3169 3006 3051 2753 
Q 2934 2500 2703 2247 
Q 2472 1994 1819 1463 
Q 1459 1169 1246 933 
Q 1034 697 941 478 
L 3238 478 
L 3238 0 
L 322 0 
z
" transform="scale(0.015625)"/>
        <path id="LiberationSans-35" d="M 3291 1434 
Q 3291 738 2877 337 
Q 2463 -63 1728 -63 
Q 1113 -63 734 206 
Q 356 475 256 984 
L 825 1050 
Q 1003 397 1741 397 
Q 2194 397 2450 670 
Q 2706 944 2706 1422 
Q 2706 1838 2448 2094 
Q 2191 2350 1753 2350 
Q 1525 2350 1328 2278 
Q 1131 2206 934 2034 
L 384 2034 
L 531 4403 
L 3034 4403 
L 3034 3925 
L 1044 3925 
L 959 2528 
Q 1325 2809 1869 2809 
Q 2519 2809 2905 2428 
Q 3291 2047 3291 1434 
z
" transform="scale(0.015625)"/>
       </defs>
       <use xlink:href="#LiberationSans-30"/>
       <use xlink:href="#LiberationSans-2e" x="55.615234"/>
       <use xlink:href="#LiberationSans-32" x="83.398438"/>
       <use xlink:href="#LiberationSans-35" x="139.013672"/>
      </g>
     </g>
    </g>
    <g id="xtick_2">
     <g id="line2d_2">
      <g>
       <use xlink:href="#mf3015b6801" x="179.55" y="256.32" style="stroke: #000000; stroke-width: 1.5"/>
      </g>
     </g>
     <g id="text_2">
      <!-- 0.5 -->
      <g transform="translate(169.82 273.465625) scale(0.14 -0.14)">
       <use xlink:href="#LiberationSans-30"/>
       <use xlink:href="#LiberationSans-2e" x="55.615234"/>
       <use xlink:href="#LiberationSans-35" x="83.398438"/>
      </g>
     </g>
    </g>
    <g id="xtick_3">
     <g id="line2d_3">
      <g>
       <use xlink:href="#mf3015b6801" x="263.25" y="256.32" style="stroke: #000000; stroke-width: 1.5"/>
      </g>
     </g>
     <g id="text_3">
      <!-- 0.75 -->
      <g transform="translate(249.627344 273.465625) scale(0.14 -0.14)">
       <defs>
        <path id="LiberationSans-37" d="M 3238 3947 
Q 2563 2916 2284 2331 
Q 2006 1747 1867 1178 
Q 1728 609 1728 0 
L 1141 0 
Q 1141 844 1498 1776 
Q 1856 2709 2694 3925 
L 328 3925 
L 328 4403 
L 3238 4403 
L 3238 3947 
z
" transform="scale(0.015625)"/>
       </defs>
       <use xlink:href="#LiberationSans-30"/>
       <use xlink:href="#LiberationSans-2e" x="55.615234"/>
       <use xlink:href="#LiberationSans-37" x="83.398438"/>
       <use xlink:href="#LiberationSans-35" x="139.013672"/>
      </g>
     </g>
    </g>
    <g id="xtick_4">
     <g id="line2d_4">
      <g>
       <use xlink:href="#mf3015b6801" x="346.95" y="256.32" style="stroke: #000000; stroke-width: 1.5"/>
      </g>
     </g>
     <g id="text_4">
      <!-- 1.0 -->
      <g transform="translate(337.22 273.465625) scale(0.14 -0.14)">
       <defs>
        <path id="LiberationSans-31" d="M 488 0 
L 488 478 
L 1609 478 
L 1609 3866 
L 616 3156 
L 616 3688 
L 1656 4403 
L 2175 4403 
L 2175 478 
L 3247 478 
L 3247 0 
L 488 0 
z
" transform="scale(0.015625)"/>
       </defs>
       <use xlink:href="#LiberationSans-31"/>
       <use xlink:href="#LiberationSans-2e" x="55.615234"/>
       <use xlink:href="#LiberationSans-30" x="83.398438"/>
      </g>
     </g>
    </g>
    <g id="text_5">
     <!-- σ -->
     <g transform="translate(216.4625 291.965625) scale(0.16 -0.16)">
      <defs>
       <path id="LiberationSans-3c3" d="M 3350 1534 
Q 3350 781 2942 359 
Q 2534 -63 1819 -63 
Q 1069 -63 669 376 
Q 269 816 269 1638 
Q 269 2466 737 2923 
Q 1206 3381 2075 3381 
L 3853 3381 
L 3853 2972 
L 3338 2972 
L 2875 2991 
L 2875 2978 
Q 3128 2600 3239 2253 
Q 3350 1906 3350 1534 
z
M 2759 1525 
Q 2759 2322 2372 2972 
L 2094 2972 
Q 1519 2972 1191 2622 
Q 863 2272 863 1644 
Q 863 353 1794 353 
Q 2266 353 2512 654 
Q 2759 956 2759 1525 
z
" transform="scale(0.015625)"/>
      </defs>
      <use xlink:href="#LiberationSans-3c3"/>
     </g>
    </g>
   </g>
   <g id="matplotlib.axis_2">
    <g id="ytick_1">
     <g id="line2d_5">
      <defs>
       <path id="ma4e1c3e55c" d="M 0 0 
L -3.5 0 
" style="stroke: #000000; stroke-width: 1.5"/>
      </defs>
      <g>
       <use xlink:href="#ma4e1c3e55c" x="54" y="249.317903" style="stroke: #000000; stroke-width: 1.5"/>
      </g>
     </g>
     <g id="text_6">
      <!-- −10 -->
      <g transform="translate(23.2525 254.390715) scale(0.14 -0.14)">
       <defs>
        <path id="LiberationSans-2212" d="M 316 1900 
L 316 2356 
L 3425 2356 
L 3425 1900 
L 316 1900 
z
" transform="scale(0.015625)"/>
       </defs>
       <use xlink:href="#LiberationSans-2212"/>
       <use xlink:href="#LiberationSans-31" x="58.398438"/>
       <use xlink:href="#LiberationSans-30" x="114.013672"/>
      </g>
     </g>
    </g>
    <g id="ytick_2">
     <g id="line2d_6">
      <g>
       <use xlink:href="#ma4e1c3e55c" x="54" y="215.963919" style="stroke: #000000; stroke-width: 1.5"/>
      </g>
     </g>
     <g id="text_7">
      <!-- −8 -->
      <g transform="translate(31.037813 221.036731) scale(0.14 -0.14)">
       <defs>
        <path id="LiberationSans-38" d="M 3281 1228 
Q 3281 619 2893 278 
Q 2506 -63 1781 -63 
Q 1075 -63 676 271 
Q 278 606 278 1222 
Q 278 1653 525 1947 
Q 772 2241 1156 2303 
L 1156 2316 
Q 797 2400 589 2681 
Q 381 2963 381 3341 
Q 381 3844 757 4156 
Q 1134 4469 1769 4469 
Q 2419 4469 2795 4162 
Q 3172 3856 3172 3334 
Q 3172 2956 2962 2675 
Q 2753 2394 2391 2322 
L 2391 2309 
Q 2813 2241 3047 1952 
Q 3281 1663 3281 1228 
z
M 2588 3303 
Q 2588 4050 1769 4050 
Q 1372 4050 1164 3862 
Q 956 3675 956 3303 
Q 956 2925 1170 2726 
Q 1384 2528 1775 2528 
Q 2172 2528 2380 2711 
Q 2588 2894 2588 3303 
z
M 2697 1281 
Q 2697 1691 2453 1898 
Q 2209 2106 1769 2106 
Q 1341 2106 1100 1882 
Q 859 1659 859 1269 
Q 859 359 1788 359 
Q 2247 359 2472 579 
Q 2697 800 2697 1281 
z
" transform="scale(0.015625)"/>
       </defs>
       <use xlink:href="#LiberationSans-2212"/>
       <use xlink:href="#LiberationSans-38" x="58.398438"/>
      </g>
     </g>
    </g>
    <g id="ytick_3">
     <g id="line2d_7">
      <g>
       <use xlink:href="#ma4e1c3e55c" x="54" y="182.609935" style="stroke: #000000; stroke-width: 1.5"/>
      </g>
     </g>
     <g id="text_8">
      <!-- −6 -->
      <g transform="translate(31.037813 187.682748) scale(0.14 -0.14)">
       <defs>
        <path id="LiberationSans-36" d="M 3278 1441 
Q 3278 744 2900 340 
Q 2522 -63 1856 -63 
Q 1113 -63 719 490 
Q 325 1044 325 2100 
Q 325 3244 734 3856 
Q 1144 4469 1900 4469 
Q 2897 4469 3156 3572 
L 2619 3475 
Q 2453 4013 1894 4013 
Q 1413 4013 1148 3564 
Q 884 3116 884 2266 
Q 1038 2550 1316 2698 
Q 1594 2847 1953 2847 
Q 2563 2847 2920 2465 
Q 3278 2084 3278 1441 
z
M 2706 1416 
Q 2706 1894 2472 2153 
Q 2238 2413 1819 2413 
Q 1425 2413 1183 2183 
Q 941 1953 941 1550 
Q 941 1041 1192 716 
Q 1444 391 1838 391 
Q 2244 391 2475 664 
Q 2706 938 2706 1416 
z
" transform="scale(0.015625)"/>
       </defs>
       <use xlink:href="#LiberationSans-2212"/>
       <use xlink:href="#LiberationSans-36" x="58.398438"/>
      </g>
     </g>
    </g>
    <g id="ytick_4">
     <g id="line2d_8">
      <g>
       <use xlink:href="#ma4e1c3e55c" x="54" y="149.255951" style="stroke: #000000; stroke-width: 1.5"/>
      </g>
     </g>
     <g id="text_9">
      <!-- −4 -->
      <g transform="translate(31.037813 154.328764) scale(0.14 -0.14)">
       <defs>
        <path id="LiberationSans-34" d="M 2753 997 
L 2753 0 
L 2222 0 
L 2222 997 
L 147 997 
L 147 1434 
L 2163 4403 
L 2753 4403 
L 2753 1441 
L 3372 1441 
L 3372 997 
L 2753 997 
z
M 2222 3769 
Q 2216 3750 2134 3603 
Q 2053 3456 2013 3397 
L 884 1734 
L 716 1503 
L 666 1441 
L 2222 1441 
L 2222 3769 
z
" transform="scale(0.015625)"/>
       </defs>
       <use xlink:href="#LiberationSans-2212"/>
       <use xlink:href="#LiberationSans-34" x="58.398438"/>
      </g>
     </g>
    </g>
    <g id="ytick_5">
     <g id="line2d_9">
      <g>
       <use xlink:href="#ma4e1c3e55c" x="54" y="115.901967" style="stroke: #000000; stroke-width: 1.5"/>
      </g>
     </g>
     <g id="text_10">
      <!-- −2 -->
      <g transform="translate(31.037813 120.97478) scale(0.14 -0.14)">
       <use xlink:href="#LiberationSans-2212"/>
       <use xlink:href="#LiberationSans-32" x="58.398438"/>
      </g>
     </g>
    </g>
    <g id="ytick_6">
     <g id="line2d_10">
      <g>
       <use xlink:href="#ma4e1c3e55c" x="54" y="82.547984" style="stroke: #000000; stroke-width: 1.5"/>
      </g>
     </g>
     <g id="text_11">
      <!-- 0 -->
      <g transform="translate(39.214687 87.620796) scale(0.14 -0.14)">
       <use xlink:href="#LiberationSans-30"/>
      </g>
     </g>
    </g>
    <g id="ytick_7">
     <g id="line2d_11">
      <g>
       <use xlink:href="#ma4e1c3e55c" x="54" y="49.194" style="stroke: #000000; stroke-width: 1.5"/>
      </g>
     </g>
     <g id="text_12">
      <!-- 2 -->
      <g transform="translate(39.214687 54.266812) scale(0.14 -0.14)">
       <use xlink:href="#LiberationSans-32"/>
      </g>
     </g>
    </g>
    <g id="text_13">
     <!-- SNR (dB) -->
     <g transform="translate(15.9325 179.66625) rotate(-90) scale(0.16 -0.16)">
      <defs>
       <path id="LiberationSans-53" d="M 3975 1216 
Q 3975 606 3498 271 
Q 3022 -63 2156 -63 
Q 547 -63 291 1056 
L 869 1172 
Q 969 775 1294 589 
Q 1619 403 2178 403 
Q 2756 403 3070 601 
Q 3384 800 3384 1184 
Q 3384 1400 3286 1534 
Q 3188 1669 3009 1756 
Q 2831 1844 2584 1903 
Q 2338 1963 2038 2031 
Q 1516 2147 1245 2262 
Q 975 2378 819 2520 
Q 663 2663 580 2853 
Q 497 3044 497 3291 
Q 497 3856 930 4162 
Q 1363 4469 2169 4469 
Q 2919 4469 3316 4239 
Q 3713 4009 3872 3456 
L 3284 3353 
Q 3188 3703 2916 3861 
Q 2644 4019 2163 4019 
Q 1634 4019 1356 3844 
Q 1078 3669 1078 3322 
Q 1078 3119 1186 2986 
Q 1294 2853 1497 2761 
Q 1700 2669 2306 2534 
Q 2509 2488 2711 2439 
Q 2913 2391 3097 2323 
Q 3281 2256 3442 2165 
Q 3603 2075 3722 1944 
Q 3841 1813 3908 1634 
Q 3975 1456 3975 1216 
z
" transform="scale(0.015625)"/>
       <path id="LiberationSans-4e" d="M 3381 0 
L 1025 3750 
L 1041 3447 
L 1056 2925 
L 1056 0 
L 525 0 
L 525 4403 
L 1219 4403 
L 3600 628 
Q 3563 1241 3563 1516 
L 3563 4403 
L 4100 4403 
L 4100 0 
L 3381 0 
z
" transform="scale(0.015625)"/>
       <path id="LiberationSans-52" d="M 3638 0 
L 2494 1828 
L 1122 1828 
L 1122 0 
L 525 0 
L 525 4403 
L 2597 4403 
Q 3341 4403 3745 4070 
Q 4150 3738 4150 3144 
Q 4150 2653 3864 2318 
Q 3578 1984 3075 1897 
L 4325 0 
L 3638 0 
z
M 3550 3138 
Q 3550 3522 3289 3723 
Q 3028 3925 2538 3925 
L 1122 3925 
L 1122 2300 
L 2563 2300 
Q 3034 2300 3292 2520 
Q 3550 2741 3550 3138 
z
" transform="scale(0.015625)"/>
       <path id="LiberationSans-20" transform="scale(0.015625)"/>
       <path id="LiberationSans-28" d="M 397 1663 
Q 397 2566 680 3284 
Q 963 4003 1550 4638 
L 2094 4638 
Q 1509 3988 1236 3256 
Q 963 2525 963 1656 
Q 963 791 1233 62 
Q 1503 -666 2094 -1325 
L 1550 -1325 
Q 959 -688 678 32 
Q 397 753 397 1650 
L 397 1663 
z
" transform="scale(0.015625)"/>
       <path id="LiberationSans-64" d="M 2566 544 
Q 2409 219 2151 78 
Q 1894 -63 1513 -63 
Q 872 -63 570 368 
Q 269 800 269 1675 
Q 269 3444 1513 3444 
Q 1897 3444 2153 3303 
Q 2409 3163 2566 2856 
L 2572 2856 
L 2566 3234 
L 2566 4638 
L 3128 4638 
L 3128 697 
Q 3128 169 3147 0 
L 2609 0 
Q 2600 50 2589 231 
Q 2578 413 2578 544 
L 2566 544 
z
M 859 1694 
Q 859 984 1046 678 
Q 1234 372 1656 372 
Q 2134 372 2350 703 
Q 2566 1034 2566 1731 
Q 2566 2403 2350 2715 
Q 2134 3028 1663 3028 
Q 1238 3028 1048 2714 
Q 859 2400 859 1694 
z
" transform="scale(0.015625)"/>
       <path id="LiberationSans-42" d="M 3931 1241 
Q 3931 653 3503 326 
Q 3075 0 2313 0 
L 525 0 
L 525 4403 
L 2125 4403 
Q 3675 4403 3675 3334 
Q 3675 2944 3456 2678 
Q 3238 2413 2838 2322 
Q 3363 2259 3647 1970 
Q 3931 1681 3931 1241 
z
M 3075 3263 
Q 3075 3619 2831 3772 
Q 2588 3925 2125 3925 
L 1122 3925 
L 1122 2531 
L 2125 2531 
Q 2603 2531 2839 2711 
Q 3075 2891 3075 3263 
z
M 3328 1288 
Q 3328 2066 2234 2066 
L 1122 2066 
L 1122 478 
L 2281 478 
Q 2828 478 3078 681 
Q 3328 884 3328 1288 
z
" transform="scale(0.015625)"/>
       <path id="LiberationSans-29" d="M 1734 1650 
Q 1734 747 1451 28 
Q 1169 -691 581 -1325 
L 38 -1325 
Q 625 -669 897 57 
Q 1169 784 1169 1656 
Q 1169 2528 895 3256 
Q 622 3984 38 4638 
L 581 4638 
Q 1172 4000 1453 3279 
Q 1734 2559 1734 1663 
L 1734 1650 
z
" transform="scale(0.015625)"/>
      </defs>
      <use xlink:href="#LiberationSans-53"/>
      <use xlink:href="#LiberationSans-4e" x="66.699219"/>
      <use xlink:href="#LiberationSans-52" x="138.916016"/>
      <use xlink:href="#LiberationSans-20" x="211.132812"/>
      <use xlink:href="#LiberationSans-28" x="238.916016"/>
      <use xlink:href="#LiberationSans-64" x="272.216797"/>
      <use xlink:href="#LiberationSans-42" x="327.832031"/>
      <use xlink:href="#LiberationSans-29" x="394.53125"/>
     </g>
    </g>
   </g>
   <g id="line2d_12">
    <path d="M 95.85 45.167549 
L 179.55 145.574754 
L 263.25 204.308548 
L 346.95 245.97836 
" clip-path="url(#pfa0abeaf2e)" style="fill: none; stroke: #ffb7bc; stroke-width: 1.5; stroke-linecap: square"/>
   </g>
   <g id="patch_3">
    <path d="M 54 256.32 
L 54 34.56 
" style="fill: none; stroke: #000000; stroke-width: 1.5; stroke-linejoin: miter; stroke-linecap: square"/>
   </g>
   <g id="patch_4">
    <path d="M 54 256.32 
L 388.8 256.32 
" style="fill: none; stroke: #000000; stroke-width: 1.5; stroke-linejoin: miter; stroke-linecap: square"/>
   </g>
   <g id="PathCollection_1">
    <defs>
     <path id="C0_0_f40653ef0d" d="M 0 2.5 
C 0.663008 2.5 1.29895 2.236584 1.767767 1.767767 
C 2.236584 1.29895 2.5 0.663008 2.5 -0 
C 2.5 -0.663008 2.236584 -1.29895 1.767767 -1.767767 
C 1.29895 -2.236584 0.663008 -2.5 0 -2.5 
C -0.663008 -2.5 -1.29895 -2.236584 -1.767767 -1.767767 
C -2.236584 -1.29895 -2.5 -0.663008 -2.5 0 
C -2.5 0.663008 -2.236584 1.29895 -1.767767 1.767767 
C -1.29895 2.236584 -0.663008 2.5 0 2.5 
z
"/>
    </defs>
    <g clip-path="url(#pfa0abeaf2e)">
     <use xlink:href="#C0_0_f40653ef0d" x="97.477759" y="45.212448" style="fill: #ffb7bc"/>
    </g>
    <g clip-path="url(#pfa0abeaf2e)">
     <use xlink:href="#C0_0_f40653ef0d" x="104.206382" y="45.126385" style="fill: #ffb7bc"/>
    </g>
    <g clip-path="url(#pfa0abeaf2e)">
     <use xlink:href="#C0_0_f40653ef0d" x="103.936215" y="45.422493" style="fill: #ffb7bc"/>
    </g>
    <g clip-path="url(#pfa0abeaf2e)">
     <use xlink:href="#C0_0_f40653ef0d" x="91.284851" y="45.159979" style="fill: #ffb7bc"/>
    </g>
    <g clip-path="url(#pfa0abeaf2e)">
     <use xlink:href="#C0_0_f40653ef0d" x="92.323212" y="45.455185" style="fill: #ffb7bc"/>
    </g>
    <g clip-path="url(#pfa0abeaf2e)">
     <use xlink:href="#C0_0_f40653ef0d" x="98.40782" y="44.921727" style="fill: #ffb7bc"/>
    </g>
    <g clip-path="url(#pfa0abeaf2e)">
     <use xlink:href="#C0_0_f40653ef0d" x="88.25543" y="44.64" style="fill: #ffb7bc"/>
    </g>
    <g clip-path="url(#pfa0abeaf2e)">
     <use xlink:href="#C0_0_f40653ef0d" x="88.624908" y="45.410732" style="fill: #ffb7bc"/>
    </g>
    <g clip-path="url(#pfa0abeaf2e)">
     <use xlink:href="#C0_0_f40653ef0d" x="101.876668" y="45.381488" style="fill: #ffb7bc"/>
    </g>
    <g clip-path="url(#pfa0abeaf2e)">
     <use xlink:href="#C0_0_f40653ef0d" x="92.327191" y="44.945055" style="fill: #ffb7bc"/>
    </g>
   </g>
   <g id="PathCollection_2">
    <defs>
     <path id="C1_0_27434e1297" d="M 0 2.5 
C 0.663008 2.5 1.29895 2.236584 1.767767 1.767767 
C 2.236584 1.29895 2.5 0.663008 2.5 -0 
C 2.5 -0.663008 2.236584 -1.29895 1.767767 -1.767767 
C 1.29895 -2.236584 0.663008 -2.5 0 -2.5 
C -0.663008 -2.5 -1.29895 -2.236584 -1.767767 -1.767767 
C -2.236584 -1.29895 -2.5 -0.663008 -2.5 0 
C -2.5 0.663008 -2.236584 1.29895 -1.767767 1.767767 
C -1.29895 2.236584 -0.663008 2.5 0 2.5 
z
"/>
    </defs>
    <g clip-path="url(#pfa0abeaf2e)">
     <use xlink:href="#C1_0_27434e1297" x="182.747773" y="145.622189" style="fill: #ffb7bc"/>
    </g>
    <g clip-path="url(#pfa0abeaf2e)">
     <use xlink:href="#C1_0_27434e1297" x="185.438322" y="145.489021" style="fill: #ffb7bc"/>
    </g>
    <g clip-path="url(#pfa0abeaf2e)">
     <use xlink:href="#C1_0_27434e1297" x="174.352284" y="145.82404" style="fill: #ffb7bc"/>
    </g>
    <g clip-path="url(#pfa0abeaf2e)">
     <use xlink:href="#C1_0_27434e1297" x="182.31581" y="145.503681" style="fill: #ffb7bc"/>
    </g>
    <g clip-path="url(#pfa0abeaf2e)">
     <use xlink:href="#C1_0_27434e1297" x="184.382306" y="145.872385" style="fill: #ffb7bc"/>
    </g>
    <g clip-path="url(#pfa0abeaf2e)">
     <use xlink:href="#C1_0_27434e1297" x="179.698493" y="145.332605" style="fill: #ffb7bc"/>
    </g>
    <g clip-path="url(#pfa0abeaf2e)">
     <use xlink:href="#C1_0_27434e1297" x="178.979133" y="145.141136" style="fill: #ffb7bc"/>
    </g>
    <g clip-path="url(#pfa0abeaf2e)">
     <use xlink:href="#C1_0_27434e1297" x="172.9822" y="145.759742" style="fill: #ffb7bc"/>
    </g>
    <g clip-path="url(#pfa0abeaf2e)">
     <use xlink:href="#C1_0_27434e1297" x="174.497584" y="145.814346" style="fill: #ffb7bc"/>
    </g>
    <g clip-path="url(#pfa0abeaf2e)">
     <use xlink:href="#C1_0_27434e1297" x="186.416203" y="145.388394" style="fill: #ffb7bc"/>
    </g>
   </g>
   <g id="PathCollection_3">
    <defs>
     <path id="C2_0_f4ad6eda99" d="M 0 2.5 
C 0.663008 2.5 1.29895 2.236584 1.767767 1.767767 
C 2.236584 1.29895 2.5 0.663008 2.5 -0 
C 2.5 -0.663008 2.236584 -1.29895 1.767767 -1.767767 
C 1.29895 -2.236584 0.663008 -2.5 0 -2.5 
C -0.663008 -2.5 -1.29895 -2.236584 -1.767767 -1.767767 
C -2.236584 -1.29895 -2.5 -0.663008 -2.5 0 
C -2.5 0.663008 -2.236584 1.29895 -1.767767 1.767767 
C -1.29895 2.236584 -0.663008 2.5 0 2.5 
z
"/>
    </defs>
    <g clip-path="url(#pfa0abeaf2e)">
     <use xlink:href="#C2_0_f4ad6eda99" x="266.562969" y="204.377224" style="fill: #ffb7bc"/>
    </g>
    <g clip-path="url(#pfa0abeaf2e)">
     <use xlink:href="#C2_0_f4ad6eda99" x="256.746764" y="204.258624" style="fill: #ffb7bc"/>
    </g>
    <g clip-path="url(#pfa0abeaf2e)">
     <use xlink:href="#C2_0_f4ad6eda99" x="265.506334" y="204.564061" style="fill: #ffb7bc"/>
    </g>
    <g clip-path="url(#pfa0abeaf2e)">
     <use xlink:href="#C2_0_f4ad6eda99" x="260.812838" y="204.271968" style="fill: #ffb7bc"/>
    </g>
    <g clip-path="url(#pfa0abeaf2e)">
     <use xlink:href="#C2_0_f4ad6eda99" x="270.762341" y="204.558176" style="fill: #ffb7bc"/>
    </g>
    <g clip-path="url(#pfa0abeaf2e)">
     <use xlink:href="#C2_0_f4ad6eda99" x="260.439996" y="204.07605" style="fill: #ffb7bc"/>
    </g>
    <g clip-path="url(#pfa0abeaf2e)">
     <use xlink:href="#C2_0_f4ad6eda99" x="259.064149" y="203.765842" style="fill: #ffb7bc"/>
    </g>
    <g clip-path="url(#pfa0abeaf2e)">
     <use xlink:href="#C2_0_f4ad6eda99" x="263.802966" y="204.555059" style="fill: #ffb7bc"/>
    </g>
    <g clip-path="url(#pfa0abeaf2e)">
     <use xlink:href="#C2_0_f4ad6eda99" x="259.638132" y="204.548816" style="fill: #ffb7bc"/>
    </g>
    <g clip-path="url(#pfa0abeaf2e)">
     <use xlink:href="#C2_0_f4ad6eda99" x="262.4107" y="204.109656" style="fill: #ffb7bc"/>
    </g>
   </g>
   <g id="PathCollection_4">
    <defs>
     <path id="C3_0_d5efe17414" d="M 0 2.5 
C 0.663008 2.5 1.29895 2.236584 1.767767 1.767767 
C 2.236584 1.29895 2.5 0.663008 2.5 -0 
C 2.5 -0.663008 2.236584 -1.29895 1.767767 -1.767767 
C 1.29895 -2.236584 0.663008 -2.5 0 -2.5 
C -0.663008 -2.5 -1.29895 -2.236584 -1.767767 -1.767767 
C -2.236584 -1.29895 -2.5 -0.663008 -2.5 0 
C -2.5 0.663008 -2.236584 1.29895 -1.767767 1.767767 
C -1.29895 2.236584 -0.663008 2.5 0 2.5 
z
"/>
    </defs>
    <g clip-path="url(#pfa0abeaf2e)">
     <use xlink:href="#C3_0_d5efe17414" x="339.704637" y="246.012503" style="fill: #ffb7bc"/>
    </g>
    <g clip-path="url(#pfa0abeaf2e)">
     <use xlink:href="#C3_0_d5efe17414" x="345.332209" y="245.940122" style="fill: #ffb7bc"/>
    </g>
    <g clip-path="url(#pfa0abeaf2e)">
     <use xlink:href="#C3_0_d5efe17414" x="341.400646" y="246.214362" style="fill: #ffb7bc"/>
    </g>
    <g clip-path="url(#pfa0abeaf2e)">
     <use xlink:href="#C3_0_d5efe17414" x="342.802166" y="245.964726" style="fill: #ffb7bc"/>
    </g>
    <g clip-path="url(#pfa0abeaf2e)">
     <use xlink:href="#C3_0_d5efe17414" x="344.21492" y="246.24" style="fill: #ffb7bc"/>
    </g>
    <g clip-path="url(#pfa0abeaf2e)">
     <use xlink:href="#C3_0_d5efe17414" x="352.466842" y="245.731377" style="fill: #ffb7bc"/>
    </g>
    <g clip-path="url(#pfa0abeaf2e)">
     <use xlink:href="#C3_0_d5efe17414" x="345.228846" y="245.486719" style="fill: #ffb7bc"/>
    </g>
    <g clip-path="url(#pfa0abeaf2e)">
     <use xlink:href="#C3_0_d5efe17414" x="341.525324" y="246.21837" style="fill: #ffb7bc"/>
    </g>
    <g clip-path="url(#pfa0abeaf2e)">
     <use xlink:href="#C3_0_d5efe17414" x="340.718151" y="246.21969" style="fill: #ffb7bc"/>
    </g>
    <g clip-path="url(#pfa0abeaf2e)">
     <use xlink:href="#C3_0_d5efe17414" x="346.696189" y="245.755726" style="fill: #ffb7bc"/>
    </g>
   </g>
  </g>
 </g>
 <defs>
  <clipPath id="pfa0abeaf2e">
   <rect x="54" y="34.56" width="334.8" height="221.76"/>
  </clipPath>
 </defs>
</svg>
