<?xml version="1.0" encoding="utf-8" standalone="no"?>
<!DOCTYPE svg PUBLIC "-//W3C//DTD SVG 1.1//EN"
  "http://www.w3.org/Graphics/SVG/1.1/DTD/svg11.dtd">
<svg xmlns:xlink="http://www.w3.org/1999/xlink" width="432pt" height="288pt" viewBox="0 0 432 288" xmlns="http://www.w3.org/2000/svg" version="1.1">
 <metadata>
  <rdf:RDF xmlns:dc="http://purl.org/dc/elements/1.1/" xmlns:cc="http://creativecommons.org/ns#" xmlns:rdf="http://www.w3.org/1999/02/22-rdf-syntax-ns#">
   <cc:Work>
    <dc:type rdf:resource="http://purl.org/dc/dcmitype/StillImage"/>
    <dc:date>2024-08-12T16:45:00.811238</dc:date>
    <dc:format>image/svg+xml</dc:format>
    <dc:creator>
     <cc:Agent>
      <dc:title>Matplotlib v3.7.4, https://matplotlib.org/</dc:title>
     </cc:Agent>
    </dc:creator>
   </cc:Work>
  </rdf:RDF>
 </metadata>
 <defs>
  <style type="text/css">*{stroke-linejoin: round; stroke-linecap: butt}</style>
 </defs>
 <g id="figure_1">
  <g id="patch_1">
   <path d="M 0 288 
L 432 288 
L 432 0 
L 0 0 
z
" style="fill: #ffffff"/>
  </g>
  <g id="axes_1">
   <g id="patch_2">
    <path d="M 54 256.32 
L 388.8 256.32 
L 388.8 34.56 
L 54 34.56 
z
" style="fill: #ffffff"/>
   </g>
   <g id="PathCollection_1">
    <defs>
     <path id="C0_0_da620a3deb" d="M 0 2.5 
C 0.663008 2.5 1.29895 2.236584 1.767767 1.767767 
C 2.236584 1.29895 2.5 0.663008 2.5 -0 
C 2.5 -0.663008 2.236584 -1.29895 1.767767 -1.767767 
C 1.29895 -2.236584 0.663008 -2.5 0 -2.5 
C -0.663008 -2.5 -1.29895 -2.236584 -1.767767 -1.767767 
C -2.236584 -1.29895 -2.5 -0.663008 -2.5 0 
C -2.5 0.663008 -2.236584 1.29895 -1.767767 1.767767 
C -1.29895 2.236584 -0.663008 2.5 0 2.5 
z
"/>
    </defs>
    <g clip-path="url(#p167b9c31c9)">
     <use xlink:href="#C0_0_da620a3deb" x="91.877114" y="44.69207" style="fill: #bdc0ff"/>
    </g>
    <g clip-path="url(#p167b9c31c9)">
     <use xlink:href="#C0_0_da620a3deb" x="95.02981" y="44.74389" style="fill: #bdc0ff"/>
    </g>
    <g clip-path="url(#p167b9c31c9)">
     <use xlink:href="#C0_0_da620a3deb" x="95.3338" y="45.054663" style="fill: #bdc0ff"/>
    </g>
    <g clip-path="url(#p167b9c31c9)">
     <use xlink:href="#C0_0_da620a3deb" x="94.359772" y="44.71223" style="fill: #bdc0ff"/>
    </g>
    <g clip-path="url(#p167b9c31c9)">
     <use xlink:href="#C0_0_da620a3deb" x="96.155647" y="44.953966" style="fill: #bdc0ff"/>
    </g>
    <g clip-path="url(#p167b9c31c9)">
     <use xlink:href="#C0_0_da620a3deb" x="88.979448" y="44.802272" style="fill: #bdc0ff"/>
    </g>
    <g clip-path="url(#p167b9c31c9)">
     <use xlink:href="#C0_0_da620a3deb" x="92.104515" y="44.64" style="fill: #bdc0ff"/>
    </g>
    <g clip-path="url(#p167b9c31c9)">
     <use xlink:href="#C0_0_da620a3deb" x="91.119634" y="44.733218" style="fill: #bdc0ff"/>
    </g>
    <g clip-path="url(#p167b9c31c9)">
     <use xlink:href="#C0_0_da620a3deb" x="91.073412" y="44.719593" style="fill: #bdc0ff"/>
    </g>
    <g clip-path="url(#p167b9c31c9)">
     <use xlink:href="#C0_0_da620a3deb" x="93.081049" y="44.664058" style="fill: #bdc0ff"/>
    </g>
   </g>
   <g id="PathCollection_2">
    <defs>
     <path id="C1_0_8251edaef0" d="M 0 2.5 
C 0.663008 2.5 1.29895 2.236584 1.767767 1.767767 
C 2.236584 1.29895 2.5 0.663008 2.5 -0 
C 2.5 -0.663008 2.236584 -1.29895 1.767767 -1.767767 
C 1.29895 -2.236584 0.663008 -2.5 0 -2.5 
C -0.663008 -2.5 -1.29895 -2.236584 -1.767767 -1.767767 
C -2.236584 -1.29895 -2.5 -0.663008 -2.5 0 
C -2.5 0.663008 -2.236584 1.29895 -1.767767 1.767767 
C -1.29895 2.236584 -0.663008 2.5 0 2.5 
z
"/>
    </defs>
    <g clip-path="url(#p167b9c31c9)">
     <use xlink:href="#C1_0_8251edaef0" x="177.805884" y="54.808616" style="fill: #bdc0ff"/>
    </g>
    <g clip-path="url(#p167b9c31c9)">
     <use xlink:href="#C1_0_8251edaef0" x="187.113643" y="62.479553" style="fill: #bdc0ff"/>
    </g>
    <g clip-path="url(#p167b9c31c9)">
     <use xlink:href="#C1_0_8251edaef0" x="173.803272" y="81.423322" style="fill: #bdc0ff"/>
    </g>
    <g clip-path="url(#p167b9c31c9)">
     <use xlink:href="#C1_0_8251edaef0" x="186.95193" y="64.76209" style="fill: #bdc0ff"/>
    </g>
    <g clip-path="url(#p167b9c31c9)">
     <use xlink:href="#C1_0_8251edaef0" x="171.702435" y="79.702452" style="fill: #bdc0ff"/>
    </g>
    <g clip-path="url(#p167b9c31c9)">
     <use xlink:href="#C1_0_8251edaef0" x="180.552146" y="80.216745" style="fill: #bdc0ff"/>
    </g>
    <g clip-path="url(#p167b9c31c9)">
     <use xlink:href="#C1_0_8251edaef0" x="176.739119" y="56.256639" style="fill: #bdc0ff"/>
    </g>
    <g clip-path="url(#p167b9c31c9)">
     <use xlink:href="#C1_0_8251edaef0" x="181.402813" y="60.921177" style="fill: #bdc0ff"/>
    </g>
    <g clip-path="url(#p167b9c31c9)">
     <use xlink:href="#C1_0_8251edaef0" x="177.005588" y="59.46089" style="fill: #bdc0ff"/>
    </g>
    <g clip-path="url(#p167b9c31c9)">
     <use xlink:href="#C1_0_8251edaef0" x="182.385535" y="59.220226" style="fill: #bdc0ff"/>
    </g>
   </g>
   <g id="PathCollection_3">
    <defs>
     <path id="C2_0_d36ef2b561" d="M 0 2.5 
C 0.663008 2.5 1.29895 2.236584 1.767767 1.767767 
C 2.236584 1.29895 2.5 0.663008 2.5 -0 
C 2.5 -0.663008 2.236584 -1.29895 1.767767 -1.767767 
C 1.29895 -2.236584 0.663008 -2.5 0 -2.5 
C -0.663008 -2.5 -1.29895 -2.236584 -1.767767 -1.767767 
C -2.236584 -1.29895 -2.5 -0.663008 -2.5 0 
C -2.5 0.663008 -2.236584 1.29895 -1.767767 1.767767 
C -1.29895 2.236584 -0.663008 2.5 0 2.5 
z
"/>
    </defs>
    <g clip-path="url(#p167b9c31c9)">
     <use xlink:href="#C2_0_d36ef2b561" x="262.669654" y="131.01081" style="fill: #bdc0ff"/>
    </g>
    <g clip-path="url(#p167b9c31c9)">
     <use xlink:href="#C2_0_d36ef2b561" x="267.667518" y="155.42589" style="fill: #bdc0ff"/>
    </g>
    <g clip-path="url(#p167b9c31c9)">
     <use xlink:href="#C2_0_d36ef2b561" x="268.712015" y="182.114527" style="fill: #bdc0ff"/>
    </g>
    <g clip-path="url(#p167b9c31c9)">
     <use xlink:href="#C2_0_d36ef2b561" x="258.366517" y="147.409403" style="fill: #bdc0ff"/>
    </g>
    <g clip-path="url(#p167b9c31c9)">
     <use xlink:href="#C2_0_d36ef2b561" x="270.601676" y="182.195205" style="fill: #bdc0ff"/>
    </g>
    <g clip-path="url(#p167b9c31c9)">
     <use xlink:href="#C2_0_d36ef2b561" x="270.982989" y="193.358568" style="fill: #bdc0ff"/>
    </g>
    <g clip-path="url(#p167b9c31c9)">
     <use xlink:href="#C2_0_d36ef2b561" x="270.875559" y="122.086703" style="fill: #bdc0ff"/>
    </g>
    <g clip-path="url(#p167b9c31c9)">
     <use xlink:href="#C2_0_d36ef2b561" x="267.760171" y="147.580108" style="fill: #bdc0ff"/>
    </g>
    <g clip-path="url(#p167b9c31c9)">
     <use xlink:href="#C2_0_d36ef2b561" x="267.929852" y="160.551276" style="fill: #bdc0ff"/>
    </g>
    <g clip-path="url(#p167b9c31c9)">
     <use xlink:href="#C2_0_d36ef2b561" x="263.997261" y="130.367408" style="fill: #bdc0ff"/>
    </g>
   </g>
   <g id="PathCollection_4">
    <defs>
     <path id="C3_0_71469da7a0" d="M 0 2.5 
C 0.663008 2.5 1.29895 2.236584 1.767767 1.767767 
C 2.236584 1.29895 2.5 0.663008 2.5 -0 
C 2.5 -0.663008 2.236584 -1.29895 1.767767 -1.767767 
C 1.29895 -2.236584 0.663008 -2.5 0 -2.5 
C -0.663008 -2.5 -1.29895 -2.236584 -1.767767 -1.767767 
C -2.236584 -1.29895 -2.5 -0.663008 -2.5 0 
C -2.5 0.663008 -2.236584 1.29895 -1.767767 1.767767 
C -1.29895 2.236584 -0.663008 2.5 0 2.5 
z
"/>
    </defs>
    <g clip-path="url(#p167b9c31c9)">
     <use xlink:href="#C3_0_71469da7a0" x="348.497564" y="169.621835" style="fill: #bdc0ff"/>
    </g>
    <g clip-path="url(#p167b9c31c9)">
     <use xlink:href="#C3_0_71469da7a0" x="351.355945" y="226.210543" style="fill: #bdc0ff"/>
    </g>
    <g clip-path="url(#p167b9c31c9)">
     <use xlink:href="#C3_0_71469da7a0" x="349.019468" y="230.622668" style="fill: #bdc0ff"/>
    </g>
    <g clip-path="url(#p167b9c31c9)">
     <use xlink:href="#C3_0_71469da7a0" x="340.417881" y="226.788374" style="fill: #bdc0ff"/>
    </g>
    <g clip-path="url(#p167b9c31c9)">
     <use xlink:href="#C3_0_71469da7a0" x="338.853236" y="238.302413" style="fill: #bdc0ff"/>
    </g>
    <g clip-path="url(#p167b9c31c9)">
     <use xlink:href="#C3_0_71469da7a0" x="354.9843" y="246.24" style="fill: #bdc0ff"/>
    </g>
    <g clip-path="url(#p167b9c31c9)">
     <use xlink:href="#C3_0_71469da7a0" x="343.320271" y="188.565798" style="fill: #bdc0ff"/>
    </g>
    <g clip-path="url(#p167b9c31c9)">
     <use xlink:href="#C3_0_71469da7a0" x="349.279337" y="213.902245" style="fill: #bdc0ff"/>
    </g>
    <g clip-path="url(#p167b9c31c9)">
     <use xlink:href="#C3_0_71469da7a0" x="345.798811" y="241.452385" style="fill: #bdc0ff"/>
    </g>
    <g clip-path="url(#p167b9c31c9)">
     <use xlink:href="#C3_0_71469da7a0" x="346.925048" y="178.87767" style="fill: #bdc0ff"/>
    </g>
   </g>
   <g id="patch_3">
    <path d="M 79.11 44.787677 
L 112.59 44.787677 
L 112.59 44.69711 
L 79.11 44.69711 
L 79.11 44.787677 
z
" clip-path="url(#p167b9c31c9)" style="fill: #c5c7f7; stroke: #000000; stroke-linejoin: miter"/>
   </g>
   <g id="patch_4">
    <path d="M 162.81 75.967362 
L 196.29 75.967362 
L 196.29 59.280392 
L 162.81 59.280392 
L 162.81 75.967362 
z
" clip-path="url(#p167b9c31c9)" style="fill: #c5c7f7; stroke: #000000; stroke-linejoin: miter"/>
   </g>
   <g id="patch_5">
    <path d="M 246.51 176.723714 
L 279.99 176.723714 
L 279.99 135.110458 
L 246.51 135.110458 
L 246.51 176.723714 
z
" clip-path="url(#p167b9c31c9)" style="fill: #c5c7f7; stroke: #000000; stroke-linejoin: miter"/>
   </g>
   <g id="patch_6">
    <path d="M 330.21 236.382476 
L 363.69 236.382476 
L 363.69 194.89991 
L 330.21 194.89991 
L 330.21 236.382476 
z
" clip-path="url(#p167b9c31c9)" style="fill: #c5c7f7; stroke: #000000; stroke-linejoin: miter"/>
   </g>
   <g id="matplotlib.axis_1">
    <g id="xtick_1">
     <g id="line2d_1">
      <defs>
       <path id="m0dda98e5a7" d="M 0 0 
L 0 3.5 
" style="stroke: #000000; stroke-width: 1.5"/>
      </defs>
      <g>
       <use xlink:href="#m0dda98e5a7" x="95.85" y="256.32" style="stroke: #000000; stroke-width: 1.5"/>
      </g>
     </g>
     <g id="text_1">
      <!-- 0.25 -->
      <g transform="translate(82.227344 273.465625) scale(0.14 -0.14)">
       <defs>
        <path id="LiberationSans-30" d="M 3309 2203 
Q 3309 1100 2920 518 
Q 2531 -63 1772 -63 
Q 1013 -63 631 515 
Q 250 1094 250 2203 
Q 250 3338 620 3903 
Q 991 4469 1791 4469 
Q 2569 4469 2939 3897 
Q 3309 3325 3309 2203 
z
M 2738 2203 
Q 2738 3156 2517 3584 
Q 2297 4013 1791 4013 
Q 1272 4013 1045 3591 
Q 819 3169 819 2203 
Q 819 1266 1048 831 
Q 1278 397 1778 397 
Q 2275 397 2506 840 
Q 2738 1284 2738 2203 
z
" transform="scale(0.015625)"/>
        <path id="LiberationSans-2e" d="M 584 0 
L 584 684 
L 1194 684 
L 1194 0 
L 584 0 
z
" transform="scale(0.015625)"/>
        <path id="LiberationSans-32" d="M 322 0 
L 322 397 
Q 481 763 711 1042 
Q 941 1322 1194 1548 
Q 1447 1775 1695 1969 
Q 1944 2163 2144 2356 
Q 2344 2550 2467 2762 
Q 2591 2975 2591 3244 
Q 2591 3606 2378 3806 
Q 2166 4006 1788 4006 
Q 1428 4006 1195 3811 
Q 963 3616 922 3263 
L 347 3316 
Q 409 3844 795 4156 
Q 1181 4469 1788 4469 
Q 2453 4469 2811 4155 
Q 3169 3841 3169 3263 
Q 3169 3006 3051 2753 
Q 2934 2500 2703 2247 
Q 2472 1994 1819 1463 
Q 1459 1169 1246 933 
Q 1034 697 941 478 
L 3238 478 
L 3238 0 
L 322 0 
z
" transform="scale(0.015625)"/>
        <path id="LiberationSans-35" d="M 3291 1434 
Q 3291 738 2877 337 
Q 2463 -63 1728 -63 
Q 1113 -63 734 206 
Q 356 475 256 984 
L 825 1050 
Q 1003 397 1741 397 
Q 2194 397 2450 670 
Q 2706 944 2706 1422 
Q 2706 1838 2448 2094 
Q 2191 2350 1753 2350 
Q 1525 2350 1328 2278 
Q 1131 2206 934 2034 
L 384 2034 
L 531 4403 
L 3034 4403 
L 3034 3925 
L 1044 3925 
L 959 2528 
Q 1325 2809 1869 2809 
Q 2519 2809 2905 2428 
Q 3291 2047 3291 1434 
z
" transform="scale(0.015625)"/>
       </defs>
       <use xlink:href="#LiberationSans-30"/>
       <use xlink:href="#LiberationSans-2e" x="55.615234"/>
       <use xlink:href="#LiberationSans-32" x="83.398438"/>
       <use xlink:href="#LiberationSans-35" x="139.013672"/>
      </g>
     </g>
    </g>
    <g id="xtick_2">
     <g id="line2d_2">
      <g>
       <use xlink:href="#m0dda98e5a7" x="179.55" y="256.32" style="stroke: #000000; stroke-width: 1.5"/>
      </g>
     </g>
     <g id="text_2">
      <!-- 0.5 -->
      <g transform="translate(169.82 273.465625) scale(0.14 -0.14)">
       <use xlink:href="#LiberationSans-30"/>
       <use xlink:href="#LiberationSans-2e" x="55.615234"/>
       <use xlink:href="#LiberationSans-35" x="83.398438"/>
      </g>
     </g>
    </g>
    <g id="xtick_3">
     <g id="line2d_3">
      <g>
       <use xlink:href="#m0dda98e5a7" x="263.25" y="256.32" style="stroke: #000000; stroke-width: 1.5"/>
      </g>
     </g>
     <g id="text_3">
      <!-- 0.75 -->
      <g transform="translate(249.627344 273.465625) scale(0.14 -0.14)">
       <defs>
        <path id="LiberationSans-37" d="M 3238 3947 
Q 2563 2916 2284 2331 
Q 2006 1747 1867 1178 
Q 1728 609 1728 0 
L 1141 0 
Q 1141 844 1498 1776 
Q 1856 2709 2694 3925 
L 328 3925 
L 328 4403 
L 3238 4403 
L 3238 3947 
z
" transform="scale(0.015625)"/>
       </defs>
       <use xlink:href="#LiberationSans-30"/>
       <use xlink:href="#LiberationSans-2e" x="55.615234"/>
       <use xlink:href="#LiberationSans-37" x="83.398438"/>
       <use xlink:href="#LiberationSans-35" x="139.013672"/>
      </g>
     </g>
    </g>
    <g id="xtick_4">
     <g id="line2d_4">
      <g>
       <use xlink:href="#m0dda98e5a7" x="346.95" y="256.32" style="stroke: #000000; stroke-width: 1.5"/>
      </g>
     </g>
     <g id="text_4">
      <!-- 1.0 -->
      <g transform="translate(337.22 273.465625) scale(0.14 -0.14)">
       <defs>
        <path id="LiberationSans-31" d="M 488 0 
L 488 478 
L 1609 478 
L 1609 3866 
L 616 3156 
L 616 3688 
L 1656 4403 
L 2175 4403 
L 2175 478 
L 3247 478 
L 3247 0 
L 488 0 
z
" transform="scale(0.015625)"/>
       </defs>
       <use xlink:href="#LiberationSans-31"/>
       <use xlink:href="#LiberationSans-2e" x="55.615234"/>
       <use xlink:href="#LiberationSans-30" x="83.398438"/>
      </g>
     </g>
    </g>
    <g id="text_5">
     <!-- σ -->
     <g transform="translate(216.4625 291.965625) scale(0.16 -0.16)">
      <defs>
       <path id="LiberationSans-3c3" d="M 3350 1534 
Q 3350 781 2942 359 
Q 2534 -63 1819 -63 
Q 1069 -63 669 376 
Q 269 816 269 1638 
Q 269 2466 737 2923 
Q 1206 3381 2075 3381 
L 3853 3381 
L 3853 2972 
L 3338 2972 
L 2875 2991 
L 2875 2978 
Q 3128 2600 3239 2253 
Q 3350 1906 3350 1534 
z
M 2759 1525 
Q 2759 2322 2372 2972 
L 2094 2972 
Q 1519 2972 1191 2622 
Q 863 2272 863 1644 
Q 863 353 1794 353 
Q 2266 353 2512 654 
Q 2759 956 2759 1525 
z
" transform="scale(0.015625)"/>
      </defs>
      <use xlink:href="#LiberationSans-3c3"/>
     </g>
    </g>
   </g>
   <g id="matplotlib.axis_2">
    <g id="ytick_1">
     <g id="line2d_5">
      <defs>
       <path id="mbdfd873e49" d="M 0 0 
L -3.5 0 
" style="stroke: #000000; stroke-width: 1.5"/>
      </defs>
      <g>
       <use xlink:href="#mbdfd873e49" x="54" y="216.20251" style="stroke: #000000; stroke-width: 1.5"/>
      </g>
     </g>
     <g id="text_6">
      <!-- 0.6 -->
      <g transform="translate(27.54 221.275323) scale(0.14 -0.14)">
       <defs>
        <path id="LiberationSans-36" d="M 3278 1441 
Q 3278 744 2900 340 
Q 2522 -63 1856 -63 
Q 1113 -63 719 490 
Q 325 1044 325 2100 
Q 325 3244 734 3856 
Q 1144 4469 1900 4469 
Q 2897 4469 3156 3572 
L 2619 3475 
Q 2453 4013 1894 4013 
Q 1413 4013 1148 3564 
Q 884 3116 884 2266 
Q 1038 2550 1316 2698 
Q 1594 2847 1953 2847 
Q 2563 2847 2920 2465 
Q 3278 2084 3278 1441 
z
M 2706 1416 
Q 2706 1894 2472 2153 
Q 2238 2413 1819 2413 
Q 1425 2413 1183 2183 
Q 941 1953 941 1550 
Q 941 1041 1192 716 
Q 1444 391 1838 391 
Q 2244 391 2475 664 
Q 2706 938 2706 1416 
z
" transform="scale(0.015625)"/>
       </defs>
       <use xlink:href="#LiberationSans-30"/>
       <use xlink:href="#LiberationSans-2e" x="55.615234"/>
       <use xlink:href="#LiberationSans-36" x="83.398438"/>
      </g>
     </g>
    </g>
    <g id="ytick_2">
     <g id="line2d_6">
      <g>
       <use xlink:href="#mbdfd873e49" x="54" y="173.289526" style="stroke: #000000; stroke-width: 1.5"/>
      </g>
     </g>
     <g id="text_7">
      <!-- 0.7 -->
      <g transform="translate(27.54 178.362338) scale(0.14 -0.14)">
       <use xlink:href="#LiberationSans-30"/>
       <use xlink:href="#LiberationSans-2e" x="55.615234"/>
       <use xlink:href="#LiberationSans-37" x="83.398438"/>
      </g>
     </g>
    </g>
    <g id="ytick_3">
     <g id="line2d_7">
      <g>
       <use xlink:href="#mbdfd873e49" x="54" y="130.376541" style="stroke: #000000; stroke-width: 1.5"/>
      </g>
     </g>
     <g id="text_8">
      <!-- 0.8 -->
      <g transform="translate(27.54 135.449354) scale(0.14 -0.14)">
       <defs>
        <path id="LiberationSans-38" d="M 3281 1228 
Q 3281 619 2893 278 
Q 2506 -63 1781 -63 
Q 1075 -63 676 271 
Q 278 606 278 1222 
Q 278 1653 525 1947 
Q 772 2241 1156 2303 
L 1156 2316 
Q 797 2400 589 2681 
Q 381 2963 381 3341 
Q 381 3844 757 4156 
Q 1134 4469 1769 4469 
Q 2419 4469 2795 4162 
Q 3172 3856 3172 3334 
Q 3172 2956 2962 2675 
Q 2753 2394 2391 2322 
L 2391 2309 
Q 2813 2241 3047 1952 
Q 3281 1663 3281 1228 
z
M 2588 3303 
Q 2588 4050 1769 4050 
Q 1372 4050 1164 3862 
Q 956 3675 956 3303 
Q 956 2925 1170 2726 
Q 1384 2528 1775 2528 
Q 2172 2528 2380 2711 
Q 2588 2894 2588 3303 
z
M 2697 1281 
Q 2697 1691 2453 1898 
Q 2209 2106 1769 2106 
Q 1341 2106 1100 1882 
Q 859 1659 859 1269 
Q 859 359 1788 359 
Q 2247 359 2472 579 
Q 2697 800 2697 1281 
z
" transform="scale(0.015625)"/>
       </defs>
       <use xlink:href="#LiberationSans-30"/>
       <use xlink:href="#LiberationSans-2e" x="55.615234"/>
       <use xlink:href="#LiberationSans-38" x="83.398438"/>
      </g>
     </g>
    </g>
    <g id="ytick_4">
     <g id="line2d_8">
      <g>
       <use xlink:href="#mbdfd873e49" x="54" y="87.463557" style="stroke: #000000; stroke-width: 1.5"/>
      </g>
     </g>
     <g id="text_9">
      <!-- 0.9 -->
      <g transform="translate(27.54 92.536369) scale(0.14 -0.14)">
       <defs>
        <path id="LiberationSans-39" d="M 3256 2291 
Q 3256 1156 2842 546 
Q 2428 -63 1663 -63 
Q 1147 -63 836 154 
Q 525 372 391 856 
L 928 941 
Q 1097 391 1672 391 
Q 2156 391 2422 841 
Q 2688 1291 2700 2125 
Q 2575 1844 2272 1673 
Q 1969 1503 1606 1503 
Q 1013 1503 656 1909 
Q 300 2316 300 2988 
Q 300 3678 687 4073 
Q 1075 4469 1766 4469 
Q 2500 4469 2878 3925 
Q 3256 3381 3256 2291 
z
M 2644 2834 
Q 2644 3366 2400 3689 
Q 2156 4013 1747 4013 
Q 1341 4013 1106 3736 
Q 872 3459 872 2988 
Q 872 2506 1106 2226 
Q 1341 1947 1741 1947 
Q 1984 1947 2193 2058 
Q 2403 2169 2523 2372 
Q 2644 2575 2644 2834 
z
" transform="scale(0.015625)"/>
       </defs>
       <use xlink:href="#LiberationSans-30"/>
       <use xlink:href="#LiberationSans-2e" x="55.615234"/>
       <use xlink:href="#LiberationSans-39" x="83.398438"/>
      </g>
     </g>
    </g>
    <g id="ytick_5">
     <g id="line2d_9">
      <g>
       <use xlink:href="#mbdfd873e49" x="54" y="44.550572" style="stroke: #000000; stroke-width: 1.5"/>
      </g>
     </g>
     <g id="text_10">
      <!-- 1.0 -->
      <g transform="translate(27.54 49.623385) scale(0.14 -0.14)">
       <use xlink:href="#LiberationSans-31"/>
       <use xlink:href="#LiberationSans-2e" x="55.615234"/>
       <use xlink:href="#LiberationSans-30" x="83.398438"/>
      </g>
     </g>
    </g>
    <g id="text_11">
     <!-- Pearson Correlation -->
     <g transform="translate(20.22 216.58375) rotate(-90) scale(0.16 -0.16)">
      <defs>
       <path id="LiberationSans-50" d="M 3931 3078 
Q 3931 2453 3523 2084 
Q 3116 1716 2416 1716 
L 1122 1716 
L 1122 0 
L 525 0 
L 525 4403 
L 2378 4403 
Q 3119 4403 3525 4056 
Q 3931 3709 3931 3078 
z
M 3331 3072 
Q 3331 3925 2306 3925 
L 1122 3925 
L 1122 2188 
L 2331 2188 
Q 3331 2188 3331 3072 
z
" transform="scale(0.015625)"/>
       <path id="LiberationSans-65" d="M 863 1572 
Q 863 991 1103 675 
Q 1344 359 1806 359 
Q 2172 359 2392 506 
Q 2613 653 2691 878 
L 3184 738 
Q 2881 -63 1806 -63 
Q 1056 -63 664 384 
Q 272 831 272 1713 
Q 272 2550 664 2997 
Q 1056 3444 1784 3444 
Q 3275 3444 3275 1647 
L 3275 1572 
L 863 1572 
z
M 2694 2003 
Q 2647 2538 2422 2783 
Q 2197 3028 1775 3028 
Q 1366 3028 1127 2754 
Q 888 2481 869 2003 
L 2694 2003 
z
" transform="scale(0.015625)"/>
       <path id="LiberationSans-61" d="M 1294 -63 
Q 784 -63 528 206 
Q 272 475 272 944 
Q 272 1469 617 1750 
Q 963 2031 1731 2050 
L 2491 2063 
L 2491 2247 
Q 2491 2659 2316 2837 
Q 2141 3016 1766 3016 
Q 1388 3016 1216 2887 
Q 1044 2759 1009 2478 
L 422 2531 
Q 566 3444 1778 3444 
Q 2416 3444 2737 3151 
Q 3059 2859 3059 2306 
L 3059 850 
Q 3059 600 3125 473 
Q 3191 347 3375 347 
Q 3456 347 3559 369 
L 3559 19 
Q 3347 -31 3125 -31 
Q 2813 -31 2670 133 
Q 2528 297 2509 647 
L 2491 647 
Q 2275 259 1989 98 
Q 1703 -63 1294 -63 
z
M 1422 359 
Q 1731 359 1972 500 
Q 2213 641 2352 886 
Q 2491 1131 2491 1391 
L 2491 1669 
L 1875 1656 
Q 1478 1650 1273 1575 
Q 1069 1500 959 1344 
Q 850 1188 850 934 
Q 850 659 998 509 
Q 1147 359 1422 359 
z
" transform="scale(0.015625)"/>
       <path id="LiberationSans-72" d="M 444 0 
L 444 2594 
Q 444 2950 425 3381 
L 956 3381 
Q 981 2806 981 2691 
L 994 2691 
Q 1128 3125 1303 3284 
Q 1478 3444 1797 3444 
Q 1909 3444 2025 3413 
L 2025 2897 
Q 1913 2928 1725 2928 
Q 1375 2928 1190 2626 
Q 1006 2325 1006 1763 
L 1006 0 
L 444 0 
z
" transform="scale(0.015625)"/>
       <path id="LiberationSans-73" d="M 2969 934 
Q 2969 456 2608 196 
Q 2247 -63 1597 -63 
Q 966 -63 623 145 
Q 281 353 178 794 
L 675 891 
Q 747 619 972 492 
Q 1197 366 1597 366 
Q 2025 366 2223 497 
Q 2422 628 2422 891 
Q 2422 1091 2284 1216 
Q 2147 1341 1841 1422 
L 1438 1528 
Q 953 1653 748 1773 
Q 544 1894 428 2066 
Q 313 2238 313 2488 
Q 313 2950 642 3192 
Q 972 3434 1603 3434 
Q 2163 3434 2492 3237 
Q 2822 3041 2909 2606 
L 2403 2544 
Q 2356 2769 2151 2889 
Q 1947 3009 1603 3009 
Q 1222 3009 1040 2893 
Q 859 2778 859 2544 
Q 859 2400 934 2306 
Q 1009 2213 1156 2147 
Q 1303 2081 1775 1966 
Q 2222 1853 2419 1758 
Q 2616 1663 2730 1547 
Q 2844 1431 2906 1279 
Q 2969 1128 2969 934 
z
" transform="scale(0.015625)"/>
       <path id="LiberationSans-6f" d="M 3291 1694 
Q 3291 806 2900 371 
Q 2509 -63 1766 -63 
Q 1025 -63 647 389 
Q 269 841 269 1694 
Q 269 3444 1784 3444 
Q 2559 3444 2925 3017 
Q 3291 2591 3291 1694 
z
M 2700 1694 
Q 2700 2394 2492 2711 
Q 2284 3028 1794 3028 
Q 1300 3028 1079 2704 
Q 859 2381 859 1694 
Q 859 1025 1076 689 
Q 1294 353 1759 353 
Q 2266 353 2483 678 
Q 2700 1003 2700 1694 
z
" transform="scale(0.015625)"/>
       <path id="LiberationSans-6e" d="M 2578 0 
L 2578 2144 
Q 2578 2478 2512 2662 
Q 2447 2847 2303 2928 
Q 2159 3009 1881 3009 
Q 1475 3009 1240 2731 
Q 1006 2453 1006 1959 
L 1006 0 
L 444 0 
L 444 2659 
Q 444 3250 425 3381 
L 956 3381 
Q 959 3366 962 3297 
Q 966 3228 970 3139 
Q 975 3050 981 2803 
L 991 2803 
Q 1184 3153 1439 3298 
Q 1694 3444 2072 3444 
Q 2628 3444 2886 3167 
Q 3144 2891 3144 2253 
L 3144 0 
L 2578 0 
z
" transform="scale(0.015625)"/>
       <path id="LiberationSans-20" transform="scale(0.015625)"/>
       <path id="LiberationSans-43" d="M 2475 3981 
Q 1744 3981 1337 3511 
Q 931 3041 931 2222 
Q 931 1413 1354 920 
Q 1778 428 2500 428 
Q 3425 428 3891 1344 
L 4378 1100 
Q 4106 531 3614 234 
Q 3122 -63 2472 -63 
Q 1806 -63 1320 214 
Q 834 491 579 1005 
Q 325 1519 325 2222 
Q 325 3275 894 3872 
Q 1463 4469 2469 4469 
Q 3172 4469 3644 4194 
Q 4116 3919 4338 3378 
L 3772 3191 
Q 3619 3575 3280 3778 
Q 2941 3981 2475 3981 
z
" transform="scale(0.015625)"/>
       <path id="LiberationSans-6c" d="M 431 0 
L 431 4638 
L 994 4638 
L 994 0 
L 431 0 
z
" transform="scale(0.015625)"/>
       <path id="LiberationSans-74" d="M 1731 25 
Q 1453 -50 1163 -50 
Q 488 -50 488 716 
L 488 2972 
L 97 2972 
L 97 3381 
L 509 3381 
L 675 4138 
L 1050 4138 
L 1050 3381 
L 1675 3381 
L 1675 2972 
L 1050 2972 
L 1050 838 
Q 1050 594 1129 495 
Q 1209 397 1406 397 
Q 1519 397 1731 441 
L 1731 25 
z
" transform="scale(0.015625)"/>
       <path id="LiberationSans-69" d="M 428 4100 
L 428 4638 
L 991 4638 
L 991 4100 
L 428 4100 
z
M 428 0 
L 428 3381 
L 991 3381 
L 991 0 
L 428 0 
z
" transform="scale(0.015625)"/>
      </defs>
      <use xlink:href="#LiberationSans-50"/>
      <use xlink:href="#LiberationSans-65" x="66.699219"/>
      <use xlink:href="#LiberationSans-61" x="122.314453"/>
      <use xlink:href="#LiberationSans-72" x="177.929688"/>
      <use xlink:href="#LiberationSans-73" x="211.230469"/>
      <use xlink:href="#LiberationSans-6f" x="261.230469"/>
      <use xlink:href="#LiberationSans-6e" x="316.845703"/>
      <use xlink:href="#LiberationSans-20" x="372.460938"/>
      <use xlink:href="#LiberationSans-43" x="400.244141"/>
      <use xlink:href="#LiberationSans-6f" x="472.460938"/>
      <use xlink:href="#LiberationSans-72" x="528.076172"/>
      <use xlink:href="#LiberationSans-72" x="561.376953"/>
      <use xlink:href="#LiberationSans-65" x="594.677734"/>
      <use xlink:href="#LiberationSans-6c" x="650.292969"/>
      <use xlink:href="#LiberationSans-61" x="672.509766"/>
      <use xlink:href="#LiberationSans-74" x="728.125"/>
      <use xlink:href="#LiberationSans-69" x="755.908203"/>
      <use xlink:href="#LiberationSans-6f" x="778.125"/>
      <use xlink:href="#LiberationSans-6e" x="833.740234"/>
     </g>
    </g>
   </g>
   <g id="line2d_10">
    <path d="M 95.85 44.787677 
L 95.85 44.802272 
" clip-path="url(#p167b9c31c9)" style="fill: none; stroke: #000000; stroke-linecap: square"/>
   </g>
   <g id="line2d_11">
    <path d="M 95.85 44.69711 
L 95.85 44.64 
" clip-path="url(#p167b9c31c9)" style="fill: none; stroke: #000000; stroke-linecap: square"/>
   </g>
   <g id="line2d_12">
    <path d="M 87.48 44.802272 
L 104.22 44.802272 
" clip-path="url(#p167b9c31c9)" style="fill: none; stroke: #000000; stroke-linecap: square"/>
   </g>
   <g id="line2d_13">
    <path d="M 87.48 44.64 
L 104.22 44.64 
" clip-path="url(#p167b9c31c9)" style="fill: none; stroke: #000000; stroke-linecap: square"/>
   </g>
   <g id="line2d_14">
    <path d="M 179.55 75.967362 
L 179.55 81.423322 
" clip-path="url(#p167b9c31c9)" style="fill: none; stroke: #000000; stroke-linecap: square"/>
   </g>
   <g id="line2d_15">
    <path d="M 179.55 59.280392 
L 179.55 54.808616 
" clip-path="url(#p167b9c31c9)" style="fill: none; stroke: #000000; stroke-linecap: square"/>
   </g>
   <g id="line2d_16">
    <path d="M 171.18 81.423322 
L 187.92 81.423322 
" clip-path="url(#p167b9c31c9)" style="fill: none; stroke: #000000; stroke-linecap: square"/>
   </g>
   <g id="line2d_17">
    <path d="M 171.18 54.808616 
L 187.92 54.808616 
" clip-path="url(#p167b9c31c9)" style="fill: none; stroke: #000000; stroke-linecap: square"/>
   </g>
   <g id="line2d_18">
    <path d="M 263.25 176.723714 
L 263.25 193.358568 
" clip-path="url(#p167b9c31c9)" style="fill: none; stroke: #000000; stroke-linecap: square"/>
   </g>
   <g id="line2d_19">
    <path d="M 263.25 135.110458 
L 263.25 122.086703 
" clip-path="url(#p167b9c31c9)" style="fill: none; stroke: #000000; stroke-linecap: square"/>
   </g>
   <g id="line2d_20">
    <path d="M 254.88 193.358568 
L 271.62 193.358568 
" clip-path="url(#p167b9c31c9)" style="fill: none; stroke: #000000; stroke-linecap: square"/>
   </g>
   <g id="line2d_21">
    <path d="M 254.88 122.086703 
L 271.62 122.086703 
" clip-path="url(#p167b9c31c9)" style="fill: none; stroke: #000000; stroke-linecap: square"/>
   </g>
   <g id="line2d_22">
    <path d="M 346.95 236.382476 
L 346.95 246.24 
" clip-path="url(#p167b9c31c9)" style="fill: none; stroke: #000000; stroke-linecap: square"/>
   </g>
   <g id="line2d_23">
    <path d="M 346.95 194.89991 
L 346.95 169.621835 
" clip-path="url(#p167b9c31c9)" style="fill: none; stroke: #000000; stroke-linecap: square"/>
   </g>
   <g id="line2d_24">
    <path d="M 338.58 246.24 
L 355.32 246.24 
" clip-path="url(#p167b9c31c9)" style="fill: none; stroke: #000000; stroke-linecap: square"/>
   </g>
   <g id="line2d_25">
    <path d="M 338.58 169.621835 
L 355.32 169.621835 
" clip-path="url(#p167b9c31c9)" style="fill: none; stroke: #000000; stroke-linecap: square"/>
   </g>
   <g id="line2d_26">
    <path d="M 79.11 44.726405 
L 112.59 44.726405 
" clip-path="url(#p167b9c31c9)" style="fill: none; stroke: #000000; stroke-linecap: square"/>
   </g>
   <g id="line2d_27">
    <path d="M 162.81 61.700365 
L 196.29 61.700365 
" clip-path="url(#p167b9c31c9)" style="fill: none; stroke: #000000; stroke-linecap: square"/>
   </g>
   <g id="line2d_28">
    <path d="M 246.51 151.502999 
L 279.99 151.502999 
" clip-path="url(#p167b9c31c9)" style="fill: none; stroke: #000000; stroke-linecap: square"/>
   </g>
   <g id="line2d_29">
    <path d="M 330.21 226.499458 
L 363.69 226.499458 
" clip-path="url(#p167b9c31c9)" style="fill: none; stroke: #000000; stroke-linecap: square"/>
   </g>
   <g id="patch_7">
    <path d="M 54 256.32 
L 54 34.56 
" style="fill: none; stroke: #000000; stroke-width: 1.5; stroke-linejoin: miter; stroke-linecap: square"/>
   </g>
   <g id="patch_8">
    <path d="M 54 256.32 
L 388.8 256.32 
" style="fill: none; stroke: #000000; stroke-width: 1.5; stroke-linejoin: miter; stroke-linecap: square"/>
   </g>
  </g>
 </g>
 <defs>
  <clipPath id="p167b9c31c9">
   <rect x="54" y="34.56" width="334.8" height="221.76"/>
  </clipPath>
 </defs>
</svg>
