<?xml version="1.0" encoding="utf-8" standalone="no"?>
<!DOCTYPE svg PUBLIC "-//W3C//DTD SVG 1.1//EN"
  "http://www.w3.org/Graphics/SVG/1.1/DTD/svg11.dtd">
<svg height="286.062079pt" version="1.1" viewBox="0 0 402.265312 286.062079" width="402.265312pt" xmlns="http://www.w3.org/2000/svg" xmlns:xlink="http://www.w3.org/1999/xlink">
 <metadata>
  <rdf:RDF xmlns:cc="http://creativecommons.org/ns#" xmlns:dc="http://purl.org/dc/elements/1.1/" xmlns:rdf="http://www.w3.org/1999/02/22-rdf-syntax-ns#">
   <cc:Work>
    <dc:type rdf:resource="http://purl.org/dc/dcmitype/StillImage"/>
    <dc:date>2024-01-13T17:09:29.826600</dc:date>
    <dc:format>image/svg+xml</dc:format>
    <dc:creator>
     <cc:Agent>
      <dc:title>Matplotlib v3.4.3, https://matplotlib.org/</dc:title>
     </cc:Agent>
    </dc:creator>
   </cc:Work>
  </rdf:RDF>
 </metadata>
 <defs>
  <style type="text/css">*{stroke-linecap:butt;stroke-linejoin:round;}</style>
 </defs>
 <g id="figure_1">
  <g id="patch_1">
   <path d="M 0 286.062079 
L 402.265312 286.062079 
L 402.265312 0 
L 0 0 
z
" style="fill:none;"/>
  </g>
  <g id="axes_1">
   <g id="patch_2">
    <path d="M 60.265313 240.262079 
L 395.065313 240.262079 
L 395.065313 18.502079 
L 60.265313 18.502079 
z
" style="fill:none;"/>
   </g>
   <g id="PathCollection_1">
    <defs>
     <path d="M 0 2.5 
C 0.663008 2.5 1.29895 2.236584 1.767767 1.767767 
C 2.236584 1.29895 2.5 0.663008 2.5 -0 
C 2.5 -0.663008 2.236584 -1.29895 1.767767 -1.767767 
C 1.29895 -2.236584 0.663008 -2.5 0 -2.5 
C -0.663008 -2.5 -1.29895 -2.236584 -1.767767 -1.767767 
C -2.236584 -1.29895 -2.5 -0.663008 -2.5 0 
C -2.5 0.663008 -2.236584 1.29895 -1.767767 1.767767 
C -1.29895 2.236584 -0.663008 2.5 0 2.5 
z
" id="C0_0_f583af5ac4"/>
    </defs>
    <g clip-path="url(#p58e0228c97)">
     <use style="fill:#fbc5f4;" x="87.189659" xlink:href="#C0_0_f583af5ac4" y="66.911699"/>
    </g>
    <g clip-path="url(#p58e0228c97)">
     <use style="fill:#fbc5f4;" x="86.995126" xlink:href="#C0_0_f583af5ac4" y="67.485093"/>
    </g>
    <g clip-path="url(#p58e0228c97)">
     <use style="fill:#fbc5f4;" x="85.815628" xlink:href="#C0_0_f583af5ac4" y="82.994617"/>
    </g>
    <g clip-path="url(#p58e0228c97)">
     <use style="fill:#fbc5f4;" x="86.596193" xlink:href="#C0_0_f583af5ac4" y="64.746204"/>
    </g>
    <g clip-path="url(#p58e0228c97)">
     <use style="fill:#fbc5f4;" x="86.385041" xlink:href="#C0_0_f583af5ac4" y="90.011189"/>
    </g>
    <g clip-path="url(#p58e0228c97)">
     <use style="fill:#fbc5f4;" x="85.690937" xlink:href="#C0_0_f583af5ac4" y="69.585225"/>
    </g>
    <g clip-path="url(#p58e0228c97)">
     <use style="fill:#fbc5f4;" x="85.554215" xlink:href="#C0_0_f583af5ac4" y="77.766564"/>
    </g>
    <g clip-path="url(#p58e0228c97)">
     <use style="fill:#fbc5f4;" x="84.98427" xlink:href="#C0_0_f583af5ac4" y="62.498257"/>
    </g>
    <g clip-path="url(#p58e0228c97)">
     <use style="fill:#fbc5f4;" x="87.411669" xlink:href="#C0_0_f583af5ac4" y="70.719514"/>
    </g>
    <g clip-path="url(#p58e0228c97)">
     <use style="fill:#fbc5f4;" x="86.080428" xlink:href="#C0_0_f583af5ac4" y="71.387953"/>
    </g>
   </g>
   <g id="PathCollection_2">
    <defs>
     <path d="M 0 2.5 
C 0.663008 2.5 1.29895 2.236584 1.767767 1.767767 
C 2.236584 1.29895 2.5 0.663008 2.5 -0 
C 2.5 -0.663008 2.236584 -1.29895 1.767767 -1.767767 
C 1.29895 -2.236584 0.663008 -2.5 0 -2.5 
C -0.663008 -2.5 -1.29895 -2.236584 -1.767767 -1.767767 
C -2.236584 -1.29895 -2.5 -0.663008 -2.5 0 
C -2.5 0.663008 -2.236584 1.29895 -1.767767 1.767767 
C -1.29895 2.236584 -0.663008 2.5 0 2.5 
z
" id="C1_0_d71fb6bac6"/>
    </defs>
    <g clip-path="url(#p58e0228c97)">
     <use style="fill:#ffb7bc;" x="97.90179" xlink:href="#C1_0_d71fb6bac6" y="68.867177"/>
    </g>
    <g clip-path="url(#p58e0228c97)">
     <use style="fill:#ffb7bc;" x="98.577094" xlink:href="#C1_0_d71fb6bac6" y="65.503809"/>
    </g>
    <g clip-path="url(#p58e0228c97)">
     <use style="fill:#ffb7bc;" x="99.669898" xlink:href="#C1_0_d71fb6bac6" y="63.793004"/>
    </g>
    <g clip-path="url(#p58e0228c97)">
     <use style="fill:#ffb7bc;" x="98.045188" xlink:href="#C1_0_d71fb6bac6" y="73.473207"/>
    </g>
    <g clip-path="url(#p58e0228c97)">
     <use style="fill:#ffb7bc;" x="100.983946" xlink:href="#C1_0_d71fb6bac6" y="64.469946"/>
    </g>
    <g clip-path="url(#p58e0228c97)">
     <use style="fill:#ffb7bc;" x="97.989443" xlink:href="#C1_0_d71fb6bac6" y="68.715103"/>
    </g>
    <g clip-path="url(#p58e0228c97)">
     <use style="fill:#ffb7bc;" x="98.240518" xlink:href="#C1_0_d71fb6bac6" y="67.294563"/>
    </g>
    <g clip-path="url(#p58e0228c97)">
     <use style="fill:#ffb7bc;" x="98.138655" xlink:href="#C1_0_d71fb6bac6" y="64.450861"/>
    </g>
    <g clip-path="url(#p58e0228c97)">
     <use style="fill:#ffb7bc;" x="98.122308" xlink:href="#C1_0_d71fb6bac6" y="66.300465"/>
    </g>
    <g clip-path="url(#p58e0228c97)">
     <use style="fill:#ffb7bc;" x="99.507296" xlink:href="#C1_0_d71fb6bac6" y="71.856512"/>
    </g>
   </g>
   <g id="PathCollection_3">
    <defs>
     <path d="M 0 2.5 
C 0.663008 2.5 1.29895 2.236584 1.767767 1.767767 
C 2.236584 1.29895 2.5 0.663008 2.5 -0 
C 2.5 -0.663008 2.236584 -1.29895 1.767767 -1.767767 
C 1.29895 -2.236584 0.663008 -2.5 0 -2.5 
C -0.663008 -2.5 -1.29895 -2.236584 -1.767767 -1.767767 
C -2.236584 -1.29895 -2.5 -0.663008 -2.5 0 
C -2.5 0.663008 -2.236584 1.29895 -1.767767 1.767767 
C -1.29895 2.236584 -0.663008 2.5 0 2.5 
z
" id="C2_0_87198d190f"/>
    </defs>
    <g clip-path="url(#p58e0228c97)">
     <use style="fill:#bdc0ff;" x="111.79251" xlink:href="#C2_0_87198d190f" y="69.189401"/>
    </g>
    <g clip-path="url(#p58e0228c97)">
     <use style="fill:#bdc0ff;" x="114.430068" xlink:href="#C2_0_87198d190f" y="65.676904"/>
    </g>
    <g clip-path="url(#p58e0228c97)">
     <use style="fill:#bdc0ff;" x="113.935628" xlink:href="#C2_0_87198d190f" y="62.334239"/>
    </g>
    <g clip-path="url(#p58e0228c97)">
     <use style="fill:#bdc0ff;" x="114.729982" xlink:href="#C2_0_87198d190f" y="65.959047"/>
    </g>
    <g clip-path="url(#p58e0228c97)">
     <use style="fill:#bdc0ff;" x="114.599137" xlink:href="#C2_0_87198d190f" y="72.044027"/>
    </g>
    <g clip-path="url(#p58e0228c97)">
     <use style="fill:#bdc0ff;" x="111.970787" xlink:href="#C2_0_87198d190f" y="72.132581"/>
    </g>
    <g clip-path="url(#p58e0228c97)">
     <use style="fill:#bdc0ff;" x="112.257298" xlink:href="#C2_0_87198d190f" y="71.767721"/>
    </g>
    <g clip-path="url(#p58e0228c97)">
     <use style="fill:#bdc0ff;" x="113.375192" xlink:href="#C2_0_87198d190f" y="63.410619"/>
    </g>
    <g clip-path="url(#p58e0228c97)">
     <use style="fill:#bdc0ff;" x="113.059461" xlink:href="#C2_0_87198d190f" y="61.243438"/>
    </g>
    <g clip-path="url(#p58e0228c97)">
     <use style="fill:#bdc0ff;" x="111.512388" xlink:href="#C2_0_87198d190f" y="64.870397"/>
    </g>
   </g>
   <g id="PathCollection_4">
    <defs>
     <path d="M 0 2.5 
C 0.663008 2.5 1.29895 2.236584 1.767767 1.767767 
C 2.236584 1.29895 2.5 0.663008 2.5 -0 
C 2.5 -0.663008 2.236584 -1.29895 1.767767 -1.767767 
C 1.29895 -2.236584 0.663008 -2.5 0 -2.5 
C -0.663008 -2.5 -1.29895 -2.236584 -1.767767 -1.767767 
C -2.236584 -1.29895 -2.5 -0.663008 -2.5 0 
C -2.5 0.663008 -2.236584 1.29895 -1.767767 1.767767 
C -1.29895 2.236584 -0.663008 2.5 0 2.5 
z
" id="C3_0_f4f53d53d1"/>
    </defs>
    <g clip-path="url(#p58e0228c97)">
     <use style="fill:#fbc5f4;" x="138.105264" xlink:href="#C3_0_f4f53d53d1" y="71.215571"/>
    </g>
    <g clip-path="url(#p58e0228c97)">
     <use style="fill:#fbc5f4;" x="135.692291" xlink:href="#C3_0_f4f53d53d1" y="74.03336"/>
    </g>
    <g clip-path="url(#p58e0228c97)">
     <use style="fill:#fbc5f4;" x="137.814097" xlink:href="#C3_0_f4f53d53d1" y="80.070976"/>
    </g>
    <g clip-path="url(#p58e0228c97)">
     <use style="fill:#fbc5f4;" x="138.319874" xlink:href="#C3_0_f4f53d53d1" y="79.269581"/>
    </g>
    <g clip-path="url(#p58e0228c97)">
     <use style="fill:#fbc5f4;" x="138.369009" xlink:href="#C3_0_f4f53d53d1" y="83.189098"/>
    </g>
    <g clip-path="url(#p58e0228c97)">
     <use style="fill:#fbc5f4;" x="138.074971" xlink:href="#C3_0_f4f53d53d1" y="87.377806"/>
    </g>
    <g clip-path="url(#p58e0228c97)">
     <use style="fill:#fbc5f4;" x="136.574654" xlink:href="#C3_0_f4f53d53d1" y="69.859095"/>
    </g>
    <g clip-path="url(#p58e0228c97)">
     <use style="fill:#fbc5f4;" x="138.506089" xlink:href="#C3_0_f4f53d53d1" y="80.38262"/>
    </g>
    <g clip-path="url(#p58e0228c97)">
     <use style="fill:#fbc5f4;" x="135.743875" xlink:href="#C3_0_f4f53d53d1" y="69.944592"/>
    </g>
    <g clip-path="url(#p58e0228c97)">
     <use style="fill:#fbc5f4;" x="135.969787" xlink:href="#C3_0_f4f53d53d1" y="75.858358"/>
    </g>
   </g>
   <g id="PathCollection_5">
    <defs>
     <path d="M 0 2.5 
C 0.663008 2.5 1.29895 2.236584 1.767767 1.767767 
C 2.236584 1.29895 2.5 0.663008 2.5 -0 
C 2.5 -0.663008 2.236584 -1.29895 1.767767 -1.767767 
C 1.29895 -2.236584 0.663008 -2.5 0 -2.5 
C -0.663008 -2.5 -1.29895 -2.236584 -1.767767 -1.767767 
C -2.236584 -1.29895 -2.5 -0.663008 -2.5 0 
C -2.5 0.663008 -2.236584 1.29895 -1.767767 1.767767 
C -1.29895 2.236584 -0.663008 2.5 0 2.5 
z
" id="C4_0_638f307d3b"/>
    </defs>
    <g clip-path="url(#p58e0228c97)">
     <use style="fill:#ffb7bc;" x="151.722717" xlink:href="#C4_0_638f307d3b" y="76.207695"/>
    </g>
    <g clip-path="url(#p58e0228c97)">
     <use style="fill:#ffb7bc;" x="151.501055" xlink:href="#C4_0_638f307d3b" y="75.076204"/>
    </g>
    <g clip-path="url(#p58e0228c97)">
     <use style="fill:#ffb7bc;" x="149.096999" xlink:href="#C4_0_638f307d3b" y="70.125351"/>
    </g>
    <g clip-path="url(#p58e0228c97)">
     <use style="fill:#ffb7bc;" x="151.250322" xlink:href="#C4_0_638f307d3b" y="83.845127"/>
    </g>
    <g clip-path="url(#p58e0228c97)">
     <use style="fill:#ffb7bc;" x="151.806675" xlink:href="#C4_0_638f307d3b" y="67.638788"/>
    </g>
    <g clip-path="url(#p58e0228c97)">
     <use style="fill:#ffb7bc;" x="152.368261" xlink:href="#C4_0_638f307d3b" y="67.980274"/>
    </g>
    <g clip-path="url(#p58e0228c97)">
     <use style="fill:#ffb7bc;" x="150.324486" xlink:href="#C4_0_638f307d3b" y="73.343653"/>
    </g>
    <g clip-path="url(#p58e0228c97)">
     <use style="fill:#ffb7bc;" x="151.214756" xlink:href="#C4_0_638f307d3b" y="74.216865"/>
    </g>
    <g clip-path="url(#p58e0228c97)">
     <use style="fill:#ffb7bc;" x="150.059604" xlink:href="#C4_0_638f307d3b" y="72.689826"/>
    </g>
    <g clip-path="url(#p58e0228c97)">
     <use style="fill:#ffb7bc;" x="149.178837" xlink:href="#C4_0_638f307d3b" y="74.225782"/>
    </g>
   </g>
   <g id="PathCollection_6">
    <defs>
     <path d="M 0 2.5 
C 0.663008 2.5 1.29895 2.236584 1.767767 1.767767 
C 2.236584 1.29895 2.5 0.663008 2.5 -0 
C 2.5 -0.663008 2.236584 -1.29895 1.767767 -1.767767 
C 1.29895 -2.236584 0.663008 -2.5 0 -2.5 
C -0.663008 -2.5 -1.29895 -2.236584 -1.767767 -1.767767 
C -2.236584 -1.29895 -2.5 -0.663008 -2.5 0 
C -2.5 0.663008 -2.236584 1.29895 -1.767767 1.767767 
C -1.29895 2.236584 -0.663008 2.5 0 2.5 
z
" id="C5_0_84741169c5"/>
    </defs>
    <g clip-path="url(#p58e0228c97)">
     <use style="fill:#bdc0ff;" x="164.3959" xlink:href="#C5_0_84741169c5" y="79.106872"/>
    </g>
    <g clip-path="url(#p58e0228c97)">
     <use style="fill:#bdc0ff;" x="162.993162" xlink:href="#C5_0_84741169c5" y="71.509036"/>
    </g>
    <g clip-path="url(#p58e0228c97)">
     <use style="fill:#bdc0ff;" x="164.6507" xlink:href="#C5_0_84741169c5" y="65.22091"/>
    </g>
    <g clip-path="url(#p58e0228c97)">
     <use style="fill:#bdc0ff;" x="165.856069" xlink:href="#C5_0_84741169c5" y="81.305621"/>
    </g>
    <g clip-path="url(#p58e0228c97)">
     <use style="fill:#bdc0ff;" x="162.866017" xlink:href="#C5_0_84741169c5" y="70.068489"/>
    </g>
    <g clip-path="url(#p58e0228c97)">
     <use style="fill:#bdc0ff;" x="164.301746" xlink:href="#C5_0_84741169c5" y="78.460388"/>
    </g>
    <g clip-path="url(#p58e0228c97)">
     <use style="fill:#bdc0ff;" x="165.449437" xlink:href="#C5_0_84741169c5" y="79.467807"/>
    </g>
    <g clip-path="url(#p58e0228c97)">
     <use style="fill:#bdc0ff;" x="164.446422" xlink:href="#C5_0_84741169c5" y="67.706187"/>
    </g>
    <g clip-path="url(#p58e0228c97)">
     <use style="fill:#bdc0ff;" x="164.554544" xlink:href="#C5_0_84741169c5" y="68.512561"/>
    </g>
    <g clip-path="url(#p58e0228c97)">
     <use style="fill:#bdc0ff;" x="165.653833" xlink:href="#C5_0_84741169c5" y="78.157082"/>
    </g>
   </g>
   <g id="PathCollection_7">
    <defs>
     <path d="M 0 2.5 
C 0.663008 2.5 1.29895 2.236584 1.767767 1.767767 
C 2.236584 1.29895 2.5 0.663008 2.5 -0 
C 2.5 -0.663008 2.236584 -1.29895 1.767767 -1.767767 
C 1.29895 -2.236584 0.663008 -2.5 0 -2.5 
C -0.663008 -2.5 -1.29895 -2.236584 -1.767767 -1.767767 
C -2.236584 -1.29895 -2.5 -0.663008 -2.5 0 
C -2.5 0.663008 -2.236584 1.29895 -1.767767 1.767767 
C -1.29895 2.236584 -0.663008 2.5 0 2.5 
z
" id="C6_0_c10c2e930f"/>
    </defs>
    <g clip-path="url(#p58e0228c97)">
     <use style="fill:#fbc5f4;" x="187.315726" xlink:href="#C6_0_c10c2e930f" y="50.840748"/>
    </g>
    <g clip-path="url(#p58e0228c97)">
     <use style="fill:#fbc5f4;" x="187.83523" xlink:href="#C6_0_c10c2e930f" y="71.68693"/>
    </g>
    <g clip-path="url(#p58e0228c97)">
     <use style="fill:#fbc5f4;" x="190.077765" xlink:href="#C6_0_c10c2e930f" y="62.126945"/>
    </g>
    <g clip-path="url(#p58e0228c97)">
     <use style="fill:#fbc5f4;" x="188.283945" xlink:href="#C6_0_c10c2e930f" y="59.641448"/>
    </g>
    <g clip-path="url(#p58e0228c97)">
     <use style="fill:#fbc5f4;" x="189.672693" xlink:href="#C6_0_c10c2e930f" y="63.628668"/>
    </g>
    <g clip-path="url(#p58e0228c97)">
     <use style="fill:#fbc5f4;" x="187.521452" xlink:href="#C6_0_c10c2e930f" y="57.041434"/>
    </g>
    <g clip-path="url(#p58e0228c97)">
     <use style="fill:#fbc5f4;" x="188.438854" xlink:href="#C6_0_c10c2e930f" y="64.810194"/>
    </g>
    <g clip-path="url(#p58e0228c97)">
     <use style="fill:#fbc5f4;" x="187.642571" xlink:href="#C6_0_c10c2e930f" y="53.740935"/>
    </g>
    <g clip-path="url(#p58e0228c97)">
     <use style="fill:#fbc5f4;" x="186.984495" xlink:href="#C6_0_c10c2e930f" y="63.20061"/>
    </g>
    <g clip-path="url(#p58e0228c97)">
     <use style="fill:#fbc5f4;" x="189.177893" xlink:href="#C6_0_c10c2e930f" y="63.45949"/>
    </g>
   </g>
   <g id="PathCollection_8">
    <defs>
     <path d="M 0 2.5 
C 0.663008 2.5 1.29895 2.236584 1.767767 1.767767 
C 2.236584 1.29895 2.5 0.663008 2.5 -0 
C 2.5 -0.663008 2.236584 -1.29895 1.767767 -1.767767 
C 1.29895 -2.236584 0.663008 -2.5 0 -2.5 
C -0.663008 -2.5 -1.29895 -2.236584 -1.767767 -1.767767 
C -2.236584 -1.29895 -2.5 -0.663008 -2.5 0 
C -2.5 0.663008 -2.236584 1.29895 -1.767767 1.767767 
C -1.29895 2.236584 -0.663008 2.5 0 2.5 
z
" id="C7_0_6ea80f5043"/>
    </defs>
    <g clip-path="url(#p58e0228c97)">
     <use style="fill:#ffb7bc;" x="203.632256" xlink:href="#C7_0_6ea80f5043" y="58.452125"/>
    </g>
    <g clip-path="url(#p58e0228c97)">
     <use style="fill:#ffb7bc;" x="200.91086" xlink:href="#C7_0_6ea80f5043" y="60.998894"/>
    </g>
    <g clip-path="url(#p58e0228c97)">
     <use style="fill:#ffb7bc;" x="201.67004" xlink:href="#C7_0_6ea80f5043" y="56.510648"/>
    </g>
    <g clip-path="url(#p58e0228c97)">
     <use style="fill:#ffb7bc;" x="202.224599" xlink:href="#C7_0_6ea80f5043" y="71.855401"/>
    </g>
    <g clip-path="url(#p58e0228c97)">
     <use style="fill:#ffb7bc;" x="203.117976" xlink:href="#C7_0_6ea80f5043" y="62.983089"/>
    </g>
    <g clip-path="url(#p58e0228c97)">
     <use style="fill:#ffb7bc;" x="200.653502" xlink:href="#C7_0_6ea80f5043" y="58.713446"/>
    </g>
    <g clip-path="url(#p58e0228c97)">
     <use style="fill:#ffb7bc;" x="202.209071" xlink:href="#C7_0_6ea80f5043" y="62.633033"/>
    </g>
    <g clip-path="url(#p58e0228c97)">
     <use style="fill:#ffb7bc;" x="201.549995" xlink:href="#C7_0_6ea80f5043" y="65.078923"/>
    </g>
    <g clip-path="url(#p58e0228c97)">
     <use style="fill:#ffb7bc;" x="201.288677" xlink:href="#C7_0_6ea80f5043" y="62.453103"/>
    </g>
    <g clip-path="url(#p58e0228c97)">
     <use style="fill:#ffb7bc;" x="203.451767" xlink:href="#C7_0_6ea80f5043" y="62.416916"/>
    </g>
   </g>
   <g id="PathCollection_9">
    <defs>
     <path d="M 0 2.5 
C 0.663008 2.5 1.29895 2.236584 1.767767 1.767767 
C 2.236584 1.29895 2.5 0.663008 2.5 -0 
C 2.5 -0.663008 2.236584 -1.29895 1.767767 -1.767767 
C 1.29895 -2.236584 0.663008 -2.5 0 -2.5 
C -0.663008 -2.5 -1.29895 -2.236584 -1.767767 -1.767767 
C -2.236584 -1.29895 -2.5 -0.663008 -2.5 0 
C -2.5 0.663008 -2.236584 1.29895 -1.767767 1.767767 
C -1.29895 2.236584 -0.663008 2.5 0 2.5 
z
" id="C8_0_c43482edc6"/>
    </defs>
    <g clip-path="url(#p58e0228c97)">
     <use style="fill:#bdc0ff;" x="215.633074" xlink:href="#C8_0_c43482edc6" y="62.558311"/>
    </g>
    <g clip-path="url(#p58e0228c97)">
     <use style="fill:#bdc0ff;" x="216.843513" xlink:href="#C8_0_c43482edc6" y="58.121495"/>
    </g>
    <g clip-path="url(#p58e0228c97)">
     <use style="fill:#bdc0ff;" x="215.732876" xlink:href="#C8_0_c43482edc6" y="58.15707"/>
    </g>
    <g clip-path="url(#p58e0228c97)">
     <use style="fill:#bdc0ff;" x="215.660823" xlink:href="#C8_0_c43482edc6" y="59.293969"/>
    </g>
    <g clip-path="url(#p58e0228c97)">
     <use style="fill:#bdc0ff;" x="215.883165" xlink:href="#C8_0_c43482edc6" y="65.640612"/>
    </g>
    <g clip-path="url(#p58e0228c97)">
     <use style="fill:#bdc0ff;" x="216.736633" xlink:href="#C8_0_c43482edc6" y="61.90317"/>
    </g>
    <g clip-path="url(#p58e0228c97)">
     <use style="fill:#bdc0ff;" x="217.150718" xlink:href="#C8_0_c43482edc6" y="61.23647"/>
    </g>
    <g clip-path="url(#p58e0228c97)">
     <use style="fill:#bdc0ff;" x="216.916155" xlink:href="#C8_0_c43482edc6" y="59.238286"/>
    </g>
    <g clip-path="url(#p58e0228c97)">
     <use style="fill:#bdc0ff;" x="217.153944" xlink:href="#C8_0_c43482edc6" y="61.293275"/>
    </g>
    <g clip-path="url(#p58e0228c97)">
     <use style="fill:#bdc0ff;" x="217.218731" xlink:href="#C8_0_c43482edc6" y="64.2113"/>
    </g>
   </g>
   <g id="PathCollection_10">
    <defs>
     <path d="M 0 2.5 
C 0.663008 2.5 1.29895 2.236584 1.767767 1.767767 
C 2.236584 1.29895 2.5 0.663008 2.5 -0 
C 2.5 -0.663008 2.236584 -1.29895 1.767767 -1.767767 
C 1.29895 -2.236584 0.663008 -2.5 0 -2.5 
C -0.663008 -2.5 -1.29895 -2.236584 -1.767767 -1.767767 
C -2.236584 -1.29895 -2.5 -0.663008 -2.5 0 
C -2.5 0.663008 -2.236584 1.29895 -1.767767 1.767767 
C -1.29895 2.236584 -0.663008 2.5 0 2.5 
z
" id="C9_0_c30bba1719"/>
    </defs>
    <g clip-path="url(#p58e0228c97)">
     <use style="fill:#fbc5f4;" x="240.862893" xlink:href="#C9_0_c30bba1719" y="58.802815"/>
    </g>
    <g clip-path="url(#p58e0228c97)">
     <use style="fill:#fbc5f4;" x="241.073004" xlink:href="#C9_0_c30bba1719" y="61.40339"/>
    </g>
    <g clip-path="url(#p58e0228c97)">
     <use style="fill:#fbc5f4;" x="241.297618" xlink:href="#C9_0_c30bba1719" y="58.826665"/>
    </g>
    <g clip-path="url(#p58e0228c97)">
     <use style="fill:#fbc5f4;" x="240.057618" xlink:href="#C9_0_c30bba1719" y="60.208402"/>
    </g>
    <g clip-path="url(#p58e0228c97)">
     <use style="fill:#fbc5f4;" x="240.127738" xlink:href="#C9_0_c30bba1719" y="59.141358"/>
    </g>
    <g clip-path="url(#p58e0228c97)">
     <use style="fill:#fbc5f4;" x="239.25055" xlink:href="#C9_0_c30bba1719" y="52.027945"/>
    </g>
    <g clip-path="url(#p58e0228c97)">
     <use style="fill:#fbc5f4;" x="239.84927" xlink:href="#C9_0_c30bba1719" y="55.214857"/>
    </g>
    <g clip-path="url(#p58e0228c97)">
     <use style="fill:#fbc5f4;" x="241.294961" xlink:href="#C9_0_c30bba1719" y="54.77217"/>
    </g>
    <g clip-path="url(#p58e0228c97)">
     <use style="fill:#fbc5f4;" x="240.696389" xlink:href="#C9_0_c30bba1719" y="54.728034"/>
    </g>
    <g clip-path="url(#p58e0228c97)">
     <use style="fill:#fbc5f4;" x="239.087172" xlink:href="#C9_0_c30bba1719" y="64.078698"/>
    </g>
   </g>
   <g id="PathCollection_11">
    <defs>
     <path d="M 0 2.5 
C 0.663008 2.5 1.29895 2.236584 1.767767 1.767767 
C 2.236584 1.29895 2.5 0.663008 2.5 -0 
C 2.5 -0.663008 2.236584 -1.29895 1.767767 -1.767767 
C 1.29895 -2.236584 0.663008 -2.5 0 -2.5 
C -0.663008 -2.5 -1.29895 -2.236584 -1.767767 -1.767767 
C -2.236584 -1.29895 -2.5 -0.663008 -2.5 0 
C -2.5 0.663008 -2.236584 1.29895 -1.767767 1.767767 
C -1.29895 2.236584 -0.663008 2.5 0 2.5 
z
" id="Ca_0_4bfa032a8a"/>
    </defs>
    <g clip-path="url(#p58e0228c97)">
     <use style="fill:#ffb7bc;" x="252.529583" xlink:href="#Ca_0_4bfa032a8a" y="60.088926"/>
    </g>
    <g clip-path="url(#p58e0228c97)">
     <use style="fill:#ffb7bc;" x="254.031186" xlink:href="#Ca_0_4bfa032a8a" y="56.68299"/>
    </g>
    <g clip-path="url(#p58e0228c97)">
     <use style="fill:#ffb7bc;" x="254.505238" xlink:href="#Ca_0_4bfa032a8a" y="51.56462"/>
    </g>
    <g clip-path="url(#p58e0228c97)">
     <use style="fill:#ffb7bc;" x="253.252518" xlink:href="#Ca_0_4bfa032a8a" y="60.379627"/>
    </g>
    <g clip-path="url(#p58e0228c97)">
     <use style="fill:#ffb7bc;" x="254.651626" xlink:href="#Ca_0_4bfa032a8a" y="54.94756"/>
    </g>
    <g clip-path="url(#p58e0228c97)">
     <use style="fill:#ffb7bc;" x="252.039915" xlink:href="#Ca_0_4bfa032a8a" y="58.551755"/>
    </g>
    <g clip-path="url(#p58e0228c97)">
     <use style="fill:#ffb7bc;" x="252.066406" xlink:href="#Ca_0_4bfa032a8a" y="55.115729"/>
    </g>
    <g clip-path="url(#p58e0228c97)">
     <use style="fill:#ffb7bc;" x="254.845219" xlink:href="#Ca_0_4bfa032a8a" y="59.884643"/>
    </g>
    <g clip-path="url(#p58e0228c97)">
     <use style="fill:#ffb7bc;" x="253.431823" xlink:href="#Ca_0_4bfa032a8a" y="56.082796"/>
    </g>
    <g clip-path="url(#p58e0228c97)">
     <use style="fill:#ffb7bc;" x="253.105592" xlink:href="#Ca_0_4bfa032a8a" y="56.64537"/>
    </g>
   </g>
   <g id="PathCollection_12">
    <defs>
     <path d="M 0 2.5 
C 0.663008 2.5 1.29895 2.236584 1.767767 1.767767 
C 2.236584 1.29895 2.5 0.663008 2.5 -0 
C 2.5 -0.663008 2.236584 -1.29895 1.767767 -1.767767 
C 1.29895 -2.236584 0.663008 -2.5 0 -2.5 
C -0.663008 -2.5 -1.29895 -2.236584 -1.767767 -1.767767 
C -2.236584 -1.29895 -2.5 -0.663008 -2.5 0 
C -2.5 0.663008 -2.236584 1.29895 -1.767767 1.767767 
C -1.29895 2.236584 -0.663008 2.5 0 2.5 
z
" id="Cb_0_92f41ecde5"/>
    </defs>
    <g clip-path="url(#p58e0228c97)">
     <use style="fill:#bdc0ff;" x="267.142802" xlink:href="#Cb_0_92f41ecde5" y="57.721334"/>
    </g>
    <g clip-path="url(#p58e0228c97)">
     <use style="fill:#bdc0ff;" x="265.815198" xlink:href="#Cb_0_92f41ecde5" y="64.673856"/>
    </g>
    <g clip-path="url(#p58e0228c97)">
     <use style="fill:#bdc0ff;" x="265.789033" xlink:href="#Cb_0_92f41ecde5" y="56.01737"/>
    </g>
    <g clip-path="url(#p58e0228c97)">
     <use style="fill:#bdc0ff;" x="267.364295" xlink:href="#Cb_0_92f41ecde5" y="57.943082"/>
    </g>
    <g clip-path="url(#p58e0228c97)">
     <use style="fill:#bdc0ff;" x="265.410377" xlink:href="#Cb_0_92f41ecde5" y="59.00507"/>
    </g>
    <g clip-path="url(#p58e0228c97)">
     <use style="fill:#bdc0ff;" x="266.101078" xlink:href="#Cb_0_92f41ecde5" y="55.536379"/>
    </g>
    <g clip-path="url(#p58e0228c97)">
     <use style="fill:#bdc0ff;" x="267.949916" xlink:href="#Cb_0_92f41ecde5" y="52.119719"/>
    </g>
    <g clip-path="url(#p58e0228c97)">
     <use style="fill:#bdc0ff;" x="266.326993" xlink:href="#Cb_0_92f41ecde5" y="54.051363"/>
    </g>
    <g clip-path="url(#p58e0228c97)">
     <use style="fill:#bdc0ff;" x="268.376993" xlink:href="#Cb_0_92f41ecde5" y="54.65057"/>
    </g>
    <g clip-path="url(#p58e0228c97)">
     <use style="fill:#bdc0ff;" x="265.524412" xlink:href="#Cb_0_92f41ecde5" y="60.571056"/>
    </g>
   </g>
   <g id="PathCollection_13">
    <defs>
     <path d="M 0 2.5 
C 0.663008 2.5 1.29895 2.236584 1.767767 1.767767 
C 2.236584 1.29895 2.5 0.663008 2.5 -0 
C 2.5 -0.663008 2.236584 -1.29895 1.767767 -1.767767 
C 1.29895 -2.236584 0.663008 -2.5 0 -2.5 
C -0.663008 -2.5 -1.29895 -2.236584 -1.767767 -1.767767 
C -2.236584 -1.29895 -2.5 -0.663008 -2.5 0 
C -2.5 0.663008 -2.236584 1.29895 -1.767767 1.767767 
C -1.29895 2.236584 -0.663008 2.5 0 2.5 
z
" id="Cc_0_0a6328890b"/>
    </defs>
    <g clip-path="url(#p58e0228c97)">
     <use style="fill:#fbc5f4;" x="289.965358" xlink:href="#Cc_0_0a6328890b" y="84.925049"/>
    </g>
    <g clip-path="url(#p58e0228c97)">
     <use style="fill:#fbc5f4;" x="291.347592" xlink:href="#Cc_0_0a6328890b" y="85.214112"/>
    </g>
    <g clip-path="url(#p58e0228c97)">
     <use style="fill:#fbc5f4;" x="290.601133" xlink:href="#Cc_0_0a6328890b" y="80.629805"/>
    </g>
    <g clip-path="url(#p58e0228c97)">
     <use style="fill:#fbc5f4;" x="291.991726" xlink:href="#Cc_0_0a6328890b" y="86.653317"/>
    </g>
    <g clip-path="url(#p58e0228c97)">
     <use style="fill:#fbc5f4;" x="290.724977" xlink:href="#Cc_0_0a6328890b" y="80.449898"/>
    </g>
    <g clip-path="url(#p58e0228c97)">
     <use style="fill:#fbc5f4;" x="292.156341" xlink:href="#Cc_0_0a6328890b" y="80.589564"/>
    </g>
    <g clip-path="url(#p58e0228c97)">
     <use style="fill:#fbc5f4;" x="291.673187" xlink:href="#Cc_0_0a6328890b" y="84.132763"/>
    </g>
    <g clip-path="url(#p58e0228c97)">
     <use style="fill:#fbc5f4;" x="292.25036" xlink:href="#Cc_0_0a6328890b" y="87.282476"/>
    </g>
    <g clip-path="url(#p58e0228c97)">
     <use style="fill:#fbc5f4;" x="289.220781" xlink:href="#Cc_0_0a6328890b" y="82.185598"/>
    </g>
    <g clip-path="url(#p58e0228c97)">
     <use style="fill:#fbc5f4;" x="291.627467" xlink:href="#Cc_0_0a6328890b" y="83.649146"/>
    </g>
   </g>
   <g id="PathCollection_14">
    <defs>
     <path d="M 0 2.5 
C 0.663008 2.5 1.29895 2.236584 1.767767 1.767767 
C 2.236584 1.29895 2.5 0.663008 2.5 -0 
C 2.5 -0.663008 2.236584 -1.29895 1.767767 -1.767767 
C 1.29895 -2.236584 0.663008 -2.5 0 -2.5 
C -0.663008 -2.5 -1.29895 -2.236584 -1.767767 -1.767767 
C -2.236584 -1.29895 -2.5 -0.663008 -2.5 0 
C -2.5 0.663008 -2.236584 1.29895 -1.767767 1.767767 
C -1.29895 2.236584 -0.663008 2.5 0 2.5 
z
" id="Cd_0_2193369a14"/>
    </defs>
    <g clip-path="url(#p58e0228c97)">
     <use style="fill:#ffb7bc;" x="304.883332" xlink:href="#Cd_0_2193369a14" y="73.545809"/>
    </g>
    <g clip-path="url(#p58e0228c97)">
     <use style="fill:#ffb7bc;" x="304.321949" xlink:href="#Cd_0_2193369a14" y="77.071435"/>
    </g>
    <g clip-path="url(#p58e0228c97)">
     <use style="fill:#ffb7bc;" x="303.559214" xlink:href="#Cd_0_2193369a14" y="68.779937"/>
    </g>
    <g clip-path="url(#p58e0228c97)">
     <use style="fill:#ffb7bc;" x="304.455488" xlink:href="#Cd_0_2193369a14" y="89.680553"/>
    </g>
    <g clip-path="url(#p58e0228c97)">
     <use style="fill:#ffb7bc;" x="304.580762" xlink:href="#Cd_0_2193369a14" y="64.91889"/>
    </g>
    <g clip-path="url(#p58e0228c97)">
     <use style="fill:#ffb7bc;" x="304.93062" xlink:href="#Cd_0_2193369a14" y="75.139887"/>
    </g>
    <g clip-path="url(#p58e0228c97)">
     <use style="fill:#ffb7bc;" x="303.288224" xlink:href="#Cd_0_2193369a14" y="71.554322"/>
    </g>
    <g clip-path="url(#p58e0228c97)">
     <use style="fill:#ffb7bc;" x="304.183612" xlink:href="#Cd_0_2193369a14" y="72.109963"/>
    </g>
    <g clip-path="url(#p58e0228c97)">
     <use style="fill:#ffb7bc;" x="305.1449" xlink:href="#Cd_0_2193369a14" y="76.887918"/>
    </g>
    <g clip-path="url(#p58e0228c97)">
     <use style="fill:#ffb7bc;" x="305.883226" xlink:href="#Cd_0_2193369a14" y="76.255096"/>
    </g>
   </g>
   <g id="PathCollection_15">
    <defs>
     <path d="M 0 2.5 
C 0.663008 2.5 1.29895 2.236584 1.767767 1.767767 
C 2.236584 1.29895 2.5 0.663008 2.5 -0 
C 2.5 -0.663008 2.236584 -1.29895 1.767767 -1.767767 
C 1.29895 -2.236584 0.663008 -2.5 0 -2.5 
C -0.663008 -2.5 -1.29895 -2.236584 -1.767767 -1.767767 
C -2.236584 -1.29895 -2.5 -0.663008 -2.5 0 
C -2.5 0.663008 -2.236584 1.29895 -1.767767 1.767767 
C -1.29895 2.236584 -0.663008 2.5 0 2.5 
z
" id="Ce_0_5843dbd447"/>
    </defs>
    <g clip-path="url(#p58e0228c97)">
     <use style="fill:#bdc0ff;" x="317.708194" xlink:href="#Ce_0_5843dbd447" y="76.364517"/>
    </g>
    <g clip-path="url(#p58e0228c97)">
     <use style="fill:#bdc0ff;" x="317.754266" xlink:href="#Ce_0_5843dbd447" y="70.722618"/>
    </g>
    <g clip-path="url(#p58e0228c97)">
     <use style="fill:#bdc0ff;" x="319.112958" xlink:href="#Ce_0_5843dbd447" y="72.887924"/>
    </g>
    <g clip-path="url(#p58e0228c97)">
     <use style="fill:#bdc0ff;" x="316.643216" xlink:href="#Ce_0_5843dbd447" y="80.91269"/>
    </g>
    <g clip-path="url(#p58e0228c97)">
     <use style="fill:#bdc0ff;" x="317.194352" xlink:href="#Ce_0_5843dbd447" y="71.366796"/>
    </g>
    <g clip-path="url(#p58e0228c97)">
     <use style="fill:#bdc0ff;" x="318.921658" xlink:href="#Ce_0_5843dbd447" y="76.64168"/>
    </g>
    <g clip-path="url(#p58e0228c97)">
     <use style="fill:#bdc0ff;" x="319.767" xlink:href="#Ce_0_5843dbd447" y="73.088927"/>
    </g>
    <g clip-path="url(#p58e0228c97)">
     <use style="fill:#bdc0ff;" x="316.534278" xlink:href="#Ce_0_5843dbd447" y="73.813693"/>
    </g>
    <g clip-path="url(#p58e0228c97)">
     <use style="fill:#bdc0ff;" x="318.520764" xlink:href="#Ce_0_5843dbd447" y="72.489122"/>
    </g>
    <g clip-path="url(#p58e0228c97)">
     <use style="fill:#bdc0ff;" x="318.157981" xlink:href="#Ce_0_5843dbd447" y="72.6899"/>
    </g>
   </g>
   <g id="PathCollection_16">
    <defs>
     <path d="M 0 2.5 
C 0.663008 2.5 1.29895 2.236584 1.767767 1.767767 
C 2.236584 1.29895 2.5 0.663008 2.5 -0 
C 2.5 -0.663008 2.236584 -1.29895 1.767767 -1.767767 
C 1.29895 -2.236584 0.663008 -2.5 0 -2.5 
C -0.663008 -2.5 -1.29895 -2.236584 -1.767767 -1.767767 
C -2.236584 -1.29895 -2.5 -0.663008 -2.5 0 
C -2.5 0.663008 -2.236584 1.29895 -1.767767 1.767767 
C -1.29895 2.236584 -0.663008 2.5 0 2.5 
z
" id="Cf_0_5e4bb78952"/>
    </defs>
    <g clip-path="url(#p58e0228c97)">
     <use style="fill:#fbc5f4;" x="340.654819" xlink:href="#Cf_0_5e4bb78952" y="182.020659"/>
    </g>
    <g clip-path="url(#p58e0228c97)">
     <use style="fill:#fbc5f4;" x="343.050094" xlink:href="#Cf_0_5e4bb78952" y="203.565903"/>
    </g>
    <g clip-path="url(#p58e0228c97)">
     <use style="fill:#fbc5f4;" x="341.315316" xlink:href="#Cf_0_5e4bb78952" y="219.052982"/>
    </g>
    <g clip-path="url(#p58e0228c97)">
     <use style="fill:#fbc5f4;" x="342.785604" xlink:href="#Cf_0_5e4bb78952" y="192.738783"/>
    </g>
    <g clip-path="url(#p58e0228c97)">
     <use style="fill:#fbc5f4;" x="341.414649" xlink:href="#Cf_0_5e4bb78952" y="214.157592"/>
    </g>
    <g clip-path="url(#p58e0228c97)">
     <use style="fill:#fbc5f4;" x="342.247279" xlink:href="#Cf_0_5e4bb78952" y="196.144219"/>
    </g>
    <g clip-path="url(#p58e0228c97)">
     <use style="fill:#fbc5f4;" x="343.482034" xlink:href="#Cf_0_5e4bb78952" y="197.557845"/>
    </g>
    <g clip-path="url(#p58e0228c97)">
     <use style="fill:#fbc5f4;" x="341.949978" xlink:href="#Cf_0_5e4bb78952" y="193.558561"/>
    </g>
    <g clip-path="url(#p58e0228c97)">
     <use style="fill:#fbc5f4;" x="341.258789" xlink:href="#Cf_0_5e4bb78952" y="186.122547"/>
    </g>
    <g clip-path="url(#p58e0228c97)">
     <use style="fill:#fbc5f4;" x="342.408282" xlink:href="#Cf_0_5e4bb78952" y="204.179423"/>
    </g>
   </g>
   <g id="PathCollection_17">
    <defs>
     <path d="M 0 2.5 
C 0.663008 2.5 1.29895 2.236584 1.767767 1.767767 
C 2.236584 1.29895 2.5 0.663008 2.5 -0 
C 2.5 -0.663008 2.236584 -1.29895 1.767767 -1.767767 
C 1.29895 -2.236584 0.663008 -2.5 0 -2.5 
C -0.663008 -2.5 -1.29895 -2.236584 -1.767767 -1.767767 
C -2.236584 -1.29895 -2.5 -0.663008 -2.5 0 
C -2.5 0.663008 -2.236584 1.29895 -1.767767 1.767767 
C -1.29895 2.236584 -0.663008 2.5 0 2.5 
z
" id="C10_0_94b2c6211d"/>
    </defs>
    <g clip-path="url(#p58e0228c97)">
     <use style="fill:#ffb7bc;" x="355.811565" xlink:href="#C10_0_94b2c6211d" y="136.271054"/>
    </g>
    <g clip-path="url(#p58e0228c97)">
     <use style="fill:#ffb7bc;" x="354.666835" xlink:href="#C10_0_94b2c6211d" y="130.572736"/>
    </g>
    <g clip-path="url(#p58e0228c97)">
     <use style="fill:#ffb7bc;" x="354.282693" xlink:href="#C10_0_94b2c6211d" y="122.954155"/>
    </g>
    <g clip-path="url(#p58e0228c97)">
     <use style="fill:#ffb7bc;" x="355.915357" xlink:href="#C10_0_94b2c6211d" y="151.664936"/>
    </g>
    <g clip-path="url(#p58e0228c97)">
     <use style="fill:#ffb7bc;" x="355.800619" xlink:href="#C10_0_94b2c6211d" y="123.819001"/>
    </g>
    <g clip-path="url(#p58e0228c97)">
     <use style="fill:#ffb7bc;" x="355.846986" xlink:href="#C10_0_94b2c6211d" y="128.946487"/>
    </g>
    <g clip-path="url(#p58e0228c97)">
     <use style="fill:#ffb7bc;" x="354.274201" xlink:href="#C10_0_94b2c6211d" y="131.55348"/>
    </g>
    <g clip-path="url(#p58e0228c97)">
     <use style="fill:#ffb7bc;" x="356.304187" xlink:href="#C10_0_94b2c6211d" y="131.11823"/>
    </g>
    <g clip-path="url(#p58e0228c97)">
     <use style="fill:#ffb7bc;" x="355.285348" xlink:href="#C10_0_94b2c6211d" y="133.298999"/>
    </g>
    <g clip-path="url(#p58e0228c97)">
     <use style="fill:#ffb7bc;" x="354.774802" xlink:href="#C10_0_94b2c6211d" y="137.994634"/>
    </g>
   </g>
   <g id="PathCollection_18">
    <defs>
     <path d="M 0 2.5 
C 0.663008 2.5 1.29895 2.236584 1.767767 1.767767 
C 2.236584 1.29895 2.5 0.663008 2.5 -0 
C 2.5 -0.663008 2.236584 -1.29895 1.767767 -1.767767 
C 1.29895 -2.236584 0.663008 -2.5 0 -2.5 
C -0.663008 -2.5 -1.29895 -2.236584 -1.767767 -1.767767 
C -2.236584 -1.29895 -2.5 -0.663008 -2.5 0 
C -2.5 0.663008 -2.236584 1.29895 -1.767767 1.767767 
C -1.29895 2.236584 -0.663008 2.5 0 2.5 
z
" id="C11_0_9f13de5faa"/>
    </defs>
    <g clip-path="url(#p58e0228c97)">
     <use style="fill:#bdc0ff;" x="367.850581" xlink:href="#C11_0_9f13de5faa" y="138.761178"/>
    </g>
    <g clip-path="url(#p58e0228c97)">
     <use style="fill:#bdc0ff;" x="370.60902" xlink:href="#C11_0_9f13de5faa" y="128.087612"/>
    </g>
    <g clip-path="url(#p58e0228c97)">
     <use style="fill:#bdc0ff;" x="369.822862" xlink:href="#C11_0_9f13de5faa" y="126.831076"/>
    </g>
    <g clip-path="url(#p58e0228c97)">
     <use style="fill:#bdc0ff;" x="370.782738" xlink:href="#C11_0_9f13de5faa" y="137.253783"/>
    </g>
    <g clip-path="url(#p58e0228c97)">
     <use style="fill:#bdc0ff;" x="369.624681" xlink:href="#C11_0_9f13de5faa" y="132.816652"/>
    </g>
    <g clip-path="url(#p58e0228c97)">
     <use style="fill:#bdc0ff;" x="368.574623" xlink:href="#C11_0_9f13de5faa" y="141.22149"/>
    </g>
    <g clip-path="url(#p58e0228c97)">
     <use style="fill:#bdc0ff;" x="369.876194" xlink:href="#C11_0_9f13de5faa" y="138.013459"/>
    </g>
    <g clip-path="url(#p58e0228c97)">
     <use style="fill:#bdc0ff;" x="370.95209" xlink:href="#C11_0_9f13de5faa" y="125.524578"/>
    </g>
    <g clip-path="url(#p58e0228c97)">
     <use style="fill:#bdc0ff;" x="368.152333" xlink:href="#C11_0_9f13de5faa" y="123.460809"/>
    </g>
    <g clip-path="url(#p58e0228c97)">
     <use style="fill:#bdc0ff;" x="369.174564" xlink:href="#C11_0_9f13de5faa" y="139.226716"/>
    </g>
   </g>
   <g id="patch_3">
    <path clip-path="url(#p58e0228c97)" d="M 79.191761 76.171912 
L 92.583761 76.171912 
L 92.583761 67.055048 
L 79.191761 67.055048 
L 79.191761 76.171912 
z
" style="fill:#f4ccef;stroke:#000000;stroke-linejoin:miter;"/>
   </g>
   <g id="patch_4">
    <path clip-path="url(#p58e0228c97)" d="M 92.857068 68.829158 
L 106.249068 68.829158 
L 106.249068 64.728411 
L 92.857068 64.728411 
L 92.857068 68.829158 
z
" style="fill:#f6c0c4;stroke:#000000;stroke-linejoin:miter;"/>
   </g>
   <g id="patch_5">
    <path clip-path="url(#p58e0228c97)" d="M 106.522374 71.123141 
L 119.914374 71.123141 
L 119.914374 63.775564 
L 106.522374 63.775564 
L 106.522374 71.123141 
z
" style="fill:#c5c7f7;stroke:#000000;stroke-linejoin:miter;"/>
   </g>
   <g id="patch_6">
    <path clip-path="url(#p58e0228c97)" d="M 130.436659 80.304709 
L 143.828659 80.304709 
L 143.828659 71.920018 
L 130.436659 71.920018 
L 130.436659 80.304709 
z
" style="fill:#f4ccef;stroke:#000000;stroke-linejoin:miter;"/>
   </g>
   <g id="patch_7">
    <path clip-path="url(#p58e0228c97)" d="M 144.101966 74.863598 
L 157.493966 74.863598 
L 157.493966 70.76647 
L 144.101966 70.76647 
L 144.101966 74.863598 
z
" style="fill:#f6c0c4;stroke:#000000;stroke-linejoin:miter;"/>
   </g>
   <g id="patch_8">
    <path clip-path="url(#p58e0228c97)" d="M 157.767272 78.945251 
L 171.159272 78.945251 
L 171.159272 68.901543 
L 157.767272 68.901543 
L 157.767272 78.945251 
z
" style="fill:#c5c7f7;stroke:#000000;stroke-linejoin:miter;"/>
   </g>
   <g id="patch_9">
    <path clip-path="url(#p58e0228c97)" d="M 181.681557 63.586373 
L 195.073557 63.586373 
L 195.073557 57.691438 
L 181.681557 57.691438 
L 181.681557 63.586373 
z
" style="fill:#f4ccef;stroke:#000000;stroke-linejoin:miter;"/>
   </g>
   <g id="patch_10">
    <path clip-path="url(#p58e0228c97)" d="M 195.346864 62.895575 
L 208.738864 62.895575 
L 208.738864 59.284808 
L 195.346864 59.284808 
L 195.346864 62.895575 
z
" style="fill:#f6c0c4;stroke:#000000;stroke-linejoin:miter;"/>
   </g>
   <g id="patch_11">
    <path clip-path="url(#p58e0228c97)" d="M 209.01217 62.394525 
L 222.40417 62.394525 
L 222.40417 59.252207 
L 209.01217 59.252207 
L 209.01217 62.394525 
z
" style="fill:#c5c7f7;stroke:#000000;stroke-linejoin:miter;"/>
   </g>
   <g id="patch_12">
    <path clip-path="url(#p58e0228c97)" d="M 232.926455 59.941641 
L 246.318455 59.941641 
L 246.318455 54.882841 
L 232.926455 54.882841 
L 232.926455 59.941641 
z
" style="fill:#f4ccef;stroke:#000000;stroke-linejoin:miter;"/>
   </g>
   <g id="patch_13">
    <path clip-path="url(#p58e0228c97)" d="M 246.591761 59.551421 
L 259.983761 59.551421 
L 259.983761 55.357495 
L 246.591761 55.357495 
L 246.591761 59.551421 
z
" style="fill:#f6c0c4;stroke:#000000;stroke-linejoin:miter;"/>
   </g>
   <g id="patch_14">
    <path clip-path="url(#p58e0228c97)" d="M 260.257068 58.739573 
L 273.649068 58.739573 
L 273.649068 54.872022 
L 260.257068 54.872022 
L 260.257068 58.739573 
z
" style="fill:#c5c7f7;stroke:#000000;stroke-linejoin:miter;"/>
   </g>
   <g id="patch_15">
    <path clip-path="url(#p58e0228c97)" d="M 284.171353 85.141846 
L 297.563353 85.141846 
L 297.563353 81.018754 
L 284.171353 81.018754 
L 284.171353 85.141846 
z
" style="fill:#f4ccef;stroke:#000000;stroke-linejoin:miter;"/>
   </g>
   <g id="patch_16">
    <path clip-path="url(#p58e0228c97)" d="M 297.836659 76.729713 
L 311.228659 76.729713 
L 311.228659 71.693233 
L 297.836659 71.693233 
L 297.836659 76.729713 
z
" style="fill:#f6c0c4;stroke:#000000;stroke-linejoin:miter;"/>
   </g>
   <g id="patch_17">
    <path clip-path="url(#p58e0228c97)" d="M 311.501966 75.726811 
L 324.893966 75.726811 
L 324.893966 72.539317 
L 311.501966 72.539317 
L 311.501966 75.726811 
z
" style="fill:#c5c7f7;stroke:#000000;stroke-linejoin:miter;"/>
   </g>
   <g id="patch_18">
    <path clip-path="url(#p58e0228c97)" d="M 335.416251 204.026043 
L 348.808251 204.026043 
L 348.808251 192.943728 
L 335.416251 192.943728 
L 335.416251 204.026043 
z
" style="fill:#f4ccef;stroke:#000000;stroke-linejoin:miter;"/>
   </g>
   <g id="patch_19">
    <path clip-path="url(#p58e0228c97)" d="M 349.081557 135.52804 
L 362.473557 135.52804 
L 362.473557 129.353049 
L 349.081557 129.353049 
L 349.081557 135.52804 
z
" style="fill:#f6c0c4;stroke:#000000;stroke-linejoin:miter;"/>
   </g>
   <g id="patch_20">
    <path clip-path="url(#p58e0228c97)" d="M 362.746864 138.574248 
L 376.138864 138.574248 
L 376.138864 127.14521 
L 362.746864 127.14521 
L 362.746864 138.574248 
z
" style="fill:#c5c7f7;stroke:#000000;stroke-linejoin:miter;"/>
   </g>
   <g id="PathCollection_19"/>
   <g id="PathCollection_20"/>
   <g id="PathCollection_21"/>
   <g id="patch_21">
    <path clip-path="url(#p58e0228c97)" d="M 99.553068 3714.502079 
L 99.553068 3714.502079 
L 99.553068 3714.502079 
L 99.553068 3714.502079 
z
" style="fill:#f4ccef;stroke:#838383;stroke-linejoin:miter;stroke-width:0.75;"/>
   </g>
   <g id="patch_22">
    <path clip-path="url(#p58e0228c97)" d="M 99.553068 3714.502079 
L 99.553068 3714.502079 
L 99.553068 3714.502079 
L 99.553068 3714.502079 
z
" style="fill:#f6c0c4;stroke:#838383;stroke-linejoin:miter;stroke-width:0.75;"/>
   </g>
   <g id="patch_23">
    <path clip-path="url(#p58e0228c97)" d="M 99.553068 3714.502079 
L 99.553068 3714.502079 
L 99.553068 3714.502079 
L 99.553068 3714.502079 
z
" style="fill:#c5c7f7;stroke:#838383;stroke-linejoin:miter;stroke-width:0.75;"/>
   </g>
   <g id="matplotlib.axis_1">
    <g id="xtick_1">
     <g id="line2d_1">
      <defs>
       <path d="M 0 0 
L 0 3.5 
" id="m97bd1081fa" style="stroke:#000000;stroke-width:1.5;"/>
      </defs>
      <g>
       <use style="stroke:#000000;stroke-width:1.5;" x="99.553068" xlink:href="#m97bd1081fa" y="240.262079"/>
      </g>
     </g>
     <g id="text_1">
      <!-- Parity -->
      <g transform="translate(81.660411 257.283017)scale(0.14 -0.14)">
       <defs>
        <path d="M 494 0 
L 494 4581 
L 2222 4581 
Q 2678 4581 2919 4538 
Q 3256 4481 3484 4323 
Q 3713 4166 3852 3881 
Q 3991 3597 3991 3256 
Q 3991 2672 3619 2267 
Q 3247 1863 2275 1863 
L 1100 1863 
L 1100 0 
L 494 0 
z
M 1100 2403 
L 2284 2403 
Q 2872 2403 3119 2622 
Q 3366 2841 3366 3238 
Q 3366 3525 3220 3729 
Q 3075 3934 2838 4000 
Q 2684 4041 2272 4041 
L 1100 4041 
L 1100 2403 
z
" id="ArialMT-50" transform="scale(0.015625)"/>
        <path d="M 2588 409 
Q 2275 144 1986 34 
Q 1697 -75 1366 -75 
Q 819 -75 525 192 
Q 231 459 231 875 
Q 231 1119 342 1320 
Q 453 1522 633 1644 
Q 813 1766 1038 1828 
Q 1203 1872 1538 1913 
Q 2219 1994 2541 2106 
Q 2544 2222 2544 2253 
Q 2544 2597 2384 2738 
Q 2169 2928 1744 2928 
Q 1347 2928 1158 2789 
Q 969 2650 878 2297 
L 328 2372 
Q 403 2725 575 2942 
Q 747 3159 1072 3276 
Q 1397 3394 1825 3394 
Q 2250 3394 2515 3294 
Q 2781 3194 2906 3042 
Q 3031 2891 3081 2659 
Q 3109 2516 3109 2141 
L 3109 1391 
Q 3109 606 3145 398 
Q 3181 191 3288 0 
L 2700 0 
Q 2613 175 2588 409 
z
M 2541 1666 
Q 2234 1541 1622 1453 
Q 1275 1403 1131 1340 
Q 988 1278 909 1158 
Q 831 1038 831 891 
Q 831 666 1001 516 
Q 1172 366 1500 366 
Q 1825 366 2078 508 
Q 2331 650 2450 897 
Q 2541 1088 2541 1459 
L 2541 1666 
z
" id="ArialMT-61" transform="scale(0.015625)"/>
        <path d="M 416 0 
L 416 3319 
L 922 3319 
L 922 2816 
Q 1116 3169 1280 3281 
Q 1444 3394 1641 3394 
Q 1925 3394 2219 3213 
L 2025 2691 
Q 1819 2813 1613 2813 
Q 1428 2813 1281 2702 
Q 1134 2591 1072 2394 
Q 978 2094 978 1738 
L 978 0 
L 416 0 
z
" id="ArialMT-72" transform="scale(0.015625)"/>
        <path d="M 425 3934 
L 425 4581 
L 988 4581 
L 988 3934 
L 425 3934 
z
M 425 0 
L 425 3319 
L 988 3319 
L 988 0 
L 425 0 
z
" id="ArialMT-69" transform="scale(0.015625)"/>
        <path d="M 1650 503 
L 1731 6 
Q 1494 -44 1306 -44 
Q 1000 -44 831 53 
Q 663 150 594 308 
Q 525 466 525 972 
L 525 2881 
L 113 2881 
L 113 3319 
L 525 3319 
L 525 4141 
L 1084 4478 
L 1084 3319 
L 1650 3319 
L 1650 2881 
L 1084 2881 
L 1084 941 
Q 1084 700 1114 631 
Q 1144 563 1211 522 
Q 1278 481 1403 481 
Q 1497 481 1650 503 
z
" id="ArialMT-74" transform="scale(0.015625)"/>
        <path d="M 397 -1278 
L 334 -750 
Q 519 -800 656 -800 
Q 844 -800 956 -737 
Q 1069 -675 1141 -563 
Q 1194 -478 1313 -144 
Q 1328 -97 1363 -6 
L 103 3319 
L 709 3319 
L 1400 1397 
Q 1534 1031 1641 628 
Q 1738 1016 1872 1384 
L 2581 3319 
L 3144 3319 
L 1881 -56 
Q 1678 -603 1566 -809 
Q 1416 -1088 1222 -1217 
Q 1028 -1347 759 -1347 
Q 597 -1347 397 -1278 
z
" id="ArialMT-79" transform="scale(0.015625)"/>
       </defs>
       <use xlink:href="#ArialMT-50"/>
       <use x="66.699219" xlink:href="#ArialMT-61"/>
       <use x="122.314453" xlink:href="#ArialMT-72"/>
       <use x="155.615234" xlink:href="#ArialMT-69"/>
       <use x="177.832031" xlink:href="#ArialMT-74"/>
       <use x="205.615234" xlink:href="#ArialMT-79"/>
      </g>
     </g>
    </g>
    <g id="xtick_2">
     <g id="line2d_2">
      <g>
       <use style="stroke:#000000;stroke-width:1.5;" x="150.797966" xlink:href="#m97bd1081fa" y="240.262079"/>
      </g>
     </g>
     <g id="text_2">
      <!-- Value -->
      <g transform="translate(133.411716 257.283017)scale(0.14 -0.14)">
       <defs>
        <path d="M 1803 0 
L 28 4581 
L 684 4581 
L 1875 1253 
Q 2019 853 2116 503 
Q 2222 878 2363 1253 
L 3600 4581 
L 4219 4581 
L 2425 0 
L 1803 0 
z
" id="ArialMT-56" transform="scale(0.015625)"/>
        <path d="M 409 0 
L 409 4581 
L 972 4581 
L 972 0 
L 409 0 
z
" id="ArialMT-6c" transform="scale(0.015625)"/>
        <path d="M 2597 0 
L 2597 488 
Q 2209 -75 1544 -75 
Q 1250 -75 995 37 
Q 741 150 617 320 
Q 494 491 444 738 
Q 409 903 409 1263 
L 409 3319 
L 972 3319 
L 972 1478 
Q 972 1038 1006 884 
Q 1059 663 1231 536 
Q 1403 409 1656 409 
Q 1909 409 2131 539 
Q 2353 669 2445 892 
Q 2538 1116 2538 1541 
L 2538 3319 
L 3100 3319 
L 3100 0 
L 2597 0 
z
" id="ArialMT-75" transform="scale(0.015625)"/>
        <path d="M 2694 1069 
L 3275 997 
Q 3138 488 2766 206 
Q 2394 -75 1816 -75 
Q 1088 -75 661 373 
Q 234 822 234 1631 
Q 234 2469 665 2931 
Q 1097 3394 1784 3394 
Q 2450 3394 2872 2941 
Q 3294 2488 3294 1666 
Q 3294 1616 3291 1516 
L 816 1516 
Q 847 969 1125 678 
Q 1403 388 1819 388 
Q 2128 388 2347 550 
Q 2566 713 2694 1069 
z
M 847 1978 
L 2700 1978 
Q 2663 2397 2488 2606 
Q 2219 2931 1791 2931 
Q 1403 2931 1139 2672 
Q 875 2413 847 1978 
z
" id="ArialMT-65" transform="scale(0.015625)"/>
       </defs>
       <use xlink:href="#ArialMT-56"/>
       <use x="59.324219" xlink:href="#ArialMT-61"/>
       <use x="114.939453" xlink:href="#ArialMT-6c"/>
       <use x="137.15625" xlink:href="#ArialMT-75"/>
       <use x="192.771484" xlink:href="#ArialMT-65"/>
      </g>
     </g>
    </g>
    <g id="xtick_3">
     <g id="line2d_3">
      <g>
       <use style="stroke:#000000;stroke-width:1.5;" x="202.042864" xlink:href="#m97bd1081fa" y="240.262079"/>
      </g>
     </g>
     <g id="text_3">
      <!-- Prime -->
      <g transform="translate(183.764114 257.283017)scale(0.14 -0.14)">
       <defs>
        <path d="M 422 0 
L 422 3319 
L 925 3319 
L 925 2853 
Q 1081 3097 1340 3245 
Q 1600 3394 1931 3394 
Q 2300 3394 2536 3241 
Q 2772 3088 2869 2813 
Q 3263 3394 3894 3394 
Q 4388 3394 4653 3120 
Q 4919 2847 4919 2278 
L 4919 0 
L 4359 0 
L 4359 2091 
Q 4359 2428 4304 2576 
Q 4250 2725 4106 2815 
Q 3963 2906 3769 2906 
Q 3419 2906 3187 2673 
Q 2956 2441 2956 1928 
L 2956 0 
L 2394 0 
L 2394 2156 
Q 2394 2531 2256 2718 
Q 2119 2906 1806 2906 
Q 1569 2906 1367 2781 
Q 1166 2656 1075 2415 
Q 984 2175 984 1722 
L 984 0 
L 422 0 
z
" id="ArialMT-6d" transform="scale(0.015625)"/>
       </defs>
       <use xlink:href="#ArialMT-50"/>
       <use x="66.699219" xlink:href="#ArialMT-72"/>
       <use x="100" xlink:href="#ArialMT-69"/>
       <use x="122.216797" xlink:href="#ArialMT-6d"/>
       <use x="205.517578" xlink:href="#ArialMT-65"/>
      </g>
     </g>
    </g>
    <g id="xtick_4">
     <g id="line2d_4">
      <g>
       <use style="stroke:#000000;stroke-width:1.5;" x="253.287761" xlink:href="#m97bd1081fa" y="240.262079"/>
      </g>
     </g>
     <g id="text_4">
      <!-- Fib. -->
      <g transform="translate(241.619636 257.283017)scale(0.14 -0.14)">
       <defs>
        <path d="M 525 0 
L 525 4581 
L 3616 4581 
L 3616 4041 
L 1131 4041 
L 1131 2622 
L 3281 2622 
L 3281 2081 
L 1131 2081 
L 1131 0 
L 525 0 
z
" id="ArialMT-46" transform="scale(0.015625)"/>
        <path d="M 941 0 
L 419 0 
L 419 4581 
L 981 4581 
L 981 2947 
Q 1338 3394 1891 3394 
Q 2197 3394 2470 3270 
Q 2744 3147 2920 2923 
Q 3097 2700 3197 2384 
Q 3297 2069 3297 1709 
Q 3297 856 2875 390 
Q 2453 -75 1863 -75 
Q 1275 -75 941 416 
L 941 0 
z
M 934 1684 
Q 934 1088 1097 822 
Q 1363 388 1816 388 
Q 2184 388 2453 708 
Q 2722 1028 2722 1663 
Q 2722 2313 2464 2622 
Q 2206 2931 1841 2931 
Q 1472 2931 1203 2611 
Q 934 2291 934 1684 
z
" id="ArialMT-62" transform="scale(0.015625)"/>
        <path d="M 581 0 
L 581 641 
L 1222 641 
L 1222 0 
L 581 0 
z
" id="ArialMT-2e" transform="scale(0.015625)"/>
       </defs>
       <use xlink:href="#ArialMT-46"/>
       <use x="61.083984" xlink:href="#ArialMT-69"/>
       <use x="83.300781" xlink:href="#ArialMT-62"/>
       <use x="138.916016" xlink:href="#ArialMT-2e"/>
      </g>
     </g>
    </g>
    <g id="xtick_5">
     <g id="line2d_5">
      <g>
       <use style="stroke:#000000;stroke-width:1.5;" x="304.532659" xlink:href="#m97bd1081fa" y="240.262079"/>
      </g>
     </g>
     <g id="text_5">
      <!-- Mul3 -->
      <g transform="translate(289.361253 257.283017)scale(0.14 -0.14)">
       <defs>
        <path d="M 475 0 
L 475 4581 
L 1388 4581 
L 2472 1338 
Q 2622 884 2691 659 
Q 2769 909 2934 1394 
L 4031 4581 
L 4847 4581 
L 4847 0 
L 4263 0 
L 4263 3834 
L 2931 0 
L 2384 0 
L 1059 3900 
L 1059 0 
L 475 0 
z
" id="ArialMT-4d" transform="scale(0.015625)"/>
        <path d="M 269 1209 
L 831 1284 
Q 928 806 1161 595 
Q 1394 384 1728 384 
Q 2125 384 2398 659 
Q 2672 934 2672 1341 
Q 2672 1728 2419 1979 
Q 2166 2231 1775 2231 
Q 1616 2231 1378 2169 
L 1441 2663 
Q 1497 2656 1531 2656 
Q 1891 2656 2178 2843 
Q 2466 3031 2466 3422 
Q 2466 3731 2256 3934 
Q 2047 4138 1716 4138 
Q 1388 4138 1169 3931 
Q 950 3725 888 3313 
L 325 3413 
Q 428 3978 793 4289 
Q 1159 4600 1703 4600 
Q 2078 4600 2393 4439 
Q 2709 4278 2876 4000 
Q 3044 3722 3044 3409 
Q 3044 3113 2884 2869 
Q 2725 2625 2413 2481 
Q 2819 2388 3044 2092 
Q 3269 1797 3269 1353 
Q 3269 753 2831 336 
Q 2394 -81 1725 -81 
Q 1122 -81 723 278 
Q 325 638 269 1209 
z
" id="ArialMT-33" transform="scale(0.015625)"/>
       </defs>
       <use xlink:href="#ArialMT-4d"/>
       <use x="83.300781" xlink:href="#ArialMT-75"/>
       <use x="138.916016" xlink:href="#ArialMT-6c"/>
       <use x="161.132812" xlink:href="#ArialMT-33"/>
      </g>
     </g>
    </g>
    <g id="xtick_6">
     <g id="line2d_6">
      <g>
       <use style="stroke:#000000;stroke-width:1.5;" x="355.777557" xlink:href="#m97bd1081fa" y="240.262079"/>
      </g>
     </g>
     <g id="text_6">
      <!-- Joint -->
      <g transform="translate(340.992245 257.283017)scale(0.14 -0.14)">
       <defs>
        <path d="M 184 1300 
L 731 1375 
Q 753 850 928 656 
Q 1103 463 1413 463 
Q 1641 463 1806 567 
Q 1972 672 2034 851 
Q 2097 1031 2097 1425 
L 2097 4581 
L 2703 4581 
L 2703 1459 
Q 2703 884 2564 568 
Q 2425 253 2123 87 
Q 1822 -78 1416 -78 
Q 813 -78 492 269 
Q 172 616 184 1300 
z
" id="ArialMT-4a" transform="scale(0.015625)"/>
        <path d="M 213 1659 
Q 213 2581 725 3025 
Q 1153 3394 1769 3394 
Q 2453 3394 2887 2945 
Q 3322 2497 3322 1706 
Q 3322 1066 3130 698 
Q 2938 331 2570 128 
Q 2203 -75 1769 -75 
Q 1072 -75 642 372 
Q 213 819 213 1659 
z
M 791 1659 
Q 791 1022 1069 705 
Q 1347 388 1769 388 
Q 2188 388 2466 706 
Q 2744 1025 2744 1678 
Q 2744 2294 2464 2611 
Q 2184 2928 1769 2928 
Q 1347 2928 1069 2612 
Q 791 2297 791 1659 
z
" id="ArialMT-6f" transform="scale(0.015625)"/>
        <path d="M 422 0 
L 422 3319 
L 928 3319 
L 928 2847 
Q 1294 3394 1984 3394 
Q 2284 3394 2536 3286 
Q 2788 3178 2913 3003 
Q 3038 2828 3088 2588 
Q 3119 2431 3119 2041 
L 3119 0 
L 2556 0 
L 2556 2019 
Q 2556 2363 2490 2533 
Q 2425 2703 2258 2804 
Q 2091 2906 1866 2906 
Q 1506 2906 1245 2678 
Q 984 2450 984 1813 
L 984 0 
L 422 0 
z
" id="ArialMT-6e" transform="scale(0.015625)"/>
       </defs>
       <use xlink:href="#ArialMT-4a"/>
       <use x="50" xlink:href="#ArialMT-6f"/>
       <use x="105.615234" xlink:href="#ArialMT-69"/>
       <use x="127.832031" xlink:href="#ArialMT-6e"/>
       <use x="183.447266" xlink:href="#ArialMT-74"/>
      </g>
     </g>
    </g>
    <g id="text_7">
     <!-- Task -->
     <g transform="translate(211.220313 275.682079)scale(0.16 -0.16)">
      <defs>
       <path d="M 1659 0 
L 1659 4041 
L 150 4041 
L 150 4581 
L 3781 4581 
L 3781 4041 
L 2266 4041 
L 2266 0 
L 1659 0 
z
" id="ArialMT-54" transform="scale(0.015625)"/>
       <path d="M 197 991 
L 753 1078 
Q 800 744 1014 566 
Q 1228 388 1613 388 
Q 2000 388 2187 545 
Q 2375 703 2375 916 
Q 2375 1106 2209 1216 
Q 2094 1291 1634 1406 
Q 1016 1563 777 1677 
Q 538 1791 414 1992 
Q 291 2194 291 2438 
Q 291 2659 392 2848 
Q 494 3038 669 3163 
Q 800 3259 1026 3326 
Q 1253 3394 1513 3394 
Q 1903 3394 2198 3281 
Q 2494 3169 2634 2976 
Q 2775 2784 2828 2463 
L 2278 2388 
Q 2241 2644 2061 2787 
Q 1881 2931 1553 2931 
Q 1166 2931 1000 2803 
Q 834 2675 834 2503 
Q 834 2394 903 2306 
Q 972 2216 1119 2156 
Q 1203 2125 1616 2013 
Q 2213 1853 2448 1751 
Q 2684 1650 2818 1456 
Q 2953 1263 2953 975 
Q 2953 694 2789 445 
Q 2625 197 2315 61 
Q 2006 -75 1616 -75 
Q 969 -75 630 194 
Q 291 463 197 991 
z
" id="ArialMT-73" transform="scale(0.015625)"/>
       <path d="M 425 0 
L 425 4581 
L 988 4581 
L 988 1969 
L 2319 3319 
L 3047 3319 
L 1778 2088 
L 3175 0 
L 2481 0 
L 1384 1697 
L 988 1316 
L 988 0 
L 425 0 
z
" id="ArialMT-6b" transform="scale(0.015625)"/>
      </defs>
      <use xlink:href="#ArialMT-54"/>
      <use x="49.958984" xlink:href="#ArialMT-61"/>
      <use x="105.574219" xlink:href="#ArialMT-73"/>
      <use x="155.574219" xlink:href="#ArialMT-6b"/>
     </g>
    </g>
   </g>
   <g id="matplotlib.axis_2">
    <g id="ytick_1">
     <g id="line2d_7">
      <defs>
       <path d="M 0 0 
L -3.5 0 
" id="mfedd8edaea" style="stroke:#000000;stroke-width:1.5;"/>
      </defs>
      <g>
       <use style="stroke:#000000;stroke-width:1.5;" x="60.265313" xlink:href="#mfedd8edaea" y="240.262079"/>
      </g>
     </g>
     <g id="text_8">
      <!-- 0.94 -->
      <g transform="translate(26.02 245.272548)scale(0.14 -0.14)">
       <defs>
        <path d="M 266 2259 
Q 266 3072 433 3567 
Q 600 4063 929 4331 
Q 1259 4600 1759 4600 
Q 2128 4600 2406 4451 
Q 2684 4303 2865 4023 
Q 3047 3744 3150 3342 
Q 3253 2941 3253 2259 
Q 3253 1453 3087 958 
Q 2922 463 2592 192 
Q 2263 -78 1759 -78 
Q 1097 -78 719 397 
Q 266 969 266 2259 
z
M 844 2259 
Q 844 1131 1108 757 
Q 1372 384 1759 384 
Q 2147 384 2411 759 
Q 2675 1134 2675 2259 
Q 2675 3391 2411 3762 
Q 2147 4134 1753 4134 
Q 1366 4134 1134 3806 
Q 844 3388 844 2259 
z
" id="ArialMT-30" transform="scale(0.015625)"/>
        <path d="M 350 1059 
L 891 1109 
Q 959 728 1153 556 
Q 1347 384 1650 384 
Q 1909 384 2104 503 
Q 2300 622 2425 820 
Q 2550 1019 2634 1356 
Q 2719 1694 2719 2044 
Q 2719 2081 2716 2156 
Q 2547 1888 2255 1720 
Q 1963 1553 1622 1553 
Q 1053 1553 659 1965 
Q 266 2378 266 3053 
Q 266 3750 677 4175 
Q 1088 4600 1706 4600 
Q 2153 4600 2523 4359 
Q 2894 4119 3086 3673 
Q 3278 3228 3278 2384 
Q 3278 1506 3087 986 
Q 2897 466 2520 194 
Q 2144 -78 1638 -78 
Q 1100 -78 759 220 
Q 419 519 350 1059 
z
M 2653 3081 
Q 2653 3566 2395 3850 
Q 2138 4134 1775 4134 
Q 1400 4134 1122 3828 
Q 844 3522 844 3034 
Q 844 2597 1108 2323 
Q 1372 2050 1759 2050 
Q 2150 2050 2401 2323 
Q 2653 2597 2653 3081 
z
" id="ArialMT-39" transform="scale(0.015625)"/>
        <path d="M 2069 0 
L 2069 1097 
L 81 1097 
L 81 1613 
L 2172 4581 
L 2631 4581 
L 2631 1613 
L 3250 1613 
L 3250 1097 
L 2631 1097 
L 2631 0 
L 2069 0 
z
M 2069 1613 
L 2069 3678 
L 634 1613 
L 2069 1613 
z
" id="ArialMT-34" transform="scale(0.015625)"/>
       </defs>
       <use xlink:href="#ArialMT-30"/>
       <use x="55.615234" xlink:href="#ArialMT-2e"/>
       <use x="83.398438" xlink:href="#ArialMT-39"/>
       <use x="139.013672" xlink:href="#ArialMT-34"/>
      </g>
     </g>
    </g>
    <g id="ytick_2">
     <g id="line2d_8">
      <g>
       <use style="stroke:#000000;stroke-width:1.5;" x="60.265313" xlink:href="#mfedd8edaea" y="203.302079"/>
      </g>
     </g>
     <g id="text_9">
      <!-- 0.95 -->
      <g transform="translate(26.02 208.312548)scale(0.14 -0.14)">
       <defs>
        <path d="M 266 1200 
L 856 1250 
Q 922 819 1161 601 
Q 1400 384 1738 384 
Q 2144 384 2425 690 
Q 2706 997 2706 1503 
Q 2706 1984 2436 2262 
Q 2166 2541 1728 2541 
Q 1456 2541 1237 2417 
Q 1019 2294 894 2097 
L 366 2166 
L 809 4519 
L 3088 4519 
L 3088 3981 
L 1259 3981 
L 1013 2750 
Q 1425 3038 1878 3038 
Q 2478 3038 2890 2622 
Q 3303 2206 3303 1553 
Q 3303 931 2941 478 
Q 2500 -78 1738 -78 
Q 1113 -78 717 272 
Q 322 622 266 1200 
z
" id="ArialMT-35" transform="scale(0.015625)"/>
       </defs>
       <use xlink:href="#ArialMT-30"/>
       <use x="55.615234" xlink:href="#ArialMT-2e"/>
       <use x="83.398438" xlink:href="#ArialMT-39"/>
       <use x="139.013672" xlink:href="#ArialMT-35"/>
      </g>
     </g>
    </g>
    <g id="ytick_3">
     <g id="line2d_9">
      <g>
       <use style="stroke:#000000;stroke-width:1.5;" x="60.265313" xlink:href="#mfedd8edaea" y="166.342079"/>
      </g>
     </g>
     <g id="text_10">
      <!-- 0.96 -->
      <g transform="translate(26.02 171.352548)scale(0.14 -0.14)">
       <defs>
        <path d="M 3184 3459 
L 2625 3416 
Q 2550 3747 2413 3897 
Q 2184 4138 1850 4138 
Q 1581 4138 1378 3988 
Q 1113 3794 959 3422 
Q 806 3050 800 2363 
Q 1003 2672 1297 2822 
Q 1591 2972 1913 2972 
Q 2475 2972 2870 2558 
Q 3266 2144 3266 1488 
Q 3266 1056 3080 686 
Q 2894 316 2569 119 
Q 2244 -78 1831 -78 
Q 1128 -78 684 439 
Q 241 956 241 2144 
Q 241 3472 731 4075 
Q 1159 4600 1884 4600 
Q 2425 4600 2770 4297 
Q 3116 3994 3184 3459 
z
M 888 1484 
Q 888 1194 1011 928 
Q 1134 663 1356 523 
Q 1578 384 1822 384 
Q 2178 384 2434 671 
Q 2691 959 2691 1453 
Q 2691 1928 2437 2201 
Q 2184 2475 1800 2475 
Q 1419 2475 1153 2201 
Q 888 1928 888 1484 
z
" id="ArialMT-36" transform="scale(0.015625)"/>
       </defs>
       <use xlink:href="#ArialMT-30"/>
       <use x="55.615234" xlink:href="#ArialMT-2e"/>
       <use x="83.398438" xlink:href="#ArialMT-39"/>
       <use x="139.013672" xlink:href="#ArialMT-36"/>
      </g>
     </g>
    </g>
    <g id="ytick_4">
     <g id="line2d_10">
      <g>
       <use style="stroke:#000000;stroke-width:1.5;" x="60.265313" xlink:href="#mfedd8edaea" y="129.382079"/>
      </g>
     </g>
     <g id="text_11">
      <!-- 0.97 -->
      <g transform="translate(26.02 134.392548)scale(0.14 -0.14)">
       <defs>
        <path d="M 303 3981 
L 303 4522 
L 3269 4522 
L 3269 4084 
Q 2831 3619 2401 2847 
Q 1972 2075 1738 1259 
Q 1569 684 1522 0 
L 944 0 
Q 953 541 1156 1306 
Q 1359 2072 1739 2783 
Q 2119 3494 2547 3981 
L 303 3981 
z
" id="ArialMT-37" transform="scale(0.015625)"/>
       </defs>
       <use xlink:href="#ArialMT-30"/>
       <use x="55.615234" xlink:href="#ArialMT-2e"/>
       <use x="83.398438" xlink:href="#ArialMT-39"/>
       <use x="139.013672" xlink:href="#ArialMT-37"/>
      </g>
     </g>
    </g>
    <g id="ytick_5">
     <g id="line2d_11">
      <g>
       <use style="stroke:#000000;stroke-width:1.5;" x="60.265313" xlink:href="#mfedd8edaea" y="92.422079"/>
      </g>
     </g>
     <g id="text_12">
      <!-- 0.98 -->
      <g transform="translate(26.02 97.432548)scale(0.14 -0.14)">
       <defs>
        <path d="M 1131 2484 
Q 781 2613 612 2850 
Q 444 3088 444 3419 
Q 444 3919 803 4259 
Q 1163 4600 1759 4600 
Q 2359 4600 2725 4251 
Q 3091 3903 3091 3403 
Q 3091 3084 2923 2848 
Q 2756 2613 2416 2484 
Q 2838 2347 3058 2040 
Q 3278 1734 3278 1309 
Q 3278 722 2862 322 
Q 2447 -78 1769 -78 
Q 1091 -78 675 323 
Q 259 725 259 1325 
Q 259 1772 486 2073 
Q 713 2375 1131 2484 
z
M 1019 3438 
Q 1019 3113 1228 2906 
Q 1438 2700 1772 2700 
Q 2097 2700 2305 2904 
Q 2513 3109 2513 3406 
Q 2513 3716 2298 3927 
Q 2084 4138 1766 4138 
Q 1444 4138 1231 3931 
Q 1019 3725 1019 3438 
z
M 838 1322 
Q 838 1081 952 856 
Q 1066 631 1291 507 
Q 1516 384 1775 384 
Q 2178 384 2440 643 
Q 2703 903 2703 1303 
Q 2703 1709 2433 1975 
Q 2163 2241 1756 2241 
Q 1359 2241 1098 1978 
Q 838 1716 838 1322 
z
" id="ArialMT-38" transform="scale(0.015625)"/>
       </defs>
       <use xlink:href="#ArialMT-30"/>
       <use x="55.615234" xlink:href="#ArialMT-2e"/>
       <use x="83.398438" xlink:href="#ArialMT-39"/>
       <use x="139.013672" xlink:href="#ArialMT-38"/>
      </g>
     </g>
    </g>
    <g id="ytick_6">
     <g id="line2d_12">
      <g>
       <use style="stroke:#000000;stroke-width:1.5;" x="60.265313" xlink:href="#mfedd8edaea" y="55.462079"/>
      </g>
     </g>
     <g id="text_13">
      <!-- 0.99 -->
      <g transform="translate(26.02 60.472548)scale(0.14 -0.14)">
       <use xlink:href="#ArialMT-30"/>
       <use x="55.615234" xlink:href="#ArialMT-2e"/>
       <use x="83.398438" xlink:href="#ArialMT-39"/>
       <use x="139.013672" xlink:href="#ArialMT-39"/>
      </g>
     </g>
    </g>
    <g id="ytick_7">
     <g id="line2d_13">
      <g>
       <use style="stroke:#000000;stroke-width:1.5;" x="60.265313" xlink:href="#mfedd8edaea" y="18.502079"/>
      </g>
     </g>
     <g id="text_14">
      <!-- 1.00 -->
      <g transform="translate(26.02 23.512548)scale(0.14 -0.14)">
       <defs>
        <path d="M 2384 0 
L 1822 0 
L 1822 3584 
Q 1619 3391 1289 3197 
Q 959 3003 697 2906 
L 697 3450 
Q 1169 3672 1522 3987 
Q 1875 4303 2022 4600 
L 2384 4600 
L 2384 0 
z
" id="ArialMT-31" transform="scale(0.015625)"/>
       </defs>
       <use xlink:href="#ArialMT-31"/>
       <use x="55.615234" xlink:href="#ArialMT-2e"/>
       <use x="83.398438" xlink:href="#ArialMT-30"/>
       <use x="139.013672" xlink:href="#ArialMT-30"/>
      </g>
     </g>
    </g>
    <g id="text_15">
     <!-- Accuracy -->
     <g transform="translate(18.6525 162.279579)rotate(-90)scale(0.16 -0.16)">
      <defs>
       <path d="M -9 0 
L 1750 4581 
L 2403 4581 
L 4278 0 
L 3588 0 
L 3053 1388 
L 1138 1388 
L 634 0 
L -9 0 
z
M 1313 1881 
L 2866 1881 
L 2388 3150 
Q 2169 3728 2063 4100 
Q 1975 3659 1816 3225 
L 1313 1881 
z
" id="ArialMT-41" transform="scale(0.015625)"/>
       <path d="M 2588 1216 
L 3141 1144 
Q 3050 572 2676 248 
Q 2303 -75 1759 -75 
Q 1078 -75 664 370 
Q 250 816 250 1647 
Q 250 2184 428 2587 
Q 606 2991 970 3192 
Q 1334 3394 1763 3394 
Q 2303 3394 2647 3120 
Q 2991 2847 3088 2344 
L 2541 2259 
Q 2463 2594 2264 2762 
Q 2066 2931 1784 2931 
Q 1359 2931 1093 2626 
Q 828 2322 828 1663 
Q 828 994 1084 691 
Q 1341 388 1753 388 
Q 2084 388 2306 591 
Q 2528 794 2588 1216 
z
" id="ArialMT-63" transform="scale(0.015625)"/>
      </defs>
      <use xlink:href="#ArialMT-41"/>
      <use x="66.699219" xlink:href="#ArialMT-63"/>
      <use x="116.699219" xlink:href="#ArialMT-63"/>
      <use x="166.699219" xlink:href="#ArialMT-75"/>
      <use x="222.314453" xlink:href="#ArialMT-72"/>
      <use x="255.615234" xlink:href="#ArialMT-61"/>
      <use x="311.230469" xlink:href="#ArialMT-63"/>
      <use x="361.230469" xlink:href="#ArialMT-79"/>
     </g>
    </g>
   </g>
   <g id="line2d_14">
    <path clip-path="url(#p58e0228c97)" d="M 85.887761 76.171912 
L 85.887761 82.994617 
" style="fill:none;stroke:#000000;stroke-linecap:square;"/>
   </g>
   <g id="line2d_15">
    <path clip-path="url(#p58e0228c97)" d="M 85.887761 67.055048 
L 85.887761 62.498257 
" style="fill:none;stroke:#000000;stroke-linecap:square;"/>
   </g>
   <g id="line2d_16">
    <path clip-path="url(#p58e0228c97)" d="M 82.539761 82.994617 
L 89.235761 82.994617 
" style="fill:none;stroke:#000000;stroke-linecap:square;"/>
   </g>
   <g id="line2d_17">
    <path clip-path="url(#p58e0228c97)" d="M 82.539761 62.498257 
L 89.235761 62.498257 
" style="fill:none;stroke:#000000;stroke-linecap:square;"/>
   </g>
   <g id="line2d_18">
    <path clip-path="url(#p58e0228c97)" d="M 99.553068 68.829158 
L 99.553068 73.473207 
" style="fill:none;stroke:#000000;stroke-linecap:square;"/>
   </g>
   <g id="line2d_19">
    <path clip-path="url(#p58e0228c97)" d="M 99.553068 64.728411 
L 99.553068 63.793004 
" style="fill:none;stroke:#000000;stroke-linecap:square;"/>
   </g>
   <g id="line2d_20">
    <path clip-path="url(#p58e0228c97)" d="M 96.205068 73.473207 
L 102.901068 73.473207 
" style="fill:none;stroke:#000000;stroke-linecap:square;"/>
   </g>
   <g id="line2d_21">
    <path clip-path="url(#p58e0228c97)" d="M 96.205068 63.793004 
L 102.901068 63.793004 
" style="fill:none;stroke:#000000;stroke-linecap:square;"/>
   </g>
   <g id="line2d_22">
    <path clip-path="url(#p58e0228c97)" d="M 113.218374 71.123141 
L 113.218374 72.132581 
" style="fill:none;stroke:#000000;stroke-linecap:square;"/>
   </g>
   <g id="line2d_23">
    <path clip-path="url(#p58e0228c97)" d="M 113.218374 63.775564 
L 113.218374 61.243438 
" style="fill:none;stroke:#000000;stroke-linecap:square;"/>
   </g>
   <g id="line2d_24">
    <path clip-path="url(#p58e0228c97)" d="M 109.870374 72.132581 
L 116.566374 72.132581 
" style="fill:none;stroke:#000000;stroke-linecap:square;"/>
   </g>
   <g id="line2d_25">
    <path clip-path="url(#p58e0228c97)" d="M 109.870374 61.243438 
L 116.566374 61.243438 
" style="fill:none;stroke:#000000;stroke-linecap:square;"/>
   </g>
   <g id="line2d_26">
    <path clip-path="url(#p58e0228c97)" d="M 137.132659 80.304709 
L 137.132659 87.377806 
" style="fill:none;stroke:#000000;stroke-linecap:square;"/>
   </g>
   <g id="line2d_27">
    <path clip-path="url(#p58e0228c97)" d="M 137.132659 71.920018 
L 137.132659 69.859095 
" style="fill:none;stroke:#000000;stroke-linecap:square;"/>
   </g>
   <g id="line2d_28">
    <path clip-path="url(#p58e0228c97)" d="M 133.784659 87.377806 
L 140.480659 87.377806 
" style="fill:none;stroke:#000000;stroke-linecap:square;"/>
   </g>
   <g id="line2d_29">
    <path clip-path="url(#p58e0228c97)" d="M 133.784659 69.859095 
L 140.480659 69.859095 
" style="fill:none;stroke:#000000;stroke-linecap:square;"/>
   </g>
   <g id="line2d_30">
    <path clip-path="url(#p58e0228c97)" d="M 150.797966 74.863598 
L 150.797966 76.207695 
" style="fill:none;stroke:#000000;stroke-linecap:square;"/>
   </g>
   <g id="line2d_31">
    <path clip-path="url(#p58e0228c97)" d="M 150.797966 70.76647 
L 150.797966 67.638788 
" style="fill:none;stroke:#000000;stroke-linecap:square;"/>
   </g>
   <g id="line2d_32">
    <path clip-path="url(#p58e0228c97)" d="M 147.449966 76.207695 
L 154.145966 76.207695 
" style="fill:none;stroke:#000000;stroke-linecap:square;"/>
   </g>
   <g id="line2d_33">
    <path clip-path="url(#p58e0228c97)" d="M 147.449966 67.638788 
L 154.145966 67.638788 
" style="fill:none;stroke:#000000;stroke-linecap:square;"/>
   </g>
   <g id="line2d_34">
    <path clip-path="url(#p58e0228c97)" d="M 164.463272 78.945251 
L 164.463272 81.305621 
" style="fill:none;stroke:#000000;stroke-linecap:square;"/>
   </g>
   <g id="line2d_35">
    <path clip-path="url(#p58e0228c97)" d="M 164.463272 68.901543 
L 164.463272 65.22091 
" style="fill:none;stroke:#000000;stroke-linecap:square;"/>
   </g>
   <g id="line2d_36">
    <path clip-path="url(#p58e0228c97)" d="M 161.115272 81.305621 
L 167.811272 81.305621 
" style="fill:none;stroke:#000000;stroke-linecap:square;"/>
   </g>
   <g id="line2d_37">
    <path clip-path="url(#p58e0228c97)" d="M 161.115272 65.22091 
L 167.811272 65.22091 
" style="fill:none;stroke:#000000;stroke-linecap:square;"/>
   </g>
   <g id="line2d_38">
    <path clip-path="url(#p58e0228c97)" d="M 188.377557 63.586373 
L 188.377557 71.68693 
" style="fill:none;stroke:#000000;stroke-linecap:square;"/>
   </g>
   <g id="line2d_39">
    <path clip-path="url(#p58e0228c97)" d="M 188.377557 57.691438 
L 188.377557 50.840748 
" style="fill:none;stroke:#000000;stroke-linecap:square;"/>
   </g>
   <g id="line2d_40">
    <path clip-path="url(#p58e0228c97)" d="M 185.029557 71.68693 
L 191.725557 71.68693 
" style="fill:none;stroke:#000000;stroke-linecap:square;"/>
   </g>
   <g id="line2d_41">
    <path clip-path="url(#p58e0228c97)" d="M 185.029557 50.840748 
L 191.725557 50.840748 
" style="fill:none;stroke:#000000;stroke-linecap:square;"/>
   </g>
   <g id="line2d_42">
    <path clip-path="url(#p58e0228c97)" d="M 202.042864 62.895575 
L 202.042864 65.078923 
" style="fill:none;stroke:#000000;stroke-linecap:square;"/>
   </g>
   <g id="line2d_43">
    <path clip-path="url(#p58e0228c97)" d="M 202.042864 59.284808 
L 202.042864 56.510648 
" style="fill:none;stroke:#000000;stroke-linecap:square;"/>
   </g>
   <g id="line2d_44">
    <path clip-path="url(#p58e0228c97)" d="M 198.694864 65.078923 
L 205.390864 65.078923 
" style="fill:none;stroke:#000000;stroke-linecap:square;"/>
   </g>
   <g id="line2d_45">
    <path clip-path="url(#p58e0228c97)" d="M 198.694864 56.510648 
L 205.390864 56.510648 
" style="fill:none;stroke:#000000;stroke-linecap:square;"/>
   </g>
   <g id="line2d_46">
    <path clip-path="url(#p58e0228c97)" d="M 215.70817 62.394525 
L 215.70817 65.640612 
" style="fill:none;stroke:#000000;stroke-linecap:square;"/>
   </g>
   <g id="line2d_47">
    <path clip-path="url(#p58e0228c97)" d="M 215.70817 59.252207 
L 215.70817 58.121495 
" style="fill:none;stroke:#000000;stroke-linecap:square;"/>
   </g>
   <g id="line2d_48">
    <path clip-path="url(#p58e0228c97)" d="M 212.36017 65.640612 
L 219.05617 65.640612 
" style="fill:none;stroke:#000000;stroke-linecap:square;"/>
   </g>
   <g id="line2d_49">
    <path clip-path="url(#p58e0228c97)" d="M 212.36017 58.121495 
L 219.05617 58.121495 
" style="fill:none;stroke:#000000;stroke-linecap:square;"/>
   </g>
   <g id="line2d_50">
    <path clip-path="url(#p58e0228c97)" d="M 239.622455 59.941641 
L 239.622455 64.078698 
" style="fill:none;stroke:#000000;stroke-linecap:square;"/>
   </g>
   <g id="line2d_51">
    <path clip-path="url(#p58e0228c97)" d="M 239.622455 54.882841 
L 239.622455 52.027945 
" style="fill:none;stroke:#000000;stroke-linecap:square;"/>
   </g>
   <g id="line2d_52">
    <path clip-path="url(#p58e0228c97)" d="M 236.274455 64.078698 
L 242.970455 64.078698 
" style="fill:none;stroke:#000000;stroke-linecap:square;"/>
   </g>
   <g id="line2d_53">
    <path clip-path="url(#p58e0228c97)" d="M 236.274455 52.027945 
L 242.970455 52.027945 
" style="fill:none;stroke:#000000;stroke-linecap:square;"/>
   </g>
   <g id="line2d_54">
    <path clip-path="url(#p58e0228c97)" d="M 253.287761 59.551421 
L 253.287761 60.379627 
" style="fill:none;stroke:#000000;stroke-linecap:square;"/>
   </g>
   <g id="line2d_55">
    <path clip-path="url(#p58e0228c97)" d="M 253.287761 55.357495 
L 253.287761 51.56462 
" style="fill:none;stroke:#000000;stroke-linecap:square;"/>
   </g>
   <g id="line2d_56">
    <path clip-path="url(#p58e0228c97)" d="M 249.939761 60.379627 
L 256.635761 60.379627 
" style="fill:none;stroke:#000000;stroke-linecap:square;"/>
   </g>
   <g id="line2d_57">
    <path clip-path="url(#p58e0228c97)" d="M 249.939761 51.56462 
L 256.635761 51.56462 
" style="fill:none;stroke:#000000;stroke-linecap:square;"/>
   </g>
   <g id="line2d_58">
    <path clip-path="url(#p58e0228c97)" d="M 266.953068 58.739573 
L 266.953068 60.571056 
" style="fill:none;stroke:#000000;stroke-linecap:square;"/>
   </g>
   <g id="line2d_59">
    <path clip-path="url(#p58e0228c97)" d="M 266.953068 54.872022 
L 266.953068 52.119719 
" style="fill:none;stroke:#000000;stroke-linecap:square;"/>
   </g>
   <g id="line2d_60">
    <path clip-path="url(#p58e0228c97)" d="M 263.605068 60.571056 
L 270.301068 60.571056 
" style="fill:none;stroke:#000000;stroke-linecap:square;"/>
   </g>
   <g id="line2d_61">
    <path clip-path="url(#p58e0228c97)" d="M 263.605068 52.119719 
L 270.301068 52.119719 
" style="fill:none;stroke:#000000;stroke-linecap:square;"/>
   </g>
   <g id="line2d_62">
    <path clip-path="url(#p58e0228c97)" d="M 290.867353 85.141846 
L 290.867353 87.282476 
" style="fill:none;stroke:#000000;stroke-linecap:square;"/>
   </g>
   <g id="line2d_63">
    <path clip-path="url(#p58e0228c97)" d="M 290.867353 81.018754 
L 290.867353 80.449898 
" style="fill:none;stroke:#000000;stroke-linecap:square;"/>
   </g>
   <g id="line2d_64">
    <path clip-path="url(#p58e0228c97)" d="M 287.519353 87.282476 
L 294.215353 87.282476 
" style="fill:none;stroke:#000000;stroke-linecap:square;"/>
   </g>
   <g id="line2d_65">
    <path clip-path="url(#p58e0228c97)" d="M 287.519353 80.449898 
L 294.215353 80.449898 
" style="fill:none;stroke:#000000;stroke-linecap:square;"/>
   </g>
   <g id="line2d_66">
    <path clip-path="url(#p58e0228c97)" d="M 304.532659 76.729713 
L 304.532659 77.071435 
" style="fill:none;stroke:#000000;stroke-linecap:square;"/>
   </g>
   <g id="line2d_67">
    <path clip-path="url(#p58e0228c97)" d="M 304.532659 71.693233 
L 304.532659 64.91889 
" style="fill:none;stroke:#000000;stroke-linecap:square;"/>
   </g>
   <g id="line2d_68">
    <path clip-path="url(#p58e0228c97)" d="M 301.184659 77.071435 
L 307.880659 77.071435 
" style="fill:none;stroke:#000000;stroke-linecap:square;"/>
   </g>
   <g id="line2d_69">
    <path clip-path="url(#p58e0228c97)" d="M 301.184659 64.91889 
L 307.880659 64.91889 
" style="fill:none;stroke:#000000;stroke-linecap:square;"/>
   </g>
   <g id="line2d_70">
    <path clip-path="url(#p58e0228c97)" d="M 318.197966 75.726811 
L 318.197966 76.64168 
" style="fill:none;stroke:#000000;stroke-linecap:square;"/>
   </g>
   <g id="line2d_71">
    <path clip-path="url(#p58e0228c97)" d="M 318.197966 72.539317 
L 318.197966 70.722618 
" style="fill:none;stroke:#000000;stroke-linecap:square;"/>
   </g>
   <g id="line2d_72">
    <path clip-path="url(#p58e0228c97)" d="M 314.849966 76.64168 
L 321.545966 76.64168 
" style="fill:none;stroke:#000000;stroke-linecap:square;"/>
   </g>
   <g id="line2d_73">
    <path clip-path="url(#p58e0228c97)" d="M 314.849966 70.722618 
L 321.545966 70.722618 
" style="fill:none;stroke:#000000;stroke-linecap:square;"/>
   </g>
   <g id="line2d_74">
    <path clip-path="url(#p58e0228c97)" d="M 342.112251 204.026043 
L 342.112251 219.052982 
" style="fill:none;stroke:#000000;stroke-linecap:square;"/>
   </g>
   <g id="line2d_75">
    <path clip-path="url(#p58e0228c97)" d="M 342.112251 192.943728 
L 342.112251 182.020659 
" style="fill:none;stroke:#000000;stroke-linecap:square;"/>
   </g>
   <g id="line2d_76">
    <path clip-path="url(#p58e0228c97)" d="M 338.764251 219.052982 
L 345.460251 219.052982 
" style="fill:none;stroke:#000000;stroke-linecap:square;"/>
   </g>
   <g id="line2d_77">
    <path clip-path="url(#p58e0228c97)" d="M 338.764251 182.020659 
L 345.460251 182.020659 
" style="fill:none;stroke:#000000;stroke-linecap:square;"/>
   </g>
   <g id="line2d_78">
    <path clip-path="url(#p58e0228c97)" d="M 355.777557 135.52804 
L 355.777557 137.994634 
" style="fill:none;stroke:#000000;stroke-linecap:square;"/>
   </g>
   <g id="line2d_79">
    <path clip-path="url(#p58e0228c97)" d="M 355.777557 129.353049 
L 355.777557 122.954155 
" style="fill:none;stroke:#000000;stroke-linecap:square;"/>
   </g>
   <g id="line2d_80">
    <path clip-path="url(#p58e0228c97)" d="M 352.429557 137.994634 
L 359.125557 137.994634 
" style="fill:none;stroke:#000000;stroke-linecap:square;"/>
   </g>
   <g id="line2d_81">
    <path clip-path="url(#p58e0228c97)" d="M 352.429557 122.954155 
L 359.125557 122.954155 
" style="fill:none;stroke:#000000;stroke-linecap:square;"/>
   </g>
   <g id="line2d_82">
    <path clip-path="url(#p58e0228c97)" d="M 369.442864 138.574248 
L 369.442864 141.22149 
" style="fill:none;stroke:#000000;stroke-linecap:square;"/>
   </g>
   <g id="line2d_83">
    <path clip-path="url(#p58e0228c97)" d="M 369.442864 127.14521 
L 369.442864 123.460809 
" style="fill:none;stroke:#000000;stroke-linecap:square;"/>
   </g>
   <g id="line2d_84">
    <path clip-path="url(#p58e0228c97)" d="M 366.094864 141.22149 
L 372.790864 141.22149 
" style="fill:none;stroke:#000000;stroke-linecap:square;"/>
   </g>
   <g id="line2d_85">
    <path clip-path="url(#p58e0228c97)" d="M 366.094864 123.460809 
L 372.790864 123.460809 
" style="fill:none;stroke:#000000;stroke-linecap:square;"/>
   </g>
   <g id="line2d_86">
    <path d="M 290.867353 53.816882 
L 290.867353 50.116213 
L 304.532659 50.116213 
L 304.532659 53.816882 
" style="fill:none;stroke:#333333;stroke-linecap:square;stroke-width:1.5;"/>
   </g>
   <g id="line2d_87">
    <path d="M 342.112251 111.852148 
L 342.112251 108.151478 
L 355.777557 108.151478 
L 355.777557 111.852148 
" style="fill:none;stroke:#333333;stroke-linecap:square;stroke-width:1.5;"/>
   </g>
   <g id="line2d_88">
    <path d="M 290.867353 25.618638 
L 290.867353 21.917969 
L 318.197966 21.917969 
L 318.197966 25.618638 
" style="fill:none;stroke:#333333;stroke-linecap:square;stroke-width:1.5;"/>
   </g>
   <g id="line2d_89">
    <path d="M 342.112251 83.653903 
L 342.112251 79.953234 
L 369.442864 79.953234 
L 369.442864 83.653903 
" style="fill:none;stroke:#333333;stroke-linecap:square;stroke-width:1.5;"/>
   </g>
   <g id="line2d_90">
    <path clip-path="url(#p58e0228c97)" d="M 79.191761 70.152369 
L 92.583761 70.152369 
" style="fill:none;stroke:#000000;stroke-linecap:square;"/>
   </g>
   <g id="line2d_91">
    <path clip-path="url(#p58e0228c97)" d="M 92.857068 66.797514 
L 106.249068 66.797514 
" style="fill:none;stroke:#000000;stroke-linecap:square;"/>
   </g>
   <g id="line2d_92">
    <path clip-path="url(#p58e0228c97)" d="M 106.522374 65.817975 
L 119.914374 65.817975 
" style="fill:none;stroke:#000000;stroke-linecap:square;"/>
   </g>
   <g id="line2d_93">
    <path clip-path="url(#p58e0228c97)" d="M 130.436659 77.56397 
L 143.828659 77.56397 
" style="fill:none;stroke:#000000;stroke-linecap:square;"/>
   </g>
   <g id="line2d_94">
    <path clip-path="url(#p58e0228c97)" d="M 144.101966 73.780259 
L 157.493966 73.780259 
" style="fill:none;stroke:#000000;stroke-linecap:square;"/>
   </g>
   <g id="line2d_95">
    <path clip-path="url(#p58e0228c97)" d="M 157.767272 74.833059 
L 171.159272 74.833059 
" style="fill:none;stroke:#000000;stroke-linecap:square;"/>
   </g>
   <g id="line2d_96">
    <path clip-path="url(#p58e0228c97)" d="M 181.681557 62.663778 
L 195.073557 62.663778 
" style="fill:none;stroke:#000000;stroke-linecap:square;"/>
   </g>
   <g id="line2d_97">
    <path clip-path="url(#p58e0228c97)" d="M 195.346864 62.43501 
L 208.738864 62.43501 
" style="fill:none;stroke:#000000;stroke-linecap:square;"/>
   </g>
   <g id="line2d_98">
    <path clip-path="url(#p58e0228c97)" d="M 209.01217 61.264873 
L 222.40417 61.264873 
" style="fill:none;stroke:#000000;stroke-linecap:square;"/>
   </g>
   <g id="line2d_99">
    <path clip-path="url(#p58e0228c97)" d="M 232.926455 58.81474 
L 246.318455 58.81474 
" style="fill:none;stroke:#000000;stroke-linecap:square;"/>
   </g>
   <g id="line2d_100">
    <path clip-path="url(#p58e0228c97)" d="M 246.591761 56.66418 
L 259.983761 56.66418 
" style="fill:none;stroke:#000000;stroke-linecap:square;"/>
   </g>
   <g id="line2d_101">
    <path clip-path="url(#p58e0228c97)" d="M 260.257068 56.869352 
L 273.649068 56.869352 
" style="fill:none;stroke:#000000;stroke-linecap:square;"/>
   </g>
   <g id="line2d_102">
    <path clip-path="url(#p58e0228c97)" d="M 284.171353 83.890955 
L 297.563353 83.890955 
" style="fill:none;stroke:#000000;stroke-linecap:square;"/>
   </g>
   <g id="line2d_103">
    <path clip-path="url(#p58e0228c97)" d="M 297.836659 74.342848 
L 311.228659 74.342848 
" style="fill:none;stroke:#000000;stroke-linecap:square;"/>
   </g>
   <g id="line2d_104">
    <path clip-path="url(#p58e0228c97)" d="M 311.501966 72.988426 
L 324.893966 72.988426 
" style="fill:none;stroke:#000000;stroke-linecap:square;"/>
   </g>
   <g id="line2d_105">
    <path clip-path="url(#p58e0228c97)" d="M 335.416251 196.851032 
L 348.808251 196.851032 
" style="fill:none;stroke:#000000;stroke-linecap:square;"/>
   </g>
   <g id="line2d_106">
    <path clip-path="url(#p58e0228c97)" d="M 349.081557 131.335855 
L 362.473557 131.335855 
" style="fill:none;stroke:#000000;stroke-linecap:square;"/>
   </g>
   <g id="line2d_107">
    <path clip-path="url(#p58e0228c97)" d="M 362.746864 135.035218 
L 376.138864 135.035218 
" style="fill:none;stroke:#000000;stroke-linecap:square;"/>
   </g>
   <g id="patch_24">
    <path d="M 60.265313 240.262079 
L 60.265313 18.502079 
" style="fill:none;stroke:#000000;stroke-linecap:square;stroke-linejoin:miter;stroke-width:1.5;"/>
   </g>
   <g id="patch_25">
    <path d="M 60.265313 240.262079 
L 395.065313 240.262079 
" style="fill:none;stroke:#000000;stroke-linecap:square;stroke-linejoin:miter;stroke-width:1.5;"/>
   </g>
   <g id="text_16">
    <!-- ** -->
    <g transform="translate(291.861725 46.134963)scale(0.15 -0.15)">
     <defs>
      <path d="M 200 3741 
L 344 4184 
Q 841 4009 1066 3881 
Q 1006 4447 1003 4659 
L 1456 4659 
Q 1447 4350 1384 3884 
Q 1706 4047 2122 4184 
L 2266 3741 
Q 1869 3609 1488 3566 
Q 1678 3400 2025 2975 
L 1650 2709 
Q 1469 2956 1222 3381 
Q 991 2941 816 2709 
L 447 2975 
Q 809 3422 966 3566 
Q 563 3644 200 3741 
z
" id="ArialMT-2a" transform="scale(0.015625)"/>
     </defs>
     <use xlink:href="#ArialMT-2a"/>
     <use x="38.916016" xlink:href="#ArialMT-2a"/>
    </g>
   </g>
   <g id="text_17">
    <!-- ** -->
    <g transform="translate(343.106623 104.170228)scale(0.15 -0.15)">
     <use xlink:href="#ArialMT-2a"/>
     <use x="38.916016" xlink:href="#ArialMT-2a"/>
    </g>
   </g>
   <g id="text_18">
    <!-- ** -->
    <g transform="translate(298.694378 17.936719)scale(0.15 -0.15)">
     <use xlink:href="#ArialMT-2a"/>
     <use x="38.916016" xlink:href="#ArialMT-2a"/>
    </g>
   </g>
   <g id="text_19">
    <!-- ** -->
    <g transform="translate(349.939276 75.971984)scale(0.15 -0.15)">
     <use xlink:href="#ArialMT-2a"/>
     <use x="38.916016" xlink:href="#ArialMT-2a"/>
    </g>
   </g>
   <g id="legend_1">
    <g id="patch_26">
     <path d="M 68.665313 234.262079 
L 187.084688 234.262079 
Q 189.484688 234.262079 189.484688 231.862079 
L 189.484688 181.705829 
Q 189.484688 179.305829 187.084688 179.305829 
L 68.665313 179.305829 
Q 66.265313 179.305829 66.265313 181.705829 
L 66.265313 231.862079 
Q 66.265313 234.262079 68.665313 234.262079 
z
" style="fill:#ffffff;opacity:0.8;stroke:#cccccc;stroke-linejoin:miter;"/>
    </g>
    <g id="patch_27">
     <path d="M 71.065313 192.841454 
L 95.065313 192.841454 
L 95.065313 184.441454 
L 71.065313 184.441454 
z
" style="fill:#f4ccef;stroke:#838383;stroke-linejoin:miter;stroke-width:0.75;"/>
    </g>
    <g id="text_20">
     <!-- Sequential -->
     <g transform="translate(104.665312 192.841454)scale(0.12 -0.12)">
      <defs>
       <path d="M 288 1472 
L 859 1522 
Q 900 1178 1048 958 
Q 1197 738 1509 602 
Q 1822 466 2213 466 
Q 2559 466 2825 569 
Q 3091 672 3220 851 
Q 3350 1031 3350 1244 
Q 3350 1459 3225 1620 
Q 3100 1781 2813 1891 
Q 2628 1963 1997 2114 
Q 1366 2266 1113 2400 
Q 784 2572 623 2826 
Q 463 3081 463 3397 
Q 463 3744 659 4045 
Q 856 4347 1234 4503 
Q 1613 4659 2075 4659 
Q 2584 4659 2973 4495 
Q 3363 4331 3572 4012 
Q 3781 3694 3797 3291 
L 3216 3247 
Q 3169 3681 2898 3903 
Q 2628 4125 2100 4125 
Q 1550 4125 1298 3923 
Q 1047 3722 1047 3438 
Q 1047 3191 1225 3031 
Q 1400 2872 2139 2705 
Q 2878 2538 3153 2413 
Q 3553 2228 3743 1945 
Q 3934 1663 3934 1294 
Q 3934 928 3725 604 
Q 3516 281 3123 101 
Q 2731 -78 2241 -78 
Q 1619 -78 1198 103 
Q 778 284 539 648 
Q 300 1013 288 1472 
z
" id="ArialMT-53" transform="scale(0.015625)"/>
       <path d="M 2538 -1272 
L 2538 353 
Q 2406 169 2170 47 
Q 1934 -75 1669 -75 
Q 1078 -75 651 397 
Q 225 869 225 1691 
Q 225 2191 398 2587 
Q 572 2984 901 3189 
Q 1231 3394 1625 3394 
Q 2241 3394 2594 2875 
L 2594 3319 
L 3100 3319 
L 3100 -1272 
L 2538 -1272 
z
M 803 1669 
Q 803 1028 1072 708 
Q 1341 388 1716 388 
Q 2075 388 2334 692 
Q 2594 997 2594 1619 
Q 2594 2281 2320 2615 
Q 2047 2950 1678 2950 
Q 1313 2950 1058 2639 
Q 803 2328 803 1669 
z
" id="ArialMT-71" transform="scale(0.015625)"/>
      </defs>
      <use xlink:href="#ArialMT-53"/>
      <use x="66.699219" xlink:href="#ArialMT-65"/>
      <use x="122.314453" xlink:href="#ArialMT-71"/>
      <use x="177.929688" xlink:href="#ArialMT-75"/>
      <use x="233.544922" xlink:href="#ArialMT-65"/>
      <use x="289.160156" xlink:href="#ArialMT-6e"/>
      <use x="344.775391" xlink:href="#ArialMT-74"/>
      <use x="372.558594" xlink:href="#ArialMT-69"/>
      <use x="394.775391" xlink:href="#ArialMT-61"/>
      <use x="450.390625" xlink:href="#ArialMT-6c"/>
     </g>
    </g>
    <g id="patch_28">
     <path d="M 71.065313 209.815829 
L 95.065313 209.815829 
L 95.065313 201.415829 
L 71.065313 201.415829 
z
" style="fill:#f6c0c4;stroke:#838383;stroke-linejoin:miter;stroke-width:0.75;"/>
    </g>
    <g id="text_21">
     <!-- Parallel -->
     <g transform="translate(104.665312 209.815829)scale(0.12 -0.12)">
      <use xlink:href="#ArialMT-50"/>
      <use x="66.699219" xlink:href="#ArialMT-61"/>
      <use x="122.314453" xlink:href="#ArialMT-72"/>
      <use x="155.615234" xlink:href="#ArialMT-61"/>
      <use x="211.230469" xlink:href="#ArialMT-6c"/>
      <use x="233.447266" xlink:href="#ArialMT-6c"/>
      <use x="255.664062" xlink:href="#ArialMT-65"/>
      <use x="311.279297" xlink:href="#ArialMT-6c"/>
     </g>
    </g>
    <g id="patch_29">
     <path d="M 71.065313 226.936454 
L 95.065313 226.936454 
L 95.065313 218.536454 
L 71.065313 218.536454 
z
" style="fill:#c5c7f7;stroke:#838383;stroke-linejoin:miter;stroke-width:0.75;"/>
    </g>
    <g id="text_22">
     <!-- Task-Switching -->
     <g transform="translate(104.665312 226.936454)scale(0.12 -0.12)">
      <defs>
       <path d="M 203 1375 
L 203 1941 
L 1931 1941 
L 1931 1375 
L 203 1375 
z
" id="ArialMT-2d" transform="scale(0.015625)"/>
       <path d="M 1034 0 
L 19 3319 
L 600 3319 
L 1128 1403 
L 1325 691 
Q 1338 744 1497 1375 
L 2025 3319 
L 2603 3319 
L 3100 1394 
L 3266 759 
L 3456 1400 
L 4025 3319 
L 4572 3319 
L 3534 0 
L 2950 0 
L 2422 1988 
L 2294 2553 
L 1622 0 
L 1034 0 
z
" id="ArialMT-77" transform="scale(0.015625)"/>
       <path d="M 422 0 
L 422 4581 
L 984 4581 
L 984 2938 
Q 1378 3394 1978 3394 
Q 2347 3394 2619 3248 
Q 2891 3103 3008 2847 
Q 3125 2591 3125 2103 
L 3125 0 
L 2563 0 
L 2563 2103 
Q 2563 2525 2380 2717 
Q 2197 2909 1863 2909 
Q 1613 2909 1392 2779 
Q 1172 2650 1078 2428 
Q 984 2206 984 1816 
L 984 0 
L 422 0 
z
" id="ArialMT-68" transform="scale(0.015625)"/>
       <path d="M 319 -275 
L 866 -356 
Q 900 -609 1056 -725 
Q 1266 -881 1628 -881 
Q 2019 -881 2231 -725 
Q 2444 -569 2519 -288 
Q 2563 -116 2559 434 
Q 2191 0 1641 0 
Q 956 0 581 494 
Q 206 988 206 1678 
Q 206 2153 378 2554 
Q 550 2956 876 3175 
Q 1203 3394 1644 3394 
Q 2231 3394 2613 2919 
L 2613 3319 
L 3131 3319 
L 3131 450 
Q 3131 -325 2973 -648 
Q 2816 -972 2473 -1159 
Q 2131 -1347 1631 -1347 
Q 1038 -1347 672 -1080 
Q 306 -813 319 -275 
z
M 784 1719 
Q 784 1066 1043 766 
Q 1303 466 1694 466 
Q 2081 466 2343 764 
Q 2606 1063 2606 1700 
Q 2606 2309 2336 2618 
Q 2066 2928 1684 2928 
Q 1309 2928 1046 2623 
Q 784 2319 784 1719 
z
" id="ArialMT-67" transform="scale(0.015625)"/>
      </defs>
      <use xlink:href="#ArialMT-54"/>
      <use x="49.958984" xlink:href="#ArialMT-61"/>
      <use x="105.574219" xlink:href="#ArialMT-73"/>
      <use x="155.574219" xlink:href="#ArialMT-6b"/>
      <use x="205.574219" xlink:href="#ArialMT-2d"/>
      <use x="238.875" xlink:href="#ArialMT-53"/>
      <use x="305.574219" xlink:href="#ArialMT-77"/>
      <use x="377.791016" xlink:href="#ArialMT-69"/>
      <use x="400.007812" xlink:href="#ArialMT-74"/>
      <use x="427.791016" xlink:href="#ArialMT-63"/>
      <use x="477.791016" xlink:href="#ArialMT-68"/>
      <use x="533.40625" xlink:href="#ArialMT-69"/>
      <use x="555.623047" xlink:href="#ArialMT-6e"/>
      <use x="611.238281" xlink:href="#ArialMT-67"/>
     </g>
    </g>
   </g>
  </g>
 </g>
 <defs>
  <clipPath id="p58e0228c97">
   <rect height="221.76" width="334.8" x="60.265313" y="18.502079"/>
  </clipPath>
 </defs>
</svg>
