<?xml version="1.0" encoding="utf-8" standalone="no"?>
<!DOCTYPE svg PUBLIC "-//W3C//DTD SVG 1.1//EN"
  "http://www.w3.org/Graphics/SVG/1.1/DTD/svg11.dtd">
<svg height="288pt" version="1.1" viewBox="0 0 576 288" width="576pt" xmlns="http://www.w3.org/2000/svg" xmlns:xlink="http://www.w3.org/1999/xlink">
 <metadata>
  <rdf:RDF xmlns:cc="http://creativecommons.org/ns#" xmlns:dc="http://purl.org/dc/elements/1.1/" xmlns:rdf="http://www.w3.org/1999/02/22-rdf-syntax-ns#">
   <cc:Work>
    <dc:type rdf:resource="http://purl.org/dc/dcmitype/StillImage"/>
    <dc:date>2023-05-14T19:11:51.489536</dc:date>
    <dc:format>image/svg+xml</dc:format>
    <dc:creator>
     <cc:Agent>
      <dc:title>Matplotlib v3.4.3, https://matplotlib.org/</dc:title>
     </cc:Agent>
    </dc:creator>
   </cc:Work>
  </rdf:RDF>
 </metadata>
 <defs>
  <style type="text/css">*{stroke-linecap:butt;stroke-linejoin:round;}</style>
 </defs>
 <g id="figure_1">
  <g id="patch_1">
   <path d="M 0 288 
L 576 288 
L 576 0 
L 0 0 
z
" style="fill:#ffffff;"/>
  </g>
  <g id="axes_1">
   <g id="patch_2">
    <path d="M 257.045455 152.76 
C 257.045455 138.34048 254.205123 124.061171 248.687012 110.739272 
C 243.168901 97.417372 235.080322 85.311959 224.884182 75.115818 
C 214.688041 64.919678 202.582628 56.831099 189.260728 51.312988 
C 175.938829 45.794877 161.65952 42.954545 147.24 42.954545 
C 132.82048 42.954545 118.541171 45.794877 105.219272 51.312988 
C 91.897372 56.831099 79.791959 64.919678 69.595818 75.115818 
C 59.399678 85.311959 51.311099 97.417372 45.792988 110.739272 
C 40.274877 124.061171 37.434545 138.34048 37.434545 152.76 
C 37.434545 167.17952 40.274877 181.458829 45.792988 194.780728 
C 51.311099 208.102628 59.399678 220.208041 69.595818 230.404182 
C 79.791959 240.600322 91.897372 248.688901 105.219272 254.207012 
C 118.541171 259.725123 132.82048 262.565455 147.24 262.565455 
C 161.65952 262.565455 175.938829 259.725123 189.260728 254.207012 
C 202.582628 248.688901 214.688041 240.600322 224.884182 230.404182 
C 235.080322 220.208041 243.168901 208.102628 248.687012 194.780728 
C 254.205123 181.458829 257.045455 167.17952 257.045455 152.76 
M 147.24 152.76 
C 147.24 152.76 147.24 152.76 147.24 152.76 
C 147.24 152.76 147.24 152.76 147.24 152.76 
C 147.24 152.76 147.24 152.76 147.24 152.76 
C 147.24 152.76 147.24 152.76 147.24 152.76 
C 147.24 152.76 147.24 152.76 147.24 152.76 
C 147.24 152.76 147.24 152.76 147.24 152.76 
C 147.24 152.76 147.24 152.76 147.24 152.76 
C 147.24 152.76 147.24 152.76 147.24 152.76 
C 147.24 152.76 147.24 152.76 147.24 152.76 
C 147.24 152.76 147.24 152.76 147.24 152.76 
C 147.24 152.76 147.24 152.76 147.24 152.76 
C 147.24 152.76 147.24 152.76 147.24 152.76 
C 147.24 152.76 147.24 152.76 147.24 152.76 
C 147.24 152.76 147.24 152.76 147.24 152.76 
C 147.24 152.76 147.24 152.76 147.24 152.76 
C 147.24 152.76 147.24 152.76 147.24 152.76 
M 257.045455 152.76 
z
" style="fill:#ffffff;"/>
   </g>
   <g id="matplotlib.axis_1">
    <g id="xtick_1">
     <g id="line2d_1">
      <path clip-path="url(#p96eeaba0e2)" d="M 147.24 152.76 
L 147.24 42.954545 
" style="fill:none;stroke:#cccccc;stroke-linecap:round;"/>
     </g>
     <g id="text_1">
      <!-- 0 -->
      <g style="fill:#262626;" transform="translate(143.903437 29.55767)scale(0.12 -0.12)">
       <defs>
        <path d="M 3309 2203 
Q 3309 1100 2920 518 
Q 2531 -63 1772 -63 
Q 1013 -63 631 515 
Q 250 1094 250 2203 
Q 250 3338 620 3903 
Q 991 4469 1791 4469 
Q 2569 4469 2939 3897 
Q 3309 3325 3309 2203 
z
M 2738 2203 
Q 2738 3156 2517 3584 
Q 2297 4013 1791 4013 
Q 1272 4013 1045 3591 
Q 819 3169 819 2203 
Q 819 1266 1048 831 
Q 1278 397 1778 397 
Q 2275 397 2506 840 
Q 2738 1284 2738 2203 
z
" id="LiberationSans-30" transform="scale(0.015625)"/>
       </defs>
       <use xlink:href="#LiberationSans-30"/>
      </g>
     </g>
    </g>
    <g id="xtick_2">
     <g id="line2d_2">
      <path clip-path="url(#p96eeaba0e2)" d="M 147.24 152.76 
L 211.782027 63.925521 
" style="fill:none;stroke:#cccccc;stroke-linecap:round;"/>
     </g>
     <g id="text_2">
      <!-- 1 -->
      <g style="fill:#262626;" transform="translate(218.143921 53.679866)scale(0.12 -0.12)">
       <defs>
        <path d="M 488 0 
L 488 478 
L 1609 478 
L 1609 3866 
L 616 3156 
L 616 3688 
L 1656 4403 
L 2175 4403 
L 2175 478 
L 3247 478 
L 3247 0 
L 488 0 
z
" id="LiberationSans-31" transform="scale(0.015625)"/>
       </defs>
       <use xlink:href="#LiberationSans-31"/>
      </g>
     </g>
    </g>
    <g id="xtick_3">
     <g id="line2d_3">
      <path clip-path="url(#p96eeaba0e2)" d="M 147.24 152.76 
L 251.671193 118.828248 
" style="fill:none;stroke:#cccccc;stroke-linecap:round;"/>
     </g>
     <g id="text_3">
      <!-- 2 -->
      <g style="fill:#262626;" transform="translate(264.027063 116.832593)scale(0.12 -0.12)">
       <defs>
        <path d="M 322 0 
L 322 397 
Q 481 763 711 1042 
Q 941 1322 1194 1548 
Q 1447 1775 1695 1969 
Q 1944 2163 2144 2356 
Q 2344 2550 2467 2762 
Q 2591 2975 2591 3244 
Q 2591 3606 2378 3806 
Q 2166 4006 1788 4006 
Q 1428 4006 1195 3811 
Q 963 3616 922 3263 
L 347 3316 
Q 409 3844 795 4156 
Q 1181 4469 1788 4469 
Q 2453 4469 2811 4155 
Q 3169 3841 3169 3263 
Q 3169 3006 3051 2753 
Q 2934 2500 2703 2247 
Q 2472 1994 1819 1463 
Q 1459 1169 1246 933 
Q 1034 697 941 478 
L 3238 478 
L 3238 0 
L 322 0 
z
" id="LiberationSans-32" transform="scale(0.015625)"/>
       </defs>
       <use xlink:href="#LiberationSans-32"/>
      </g>
     </g>
    </g>
    <g id="xtick_4">
     <g id="line2d_4">
      <path clip-path="url(#p96eeaba0e2)" d="M 147.24 152.76 
L 251.671193 186.691752 
" style="fill:none;stroke:#cccccc;stroke-linecap:round;"/>
     </g>
     <g id="text_4">
      <!-- 3 -->
      <g style="fill:#262626;" transform="translate(264.027063 194.893657)scale(0.12 -0.12)">
       <defs>
        <path d="M 3278 1216 
Q 3278 606 2890 271 
Q 2503 -63 1784 -63 
Q 1116 -63 717 239 
Q 319 541 244 1131 
L 825 1184 
Q 938 403 1784 403 
Q 2209 403 2451 612 
Q 2694 822 2694 1234 
Q 2694 1594 2417 1795 
Q 2141 1997 1619 1997 
L 1300 1997 
L 1300 2484 
L 1606 2484 
Q 2069 2484 2323 2686 
Q 2578 2888 2578 3244 
Q 2578 3597 2370 3801 
Q 2163 4006 1753 4006 
Q 1381 4006 1151 3815 
Q 922 3625 884 3278 
L 319 3322 
Q 381 3863 767 4166 
Q 1153 4469 1759 4469 
Q 2422 4469 2789 4161 
Q 3156 3853 3156 3303 
Q 3156 2881 2920 2617 
Q 2684 2353 2234 2259 
L 2234 2247 
Q 2728 2194 3003 1916 
Q 3278 1638 3278 1216 
z
" id="LiberationSans-33" transform="scale(0.015625)"/>
       </defs>
       <use xlink:href="#LiberationSans-33"/>
      </g>
     </g>
    </g>
    <g id="xtick_5">
     <g id="line2d_5">
      <path clip-path="url(#p96eeaba0e2)" d="M 147.24 152.76 
L 211.782027 241.594479 
" style="fill:none;stroke:#cccccc;stroke-linecap:round;"/>
     </g>
     <g id="text_5">
      <!-- 4 -->
      <g style="fill:#262626;" transform="translate(218.143921 258.046384)scale(0.12 -0.12)">
       <defs>
        <path d="M 2753 997 
L 2753 0 
L 2222 0 
L 2222 997 
L 147 997 
L 147 1434 
L 2163 4403 
L 2753 4403 
L 2753 1441 
L 3372 1441 
L 3372 997 
L 2753 997 
z
M 2222 3769 
Q 2216 3750 2134 3603 
Q 2053 3456 2013 3397 
L 884 1734 
L 716 1503 
L 666 1441 
L 2222 1441 
L 2222 3769 
z
" id="LiberationSans-34" transform="scale(0.015625)"/>
       </defs>
       <use xlink:href="#LiberationSans-34"/>
      </g>
     </g>
    </g>
    <g id="xtick_6">
     <g id="line2d_6">
      <path clip-path="url(#p96eeaba0e2)" d="M 147.24 152.76 
L 147.24 262.565455 
" style="fill:none;stroke:#cccccc;stroke-linecap:round;"/>
     </g>
     <g id="text_6">
      <!-- 5 -->
      <g style="fill:#262626;" transform="translate(143.903437 282.16858)scale(0.12 -0.12)">
       <defs>
        <path d="M 3291 1434 
Q 3291 738 2877 337 
Q 2463 -63 1728 -63 
Q 1113 -63 734 206 
Q 356 475 256 984 
L 825 1050 
Q 1003 397 1741 397 
Q 2194 397 2450 670 
Q 2706 944 2706 1422 
Q 2706 1838 2448 2094 
Q 2191 2350 1753 2350 
Q 1525 2350 1328 2278 
Q 1131 2206 934 2034 
L 384 2034 
L 531 4403 
L 3034 4403 
L 3034 3925 
L 1044 3925 
L 959 2528 
Q 1325 2809 1869 2809 
Q 2519 2809 2905 2428 
Q 3291 2047 3291 1434 
z
" id="LiberationSans-35" transform="scale(0.015625)"/>
       </defs>
       <use xlink:href="#LiberationSans-35"/>
      </g>
     </g>
    </g>
    <g id="xtick_7">
     <g id="line2d_7">
      <path clip-path="url(#p96eeaba0e2)" d="M 147.24 152.76 
L 82.697973 241.594479 
" style="fill:none;stroke:#cccccc;stroke-linecap:round;"/>
     </g>
     <g id="text_7">
      <!-- 6 -->
      <g style="fill:#262626;" transform="translate(69.662954 258.046384)scale(0.12 -0.12)">
       <defs>
        <path d="M 3278 1441 
Q 3278 744 2900 340 
Q 2522 -63 1856 -63 
Q 1113 -63 719 490 
Q 325 1044 325 2100 
Q 325 3244 734 3856 
Q 1144 4469 1900 4469 
Q 2897 4469 3156 3572 
L 2619 3475 
Q 2453 4013 1894 4013 
Q 1413 4013 1148 3564 
Q 884 3116 884 2266 
Q 1038 2550 1316 2698 
Q 1594 2847 1953 2847 
Q 2563 2847 2920 2465 
Q 3278 2084 3278 1441 
z
M 2706 1416 
Q 2706 1894 2472 2153 
Q 2238 2413 1819 2413 
Q 1425 2413 1183 2183 
Q 941 1953 941 1550 
Q 941 1041 1192 716 
Q 1444 391 1838 391 
Q 2244 391 2475 664 
Q 2706 938 2706 1416 
z
" id="LiberationSans-36" transform="scale(0.015625)"/>
       </defs>
       <use xlink:href="#LiberationSans-36"/>
      </g>
     </g>
    </g>
    <g id="xtick_8">
     <g id="line2d_8">
      <path clip-path="url(#p96eeaba0e2)" d="M 147.24 152.76 
L 42.808807 186.691752 
" style="fill:none;stroke:#cccccc;stroke-linecap:round;"/>
     </g>
     <g id="text_8">
      <!-- 7 -->
      <g style="fill:#262626;" transform="translate(23.779812 194.893657)scale(0.12 -0.12)">
       <defs>
        <path d="M 3238 3947 
Q 2563 2916 2284 2331 
Q 2006 1747 1867 1178 
Q 1728 609 1728 0 
L 1141 0 
Q 1141 844 1498 1776 
Q 1856 2709 2694 3925 
L 328 3925 
L 328 4403 
L 3238 4403 
L 3238 3947 
z
" id="LiberationSans-37" transform="scale(0.015625)"/>
       </defs>
       <use xlink:href="#LiberationSans-37"/>
      </g>
     </g>
    </g>
    <g id="xtick_9">
     <g id="line2d_9">
      <path clip-path="url(#p96eeaba0e2)" d="M 147.24 152.76 
L 42.808807 118.828248 
" style="fill:none;stroke:#cccccc;stroke-linecap:round;"/>
     </g>
     <g id="text_9">
      <!-- 8 -->
      <g style="fill:#262626;" transform="translate(23.779812 116.832593)scale(0.12 -0.12)">
       <defs>
        <path d="M 3281 1228 
Q 3281 619 2893 278 
Q 2506 -63 1781 -63 
Q 1075 -63 676 271 
Q 278 606 278 1222 
Q 278 1653 525 1947 
Q 772 2241 1156 2303 
L 1156 2316 
Q 797 2400 589 2681 
Q 381 2963 381 3341 
Q 381 3844 757 4156 
Q 1134 4469 1769 4469 
Q 2419 4469 2795 4162 
Q 3172 3856 3172 3334 
Q 3172 2956 2962 2675 
Q 2753 2394 2391 2322 
L 2391 2309 
Q 2813 2241 3047 1952 
Q 3281 1663 3281 1228 
z
M 2588 3303 
Q 2588 4050 1769 4050 
Q 1372 4050 1164 3862 
Q 956 3675 956 3303 
Q 956 2925 1170 2726 
Q 1384 2528 1775 2528 
Q 2172 2528 2380 2711 
Q 2588 2894 2588 3303 
z
M 2697 1281 
Q 2697 1691 2453 1898 
Q 2209 2106 1769 2106 
Q 1341 2106 1100 1882 
Q 859 1659 859 1269 
Q 859 359 1788 359 
Q 2247 359 2472 579 
Q 2697 800 2697 1281 
z
" id="LiberationSans-38" transform="scale(0.015625)"/>
       </defs>
       <use xlink:href="#LiberationSans-38"/>
      </g>
     </g>
    </g>
    <g id="xtick_10">
     <g id="line2d_10">
      <path clip-path="url(#p96eeaba0e2)" d="M 147.24 152.76 
L 82.697973 63.925521 
" style="fill:none;stroke:#cccccc;stroke-linecap:round;"/>
     </g>
     <g id="text_10">
      <!-- 9 -->
      <g style="fill:#262626;" transform="translate(69.662954 53.679866)scale(0.12 -0.12)">
       <defs>
        <path d="M 3256 2291 
Q 3256 1156 2842 546 
Q 2428 -63 1663 -63 
Q 1147 -63 836 154 
Q 525 372 391 856 
L 928 941 
Q 1097 391 1672 391 
Q 2156 391 2422 841 
Q 2688 1291 2700 2125 
Q 2575 1844 2272 1673 
Q 1969 1503 1606 1503 
Q 1013 1503 656 1909 
Q 300 2316 300 2988 
Q 300 3678 687 4073 
Q 1075 4469 1766 4469 
Q 2500 4469 2878 3925 
Q 3256 3381 3256 2291 
z
M 2644 2834 
Q 2644 3366 2400 3689 
Q 2156 4013 1747 4013 
Q 1341 4013 1106 3736 
Q 872 3459 872 2988 
Q 872 2506 1106 2226 
Q 1341 1947 1741 1947 
Q 1984 1947 2193 2058 
Q 2403 2169 2523 2372 
Q 2644 2575 2644 2834 
z
" id="LiberationSans-39" transform="scale(0.015625)"/>
       </defs>
       <use xlink:href="#LiberationSans-39"/>
      </g>
     </g>
    </g>
   </g>
   <g id="matplotlib.axis_2">
    <g id="ytick_1">
     <g id="line2d_11">
      <path clip-path="url(#p96eeaba0e2)" d="M 147.24 130.798909 
C 150.123904 130.798909 152.979766 131.366975 155.644146 132.470598 
C 158.308526 133.57422 160.729608 135.191936 162.768836 137.231164 
C 164.808064 139.270392 166.42578 141.691474 167.529402 144.355854 
C 168.633025 147.020234 169.201091 149.876096 169.201091 152.76 
C 169.201091 155.643904 168.633025 158.499766 167.529402 161.164146 
C 166.42578 163.828526 164.808064 166.249608 162.768836 168.288836 
C 160.729608 170.328064 158.308526 171.94578 155.644146 173.049402 
C 152.979766 174.153025 150.123904 174.721091 147.24 174.721091 
C 144.356096 174.721091 141.500234 174.153025 138.835854 173.049402 
C 136.171474 171.94578 133.750392 170.328064 131.711164 168.288836 
C 129.671936 166.249608 128.05422 163.828526 126.950598 161.164146 
C 125.846975 158.499766 125.278909 155.643904 125.278909 152.76 
C 125.278909 149.876096 125.846975 147.020234 126.950598 144.355854 
C 128.05422 141.691474 129.671936 139.270392 131.711164 137.231164 
C 133.750392 135.191936 136.171474 133.57422 138.835854 132.470598 
C 141.500234 131.366975 144.356096 130.798909 147.24 130.798909 
" style="fill:none;stroke:#cccccc;stroke-linecap:round;stroke-opacity:0.5;"/>
     </g>
    </g>
    <g id="ytick_2">
     <g id="line2d_12">
      <path clip-path="url(#p96eeaba0e2)" d="M 147.24 108.837818 
C 153.007808 108.837818 158.719531 109.973951 164.048291 112.181195 
C 169.377051 114.38844 174.219216 117.623871 178.297673 121.702327 
C 182.376129 125.780784 185.61156 130.622949 187.818805 135.951709 
C 190.026049 141.280469 191.162182 146.992192 191.162182 152.76 
C 191.162182 158.527808 190.026049 164.239531 187.818805 169.568291 
C 185.61156 174.897051 182.376129 179.739216 178.297673 183.817673 
C 174.219216 187.896129 169.377051 191.13156 164.048291 193.338805 
C 158.719531 195.546049 153.007808 196.682182 147.24 196.682182 
C 141.472192 196.682182 135.760469 195.546049 130.431709 193.338805 
C 125.102949 191.13156 120.260784 187.896129 116.182327 183.817673 
C 112.103871 179.739216 108.86844 174.897051 106.661195 169.568291 
C 104.453951 164.239531 103.317818 158.527808 103.317818 152.76 
C 103.317818 146.992192 104.453951 141.280469 106.661195 135.951709 
C 108.86844 130.622949 112.103871 125.780784 116.182327 121.702327 
C 120.260784 117.623871 125.102949 114.38844 130.431709 112.181195 
C 135.760469 109.973951 141.472192 108.837818 147.24 108.837818 
" style="fill:none;stroke:#cccccc;stroke-linecap:round;stroke-opacity:0.5;"/>
     </g>
    </g>
    <g id="ytick_3">
     <g id="line2d_13">
      <path clip-path="url(#p96eeaba0e2)" d="M 147.24 86.876727 
C 155.891712 86.876727 164.459297 88.580926 172.452437 91.891793 
C 180.445577 95.20266 187.708825 100.055807 193.826509 106.173491 
C 199.944193 112.291175 204.79734 119.554423 208.108207 127.547563 
C 211.419074 135.540703 213.123273 144.108288 213.123273 152.76 
C 213.123273 161.411712 211.419074 169.979297 208.108207 177.972437 
C 204.79734 185.965577 199.944193 193.228825 193.826509 199.346509 
C 187.708825 205.464193 180.445577 210.31734 172.452437 213.628207 
C 164.459297 216.939074 155.891712 218.643273 147.24 218.643273 
C 138.588288 218.643273 130.020703 216.939074 122.027563 213.628207 
C 114.034423 210.31734 106.771175 205.464193 100.653491 199.346509 
C 94.535807 193.228825 89.68266 185.965577 86.371793 177.972437 
C 83.060926 169.979297 81.356727 161.411712 81.356727 152.76 
C 81.356727 144.108288 83.060926 135.540703 86.371793 127.547563 
C 89.68266 119.554423 94.535807 112.291175 100.653491 106.173491 
C 106.771175 100.055807 114.034423 95.20266 122.027563 91.891793 
C 130.020703 88.580926 138.588288 86.876727 147.24 86.876727 
" style="fill:none;stroke:#cccccc;stroke-linecap:round;stroke-opacity:0.5;"/>
     </g>
    </g>
    <g id="ytick_4">
     <g id="line2d_14">
      <path clip-path="url(#p96eeaba0e2)" d="M 147.24 64.915636 
C 158.775616 64.915636 170.199063 67.187901 180.856583 71.60239 
C 191.514102 76.01688 201.198433 82.487742 209.355345 90.644655 
C 217.512258 98.801567 223.98312 108.485898 228.39761 119.143417 
C 232.812099 129.800937 235.084364 141.224384 235.084364 152.76 
C 235.084364 164.295616 232.812099 175.719063 228.39761 186.376583 
C 223.98312 197.034102 217.512258 206.718433 209.355345 214.875345 
C 201.198433 223.032258 191.514102 229.50312 180.856583 233.91761 
C 170.199063 238.332099 158.775616 240.604364 147.24 240.604364 
C 135.704384 240.604364 124.280937 238.332099 113.623417 233.91761 
C 102.965898 229.50312 93.281567 223.032258 85.124655 214.875345 
C 76.967742 206.718433 70.49688 197.034102 66.08239 186.376583 
C 61.667901 175.719063 59.395636 164.295616 59.395636 152.76 
C 59.395636 141.224384 61.667901 129.800937 66.08239 119.143417 
C 70.49688 108.485898 76.967742 98.801567 85.124655 90.644655 
C 93.281567 82.487742 102.965898 76.01688 113.623417 71.60239 
C 124.280937 67.187901 135.704384 64.915636 147.24 64.915636 
" style="fill:none;stroke:#cccccc;stroke-linecap:round;stroke-opacity:0.5;"/>
     </g>
    </g>
    <g id="ytick_5">
     <g id="line2d_15">
      <path clip-path="url(#p96eeaba0e2)" d="M 147.24 42.954545 
C 161.65952 42.954545 175.938829 45.794877 189.260728 51.312988 
C 202.582628 56.831099 214.688041 64.919678 224.884182 75.115818 
C 235.080322 85.311959 243.168901 97.417372 248.687012 110.739272 
C 254.205123 124.061171 257.045455 138.34048 257.045455 152.76 
C 257.045455 167.17952 254.205123 181.458829 248.687012 194.780728 
C 243.168901 208.102628 235.080322 220.208041 224.884182 230.404182 
C 214.688041 240.600322 202.582628 248.688901 189.260728 254.207012 
C 175.938829 259.725123 161.65952 262.565455 147.24 262.565455 
C 132.82048 262.565455 118.541171 259.725123 105.219272 254.207012 
C 91.897372 248.688901 79.791959 240.600322 69.595818 230.404182 
C 59.399678 220.208041 51.311099 208.102628 45.792988 194.780728 
C 40.274877 181.458829 37.434545 167.17952 37.434545 152.76 
C 37.434545 138.34048 40.274877 124.061171 45.792988 110.739272 
C 51.311099 97.417372 59.399678 85.311959 69.595818 75.115818 
C 79.791959 64.919678 91.897372 56.831099 105.219272 51.312988 
C 118.541171 45.794877 132.82048 42.954545 147.24 42.954545 
" style="fill:none;stroke:#cccccc;stroke-linecap:round;stroke-opacity:0.5;"/>
     </g>
    </g>
   </g>
   <g id="patch_3">
    <path clip-path="url(#p96eeaba0e2)" d="M 147.24 152.76 
C 147.24 152.76 147.24 152.76 147.24 152.76 
C 147.24 152.76 147.24 152.76 147.24 152.76 
L 167.637559 72.876685 
C 160.97196 71.174678 154.119465 70.313627 147.24 70.313627 
C 140.360535 70.313627 133.50804 71.174678 126.842441 72.876685 
z
" style="fill:#a1c9f4;opacity:0.5;stroke:#ffffff;stroke-linejoin:miter;"/>
   </g>
   <g id="patch_4">
    <path clip-path="url(#p96eeaba0e2)" d="M 147.24 152.76 
C 147.24 152.76 147.24 152.76 147.24 152.76 
C 147.24 152.76 147.24 152.76 147.24 152.76 
L 147.320394 152.693313 
C 147.314829 152.686605 147.308447 152.680619 147.301396 152.675496 
C 147.294344 152.670373 147.28668 152.666153 147.27858 152.662934 
z
" style="fill:#a1c9f4;opacity:0.5;stroke:#ffffff;stroke-linejoin:miter;"/>
   </g>
   <g id="patch_5">
    <path clip-path="url(#p96eeaba0e2)" d="M 147.24 152.76 
C 147.24 152.76 147.24 152.76 147.24 152.76 
C 147.24 152.76 147.24 152.76 147.24 152.76 
L 219.780451 148.099461 
C 219.391568 142.046563 218.246613 136.066068 216.372308 130.297551 
C 214.498004 124.529035 211.909045 119.017725 208.665854 113.892248 
z
" style="fill:#a1c9f4;opacity:0.5;stroke:#ffffff;stroke-linejoin:miter;"/>
   </g>
   <g id="patch_6">
    <path clip-path="url(#p96eeaba0e2)" d="M 147.24 152.76 
C 147.24 152.76 147.24 152.76 147.24 152.76 
C 147.24 152.76 147.24 152.76 147.24 152.76 
L 147.42102 152.874542 
C 147.430577 152.859437 147.438207 152.843196 147.44373 152.826196 
C 147.449254 152.809196 147.452628 152.791572 147.453774 152.773734 
z
" style="fill:#a1c9f4;opacity:0.5;stroke:#ffffff;stroke-linejoin:miter;"/>
   </g>
   <g id="patch_7">
    <path clip-path="url(#p96eeaba0e2)" d="M 147.24 152.76 
C 147.24 152.76 147.24 152.76 147.24 152.76 
C 147.24 152.76 147.24 152.76 147.24 152.76 
L 167.813925 204.522949 
C 172.133113 202.806226 176.220499 200.555633 179.98069 197.823694 
C 183.740881 195.091756 187.144395 191.899892 190.111798 188.322597 
z
" style="fill:#a1c9f4;opacity:0.5;stroke:#ffffff;stroke-linejoin:miter;"/>
   </g>
   <g id="patch_8">
    <path clip-path="url(#p96eeaba0e2)" d="M 147.24 152.76 
C 147.24 152.76 147.24 152.76 147.24 152.76 
C 147.24 152.76 147.24 152.76 147.24 152.76 
L 147.225694 152.816027 
C 147.230369 152.817221 147.235175 152.817824 147.24 152.817824 
C 147.244825 152.817824 147.249631 152.817221 147.254306 152.816027 
z
" style="fill:#a1c9f4;opacity:0.5;stroke:#ffffff;stroke-linejoin:miter;"/>
   </g>
   <g id="patch_9">
    <path clip-path="url(#p96eeaba0e2)" d="M 147.24 152.76 
C 147.24 152.76 147.24 152.76 147.24 152.76 
C 147.24 152.76 147.24 152.76 147.24 152.76 
L 127.80347 168.882801 
C 129.148784 170.504618 130.691814 171.951695 132.396549 173.190257 
C 134.101285 174.42882 135.954358 175.449158 137.912523 176.227458 
z
" style="fill:#a1c9f4;opacity:0.5;stroke:#ffffff;stroke-linejoin:miter;"/>
   </g>
   <g id="patch_10">
    <path clip-path="url(#p96eeaba0e2)" d="M 147.24 152.76 
C 147.24 152.76 147.24 152.76 147.24 152.76 
C 147.24 152.76 147.24 152.76 147.24 152.76 
L 147.011074 152.774708 
C 147.012301 152.79381 147.015915 152.812683 147.02183 152.830888 
C 147.027745 152.849092 147.035915 152.866485 147.04615 152.88266 
z
" style="fill:#a1c9f4;opacity:0.5;stroke:#ffffff;stroke-linejoin:miter;"/>
   </g>
   <g id="patch_11">
    <path clip-path="url(#p96eeaba0e2)" d="M 147.24 152.76 
C 147.24 152.76 147.24 152.76 147.24 152.76 
C 147.24 152.76 147.24 152.76 147.24 152.76 
L 126.504456 139.639401 
C 125.409651 141.36961 124.535696 143.230065 123.902986 145.177345 
C 123.270276 147.124624 122.883774 149.143462 122.752498 151.186741 
z
" style="fill:#a1c9f4;opacity:0.5;stroke:#ffffff;stroke-linejoin:miter;"/>
   </g>
   <g id="patch_12">
    <path clip-path="url(#p96eeaba0e2)" d="M 147.24 152.76 
C 147.24 152.76 147.24 152.76 147.24 152.76 
C 147.24 152.76 147.24 152.76 147.24 152.76 
L 147.200955 152.661765 
C 147.192758 152.665023 147.185001 152.669294 147.177865 152.674479 
C 147.170729 152.679663 147.16427 152.685721 147.158639 152.69251 
z
" style="fill:#a1c9f4;opacity:0.5;stroke:#ffffff;stroke-linejoin:miter;"/>
   </g>
   <g id="patch_13">
    <path clip-path="url(#p96eeaba0e2)" d="M 147.24 152.76 
C 147.24 152.76 147.24 152.76 147.24 152.76 
C 147.24 152.76 147.24 152.76 147.24 152.76 
L 147.244076 152.744038 
C 147.242744 152.743698 147.241375 152.743526 147.24 152.743526 
C 147.238625 152.743526 147.237256 152.743698 147.235924 152.744038 
z
" style="fill:#ffb482;opacity:0.5;stroke:#ffffff;stroke-linejoin:miter;"/>
   </g>
   <g id="patch_14">
    <path clip-path="url(#p96eeaba0e2)" d="M 147.24 152.76 
C 147.24 152.76 147.24 152.76 147.24 152.76 
C 147.24 152.76 147.24 152.76 147.24 152.76 
L 159.37016 142.697908 
C 158.530562 141.685747 157.567571 140.78264 156.503661 140.009664 
C 155.439752 139.236689 154.283265 138.599905 153.061193 138.114175 
z
" style="fill:#ffb482;opacity:0.5;stroke:#ffffff;stroke-linejoin:miter;"/>
   </g>
   <g id="patch_15">
    <path clip-path="url(#p96eeaba0e2)" d="M 147.24 152.76 
C 147.24 152.76 147.24 152.76 147.24 152.76 
C 147.24 152.76 147.24 152.76 147.24 152.76 
L 147.288986 152.756853 
C 147.288723 152.752765 147.28795 152.748727 147.286684 152.744831 
C 147.285419 152.740936 147.28367 152.737214 147.28148 152.733753 
z
" style="fill:#ffb482;opacity:0.5;stroke:#ffffff;stroke-linejoin:miter;"/>
   </g>
   <g id="patch_16">
    <path clip-path="url(#p96eeaba0e2)" d="M 147.24 152.76 
C 147.24 152.76 147.24 152.76 147.24 152.76 
C 147.24 152.76 147.24 152.76 147.24 152.76 
L 160.845458 161.368974 
C 161.563806 160.233712 162.137245 159.01299 162.552392 157.735298 
C 162.967539 156.457606 163.22114 155.132962 163.307275 153.792281 
z
" style="fill:#ffb482;opacity:0.5;stroke:#ffffff;stroke-linejoin:miter;"/>
   </g>
   <g id="patch_17">
    <path clip-path="url(#p96eeaba0e2)" d="M 147.24 152.76 
C 147.24 152.76 147.24 152.76 147.24 152.76 
C 147.24 152.76 147.24 152.76 147.24 152.76 
L 147.28799 152.88074 
C 147.298065 152.876735 147.307599 152.871486 147.316369 152.865113 
C 147.32514 152.858741 147.333079 152.851296 147.340001 152.842952 
z
" style="fill:#ffb482;opacity:0.5;stroke:#ffffff;stroke-linejoin:miter;"/>
   </g>
   <g id="patch_18">
    <path clip-path="url(#p96eeaba0e2)" d="M 147.24 152.76 
C 147.24 152.76 147.24 152.76 147.24 152.76 
C 147.24 152.76 147.24 152.76 147.24 152.76 
L 138.611138 186.55336 
C 141.430914 187.273367 144.329752 187.637621 147.24 187.637621 
C 150.150248 187.637621 153.049086 187.273367 155.868862 186.55336 
z
" style="fill:#ffb482;opacity:0.5;stroke:#ffffff;stroke-linejoin:miter;"/>
   </g>
   <g id="patch_19">
    <path clip-path="url(#p96eeaba0e2)" d="M 147.24 152.76 
C 147.24 152.76 147.24 152.76 147.24 152.76 
C 147.24 152.76 147.24 152.76 147.24 152.76 
L 147.223646 152.773566 
C 147.224778 152.774931 147.226076 152.776148 147.22751 152.77719 
C 147.228945 152.778232 147.230504 152.779091 147.232152 152.779746 
z
" style="fill:#ffb482;opacity:0.5;stroke:#ffffff;stroke-linejoin:miter;"/>
   </g>
   <g id="patch_20">
    <path clip-path="url(#p96eeaba0e2)" d="M 147.24 152.76 
C 147.24 152.76 147.24 152.76 147.24 152.76 
C 147.24 152.76 147.24 152.76 147.24 152.76 
L 99.87578 155.80303 
C 100.129695 159.755181 100.877277 163.660057 102.101077 167.426525 
C 103.324876 171.192993 105.015299 174.791522 107.132893 178.138127 
z
" style="fill:#ffb482;opacity:0.5;stroke:#ffffff;stroke-linejoin:miter;"/>
   </g>
   <g id="patch_21">
    <path clip-path="url(#p96eeaba0e2)" d="M 147.24 152.76 
C 147.24 152.76 147.24 152.76 147.24 152.76 
C 147.24 152.76 147.24 152.76 147.24 152.76 
L 147.141433 152.697631 
C 147.136228 152.705855 147.132074 152.714699 147.129066 152.723955 
C 147.126059 152.733212 147.124221 152.742809 147.123597 152.752521 
z
" style="fill:#ffb482;opacity:0.5;stroke:#ffffff;stroke-linejoin:miter;"/>
   </g>
   <g id="patch_22">
    <path clip-path="url(#p96eeaba0e2)" d="M 147.24 152.76 
C 147.24 152.76 147.24 152.76 147.24 152.76 
C 147.24 152.76 147.24 152.76 147.24 152.76 
L 137.171437 127.428009 
C 135.057693 128.268147 133.057389 129.369553 131.21721 130.706521 
C 129.37703 132.04349 127.711403 133.605539 126.259202 135.356212 
z
" style="fill:#ffb482;opacity:0.5;stroke:#ffffff;stroke-linejoin:miter;"/>
   </g>
   <g id="patch_23">
    <path clip-path="url(#p96eeaba0e2)" d="M 147.24 152.76 
C 147.24 152.76 147.24 152.76 147.24 152.76 
C 147.24 152.76 147.24 152.76 147.24 152.76 
L 147.325301 152.425934 
C 147.297426 152.418816 147.268769 152.415215 147.24 152.415215 
C 147.211231 152.415215 147.182574 152.418816 147.154699 152.425934 
z
" style="fill:#8de5a1;opacity:0.5;stroke:#ffffff;stroke-linejoin:miter;"/>
   </g>
   <g id="patch_24">
    <path clip-path="url(#p96eeaba0e2)" d="M 147.24 152.76 
C 147.24 152.76 147.24 152.76 147.24 152.76 
C 147.24 152.76 147.24 152.76 147.24 152.76 
L 147.505934 152.539405 
C 147.487527 152.517215 147.466415 152.497416 147.443091 152.48047 
C 147.419766 152.463523 147.394412 152.449563 147.36762 152.438914 
z
" style="fill:#8de5a1;opacity:0.5;stroke:#ffffff;stroke-linejoin:miter;"/>
   </g>
   <g id="patch_25">
    <path clip-path="url(#p96eeaba0e2)" d="M 147.24 152.76 
C 147.24 152.76 147.24 152.76 147.24 152.76 
C 147.24 152.76 147.24 152.76 147.24 152.76 
L 147.544068 152.740464 
C 147.542437 152.715093 147.537638 152.690024 147.529782 152.665844 
C 147.521925 152.641664 147.511073 152.618563 147.497479 152.597078 
z
" style="fill:#8de5a1;opacity:0.5;stroke:#ffffff;stroke-linejoin:miter;"/>
   </g>
   <g id="patch_26">
    <path clip-path="url(#p96eeaba0e2)" d="M 147.24 152.76 
C 147.24 152.76 147.24 152.76 147.24 152.76 
C 147.24 152.76 147.24 152.76 147.24 152.76 
L 147.538721 152.949018 
C 147.554493 152.924092 147.567083 152.89729 147.576198 152.869237 
C 147.585313 152.841184 147.590881 152.812101 147.592772 152.782665 
z
" style="fill:#8de5a1;opacity:0.5;stroke:#ffffff;stroke-linejoin:miter;"/>
   </g>
   <g id="patch_27">
    <path clip-path="url(#p96eeaba0e2)" d="M 147.24 152.76 
C 147.24 152.76 147.24 152.76 147.24 152.76 
C 147.24 152.76 147.24 152.76 147.24 152.76 
L 147.327511 152.980173 
C 147.345883 152.972871 147.363268 152.963298 147.379262 152.951678 
C 147.395256 152.940058 147.409733 152.926481 147.422355 152.911265 
z
" style="fill:#8de5a1;opacity:0.5;stroke:#ffffff;stroke-linejoin:miter;"/>
   </g>
   <g id="patch_28">
    <path clip-path="url(#p96eeaba0e2)" d="M 147.24 152.76 
C 147.24 152.76 147.24 152.76 147.24 152.76 
C 147.24 152.76 147.24 152.76 147.24 152.76 
L 147.051405 153.498598 
C 147.113035 153.514335 147.176393 153.522296 147.24 153.522296 
C 147.303607 153.522296 147.366965 153.514335 147.428595 153.498598 
z
" style="fill:#8de5a1;opacity:0.5;stroke:#ffffff;stroke-linejoin:miter;"/>
   </g>
   <g id="patch_29">
    <path clip-path="url(#p96eeaba0e2)" d="M 147.24 152.76 
C 147.24 152.76 147.24 152.76 147.24 152.76 
C 147.24 152.76 147.24 152.76 147.24 152.76 
L 147.155632 152.829984 
C 147.161472 152.837023 147.16817 152.843305 147.17557 152.848681 
C 147.182969 152.854057 147.191013 152.858486 147.199513 152.861864 
z
" style="fill:#8de5a1;opacity:0.5;stroke:#ffffff;stroke-linejoin:miter;"/>
   </g>
   <g id="patch_30">
    <path clip-path="url(#p96eeaba0e2)" d="M 147.24 152.76 
C 147.24 152.76 147.24 152.76 147.24 152.76 
C 147.24 152.76 147.24 152.76 147.24 152.76 
L 146.204712 152.826515 
C 146.210262 152.912901 146.226602 152.998254 146.253352 153.080581 
C 146.280102 153.162909 146.317051 153.241566 146.363338 153.314716 
z
" style="fill:#8de5a1;opacity:0.5;stroke:#ffffff;stroke-linejoin:miter;"/>
   </g>
   <g id="patch_31">
    <path clip-path="url(#p96eeaba0e2)" d="M 147.24 152.76 
C 147.24 152.76 147.24 152.76 147.24 152.76 
C 147.24 152.76 147.24 152.76 147.24 152.76 
L 147.147945 152.701751 
C 147.143085 152.709433 147.139205 152.717692 147.136396 152.726337 
C 147.133587 152.734982 147.131871 152.743944 147.131288 152.753016 
z
" style="fill:#8de5a1;opacity:0.5;stroke:#ffffff;stroke-linejoin:miter;"/>
   </g>
   <g id="patch_32">
    <path clip-path="url(#p96eeaba0e2)" d="M 147.24 152.76 
C 147.24 152.76 147.24 152.76 147.24 152.76 
C 147.24 152.76 147.24 152.76 147.24 152.76 
L 147.019679 152.205683 
C 146.973426 152.224067 146.929655 152.248168 146.889388 152.277424 
C 146.849121 152.306679 146.812673 152.34086 146.780896 152.379169 
z
" style="fill:#8de5a1;opacity:0.5;stroke:#ffffff;stroke-linejoin:miter;"/>
   </g>
   <g id="patch_33">
    <path d="M 147.24 42.954545 
C 132.82048 42.954545 118.541171 45.794877 105.219272 51.312988 
C 91.897372 56.831099 79.791959 64.919678 69.595818 75.115818 
C 59.399678 85.311959 51.311099 97.417372 45.792988 110.739272 
C 40.274877 124.061171 37.434545 138.34048 37.434545 152.76 
C 37.434545 167.17952 40.274877 181.458829 45.792988 194.780728 
C 51.311099 208.102628 59.399678 220.208041 69.595818 230.404182 
C 79.791959 240.600322 91.897372 248.688901 105.219272 254.207012 
C 118.541171 259.725123 132.82048 262.565455 147.24 262.565455 
C 161.65952 262.565455 175.938829 259.725123 189.260728 254.207012 
C 202.582628 248.688901 214.688041 240.600322 224.884182 230.404182 
C 235.080322 220.208041 243.168901 208.102628 248.687012 194.780728 
C 254.205123 181.458829 257.045455 167.17952 257.045455 152.76 
C 257.045455 138.34048 254.205123 124.061171 248.687012 110.739272 
C 243.168901 97.417372 235.080322 85.311959 224.884182 75.115818 
C 214.688041 64.919678 202.582628 56.831099 189.260728 51.312988 
C 175.938829 45.794877 161.65952 42.954545 147.24 42.954545 
" style="fill:none;stroke:#262626;stroke-linecap:square;stroke-linejoin:miter;stroke-width:1.25;"/>
   </g>
   <g id="text_11">
    <!-- Parity -->
    <g style="fill:#262626;" transform="translate(126.79125 14.86142)scale(0.16 -0.16)">
     <defs>
      <path d="M 3931 3078 
Q 3931 2453 3523 2084 
Q 3116 1716 2416 1716 
L 1122 1716 
L 1122 0 
L 525 0 
L 525 4403 
L 2378 4403 
Q 3119 4403 3525 4056 
Q 3931 3709 3931 3078 
z
M 3331 3072 
Q 3331 3925 2306 3925 
L 1122 3925 
L 1122 2188 
L 2331 2188 
Q 3331 2188 3331 3072 
z
" id="LiberationSans-50" transform="scale(0.015625)"/>
      <path d="M 1294 -63 
Q 784 -63 528 206 
Q 272 475 272 944 
Q 272 1469 617 1750 
Q 963 2031 1731 2050 
L 2491 2063 
L 2491 2247 
Q 2491 2659 2316 2837 
Q 2141 3016 1766 3016 
Q 1388 3016 1216 2887 
Q 1044 2759 1009 2478 
L 422 2531 
Q 566 3444 1778 3444 
Q 2416 3444 2737 3151 
Q 3059 2859 3059 2306 
L 3059 850 
Q 3059 600 3125 473 
Q 3191 347 3375 347 
Q 3456 347 3559 369 
L 3559 19 
Q 3347 -31 3125 -31 
Q 2813 -31 2670 133 
Q 2528 297 2509 647 
L 2491 647 
Q 2275 259 1989 98 
Q 1703 -63 1294 -63 
z
M 1422 359 
Q 1731 359 1972 500 
Q 2213 641 2352 886 
Q 2491 1131 2491 1391 
L 2491 1669 
L 1875 1656 
Q 1478 1650 1273 1575 
Q 1069 1500 959 1344 
Q 850 1188 850 934 
Q 850 659 998 509 
Q 1147 359 1422 359 
z
" id="LiberationSans-61" transform="scale(0.015625)"/>
      <path d="M 444 0 
L 444 2594 
Q 444 2950 425 3381 
L 956 3381 
Q 981 2806 981 2691 
L 994 2691 
Q 1128 3125 1303 3284 
Q 1478 3444 1797 3444 
Q 1909 3444 2025 3413 
L 2025 2897 
Q 1913 2928 1725 2928 
Q 1375 2928 1190 2626 
Q 1006 2325 1006 1763 
L 1006 0 
L 444 0 
z
" id="LiberationSans-72" transform="scale(0.015625)"/>
      <path d="M 428 4100 
L 428 4638 
L 991 4638 
L 991 4100 
L 428 4100 
z
M 428 0 
L 428 3381 
L 991 3381 
L 991 0 
L 428 0 
z
" id="LiberationSans-69" transform="scale(0.015625)"/>
      <path d="M 1731 25 
Q 1453 -50 1163 -50 
Q 488 -50 488 716 
L 488 2972 
L 97 2972 
L 97 3381 
L 509 3381 
L 675 4138 
L 1050 4138 
L 1050 3381 
L 1675 3381 
L 1675 2972 
L 1050 2972 
L 1050 838 
Q 1050 594 1129 495 
Q 1209 397 1406 397 
Q 1519 397 1731 441 
L 1731 25 
z
" id="LiberationSans-74" transform="scale(0.015625)"/>
      <path d="M 597 -1328 
Q 366 -1328 209 -1294 
L 209 -872 
Q 328 -891 472 -891 
Q 997 -891 1303 -119 
L 1356 16 
L 16 3381 
L 616 3381 
L 1328 1513 
Q 1344 1469 1366 1408 
Q 1388 1347 1506 1000 
Q 1625 653 1634 613 
L 1853 1228 
L 2594 3381 
L 3188 3381 
L 1888 0 
Q 1678 -541 1497 -805 
Q 1316 -1069 1095 -1198 
Q 875 -1328 597 -1328 
z
" id="LiberationSans-79" transform="scale(0.015625)"/>
     </defs>
     <use xlink:href="#LiberationSans-50"/>
     <use x="66.699219" xlink:href="#LiberationSans-61"/>
     <use x="122.314453" xlink:href="#LiberationSans-72"/>
     <use x="155.615234" xlink:href="#LiberationSans-69"/>
     <use x="177.832031" xlink:href="#LiberationSans-74"/>
     <use x="205.615234" xlink:href="#LiberationSans-79"/>
    </g>
   </g>
  </g>
  <g id="axes_2">
   <g id="patch_34">
    <path d="M 538.565455 152.76 
C 538.565455 138.34048 535.725123 124.061171 530.207012 110.739272 
C 524.688901 97.417372 516.600322 85.311959 506.404182 75.115818 
C 496.208041 64.919678 484.102628 56.831099 470.780728 51.312988 
C 457.458829 45.794877 443.17952 42.954545 428.76 42.954545 
C 414.34048 42.954545 400.061171 45.794877 386.739272 51.312988 
C 373.417372 56.831099 361.311959 64.919678 351.115818 75.115818 
C 340.919678 85.311959 332.831099 97.417372 327.312988 110.739272 
C 321.794877 124.061171 318.954545 138.34048 318.954545 152.76 
C 318.954545 167.17952 321.794877 181.458829 327.312988 194.780728 
C 332.831099 208.102628 340.919678 220.208041 351.115818 230.404182 
C 361.311959 240.600322 373.417372 248.688901 386.739272 254.207012 
C 400.061171 259.725123 414.34048 262.565455 428.76 262.565455 
C 443.17952 262.565455 457.458829 259.725123 470.780728 254.207012 
C 484.102628 248.688901 496.208041 240.600322 506.404182 230.404182 
C 516.600322 220.208041 524.688901 208.102628 530.207012 194.780728 
C 535.725123 181.458829 538.565455 167.17952 538.565455 152.76 
M 428.76 152.76 
C 428.76 152.76 428.76 152.76 428.76 152.76 
C 428.76 152.76 428.76 152.76 428.76 152.76 
C 428.76 152.76 428.76 152.76 428.76 152.76 
C 428.76 152.76 428.76 152.76 428.76 152.76 
C 428.76 152.76 428.76 152.76 428.76 152.76 
C 428.76 152.76 428.76 152.76 428.76 152.76 
C 428.76 152.76 428.76 152.76 428.76 152.76 
C 428.76 152.76 428.76 152.76 428.76 152.76 
C 428.76 152.76 428.76 152.76 428.76 152.76 
C 428.76 152.76 428.76 152.76 428.76 152.76 
C 428.76 152.76 428.76 152.76 428.76 152.76 
C 428.76 152.76 428.76 152.76 428.76 152.76 
C 428.76 152.76 428.76 152.76 428.76 152.76 
C 428.76 152.76 428.76 152.76 428.76 152.76 
C 428.76 152.76 428.76 152.76 428.76 152.76 
C 428.76 152.76 428.76 152.76 428.76 152.76 
M 538.565455 152.76 
z
" style="fill:#ffffff;"/>
   </g>
   <g id="matplotlib.axis_3">
    <g id="xtick_11">
     <g id="line2d_16">
      <path clip-path="url(#pbde19140cc)" d="M 428.76 152.76 
L 428.76 42.954545 
" style="fill:none;stroke:#cccccc;stroke-linecap:round;"/>
     </g>
     <g id="text_12">
      <!-- 0 -->
      <g style="fill:#262626;" transform="translate(425.423438 29.55767)scale(0.12 -0.12)">
       <use xlink:href="#LiberationSans-30"/>
      </g>
     </g>
    </g>
    <g id="xtick_12">
     <g id="line2d_17">
      <path clip-path="url(#pbde19140cc)" d="M 428.76 152.76 
L 493.302027 63.925521 
" style="fill:none;stroke:#cccccc;stroke-linecap:round;"/>
     </g>
     <g id="text_13">
      <!-- 1 -->
      <g style="fill:#262626;" transform="translate(499.663921 53.679866)scale(0.12 -0.12)">
       <use xlink:href="#LiberationSans-31"/>
      </g>
     </g>
    </g>
    <g id="xtick_13">
     <g id="line2d_18">
      <path clip-path="url(#pbde19140cc)" d="M 428.76 152.76 
L 533.191193 118.828248 
" style="fill:none;stroke:#cccccc;stroke-linecap:round;"/>
     </g>
     <g id="text_14">
      <!-- 2 -->
      <g style="fill:#262626;" transform="translate(545.547063 116.832593)scale(0.12 -0.12)">
       <use xlink:href="#LiberationSans-32"/>
      </g>
     </g>
    </g>
    <g id="xtick_14">
     <g id="line2d_19">
      <path clip-path="url(#pbde19140cc)" d="M 428.76 152.76 
L 533.191193 186.691752 
" style="fill:none;stroke:#cccccc;stroke-linecap:round;"/>
     </g>
     <g id="text_15">
      <!-- 3 -->
      <g style="fill:#262626;" transform="translate(545.547063 194.893657)scale(0.12 -0.12)">
       <use xlink:href="#LiberationSans-33"/>
      </g>
     </g>
    </g>
    <g id="xtick_15">
     <g id="line2d_20">
      <path clip-path="url(#pbde19140cc)" d="M 428.76 152.76 
L 493.302027 241.594479 
" style="fill:none;stroke:#cccccc;stroke-linecap:round;"/>
     </g>
     <g id="text_16">
      <!-- 4 -->
      <g style="fill:#262626;" transform="translate(499.663921 258.046384)scale(0.12 -0.12)">
       <use xlink:href="#LiberationSans-34"/>
      </g>
     </g>
    </g>
    <g id="xtick_16">
     <g id="line2d_21">
      <path clip-path="url(#pbde19140cc)" d="M 428.76 152.76 
L 428.76 262.565455 
" style="fill:none;stroke:#cccccc;stroke-linecap:round;"/>
     </g>
     <g id="text_17">
      <!-- 5 -->
      <g style="fill:#262626;" transform="translate(425.423438 282.16858)scale(0.12 -0.12)">
       <use xlink:href="#LiberationSans-35"/>
      </g>
     </g>
    </g>
    <g id="xtick_17">
     <g id="line2d_22">
      <path clip-path="url(#pbde19140cc)" d="M 428.76 152.76 
L 364.217973 241.594479 
" style="fill:none;stroke:#cccccc;stroke-linecap:round;"/>
     </g>
     <g id="text_18">
      <!-- 6 -->
      <g style="fill:#262626;" transform="translate(351.182954 258.046384)scale(0.12 -0.12)">
       <use xlink:href="#LiberationSans-36"/>
      </g>
     </g>
    </g>
    <g id="xtick_18">
     <g id="line2d_23">
      <path clip-path="url(#pbde19140cc)" d="M 428.76 152.76 
L 324.328807 186.691752 
" style="fill:none;stroke:#cccccc;stroke-linecap:round;"/>
     </g>
     <g id="text_19">
      <!-- 7 -->
      <g style="fill:#262626;" transform="translate(305.299812 194.893657)scale(0.12 -0.12)">
       <use xlink:href="#LiberationSans-37"/>
      </g>
     </g>
    </g>
    <g id="xtick_19">
     <g id="line2d_24">
      <path clip-path="url(#pbde19140cc)" d="M 428.76 152.76 
L 324.328807 118.828248 
" style="fill:none;stroke:#cccccc;stroke-linecap:round;"/>
     </g>
     <g id="text_20">
      <!-- 8 -->
      <g style="fill:#262626;" transform="translate(305.299812 116.832593)scale(0.12 -0.12)">
       <use xlink:href="#LiberationSans-38"/>
      </g>
     </g>
    </g>
    <g id="xtick_20">
     <g id="line2d_25">
      <path clip-path="url(#pbde19140cc)" d="M 428.76 152.76 
L 364.217973 63.925521 
" style="fill:none;stroke:#cccccc;stroke-linecap:round;"/>
     </g>
     <g id="text_21">
      <!-- 9 -->
      <g style="fill:#262626;" transform="translate(351.182954 53.679866)scale(0.12 -0.12)">
       <use xlink:href="#LiberationSans-39"/>
      </g>
     </g>
    </g>
   </g>
   <g id="matplotlib.axis_4">
    <g id="ytick_6">
     <g id="line2d_26">
      <path clip-path="url(#pbde19140cc)" d="M 428.76 130.798909 
C 431.643904 130.798909 434.499766 131.366975 437.164146 132.470598 
C 439.828526 133.57422 442.249608 135.191936 444.288836 137.231164 
C 446.328064 139.270392 447.94578 141.691474 449.049402 144.355854 
C 450.153025 147.020234 450.721091 149.876096 450.721091 152.76 
C 450.721091 155.643904 450.153025 158.499766 449.049402 161.164146 
C 447.94578 163.828526 446.328064 166.249608 444.288836 168.288836 
C 442.249608 170.328064 439.828526 171.94578 437.164146 173.049402 
C 434.499766 174.153025 431.643904 174.721091 428.76 174.721091 
C 425.876096 174.721091 423.020234 174.153025 420.355854 173.049402 
C 417.691474 171.94578 415.270392 170.328064 413.231164 168.288836 
C 411.191936 166.249608 409.57422 163.828526 408.470598 161.164146 
C 407.366975 158.499766 406.798909 155.643904 406.798909 152.76 
C 406.798909 149.876096 407.366975 147.020234 408.470598 144.355854 
C 409.57422 141.691474 411.191936 139.270392 413.231164 137.231164 
C 415.270392 135.191936 417.691474 133.57422 420.355854 132.470598 
C 423.020234 131.366975 425.876096 130.798909 428.76 130.798909 
" style="fill:none;stroke:#cccccc;stroke-linecap:round;stroke-opacity:0.5;"/>
     </g>
    </g>
    <g id="ytick_7">
     <g id="line2d_27">
      <path clip-path="url(#pbde19140cc)" d="M 428.76 108.837818 
C 434.527808 108.837818 440.239531 109.973951 445.568291 112.181195 
C 450.897051 114.38844 455.739216 117.623871 459.817673 121.702327 
C 463.896129 125.780784 467.13156 130.622949 469.338805 135.951709 
C 471.546049 141.280469 472.682182 146.992192 472.682182 152.76 
C 472.682182 158.527808 471.546049 164.239531 469.338805 169.568291 
C 467.13156 174.897051 463.896129 179.739216 459.817673 183.817673 
C 455.739216 187.896129 450.897051 191.13156 445.568291 193.338805 
C 440.239531 195.546049 434.527808 196.682182 428.76 196.682182 
C 422.992192 196.682182 417.280469 195.546049 411.951709 193.338805 
C 406.622949 191.13156 401.780784 187.896129 397.702327 183.817673 
C 393.623871 179.739216 390.38844 174.897051 388.181195 169.568291 
C 385.973951 164.239531 384.837818 158.527808 384.837818 152.76 
C 384.837818 146.992192 385.973951 141.280469 388.181195 135.951709 
C 390.38844 130.622949 393.623871 125.780784 397.702327 121.702327 
C 401.780784 117.623871 406.622949 114.38844 411.951709 112.181195 
C 417.280469 109.973951 422.992192 108.837818 428.76 108.837818 
" style="fill:none;stroke:#cccccc;stroke-linecap:round;stroke-opacity:0.5;"/>
     </g>
    </g>
    <g id="ytick_8">
     <g id="line2d_28">
      <path clip-path="url(#pbde19140cc)" d="M 428.76 86.876727 
C 437.411712 86.876727 445.979297 88.580926 453.972437 91.891793 
C 461.965577 95.20266 469.228825 100.055807 475.346509 106.173491 
C 481.464193 112.291175 486.31734 119.554423 489.628207 127.547563 
C 492.939074 135.540703 494.643273 144.108288 494.643273 152.76 
C 494.643273 161.411712 492.939074 169.979297 489.628207 177.972437 
C 486.31734 185.965577 481.464193 193.228825 475.346509 199.346509 
C 469.228825 205.464193 461.965577 210.31734 453.972437 213.628207 
C 445.979297 216.939074 437.411712 218.643273 428.76 218.643273 
C 420.108288 218.643273 411.540703 216.939074 403.547563 213.628207 
C 395.554423 210.31734 388.291175 205.464193 382.173491 199.346509 
C 376.055807 193.228825 371.20266 185.965577 367.891793 177.972437 
C 364.580926 169.979297 362.876727 161.411712 362.876727 152.76 
C 362.876727 144.108288 364.580926 135.540703 367.891793 127.547563 
C 371.20266 119.554423 376.055807 112.291175 382.173491 106.173491 
C 388.291175 100.055807 395.554423 95.20266 403.547563 91.891793 
C 411.540703 88.580926 420.108288 86.876727 428.76 86.876727 
" style="fill:none;stroke:#cccccc;stroke-linecap:round;stroke-opacity:0.5;"/>
     </g>
    </g>
    <g id="ytick_9">
     <g id="line2d_29">
      <path clip-path="url(#pbde19140cc)" d="M 428.76 64.915636 
C 440.295616 64.915636 451.719063 67.187901 462.376583 71.60239 
C 473.034102 76.01688 482.718433 82.487742 490.875345 90.644655 
C 499.032258 98.801567 505.50312 108.485898 509.91761 119.143417 
C 514.332099 129.800937 516.604364 141.224384 516.604364 152.76 
C 516.604364 164.295616 514.332099 175.719063 509.91761 186.376583 
C 505.50312 197.034102 499.032258 206.718433 490.875345 214.875345 
C 482.718433 223.032258 473.034102 229.50312 462.376583 233.91761 
C 451.719063 238.332099 440.295616 240.604364 428.76 240.604364 
C 417.224384 240.604364 405.800937 238.332099 395.143417 233.91761 
C 384.485898 229.50312 374.801567 223.032258 366.644655 214.875345 
C 358.487742 206.718433 352.01688 197.034102 347.60239 186.376583 
C 343.187901 175.719063 340.915636 164.295616 340.915636 152.76 
C 340.915636 141.224384 343.187901 129.800937 347.60239 119.143417 
C 352.01688 108.485898 358.487742 98.801567 366.644655 90.644655 
C 374.801567 82.487742 384.485898 76.01688 395.143417 71.60239 
C 405.800937 67.187901 417.224384 64.915636 428.76 64.915636 
" style="fill:none;stroke:#cccccc;stroke-linecap:round;stroke-opacity:0.5;"/>
     </g>
    </g>
    <g id="ytick_10">
     <g id="line2d_30">
      <path clip-path="url(#pbde19140cc)" d="M 428.76 42.954545 
C 443.17952 42.954545 457.458829 45.794877 470.780728 51.312988 
C 484.102628 56.831099 496.208041 64.919678 506.404182 75.115818 
C 516.600322 85.311959 524.688901 97.417372 530.207012 110.739272 
C 535.725123 124.061171 538.565455 138.34048 538.565455 152.76 
C 538.565455 167.17952 535.725123 181.458829 530.207012 194.780728 
C 524.688901 208.102628 516.600322 220.208041 506.404182 230.404182 
C 496.208041 240.600322 484.102628 248.688901 470.780728 254.207012 
C 457.458829 259.725123 443.17952 262.565455 428.76 262.565455 
C 414.34048 262.565455 400.061171 259.725123 386.739272 254.207012 
C 373.417372 248.688901 361.311959 240.600322 351.115818 230.404182 
C 340.919678 220.208041 332.831099 208.102628 327.312988 194.780728 
C 321.794877 181.458829 318.954545 167.17952 318.954545 152.76 
C 318.954545 138.34048 321.794877 124.061171 327.312988 110.739272 
C 332.831099 97.417372 340.919678 85.311959 351.115818 75.115818 
C 361.311959 64.919678 373.417372 56.831099 386.739272 51.312988 
C 400.061171 45.794877 414.34048 42.954545 428.76 42.954545 
" style="fill:none;stroke:#cccccc;stroke-linecap:round;stroke-opacity:0.5;"/>
     </g>
    </g>
   </g>
   <g id="patch_35">
    <path clip-path="url(#pbde19140cc)" d="M 428.76 152.76 
C 428.76 152.76 428.76 152.76 428.76 152.76 
C 428.76 152.76 428.76 152.76 428.76 152.76 
L 448.6107 75.018361 
C 442.123806 73.361985 435.455026 72.524018 428.76 72.524018 
C 422.064974 72.524018 415.396194 73.361985 408.9093 75.018361 
z
" style="fill:#a1c9f4;opacity:0.5;stroke:#ffffff;stroke-linejoin:miter;"/>
   </g>
   <g id="patch_36">
    <path clip-path="url(#pbde19140cc)" d="M 428.76 152.76 
C 428.76 152.76 428.76 152.76 428.76 152.76 
C 428.76 152.76 428.76 152.76 428.76 152.76 
L 451.474752 133.91788 
C 449.902534 132.022522 448.099251 130.331378 446.10699 128.883916 
C 444.11473 127.436454 441.949111 126.244023 439.660677 125.334452 
z
" style="fill:#a1c9f4;opacity:0.5;stroke:#ffffff;stroke-linejoin:miter;"/>
   </g>
   <g id="patch_37">
    <path clip-path="url(#pbde19140cc)" d="M 428.76 152.76 
C 428.76 152.76 428.76 152.76 428.76 152.76 
C 428.76 152.76 428.76 152.76 428.76 152.76 
L 501.24451 148.103055 
C 500.855927 142.054825 499.711855 136.078942 497.838996 130.314874 
C 495.966137 124.550805 493.379174 119.043746 490.138484 113.922221 
z
" style="fill:#a1c9f4;opacity:0.5;stroke:#ffffff;stroke-linejoin:miter;"/>
   </g>
   <g id="patch_38">
    <path clip-path="url(#pbde19140cc)" d="M 428.76 152.76 
C 428.76 152.76 428.76 152.76 428.76 152.76 
C 428.76 152.76 428.76 152.76 428.76 152.76 
L 449.089448 165.623638 
C 450.162811 163.927314 451.019651 162.103296 451.639969 160.194153 
C 452.260287 158.285009 452.639221 156.30571 452.767925 154.302448 
z
" style="fill:#a1c9f4;opacity:0.5;stroke:#ffffff;stroke-linejoin:miter;"/>
   </g>
   <g id="patch_39">
    <path clip-path="url(#pbde19140cc)" d="M 428.76 152.76 
C 428.76 152.76 428.76 152.76 428.76 152.76 
C 428.76 152.76 428.76 152.76 428.76 152.76 
L 448.614714 202.713451 
C 452.782914 201.05674 456.727416 198.884821 460.35616 196.248384 
C 463.984905 193.611947 467.26944 190.531663 470.133111 187.07942 
z
" style="fill:#a1c9f4;opacity:0.5;stroke:#ffffff;stroke-linejoin:miter;"/>
   </g>
   <g id="patch_40">
    <path clip-path="url(#pbde19140cc)" d="M 428.76 152.76 
C 428.76 152.76 428.76 152.76 428.76 152.76 
C 428.76 152.76 428.76 152.76 428.76 152.76 
L 428.751691 152.792543 
C 428.754406 152.793236 428.757197 152.793587 428.76 152.793587 
C 428.762803 152.793587 428.765594 152.793236 428.768309 152.792543 
z
" style="fill:#a1c9f4;opacity:0.5;stroke:#ffffff;stroke-linejoin:miter;"/>
   </g>
   <g id="patch_41">
    <path clip-path="url(#pbde19140cc)" d="M 428.76 152.76 
C 428.76 152.76 428.76 152.76 428.76 152.76 
C 428.76 152.76 428.76 152.76 428.76 152.76 
L 428.709391 152.801981 
C 428.712894 152.806204 428.716912 152.809972 428.72135 152.813197 
C 428.725789 152.816422 428.730614 152.819078 428.735713 152.821105 
z
" style="fill:#a1c9f4;opacity:0.5;stroke:#ffffff;stroke-linejoin:miter;"/>
   </g>
   <g id="patch_42">
    <path clip-path="url(#pbde19140cc)" d="M 428.76 152.76 
C 428.76 152.76 428.76 152.76 428.76 152.76 
C 428.76 152.76 428.76 152.76 428.76 152.76 
L 428.457496 152.779435 
C 428.459118 152.804677 428.463893 152.829616 428.471709 152.853671 
C 428.479525 152.877727 428.490321 152.90071 428.503846 152.922084 
z
" style="fill:#a1c9f4;opacity:0.5;stroke:#ffffff;stroke-linejoin:miter;"/>
   </g>
   <g id="patch_43">
    <path clip-path="url(#pbde19140cc)" d="M 428.76 152.76 
C 428.76 152.76 428.76 152.76 428.76 152.76 
C 428.76 152.76 428.76 152.76 428.76 152.76 
L 428.685227 152.712687 
C 428.681279 152.718926 428.678128 152.725635 428.675846 152.732657 
C 428.673565 152.739679 428.672171 152.746959 428.671698 152.754327 
z
" style="fill:#a1c9f4;opacity:0.5;stroke:#ffffff;stroke-linejoin:miter;"/>
   </g>
   <g id="patch_44">
    <path clip-path="url(#pbde19140cc)" d="M 428.76 152.76 
C 428.76 152.76 428.76 152.76 428.76 152.76 
C 428.76 152.76 428.76 152.76 428.76 152.76 
L 428.739207 152.707686 
C 428.734842 152.709421 428.730711 152.711696 428.726911 152.714457 
C 428.723111 152.717218 428.719671 152.720443 428.716672 152.724059 
z
" style="fill:#a1c9f4;opacity:0.5;stroke:#ffffff;stroke-linejoin:miter;"/>
   </g>
   <g id="patch_45">
    <path clip-path="url(#pbde19140cc)" d="M 428.76 152.76 
C 428.76 152.76 428.76 152.76 428.76 152.76 
C 428.76 152.76 428.76 152.76 428.76 152.76 
L 428.775859 152.697891 
C 428.770677 152.696568 428.765349 152.695898 428.76 152.695898 
C 428.754651 152.695898 428.749323 152.696568 428.744141 152.697891 
z
" style="fill:#ffb482;opacity:0.5;stroke:#ffffff;stroke-linejoin:miter;"/>
   </g>
   <g id="patch_46">
    <path clip-path="url(#pbde19140cc)" d="M 428.76 152.76 
C 428.76 152.76 428.76 152.76 428.76 152.76 
C 428.76 152.76 428.76 152.76 428.76 152.76 
L 428.776369 152.746422 
C 428.775236 152.745056 428.773936 152.743837 428.772501 152.742794 
C 428.771065 152.741751 428.769504 152.740892 428.767855 152.740236 
z
" style="fill:#ffb482;opacity:0.5;stroke:#ffffff;stroke-linejoin:miter;"/>
   </g>
   <g id="patch_47">
    <path clip-path="url(#pbde19140cc)" d="M 428.76 152.76 
C 428.76 152.76 428.76 152.76 428.76 152.76 
C 428.76 152.76 428.76 152.76 428.76 152.76 
L 428.825363 152.755801 
C 428.825013 152.750347 428.823981 152.744958 428.822292 152.73976 
C 428.820603 152.734562 428.818271 152.729596 428.815348 152.724978 
z
" style="fill:#ffb482;opacity:0.5;stroke:#ffffff;stroke-linejoin:miter;"/>
   </g>
   <g id="patch_48">
    <path clip-path="url(#pbde19140cc)" d="M 428.76 152.76 
C 428.76 152.76 428.76 152.76 428.76 152.76 
C 428.76 152.76 428.76 152.76 428.76 152.76 
L 428.950091 152.880282 
C 428.960128 152.86442 428.968139 152.847365 428.97394 152.829513 
C 428.97974 152.811662 428.983283 152.793154 428.984487 152.774423 
z
" style="fill:#ffb482;opacity:0.5;stroke:#ffffff;stroke-linejoin:miter;"/>
   </g>
   <g id="patch_49">
    <path clip-path="url(#pbde19140cc)" d="M 428.76 152.76 
C 428.76 152.76 428.76 152.76 428.76 152.76 
C 428.76 152.76 428.76 152.76 428.76 152.76 
L 428.810859 152.88796 
C 428.821537 152.883716 428.831641 152.878153 428.840936 152.871399 
C 428.850231 152.864646 428.858645 152.856755 428.865981 152.847912 
z
" style="fill:#ffb482;opacity:0.5;stroke:#ffffff;stroke-linejoin:miter;"/>
   </g>
   <g id="patch_50">
    <path clip-path="url(#pbde19140cc)" d="M 428.76 152.76 
C 428.76 152.76 428.76 152.76 428.76 152.76 
C 428.76 152.76 428.76 152.76 428.76 152.76 
L 420.476748 185.199843 
C 423.183583 185.891012 425.966316 186.240676 428.76 186.240676 
C 431.553684 186.240676 434.336417 185.891012 437.043252 185.199843 
z
" style="fill:#ffb482;opacity:0.5;stroke:#ffffff;stroke-linejoin:miter;"/>
   </g>
   <g id="patch_51">
    <path clip-path="url(#pbde19140cc)" d="M 428.76 152.76 
C 428.76 152.76 428.76 152.76 428.76 152.76 
C 428.76 152.76 428.76 152.76 428.76 152.76 
L 414.703982 164.419612 
C 415.676879 165.59247 416.792761 166.638959 418.025583 167.534657 
C 419.258406 168.430355 420.598503 169.168238 422.014599 169.731086 
z
" style="fill:#ffb482;opacity:0.5;stroke:#ffffff;stroke-linejoin:miter;"/>
   </g>
   <g id="patch_52">
    <path clip-path="url(#pbde19140cc)" d="M 428.76 152.76 
C 428.76 152.76 428.76 152.76 428.76 152.76 
C 428.76 152.76 428.76 152.76 428.76 152.76 
L 383.735769 155.652692 
C 383.97714 159.40959 384.687787 163.121549 385.851126 166.701938 
C 387.014465 170.282327 388.621374 173.703074 390.63435 176.884342 
z
" style="fill:#ffb482;opacity:0.5;stroke:#ffffff;stroke-linejoin:miter;"/>
   </g>
   <g id="patch_53">
    <path clip-path="url(#pbde19140cc)" d="M 428.76 152.76 
C 428.76 152.76 428.76 152.76 428.76 152.76 
C 428.76 152.76 428.76 152.76 428.76 152.76 
L 412.799001 142.660537 
C 411.956285 143.992349 411.283565 145.424418 410.796543 146.923319 
C 410.30952 148.42222 410.012013 149.976202 409.910965 151.548998 
z
" style="fill:#ffb482;opacity:0.5;stroke:#ffffff;stroke-linejoin:miter;"/>
   </g>
   <g id="patch_54">
    <path clip-path="url(#pbde19140cc)" d="M 428.76 152.76 
C 428.76 152.76 428.76 152.76 428.76 152.76 
C 428.76 152.76 428.76 152.76 428.76 152.76 
L 419.426211 129.276661 
C 417.466721 130.055488 415.612393 131.076517 413.906505 132.315917 
C 412.200616 133.555318 410.656541 135.003374 409.310317 136.626288 
z
" style="fill:#ffb482;opacity:0.5;stroke:#ffffff;stroke-linejoin:miter;"/>
   </g>
   <g id="patch_55">
    <path clip-path="url(#pbde19140cc)" d="M 428.76 152.76 
C 428.76 152.76 428.76 152.76 428.76 152.76 
C 428.76 152.76 428.76 152.76 428.76 152.76 
L 428.843403 152.433369 
C 428.816148 152.42641 428.788129 152.422889 428.76 152.422889 
C 428.731871 152.422889 428.703852 152.42641 428.676597 152.433369 
z
" style="fill:#8de5a1;opacity:0.5;stroke:#ffffff;stroke-linejoin:miter;"/>
   </g>
   <g id="patch_56">
    <path clip-path="url(#pbde19140cc)" d="M 428.76 152.76 
C 428.76 152.76 428.76 152.76 428.76 152.76 
C 428.76 152.76 428.76 152.76 428.76 152.76 
L 428.857429 152.679182 
C 428.850685 152.671052 428.84295 152.663799 428.834405 152.65759 
C 428.82586 152.651382 428.816571 152.646267 428.806755 152.642366 
z
" style="fill:#8de5a1;opacity:0.5;stroke:#ffffff;stroke-linejoin:miter;"/>
   </g>
   <g id="patch_57">
    <path clip-path="url(#pbde19140cc)" d="M 428.76 152.76 
C 428.76 152.76 428.76 152.76 428.76 152.76 
C 428.76 152.76 428.76 152.76 428.76 152.76 
L 429.064746 152.740421 
C 429.063113 152.714992 429.058303 152.689868 429.050429 152.665634 
C 429.042555 152.6414 429.031678 152.618247 429.018053 152.596714 
z
" style="fill:#8de5a1;opacity:0.5;stroke:#ffffff;stroke-linejoin:miter;"/>
   </g>
   <g id="patch_58">
    <path clip-path="url(#pbde19140cc)" d="M 428.76 152.76 
C 428.76 152.76 428.76 152.76 428.76 152.76 
C 428.76 152.76 428.76 152.76 428.76 152.76 
L 428.852075 152.818262 
C 428.856937 152.810579 428.860818 152.802317 428.863627 152.793671 
C 428.866437 152.785024 428.868153 152.776059 428.868736 152.766986 
z
" style="fill:#8de5a1;opacity:0.5;stroke:#ffffff;stroke-linejoin:miter;"/>
   </g>
   <g id="patch_59">
    <path clip-path="url(#pbde19140cc)" d="M 428.76 152.76 
C 428.76 152.76 428.76 152.76 428.76 152.76 
C 428.76 152.76 428.76 152.76 428.76 152.76 
L 428.844809 152.973374 
C 428.862613 152.966297 428.879462 152.95702 428.894962 152.945759 
C 428.910462 152.934497 428.924491 152.92134 428.936723 152.906594 
z
" style="fill:#8de5a1;opacity:0.5;stroke:#ffffff;stroke-linejoin:miter;"/>
   </g>
   <g id="patch_60">
    <path clip-path="url(#pbde19140cc)" d="M 428.76 152.76 
C 428.76 152.76 428.76 152.76 428.76 152.76 
C 428.76 152.76 428.76 152.76 428.76 152.76 
L 428.578048 153.47258 
C 428.637507 153.487762 428.698633 153.495443 428.76 153.495443 
C 428.821367 153.495443 428.882493 153.487762 428.941952 153.47258 
z
" style="fill:#8de5a1;opacity:0.5;stroke:#ffffff;stroke-linejoin:miter;"/>
   </g>
   <g id="patch_61">
    <path clip-path="url(#pbde19140cc)" d="M 428.76 152.76 
C 428.76 152.76 428.76 152.76 428.76 152.76 
C 428.76 152.76 428.76 152.76 428.76 152.76 
L 428.449032 153.017951 
C 428.470556 153.043899 428.495243 153.067051 428.522517 153.086867 
C 428.549792 153.106683 428.579439 153.123008 428.610768 153.13546 
z
" style="fill:#8de5a1;opacity:0.5;stroke:#ffffff;stroke-linejoin:miter;"/>
   </g>
   <g id="patch_62">
    <path clip-path="url(#pbde19140cc)" d="M 428.76 152.76 
C 428.76 152.76 428.76 152.76 428.76 152.76 
C 428.76 152.76 428.76 152.76 428.76 152.76 
L 427.771697 152.823496 
C 427.776996 152.905962 427.792595 152.987441 427.818131 153.066032 
C 427.843666 153.144623 427.878939 153.21971 427.923124 153.28954 
z
" style="fill:#8de5a1;opacity:0.5;stroke:#ffffff;stroke-linejoin:miter;"/>
   </g>
   <g id="patch_63">
    <path clip-path="url(#pbde19140cc)" d="M 428.76 152.76 
C 428.76 152.76 428.76 152.76 428.76 152.76 
C 428.76 152.76 428.76 152.76 428.76 152.76 
L 428.40693 152.536592 
C 428.388288 152.566053 428.373407 152.597731 428.362634 152.630888 
C 428.351861 152.664045 428.34528 152.69842 428.343044 152.733212 
z
" style="fill:#8de5a1;opacity:0.5;stroke:#ffffff;stroke-linejoin:miter;"/>
   </g>
   <g id="patch_64">
    <path clip-path="url(#pbde19140cc)" d="M 428.76 152.76 
C 428.76 152.76 428.76 152.76 428.76 152.76 
C 428.76 152.76 428.76 152.76 428.76 152.76 
L 428.554414 152.242756 
C 428.511254 152.259911 428.470411 152.2824 428.432837 152.309699 
C 428.395263 152.336998 428.361253 152.368893 428.331602 152.404639 
z
" style="fill:#8de5a1;opacity:0.5;stroke:#ffffff;stroke-linejoin:miter;"/>
   </g>
   <g id="patch_65">
    <path d="M 428.76 42.954545 
C 414.34048 42.954545 400.061171 45.794877 386.739272 51.312988 
C 373.417372 56.831099 361.311959 64.919678 351.115818 75.115818 
C 340.919678 85.311959 332.831099 97.417372 327.312988 110.739272 
C 321.794877 124.061171 318.954545 138.34048 318.954545 152.76 
C 318.954545 167.17952 321.794877 181.458829 327.312988 194.780728 
C 332.831099 208.102628 340.919678 220.208041 351.115818 230.404182 
C 361.311959 240.600322 373.417372 248.688901 386.739272 254.207012 
C 400.061171 259.725123 414.34048 262.565455 428.76 262.565455 
C 443.17952 262.565455 457.458829 259.725123 470.780728 254.207012 
C 484.102628 248.688901 496.208041 240.600322 506.404182 230.404182 
C 516.600322 220.208041 524.688901 208.102628 530.207012 194.780728 
C 535.725123 181.458829 538.565455 167.17952 538.565455 152.76 
C 538.565455 138.34048 535.725123 124.061171 530.207012 110.739272 
C 524.688901 97.417372 516.600322 85.311959 506.404182 75.115818 
C 496.208041 64.919678 484.102628 56.831099 470.780728 51.312988 
C 457.458829 45.794877 443.17952 42.954545 428.76 42.954545 
" style="fill:none;stroke:#262626;stroke-linecap:square;stroke-linejoin:miter;stroke-width:1.25;"/>
   </g>
   <g id="text_22">
    <!-- Value -->
    <g style="fill:#262626;" transform="translate(408.89 14.86142)scale(0.16 -0.16)">
     <defs>
      <path d="M 2444 0 
L 1825 0 
L 28 4403 
L 656 4403 
L 1875 1303 
L 2138 525 
L 2400 1303 
L 3613 4403 
L 4241 4403 
L 2444 0 
z
" id="LiberationSans-56" transform="scale(0.015625)"/>
      <path d="M 431 0 
L 431 4638 
L 994 4638 
L 994 0 
L 431 0 
z
" id="LiberationSans-6c" transform="scale(0.015625)"/>
      <path d="M 981 3381 
L 981 1238 
Q 981 903 1047 718 
Q 1113 534 1256 453 
Q 1400 372 1678 372 
Q 2084 372 2318 650 
Q 2553 928 2553 1422 
L 2553 3381 
L 3116 3381 
L 3116 722 
Q 3116 131 3134 0 
L 2603 0 
Q 2600 16 2597 84 
Q 2594 153 2589 242 
Q 2584 331 2578 578 
L 2569 578 
Q 2375 228 2120 82 
Q 1866 -63 1488 -63 
Q 931 -63 673 214 
Q 416 491 416 1128 
L 416 3381 
L 981 3381 
z
" id="LiberationSans-75" transform="scale(0.015625)"/>
      <path d="M 863 1572 
Q 863 991 1103 675 
Q 1344 359 1806 359 
Q 2172 359 2392 506 
Q 2613 653 2691 878 
L 3184 738 
Q 2881 -63 1806 -63 
Q 1056 -63 664 384 
Q 272 831 272 1713 
Q 272 2550 664 2997 
Q 1056 3444 1784 3444 
Q 3275 3444 3275 1647 
L 3275 1572 
L 863 1572 
z
M 2694 2003 
Q 2647 2538 2422 2783 
Q 2197 3028 1775 3028 
Q 1366 3028 1127 2754 
Q 888 2481 869 2003 
L 2694 2003 
z
" id="LiberationSans-65" transform="scale(0.015625)"/>
     </defs>
     <use xlink:href="#LiberationSans-56"/>
     <use x="59.324219" xlink:href="#LiberationSans-61"/>
     <use x="114.939453" xlink:href="#LiberationSans-6c"/>
     <use x="137.15625" xlink:href="#LiberationSans-75"/>
     <use x="192.771484" xlink:href="#LiberationSans-65"/>
    </g>
   </g>
  </g>
 </g>
 <defs>
  <clipPath id="p96eeaba0e2">
   <path d="M 257.045455 152.76 
C 257.045455 138.34048 254.205123 124.061171 248.687012 110.739272 
C 243.168901 97.417372 235.080322 85.311959 224.884182 75.115818 
C 214.688041 64.919678 202.582628 56.831099 189.260728 51.312988 
C 175.938829 45.794877 161.65952 42.954545 147.24 42.954545 
C 132.82048 42.954545 118.541171 45.794877 105.219272 51.312988 
C 91.897372 56.831099 79.791959 64.919678 69.595818 75.115818 
C 59.399678 85.311959 51.311099 97.417372 45.792988 110.739272 
C 40.274877 124.061171 37.434545 138.34048 37.434545 152.76 
C 37.434545 167.17952 40.274877 181.458829 45.792988 194.780728 
C 51.311099 208.102628 59.399678 220.208041 69.595818 230.404182 
C 79.791959 240.600322 91.897372 248.688901 105.219272 254.207012 
C 118.541171 259.725123 132.82048 262.565455 147.24 262.565455 
C 161.65952 262.565455 175.938829 259.725123 189.260728 254.207012 
C 202.582628 248.688901 214.688041 240.600322 224.884182 230.404182 
C 235.080322 220.208041 243.168901 208.102628 248.687012 194.780728 
C 254.205123 181.458829 257.045455 167.17952 257.045455 152.76 
M 147.24 152.76 
C 147.24 152.76 147.24 152.76 147.24 152.76 
C 147.24 152.76 147.24 152.76 147.24 152.76 
C 147.24 152.76 147.24 152.76 147.24 152.76 
C 147.24 152.76 147.24 152.76 147.24 152.76 
C 147.24 152.76 147.24 152.76 147.24 152.76 
C 147.24 152.76 147.24 152.76 147.24 152.76 
C 147.24 152.76 147.24 152.76 147.24 152.76 
C 147.24 152.76 147.24 152.76 147.24 152.76 
C 147.24 152.76 147.24 152.76 147.24 152.76 
C 147.24 152.76 147.24 152.76 147.24 152.76 
C 147.24 152.76 147.24 152.76 147.24 152.76 
C 147.24 152.76 147.24 152.76 147.24 152.76 
C 147.24 152.76 147.24 152.76 147.24 152.76 
C 147.24 152.76 147.24 152.76 147.24 152.76 
C 147.24 152.76 147.24 152.76 147.24 152.76 
C 147.24 152.76 147.24 152.76 147.24 152.76 
M 257.045455 152.76 
z
"/>
  </clipPath>
  <clipPath id="pbde19140cc">
   <path d="M 538.565455 152.76 
C 538.565455 138.34048 535.725123 124.061171 530.207012 110.739272 
C 524.688901 97.417372 516.600322 85.311959 506.404182 75.115818 
C 496.208041 64.919678 484.102628 56.831099 470.780728 51.312988 
C 457.458829 45.794877 443.17952 42.954545 428.76 42.954545 
C 414.34048 42.954545 400.061171 45.794877 386.739272 51.312988 
C 373.417372 56.831099 361.311959 64.919678 351.115818 75.115818 
C 340.919678 85.311959 332.831099 97.417372 327.312988 110.739272 
C 321.794877 124.061171 318.954545 138.34048 318.954545 152.76 
C 318.954545 167.17952 321.794877 181.458829 327.312988 194.780728 
C 332.831099 208.102628 340.919678 220.208041 351.115818 230.404182 
C 361.311959 240.600322 373.417372 248.688901 386.739272 254.207012 
C 400.061171 259.725123 414.34048 262.565455 428.76 262.565455 
C 443.17952 262.565455 457.458829 259.725123 470.780728 254.207012 
C 484.102628 248.688901 496.208041 240.600322 506.404182 230.404182 
C 516.600322 220.208041 524.688901 208.102628 530.207012 194.780728 
C 535.725123 181.458829 538.565455 167.17952 538.565455 152.76 
M 428.76 152.76 
C 428.76 152.76 428.76 152.76 428.76 152.76 
C 428.76 152.76 428.76 152.76 428.76 152.76 
C 428.76 152.76 428.76 152.76 428.76 152.76 
C 428.76 152.76 428.76 152.76 428.76 152.76 
C 428.76 152.76 428.76 152.76 428.76 152.76 
C 428.76 152.76 428.76 152.76 428.76 152.76 
C 428.76 152.76 428.76 152.76 428.76 152.76 
C 428.76 152.76 428.76 152.76 428.76 152.76 
C 428.76 152.76 428.76 152.76 428.76 152.76 
C 428.76 152.76 428.76 152.76 428.76 152.76 
C 428.76 152.76 428.76 152.76 428.76 152.76 
C 428.76 152.76 428.76 152.76 428.76 152.76 
C 428.76 152.76 428.76 152.76 428.76 152.76 
C 428.76 152.76 428.76 152.76 428.76 152.76 
C 428.76 152.76 428.76 152.76 428.76 152.76 
C 428.76 152.76 428.76 152.76 428.76 152.76 
M 538.565455 152.76 
z
"/>
  </clipPath>
 </defs>
</svg>
