<?xml version="1.0" encoding="utf-8" standalone="no"?>
<!DOCTYPE svg PUBLIC "-//W3C//DTD SVG 1.1//EN"
  "http://www.w3.org/Graphics/SVG/1.1/DTD/svg11.dtd">
<svg xmlns:xlink="http://www.w3.org/1999/xlink" width="432pt" height="288pt" viewBox="0 0 432 288" xmlns="http://www.w3.org/2000/svg" version="1.1">
 <metadata>
  <rdf:RDF xmlns:dc="http://purl.org/dc/elements/1.1/" xmlns:cc="http://creativecommons.org/ns#" xmlns:rdf="http://www.w3.org/1999/02/22-rdf-syntax-ns#">
   <cc:Work>
    <dc:type rdf:resource="http://purl.org/dc/dcmitype/StillImage"/>
    <dc:date>2024-02-06T03:58:15.360648</dc:date>
    <dc:format>image/svg+xml</dc:format>
    <dc:creator>
     <cc:Agent>
      <dc:title>Matplotlib v3.7.4, https://matplotlib.org/</dc:title>
     </cc:Agent>
    </dc:creator>
   </cc:Work>
  </rdf:RDF>
 </metadata>
 <defs>
  <style type="text/css">*{stroke-linejoin: round; stroke-linecap: butt}</style>
 </defs>
 <g id="figure_1">
  <g id="patch_1">
   <path d="M 0 288 
L 432 288 
L 432 0 
L 0 0 
L 0 288 
z
" style="fill: none"/>
  </g>
  <g id="axes_1">
   <g id="patch_2">
    <path d="M 44.84 238.84 
L 421.2 238.84 
L 421.2 15.48 
L 44.84 15.48 
L 44.84 238.84 
z
" style="fill: none"/>
   </g>
   <g id="patch_3">
    <path d="M 61.947273 238.84 
L 75.912393 238.84 
L 75.912393 202.354363 
L 61.947273 202.354363 
z
" clip-path="url(#p67acd1aa84)" style="fill: #c0d9ff"/>
   </g>
   <g id="patch_4">
    <path d="M 96.860074 238.84 
L 110.825195 238.84 
L 110.825195 174.096578 
L 96.860074 174.096578 
z
" clip-path="url(#p67acd1aa84)" style="fill: #c0d9ff"/>
   </g>
   <g id="patch_5">
    <path d="M 131.772876 238.84 
L 145.737996 238.84 
L 145.737996 165.101426 
L 131.772876 165.101426 
z
" clip-path="url(#p67acd1aa84)" style="fill: #c0d9ff"/>
   </g>
   <g id="patch_6">
    <path d="M 166.685677 238.84 
L 180.650798 238.84 
L 180.650798 182.65909 
L 166.685677 182.65909 
z
" clip-path="url(#p67acd1aa84)" style="fill: #c0d9ff"/>
   </g>
   <g id="patch_7">
    <path d="M 201.598479 238.84 
L 215.563599 238.84 
L 215.563599 183.277181 
L 201.598479 183.277181 
z
" clip-path="url(#p67acd1aa84)" style="fill: #c0d9ff"/>
   </g>
   <g id="patch_8">
    <path d="M 236.51128 238.84 
L 250.476401 238.84 
L 250.476401 182.953721 
L 236.51128 182.953721 
z
" clip-path="url(#p67acd1aa84)" style="fill: #c0d9ff"/>
   </g>
   <g id="patch_9">
    <path d="M 271.424082 238.84 
L 285.389202 238.84 
L 285.389202 182.350946 
L 271.424082 182.350946 
z
" clip-path="url(#p67acd1aa84)" style="fill: #c0d9ff"/>
   </g>
   <g id="patch_10">
    <path d="M 306.336883 238.84 
L 320.302004 238.84 
L 320.302004 181.291452 
L 306.336883 181.291452 
z
" clip-path="url(#p67acd1aa84)" style="fill: #c0d9ff"/>
   </g>
   <g id="patch_11">
    <path d="M 341.249685 238.84 
L 355.214805 238.84 
L 355.214805 166.9889 
L 341.249685 166.9889 
z
" clip-path="url(#p67acd1aa84)" style="fill: #c0d9ff"/>
   </g>
   <g id="patch_12">
    <path d="M 376.162486 238.84 
L 390.127607 238.84 
L 390.127607 160.909236 
L 376.162486 160.909236 
z
" clip-path="url(#p67acd1aa84)" style="fill: #c0d9ff"/>
   </g>
   <g id="patch_13">
    <path d="M 75.912393 238.84 
L 89.877514 238.84 
L 89.877514 207.357848 
L 75.912393 207.357848 
z
" clip-path="url(#p67acd1aa84)" style="fill: #ffbfc4"/>
   </g>
   <g id="patch_14">
    <path d="M 110.825195 238.84 
L 124.790315 238.84 
L 124.790315 180.977426 
L 110.825195 180.977426 
z
" clip-path="url(#p67acd1aa84)" style="fill: #ffbfc4"/>
   </g>
   <g id="patch_15">
    <path d="M 145.737996 238.84 
L 159.703117 238.84 
L 159.703117 166.974665 
L 145.737996 166.974665 
z
" clip-path="url(#p67acd1aa84)" style="fill: #ffbfc4"/>
   </g>
   <g id="patch_16">
    <path d="M 180.650798 238.84 
L 194.615918 238.84 
L 194.615918 184.489035 
L 180.650798 184.489035 
z
" clip-path="url(#p67acd1aa84)" style="fill: #ffbfc4"/>
   </g>
   <g id="patch_17">
    <path d="M 215.563599 238.84 
L 229.52872 238.84 
L 229.52872 185.501166 
L 215.563599 185.501166 
z
" clip-path="url(#p67acd1aa84)" style="fill: #ffbfc4"/>
   </g>
   <g id="patch_18">
    <path d="M 250.476401 238.84 
L 264.441521 238.84 
L 264.441521 189.799387 
L 250.476401 189.799387 
z
" clip-path="url(#p67acd1aa84)" style="fill: #ffbfc4"/>
   </g>
   <g id="patch_19">
    <path d="M 285.389202 238.84 
L 299.354323 238.84 
L 299.354323 190.946428 
L 285.389202 190.946428 
z
" clip-path="url(#p67acd1aa84)" style="fill: #ffbfc4"/>
   </g>
   <g id="patch_20">
    <path d="M 320.302004 238.84 
L 334.267124 238.84 
L 334.267124 184.94375 
L 320.302004 184.94375 
z
" clip-path="url(#p67acd1aa84)" style="fill: #ffbfc4"/>
   </g>
   <g id="patch_21">
    <path d="M 355.214805 238.84 
L 369.179926 238.84 
L 369.179926 174.992786 
L 355.214805 174.992786 
z
" clip-path="url(#p67acd1aa84)" style="fill: #ffbfc4"/>
   </g>
   <g id="patch_22">
    <path d="M 390.127607 238.84 
L 404.092727 238.84 
L 404.092727 163.512799 
L 390.127607 163.512799 
z
" clip-path="url(#p67acd1aa84)" style="fill: #ffbfc4"/>
   </g>
   <g id="matplotlib.axis_1">
    <g id="xtick_1">
     <g id="line2d_1">
      <defs>
       <path id="m5d24a8ada7" d="M 0 0 
L 0 3.5 
" style="stroke: #000000; stroke-width: 1.5"/>
      </defs>
      <g>
       <use xlink:href="#m5d24a8ada7" x="75.912393" y="238.84" style="stroke: #000000; stroke-width: 1.5"/>
      </g>
     </g>
     <g id="text_1">
      <!-- 1 -->
      <g transform="translate(72.019737 255.985625) scale(0.14 -0.14)">
       <defs>
        <path id="LiberationSans-31" d="M 488 0 
L 488 478 
L 1609 478 
L 1609 3866 
L 616 3156 
L 616 3688 
L 1656 4403 
L 2175 4403 
L 2175 478 
L 3247 478 
L 3247 0 
L 488 0 
z
" transform="scale(0.015625)"/>
       </defs>
       <use xlink:href="#LiberationSans-31"/>
      </g>
     </g>
    </g>
    <g id="xtick_2">
     <g id="line2d_2">
      <g>
       <use xlink:href="#m5d24a8ada7" x="110.825195" y="238.84" style="stroke: #000000; stroke-width: 1.5"/>
      </g>
     </g>
     <g id="text_2">
      <!-- 2 -->
      <g transform="translate(106.932539 255.985625) scale(0.14 -0.14)">
       <defs>
        <path id="LiberationSans-32" d="M 322 0 
L 322 397 
Q 481 763 711 1042 
Q 941 1322 1194 1548 
Q 1447 1775 1695 1969 
Q 1944 2163 2144 2356 
Q 2344 2550 2467 2762 
Q 2591 2975 2591 3244 
Q 2591 3606 2378 3806 
Q 2166 4006 1788 4006 
Q 1428 4006 1195 3811 
Q 963 3616 922 3263 
L 347 3316 
Q 409 3844 795 4156 
Q 1181 4469 1788 4469 
Q 2453 4469 2811 4155 
Q 3169 3841 3169 3263 
Q 3169 3006 3051 2753 
Q 2934 2500 2703 2247 
Q 2472 1994 1819 1463 
Q 1459 1169 1246 933 
Q 1034 697 941 478 
L 3238 478 
L 3238 0 
L 322 0 
z
" transform="scale(0.015625)"/>
       </defs>
       <use xlink:href="#LiberationSans-32"/>
      </g>
     </g>
    </g>
    <g id="xtick_3">
     <g id="line2d_3">
      <g>
       <use xlink:href="#m5d24a8ada7" x="145.737996" y="238.84" style="stroke: #000000; stroke-width: 1.5"/>
      </g>
     </g>
     <g id="text_3">
      <!-- 3 -->
      <g transform="translate(141.84534 255.985625) scale(0.14 -0.14)">
       <defs>
        <path id="LiberationSans-33" d="M 3278 1216 
Q 3278 606 2890 271 
Q 2503 -63 1784 -63 
Q 1116 -63 717 239 
Q 319 541 244 1131 
L 825 1184 
Q 938 403 1784 403 
Q 2209 403 2451 612 
Q 2694 822 2694 1234 
Q 2694 1594 2417 1795 
Q 2141 1997 1619 1997 
L 1300 1997 
L 1300 2484 
L 1606 2484 
Q 2069 2484 2323 2686 
Q 2578 2888 2578 3244 
Q 2578 3597 2370 3801 
Q 2163 4006 1753 4006 
Q 1381 4006 1151 3815 
Q 922 3625 884 3278 
L 319 3322 
Q 381 3863 767 4166 
Q 1153 4469 1759 4469 
Q 2422 4469 2789 4161 
Q 3156 3853 3156 3303 
Q 3156 2881 2920 2617 
Q 2684 2353 2234 2259 
L 2234 2247 
Q 2728 2194 3003 1916 
Q 3278 1638 3278 1216 
z
" transform="scale(0.015625)"/>
       </defs>
       <use xlink:href="#LiberationSans-33"/>
      </g>
     </g>
    </g>
    <g id="xtick_4">
     <g id="line2d_4">
      <g>
       <use xlink:href="#m5d24a8ada7" x="180.650798" y="238.84" style="stroke: #000000; stroke-width: 1.5"/>
      </g>
     </g>
     <g id="text_4">
      <!-- 4 -->
      <g transform="translate(176.758142 255.985625) scale(0.14 -0.14)">
       <defs>
        <path id="LiberationSans-34" d="M 2753 997 
L 2753 0 
L 2222 0 
L 2222 997 
L 147 997 
L 147 1434 
L 2163 4403 
L 2753 4403 
L 2753 1441 
L 3372 1441 
L 3372 997 
L 2753 997 
z
M 2222 3769 
Q 2216 3750 2134 3603 
Q 2053 3456 2013 3397 
L 884 1734 
L 716 1503 
L 666 1441 
L 2222 1441 
L 2222 3769 
z
" transform="scale(0.015625)"/>
       </defs>
       <use xlink:href="#LiberationSans-34"/>
      </g>
     </g>
    </g>
    <g id="xtick_5">
     <g id="line2d_5">
      <g>
       <use xlink:href="#m5d24a8ada7" x="215.563599" y="238.84" style="stroke: #000000; stroke-width: 1.5"/>
      </g>
     </g>
     <g id="text_5">
      <!-- 5 -->
      <g transform="translate(211.670943 255.985625) scale(0.14 -0.14)">
       <defs>
        <path id="LiberationSans-35" d="M 3291 1434 
Q 3291 738 2877 337 
Q 2463 -63 1728 -63 
Q 1113 -63 734 206 
Q 356 475 256 984 
L 825 1050 
Q 1003 397 1741 397 
Q 2194 397 2450 670 
Q 2706 944 2706 1422 
Q 2706 1838 2448 2094 
Q 2191 2350 1753 2350 
Q 1525 2350 1328 2278 
Q 1131 2206 934 2034 
L 384 2034 
L 531 4403 
L 3034 4403 
L 3034 3925 
L 1044 3925 
L 959 2528 
Q 1325 2809 1869 2809 
Q 2519 2809 2905 2428 
Q 3291 2047 3291 1434 
z
" transform="scale(0.015625)"/>
       </defs>
       <use xlink:href="#LiberationSans-35"/>
      </g>
     </g>
    </g>
    <g id="xtick_6">
     <g id="line2d_6">
      <g>
       <use xlink:href="#m5d24a8ada7" x="250.476401" y="238.84" style="stroke: #000000; stroke-width: 1.5"/>
      </g>
     </g>
     <g id="text_6">
      <!-- 6 -->
      <g transform="translate(246.583744 255.985625) scale(0.14 -0.14)">
       <defs>
        <path id="LiberationSans-36" d="M 3278 1441 
Q 3278 744 2900 340 
Q 2522 -63 1856 -63 
Q 1113 -63 719 490 
Q 325 1044 325 2100 
Q 325 3244 734 3856 
Q 1144 4469 1900 4469 
Q 2897 4469 3156 3572 
L 2619 3475 
Q 2453 4013 1894 4013 
Q 1413 4013 1148 3564 
Q 884 3116 884 2266 
Q 1038 2550 1316 2698 
Q 1594 2847 1953 2847 
Q 2563 2847 2920 2465 
Q 3278 2084 3278 1441 
z
M 2706 1416 
Q 2706 1894 2472 2153 
Q 2238 2413 1819 2413 
Q 1425 2413 1183 2183 
Q 941 1953 941 1550 
Q 941 1041 1192 716 
Q 1444 391 1838 391 
Q 2244 391 2475 664 
Q 2706 938 2706 1416 
z
" transform="scale(0.015625)"/>
       </defs>
       <use xlink:href="#LiberationSans-36"/>
      </g>
     </g>
    </g>
    <g id="xtick_7">
     <g id="line2d_7">
      <g>
       <use xlink:href="#m5d24a8ada7" x="285.389202" y="238.84" style="stroke: #000000; stroke-width: 1.5"/>
      </g>
     </g>
     <g id="text_7">
      <!-- 7 -->
      <g transform="translate(281.496546 255.985625) scale(0.14 -0.14)">
       <defs>
        <path id="LiberationSans-37" d="M 3238 3947 
Q 2563 2916 2284 2331 
Q 2006 1747 1867 1178 
Q 1728 609 1728 0 
L 1141 0 
Q 1141 844 1498 1776 
Q 1856 2709 2694 3925 
L 328 3925 
L 328 4403 
L 3238 4403 
L 3238 3947 
z
" transform="scale(0.015625)"/>
       </defs>
       <use xlink:href="#LiberationSans-37"/>
      </g>
     </g>
    </g>
    <g id="xtick_8">
     <g id="line2d_8">
      <g>
       <use xlink:href="#m5d24a8ada7" x="320.302004" y="238.84" style="stroke: #000000; stroke-width: 1.5"/>
      </g>
     </g>
     <g id="text_8">
      <!-- 8 -->
      <g transform="translate(316.409347 255.985625) scale(0.14 -0.14)">
       <defs>
        <path id="LiberationSans-38" d="M 3281 1228 
Q 3281 619 2893 278 
Q 2506 -63 1781 -63 
Q 1075 -63 676 271 
Q 278 606 278 1222 
Q 278 1653 525 1947 
Q 772 2241 1156 2303 
L 1156 2316 
Q 797 2400 589 2681 
Q 381 2963 381 3341 
Q 381 3844 757 4156 
Q 1134 4469 1769 4469 
Q 2419 4469 2795 4162 
Q 3172 3856 3172 3334 
Q 3172 2956 2962 2675 
Q 2753 2394 2391 2322 
L 2391 2309 
Q 2813 2241 3047 1952 
Q 3281 1663 3281 1228 
z
M 2588 3303 
Q 2588 4050 1769 4050 
Q 1372 4050 1164 3862 
Q 956 3675 956 3303 
Q 956 2925 1170 2726 
Q 1384 2528 1775 2528 
Q 2172 2528 2380 2711 
Q 2588 2894 2588 3303 
z
M 2697 1281 
Q 2697 1691 2453 1898 
Q 2209 2106 1769 2106 
Q 1341 2106 1100 1882 
Q 859 1659 859 1269 
Q 859 359 1788 359 
Q 2247 359 2472 579 
Q 2697 800 2697 1281 
z
" transform="scale(0.015625)"/>
       </defs>
       <use xlink:href="#LiberationSans-38"/>
      </g>
     </g>
    </g>
    <g id="xtick_9">
     <g id="line2d_9">
      <g>
       <use xlink:href="#m5d24a8ada7" x="355.214805" y="238.84" style="stroke: #000000; stroke-width: 1.5"/>
      </g>
     </g>
     <g id="text_9">
      <!-- 9 -->
      <g transform="translate(351.322149 255.985625) scale(0.14 -0.14)">
       <defs>
        <path id="LiberationSans-39" d="M 3256 2291 
Q 3256 1156 2842 546 
Q 2428 -63 1663 -63 
Q 1147 -63 836 154 
Q 525 372 391 856 
L 928 941 
Q 1097 391 1672 391 
Q 2156 391 2422 841 
Q 2688 1291 2700 2125 
Q 2575 1844 2272 1673 
Q 1969 1503 1606 1503 
Q 1013 1503 656 1909 
Q 300 2316 300 2988 
Q 300 3678 687 4073 
Q 1075 4469 1766 4469 
Q 2500 4469 2878 3925 
Q 3256 3381 3256 2291 
z
M 2644 2834 
Q 2644 3366 2400 3689 
Q 2156 4013 1747 4013 
Q 1341 4013 1106 3736 
Q 872 3459 872 2988 
Q 872 2506 1106 2226 
Q 1341 1947 1741 1947 
Q 1984 1947 2193 2058 
Q 2403 2169 2523 2372 
Q 2644 2575 2644 2834 
z
" transform="scale(0.015625)"/>
       </defs>
       <use xlink:href="#LiberationSans-39"/>
      </g>
     </g>
    </g>
    <g id="xtick_10">
     <g id="line2d_10">
      <g>
       <use xlink:href="#m5d24a8ada7" x="390.127607" y="238.84" style="stroke: #000000; stroke-width: 1.5"/>
      </g>
     </g>
     <g id="text_10">
      <!-- 10 -->
      <g transform="translate(382.342294 255.985625) scale(0.14 -0.14)">
       <defs>
        <path id="LiberationSans-30" d="M 3309 2203 
Q 3309 1100 2920 518 
Q 2531 -63 1772 -63 
Q 1013 -63 631 515 
Q 250 1094 250 2203 
Q 250 3338 620 3903 
Q 991 4469 1791 4469 
Q 2569 4469 2939 3897 
Q 3309 3325 3309 2203 
z
M 2738 2203 
Q 2738 3156 2517 3584 
Q 2297 4013 1791 4013 
Q 1272 4013 1045 3591 
Q 819 3169 819 2203 
Q 819 1266 1048 831 
Q 1278 397 1778 397 
Q 2275 397 2506 840 
Q 2738 1284 2738 2203 
z
" transform="scale(0.015625)"/>
       </defs>
       <use xlink:href="#LiberationSans-31"/>
       <use xlink:href="#LiberationSans-30" x="55.615234"/>
      </g>
     </g>
    </g>
    <g id="text_11">
     <!-- Layer -->
     <g transform="translate(213.01 274.485625) scale(0.16 -0.16)">
      <defs>
       <path id="LiberationSans-4c" d="M 525 0 
L 525 4403 
L 1122 4403 
L 1122 488 
L 3347 488 
L 3347 0 
L 525 0 
z
" transform="scale(0.015625)"/>
       <path id="LiberationSans-61" d="M 1294 -63 
Q 784 -63 528 206 
Q 272 475 272 944 
Q 272 1469 617 1750 
Q 963 2031 1731 2050 
L 2491 2063 
L 2491 2247 
Q 2491 2659 2316 2837 
Q 2141 3016 1766 3016 
Q 1388 3016 1216 2887 
Q 1044 2759 1009 2478 
L 422 2531 
Q 566 3444 1778 3444 
Q 2416 3444 2737 3151 
Q 3059 2859 3059 2306 
L 3059 850 
Q 3059 600 3125 473 
Q 3191 347 3375 347 
Q 3456 347 3559 369 
L 3559 19 
Q 3347 -31 3125 -31 
Q 2813 -31 2670 133 
Q 2528 297 2509 647 
L 2491 647 
Q 2275 259 1989 98 
Q 1703 -63 1294 -63 
z
M 1422 359 
Q 1731 359 1972 500 
Q 2213 641 2352 886 
Q 2491 1131 2491 1391 
L 2491 1669 
L 1875 1656 
Q 1478 1650 1273 1575 
Q 1069 1500 959 1344 
Q 850 1188 850 934 
Q 850 659 998 509 
Q 1147 359 1422 359 
z
" transform="scale(0.015625)"/>
       <path id="LiberationSans-79" d="M 597 -1328 
Q 366 -1328 209 -1294 
L 209 -872 
Q 328 -891 472 -891 
Q 997 -891 1303 -119 
L 1356 16 
L 16 3381 
L 616 3381 
L 1328 1513 
Q 1344 1469 1366 1408 
Q 1388 1347 1506 1000 
Q 1625 653 1634 613 
L 1853 1228 
L 2594 3381 
L 3188 3381 
L 1888 0 
Q 1678 -541 1497 -805 
Q 1316 -1069 1095 -1198 
Q 875 -1328 597 -1328 
z
" transform="scale(0.015625)"/>
       <path id="LiberationSans-65" d="M 863 1572 
Q 863 991 1103 675 
Q 1344 359 1806 359 
Q 2172 359 2392 506 
Q 2613 653 2691 878 
L 3184 738 
Q 2881 -63 1806 -63 
Q 1056 -63 664 384 
Q 272 831 272 1713 
Q 272 2550 664 2997 
Q 1056 3444 1784 3444 
Q 3275 3444 3275 1647 
L 3275 1572 
L 863 1572 
z
M 2694 2003 
Q 2647 2538 2422 2783 
Q 2197 3028 1775 3028 
Q 1366 3028 1127 2754 
Q 888 2481 869 2003 
L 2694 2003 
z
" transform="scale(0.015625)"/>
       <path id="LiberationSans-72" d="M 444 0 
L 444 2594 
Q 444 2950 425 3381 
L 956 3381 
Q 981 2806 981 2691 
L 994 2691 
Q 1128 3125 1303 3284 
Q 1478 3444 1797 3444 
Q 1909 3444 2025 3413 
L 2025 2897 
Q 1913 2928 1725 2928 
Q 1375 2928 1190 2626 
Q 1006 2325 1006 1763 
L 1006 0 
L 444 0 
z
" transform="scale(0.015625)"/>
      </defs>
      <use xlink:href="#LiberationSans-4c"/>
      <use xlink:href="#LiberationSans-61" x="55.615234"/>
      <use xlink:href="#LiberationSans-79" x="111.230469"/>
      <use xlink:href="#LiberationSans-65" x="161.230469"/>
      <use xlink:href="#LiberationSans-72" x="216.845703"/>
     </g>
    </g>
   </g>
   <g id="matplotlib.axis_2">
    <g id="ytick_1">
     <g id="line2d_11">
      <defs>
       <path id="maa2a1953f9" d="M 0 0 
L -3.5 0 
" style="stroke: #000000; stroke-width: 1.5"/>
      </defs>
      <g>
       <use xlink:href="#maa2a1953f9" x="44.84" y="238.84" style="stroke: #000000; stroke-width: 1.5"/>
      </g>
     </g>
     <g id="text_12">
      <!-- 0 -->
      <g transform="translate(30.054688 243.912812) scale(0.14 -0.14)">
       <use xlink:href="#LiberationSans-30"/>
      </g>
     </g>
    </g>
    <g id="ytick_2">
     <g id="line2d_12">
      <g>
       <use xlink:href="#maa2a1953f9" x="44.84" y="201.613333" style="stroke: #000000; stroke-width: 1.5"/>
      </g>
     </g>
     <g id="text_13">
      <!-- 1 -->
      <g transform="translate(30.054688 206.686146) scale(0.14 -0.14)">
       <use xlink:href="#LiberationSans-31"/>
      </g>
     </g>
    </g>
    <g id="ytick_3">
     <g id="line2d_13">
      <g>
       <use xlink:href="#maa2a1953f9" x="44.84" y="164.386667" style="stroke: #000000; stroke-width: 1.5"/>
      </g>
     </g>
     <g id="text_14">
      <!-- 2 -->
      <g transform="translate(30.054688 169.459479) scale(0.14 -0.14)">
       <use xlink:href="#LiberationSans-32"/>
      </g>
     </g>
    </g>
    <g id="ytick_4">
     <g id="line2d_14">
      <g>
       <use xlink:href="#maa2a1953f9" x="44.84" y="127.16" style="stroke: #000000; stroke-width: 1.5"/>
      </g>
     </g>
     <g id="text_15">
      <!-- 3 -->
      <g transform="translate(30.054688 132.232813) scale(0.14 -0.14)">
       <use xlink:href="#LiberationSans-33"/>
      </g>
     </g>
    </g>
    <g id="ytick_5">
     <g id="line2d_15">
      <g>
       <use xlink:href="#maa2a1953f9" x="44.84" y="89.933333" style="stroke: #000000; stroke-width: 1.5"/>
      </g>
     </g>
     <g id="text_16">
      <!-- 4 -->
      <g transform="translate(30.054688 95.006146) scale(0.14 -0.14)">
       <use xlink:href="#LiberationSans-34"/>
      </g>
     </g>
    </g>
    <g id="ytick_6">
     <g id="line2d_16">
      <g>
       <use xlink:href="#maa2a1953f9" x="44.84" y="52.706667" style="stroke: #000000; stroke-width: 1.5"/>
      </g>
     </g>
     <g id="text_17">
      <!-- 5 -->
      <g transform="translate(30.054688 57.779479) scale(0.14 -0.14)">
       <use xlink:href="#LiberationSans-35"/>
      </g>
     </g>
    </g>
    <g id="ytick_7">
     <g id="line2d_17">
      <g>
       <use xlink:href="#maa2a1953f9" x="44.84" y="15.48" style="stroke: #000000; stroke-width: 1.5"/>
      </g>
     </g>
     <g id="text_18">
      <!-- 6 -->
      <g transform="translate(30.054688 20.552813) scale(0.14 -0.14)">
       <use xlink:href="#LiberationSans-36"/>
      </g>
     </g>
    </g>
    <g id="text_19">
     <!-- Bias Magnitude -->
     <g transform="translate(22.734688 182.30125) rotate(-90) scale(0.16 -0.16)">
      <defs>
       <path id="LiberationSans-42" d="M 3931 1241 
Q 3931 653 3503 326 
Q 3075 0 2313 0 
L 525 0 
L 525 4403 
L 2125 4403 
Q 3675 4403 3675 3334 
Q 3675 2944 3456 2678 
Q 3238 2413 2838 2322 
Q 3363 2259 3647 1970 
Q 3931 1681 3931 1241 
z
M 3075 3263 
Q 3075 3619 2831 3772 
Q 2588 3925 2125 3925 
L 1122 3925 
L 1122 2531 
L 2125 2531 
Q 2603 2531 2839 2711 
Q 3075 2891 3075 3263 
z
M 3328 1288 
Q 3328 2066 2234 2066 
L 1122 2066 
L 1122 478 
L 2281 478 
Q 2828 478 3078 681 
Q 3328 884 3328 1288 
z
" transform="scale(0.015625)"/>
       <path id="LiberationSans-69" d="M 428 4100 
L 428 4638 
L 991 4638 
L 991 4100 
L 428 4100 
z
M 428 0 
L 428 3381 
L 991 3381 
L 991 0 
L 428 0 
z
" transform="scale(0.015625)"/>
       <path id="LiberationSans-73" d="M 2969 934 
Q 2969 456 2608 196 
Q 2247 -63 1597 -63 
Q 966 -63 623 145 
Q 281 353 178 794 
L 675 891 
Q 747 619 972 492 
Q 1197 366 1597 366 
Q 2025 366 2223 497 
Q 2422 628 2422 891 
Q 2422 1091 2284 1216 
Q 2147 1341 1841 1422 
L 1438 1528 
Q 953 1653 748 1773 
Q 544 1894 428 2066 
Q 313 2238 313 2488 
Q 313 2950 642 3192 
Q 972 3434 1603 3434 
Q 2163 3434 2492 3237 
Q 2822 3041 2909 2606 
L 2403 2544 
Q 2356 2769 2151 2889 
Q 1947 3009 1603 3009 
Q 1222 3009 1040 2893 
Q 859 2778 859 2544 
Q 859 2400 934 2306 
Q 1009 2213 1156 2147 
Q 1303 2081 1775 1966 
Q 2222 1853 2419 1758 
Q 2616 1663 2730 1547 
Q 2844 1431 2906 1279 
Q 2969 1128 2969 934 
z
" transform="scale(0.015625)"/>
       <path id="LiberationSans-20" transform="scale(0.015625)"/>
       <path id="LiberationSans-4d" d="M 4269 0 
L 4269 2938 
Q 4269 3425 4297 3875 
Q 4144 3316 4022 3000 
L 2884 0 
L 2466 0 
L 1313 3000 
L 1138 3531 
L 1034 3875 
L 1044 3528 
L 1056 2938 
L 1056 0 
L 525 0 
L 525 4403 
L 1309 4403 
L 2481 1350 
Q 2544 1166 2601 955 
Q 2659 744 2678 650 
Q 2703 775 2783 1029 
Q 2863 1284 2891 1350 
L 4041 4403 
L 4806 4403 
L 4806 0 
L 4269 0 
z
" transform="scale(0.015625)"/>
       <path id="LiberationSans-67" d="M 1713 -1328 
Q 1159 -1328 831 -1111 
Q 503 -894 409 -494 
L 975 -413 
Q 1031 -647 1223 -773 
Q 1416 -900 1728 -900 
Q 2569 -900 2569 84 
L 2569 628 
L 2563 628 
Q 2403 303 2125 139 
Q 1847 -25 1475 -25 
Q 853 -25 561 387 
Q 269 800 269 1684 
Q 269 2581 583 3007 
Q 897 3434 1538 3434 
Q 1897 3434 2161 3270 
Q 2425 3106 2569 2803 
L 2575 2803 
Q 2575 2897 2587 3128 
Q 2600 3359 2613 3381 
L 3147 3381 
Q 3128 3213 3128 2681 
L 3128 97 
Q 3128 -1328 1713 -1328 
z
M 2569 1691 
Q 2569 2103 2456 2401 
Q 2344 2700 2139 2858 
Q 1934 3016 1675 3016 
Q 1244 3016 1047 2703 
Q 850 2391 850 1691 
Q 850 997 1034 694 
Q 1219 391 1666 391 
Q 1931 391 2137 547 
Q 2344 703 2456 995 
Q 2569 1288 2569 1691 
z
" transform="scale(0.015625)"/>
       <path id="LiberationSans-6e" d="M 2578 0 
L 2578 2144 
Q 2578 2478 2512 2662 
Q 2447 2847 2303 2928 
Q 2159 3009 1881 3009 
Q 1475 3009 1240 2731 
Q 1006 2453 1006 1959 
L 1006 0 
L 444 0 
L 444 2659 
Q 444 3250 425 3381 
L 956 3381 
Q 959 3366 962 3297 
Q 966 3228 970 3139 
Q 975 3050 981 2803 
L 991 2803 
Q 1184 3153 1439 3298 
Q 1694 3444 2072 3444 
Q 2628 3444 2886 3167 
Q 3144 2891 3144 2253 
L 3144 0 
L 2578 0 
z
" transform="scale(0.015625)"/>
       <path id="LiberationSans-74" d="M 1731 25 
Q 1453 -50 1163 -50 
Q 488 -50 488 716 
L 488 2972 
L 97 2972 
L 97 3381 
L 509 3381 
L 675 4138 
L 1050 4138 
L 1050 3381 
L 1675 3381 
L 1675 2972 
L 1050 2972 
L 1050 838 
Q 1050 594 1129 495 
Q 1209 397 1406 397 
Q 1519 397 1731 441 
L 1731 25 
z
" transform="scale(0.015625)"/>
       <path id="LiberationSans-75" d="M 981 3381 
L 981 1238 
Q 981 903 1047 718 
Q 1113 534 1256 453 
Q 1400 372 1678 372 
Q 2084 372 2318 650 
Q 2553 928 2553 1422 
L 2553 3381 
L 3116 3381 
L 3116 722 
Q 3116 131 3134 0 
L 2603 0 
Q 2600 16 2597 84 
Q 2594 153 2589 242 
Q 2584 331 2578 578 
L 2569 578 
Q 2375 228 2120 82 
Q 1866 -63 1488 -63 
Q 931 -63 673 214 
Q 416 491 416 1128 
L 416 3381 
L 981 3381 
z
" transform="scale(0.015625)"/>
       <path id="LiberationSans-64" d="M 2566 544 
Q 2409 219 2151 78 
Q 1894 -63 1513 -63 
Q 872 -63 570 368 
Q 269 800 269 1675 
Q 269 3444 1513 3444 
Q 1897 3444 2153 3303 
Q 2409 3163 2566 2856 
L 2572 2856 
L 2566 3234 
L 2566 4638 
L 3128 4638 
L 3128 697 
Q 3128 169 3147 0 
L 2609 0 
Q 2600 50 2589 231 
Q 2578 413 2578 544 
L 2566 544 
z
M 859 1694 
Q 859 984 1046 678 
Q 1234 372 1656 372 
Q 2134 372 2350 703 
Q 2566 1034 2566 1731 
Q 2566 2403 2350 2715 
Q 2134 3028 1663 3028 
Q 1238 3028 1048 2714 
Q 859 2400 859 1694 
z
" transform="scale(0.015625)"/>
      </defs>
      <use xlink:href="#LiberationSans-42"/>
      <use xlink:href="#LiberationSans-69" x="66.699219"/>
      <use xlink:href="#LiberationSans-61" x="88.916016"/>
      <use xlink:href="#LiberationSans-73" x="144.53125"/>
      <use xlink:href="#LiberationSans-20" x="194.53125"/>
      <use xlink:href="#LiberationSans-4d" x="222.314453"/>
      <use xlink:href="#LiberationSans-61" x="305.615234"/>
      <use xlink:href="#LiberationSans-67" x="361.230469"/>
      <use xlink:href="#LiberationSans-6e" x="416.845703"/>
      <use xlink:href="#LiberationSans-69" x="472.460938"/>
      <use xlink:href="#LiberationSans-74" x="494.677734"/>
      <use xlink:href="#LiberationSans-75" x="522.460938"/>
      <use xlink:href="#LiberationSans-64" x="578.076172"/>
      <use xlink:href="#LiberationSans-65" x="633.691406"/>
     </g>
    </g>
   </g>
   <g id="LineCollection_1">
    <path d="M 68.929833 205.416992 
L 68.929833 199.291734 
" clip-path="url(#p67acd1aa84)" style="fill: none; stroke: #000000; stroke-width: 1.5"/>
    <path d="M 103.842635 178.659184 
L 103.842635 169.533972 
" clip-path="url(#p67acd1aa84)" style="fill: none; stroke: #000000; stroke-width: 1.5"/>
    <path d="M 138.755436 173.610697 
L 138.755436 156.592155 
" clip-path="url(#p67acd1aa84)" style="fill: none; stroke: #000000; stroke-width: 1.5"/>
    <path d="M 173.668237 189.695699 
L 173.668237 175.622481 
" clip-path="url(#p67acd1aa84)" style="fill: none; stroke: #000000; stroke-width: 1.5"/>
    <path d="M 208.581039 189.935074 
L 208.581039 176.619288 
" clip-path="url(#p67acd1aa84)" style="fill: none; stroke: #000000; stroke-width: 1.5"/>
    <path d="M 243.49384 190.73304 
L 243.49384 175.174402 
" clip-path="url(#p67acd1aa84)" style="fill: none; stroke: #000000; stroke-width: 1.5"/>
    <path d="M 278.406642 193.135079 
L 278.406642 171.566814 
" clip-path="url(#p67acd1aa84)" style="fill: none; stroke: #000000; stroke-width: 1.5"/>
    <path d="M 313.319443 191.612509 
L 313.319443 170.970396 
" clip-path="url(#p67acd1aa84)" style="fill: none; stroke: #000000; stroke-width: 1.5"/>
    <path d="M 348.232245 180.405076 
L 348.232245 153.572724 
" clip-path="url(#p67acd1aa84)" style="fill: none; stroke: #000000; stroke-width: 1.5"/>
    <path d="M 383.145046 180.726992 
L 383.145046 141.091479 
" clip-path="url(#p67acd1aa84)" style="fill: none; stroke: #000000; stroke-width: 1.5"/>
   </g>
   <g id="line2d_18">
    <defs>
     <path id="m3c56717d6e" d="M 5 0 
L -5 -0 
" style="stroke: #000000"/>
    </defs>
    <g clip-path="url(#p67acd1aa84)">
     <use xlink:href="#m3c56717d6e" x="68.929833" y="205.416992" style="stroke: #000000"/>
     <use xlink:href="#m3c56717d6e" x="103.842635" y="178.659184" style="stroke: #000000"/>
     <use xlink:href="#m3c56717d6e" x="138.755436" y="173.610697" style="stroke: #000000"/>
     <use xlink:href="#m3c56717d6e" x="173.668237" y="189.695699" style="stroke: #000000"/>
     <use xlink:href="#m3c56717d6e" x="208.581039" y="189.935074" style="stroke: #000000"/>
     <use xlink:href="#m3c56717d6e" x="243.49384" y="190.73304" style="stroke: #000000"/>
     <use xlink:href="#m3c56717d6e" x="278.406642" y="193.135079" style="stroke: #000000"/>
     <use xlink:href="#m3c56717d6e" x="313.319443" y="191.612509" style="stroke: #000000"/>
     <use xlink:href="#m3c56717d6e" x="348.232245" y="180.405076" style="stroke: #000000"/>
     <use xlink:href="#m3c56717d6e" x="383.145046" y="180.726992" style="stroke: #000000"/>
    </g>
   </g>
   <g id="line2d_19">
    <g clip-path="url(#p67acd1aa84)">
     <use xlink:href="#m3c56717d6e" x="68.929833" y="199.291734" style="stroke: #000000"/>
     <use xlink:href="#m3c56717d6e" x="103.842635" y="169.533972" style="stroke: #000000"/>
     <use xlink:href="#m3c56717d6e" x="138.755436" y="156.592155" style="stroke: #000000"/>
     <use xlink:href="#m3c56717d6e" x="173.668237" y="175.622481" style="stroke: #000000"/>
     <use xlink:href="#m3c56717d6e" x="208.581039" y="176.619288" style="stroke: #000000"/>
     <use xlink:href="#m3c56717d6e" x="243.49384" y="175.174402" style="stroke: #000000"/>
     <use xlink:href="#m3c56717d6e" x="278.406642" y="171.566814" style="stroke: #000000"/>
     <use xlink:href="#m3c56717d6e" x="313.319443" y="170.970396" style="stroke: #000000"/>
     <use xlink:href="#m3c56717d6e" x="348.232245" y="153.572724" style="stroke: #000000"/>
     <use xlink:href="#m3c56717d6e" x="383.145046" y="141.091479" style="stroke: #000000"/>
    </g>
   </g>
   <g id="LineCollection_2">
    <path d="M 82.894954 209.966849 
L 82.894954 204.748848 
" clip-path="url(#p67acd1aa84)" style="fill: none; stroke: #000000; stroke-width: 1.5"/>
    <path d="M 117.807755 185.388585 
L 117.807755 176.566266 
" clip-path="url(#p67acd1aa84)" style="fill: none; stroke: #000000; stroke-width: 1.5"/>
    <path d="M 152.720557 175.00864 
L 152.720557 158.94069 
" clip-path="url(#p67acd1aa84)" style="fill: none; stroke: #000000; stroke-width: 1.5"/>
    <path d="M 187.633358 192.009061 
L 187.633358 176.96901 
" clip-path="url(#p67acd1aa84)" style="fill: none; stroke: #000000; stroke-width: 1.5"/>
    <path d="M 222.54616 192.829291 
L 222.54616 178.173041 
" clip-path="url(#p67acd1aa84)" style="fill: none; stroke: #000000; stroke-width: 1.5"/>
    <path d="M 257.458961 196.928064 
L 257.458961 182.670711 
" clip-path="url(#p67acd1aa84)" style="fill: none; stroke: #000000; stroke-width: 1.5"/>
    <path d="M 292.371763 201.175309 
L 292.371763 180.717548 
" clip-path="url(#p67acd1aa84)" style="fill: none; stroke: #000000; stroke-width: 1.5"/>
    <path d="M 327.284564 199.172021 
L 327.284564 170.715479 
" clip-path="url(#p67acd1aa84)" style="fill: none; stroke: #000000; stroke-width: 1.5"/>
    <path d="M 362.197365 187.018599 
L 362.197365 162.966972 
" clip-path="url(#p67acd1aa84)" style="fill: none; stroke: #000000; stroke-width: 1.5"/>
    <path d="M 397.110167 181.75625 
L 397.110167 145.269349 
" clip-path="url(#p67acd1aa84)" style="fill: none; stroke: #000000; stroke-width: 1.5"/>
   </g>
   <g id="line2d_20">
    <g clip-path="url(#p67acd1aa84)">
     <use xlink:href="#m3c56717d6e" x="82.894954" y="209.966849" style="stroke: #000000"/>
     <use xlink:href="#m3c56717d6e" x="117.807755" y="185.388585" style="stroke: #000000"/>
     <use xlink:href="#m3c56717d6e" x="152.720557" y="175.00864" style="stroke: #000000"/>
     <use xlink:href="#m3c56717d6e" x="187.633358" y="192.009061" style="stroke: #000000"/>
     <use xlink:href="#m3c56717d6e" x="222.54616" y="192.829291" style="stroke: #000000"/>
     <use xlink:href="#m3c56717d6e" x="257.458961" y="196.928064" style="stroke: #000000"/>
     <use xlink:href="#m3c56717d6e" x="292.371763" y="201.175309" style="stroke: #000000"/>
     <use xlink:href="#m3c56717d6e" x="327.284564" y="199.172021" style="stroke: #000000"/>
     <use xlink:href="#m3c56717d6e" x="362.197365" y="187.018599" style="stroke: #000000"/>
     <use xlink:href="#m3c56717d6e" x="397.110167" y="181.75625" style="stroke: #000000"/>
    </g>
   </g>
   <g id="line2d_21">
    <g clip-path="url(#p67acd1aa84)">
     <use xlink:href="#m3c56717d6e" x="82.894954" y="204.748848" style="stroke: #000000"/>
     <use xlink:href="#m3c56717d6e" x="117.807755" y="176.566266" style="stroke: #000000"/>
     <use xlink:href="#m3c56717d6e" x="152.720557" y="158.94069" style="stroke: #000000"/>
     <use xlink:href="#m3c56717d6e" x="187.633358" y="176.96901" style="stroke: #000000"/>
     <use xlink:href="#m3c56717d6e" x="222.54616" y="178.173041" style="stroke: #000000"/>
     <use xlink:href="#m3c56717d6e" x="257.458961" y="182.670711" style="stroke: #000000"/>
     <use xlink:href="#m3c56717d6e" x="292.371763" y="180.717548" style="stroke: #000000"/>
     <use xlink:href="#m3c56717d6e" x="327.284564" y="170.715479" style="stroke: #000000"/>
     <use xlink:href="#m3c56717d6e" x="362.197365" y="162.966972" style="stroke: #000000"/>
     <use xlink:href="#m3c56717d6e" x="397.110167" y="145.269349" style="stroke: #000000"/>
    </g>
   </g>
   <g id="line2d_22"/>
   <g id="line2d_23"/>
   <g id="patch_23">
    <path d="M 44.84 238.84 
L 44.84 15.48 
" style="fill: none; stroke: #000000; stroke-width: 1.5; stroke-linejoin: miter; stroke-linecap: square"/>
   </g>
   <g id="patch_24">
    <path d="M 44.84 238.84 
L 421.2 238.84 
" style="fill: none; stroke: #000000; stroke-width: 1.5; stroke-linejoin: miter; stroke-linecap: square"/>
   </g>
   <g id="legend_1">
    <g id="patch_25">
     <path d="M 343.726875 59.4525 
L 412.8 59.4525 
Q 415.2 59.4525 415.2 57.0525 
L 415.2 23.88 
Q 415.2 21.48 412.8 21.48 
L 343.726875 21.48 
Q 341.326875 21.48 341.326875 23.88 
L 341.326875 57.0525 
Q 341.326875 59.4525 343.726875 59.4525 
z
" style="fill: #ffffff; opacity: 0.8; stroke: #cccccc; stroke-linejoin: miter"/>
    </g>
    <g id="patch_26">
     <path d="M 346.126875 34.97625 
L 370.126875 34.97625 
L 370.126875 26.57625 
L 346.126875 26.57625 
z
" style="fill: #c0d9ff"/>
    </g>
    <g id="text_20">
     <!-- Parity -->
     <g transform="translate(379.726875 34.97625) scale(0.12 -0.12)">
      <defs>
       <path id="LiberationSans-50" d="M 3931 3078 
Q 3931 2453 3523 2084 
Q 3116 1716 2416 1716 
L 1122 1716 
L 1122 0 
L 525 0 
L 525 4403 
L 2378 4403 
Q 3119 4403 3525 4056 
Q 3931 3709 3931 3078 
z
M 3331 3072 
Q 3331 3925 2306 3925 
L 1122 3925 
L 1122 2188 
L 2331 2188 
Q 3331 2188 3331 3072 
z
" transform="scale(0.015625)"/>
      </defs>
      <use xlink:href="#LiberationSans-50"/>
      <use xlink:href="#LiberationSans-61" x="66.699219"/>
      <use xlink:href="#LiberationSans-72" x="122.314453"/>
      <use xlink:href="#LiberationSans-69" x="155.615234"/>
      <use xlink:href="#LiberationSans-74" x="177.832031"/>
      <use xlink:href="#LiberationSans-79" x="205.615234"/>
     </g>
    </g>
    <g id="patch_27">
     <path d="M 346.126875 52.1625 
L 370.126875 52.1625 
L 370.126875 43.7625 
L 346.126875 43.7625 
z
" style="fill: #ffbfc4"/>
    </g>
    <g id="text_21">
     <!-- Value -->
     <g transform="translate(379.726875 52.1625) scale(0.12 -0.12)">
      <defs>
       <path id="LiberationSans-56" d="M 2444 0 
L 1825 0 
L 28 4403 
L 656 4403 
L 1875 1303 
L 2138 525 
L 2400 1303 
L 3613 4403 
L 4241 4403 
L 2444 0 
z
" transform="scale(0.015625)"/>
       <path id="LiberationSans-6c" d="M 431 0 
L 431 4638 
L 994 4638 
L 994 0 
L 431 0 
z
" transform="scale(0.015625)"/>
      </defs>
      <use xlink:href="#LiberationSans-56"/>
      <use xlink:href="#LiberationSans-61" x="59.324219"/>
      <use xlink:href="#LiberationSans-6c" x="114.939453"/>
      <use xlink:href="#LiberationSans-75" x="137.15625"/>
      <use xlink:href="#LiberationSans-65" x="192.771484"/>
     </g>
    </g>
   </g>
  </g>
 </g>
 <defs>
  <clipPath id="p67acd1aa84">
   <rect x="44.84" y="15.48" width="376.36" height="223.36"/>
  </clipPath>
 </defs>
</svg>
