<?xml version="1.0" encoding="utf-8" standalone="no"?>
<!DOCTYPE svg PUBLIC "-//W3C//DTD SVG 1.1//EN"
  "http://www.w3.org/Graphics/SVG/1.1/DTD/svg11.dtd">
<svg xmlns:xlink="http://www.w3.org/1999/xlink" width="838.195pt" height="236.865625pt" viewBox="0 0 838.195 236.865625" xmlns="http://www.w3.org/2000/svg" version="1.1">
 <metadata>
  <rdf:RDF xmlns:dc="http://purl.org/dc/elements/1.1/" xmlns:cc="http://creativecommons.org/ns#" xmlns:rdf="http://www.w3.org/1999/02/22-rdf-syntax-ns#">
   <cc:Work>
    <dc:type rdf:resource="http://purl.org/dc/dcmitype/StillImage"/>
    <dc:date>2024-02-05T00:35:51.286430</dc:date>
    <dc:format>image/svg+xml</dc:format>
    <dc:creator>
     <cc:Agent>
      <dc:title>Matplotlib v3.7.4, https://matplotlib.org/</dc:title>
     </cc:Agent>
    </dc:creator>
   </cc:Work>
  </rdf:RDF>
 </metadata>
 <defs>
  <style type="text/css">*{stroke-linejoin: round; stroke-linecap: butt}</style>
 </defs>
 <g id="figure_1">
  <g id="patch_1">
   <path d="M 0 236.865625 
L 838.195 236.865625 
L 838.195 0 
L 0 0 
L 0 236.865625 
z
" style="fill: none"/>
  </g>
  <g id="axes_1">
   <g id="patch_2">
    <path d="M 49.795 192.564375 
L 279.559706 192.564375 
L 279.559706 26.244375 
L 49.795 26.244375 
L 49.795 192.564375 
z
" style="fill: none"/>
   </g>
   <g id="PolyCollection_1">
    <path d="M 60.23885 137.674545 
L 60.23885 199.629387 
L 83.447406 197.533041 
L 106.655963 197.60856 
L 129.864519 194.295485 
L 153.073075 189.206171 
L 176.281631 183.964188 
L 199.490187 181.856457 
L 222.698743 181.200813 
L 245.907299 181.18763 
L 269.115856 181.234421 
L 269.115856 175.254621 
L 269.115856 175.254621 
L 245.907299 175.283018 
L 222.698743 175.067499 
L 199.490187 174.062366 
L 176.281631 170.225584 
L 153.073075 159.961995 
L 129.864519 148.618666 
L 106.655963 143.190263 
L 83.447406 141.720672 
L 60.23885 137.674545 
z
" clip-path="url(#p177476f811)" style="fill: #fbc5f4; fill-opacity: 0.5"/>
   </g>
   <g id="PolyCollection_2">
    <path d="M 60.23885 59.342062 
L 60.23885 62.363915 
L 83.447406 65.089446 
L 106.655963 73.29045 
L 129.864519 84.557132 
L 153.073075 104.843177 
L 176.281631 127.16946 
L 199.490187 138.394365 
L 222.698743 141.865618 
L 245.907299 141.523347 
L 269.115856 140.888558 
L 269.115856 135.273185 
L 269.115856 135.273185 
L 245.907299 134.307301 
L 222.698743 134.038606 
L 199.490187 129.857889 
L 176.281631 114.926298 
L 153.073075 95.681777 
L 129.864519 76.788261 
L 106.655963 68.649103 
L 83.447406 61.307041 
L 60.23885 59.342062 
z
" clip-path="url(#p177476f811)" style="fill: #ffb7bc; fill-opacity: 0.5"/>
   </g>
   <g id="PolyCollection_3">
    <path d="M 60.23885 59.198542 
L 60.23885 63.555901 
L 83.447406 67.234564 
L 106.655963 75.948754 
L 129.864519 84.841869 
L 153.073075 100.478071 
L 176.281631 134.721308 
L 199.490187 157.210077 
L 222.698743 169.047854 
L 245.907299 170.65786 
L 269.115856 170.434192 
L 269.115856 166.391492 
L 269.115856 166.391492 
L 245.907299 165.9287 
L 222.698743 159.426881 
L 199.490187 148.7686 
L 176.281631 123.947588 
L 153.073075 91.787905 
L 129.864519 79.31783 
L 106.655963 71.913719 
L 83.447406 62.785572 
L 60.23885 59.198542 
z
" clip-path="url(#p177476f811)" style="fill: #bdc0ff; fill-opacity: 0.5"/>
   </g>
   <g id="matplotlib.axis_1">
    <g id="xtick_1">
     <g id="line2d_1">
      <defs>
       <path id="ma0a44d4d78" d="M 0 0 
L 0 3.5 
" style="stroke: #000000; stroke-width: 1.5"/>
      </defs>
      <g>
       <use xlink:href="#ma0a44d4d78" x="60.23885" y="192.564375" style="stroke: #000000; stroke-width: 1.5"/>
      </g>
     </g>
     <g id="text_1">
      <!-- 1 -->
      <g transform="translate(56.902288 208.260625) scale(0.12 -0.12)">
       <defs>
        <path id="LiberationSans-31" d="M 488 0 
L 488 478 
L 1609 478 
L 1609 3866 
L 616 3156 
L 616 3688 
L 1656 4403 
L 2175 4403 
L 2175 478 
L 3247 478 
L 3247 0 
L 488 0 
z
" transform="scale(0.015625)"/>
       </defs>
       <use xlink:href="#LiberationSans-31"/>
      </g>
     </g>
    </g>
    <g id="xtick_2">
     <g id="line2d_2">
      <g>
       <use xlink:href="#ma0a44d4d78" x="83.447406" y="192.564375" style="stroke: #000000; stroke-width: 1.5"/>
      </g>
     </g>
     <g id="text_2">
      <!-- 2 -->
      <g transform="translate(80.110844 208.260625) scale(0.12 -0.12)">
       <defs>
        <path id="LiberationSans-32" d="M 322 0 
L 322 397 
Q 481 763 711 1042 
Q 941 1322 1194 1548 
Q 1447 1775 1695 1969 
Q 1944 2163 2144 2356 
Q 2344 2550 2467 2762 
Q 2591 2975 2591 3244 
Q 2591 3606 2378 3806 
Q 2166 4006 1788 4006 
Q 1428 4006 1195 3811 
Q 963 3616 922 3263 
L 347 3316 
Q 409 3844 795 4156 
Q 1181 4469 1788 4469 
Q 2453 4469 2811 4155 
Q 3169 3841 3169 3263 
Q 3169 3006 3051 2753 
Q 2934 2500 2703 2247 
Q 2472 1994 1819 1463 
Q 1459 1169 1246 933 
Q 1034 697 941 478 
L 3238 478 
L 3238 0 
L 322 0 
z
" transform="scale(0.015625)"/>
       </defs>
       <use xlink:href="#LiberationSans-32"/>
      </g>
     </g>
    </g>
    <g id="xtick_3">
     <g id="line2d_3">
      <g>
       <use xlink:href="#ma0a44d4d78" x="106.655963" y="192.564375" style="stroke: #000000; stroke-width: 1.5"/>
      </g>
     </g>
     <g id="text_3">
      <!-- 3 -->
      <g transform="translate(103.3194 208.260625) scale(0.12 -0.12)">
       <defs>
        <path id="LiberationSans-33" d="M 3278 1216 
Q 3278 606 2890 271 
Q 2503 -63 1784 -63 
Q 1116 -63 717 239 
Q 319 541 244 1131 
L 825 1184 
Q 938 403 1784 403 
Q 2209 403 2451 612 
Q 2694 822 2694 1234 
Q 2694 1594 2417 1795 
Q 2141 1997 1619 1997 
L 1300 1997 
L 1300 2484 
L 1606 2484 
Q 2069 2484 2323 2686 
Q 2578 2888 2578 3244 
Q 2578 3597 2370 3801 
Q 2163 4006 1753 4006 
Q 1381 4006 1151 3815 
Q 922 3625 884 3278 
L 319 3322 
Q 381 3863 767 4166 
Q 1153 4469 1759 4469 
Q 2422 4469 2789 4161 
Q 3156 3853 3156 3303 
Q 3156 2881 2920 2617 
Q 2684 2353 2234 2259 
L 2234 2247 
Q 2728 2194 3003 1916 
Q 3278 1638 3278 1216 
z
" transform="scale(0.015625)"/>
       </defs>
       <use xlink:href="#LiberationSans-33"/>
      </g>
     </g>
    </g>
    <g id="xtick_4">
     <g id="line2d_4">
      <g>
       <use xlink:href="#ma0a44d4d78" x="129.864519" y="192.564375" style="stroke: #000000; stroke-width: 1.5"/>
      </g>
     </g>
     <g id="text_4">
      <!-- 4 -->
      <g transform="translate(126.527956 208.260625) scale(0.12 -0.12)">
       <defs>
        <path id="LiberationSans-34" d="M 2753 997 
L 2753 0 
L 2222 0 
L 2222 997 
L 147 997 
L 147 1434 
L 2163 4403 
L 2753 4403 
L 2753 1441 
L 3372 1441 
L 3372 997 
L 2753 997 
z
M 2222 3769 
Q 2216 3750 2134 3603 
Q 2053 3456 2013 3397 
L 884 1734 
L 716 1503 
L 666 1441 
L 2222 1441 
L 2222 3769 
z
" transform="scale(0.015625)"/>
       </defs>
       <use xlink:href="#LiberationSans-34"/>
      </g>
     </g>
    </g>
    <g id="xtick_5">
     <g id="line2d_5">
      <g>
       <use xlink:href="#ma0a44d4d78" x="153.073075" y="192.564375" style="stroke: #000000; stroke-width: 1.5"/>
      </g>
     </g>
     <g id="text_5">
      <!-- 5 -->
      <g transform="translate(149.736512 208.260625) scale(0.12 -0.12)">
       <defs>
        <path id="LiberationSans-35" d="M 3291 1434 
Q 3291 738 2877 337 
Q 2463 -63 1728 -63 
Q 1113 -63 734 206 
Q 356 475 256 984 
L 825 1050 
Q 1003 397 1741 397 
Q 2194 397 2450 670 
Q 2706 944 2706 1422 
Q 2706 1838 2448 2094 
Q 2191 2350 1753 2350 
Q 1525 2350 1328 2278 
Q 1131 2206 934 2034 
L 384 2034 
L 531 4403 
L 3034 4403 
L 3034 3925 
L 1044 3925 
L 959 2528 
Q 1325 2809 1869 2809 
Q 2519 2809 2905 2428 
Q 3291 2047 3291 1434 
z
" transform="scale(0.015625)"/>
       </defs>
       <use xlink:href="#LiberationSans-35"/>
      </g>
     </g>
    </g>
    <g id="xtick_6">
     <g id="line2d_6">
      <g>
       <use xlink:href="#ma0a44d4d78" x="176.281631" y="192.564375" style="stroke: #000000; stroke-width: 1.5"/>
      </g>
     </g>
     <g id="text_6">
      <!-- 6 -->
      <g transform="translate(172.945069 208.260625) scale(0.12 -0.12)">
       <defs>
        <path id="LiberationSans-36" d="M 3278 1441 
Q 3278 744 2900 340 
Q 2522 -63 1856 -63 
Q 1113 -63 719 490 
Q 325 1044 325 2100 
Q 325 3244 734 3856 
Q 1144 4469 1900 4469 
Q 2897 4469 3156 3572 
L 2619 3475 
Q 2453 4013 1894 4013 
Q 1413 4013 1148 3564 
Q 884 3116 884 2266 
Q 1038 2550 1316 2698 
Q 1594 2847 1953 2847 
Q 2563 2847 2920 2465 
Q 3278 2084 3278 1441 
z
M 2706 1416 
Q 2706 1894 2472 2153 
Q 2238 2413 1819 2413 
Q 1425 2413 1183 2183 
Q 941 1953 941 1550 
Q 941 1041 1192 716 
Q 1444 391 1838 391 
Q 2244 391 2475 664 
Q 2706 938 2706 1416 
z
" transform="scale(0.015625)"/>
       </defs>
       <use xlink:href="#LiberationSans-36"/>
      </g>
     </g>
    </g>
    <g id="xtick_7">
     <g id="line2d_7">
      <g>
       <use xlink:href="#ma0a44d4d78" x="199.490187" y="192.564375" style="stroke: #000000; stroke-width: 1.5"/>
      </g>
     </g>
     <g id="text_7">
      <!-- 7 -->
      <g transform="translate(196.153625 208.260625) scale(0.12 -0.12)">
       <defs>
        <path id="LiberationSans-37" d="M 3238 3947 
Q 2563 2916 2284 2331 
Q 2006 1747 1867 1178 
Q 1728 609 1728 0 
L 1141 0 
Q 1141 844 1498 1776 
Q 1856 2709 2694 3925 
L 328 3925 
L 328 4403 
L 3238 4403 
L 3238 3947 
z
" transform="scale(0.015625)"/>
       </defs>
       <use xlink:href="#LiberationSans-37"/>
      </g>
     </g>
    </g>
    <g id="xtick_8">
     <g id="line2d_8">
      <g>
       <use xlink:href="#ma0a44d4d78" x="222.698743" y="192.564375" style="stroke: #000000; stroke-width: 1.5"/>
      </g>
     </g>
     <g id="text_8">
      <!-- 8 -->
      <g transform="translate(219.362181 208.260625) scale(0.12 -0.12)">
       <defs>
        <path id="LiberationSans-38" d="M 3281 1228 
Q 3281 619 2893 278 
Q 2506 -63 1781 -63 
Q 1075 -63 676 271 
Q 278 606 278 1222 
Q 278 1653 525 1947 
Q 772 2241 1156 2303 
L 1156 2316 
Q 797 2400 589 2681 
Q 381 2963 381 3341 
Q 381 3844 757 4156 
Q 1134 4469 1769 4469 
Q 2419 4469 2795 4162 
Q 3172 3856 3172 3334 
Q 3172 2956 2962 2675 
Q 2753 2394 2391 2322 
L 2391 2309 
Q 2813 2241 3047 1952 
Q 3281 1663 3281 1228 
z
M 2588 3303 
Q 2588 4050 1769 4050 
Q 1372 4050 1164 3862 
Q 956 3675 956 3303 
Q 956 2925 1170 2726 
Q 1384 2528 1775 2528 
Q 2172 2528 2380 2711 
Q 2588 2894 2588 3303 
z
M 2697 1281 
Q 2697 1691 2453 1898 
Q 2209 2106 1769 2106 
Q 1341 2106 1100 1882 
Q 859 1659 859 1269 
Q 859 359 1788 359 
Q 2247 359 2472 579 
Q 2697 800 2697 1281 
z
" transform="scale(0.015625)"/>
       </defs>
       <use xlink:href="#LiberationSans-38"/>
      </g>
     </g>
    </g>
    <g id="xtick_9">
     <g id="line2d_9">
      <g>
       <use xlink:href="#ma0a44d4d78" x="245.907299" y="192.564375" style="stroke: #000000; stroke-width: 1.5"/>
      </g>
     </g>
     <g id="text_9">
      <!-- 9 -->
      <g transform="translate(242.570737 208.260625) scale(0.12 -0.12)">
       <defs>
        <path id="LiberationSans-39" d="M 3256 2291 
Q 3256 1156 2842 546 
Q 2428 -63 1663 -63 
Q 1147 -63 836 154 
Q 525 372 391 856 
L 928 941 
Q 1097 391 1672 391 
Q 2156 391 2422 841 
Q 2688 1291 2700 2125 
Q 2575 1844 2272 1673 
Q 1969 1503 1606 1503 
Q 1013 1503 656 1909 
Q 300 2316 300 2988 
Q 300 3678 687 4073 
Q 1075 4469 1766 4469 
Q 2500 4469 2878 3925 
Q 3256 3381 3256 2291 
z
M 2644 2834 
Q 2644 3366 2400 3689 
Q 2156 4013 1747 4013 
Q 1341 4013 1106 3736 
Q 872 3459 872 2988 
Q 872 2506 1106 2226 
Q 1341 1947 1741 1947 
Q 1984 1947 2193 2058 
Q 2403 2169 2523 2372 
Q 2644 2575 2644 2834 
z
" transform="scale(0.015625)"/>
       </defs>
       <use xlink:href="#LiberationSans-39"/>
      </g>
     </g>
    </g>
    <g id="xtick_10">
     <g id="line2d_10">
      <g>
       <use xlink:href="#ma0a44d4d78" x="269.115856" y="192.564375" style="stroke: #000000; stroke-width: 1.5"/>
      </g>
     </g>
     <g id="text_10">
      <!-- 10 -->
      <g transform="translate(262.442731 208.260625) scale(0.12 -0.12)">
       <defs>
        <path id="LiberationSans-30" d="M 3309 2203 
Q 3309 1100 2920 518 
Q 2531 -63 1772 -63 
Q 1013 -63 631 515 
Q 250 1094 250 2203 
Q 250 3338 620 3903 
Q 991 4469 1791 4469 
Q 2569 4469 2939 3897 
Q 3309 3325 3309 2203 
z
M 2738 2203 
Q 2738 3156 2517 3584 
Q 2297 4013 1791 4013 
Q 1272 4013 1045 3591 
Q 819 3169 819 2203 
Q 819 1266 1048 831 
Q 1278 397 1778 397 
Q 2275 397 2506 840 
Q 2738 1284 2738 2203 
z
" transform="scale(0.015625)"/>
       </defs>
       <use xlink:href="#LiberationSans-31"/>
       <use xlink:href="#LiberationSans-30" x="55.615234"/>
      </g>
     </g>
    </g>
    <g id="text_11">
     <!-- Layer -->
     <g transform="translate(144.667353 226.345625) scale(0.16 -0.16)">
      <defs>
       <path id="LiberationSans-4c" d="M 525 0 
L 525 4403 
L 1122 4403 
L 1122 488 
L 3347 488 
L 3347 0 
L 525 0 
z
" transform="scale(0.015625)"/>
       <path id="LiberationSans-61" d="M 1294 -63 
Q 784 -63 528 206 
Q 272 475 272 944 
Q 272 1469 617 1750 
Q 963 2031 1731 2050 
L 2491 2063 
L 2491 2247 
Q 2491 2659 2316 2837 
Q 2141 3016 1766 3016 
Q 1388 3016 1216 2887 
Q 1044 2759 1009 2478 
L 422 2531 
Q 566 3444 1778 3444 
Q 2416 3444 2737 3151 
Q 3059 2859 3059 2306 
L 3059 850 
Q 3059 600 3125 473 
Q 3191 347 3375 347 
Q 3456 347 3559 369 
L 3559 19 
Q 3347 -31 3125 -31 
Q 2813 -31 2670 133 
Q 2528 297 2509 647 
L 2491 647 
Q 2275 259 1989 98 
Q 1703 -63 1294 -63 
z
M 1422 359 
Q 1731 359 1972 500 
Q 2213 641 2352 886 
Q 2491 1131 2491 1391 
L 2491 1669 
L 1875 1656 
Q 1478 1650 1273 1575 
Q 1069 1500 959 1344 
Q 850 1188 850 934 
Q 850 659 998 509 
Q 1147 359 1422 359 
z
" transform="scale(0.015625)"/>
       <path id="LiberationSans-79" d="M 597 -1328 
Q 366 -1328 209 -1294 
L 209 -872 
Q 328 -891 472 -891 
Q 997 -891 1303 -119 
L 1356 16 
L 16 3381 
L 616 3381 
L 1328 1513 
Q 1344 1469 1366 1408 
Q 1388 1347 1506 1000 
Q 1625 653 1634 613 
L 1853 1228 
L 2594 3381 
L 3188 3381 
L 1888 0 
Q 1678 -541 1497 -805 
Q 1316 -1069 1095 -1198 
Q 875 -1328 597 -1328 
z
" transform="scale(0.015625)"/>
       <path id="LiberationSans-65" d="M 863 1572 
Q 863 991 1103 675 
Q 1344 359 1806 359 
Q 2172 359 2392 506 
Q 2613 653 2691 878 
L 3184 738 
Q 2881 -63 1806 -63 
Q 1056 -63 664 384 
Q 272 831 272 1713 
Q 272 2550 664 2997 
Q 1056 3444 1784 3444 
Q 3275 3444 3275 1647 
L 3275 1572 
L 863 1572 
z
M 2694 2003 
Q 2647 2538 2422 2783 
Q 2197 3028 1775 3028 
Q 1366 3028 1127 2754 
Q 888 2481 869 2003 
L 2694 2003 
z
" transform="scale(0.015625)"/>
       <path id="LiberationSans-72" d="M 444 0 
L 444 2594 
Q 444 2950 425 3381 
L 956 3381 
Q 981 2806 981 2691 
L 994 2691 
Q 1128 3125 1303 3284 
Q 1478 3444 1797 3444 
Q 1909 3444 2025 3413 
L 2025 2897 
Q 1913 2928 1725 2928 
Q 1375 2928 1190 2626 
Q 1006 2325 1006 1763 
L 1006 0 
L 444 0 
z
" transform="scale(0.015625)"/>
      </defs>
      <use xlink:href="#LiberationSans-4c"/>
      <use xlink:href="#LiberationSans-61" x="55.615234"/>
      <use xlink:href="#LiberationSans-79" x="111.230469"/>
      <use xlink:href="#LiberationSans-65" x="161.230469"/>
      <use xlink:href="#LiberationSans-72" x="216.845703"/>
     </g>
    </g>
   </g>
   <g id="matplotlib.axis_2">
    <g id="ytick_1">
     <g id="line2d_11">
      <defs>
       <path id="mbcff55634d" d="M 0 0 
L -3.5 0 
" style="stroke: #000000; stroke-width: 1.5"/>
      </defs>
      <g>
       <use xlink:href="#mbcff55634d" x="49.795" y="185.004375" style="stroke: #000000; stroke-width: 1.5"/>
      </g>
     </g>
     <g id="text_12">
      <!-- 0.0 -->
      <g transform="translate(26.115 189.3525) scale(0.12 -0.12)">
       <defs>
        <path id="LiberationSans-2e" d="M 584 0 
L 584 684 
L 1194 684 
L 1194 0 
L 584 0 
z
" transform="scale(0.015625)"/>
       </defs>
       <use xlink:href="#LiberationSans-30"/>
       <use xlink:href="#LiberationSans-2e" x="55.615234"/>
       <use xlink:href="#LiberationSans-30" x="83.398438"/>
      </g>
     </g>
    </g>
    <g id="ytick_2">
     <g id="line2d_12">
      <g>
       <use xlink:href="#mbcff55634d" x="49.795" y="154.764375" style="stroke: #000000; stroke-width: 1.5"/>
      </g>
     </g>
     <g id="text_13">
      <!-- 0.2 -->
      <g transform="translate(26.115 159.1125) scale(0.12 -0.12)">
       <use xlink:href="#LiberationSans-30"/>
       <use xlink:href="#LiberationSans-2e" x="55.615234"/>
       <use xlink:href="#LiberationSans-32" x="83.398438"/>
      </g>
     </g>
    </g>
    <g id="ytick_3">
     <g id="line2d_13">
      <g>
       <use xlink:href="#mbcff55634d" x="49.795" y="124.524375" style="stroke: #000000; stroke-width: 1.5"/>
      </g>
     </g>
     <g id="text_14">
      <!-- 0.4 -->
      <g transform="translate(26.115 128.8725) scale(0.12 -0.12)">
       <use xlink:href="#LiberationSans-30"/>
       <use xlink:href="#LiberationSans-2e" x="55.615234"/>
       <use xlink:href="#LiberationSans-34" x="83.398438"/>
      </g>
     </g>
    </g>
    <g id="ytick_4">
     <g id="line2d_14">
      <g>
       <use xlink:href="#mbcff55634d" x="49.795" y="94.284375" style="stroke: #000000; stroke-width: 1.5"/>
      </g>
     </g>
     <g id="text_15">
      <!-- 0.6 -->
      <g transform="translate(26.115 98.6325) scale(0.12 -0.12)">
       <use xlink:href="#LiberationSans-30"/>
       <use xlink:href="#LiberationSans-2e" x="55.615234"/>
       <use xlink:href="#LiberationSans-36" x="83.398438"/>
      </g>
     </g>
    </g>
    <g id="ytick_5">
     <g id="line2d_15">
      <g>
       <use xlink:href="#mbcff55634d" x="49.795" y="64.044375" style="stroke: #000000; stroke-width: 1.5"/>
      </g>
     </g>
     <g id="text_16">
      <!-- 0.8 -->
      <g transform="translate(26.115 68.3925) scale(0.12 -0.12)">
       <use xlink:href="#LiberationSans-30"/>
       <use xlink:href="#LiberationSans-2e" x="55.615234"/>
       <use xlink:href="#LiberationSans-38" x="83.398438"/>
      </g>
     </g>
    </g>
    <g id="ytick_6">
     <g id="line2d_16">
      <g>
       <use xlink:href="#mbcff55634d" x="49.795" y="33.804375" style="stroke: #000000; stroke-width: 1.5"/>
      </g>
     </g>
     <g id="text_17">
      <!-- 1.0 -->
      <g transform="translate(26.115 38.1525) scale(0.12 -0.12)">
       <use xlink:href="#LiberationSans-31"/>
       <use xlink:href="#LiberationSans-2e" x="55.615234"/>
       <use xlink:href="#LiberationSans-30" x="83.398438"/>
      </g>
     </g>
    </g>
    <g id="text_18">
     <!-- Accuracy -->
     <g transform="translate(18.795 142.301875) rotate(-90) scale(0.16 -0.16)">
      <defs>
       <path id="LiberationSans-41" d="M 3647 0 
L 3144 1288 
L 1138 1288 
L 631 0 
L 13 0 
L 1809 4403 
L 2488 4403 
L 4256 0 
L 3647 0 
z
M 2141 3953 
L 2113 3866 
Q 2034 3606 1881 3200 
L 1319 1753 
L 2966 1753 
L 2400 3206 
Q 2313 3422 2225 3694 
L 2141 3953 
z
" transform="scale(0.015625)"/>
       <path id="LiberationSans-63" d="M 859 1706 
Q 859 1031 1071 706 
Q 1284 381 1713 381 
Q 2013 381 2214 543 
Q 2416 706 2463 1044 
L 3031 1006 
Q 2966 519 2616 228 
Q 2266 -63 1728 -63 
Q 1019 -63 645 385 
Q 272 834 272 1694 
Q 272 2547 647 2995 
Q 1022 3444 1722 3444 
Q 2241 3444 2583 3175 
Q 2925 2906 3013 2434 
L 2434 2391 
Q 2391 2672 2212 2837 
Q 2034 3003 1706 3003 
Q 1259 3003 1059 2706 
Q 859 2409 859 1706 
z
" transform="scale(0.015625)"/>
       <path id="LiberationSans-75" d="M 981 3381 
L 981 1238 
Q 981 903 1047 718 
Q 1113 534 1256 453 
Q 1400 372 1678 372 
Q 2084 372 2318 650 
Q 2553 928 2553 1422 
L 2553 3381 
L 3116 3381 
L 3116 722 
Q 3116 131 3134 0 
L 2603 0 
Q 2600 16 2597 84 
Q 2594 153 2589 242 
Q 2584 331 2578 578 
L 2569 578 
Q 2375 228 2120 82 
Q 1866 -63 1488 -63 
Q 931 -63 673 214 
Q 416 491 416 1128 
L 416 3381 
L 981 3381 
z
" transform="scale(0.015625)"/>
      </defs>
      <use xlink:href="#LiberationSans-41"/>
      <use xlink:href="#LiberationSans-63" x="66.699219"/>
      <use xlink:href="#LiberationSans-63" x="116.699219"/>
      <use xlink:href="#LiberationSans-75" x="166.699219"/>
      <use xlink:href="#LiberationSans-72" x="222.314453"/>
      <use xlink:href="#LiberationSans-61" x="255.615234"/>
      <use xlink:href="#LiberationSans-63" x="311.230469"/>
      <use xlink:href="#LiberationSans-79" x="361.230469"/>
     </g>
    </g>
   </g>
   <g id="line2d_17">
    <path d="M 60.23885 168.651966 
L 83.447406 169.626857 
L 106.655963 170.399411 
L 129.864519 171.457076 
L 153.073075 174.584083 
L 176.281631 177.094886 
L 199.490187 177.959411 
L 222.698743 178.134156 
L 245.907299 178.235324 
L 269.115856 178.244521 
" clip-path="url(#p177476f811)" style="fill: none; stroke: #fbc5f4; stroke-width: 1.5; stroke-linecap: square"/>
   </g>
   <g id="line2d_18">
    <path d="M 60.23885 60.852988 
L 83.447406 63.198244 
L 106.655963 70.969776 
L 129.864519 80.672696 
L 153.073075 100.262477 
L 176.281631 121.047879 
L 199.490187 134.126127 
L 222.698743 137.952112 
L 245.907299 137.915324 
L 269.115856 138.080871 
" clip-path="url(#p177476f811)" style="fill: none; stroke: #ffb7bc; stroke-width: 1.5; stroke-linecap: square"/>
   </g>
   <g id="line2d_19">
    <path d="M 60.23885 61.377222 
L 83.447406 65.010068 
L 106.655963 73.931236 
L 129.864519 82.079849 
L 153.073075 96.132988 
L 176.281631 129.334448 
L 199.490187 152.989339 
L 222.698743 164.237368 
L 245.907299 168.29328 
L 269.115856 168.412842 
" clip-path="url(#p177476f811)" style="fill: none; stroke: #bdc0ff; stroke-width: 1.5; stroke-linecap: square"/>
   </g>
   <g id="line2d_20">
    <path d="M 60.23885 179.18899 
L 83.447406 179.18899 
L 106.655963 179.18899 
L 129.864519 179.18899 
L 153.073075 179.18899 
L 176.281631 179.18899 
L 199.490187 179.18899 
L 222.698743 179.18899 
L 245.907299 179.18899 
L 269.115856 179.18899 
" clip-path="url(#p177476f811)" style="fill: none; stroke-dasharray: 5.55,2.4; stroke-dashoffset: 0; stroke: #000000; stroke-width: 1.5"/>
   </g>
   <g id="patch_3">
    <path d="M 49.795 192.564375 
L 49.795 26.244375 
" style="fill: none; stroke: #000000; stroke-width: 1.5; stroke-linejoin: miter; stroke-linecap: square"/>
   </g>
   <g id="patch_4">
    <path d="M 49.795 192.564375 
L 279.559706 192.564375 
" style="fill: none; stroke: #000000; stroke-width: 1.5; stroke-linejoin: miter; stroke-linecap: square"/>
   </g>
   <g id="text_19">
    <!-- Letter -->
    <g transform="translate(141.665478 20.244375) scale(0.18 -0.18)">
     <defs>
      <path id="LiberationSans-74" d="M 1731 25 
Q 1453 -50 1163 -50 
Q 488 -50 488 716 
L 488 2972 
L 97 2972 
L 97 3381 
L 509 3381 
L 675 4138 
L 1050 4138 
L 1050 3381 
L 1675 3381 
L 1675 2972 
L 1050 2972 
L 1050 838 
Q 1050 594 1129 495 
Q 1209 397 1406 397 
Q 1519 397 1731 441 
L 1731 25 
z
" transform="scale(0.015625)"/>
     </defs>
     <use xlink:href="#LiberationSans-4c"/>
     <use xlink:href="#LiberationSans-65" x="55.615234"/>
     <use xlink:href="#LiberationSans-74" x="111.230469"/>
     <use xlink:href="#LiberationSans-74" x="139.013672"/>
     <use xlink:href="#LiberationSans-65" x="166.796875"/>
     <use xlink:href="#LiberationSans-72" x="222.412109"/>
    </g>
   </g>
  </g>
  <g id="axes_2">
   <g id="patch_5">
    <path d="M 325.512647 192.564375 
L 555.277353 192.564375 
L 555.277353 26.244375 
L 325.512647 26.244375 
L 325.512647 192.564375 
z
" style="fill: none"/>
   </g>
   <g id="PolyCollection_4">
    <path d="M 335.956497 33.979538 
L 335.956497 34.181036 
L 359.165053 35.955355 
L 382.37361 34.209047 
L 405.582166 34.061893 
L 428.790722 34.147615 
L 451.999278 34.547647 
L 475.207834 34.362201 
L 498.41639 34.290475 
L 521.624947 34.043499 
L 544.833503 34.033146 
L 544.833503 33.814728 
L 544.833503 33.814728 
L 521.624947 33.822769 
L 498.41639 33.851706 
L 475.207834 34.074287 
L 451.999278 33.999205 
L 428.790722 33.829019 
L 405.582166 33.841163 
L 382.37361 33.91474 
L 359.165053 34.467701 
L 335.956497 33.979538 
z
" clip-path="url(#p1b9ed61f5f)" style="fill: #fbc5f4; fill-opacity: 0.5"/>
   </g>
   <g id="PolyCollection_5">
    <path d="M 335.956497 118.911681 
L 335.956497 122.742616 
L 359.165053 124.086152 
L 382.37361 124.207667 
L 405.582166 123.048589 
L 428.790722 120.550545 
L 451.999278 117.492017 
L 475.207834 114.880758 
L 498.41639 115.798392 
L 521.624947 115.862869 
L 544.833503 116.650888 
L 544.833503 114.500344 
L 544.833503 114.500344 
L 521.624947 113.651282 
L 498.41639 113.439847 
L 475.207834 113.95281 
L 451.999278 115.62739 
L 428.790722 118.105505 
L 405.582166 120.904979 
L 382.37361 120.665609 
L 359.165053 120.842306 
L 335.956497 118.911681 
z
" clip-path="url(#p1b9ed61f5f)" style="fill: #ffb7bc; fill-opacity: 0.5"/>
   </g>
   <g id="PolyCollection_6">
    <path d="M 335.956497 89.446079 
L 335.956497 93.733182 
L 359.165053 61.006927 
L 382.37361 39.139507 
L 405.582166 35.248426 
L 428.790722 36.711755 
L 451.999278 42.402195 
L 475.207834 57.406249 
L 498.41639 72.596287 
L 521.624947 84.001236 
L 544.833503 54.325987 
L 544.833503 36.257069 
L 544.833503 36.257069 
L 521.624947 50.323135 
L 498.41639 44.253631 
L 475.207834 37.720165 
L 451.999278 37.328307 
L 428.790722 34.870133 
L 405.582166 34.475652 
L 382.37361 36.268367 
L 359.165053 51.888246 
L 335.956497 89.446079 
z
" clip-path="url(#p1b9ed61f5f)" style="fill: #bdc0ff; fill-opacity: 0.5"/>
   </g>
   <g id="matplotlib.axis_3">
    <g id="xtick_11">
     <g id="line2d_21">
      <g>
       <use xlink:href="#ma0a44d4d78" x="335.956497" y="192.564375" style="stroke: #000000; stroke-width: 1.5"/>
      </g>
     </g>
     <g id="text_20">
      <!-- 1 -->
      <g transform="translate(332.619935 208.260625) scale(0.12 -0.12)">
       <use xlink:href="#LiberationSans-31"/>
      </g>
     </g>
    </g>
    <g id="xtick_12">
     <g id="line2d_22">
      <g>
       <use xlink:href="#ma0a44d4d78" x="359.165053" y="192.564375" style="stroke: #000000; stroke-width: 1.5"/>
      </g>
     </g>
     <g id="text_21">
      <!-- 2 -->
      <g transform="translate(355.828491 208.260625) scale(0.12 -0.12)">
       <use xlink:href="#LiberationSans-32"/>
      </g>
     </g>
    </g>
    <g id="xtick_13">
     <g id="line2d_23">
      <g>
       <use xlink:href="#ma0a44d4d78" x="382.37361" y="192.564375" style="stroke: #000000; stroke-width: 1.5"/>
      </g>
     </g>
     <g id="text_22">
      <!-- 3 -->
      <g transform="translate(379.037047 208.260625) scale(0.12 -0.12)">
       <use xlink:href="#LiberationSans-33"/>
      </g>
     </g>
    </g>
    <g id="xtick_14">
     <g id="line2d_24">
      <g>
       <use xlink:href="#ma0a44d4d78" x="405.582166" y="192.564375" style="stroke: #000000; stroke-width: 1.5"/>
      </g>
     </g>
     <g id="text_23">
      <!-- 4 -->
      <g transform="translate(402.245603 208.260625) scale(0.12 -0.12)">
       <use xlink:href="#LiberationSans-34"/>
      </g>
     </g>
    </g>
    <g id="xtick_15">
     <g id="line2d_25">
      <g>
       <use xlink:href="#ma0a44d4d78" x="428.790722" y="192.564375" style="stroke: #000000; stroke-width: 1.5"/>
      </g>
     </g>
     <g id="text_24">
      <!-- 5 -->
      <g transform="translate(425.454159 208.260625) scale(0.12 -0.12)">
       <use xlink:href="#LiberationSans-35"/>
      </g>
     </g>
    </g>
    <g id="xtick_16">
     <g id="line2d_26">
      <g>
       <use xlink:href="#ma0a44d4d78" x="451.999278" y="192.564375" style="stroke: #000000; stroke-width: 1.5"/>
      </g>
     </g>
     <g id="text_25">
      <!-- 6 -->
      <g transform="translate(448.662716 208.260625) scale(0.12 -0.12)">
       <use xlink:href="#LiberationSans-36"/>
      </g>
     </g>
    </g>
    <g id="xtick_17">
     <g id="line2d_27">
      <g>
       <use xlink:href="#ma0a44d4d78" x="475.207834" y="192.564375" style="stroke: #000000; stroke-width: 1.5"/>
      </g>
     </g>
     <g id="text_26">
      <!-- 7 -->
      <g transform="translate(471.871272 208.260625) scale(0.12 -0.12)">
       <use xlink:href="#LiberationSans-37"/>
      </g>
     </g>
    </g>
    <g id="xtick_18">
     <g id="line2d_28">
      <g>
       <use xlink:href="#ma0a44d4d78" x="498.41639" y="192.564375" style="stroke: #000000; stroke-width: 1.5"/>
      </g>
     </g>
     <g id="text_27">
      <!-- 8 -->
      <g transform="translate(495.079828 208.260625) scale(0.12 -0.12)">
       <use xlink:href="#LiberationSans-38"/>
      </g>
     </g>
    </g>
    <g id="xtick_19">
     <g id="line2d_29">
      <g>
       <use xlink:href="#ma0a44d4d78" x="521.624947" y="192.564375" style="stroke: #000000; stroke-width: 1.5"/>
      </g>
     </g>
     <g id="text_28">
      <!-- 9 -->
      <g transform="translate(518.288384 208.260625) scale(0.12 -0.12)">
       <use xlink:href="#LiberationSans-39"/>
      </g>
     </g>
    </g>
    <g id="xtick_20">
     <g id="line2d_30">
      <g>
       <use xlink:href="#ma0a44d4d78" x="544.833503" y="192.564375" style="stroke: #000000; stroke-width: 1.5"/>
      </g>
     </g>
     <g id="text_29">
      <!-- 10 -->
      <g transform="translate(538.160378 208.260625) scale(0.12 -0.12)">
       <use xlink:href="#LiberationSans-31"/>
       <use xlink:href="#LiberationSans-30" x="55.615234"/>
      </g>
     </g>
    </g>
    <g id="text_30">
     <!-- Layer -->
     <g transform="translate(420.385 226.345625) scale(0.16 -0.16)">
      <use xlink:href="#LiberationSans-4c"/>
      <use xlink:href="#LiberationSans-61" x="55.615234"/>
      <use xlink:href="#LiberationSans-79" x="111.230469"/>
      <use xlink:href="#LiberationSans-65" x="161.230469"/>
      <use xlink:href="#LiberationSans-72" x="216.845703"/>
     </g>
    </g>
   </g>
   <g id="matplotlib.axis_4">
    <g id="ytick_7">
     <g id="line2d_31">
      <g>
       <use xlink:href="#mbcff55634d" x="325.512647" y="185.004375" style="stroke: #000000; stroke-width: 1.5"/>
      </g>
     </g>
     <g id="text_31">
      <!-- 0.0 -->
      <g transform="translate(301.832647 189.3525) scale(0.12 -0.12)">
       <use xlink:href="#LiberationSans-30"/>
       <use xlink:href="#LiberationSans-2e" x="55.615234"/>
       <use xlink:href="#LiberationSans-30" x="83.398438"/>
      </g>
     </g>
    </g>
    <g id="ytick_8">
     <g id="line2d_32">
      <g>
       <use xlink:href="#mbcff55634d" x="325.512647" y="154.764375" style="stroke: #000000; stroke-width: 1.5"/>
      </g>
     </g>
     <g id="text_32">
      <!-- 0.2 -->
      <g transform="translate(301.832647 159.1125) scale(0.12 -0.12)">
       <use xlink:href="#LiberationSans-30"/>
       <use xlink:href="#LiberationSans-2e" x="55.615234"/>
       <use xlink:href="#LiberationSans-32" x="83.398438"/>
      </g>
     </g>
    </g>
    <g id="ytick_9">
     <g id="line2d_33">
      <g>
       <use xlink:href="#mbcff55634d" x="325.512647" y="124.524375" style="stroke: #000000; stroke-width: 1.5"/>
      </g>
     </g>
     <g id="text_33">
      <!-- 0.4 -->
      <g transform="translate(301.832647 128.8725) scale(0.12 -0.12)">
       <use xlink:href="#LiberationSans-30"/>
       <use xlink:href="#LiberationSans-2e" x="55.615234"/>
       <use xlink:href="#LiberationSans-34" x="83.398438"/>
      </g>
     </g>
    </g>
    <g id="ytick_10">
     <g id="line2d_34">
      <g>
       <use xlink:href="#mbcff55634d" x="325.512647" y="94.284375" style="stroke: #000000; stroke-width: 1.5"/>
      </g>
     </g>
     <g id="text_34">
      <!-- 0.6 -->
      <g transform="translate(301.832647 98.6325) scale(0.12 -0.12)">
       <use xlink:href="#LiberationSans-30"/>
       <use xlink:href="#LiberationSans-2e" x="55.615234"/>
       <use xlink:href="#LiberationSans-36" x="83.398438"/>
      </g>
     </g>
    </g>
    <g id="ytick_11">
     <g id="line2d_35">
      <g>
       <use xlink:href="#mbcff55634d" x="325.512647" y="64.044375" style="stroke: #000000; stroke-width: 1.5"/>
      </g>
     </g>
     <g id="text_35">
      <!-- 0.8 -->
      <g transform="translate(301.832647 68.3925) scale(0.12 -0.12)">
       <use xlink:href="#LiberationSans-30"/>
       <use xlink:href="#LiberationSans-2e" x="55.615234"/>
       <use xlink:href="#LiberationSans-38" x="83.398438"/>
      </g>
     </g>
    </g>
    <g id="ytick_12">
     <g id="line2d_36">
      <g>
       <use xlink:href="#mbcff55634d" x="325.512647" y="33.804375" style="stroke: #000000; stroke-width: 1.5"/>
      </g>
     </g>
     <g id="text_36">
      <!-- 1.0 -->
      <g transform="translate(301.832647 38.1525) scale(0.12 -0.12)">
       <use xlink:href="#LiberationSans-31"/>
       <use xlink:href="#LiberationSans-2e" x="55.615234"/>
       <use xlink:href="#LiberationSans-30" x="83.398438"/>
      </g>
     </g>
    </g>
    <g id="text_37">
     <!-- Accuracy -->
     <g transform="translate(294.512647 142.301875) rotate(-90) scale(0.16 -0.16)">
      <use xlink:href="#LiberationSans-41"/>
      <use xlink:href="#LiberationSans-63" x="66.699219"/>
      <use xlink:href="#LiberationSans-63" x="116.699219"/>
      <use xlink:href="#LiberationSans-75" x="166.699219"/>
      <use xlink:href="#LiberationSans-72" x="222.314453"/>
      <use xlink:href="#LiberationSans-61" x="255.615234"/>
      <use xlink:href="#LiberationSans-63" x="311.230469"/>
      <use xlink:href="#LiberationSans-79" x="361.230469"/>
     </g>
    </g>
   </g>
   <g id="line2d_37">
    <path d="M 335.956497 34.080287 
L 359.165053 35.211528 
L 382.37361 34.061893 
L 405.582166 33.951528 
L 428.790722 33.988317 
L 451.999278 34.273426 
L 475.207834 34.218244 
L 498.41639 34.07109 
L 521.624947 33.933134 
L 544.833503 33.923937 
" clip-path="url(#p1b9ed61f5f)" style="fill: none; stroke: #fbc5f4; stroke-width: 1.5; stroke-linecap: square"/>
   </g>
   <g id="line2d_38">
    <path d="M 335.956497 120.827149 
L 359.165053 122.464229 
L 382.37361 122.436638 
L 405.582166 121.976784 
L 428.790722 119.328025 
L 451.999278 116.559703 
L 475.207834 114.416784 
L 498.41639 114.61912 
L 521.624947 114.757076 
L 544.833503 115.575616 
" clip-path="url(#p1b9ed61f5f)" style="fill: none; stroke: #ffb7bc; stroke-width: 1.5; stroke-linecap: square"/>
   </g>
   <g id="line2d_39">
    <path d="M 335.956497 91.58963 
L 359.165053 56.447587 
L 382.37361 37.703937 
L 405.582166 34.862039 
L 428.790722 35.790944 
L 451.999278 39.865251 
L 475.207834 47.563207 
L 498.41639 58.424959 
L 521.624947 67.162185 
L 544.833503 45.291528 
" clip-path="url(#p1b9ed61f5f)" style="fill: none; stroke: #bdc0ff; stroke-width: 1.5; stroke-linecap: square"/>
   </g>
   <g id="line2d_40">
    <path d="M 335.956497 109.404375 
L 359.165053 109.404375 
L 382.37361 109.404375 
L 405.582166 109.404375 
L 428.790722 109.404375 
L 451.999278 109.404375 
L 475.207834 109.404375 
L 498.41639 109.404375 
L 521.624947 109.404375 
L 544.833503 109.404375 
" clip-path="url(#p1b9ed61f5f)" style="fill: none; stroke-dasharray: 5.55,2.4; stroke-dashoffset: 0; stroke: #000000; stroke-width: 1.5"/>
   </g>
   <g id="patch_6">
    <path d="M 325.512647 192.564375 
L 325.512647 26.244375 
" style="fill: none; stroke: #000000; stroke-width: 1.5; stroke-linejoin: miter; stroke-linecap: square"/>
   </g>
   <g id="patch_7">
    <path d="M 325.512647 192.564375 
L 555.277353 192.564375 
" style="fill: none; stroke: #000000; stroke-width: 1.5; stroke-linejoin: miter; stroke-linecap: square"/>
   </g>
   <g id="text_38">
    <!-- Task -->
    <g transform="translate(421.894375 20.244375) scale(0.18 -0.18)">
     <defs>
      <path id="LiberationSans-54" d="M 2250 3916 
L 2250 0 
L 1656 0 
L 1656 3916 
L 144 3916 
L 144 4403 
L 3763 4403 
L 3763 3916 
L 2250 3916 
z
" transform="scale(0.015625)"/>
      <path id="LiberationSans-73" d="M 2969 934 
Q 2969 456 2608 196 
Q 2247 -63 1597 -63 
Q 966 -63 623 145 
Q 281 353 178 794 
L 675 891 
Q 747 619 972 492 
Q 1197 366 1597 366 
Q 2025 366 2223 497 
Q 2422 628 2422 891 
Q 2422 1091 2284 1216 
Q 2147 1341 1841 1422 
L 1438 1528 
Q 953 1653 748 1773 
Q 544 1894 428 2066 
Q 313 2238 313 2488 
Q 313 2950 642 3192 
Q 972 3434 1603 3434 
Q 2163 3434 2492 3237 
Q 2822 3041 2909 2606 
L 2403 2544 
Q 2356 2769 2151 2889 
Q 1947 3009 1603 3009 
Q 1222 3009 1040 2893 
Q 859 2778 859 2544 
Q 859 2400 934 2306 
Q 1009 2213 1156 2147 
Q 1303 2081 1775 1966 
Q 2222 1853 2419 1758 
Q 2616 1663 2730 1547 
Q 2844 1431 2906 1279 
Q 2969 1128 2969 934 
z
" transform="scale(0.015625)"/>
      <path id="LiberationSans-6b" d="M 2550 0 
L 1406 1544 
L 994 1203 
L 994 0 
L 431 0 
L 431 4638 
L 994 4638 
L 994 1741 
L 2478 3381 
L 3138 3381 
L 1766 1928 
L 3209 0 
L 2550 0 
z
" transform="scale(0.015625)"/>
     </defs>
     <use xlink:href="#LiberationSans-54"/>
     <use xlink:href="#LiberationSans-61" x="49.958984"/>
     <use xlink:href="#LiberationSans-73" x="105.574219"/>
     <use xlink:href="#LiberationSans-6b" x="155.574219"/>
    </g>
   </g>
  </g>
  <g id="axes_3">
   <g id="patch_8">
    <path d="M 601.230294 192.564375 
L 830.995 192.564375 
L 830.995 26.244375 
L 601.230294 26.244375 
L 601.230294 192.564375 
z
" style="fill: none"/>
   </g>
   <g id="PolyCollection_7">
    <path d="M 611.674144 79.754061 
L 611.674144 97.72301 
L 634.882701 98.081305 
L 658.091257 98.417062 
L 681.299813 97.744331 
L 704.508369 96.859022 
L 727.716925 95.74884 
L 750.925481 95.680229 
L 774.134037 95.663103 
L 797.342594 95.645989 
L 820.55115 95.697365 
L 820.55115 83.416786 
L 820.55115 83.416786 
L 797.342594 83.523344 
L 774.134037 83.487836 
L 750.925481 83.452317 
L 727.716925 83.310129 
L 704.508369 81.059509 
L 681.299813 79.677557 
L 658.091257 78.17709 
L 634.882701 78.954306 
L 611.674144 79.754061 
z
" clip-path="url(#p776b805cf9)" style="fill: #fbc5f4; fill-opacity: 0.5"/>
   </g>
   <g id="PolyCollection_8">
    <path d="M 611.674144 51.354635 
L 611.674144 55.599225 
L 634.882701 48.814528 
L 658.091257 48.460307 
L 681.299813 47.408186 
L 704.508369 47.34286 
L 727.716925 48.231443 
L 750.925481 48.207581 
L 774.134037 47.399377 
L 797.342594 47.042316 
L 820.55115 46.83786 
L 820.55115 45.106365 
L 820.55115 45.106365 
L 797.342594 45.141032 
L 774.134037 45.427767 
L 750.925481 45.281753 
L 727.716925 45.147526 
L 704.508369 45.576255 
L 681.299813 45.179834 
L 658.091257 45.654429 
L 634.882701 46.201521 
L 611.674144 51.354635 
z
" clip-path="url(#p776b805cf9)" style="fill: #ffb7bc; fill-opacity: 0.5"/>
   </g>
   <g id="PolyCollection_9">
    <path d="M 611.674144 51.202785 
L 611.674144 54.224359 
L 634.882701 48.620789 
L 658.091257 48.274555 
L 681.299813 48.415853 
L 704.508369 49.685202 
L 727.716925 53.471731 
L 750.925481 60.43497 
L 774.134037 79.236094 
L 797.342594 86.718784 
L 820.55115 84.040902 
L 820.55115 75.557045 
L 820.55115 75.557045 
L 797.342594 74.681791 
L 774.134037 64.303751 
L 750.925481 53.508671 
L 727.716925 49.06753 
L 704.508369 46.379315 
L 681.299813 45.86443 
L 658.091257 45.472297 
L 634.882701 45.530734 
L 611.674144 51.202785 
z
" clip-path="url(#p776b805cf9)" style="fill: #bdc0ff; fill-opacity: 0.5"/>
   </g>
   <g id="matplotlib.axis_5">
    <g id="xtick_21">
     <g id="line2d_41">
      <g>
       <use xlink:href="#ma0a44d4d78" x="611.674144" y="192.564375" style="stroke: #000000; stroke-width: 1.5"/>
      </g>
     </g>
     <g id="text_39">
      <!-- 1 -->
      <g transform="translate(608.337582 208.260625) scale(0.12 -0.12)">
       <use xlink:href="#LiberationSans-31"/>
      </g>
     </g>
    </g>
    <g id="xtick_22">
     <g id="line2d_42">
      <g>
       <use xlink:href="#ma0a44d4d78" x="634.882701" y="192.564375" style="stroke: #000000; stroke-width: 1.5"/>
      </g>
     </g>
     <g id="text_40">
      <!-- 2 -->
      <g transform="translate(631.546138 208.260625) scale(0.12 -0.12)">
       <use xlink:href="#LiberationSans-32"/>
      </g>
     </g>
    </g>
    <g id="xtick_23">
     <g id="line2d_43">
      <g>
       <use xlink:href="#ma0a44d4d78" x="658.091257" y="192.564375" style="stroke: #000000; stroke-width: 1.5"/>
      </g>
     </g>
     <g id="text_41">
      <!-- 3 -->
      <g transform="translate(654.754694 208.260625) scale(0.12 -0.12)">
       <use xlink:href="#LiberationSans-33"/>
      </g>
     </g>
    </g>
    <g id="xtick_24">
     <g id="line2d_44">
      <g>
       <use xlink:href="#ma0a44d4d78" x="681.299813" y="192.564375" style="stroke: #000000; stroke-width: 1.5"/>
      </g>
     </g>
     <g id="text_42">
      <!-- 4 -->
      <g transform="translate(677.96325 208.260625) scale(0.12 -0.12)">
       <use xlink:href="#LiberationSans-34"/>
      </g>
     </g>
    </g>
    <g id="xtick_25">
     <g id="line2d_45">
      <g>
       <use xlink:href="#ma0a44d4d78" x="704.508369" y="192.564375" style="stroke: #000000; stroke-width: 1.5"/>
      </g>
     </g>
     <g id="text_43">
      <!-- 5 -->
      <g transform="translate(701.171806 208.260625) scale(0.12 -0.12)">
       <use xlink:href="#LiberationSans-35"/>
      </g>
     </g>
    </g>
    <g id="xtick_26">
     <g id="line2d_46">
      <g>
       <use xlink:href="#ma0a44d4d78" x="727.716925" y="192.564375" style="stroke: #000000; stroke-width: 1.5"/>
      </g>
     </g>
     <g id="text_44">
      <!-- 6 -->
      <g transform="translate(724.380363 208.260625) scale(0.12 -0.12)">
       <use xlink:href="#LiberationSans-36"/>
      </g>
     </g>
    </g>
    <g id="xtick_27">
     <g id="line2d_47">
      <g>
       <use xlink:href="#ma0a44d4d78" x="750.925481" y="192.564375" style="stroke: #000000; stroke-width: 1.5"/>
      </g>
     </g>
     <g id="text_45">
      <!-- 7 -->
      <g transform="translate(747.588919 208.260625) scale(0.12 -0.12)">
       <use xlink:href="#LiberationSans-37"/>
      </g>
     </g>
    </g>
    <g id="xtick_28">
     <g id="line2d_48">
      <g>
       <use xlink:href="#ma0a44d4d78" x="774.134037" y="192.564375" style="stroke: #000000; stroke-width: 1.5"/>
      </g>
     </g>
     <g id="text_46">
      <!-- 8 -->
      <g transform="translate(770.797475 208.260625) scale(0.12 -0.12)">
       <use xlink:href="#LiberationSans-38"/>
      </g>
     </g>
    </g>
    <g id="xtick_29">
     <g id="line2d_49">
      <g>
       <use xlink:href="#ma0a44d4d78" x="797.342594" y="192.564375" style="stroke: #000000; stroke-width: 1.5"/>
      </g>
     </g>
     <g id="text_47">
      <!-- 9 -->
      <g transform="translate(794.006031 208.260625) scale(0.12 -0.12)">
       <use xlink:href="#LiberationSans-39"/>
      </g>
     </g>
    </g>
    <g id="xtick_30">
     <g id="line2d_50">
      <g>
       <use xlink:href="#ma0a44d4d78" x="820.55115" y="192.564375" style="stroke: #000000; stroke-width: 1.5"/>
      </g>
     </g>
     <g id="text_48">
      <!-- 10 -->
      <g transform="translate(813.878025 208.260625) scale(0.12 -0.12)">
       <use xlink:href="#LiberationSans-31"/>
       <use xlink:href="#LiberationSans-30" x="55.615234"/>
      </g>
     </g>
    </g>
    <g id="text_49">
     <!-- Layer -->
     <g transform="translate(696.102647 226.345625) scale(0.16 -0.16)">
      <use xlink:href="#LiberationSans-4c"/>
      <use xlink:href="#LiberationSans-61" x="55.615234"/>
      <use xlink:href="#LiberationSans-79" x="111.230469"/>
      <use xlink:href="#LiberationSans-65" x="161.230469"/>
      <use xlink:href="#LiberationSans-72" x="216.845703"/>
     </g>
    </g>
   </g>
   <g id="matplotlib.axis_6">
    <g id="ytick_13">
     <g id="line2d_51">
      <g>
       <use xlink:href="#mbcff55634d" x="601.230294" y="185.004375" style="stroke: #000000; stroke-width: 1.5"/>
      </g>
     </g>
     <g id="text_50">
      <!-- 0.0 -->
      <g transform="translate(577.550294 189.3525) scale(0.12 -0.12)">
       <use xlink:href="#LiberationSans-30"/>
       <use xlink:href="#LiberationSans-2e" x="55.615234"/>
       <use xlink:href="#LiberationSans-30" x="83.398438"/>
      </g>
     </g>
    </g>
    <g id="ytick_14">
     <g id="line2d_52">
      <g>
       <use xlink:href="#mbcff55634d" x="601.230294" y="154.764375" style="stroke: #000000; stroke-width: 1.5"/>
      </g>
     </g>
     <g id="text_51">
      <!-- 0.2 -->
      <g transform="translate(577.550294 159.1125) scale(0.12 -0.12)">
       <use xlink:href="#LiberationSans-30"/>
       <use xlink:href="#LiberationSans-2e" x="55.615234"/>
       <use xlink:href="#LiberationSans-32" x="83.398438"/>
      </g>
     </g>
    </g>
    <g id="ytick_15">
     <g id="line2d_53">
      <g>
       <use xlink:href="#mbcff55634d" x="601.230294" y="124.524375" style="stroke: #000000; stroke-width: 1.5"/>
      </g>
     </g>
     <g id="text_52">
      <!-- 0.4 -->
      <g transform="translate(577.550294 128.8725) scale(0.12 -0.12)">
       <use xlink:href="#LiberationSans-30"/>
       <use xlink:href="#LiberationSans-2e" x="55.615234"/>
       <use xlink:href="#LiberationSans-34" x="83.398438"/>
      </g>
     </g>
    </g>
    <g id="ytick_16">
     <g id="line2d_54">
      <g>
       <use xlink:href="#mbcff55634d" x="601.230294" y="94.284375" style="stroke: #000000; stroke-width: 1.5"/>
      </g>
     </g>
     <g id="text_53">
      <!-- 0.6 -->
      <g transform="translate(577.550294 98.6325) scale(0.12 -0.12)">
       <use xlink:href="#LiberationSans-30"/>
       <use xlink:href="#LiberationSans-2e" x="55.615234"/>
       <use xlink:href="#LiberationSans-36" x="83.398438"/>
      </g>
     </g>
    </g>
    <g id="ytick_17">
     <g id="line2d_55">
      <g>
       <use xlink:href="#mbcff55634d" x="601.230294" y="64.044375" style="stroke: #000000; stroke-width: 1.5"/>
      </g>
     </g>
     <g id="text_54">
      <!-- 0.8 -->
      <g transform="translate(577.550294 68.3925) scale(0.12 -0.12)">
       <use xlink:href="#LiberationSans-30"/>
       <use xlink:href="#LiberationSans-2e" x="55.615234"/>
       <use xlink:href="#LiberationSans-38" x="83.398438"/>
      </g>
     </g>
    </g>
    <g id="ytick_18">
     <g id="line2d_56">
      <g>
       <use xlink:href="#mbcff55634d" x="601.230294" y="33.804375" style="stroke: #000000; stroke-width: 1.5"/>
      </g>
     </g>
     <g id="text_55">
      <!-- 1.0 -->
      <g transform="translate(577.550294 38.1525) scale(0.12 -0.12)">
       <use xlink:href="#LiberationSans-31"/>
       <use xlink:href="#LiberationSans-2e" x="55.615234"/>
       <use xlink:href="#LiberationSans-30" x="83.398438"/>
      </g>
     </g>
    </g>
    <g id="text_56">
     <!-- Accuracy -->
     <g transform="translate(570.230294 142.301875) rotate(-90) scale(0.16 -0.16)">
      <use xlink:href="#LiberationSans-41"/>
      <use xlink:href="#LiberationSans-63" x="66.699219"/>
      <use xlink:href="#LiberationSans-63" x="116.699219"/>
      <use xlink:href="#LiberationSans-75" x="166.699219"/>
      <use xlink:href="#LiberationSans-72" x="222.314453"/>
      <use xlink:href="#LiberationSans-61" x="255.615234"/>
      <use xlink:href="#LiberationSans-63" x="311.230469"/>
      <use xlink:href="#LiberationSans-79" x="361.230469"/>
     </g>
    </g>
   </g>
   <g id="line2d_57">
    <path d="M 611.674144 88.738536 
L 634.882701 88.517806 
L 658.091257 88.297076 
L 681.299813 88.710944 
L 704.508369 88.959266 
L 727.716925 89.529484 
L 750.925481 89.566273 
L 774.134037 89.57547 
L 797.342594 89.584667 
L 820.55115 89.557076 
" clip-path="url(#p776b805cf9)" style="fill: none; stroke: #fbc5f4; stroke-width: 1.5; stroke-linecap: square"/>
   </g>
   <g id="line2d_58">
    <path d="M 611.674144 53.47693 
L 634.882701 47.508025 
L 658.091257 47.057368 
L 681.299813 46.29401 
L 704.508369 46.459557 
L 727.716925 46.689484 
L 750.925481 46.744667 
L 774.134037 46.413572 
L 797.342594 46.091674 
L 820.55115 45.972112 
" clip-path="url(#p776b805cf9)" style="fill: none; stroke: #ffb7bc; stroke-width: 1.5; stroke-linecap: square"/>
   </g>
   <g id="line2d_59">
    <path d="M 611.674144 52.713572 
L 634.882701 47.075762 
L 658.091257 46.873426 
L 681.299813 47.140141 
L 704.508369 48.032258 
L 727.716925 51.26963 
L 750.925481 56.97182 
L 774.134037 71.769922 
L 797.342594 80.700287 
L 820.55115 79.798974 
" clip-path="url(#p776b805cf9)" style="fill: none; stroke: #bdc0ff; stroke-width: 1.5; stroke-linecap: square"/>
   </g>
   <g id="line2d_60">
    <path d="M 611.674144 109.404375 
L 634.882701 109.404375 
L 658.091257 109.404375 
L 681.299813 109.404375 
L 704.508369 109.404375 
L 727.716925 109.404375 
L 750.925481 109.404375 
L 774.134037 109.404375 
L 797.342594 109.404375 
L 820.55115 109.404375 
" clip-path="url(#p776b805cf9)" style="fill: none; stroke-dasharray: 5.55,2.4; stroke-dashoffset: 0; stroke: #000000; stroke-width: 1.5"/>
   </g>
   <g id="patch_9">
    <path d="M 601.230294 192.564375 
L 601.230294 26.244375 
" style="fill: none; stroke: #000000; stroke-width: 1.5; stroke-linejoin: miter; stroke-linecap: square"/>
   </g>
   <g id="patch_10">
    <path d="M 601.230294 192.564375 
L 830.995 192.564375 
" style="fill: none; stroke: #000000; stroke-width: 1.5; stroke-linejoin: miter; stroke-linecap: square"/>
   </g>
   <g id="text_57">
    <!-- Congruency -->
    <g transform="translate(667.587178 20.244375) scale(0.18 -0.18)">
     <defs>
      <path id="LiberationSans-43" d="M 2475 3981 
Q 1744 3981 1337 3511 
Q 931 3041 931 2222 
Q 931 1413 1354 920 
Q 1778 428 2500 428 
Q 3425 428 3891 1344 
L 4378 1100 
Q 4106 531 3614 234 
Q 3122 -63 2472 -63 
Q 1806 -63 1320 214 
Q 834 491 579 1005 
Q 325 1519 325 2222 
Q 325 3275 894 3872 
Q 1463 4469 2469 4469 
Q 3172 4469 3644 4194 
Q 4116 3919 4338 3378 
L 3772 3191 
Q 3619 3575 3280 3778 
Q 2941 3981 2475 3981 
z
" transform="scale(0.015625)"/>
      <path id="LiberationSans-6f" d="M 3291 1694 
Q 3291 806 2900 371 
Q 2509 -63 1766 -63 
Q 1025 -63 647 389 
Q 269 841 269 1694 
Q 269 3444 1784 3444 
Q 2559 3444 2925 3017 
Q 3291 2591 3291 1694 
z
M 2700 1694 
Q 2700 2394 2492 2711 
Q 2284 3028 1794 3028 
Q 1300 3028 1079 2704 
Q 859 2381 859 1694 
Q 859 1025 1076 689 
Q 1294 353 1759 353 
Q 2266 353 2483 678 
Q 2700 1003 2700 1694 
z
" transform="scale(0.015625)"/>
      <path id="LiberationSans-6e" d="M 2578 0 
L 2578 2144 
Q 2578 2478 2512 2662 
Q 2447 2847 2303 2928 
Q 2159 3009 1881 3009 
Q 1475 3009 1240 2731 
Q 1006 2453 1006 1959 
L 1006 0 
L 444 0 
L 444 2659 
Q 444 3250 425 3381 
L 956 3381 
Q 959 3366 962 3297 
Q 966 3228 970 3139 
Q 975 3050 981 2803 
L 991 2803 
Q 1184 3153 1439 3298 
Q 1694 3444 2072 3444 
Q 2628 3444 2886 3167 
Q 3144 2891 3144 2253 
L 3144 0 
L 2578 0 
z
" transform="scale(0.015625)"/>
      <path id="LiberationSans-67" d="M 1713 -1328 
Q 1159 -1328 831 -1111 
Q 503 -894 409 -494 
L 975 -413 
Q 1031 -647 1223 -773 
Q 1416 -900 1728 -900 
Q 2569 -900 2569 84 
L 2569 628 
L 2563 628 
Q 2403 303 2125 139 
Q 1847 -25 1475 -25 
Q 853 -25 561 387 
Q 269 800 269 1684 
Q 269 2581 583 3007 
Q 897 3434 1538 3434 
Q 1897 3434 2161 3270 
Q 2425 3106 2569 2803 
L 2575 2803 
Q 2575 2897 2587 3128 
Q 2600 3359 2613 3381 
L 3147 3381 
Q 3128 3213 3128 2681 
L 3128 97 
Q 3128 -1328 1713 -1328 
z
M 2569 1691 
Q 2569 2103 2456 2401 
Q 2344 2700 2139 2858 
Q 1934 3016 1675 3016 
Q 1244 3016 1047 2703 
Q 850 2391 850 1691 
Q 850 997 1034 694 
Q 1219 391 1666 391 
Q 1931 391 2137 547 
Q 2344 703 2456 995 
Q 2569 1288 2569 1691 
z
" transform="scale(0.015625)"/>
     </defs>
     <use xlink:href="#LiberationSans-43"/>
     <use xlink:href="#LiberationSans-6f" x="72.216797"/>
     <use xlink:href="#LiberationSans-6e" x="127.832031"/>
     <use xlink:href="#LiberationSans-67" x="183.447266"/>
     <use xlink:href="#LiberationSans-72" x="239.0625"/>
     <use xlink:href="#LiberationSans-75" x="272.363281"/>
     <use xlink:href="#LiberationSans-65" x="327.978516"/>
     <use xlink:href="#LiberationSans-6e" x="383.59375"/>
     <use xlink:href="#LiberationSans-63" x="439.208984"/>
     <use xlink:href="#LiberationSans-79" x="489.208984"/>
    </g>
   </g>
   <g id="legend_1">
    <g id="patch_11">
     <path d="M 609.630294 186.564375 
L 752.711544 186.564375 
Q 755.111544 186.564375 755.111544 184.164375 
L 755.111544 116.619375 
Q 755.111544 114.219375 752.711544 114.219375 
L 609.630294 114.219375 
Q 607.230294 114.219375 607.230294 116.619375 
L 607.230294 184.164375 
Q 607.230294 186.564375 609.630294 186.564375 
z
" style="fill: #ffffff; opacity: 0.8; stroke: #cccccc; stroke-linejoin: miter"/>
    </g>
    <g id="line2d_61">
     <path d="M 612.030294 123.515625 
L 624.030294 123.515625 
L 636.030294 123.515625 
" style="fill: none; stroke: #fbc5f4; stroke-width: 1.5; stroke-linecap: square"/>
    </g>
    <g id="text_58">
     <!-- Sequential -->
     <g transform="translate(645.630294 127.715625) scale(0.12 -0.12)">
      <defs>
       <path id="LiberationSans-53" d="M 3975 1216 
Q 3975 606 3498 271 
Q 3022 -63 2156 -63 
Q 547 -63 291 1056 
L 869 1172 
Q 969 775 1294 589 
Q 1619 403 2178 403 
Q 2756 403 3070 601 
Q 3384 800 3384 1184 
Q 3384 1400 3286 1534 
Q 3188 1669 3009 1756 
Q 2831 1844 2584 1903 
Q 2338 1963 2038 2031 
Q 1516 2147 1245 2262 
Q 975 2378 819 2520 
Q 663 2663 580 2853 
Q 497 3044 497 3291 
Q 497 3856 930 4162 
Q 1363 4469 2169 4469 
Q 2919 4469 3316 4239 
Q 3713 4009 3872 3456 
L 3284 3353 
Q 3188 3703 2916 3861 
Q 2644 4019 2163 4019 
Q 1634 4019 1356 3844 
Q 1078 3669 1078 3322 
Q 1078 3119 1186 2986 
Q 1294 2853 1497 2761 
Q 1700 2669 2306 2534 
Q 2509 2488 2711 2439 
Q 2913 2391 3097 2323 
Q 3281 2256 3442 2165 
Q 3603 2075 3722 1944 
Q 3841 1813 3908 1634 
Q 3975 1456 3975 1216 
z
" transform="scale(0.015625)"/>
       <path id="LiberationSans-71" d="M 1513 -63 
Q 869 -63 569 371 
Q 269 806 269 1675 
Q 269 3444 1513 3444 
Q 1897 3444 2147 3308 
Q 2397 3172 2566 2856 
L 2572 2856 
Q 2572 2950 2584 3179 
Q 2597 3409 2609 3425 
L 3150 3425 
Q 3128 3241 3128 2503 
L 3128 -1328 
L 2566 -1328 
L 2566 44 
L 2578 556 
L 2572 556 
Q 2403 222 2156 79 
Q 1909 -63 1513 -63 
z
M 2566 1731 
Q 2566 2391 2350 2709 
Q 2134 3028 1663 3028 
Q 1234 3028 1046 2709 
Q 859 2391 859 1694 
Q 859 984 1048 678 
Q 1238 372 1656 372 
Q 2134 372 2350 712 
Q 2566 1053 2566 1731 
z
" transform="scale(0.015625)"/>
       <path id="LiberationSans-69" d="M 428 4100 
L 428 4638 
L 991 4638 
L 991 4100 
L 428 4100 
z
M 428 0 
L 428 3381 
L 991 3381 
L 991 0 
L 428 0 
z
" transform="scale(0.015625)"/>
       <path id="LiberationSans-6c" d="M 431 0 
L 431 4638 
L 994 4638 
L 994 0 
L 431 0 
z
" transform="scale(0.015625)"/>
      </defs>
      <use xlink:href="#LiberationSans-53"/>
      <use xlink:href="#LiberationSans-65" x="66.699219"/>
      <use xlink:href="#LiberationSans-71" x="122.314453"/>
      <use xlink:href="#LiberationSans-75" x="177.929688"/>
      <use xlink:href="#LiberationSans-65" x="233.544922"/>
      <use xlink:href="#LiberationSans-6e" x="289.160156"/>
      <use xlink:href="#LiberationSans-74" x="344.775391"/>
      <use xlink:href="#LiberationSans-69" x="372.558594"/>
      <use xlink:href="#LiberationSans-61" x="394.775391"/>
      <use xlink:href="#LiberationSans-6c" x="450.390625"/>
     </g>
    </g>
    <g id="line2d_62">
     <path d="M 612.030294 140.701875 
L 624.030294 140.701875 
L 636.030294 140.701875 
" style="fill: none; stroke: #ffb7bc; stroke-width: 1.5; stroke-linecap: square"/>
    </g>
    <g id="text_59">
     <!-- Parallel -->
     <g transform="translate(645.630294 144.901875) scale(0.12 -0.12)">
      <defs>
       <path id="LiberationSans-50" d="M 3931 3078 
Q 3931 2453 3523 2084 
Q 3116 1716 2416 1716 
L 1122 1716 
L 1122 0 
L 525 0 
L 525 4403 
L 2378 4403 
Q 3119 4403 3525 4056 
Q 3931 3709 3931 3078 
z
M 3331 3072 
Q 3331 3925 2306 3925 
L 1122 3925 
L 1122 2188 
L 2331 2188 
Q 3331 2188 3331 3072 
z
" transform="scale(0.015625)"/>
      </defs>
      <use xlink:href="#LiberationSans-50"/>
      <use xlink:href="#LiberationSans-61" x="66.699219"/>
      <use xlink:href="#LiberationSans-72" x="122.314453"/>
      <use xlink:href="#LiberationSans-61" x="155.615234"/>
      <use xlink:href="#LiberationSans-6c" x="211.230469"/>
      <use xlink:href="#LiberationSans-6c" x="233.447266"/>
      <use xlink:href="#LiberationSans-65" x="255.664062"/>
      <use xlink:href="#LiberationSans-6c" x="311.279297"/>
     </g>
    </g>
    <g id="line2d_63">
     <path d="M 612.030294 157.888125 
L 624.030294 157.888125 
L 636.030294 157.888125 
" style="fill: none; stroke: #bdc0ff; stroke-width: 1.5; stroke-linecap: square"/>
    </g>
    <g id="text_60">
     <!-- Task-Switching (All) -->
     <g transform="translate(645.630294 162.088125) scale(0.12 -0.12)">
      <defs>
       <path id="LiberationSans-2d" d="M 284 1450 
L 284 1950 
L 1847 1950 
L 1847 1450 
L 284 1450 
z
" transform="scale(0.015625)"/>
       <path id="LiberationSans-77" d="M 3669 0 
L 3016 0 
L 2425 2391 
L 2313 2919 
Q 2284 2778 2225 2514 
Q 2166 2250 1588 0 
L 938 0 
L -9 3381 
L 547 3381 
L 1119 1084 
Q 1141 1009 1253 466 
L 1306 697 
L 2013 3381 
L 2616 3381 
L 3206 1059 
L 3350 466 
L 3447 900 
L 4088 3381 
L 4638 3381 
L 3669 0 
z
" transform="scale(0.015625)"/>
       <path id="LiberationSans-68" d="M 991 2803 
Q 1172 3134 1426 3289 
Q 1681 3444 2072 3444 
Q 2622 3444 2883 3170 
Q 3144 2897 3144 2253 
L 3144 0 
L 2578 0 
L 2578 2144 
Q 2578 2500 2512 2673 
Q 2447 2847 2297 2928 
Q 2147 3009 1881 3009 
Q 1484 3009 1245 2734 
Q 1006 2459 1006 1994 
L 1006 0 
L 444 0 
L 444 4638 
L 1006 4638 
L 1006 3431 
Q 1006 3241 995 3037 
Q 984 2834 981 2803 
L 991 2803 
z
" transform="scale(0.015625)"/>
       <path id="LiberationSans-20" transform="scale(0.015625)"/>
       <path id="LiberationSans-28" d="M 397 1663 
Q 397 2566 680 3284 
Q 963 4003 1550 4638 
L 2094 4638 
Q 1509 3988 1236 3256 
Q 963 2525 963 1656 
Q 963 791 1233 62 
Q 1503 -666 2094 -1325 
L 1550 -1325 
Q 959 -688 678 32 
Q 397 753 397 1650 
L 397 1663 
z
" transform="scale(0.015625)"/>
       <path id="LiberationSans-29" d="M 1734 1650 
Q 1734 747 1451 28 
Q 1169 -691 581 -1325 
L 38 -1325 
Q 625 -669 897 57 
Q 1169 784 1169 1656 
Q 1169 2528 895 3256 
Q 622 3984 38 4638 
L 581 4638 
Q 1172 4000 1453 3279 
Q 1734 2559 1734 1663 
L 1734 1650 
z
" transform="scale(0.015625)"/>
      </defs>
      <use xlink:href="#LiberationSans-54"/>
      <use xlink:href="#LiberationSans-61" x="49.958984"/>
      <use xlink:href="#LiberationSans-73" x="105.574219"/>
      <use xlink:href="#LiberationSans-6b" x="155.574219"/>
      <use xlink:href="#LiberationSans-2d" x="205.574219"/>
      <use xlink:href="#LiberationSans-53" x="238.875"/>
      <use xlink:href="#LiberationSans-77" x="305.574219"/>
      <use xlink:href="#LiberationSans-69" x="377.791016"/>
      <use xlink:href="#LiberationSans-74" x="400.007812"/>
      <use xlink:href="#LiberationSans-63" x="427.791016"/>
      <use xlink:href="#LiberationSans-68" x="477.791016"/>
      <use xlink:href="#LiberationSans-69" x="533.40625"/>
      <use xlink:href="#LiberationSans-6e" x="555.623047"/>
      <use xlink:href="#LiberationSans-67" x="611.238281"/>
      <use xlink:href="#LiberationSans-20" x="666.853516"/>
      <use xlink:href="#LiberationSans-28" x="694.636719"/>
      <use xlink:href="#LiberationSans-41" x="727.9375"/>
      <use xlink:href="#LiberationSans-6c" x="794.636719"/>
      <use xlink:href="#LiberationSans-6c" x="816.853516"/>
      <use xlink:href="#LiberationSans-29" x="839.070312"/>
     </g>
    </g>
    <g id="line2d_64">
     <path d="M 612.030294 175.074375 
L 624.030294 175.074375 
L 636.030294 175.074375 
" style="fill: none; stroke-dasharray: 5.55,2.4; stroke-dashoffset: 0; stroke: #000000; stroke-width: 1.5"/>
    </g>
    <g id="text_61">
     <!-- Random -->
     <g transform="translate(645.630294 179.274375) scale(0.12 -0.12)">
      <defs>
       <path id="LiberationSans-52" d="M 3638 0 
L 2494 1828 
L 1122 1828 
L 1122 0 
L 525 0 
L 525 4403 
L 2597 4403 
Q 3341 4403 3745 4070 
Q 4150 3738 4150 3144 
Q 4150 2653 3864 2318 
Q 3578 1984 3075 1897 
L 4325 0 
L 3638 0 
z
M 3550 3138 
Q 3550 3522 3289 3723 
Q 3028 3925 2538 3925 
L 1122 3925 
L 1122 2300 
L 2563 2300 
Q 3034 2300 3292 2520 
Q 3550 2741 3550 3138 
z
" transform="scale(0.015625)"/>
       <path id="LiberationSans-64" d="M 2566 544 
Q 2409 219 2151 78 
Q 1894 -63 1513 -63 
Q 872 -63 570 368 
Q 269 800 269 1675 
Q 269 3444 1513 3444 
Q 1897 3444 2153 3303 
Q 2409 3163 2566 2856 
L 2572 2856 
L 2566 3234 
L 2566 4638 
L 3128 4638 
L 3128 697 
Q 3128 169 3147 0 
L 2609 0 
Q 2600 50 2589 231 
Q 2578 413 2578 544 
L 2566 544 
z
M 859 1694 
Q 859 984 1046 678 
Q 1234 372 1656 372 
Q 2134 372 2350 703 
Q 2566 1034 2566 1731 
Q 2566 2403 2350 2715 
Q 2134 3028 1663 3028 
Q 1238 3028 1048 2714 
Q 859 2400 859 1694 
z
" transform="scale(0.015625)"/>
       <path id="LiberationSans-6d" d="M 2400 0 
L 2400 2144 
Q 2400 2634 2265 2821 
Q 2131 3009 1781 3009 
Q 1422 3009 1212 2734 
Q 1003 2459 1003 1959 
L 1003 0 
L 444 0 
L 444 2659 
Q 444 3250 425 3381 
L 956 3381 
Q 959 3366 962 3297 
Q 966 3228 970 3139 
Q 975 3050 981 2803 
L 991 2803 
Q 1172 3163 1406 3303 
Q 1641 3444 1978 3444 
Q 2363 3444 2586 3291 
Q 2809 3138 2897 2803 
L 2906 2803 
Q 3081 3144 3329 3294 
Q 3578 3444 3931 3444 
Q 4444 3444 4676 3166 
Q 4909 2888 4909 2253 
L 4909 0 
L 4353 0 
L 4353 2144 
Q 4353 2634 4218 2821 
Q 4084 3009 3734 3009 
Q 3366 3009 3161 2736 
Q 2956 2463 2956 1959 
L 2956 0 
L 2400 0 
z
" transform="scale(0.015625)"/>
      </defs>
      <use xlink:href="#LiberationSans-52"/>
      <use xlink:href="#LiberationSans-61" x="72.216797"/>
      <use xlink:href="#LiberationSans-6e" x="127.832031"/>
      <use xlink:href="#LiberationSans-64" x="183.447266"/>
      <use xlink:href="#LiberationSans-6f" x="239.0625"/>
      <use xlink:href="#LiberationSans-6d" x="294.677734"/>
     </g>
    </g>
   </g>
  </g>
 </g>
 <defs>
  <clipPath id="p177476f811">
   <rect x="49.795" y="26.244375" width="229.764706" height="166.32"/>
  </clipPath>
  <clipPath id="p1b9ed61f5f">
   <rect x="325.512647" y="26.244375" width="229.764706" height="166.32"/>
  </clipPath>
  <clipPath id="p776b805cf9">
   <rect x="601.230294" y="26.244375" width="229.764706" height="166.32"/>
  </clipPath>
 </defs>
</svg>
