<?xml version="1.0" encoding="utf-8" standalone="no"?>
<!DOCTYPE svg PUBLIC "-//W3C//DTD SVG 1.1//EN"
  "http://www.w3.org/Graphics/SVG/1.1/DTD/svg11.dtd">
<svg xmlns:xlink="http://www.w3.org/1999/xlink" width="864pt" height="288pt" viewBox="0 0 864 288" xmlns="http://www.w3.org/2000/svg" version="1.1">
 <metadata>
  <rdf:RDF xmlns:dc="http://purl.org/dc/elements/1.1/" xmlns:cc="http://creativecommons.org/ns#" xmlns:rdf="http://www.w3.org/1999/02/22-rdf-syntax-ns#">
   <cc:Work>
    <dc:type rdf:resource="http://purl.org/dc/dcmitype/StillImage"/>
    <dc:date>2024-01-23T16:17:30.947152</dc:date>
    <dc:format>image/svg+xml</dc:format>
    <dc:creator>
     <cc:Agent>
      <dc:title>Matplotlib v3.7.4, https://matplotlib.org/</dc:title>
     </cc:Agent>
    </dc:creator>
   </cc:Work>
  </rdf:RDF>
 </metadata>
 <defs>
  <style type="text/css">*{stroke-linejoin: round; stroke-linecap: butt}</style>
 </defs>
 <g id="figure_1">
  <g id="patch_1">
   <path d="M 0 288 
L 864 288 
L 864 0 
L 0 0 
z
" style="fill: #ffffff"/>
  </g>
  <g id="axes_1">
   <g id="patch_2">
    <path d="M 64.28 238.84 
L 426.555 238.84 
L 426.555 23.16 
L 64.28 23.16 
z
" style="fill: #ffffff"/>
   </g>
   <g id="matplotlib.axis_1">
    <g id="xtick_1">
     <g id="line2d_1">
      <path d="M 80.747045 238.84 
L 80.747045 23.16 
" clip-path="url(#p92e348b10a)" style="fill: none; stroke: #b0b0b0; stroke-opacity: 0.2; stroke-width: 0.8; stroke-linecap: square"/>
     </g>
     <g id="line2d_2">
      <defs>
       <path id="m601a79fcf2" d="M 0 0 
L 0 3.5 
" style="stroke: #000000; stroke-width: 1.5"/>
      </defs>
      <g>
       <use xlink:href="#m601a79fcf2" x="80.747045" y="238.84" style="stroke: #000000; stroke-width: 1.5"/>
      </g>
     </g>
     <g id="text_1">
      <!-- 1 -->
      <g transform="translate(76.854389 255.985625) scale(0.14 -0.14)">
       <defs>
        <path id="LiberationSans-31" d="M 488 0 
L 488 478 
L 1609 478 
L 1609 3866 
L 616 3156 
L 616 3688 
L 1656 4403 
L 2175 4403 
L 2175 478 
L 3247 478 
L 3247 0 
L 488 0 
z
" transform="scale(0.015625)"/>
       </defs>
       <use xlink:href="#LiberationSans-31"/>
      </g>
     </g>
    </g>
    <g id="xtick_2">
     <g id="line2d_3">
      <path d="M 117.34048 238.84 
L 117.34048 23.16 
" clip-path="url(#p92e348b10a)" style="fill: none; stroke: #b0b0b0; stroke-opacity: 0.2; stroke-width: 0.8; stroke-linecap: square"/>
     </g>
     <g id="line2d_4">
      <g>
       <use xlink:href="#m601a79fcf2" x="117.34048" y="238.84" style="stroke: #000000; stroke-width: 1.5"/>
      </g>
     </g>
     <g id="text_2">
      <!-- 2 -->
      <g transform="translate(113.447824 255.985625) scale(0.14 -0.14)">
       <defs>
        <path id="LiberationSans-32" d="M 322 0 
L 322 397 
Q 481 763 711 1042 
Q 941 1322 1194 1548 
Q 1447 1775 1695 1969 
Q 1944 2163 2144 2356 
Q 2344 2550 2467 2762 
Q 2591 2975 2591 3244 
Q 2591 3606 2378 3806 
Q 2166 4006 1788 4006 
Q 1428 4006 1195 3811 
Q 963 3616 922 3263 
L 347 3316 
Q 409 3844 795 4156 
Q 1181 4469 1788 4469 
Q 2453 4469 2811 4155 
Q 3169 3841 3169 3263 
Q 3169 3006 3051 2753 
Q 2934 2500 2703 2247 
Q 2472 1994 1819 1463 
Q 1459 1169 1246 933 
Q 1034 697 941 478 
L 3238 478 
L 3238 0 
L 322 0 
z
" transform="scale(0.015625)"/>
       </defs>
       <use xlink:href="#LiberationSans-32"/>
      </g>
     </g>
    </g>
    <g id="xtick_3">
     <g id="line2d_5">
      <path d="M 153.933914 238.84 
L 153.933914 23.16 
" clip-path="url(#p92e348b10a)" style="fill: none; stroke: #b0b0b0; stroke-opacity: 0.2; stroke-width: 0.8; stroke-linecap: square"/>
     </g>
     <g id="line2d_6">
      <g>
       <use xlink:href="#m601a79fcf2" x="153.933914" y="238.84" style="stroke: #000000; stroke-width: 1.5"/>
      </g>
     </g>
     <g id="text_3">
      <!-- 3 -->
      <g transform="translate(150.041258 255.985625) scale(0.14 -0.14)">
       <defs>
        <path id="LiberationSans-33" d="M 3278 1216 
Q 3278 606 2890 271 
Q 2503 -63 1784 -63 
Q 1116 -63 717 239 
Q 319 541 244 1131 
L 825 1184 
Q 938 403 1784 403 
Q 2209 403 2451 612 
Q 2694 822 2694 1234 
Q 2694 1594 2417 1795 
Q 2141 1997 1619 1997 
L 1300 1997 
L 1300 2484 
L 1606 2484 
Q 2069 2484 2323 2686 
Q 2578 2888 2578 3244 
Q 2578 3597 2370 3801 
Q 2163 4006 1753 4006 
Q 1381 4006 1151 3815 
Q 922 3625 884 3278 
L 319 3322 
Q 381 3863 767 4166 
Q 1153 4469 1759 4469 
Q 2422 4469 2789 4161 
Q 3156 3853 3156 3303 
Q 3156 2881 2920 2617 
Q 2684 2353 2234 2259 
L 2234 2247 
Q 2728 2194 3003 1916 
Q 3278 1638 3278 1216 
z
" transform="scale(0.015625)"/>
       </defs>
       <use xlink:href="#LiberationSans-33"/>
      </g>
     </g>
    </g>
    <g id="xtick_4">
     <g id="line2d_7">
      <path d="M 190.527348 238.84 
L 190.527348 23.16 
" clip-path="url(#p92e348b10a)" style="fill: none; stroke: #b0b0b0; stroke-opacity: 0.2; stroke-width: 0.8; stroke-linecap: square"/>
     </g>
     <g id="line2d_8">
      <g>
       <use xlink:href="#m601a79fcf2" x="190.527348" y="238.84" style="stroke: #000000; stroke-width: 1.5"/>
      </g>
     </g>
     <g id="text_4">
      <!-- 4 -->
      <g transform="translate(186.634692 255.985625) scale(0.14 -0.14)">
       <defs>
        <path id="LiberationSans-34" d="M 2753 997 
L 2753 0 
L 2222 0 
L 2222 997 
L 147 997 
L 147 1434 
L 2163 4403 
L 2753 4403 
L 2753 1441 
L 3372 1441 
L 3372 997 
L 2753 997 
z
M 2222 3769 
Q 2216 3750 2134 3603 
Q 2053 3456 2013 3397 
L 884 1734 
L 716 1503 
L 666 1441 
L 2222 1441 
L 2222 3769 
z
" transform="scale(0.015625)"/>
       </defs>
       <use xlink:href="#LiberationSans-34"/>
      </g>
     </g>
    </g>
    <g id="xtick_5">
     <g id="line2d_9">
      <path d="M 227.120783 238.84 
L 227.120783 23.16 
" clip-path="url(#p92e348b10a)" style="fill: none; stroke: #b0b0b0; stroke-opacity: 0.2; stroke-width: 0.8; stroke-linecap: square"/>
     </g>
     <g id="line2d_10">
      <g>
       <use xlink:href="#m601a79fcf2" x="227.120783" y="238.84" style="stroke: #000000; stroke-width: 1.5"/>
      </g>
     </g>
     <g id="text_5">
      <!-- 5 -->
      <g transform="translate(223.228127 255.985625) scale(0.14 -0.14)">
       <defs>
        <path id="LiberationSans-35" d="M 3291 1434 
Q 3291 738 2877 337 
Q 2463 -63 1728 -63 
Q 1113 -63 734 206 
Q 356 475 256 984 
L 825 1050 
Q 1003 397 1741 397 
Q 2194 397 2450 670 
Q 2706 944 2706 1422 
Q 2706 1838 2448 2094 
Q 2191 2350 1753 2350 
Q 1525 2350 1328 2278 
Q 1131 2206 934 2034 
L 384 2034 
L 531 4403 
L 3034 4403 
L 3034 3925 
L 1044 3925 
L 959 2528 
Q 1325 2809 1869 2809 
Q 2519 2809 2905 2428 
Q 3291 2047 3291 1434 
z
" transform="scale(0.015625)"/>
       </defs>
       <use xlink:href="#LiberationSans-35"/>
      </g>
     </g>
    </g>
    <g id="xtick_6">
     <g id="line2d_11">
      <path d="M 263.714217 238.84 
L 263.714217 23.16 
" clip-path="url(#p92e348b10a)" style="fill: none; stroke: #b0b0b0; stroke-opacity: 0.2; stroke-width: 0.8; stroke-linecap: square"/>
     </g>
     <g id="line2d_12">
      <g>
       <use xlink:href="#m601a79fcf2" x="263.714217" y="238.84" style="stroke: #000000; stroke-width: 1.5"/>
      </g>
     </g>
     <g id="text_6">
      <!-- 6 -->
      <g transform="translate(259.821561 255.985625) scale(0.14 -0.14)">
       <defs>
        <path id="LiberationSans-36" d="M 3278 1441 
Q 3278 744 2900 340 
Q 2522 -63 1856 -63 
Q 1113 -63 719 490 
Q 325 1044 325 2100 
Q 325 3244 734 3856 
Q 1144 4469 1900 4469 
Q 2897 4469 3156 3572 
L 2619 3475 
Q 2453 4013 1894 4013 
Q 1413 4013 1148 3564 
Q 884 3116 884 2266 
Q 1038 2550 1316 2698 
Q 1594 2847 1953 2847 
Q 2563 2847 2920 2465 
Q 3278 2084 3278 1441 
z
M 2706 1416 
Q 2706 1894 2472 2153 
Q 2238 2413 1819 2413 
Q 1425 2413 1183 2183 
Q 941 1953 941 1550 
Q 941 1041 1192 716 
Q 1444 391 1838 391 
Q 2244 391 2475 664 
Q 2706 938 2706 1416 
z
" transform="scale(0.015625)"/>
       </defs>
       <use xlink:href="#LiberationSans-36"/>
      </g>
     </g>
    </g>
    <g id="xtick_7">
     <g id="line2d_13">
      <path d="M 300.307652 238.84 
L 300.307652 23.16 
" clip-path="url(#p92e348b10a)" style="fill: none; stroke: #b0b0b0; stroke-opacity: 0.2; stroke-width: 0.8; stroke-linecap: square"/>
     </g>
     <g id="line2d_14">
      <g>
       <use xlink:href="#m601a79fcf2" x="300.307652" y="238.84" style="stroke: #000000; stroke-width: 1.5"/>
      </g>
     </g>
     <g id="text_7">
      <!-- 7 -->
      <g transform="translate(296.414995 255.985625) scale(0.14 -0.14)">
       <defs>
        <path id="LiberationSans-37" d="M 3238 3947 
Q 2563 2916 2284 2331 
Q 2006 1747 1867 1178 
Q 1728 609 1728 0 
L 1141 0 
Q 1141 844 1498 1776 
Q 1856 2709 2694 3925 
L 328 3925 
L 328 4403 
L 3238 4403 
L 3238 3947 
z
" transform="scale(0.015625)"/>
       </defs>
       <use xlink:href="#LiberationSans-37"/>
      </g>
     </g>
    </g>
    <g id="xtick_8">
     <g id="line2d_15">
      <path d="M 336.901086 238.84 
L 336.901086 23.16 
" clip-path="url(#p92e348b10a)" style="fill: none; stroke: #b0b0b0; stroke-opacity: 0.2; stroke-width: 0.8; stroke-linecap: square"/>
     </g>
     <g id="line2d_16">
      <g>
       <use xlink:href="#m601a79fcf2" x="336.901086" y="238.84" style="stroke: #000000; stroke-width: 1.5"/>
      </g>
     </g>
     <g id="text_8">
      <!-- 8 -->
      <g transform="translate(333.00843 255.985625) scale(0.14 -0.14)">
       <defs>
        <path id="LiberationSans-38" d="M 3281 1228 
Q 3281 619 2893 278 
Q 2506 -63 1781 -63 
Q 1075 -63 676 271 
Q 278 606 278 1222 
Q 278 1653 525 1947 
Q 772 2241 1156 2303 
L 1156 2316 
Q 797 2400 589 2681 
Q 381 2963 381 3341 
Q 381 3844 757 4156 
Q 1134 4469 1769 4469 
Q 2419 4469 2795 4162 
Q 3172 3856 3172 3334 
Q 3172 2956 2962 2675 
Q 2753 2394 2391 2322 
L 2391 2309 
Q 2813 2241 3047 1952 
Q 3281 1663 3281 1228 
z
M 2588 3303 
Q 2588 4050 1769 4050 
Q 1372 4050 1164 3862 
Q 956 3675 956 3303 
Q 956 2925 1170 2726 
Q 1384 2528 1775 2528 
Q 2172 2528 2380 2711 
Q 2588 2894 2588 3303 
z
M 2697 1281 
Q 2697 1691 2453 1898 
Q 2209 2106 1769 2106 
Q 1341 2106 1100 1882 
Q 859 1659 859 1269 
Q 859 359 1788 359 
Q 2247 359 2472 579 
Q 2697 800 2697 1281 
z
" transform="scale(0.015625)"/>
       </defs>
       <use xlink:href="#LiberationSans-38"/>
      </g>
     </g>
    </g>
    <g id="xtick_9">
     <g id="line2d_17">
      <path d="M 373.49452 238.84 
L 373.49452 23.16 
" clip-path="url(#p92e348b10a)" style="fill: none; stroke: #b0b0b0; stroke-opacity: 0.2; stroke-width: 0.8; stroke-linecap: square"/>
     </g>
     <g id="line2d_18">
      <g>
       <use xlink:href="#m601a79fcf2" x="373.49452" y="238.84" style="stroke: #000000; stroke-width: 1.5"/>
      </g>
     </g>
     <g id="text_9">
      <!-- 9 -->
      <g transform="translate(369.601864 255.985625) scale(0.14 -0.14)">
       <defs>
        <path id="LiberationSans-39" d="M 3256 2291 
Q 3256 1156 2842 546 
Q 2428 -63 1663 -63 
Q 1147 -63 836 154 
Q 525 372 391 856 
L 928 941 
Q 1097 391 1672 391 
Q 2156 391 2422 841 
Q 2688 1291 2700 2125 
Q 2575 1844 2272 1673 
Q 1969 1503 1606 1503 
Q 1013 1503 656 1909 
Q 300 2316 300 2988 
Q 300 3678 687 4073 
Q 1075 4469 1766 4469 
Q 2500 4469 2878 3925 
Q 3256 3381 3256 2291 
z
M 2644 2834 
Q 2644 3366 2400 3689 
Q 2156 4013 1747 4013 
Q 1341 4013 1106 3736 
Q 872 3459 872 2988 
Q 872 2506 1106 2226 
Q 1341 1947 1741 1947 
Q 1984 1947 2193 2058 
Q 2403 2169 2523 2372 
Q 2644 2575 2644 2834 
z
" transform="scale(0.015625)"/>
       </defs>
       <use xlink:href="#LiberationSans-39"/>
      </g>
     </g>
    </g>
    <g id="xtick_10">
     <g id="line2d_19">
      <path d="M 410.087955 238.84 
L 410.087955 23.16 
" clip-path="url(#p92e348b10a)" style="fill: none; stroke: #b0b0b0; stroke-opacity: 0.2; stroke-width: 0.8; stroke-linecap: square"/>
     </g>
     <g id="line2d_20">
      <g>
       <use xlink:href="#m601a79fcf2" x="410.087955" y="238.84" style="stroke: #000000; stroke-width: 1.5"/>
      </g>
     </g>
     <g id="text_10">
      <!-- 10 -->
      <g transform="translate(402.302642 255.985625) scale(0.14 -0.14)">
       <defs>
        <path id="LiberationSans-30" d="M 3309 2203 
Q 3309 1100 2920 518 
Q 2531 -63 1772 -63 
Q 1013 -63 631 515 
Q 250 1094 250 2203 
Q 250 3338 620 3903 
Q 991 4469 1791 4469 
Q 2569 4469 2939 3897 
Q 3309 3325 3309 2203 
z
M 2738 2203 
Q 2738 3156 2517 3584 
Q 2297 4013 1791 4013 
Q 1272 4013 1045 3591 
Q 819 3169 819 2203 
Q 819 1266 1048 831 
Q 1278 397 1778 397 
Q 2275 397 2506 840 
Q 2738 1284 2738 2203 
z
" transform="scale(0.015625)"/>
       </defs>
       <use xlink:href="#LiberationSans-31"/>
       <use xlink:href="#LiberationSans-30" x="55.615234"/>
      </g>
     </g>
    </g>
    <g id="text_11">
     <!-- # Tasks -->
     <g transform="translate(218.44125 274.485625) scale(0.16 -0.16)">
      <defs>
       <path id="LiberationSans-23" d="M 2800 2766 
L 2556 1613 
L 3369 1613 
L 3369 1275 
L 2484 1275 
L 2209 0 
L 1866 0 
L 2134 1275 
L 1000 1275 
L 738 0 
L 394 0 
L 656 1275 
L 28 1275 
L 28 1613 
L 731 1613 
L 975 2766 
L 188 2766 
L 188 3103 
L 1044 3103 
L 1322 4378 
L 1666 4378 
L 1391 3103 
L 2525 3103 
L 2800 4378 
L 3144 4378 
L 2869 3103 
L 3528 3103 
L 3528 2766 
L 2800 2766 
z
M 1328 2766 
L 1078 1613 
L 2209 1613 
L 2453 2766 
L 1328 2766 
z
" transform="scale(0.015625)"/>
       <path id="LiberationSans-20" transform="scale(0.015625)"/>
       <path id="LiberationSans-54" d="M 2250 3916 
L 2250 0 
L 1656 0 
L 1656 3916 
L 144 3916 
L 144 4403 
L 3763 4403 
L 3763 3916 
L 2250 3916 
z
" transform="scale(0.015625)"/>
       <path id="LiberationSans-61" d="M 1294 -63 
Q 784 -63 528 206 
Q 272 475 272 944 
Q 272 1469 617 1750 
Q 963 2031 1731 2050 
L 2491 2063 
L 2491 2247 
Q 2491 2659 2316 2837 
Q 2141 3016 1766 3016 
Q 1388 3016 1216 2887 
Q 1044 2759 1009 2478 
L 422 2531 
Q 566 3444 1778 3444 
Q 2416 3444 2737 3151 
Q 3059 2859 3059 2306 
L 3059 850 
Q 3059 600 3125 473 
Q 3191 347 3375 347 
Q 3456 347 3559 369 
L 3559 19 
Q 3347 -31 3125 -31 
Q 2813 -31 2670 133 
Q 2528 297 2509 647 
L 2491 647 
Q 2275 259 1989 98 
Q 1703 -63 1294 -63 
z
M 1422 359 
Q 1731 359 1972 500 
Q 2213 641 2352 886 
Q 2491 1131 2491 1391 
L 2491 1669 
L 1875 1656 
Q 1478 1650 1273 1575 
Q 1069 1500 959 1344 
Q 850 1188 850 934 
Q 850 659 998 509 
Q 1147 359 1422 359 
z
" transform="scale(0.015625)"/>
       <path id="LiberationSans-73" d="M 2969 934 
Q 2969 456 2608 196 
Q 2247 -63 1597 -63 
Q 966 -63 623 145 
Q 281 353 178 794 
L 675 891 
Q 747 619 972 492 
Q 1197 366 1597 366 
Q 2025 366 2223 497 
Q 2422 628 2422 891 
Q 2422 1091 2284 1216 
Q 2147 1341 1841 1422 
L 1438 1528 
Q 953 1653 748 1773 
Q 544 1894 428 2066 
Q 313 2238 313 2488 
Q 313 2950 642 3192 
Q 972 3434 1603 3434 
Q 2163 3434 2492 3237 
Q 2822 3041 2909 2606 
L 2403 2544 
Q 2356 2769 2151 2889 
Q 1947 3009 1603 3009 
Q 1222 3009 1040 2893 
Q 859 2778 859 2544 
Q 859 2400 934 2306 
Q 1009 2213 1156 2147 
Q 1303 2081 1775 1966 
Q 2222 1853 2419 1758 
Q 2616 1663 2730 1547 
Q 2844 1431 2906 1279 
Q 2969 1128 2969 934 
z
" transform="scale(0.015625)"/>
       <path id="LiberationSans-6b" d="M 2550 0 
L 1406 1544 
L 994 1203 
L 994 0 
L 431 0 
L 431 4638 
L 994 4638 
L 994 1741 
L 2478 3381 
L 3138 3381 
L 1766 1928 
L 3209 0 
L 2550 0 
z
" transform="scale(0.015625)"/>
      </defs>
      <use xlink:href="#LiberationSans-23"/>
      <use xlink:href="#LiberationSans-20" x="55.615234"/>
      <use xlink:href="#LiberationSans-54" x="81.648438"/>
      <use xlink:href="#LiberationSans-61" x="131.607422"/>
      <use xlink:href="#LiberationSans-73" x="187.222656"/>
      <use xlink:href="#LiberationSans-6b" x="237.222656"/>
      <use xlink:href="#LiberationSans-73" x="287.222656"/>
     </g>
    </g>
   </g>
   <g id="matplotlib.axis_2">
    <g id="ytick_1">
     <g id="line2d_21">
      <path d="M 64.28 218.708769 
L 426.555 218.708769 
" clip-path="url(#p92e348b10a)" style="fill: none; stroke: #b0b0b0; stroke-opacity: 0.2; stroke-width: 0.8; stroke-linecap: square"/>
     </g>
     <g id="line2d_22">
      <defs>
       <path id="m2d5334bf94" d="M 0 0 
L -3.5 0 
" style="stroke: #000000; stroke-width: 0.8"/>
      </defs>
      <g>
       <use xlink:href="#m2d5334bf94" x="64.28" y="218.708769" style="stroke: #000000; stroke-width: 0.8"/>
      </g>
     </g>
     <g id="text_12">
      <!-- 0.25 -->
      <g transform="translate(30.034687 223.781581) scale(0.14 -0.14)">
       <defs>
        <path id="LiberationSans-2e" d="M 584 0 
L 584 684 
L 1194 684 
L 1194 0 
L 584 0 
z
" transform="scale(0.015625)"/>
       </defs>
       <use xlink:href="#LiberationSans-30"/>
       <use xlink:href="#LiberationSans-2e" x="55.615234"/>
       <use xlink:href="#LiberationSans-32" x="83.398438"/>
       <use xlink:href="#LiberationSans-35" x="139.013672"/>
      </g>
     </g>
    </g>
    <g id="ytick_2">
     <g id="line2d_23">
      <path d="M 64.28 186.595601 
L 426.555 186.595601 
" clip-path="url(#p92e348b10a)" style="fill: none; stroke: #b0b0b0; stroke-opacity: 0.2; stroke-width: 0.8; stroke-linecap: square"/>
     </g>
     <g id="line2d_24">
      <g>
       <use xlink:href="#m2d5334bf94" x="64.28" y="186.595601" style="stroke: #000000; stroke-width: 0.8"/>
      </g>
     </g>
     <g id="text_13">
      <!-- 0.50 -->
      <g transform="translate(30.034687 191.668413) scale(0.14 -0.14)">
       <use xlink:href="#LiberationSans-30"/>
       <use xlink:href="#LiberationSans-2e" x="55.615234"/>
       <use xlink:href="#LiberationSans-35" x="83.398438"/>
       <use xlink:href="#LiberationSans-30" x="139.013672"/>
      </g>
     </g>
    </g>
    <g id="ytick_3">
     <g id="line2d_25">
      <path d="M 64.28 154.482433 
L 426.555 154.482433 
" clip-path="url(#p92e348b10a)" style="fill: none; stroke: #b0b0b0; stroke-opacity: 0.2; stroke-width: 0.8; stroke-linecap: square"/>
     </g>
     <g id="line2d_26">
      <g>
       <use xlink:href="#m2d5334bf94" x="64.28" y="154.482433" style="stroke: #000000; stroke-width: 0.8"/>
      </g>
     </g>
     <g id="text_14">
      <!-- 0.75 -->
      <g transform="translate(30.034687 159.555245) scale(0.14 -0.14)">
       <use xlink:href="#LiberationSans-30"/>
       <use xlink:href="#LiberationSans-2e" x="55.615234"/>
       <use xlink:href="#LiberationSans-37" x="83.398438"/>
       <use xlink:href="#LiberationSans-35" x="139.013672"/>
      </g>
     </g>
    </g>
    <g id="ytick_4">
     <g id="line2d_27">
      <path d="M 64.28 122.369265 
L 426.555 122.369265 
" clip-path="url(#p92e348b10a)" style="fill: none; stroke: #b0b0b0; stroke-opacity: 0.2; stroke-width: 0.8; stroke-linecap: square"/>
     </g>
     <g id="line2d_28">
      <g>
       <use xlink:href="#m2d5334bf94" x="64.28" y="122.369265" style="stroke: #000000; stroke-width: 0.8"/>
      </g>
     </g>
     <g id="text_15">
      <!-- 1.00 -->
      <g transform="translate(30.034687 127.442077) scale(0.14 -0.14)">
       <use xlink:href="#LiberationSans-31"/>
       <use xlink:href="#LiberationSans-2e" x="55.615234"/>
       <use xlink:href="#LiberationSans-30" x="83.398438"/>
       <use xlink:href="#LiberationSans-30" x="139.013672"/>
      </g>
     </g>
    </g>
    <g id="ytick_5">
     <g id="line2d_29">
      <path d="M 64.28 90.256097 
L 426.555 90.256097 
" clip-path="url(#p92e348b10a)" style="fill: none; stroke: #b0b0b0; stroke-opacity: 0.2; stroke-width: 0.8; stroke-linecap: square"/>
     </g>
     <g id="line2d_30">
      <g>
       <use xlink:href="#m2d5334bf94" x="64.28" y="90.256097" style="stroke: #000000; stroke-width: 0.8"/>
      </g>
     </g>
     <g id="text_16">
      <!-- 1.25 -->
      <g transform="translate(30.034687 95.32891) scale(0.14 -0.14)">
       <use xlink:href="#LiberationSans-31"/>
       <use xlink:href="#LiberationSans-2e" x="55.615234"/>
       <use xlink:href="#LiberationSans-32" x="83.398438"/>
       <use xlink:href="#LiberationSans-35" x="139.013672"/>
      </g>
     </g>
    </g>
    <g id="ytick_6">
     <g id="line2d_31">
      <path d="M 64.28 58.142929 
L 426.555 58.142929 
" clip-path="url(#p92e348b10a)" style="fill: none; stroke: #b0b0b0; stroke-opacity: 0.2; stroke-width: 0.8; stroke-linecap: square"/>
     </g>
     <g id="line2d_32">
      <g>
       <use xlink:href="#m2d5334bf94" x="64.28" y="58.142929" style="stroke: #000000; stroke-width: 0.8"/>
      </g>
     </g>
     <g id="text_17">
      <!-- 1.50 -->
      <g transform="translate(30.034687 63.215742) scale(0.14 -0.14)">
       <use xlink:href="#LiberationSans-31"/>
       <use xlink:href="#LiberationSans-2e" x="55.615234"/>
       <use xlink:href="#LiberationSans-35" x="83.398438"/>
       <use xlink:href="#LiberationSans-30" x="139.013672"/>
      </g>
     </g>
    </g>
    <g id="ytick_7">
     <g id="line2d_33">
      <path d="M 64.28 26.029761 
L 426.555 26.029761 
" clip-path="url(#p92e348b10a)" style="fill: none; stroke: #b0b0b0; stroke-opacity: 0.2; stroke-width: 0.8; stroke-linecap: square"/>
     </g>
     <g id="line2d_34">
      <g>
       <use xlink:href="#m2d5334bf94" x="64.28" y="26.029761" style="stroke: #000000; stroke-width: 0.8"/>
      </g>
     </g>
     <g id="text_18">
      <!-- 1.75 -->
      <g transform="translate(30.034687 31.102574) scale(0.14 -0.14)">
       <use xlink:href="#LiberationSans-31"/>
       <use xlink:href="#LiberationSans-2e" x="55.615234"/>
       <use xlink:href="#LiberationSans-37" x="83.398438"/>
       <use xlink:href="#LiberationSans-35" x="139.013672"/>
      </g>
     </g>
    </g>
    <g id="text_19">
     <!-- # Parameters -->
     <g transform="translate(22.714687 179.01625) rotate(-90) scale(0.16 -0.16)">
      <defs>
       <path id="LiberationSans-50" d="M 3931 3078 
Q 3931 2453 3523 2084 
Q 3116 1716 2416 1716 
L 1122 1716 
L 1122 0 
L 525 0 
L 525 4403 
L 2378 4403 
Q 3119 4403 3525 4056 
Q 3931 3709 3931 3078 
z
M 3331 3072 
Q 3331 3925 2306 3925 
L 1122 3925 
L 1122 2188 
L 2331 2188 
Q 3331 2188 3331 3072 
z
" transform="scale(0.015625)"/>
       <path id="LiberationSans-72" d="M 444 0 
L 444 2594 
Q 444 2950 425 3381 
L 956 3381 
Q 981 2806 981 2691 
L 994 2691 
Q 1128 3125 1303 3284 
Q 1478 3444 1797 3444 
Q 1909 3444 2025 3413 
L 2025 2897 
Q 1913 2928 1725 2928 
Q 1375 2928 1190 2626 
Q 1006 2325 1006 1763 
L 1006 0 
L 444 0 
z
" transform="scale(0.015625)"/>
       <path id="LiberationSans-6d" d="M 2400 0 
L 2400 2144 
Q 2400 2634 2265 2821 
Q 2131 3009 1781 3009 
Q 1422 3009 1212 2734 
Q 1003 2459 1003 1959 
L 1003 0 
L 444 0 
L 444 2659 
Q 444 3250 425 3381 
L 956 3381 
Q 959 3366 962 3297 
Q 966 3228 970 3139 
Q 975 3050 981 2803 
L 991 2803 
Q 1172 3163 1406 3303 
Q 1641 3444 1978 3444 
Q 2363 3444 2586 3291 
Q 2809 3138 2897 2803 
L 2906 2803 
Q 3081 3144 3329 3294 
Q 3578 3444 3931 3444 
Q 4444 3444 4676 3166 
Q 4909 2888 4909 2253 
L 4909 0 
L 4353 0 
L 4353 2144 
Q 4353 2634 4218 2821 
Q 4084 3009 3734 3009 
Q 3366 3009 3161 2736 
Q 2956 2463 2956 1959 
L 2956 0 
L 2400 0 
z
" transform="scale(0.015625)"/>
       <path id="LiberationSans-65" d="M 863 1572 
Q 863 991 1103 675 
Q 1344 359 1806 359 
Q 2172 359 2392 506 
Q 2613 653 2691 878 
L 3184 738 
Q 2881 -63 1806 -63 
Q 1056 -63 664 384 
Q 272 831 272 1713 
Q 272 2550 664 2997 
Q 1056 3444 1784 3444 
Q 3275 3444 3275 1647 
L 3275 1572 
L 863 1572 
z
M 2694 2003 
Q 2647 2538 2422 2783 
Q 2197 3028 1775 3028 
Q 1366 3028 1127 2754 
Q 888 2481 869 2003 
L 2694 2003 
z
" transform="scale(0.015625)"/>
       <path id="LiberationSans-74" d="M 1731 25 
Q 1453 -50 1163 -50 
Q 488 -50 488 716 
L 488 2972 
L 97 2972 
L 97 3381 
L 509 3381 
L 675 4138 
L 1050 4138 
L 1050 3381 
L 1675 3381 
L 1675 2972 
L 1050 2972 
L 1050 838 
Q 1050 594 1129 495 
Q 1209 397 1406 397 
Q 1519 397 1731 441 
L 1731 25 
z
" transform="scale(0.015625)"/>
      </defs>
      <use xlink:href="#LiberationSans-23"/>
      <use xlink:href="#LiberationSans-20" x="55.615234"/>
      <use xlink:href="#LiberationSans-50" x="83.398438"/>
      <use xlink:href="#LiberationSans-61" x="150.097656"/>
      <use xlink:href="#LiberationSans-72" x="205.712891"/>
      <use xlink:href="#LiberationSans-61" x="239.013672"/>
      <use xlink:href="#LiberationSans-6d" x="294.628906"/>
      <use xlink:href="#LiberationSans-65" x="377.929688"/>
      <use xlink:href="#LiberationSans-74" x="433.544922"/>
      <use xlink:href="#LiberationSans-65" x="461.328125"/>
      <use xlink:href="#LiberationSans-72" x="516.943359"/>
      <use xlink:href="#LiberationSans-73" x="550.244141"/>
     </g>
    </g>
    <g id="text_20">
     <!-- 1e6 -->
     <g transform="translate(64.28 20.16) scale(0.14 -0.14)">
      <use xlink:href="#LiberationSans-31"/>
      <use xlink:href="#LiberationSans-65" x="55.615234"/>
      <use xlink:href="#LiberationSans-36" x="111.230469"/>
     </g>
    </g>
   </g>
   <g id="line2d_35">
    <path d="M 80.747045 229.036107 
L 117.34048 207.250277 
L 153.933914 185.464447 
L 190.527348 163.678617 
L 227.120783 141.892787 
L 263.714217 120.106957 
L 300.307652 98.321126 
L 336.901086 76.535296 
L 373.49452 54.749466 
L 410.087955 32.963636 
" clip-path="url(#p92e348b10a)" style="fill: none; stroke: #fbc5f4; stroke-width: 1.5; stroke-linecap: square"/>
    <defs>
     <path id="m95ceaef0b4" d="M 0 1.5 
C 0.397805 1.5 0.77937 1.341951 1.06066 1.06066 
C 1.341951 0.77937 1.5 0.397805 1.5 0 
C 1.5 -0.397805 1.341951 -0.77937 1.06066 -1.06066 
C 0.77937 -1.341951 0.397805 -1.5 0 -1.5 
C -0.397805 -1.5 -0.77937 -1.341951 -1.06066 -1.06066 
C -1.341951 -0.77937 -1.5 -0.397805 -1.5 0 
C -1.5 0.397805 -1.341951 0.77937 -1.06066 1.06066 
C -0.77937 1.341951 -0.397805 1.5 0 1.5 
z
" style="stroke: #fbc5f4"/>
    </defs>
    <g clip-path="url(#p92e348b10a)">
     <use xlink:href="#m95ceaef0b4" x="80.747045" y="229.036107" style="fill: #fbc5f4; stroke: #fbc5f4"/>
     <use xlink:href="#m95ceaef0b4" x="117.34048" y="207.250277" style="fill: #fbc5f4; stroke: #fbc5f4"/>
     <use xlink:href="#m95ceaef0b4" x="153.933914" y="185.464447" style="fill: #fbc5f4; stroke: #fbc5f4"/>
     <use xlink:href="#m95ceaef0b4" x="190.527348" y="163.678617" style="fill: #fbc5f4; stroke: #fbc5f4"/>
     <use xlink:href="#m95ceaef0b4" x="227.120783" y="141.892787" style="fill: #fbc5f4; stroke: #fbc5f4"/>
     <use xlink:href="#m95ceaef0b4" x="263.714217" y="120.106957" style="fill: #fbc5f4; stroke: #fbc5f4"/>
     <use xlink:href="#m95ceaef0b4" x="300.307652" y="98.321126" style="fill: #fbc5f4; stroke: #fbc5f4"/>
     <use xlink:href="#m95ceaef0b4" x="336.901086" y="76.535296" style="fill: #fbc5f4; stroke: #fbc5f4"/>
     <use xlink:href="#m95ceaef0b4" x="373.49452" y="54.749466" style="fill: #fbc5f4; stroke: #fbc5f4"/>
     <use xlink:href="#m95ceaef0b4" x="410.087955" y="32.963636" style="fill: #fbc5f4; stroke: #fbc5f4"/>
    </g>
   </g>
   <g id="line2d_36">
    <path d="M 80.747045 229.036107 
L 117.34048 229.010159 
L 153.933914 228.984212 
L 190.527348 228.958264 
L 227.120783 228.932317 
L 263.714217 228.90637 
L 300.307652 228.880422 
L 336.901086 228.854475 
L 373.49452 228.828527 
L 410.087955 228.80258 
" clip-path="url(#p92e348b10a)" style="fill: none; stroke: #ffb7bc; stroke-width: 1.5; stroke-linecap: square"/>
    <defs>
     <path id="mb1e087d844" d="M 0 1.5 
C 0.397805 1.5 0.77937 1.341951 1.06066 1.06066 
C 1.341951 0.77937 1.5 0.397805 1.5 0 
C 1.5 -0.397805 1.341951 -0.77937 1.06066 -1.06066 
C 0.77937 -1.341951 0.397805 -1.5 0 -1.5 
C -0.397805 -1.5 -0.77937 -1.341951 -1.06066 -1.06066 
C -1.341951 -0.77937 -1.5 -0.397805 -1.5 0 
C -1.5 0.397805 -1.341951 0.77937 -1.06066 1.06066 
C -0.77937 1.341951 -0.397805 1.5 0 1.5 
z
" style="stroke: #ffb7bc"/>
    </defs>
    <g clip-path="url(#p92e348b10a)">
     <use xlink:href="#mb1e087d844" x="80.747045" y="229.036107" style="fill: #ffb7bc; stroke: #ffb7bc"/>
     <use xlink:href="#mb1e087d844" x="117.34048" y="229.010159" style="fill: #ffb7bc; stroke: #ffb7bc"/>
     <use xlink:href="#mb1e087d844" x="153.933914" y="228.984212" style="fill: #ffb7bc; stroke: #ffb7bc"/>
     <use xlink:href="#mb1e087d844" x="190.527348" y="228.958264" style="fill: #ffb7bc; stroke: #ffb7bc"/>
     <use xlink:href="#mb1e087d844" x="227.120783" y="228.932317" style="fill: #ffb7bc; stroke: #ffb7bc"/>
     <use xlink:href="#mb1e087d844" x="263.714217" y="228.90637" style="fill: #ffb7bc; stroke: #ffb7bc"/>
     <use xlink:href="#mb1e087d844" x="300.307652" y="228.880422" style="fill: #ffb7bc; stroke: #ffb7bc"/>
     <use xlink:href="#mb1e087d844" x="336.901086" y="228.854475" style="fill: #ffb7bc; stroke: #ffb7bc"/>
     <use xlink:href="#mb1e087d844" x="373.49452" y="228.828527" style="fill: #ffb7bc; stroke: #ffb7bc"/>
     <use xlink:href="#mb1e087d844" x="410.087955" y="228.80258" style="fill: #ffb7bc; stroke: #ffb7bc"/>
    </g>
   </g>
   <g id="line2d_37">
    <path d="M 80.747045 229.036364 
L 117.34048 228.907911 
L 153.933914 228.779458 
L 190.527348 228.651006 
L 227.120783 228.522553 
L 263.714217 228.3941 
L 300.307652 228.265648 
L 336.901086 228.137195 
L 373.49452 228.008742 
L 410.087955 227.88029 
" clip-path="url(#p92e348b10a)" style="fill: none; stroke: #bdc0ff; stroke-width: 1.5; stroke-linecap: square"/>
    <defs>
     <path id="mc92df85365" d="M 0 1.5 
C 0.397805 1.5 0.77937 1.341951 1.06066 1.06066 
C 1.341951 0.77937 1.5 0.397805 1.5 0 
C 1.5 -0.397805 1.341951 -0.77937 1.06066 -1.06066 
C 0.77937 -1.341951 0.397805 -1.5 0 -1.5 
C -0.397805 -1.5 -0.77937 -1.341951 -1.06066 -1.06066 
C -1.341951 -0.77937 -1.5 -0.397805 -1.5 0 
C -1.5 0.397805 -1.341951 0.77937 -1.06066 1.06066 
C -0.77937 1.341951 -0.397805 1.5 0 1.5 
z
" style="stroke: #bdc0ff"/>
    </defs>
    <g clip-path="url(#p92e348b10a)">
     <use xlink:href="#mc92df85365" x="80.747045" y="229.036364" style="fill: #bdc0ff; stroke: #bdc0ff"/>
     <use xlink:href="#mc92df85365" x="117.34048" y="228.907911" style="fill: #bdc0ff; stroke: #bdc0ff"/>
     <use xlink:href="#mc92df85365" x="153.933914" y="228.779458" style="fill: #bdc0ff; stroke: #bdc0ff"/>
     <use xlink:href="#mc92df85365" x="190.527348" y="228.651006" style="fill: #bdc0ff; stroke: #bdc0ff"/>
     <use xlink:href="#mc92df85365" x="227.120783" y="228.522553" style="fill: #bdc0ff; stroke: #bdc0ff"/>
     <use xlink:href="#mc92df85365" x="263.714217" y="228.3941" style="fill: #bdc0ff; stroke: #bdc0ff"/>
     <use xlink:href="#mc92df85365" x="300.307652" y="228.265648" style="fill: #bdc0ff; stroke: #bdc0ff"/>
     <use xlink:href="#mc92df85365" x="336.901086" y="228.137195" style="fill: #bdc0ff; stroke: #bdc0ff"/>
     <use xlink:href="#mc92df85365" x="373.49452" y="228.008742" style="fill: #bdc0ff; stroke: #bdc0ff"/>
     <use xlink:href="#mc92df85365" x="410.087955" y="227.88029" style="fill: #bdc0ff; stroke: #bdc0ff"/>
    </g>
   </g>
   <g id="patch_3">
    <path d="M 64.28 238.84 
L 64.28 23.16 
" style="fill: none; stroke: #000000; stroke-width: 1.5; stroke-linejoin: miter; stroke-linecap: square"/>
   </g>
   <g id="patch_4">
    <path d="M 64.28 238.84 
L 426.555 238.84 
" style="fill: none; stroke: #000000; stroke-width: 1.5; stroke-linejoin: miter; stroke-linecap: square"/>
   </g>
   <g id="legend_1">
    <g id="patch_5">
     <path d="M 72.68 84.31875 
L 210.42875 84.31875 
Q 212.82875 84.31875 212.82875 81.91875 
L 212.82875 31.56 
Q 212.82875 29.16 210.42875 29.16 
L 72.68 29.16 
Q 70.28 29.16 70.28 31.56 
L 70.28 81.91875 
Q 70.28 84.31875 72.68 84.31875 
z
" style="fill: #ffffff; opacity: 0.8; stroke: #cccccc; stroke-linejoin: miter"/>
    </g>
    <g id="line2d_38">
     <path d="M 75.08 38.45625 
L 87.08 38.45625 
L 99.08 38.45625 
" style="fill: none; stroke: #fbc5f4; stroke-width: 1.5; stroke-linecap: square"/>
     <g>
      <use xlink:href="#m95ceaef0b4" x="87.08" y="38.45625" style="fill: #fbc5f4; stroke: #fbc5f4"/>
     </g>
    </g>
    <g id="text_21">
     <!-- Sequential -->
     <g transform="translate(108.68 42.65625) scale(0.12 -0.12)">
      <defs>
       <path id="LiberationSans-53" d="M 3975 1216 
Q 3975 606 3498 271 
Q 3022 -63 2156 -63 
Q 547 -63 291 1056 
L 869 1172 
Q 969 775 1294 589 
Q 1619 403 2178 403 
Q 2756 403 3070 601 
Q 3384 800 3384 1184 
Q 3384 1400 3286 1534 
Q 3188 1669 3009 1756 
Q 2831 1844 2584 1903 
Q 2338 1963 2038 2031 
Q 1516 2147 1245 2262 
Q 975 2378 819 2520 
Q 663 2663 580 2853 
Q 497 3044 497 3291 
Q 497 3856 930 4162 
Q 1363 4469 2169 4469 
Q 2919 4469 3316 4239 
Q 3713 4009 3872 3456 
L 3284 3353 
Q 3188 3703 2916 3861 
Q 2644 4019 2163 4019 
Q 1634 4019 1356 3844 
Q 1078 3669 1078 3322 
Q 1078 3119 1186 2986 
Q 1294 2853 1497 2761 
Q 1700 2669 2306 2534 
Q 2509 2488 2711 2439 
Q 2913 2391 3097 2323 
Q 3281 2256 3442 2165 
Q 3603 2075 3722 1944 
Q 3841 1813 3908 1634 
Q 3975 1456 3975 1216 
z
" transform="scale(0.015625)"/>
       <path id="LiberationSans-71" d="M 1513 -63 
Q 869 -63 569 371 
Q 269 806 269 1675 
Q 269 3444 1513 3444 
Q 1897 3444 2147 3308 
Q 2397 3172 2566 2856 
L 2572 2856 
Q 2572 2950 2584 3179 
Q 2597 3409 2609 3425 
L 3150 3425 
Q 3128 3241 3128 2503 
L 3128 -1328 
L 2566 -1328 
L 2566 44 
L 2578 556 
L 2572 556 
Q 2403 222 2156 79 
Q 1909 -63 1513 -63 
z
M 2566 1731 
Q 2566 2391 2350 2709 
Q 2134 3028 1663 3028 
Q 1234 3028 1046 2709 
Q 859 2391 859 1694 
Q 859 984 1048 678 
Q 1238 372 1656 372 
Q 2134 372 2350 712 
Q 2566 1053 2566 1731 
z
" transform="scale(0.015625)"/>
       <path id="LiberationSans-75" d="M 981 3381 
L 981 1238 
Q 981 903 1047 718 
Q 1113 534 1256 453 
Q 1400 372 1678 372 
Q 2084 372 2318 650 
Q 2553 928 2553 1422 
L 2553 3381 
L 3116 3381 
L 3116 722 
Q 3116 131 3134 0 
L 2603 0 
Q 2600 16 2597 84 
Q 2594 153 2589 242 
Q 2584 331 2578 578 
L 2569 578 
Q 2375 228 2120 82 
Q 1866 -63 1488 -63 
Q 931 -63 673 214 
Q 416 491 416 1128 
L 416 3381 
L 981 3381 
z
" transform="scale(0.015625)"/>
       <path id="LiberationSans-6e" d="M 2578 0 
L 2578 2144 
Q 2578 2478 2512 2662 
Q 2447 2847 2303 2928 
Q 2159 3009 1881 3009 
Q 1475 3009 1240 2731 
Q 1006 2453 1006 1959 
L 1006 0 
L 444 0 
L 444 2659 
Q 444 3250 425 3381 
L 956 3381 
Q 959 3366 962 3297 
Q 966 3228 970 3139 
Q 975 3050 981 2803 
L 991 2803 
Q 1184 3153 1439 3298 
Q 1694 3444 2072 3444 
Q 2628 3444 2886 3167 
Q 3144 2891 3144 2253 
L 3144 0 
L 2578 0 
z
" transform="scale(0.015625)"/>
       <path id="LiberationSans-69" d="M 428 4100 
L 428 4638 
L 991 4638 
L 991 4100 
L 428 4100 
z
M 428 0 
L 428 3381 
L 991 3381 
L 991 0 
L 428 0 
z
" transform="scale(0.015625)"/>
       <path id="LiberationSans-6c" d="M 431 0 
L 431 4638 
L 994 4638 
L 994 0 
L 431 0 
z
" transform="scale(0.015625)"/>
      </defs>
      <use xlink:href="#LiberationSans-53"/>
      <use xlink:href="#LiberationSans-65" x="66.699219"/>
      <use xlink:href="#LiberationSans-71" x="122.314453"/>
      <use xlink:href="#LiberationSans-75" x="177.929688"/>
      <use xlink:href="#LiberationSans-65" x="233.544922"/>
      <use xlink:href="#LiberationSans-6e" x="289.160156"/>
      <use xlink:href="#LiberationSans-74" x="344.775391"/>
      <use xlink:href="#LiberationSans-69" x="372.558594"/>
      <use xlink:href="#LiberationSans-61" x="394.775391"/>
      <use xlink:href="#LiberationSans-6c" x="450.390625"/>
     </g>
    </g>
    <g id="line2d_39">
     <path d="M 75.08 55.6425 
L 87.08 55.6425 
L 99.08 55.6425 
" style="fill: none; stroke: #ffb7bc; stroke-width: 1.5; stroke-linecap: square"/>
     <g>
      <use xlink:href="#mb1e087d844" x="87.08" y="55.6425" style="fill: #ffb7bc; stroke: #ffb7bc"/>
     </g>
    </g>
    <g id="text_22">
     <!-- Parallel -->
     <g transform="translate(108.68 59.8425) scale(0.12 -0.12)">
      <use xlink:href="#LiberationSans-50"/>
      <use xlink:href="#LiberationSans-61" x="66.699219"/>
      <use xlink:href="#LiberationSans-72" x="122.314453"/>
      <use xlink:href="#LiberationSans-61" x="155.615234"/>
      <use xlink:href="#LiberationSans-6c" x="211.230469"/>
      <use xlink:href="#LiberationSans-6c" x="233.447266"/>
      <use xlink:href="#LiberationSans-65" x="255.664062"/>
      <use xlink:href="#LiberationSans-6c" x="311.279297"/>
     </g>
    </g>
    <g id="line2d_40">
     <path d="M 75.08 72.82875 
L 87.08 72.82875 
L 99.08 72.82875 
" style="fill: none; stroke: #bdc0ff; stroke-width: 1.5; stroke-linecap: square"/>
     <g>
      <use xlink:href="#mc92df85365" x="87.08" y="72.82875" style="fill: #bdc0ff; stroke: #bdc0ff"/>
     </g>
    </g>
    <g id="text_23">
     <!-- Task-Switching (A) -->
     <g transform="translate(108.68 77.02875) scale(0.12 -0.12)">
      <defs>
       <path id="LiberationSans-2d" d="M 284 1450 
L 284 1950 
L 1847 1950 
L 1847 1450 
L 284 1450 
z
" transform="scale(0.015625)"/>
       <path id="LiberationSans-77" d="M 3669 0 
L 3016 0 
L 2425 2391 
L 2313 2919 
Q 2284 2778 2225 2514 
Q 2166 2250 1588 0 
L 938 0 
L -9 3381 
L 547 3381 
L 1119 1084 
Q 1141 1009 1253 466 
L 1306 697 
L 2013 3381 
L 2616 3381 
L 3206 1059 
L 3350 466 
L 3447 900 
L 4088 3381 
L 4638 3381 
L 3669 0 
z
" transform="scale(0.015625)"/>
       <path id="LiberationSans-63" d="M 859 1706 
Q 859 1031 1071 706 
Q 1284 381 1713 381 
Q 2013 381 2214 543 
Q 2416 706 2463 1044 
L 3031 1006 
Q 2966 519 2616 228 
Q 2266 -63 1728 -63 
Q 1019 -63 645 385 
Q 272 834 272 1694 
Q 272 2547 647 2995 
Q 1022 3444 1722 3444 
Q 2241 3444 2583 3175 
Q 2925 2906 3013 2434 
L 2434 2391 
Q 2391 2672 2212 2837 
Q 2034 3003 1706 3003 
Q 1259 3003 1059 2706 
Q 859 2409 859 1706 
z
" transform="scale(0.015625)"/>
       <path id="LiberationSans-68" d="M 991 2803 
Q 1172 3134 1426 3289 
Q 1681 3444 2072 3444 
Q 2622 3444 2883 3170 
Q 3144 2897 3144 2253 
L 3144 0 
L 2578 0 
L 2578 2144 
Q 2578 2500 2512 2673 
Q 2447 2847 2297 2928 
Q 2147 3009 1881 3009 
Q 1484 3009 1245 2734 
Q 1006 2459 1006 1994 
L 1006 0 
L 444 0 
L 444 4638 
L 1006 4638 
L 1006 3431 
Q 1006 3241 995 3037 
Q 984 2834 981 2803 
L 991 2803 
z
" transform="scale(0.015625)"/>
       <path id="LiberationSans-67" d="M 1713 -1328 
Q 1159 -1328 831 -1111 
Q 503 -894 409 -494 
L 975 -413 
Q 1031 -647 1223 -773 
Q 1416 -900 1728 -900 
Q 2569 -900 2569 84 
L 2569 628 
L 2563 628 
Q 2403 303 2125 139 
Q 1847 -25 1475 -25 
Q 853 -25 561 387 
Q 269 800 269 1684 
Q 269 2581 583 3007 
Q 897 3434 1538 3434 
Q 1897 3434 2161 3270 
Q 2425 3106 2569 2803 
L 2575 2803 
Q 2575 2897 2587 3128 
Q 2600 3359 2613 3381 
L 3147 3381 
Q 3128 3213 3128 2681 
L 3128 97 
Q 3128 -1328 1713 -1328 
z
M 2569 1691 
Q 2569 2103 2456 2401 
Q 2344 2700 2139 2858 
Q 1934 3016 1675 3016 
Q 1244 3016 1047 2703 
Q 850 2391 850 1691 
Q 850 997 1034 694 
Q 1219 391 1666 391 
Q 1931 391 2137 547 
Q 2344 703 2456 995 
Q 2569 1288 2569 1691 
z
" transform="scale(0.015625)"/>
       <path id="LiberationSans-28" d="M 397 1663 
Q 397 2566 680 3284 
Q 963 4003 1550 4638 
L 2094 4638 
Q 1509 3988 1236 3256 
Q 963 2525 963 1656 
Q 963 791 1233 62 
Q 1503 -666 2094 -1325 
L 1550 -1325 
Q 959 -688 678 32 
Q 397 753 397 1650 
L 397 1663 
z
" transform="scale(0.015625)"/>
       <path id="LiberationSans-41" d="M 3647 0 
L 3144 1288 
L 1138 1288 
L 631 0 
L 13 0 
L 1809 4403 
L 2488 4403 
L 4256 0 
L 3647 0 
z
M 2141 3953 
L 2113 3866 
Q 2034 3606 1881 3200 
L 1319 1753 
L 2966 1753 
L 2400 3206 
Q 2313 3422 2225 3694 
L 2141 3953 
z
" transform="scale(0.015625)"/>
       <path id="LiberationSans-29" d="M 1734 1650 
Q 1734 747 1451 28 
Q 1169 -691 581 -1325 
L 38 -1325 
Q 625 -669 897 57 
Q 1169 784 1169 1656 
Q 1169 2528 895 3256 
Q 622 3984 38 4638 
L 581 4638 
Q 1172 4000 1453 3279 
Q 1734 2559 1734 1663 
L 1734 1650 
z
" transform="scale(0.015625)"/>
      </defs>
      <use xlink:href="#LiberationSans-54"/>
      <use xlink:href="#LiberationSans-61" x="49.958984"/>
      <use xlink:href="#LiberationSans-73" x="105.574219"/>
      <use xlink:href="#LiberationSans-6b" x="155.574219"/>
      <use xlink:href="#LiberationSans-2d" x="205.574219"/>
      <use xlink:href="#LiberationSans-53" x="238.875"/>
      <use xlink:href="#LiberationSans-77" x="305.574219"/>
      <use xlink:href="#LiberationSans-69" x="377.791016"/>
      <use xlink:href="#LiberationSans-74" x="400.007812"/>
      <use xlink:href="#LiberationSans-63" x="427.791016"/>
      <use xlink:href="#LiberationSans-68" x="477.791016"/>
      <use xlink:href="#LiberationSans-69" x="533.40625"/>
      <use xlink:href="#LiberationSans-6e" x="555.623047"/>
      <use xlink:href="#LiberationSans-67" x="611.238281"/>
      <use xlink:href="#LiberationSans-20" x="666.853516"/>
      <use xlink:href="#LiberationSans-28" x="694.636719"/>
      <use xlink:href="#LiberationSans-41" x="727.9375"/>
      <use xlink:href="#LiberationSans-29" x="794.636719"/>
     </g>
    </g>
   </g>
  </g>
  <g id="axes_2">
   <g id="patch_6">
    <path d="M 490.925 238.84 
L 853.2 238.84 
L 853.2 23.16 
L 490.925 23.16 
z
" style="fill: #ffffff"/>
   </g>
   <g id="matplotlib.axis_3">
    <g id="xtick_11">
     <g id="line2d_41">
      <path d="M 507.392045 238.84 
L 507.392045 23.16 
" clip-path="url(#p13f5119f6b)" style="fill: none; stroke: #b0b0b0; stroke-opacity: 0.2; stroke-width: 0.8; stroke-linecap: square"/>
     </g>
     <g id="line2d_42">
      <g>
       <use xlink:href="#m601a79fcf2" x="507.392045" y="238.84" style="stroke: #000000; stroke-width: 1.5"/>
      </g>
     </g>
     <g id="text_24">
      <!-- 1 -->
      <g transform="translate(503.499389 255.985625) scale(0.14 -0.14)">
       <use xlink:href="#LiberationSans-31"/>
      </g>
     </g>
    </g>
    <g id="xtick_12">
     <g id="line2d_43">
      <path d="M 570.598887 238.84 
L 570.598887 23.16 
" clip-path="url(#p13f5119f6b)" style="fill: none; stroke: #b0b0b0; stroke-opacity: 0.2; stroke-width: 0.8; stroke-linecap: square"/>
     </g>
     <g id="line2d_44">
      <g>
       <use xlink:href="#m601a79fcf2" x="570.598887" y="238.84" style="stroke: #000000; stroke-width: 1.5"/>
      </g>
     </g>
     <g id="text_25">
      <!-- 20 -->
      <g transform="translate(562.813574 255.985625) scale(0.14 -0.14)">
       <use xlink:href="#LiberationSans-32"/>
       <use xlink:href="#LiberationSans-30" x="55.615234"/>
      </g>
     </g>
    </g>
    <g id="xtick_13">
     <g id="line2d_45">
      <path d="M 637.132404 238.84 
L 637.132404 23.16 
" clip-path="url(#p13f5119f6b)" style="fill: none; stroke: #b0b0b0; stroke-opacity: 0.2; stroke-width: 0.8; stroke-linecap: square"/>
     </g>
     <g id="line2d_46">
      <g>
       <use xlink:href="#m601a79fcf2" x="637.132404" y="238.84" style="stroke: #000000; stroke-width: 1.5"/>
      </g>
     </g>
     <g id="text_26">
      <!-- 40 -->
      <g transform="translate(629.347091 255.985625) scale(0.14 -0.14)">
       <use xlink:href="#LiberationSans-34"/>
       <use xlink:href="#LiberationSans-30" x="55.615234"/>
      </g>
     </g>
    </g>
    <g id="xtick_14">
     <g id="line2d_47">
      <path d="M 703.665921 238.84 
L 703.665921 23.16 
" clip-path="url(#p13f5119f6b)" style="fill: none; stroke: #b0b0b0; stroke-opacity: 0.2; stroke-width: 0.8; stroke-linecap: square"/>
     </g>
     <g id="line2d_48">
      <g>
       <use xlink:href="#m601a79fcf2" x="703.665921" y="238.84" style="stroke: #000000; stroke-width: 1.5"/>
      </g>
     </g>
     <g id="text_27">
      <!-- 60 -->
      <g transform="translate(695.880608 255.985625) scale(0.14 -0.14)">
       <use xlink:href="#LiberationSans-36"/>
       <use xlink:href="#LiberationSans-30" x="55.615234"/>
      </g>
     </g>
    </g>
    <g id="xtick_15">
     <g id="line2d_49">
      <path d="M 770.199438 238.84 
L 770.199438 23.16 
" clip-path="url(#p13f5119f6b)" style="fill: none; stroke: #b0b0b0; stroke-opacity: 0.2; stroke-width: 0.8; stroke-linecap: square"/>
     </g>
     <g id="line2d_50">
      <g>
       <use xlink:href="#m601a79fcf2" x="770.199438" y="238.84" style="stroke: #000000; stroke-width: 1.5"/>
      </g>
     </g>
     <g id="text_28">
      <!-- 80 -->
      <g transform="translate(762.414125 255.985625) scale(0.14 -0.14)">
       <use xlink:href="#LiberationSans-38"/>
       <use xlink:href="#LiberationSans-30" x="55.615234"/>
      </g>
     </g>
    </g>
    <g id="xtick_16">
     <g id="line2d_51">
      <path d="M 836.732955 238.84 
L 836.732955 23.16 
" clip-path="url(#p13f5119f6b)" style="fill: none; stroke: #b0b0b0; stroke-opacity: 0.2; stroke-width: 0.8; stroke-linecap: square"/>
     </g>
     <g id="line2d_52">
      <g>
       <use xlink:href="#m601a79fcf2" x="836.732955" y="238.84" style="stroke: #000000; stroke-width: 1.5"/>
      </g>
     </g>
     <g id="text_29">
      <!-- 100 -->
      <g transform="translate(825.054986 255.985625) scale(0.14 -0.14)">
       <use xlink:href="#LiberationSans-31"/>
       <use xlink:href="#LiberationSans-30" x="55.615234"/>
       <use xlink:href="#LiberationSans-30" x="111.230469"/>
      </g>
     </g>
    </g>
    <g id="text_30">
     <!-- # Tasks -->
     <g transform="translate(645.08625 274.485625) scale(0.16 -0.16)">
      <use xlink:href="#LiberationSans-23"/>
      <use xlink:href="#LiberationSans-20" x="55.615234"/>
      <use xlink:href="#LiberationSans-54" x="81.648438"/>
      <use xlink:href="#LiberationSans-61" x="131.607422"/>
      <use xlink:href="#LiberationSans-73" x="187.222656"/>
      <use xlink:href="#LiberationSans-6b" x="237.222656"/>
      <use xlink:href="#LiberationSans-73" x="287.222656"/>
     </g>
    </g>
   </g>
   <g id="matplotlib.axis_4">
    <g id="ytick_8">
     <g id="line2d_53">
      <path d="M 490.925 226.484867 
L 853.2 226.484867 
" clip-path="url(#p13f5119f6b)" style="fill: none; stroke: #b0b0b0; stroke-opacity: 0.2; stroke-width: 0.8; stroke-linecap: square"/>
     </g>
     <g id="line2d_54">
      <g>
       <use xlink:href="#m2d5334bf94" x="490.925" y="226.484867" style="stroke: #000000; stroke-width: 0.8"/>
      </g>
     </g>
     <g id="text_31">
      <!-- 0.98 -->
      <g transform="translate(456.679687 231.557679) scale(0.14 -0.14)">
       <use xlink:href="#LiberationSans-30"/>
       <use xlink:href="#LiberationSans-2e" x="55.615234"/>
       <use xlink:href="#LiberationSans-39" x="83.398438"/>
       <use xlink:href="#LiberationSans-38" x="139.013672"/>
      </g>
     </g>
    </g>
    <g id="ytick_9">
     <g id="line2d_55">
      <path d="M 490.925 187.231067 
L 853.2 187.231067 
" clip-path="url(#p13f5119f6b)" style="fill: none; stroke: #b0b0b0; stroke-opacity: 0.2; stroke-width: 0.8; stroke-linecap: square"/>
     </g>
     <g id="line2d_56">
      <g>
       <use xlink:href="#m2d5334bf94" x="490.925" y="187.231067" style="stroke: #000000; stroke-width: 0.8"/>
      </g>
     </g>
     <g id="text_32">
      <!-- 1.00 -->
      <g transform="translate(456.679687 192.30388) scale(0.14 -0.14)">
       <use xlink:href="#LiberationSans-31"/>
       <use xlink:href="#LiberationSans-2e" x="55.615234"/>
       <use xlink:href="#LiberationSans-30" x="83.398438"/>
       <use xlink:href="#LiberationSans-30" x="139.013672"/>
      </g>
     </g>
    </g>
    <g id="ytick_10">
     <g id="line2d_57">
      <path d="M 490.925 147.977268 
L 853.2 147.977268 
" clip-path="url(#p13f5119f6b)" style="fill: none; stroke: #b0b0b0; stroke-opacity: 0.2; stroke-width: 0.8; stroke-linecap: square"/>
     </g>
     <g id="line2d_58">
      <g>
       <use xlink:href="#m2d5334bf94" x="490.925" y="147.977268" style="stroke: #000000; stroke-width: 0.8"/>
      </g>
     </g>
     <g id="text_33">
      <!-- 1.02 -->
      <g transform="translate(456.679687 153.050081) scale(0.14 -0.14)">
       <use xlink:href="#LiberationSans-31"/>
       <use xlink:href="#LiberationSans-2e" x="55.615234"/>
       <use xlink:href="#LiberationSans-30" x="83.398438"/>
       <use xlink:href="#LiberationSans-32" x="139.013672"/>
      </g>
     </g>
    </g>
    <g id="ytick_11">
     <g id="line2d_59">
      <path d="M 490.925 108.723469 
L 853.2 108.723469 
" clip-path="url(#p13f5119f6b)" style="fill: none; stroke: #b0b0b0; stroke-opacity: 0.2; stroke-width: 0.8; stroke-linecap: square"/>
     </g>
     <g id="line2d_60">
      <g>
       <use xlink:href="#m2d5334bf94" x="490.925" y="108.723469" style="stroke: #000000; stroke-width: 0.8"/>
      </g>
     </g>
     <g id="text_34">
      <!-- 1.04 -->
      <g transform="translate(456.679687 113.796281) scale(0.14 -0.14)">
       <use xlink:href="#LiberationSans-31"/>
       <use xlink:href="#LiberationSans-2e" x="55.615234"/>
       <use xlink:href="#LiberationSans-30" x="83.398438"/>
       <use xlink:href="#LiberationSans-34" x="139.013672"/>
      </g>
     </g>
    </g>
    <g id="ytick_12">
     <g id="line2d_61">
      <path d="M 490.925 69.46967 
L 853.2 69.46967 
" clip-path="url(#p13f5119f6b)" style="fill: none; stroke: #b0b0b0; stroke-opacity: 0.2; stroke-width: 0.8; stroke-linecap: square"/>
     </g>
     <g id="line2d_62">
      <g>
       <use xlink:href="#m2d5334bf94" x="490.925" y="69.46967" style="stroke: #000000; stroke-width: 0.8"/>
      </g>
     </g>
     <g id="text_35">
      <!-- 1.06 -->
      <g transform="translate(456.679687 74.542482) scale(0.14 -0.14)">
       <use xlink:href="#LiberationSans-31"/>
       <use xlink:href="#LiberationSans-2e" x="55.615234"/>
       <use xlink:href="#LiberationSans-30" x="83.398438"/>
       <use xlink:href="#LiberationSans-36" x="139.013672"/>
      </g>
     </g>
    </g>
    <g id="ytick_13">
     <g id="line2d_63">
      <path d="M 490.925 30.21587 
L 853.2 30.21587 
" clip-path="url(#p13f5119f6b)" style="fill: none; stroke: #b0b0b0; stroke-opacity: 0.2; stroke-width: 0.8; stroke-linecap: square"/>
     </g>
     <g id="line2d_64">
      <g>
       <use xlink:href="#m2d5334bf94" x="490.925" y="30.21587" style="stroke: #000000; stroke-width: 0.8"/>
      </g>
     </g>
     <g id="text_36">
      <!-- 1.08 -->
      <g transform="translate(456.679687 35.288683) scale(0.14 -0.14)">
       <use xlink:href="#LiberationSans-31"/>
       <use xlink:href="#LiberationSans-2e" x="55.615234"/>
       <use xlink:href="#LiberationSans-30" x="83.398438"/>
       <use xlink:href="#LiberationSans-38" x="139.013672"/>
      </g>
     </g>
    </g>
    <g id="text_37">
     <!-- # Parameters -->
     <g transform="translate(449.359687 179.01625) rotate(-90) scale(0.16 -0.16)">
      <use xlink:href="#LiberationSans-23"/>
      <use xlink:href="#LiberationSans-20" x="55.615234"/>
      <use xlink:href="#LiberationSans-50" x="83.398438"/>
      <use xlink:href="#LiberationSans-61" x="150.097656"/>
      <use xlink:href="#LiberationSans-72" x="205.712891"/>
      <use xlink:href="#LiberationSans-61" x="239.013672"/>
      <use xlink:href="#LiberationSans-6d" x="294.628906"/>
      <use xlink:href="#LiberationSans-65" x="377.929688"/>
      <use xlink:href="#LiberationSans-74" x="433.544922"/>
      <use xlink:href="#LiberationSans-65" x="461.328125"/>
      <use xlink:href="#LiberationSans-72" x="516.943359"/>
      <use xlink:href="#LiberationSans-73" x="550.244141"/>
     </g>
    </g>
    <g id="text_38">
     <!-- 1e7 -->
     <g transform="translate(490.925 20.16) scale(0.14 -0.14)">
      <use xlink:href="#LiberationSans-31"/>
      <use xlink:href="#LiberationSans-65" x="55.615234"/>
      <use xlink:href="#LiberationSans-37" x="111.230469"/>
     </g>
    </g>
   </g>
   <g id="line2d_65">
    <path d="M 507.392045 227.26955 
L 570.598887 219.80387 
L 637.132404 211.945259 
L 703.665921 204.086649 
L 770.199438 196.228038 
L 836.732955 188.369428 
" clip-path="url(#p13f5119f6b)" style="fill: none; stroke: #ffb7bc; stroke-width: 1.5; stroke-linecap: square"/>
    <g clip-path="url(#p13f5119f6b)">
     <use xlink:href="#mb1e087d844" x="507.392045" y="227.26955" style="fill: #ffb7bc; stroke: #ffb7bc"/>
     <use xlink:href="#mb1e087d844" x="570.598887" y="219.80387" style="fill: #ffb7bc; stroke: #ffb7bc"/>
     <use xlink:href="#mb1e087d844" x="637.132404" y="211.945259" style="fill: #ffb7bc; stroke: #ffb7bc"/>
     <use xlink:href="#mb1e087d844" x="703.665921" y="204.086649" style="fill: #ffb7bc; stroke: #ffb7bc"/>
     <use xlink:href="#mb1e087d844" x="770.199438" y="196.228038" style="fill: #ffb7bc; stroke: #ffb7bc"/>
     <use xlink:href="#mb1e087d844" x="836.732955" y="188.369428" style="fill: #ffb7bc; stroke: #ffb7bc"/>
    </g>
   </g>
   <g id="line2d_66">
    <path d="M 507.392045 227.269943 
L 570.598887 189.978833 
L 637.132404 150.725034 
L 703.665921 111.471235 
L 770.199438 72.217436 
L 836.732955 32.963636 
" clip-path="url(#p13f5119f6b)" style="fill: none; stroke: #bdc0ff; stroke-width: 1.5; stroke-linecap: square"/>
    <g clip-path="url(#p13f5119f6b)">
     <use xlink:href="#mc92df85365" x="507.392045" y="227.269943" style="fill: #bdc0ff; stroke: #bdc0ff"/>
     <use xlink:href="#mc92df85365" x="570.598887" y="189.978833" style="fill: #bdc0ff; stroke: #bdc0ff"/>
     <use xlink:href="#mc92df85365" x="637.132404" y="150.725034" style="fill: #bdc0ff; stroke: #bdc0ff"/>
     <use xlink:href="#mc92df85365" x="703.665921" y="111.471235" style="fill: #bdc0ff; stroke: #bdc0ff"/>
     <use xlink:href="#mc92df85365" x="770.199438" y="72.217436" style="fill: #bdc0ff; stroke: #bdc0ff"/>
     <use xlink:href="#mc92df85365" x="836.732955" y="32.963636" style="fill: #bdc0ff; stroke: #bdc0ff"/>
    </g>
   </g>
   <g id="line2d_67">
    <path d="M 507.392045 229.036364 
L 570.598887 225.307253 
L 637.132404 221.381873 
L 703.665921 217.456493 
L 770.199438 213.531113 
L 836.732955 209.605733 
" clip-path="url(#p13f5119f6b)" style="fill: none; stroke: #777cd8; stroke-width: 1.5; stroke-linecap: square"/>
    <defs>
     <path id="mb0feb9efd8" d="M 0 1.5 
C 0.397805 1.5 0.77937 1.341951 1.06066 1.06066 
C 1.341951 0.77937 1.5 0.397805 1.5 0 
C 1.5 -0.397805 1.341951 -0.77937 1.06066 -1.06066 
C 0.77937 -1.341951 0.397805 -1.5 0 -1.5 
C -0.397805 -1.5 -0.77937 -1.341951 -1.06066 -1.06066 
C -1.341951 -0.77937 -1.5 -0.397805 -1.5 0 
C -1.5 0.397805 -1.341951 0.77937 -1.06066 1.06066 
C -0.77937 1.341951 -0.397805 1.5 0 1.5 
z
" style="stroke: #777cd8"/>
    </defs>
    <g clip-path="url(#p13f5119f6b)">
     <use xlink:href="#mb0feb9efd8" x="507.392045" y="229.036364" style="fill: #777cd8; stroke: #777cd8"/>
     <use xlink:href="#mb0feb9efd8" x="570.598887" y="225.307253" style="fill: #777cd8; stroke: #777cd8"/>
     <use xlink:href="#mb0feb9efd8" x="637.132404" y="221.381873" style="fill: #777cd8; stroke: #777cd8"/>
     <use xlink:href="#mb0feb9efd8" x="703.665921" y="217.456493" style="fill: #777cd8; stroke: #777cd8"/>
     <use xlink:href="#mb0feb9efd8" x="770.199438" y="213.531113" style="fill: #777cd8; stroke: #777cd8"/>
     <use xlink:href="#mb0feb9efd8" x="836.732955" y="209.605733" style="fill: #777cd8; stroke: #777cd8"/>
    </g>
   </g>
   <g id="patch_7">
    <path d="M 490.925 238.84 
L 490.925 23.16 
" style="fill: none; stroke: #000000; stroke-width: 1.5; stroke-linejoin: miter; stroke-linecap: square"/>
   </g>
   <g id="patch_8">
    <path d="M 490.925 238.84 
L 853.2 238.84 
" style="fill: none; stroke: #000000; stroke-width: 1.5; stroke-linejoin: miter; stroke-linecap: square"/>
   </g>
   <g id="legend_2">
    <g id="patch_9">
     <path d="M 499.325 84.31875 
L 637.07375 84.31875 
Q 639.47375 84.31875 639.47375 81.91875 
L 639.47375 31.56 
Q 639.47375 29.16 637.07375 29.16 
L 499.325 29.16 
Q 496.925 29.16 496.925 31.56 
L 496.925 81.91875 
Q 496.925 84.31875 499.325 84.31875 
z
" style="fill: #ffffff; opacity: 0.8; stroke: #cccccc; stroke-linejoin: miter"/>
    </g>
    <g id="line2d_68">
     <path d="M 501.725 38.45625 
L 513.725 38.45625 
L 525.725 38.45625 
" style="fill: none; stroke: #ffb7bc; stroke-width: 1.5; stroke-linecap: square"/>
     <g>
      <use xlink:href="#mb1e087d844" x="513.725" y="38.45625" style="fill: #ffb7bc; stroke: #ffb7bc"/>
     </g>
    </g>
    <g id="text_39">
     <!-- Parallel -->
     <g transform="translate(535.325 42.65625) scale(0.12 -0.12)">
      <use xlink:href="#LiberationSans-50"/>
      <use xlink:href="#LiberationSans-61" x="66.699219"/>
      <use xlink:href="#LiberationSans-72" x="122.314453"/>
      <use xlink:href="#LiberationSans-61" x="155.615234"/>
      <use xlink:href="#LiberationSans-6c" x="211.230469"/>
      <use xlink:href="#LiberationSans-6c" x="233.447266"/>
      <use xlink:href="#LiberationSans-65" x="255.664062"/>
      <use xlink:href="#LiberationSans-6c" x="311.279297"/>
     </g>
    </g>
    <g id="line2d_69">
     <path d="M 501.725 55.6425 
L 513.725 55.6425 
L 525.725 55.6425 
" style="fill: none; stroke: #bdc0ff; stroke-width: 1.5; stroke-linecap: square"/>
     <g>
      <use xlink:href="#mc92df85365" x="513.725" y="55.6425" style="fill: #bdc0ff; stroke: #bdc0ff"/>
     </g>
    </g>
    <g id="text_40">
     <!-- Task-Switching (A) -->
     <g transform="translate(535.325 59.8425) scale(0.12 -0.12)">
      <use xlink:href="#LiberationSans-54"/>
      <use xlink:href="#LiberationSans-61" x="49.958984"/>
      <use xlink:href="#LiberationSans-73" x="105.574219"/>
      <use xlink:href="#LiberationSans-6b" x="155.574219"/>
      <use xlink:href="#LiberationSans-2d" x="205.574219"/>
      <use xlink:href="#LiberationSans-53" x="238.875"/>
      <use xlink:href="#LiberationSans-77" x="305.574219"/>
      <use xlink:href="#LiberationSans-69" x="377.791016"/>
      <use xlink:href="#LiberationSans-74" x="400.007812"/>
      <use xlink:href="#LiberationSans-63" x="427.791016"/>
      <use xlink:href="#LiberationSans-68" x="477.791016"/>
      <use xlink:href="#LiberationSans-69" x="533.40625"/>
      <use xlink:href="#LiberationSans-6e" x="555.623047"/>
      <use xlink:href="#LiberationSans-67" x="611.238281"/>
      <use xlink:href="#LiberationSans-20" x="666.853516"/>
      <use xlink:href="#LiberationSans-28" x="694.636719"/>
      <use xlink:href="#LiberationSans-41" x="727.9375"/>
      <use xlink:href="#LiberationSans-29" x="794.636719"/>
     </g>
    </g>
    <g id="line2d_70">
     <path d="M 501.725 72.82875 
L 513.725 72.82875 
L 525.725 72.82875 
" style="fill: none; stroke: #777cd8; stroke-width: 1.5; stroke-linecap: square"/>
     <g>
      <use xlink:href="#mb0feb9efd8" x="513.725" y="72.82875" style="fill: #777cd8; stroke: #777cd8"/>
     </g>
    </g>
    <g id="text_41">
     <!-- Task-Switching (S) -->
     <g transform="translate(535.325 77.02875) scale(0.12 -0.12)">
      <use xlink:href="#LiberationSans-54"/>
      <use xlink:href="#LiberationSans-61" x="49.958984"/>
      <use xlink:href="#LiberationSans-73" x="105.574219"/>
      <use xlink:href="#LiberationSans-6b" x="155.574219"/>
      <use xlink:href="#LiberationSans-2d" x="205.574219"/>
      <use xlink:href="#LiberationSans-53" x="238.875"/>
      <use xlink:href="#LiberationSans-77" x="305.574219"/>
      <use xlink:href="#LiberationSans-69" x="377.791016"/>
      <use xlink:href="#LiberationSans-74" x="400.007812"/>
      <use xlink:href="#LiberationSans-63" x="427.791016"/>
      <use xlink:href="#LiberationSans-68" x="477.791016"/>
      <use xlink:href="#LiberationSans-69" x="533.40625"/>
      <use xlink:href="#LiberationSans-6e" x="555.623047"/>
      <use xlink:href="#LiberationSans-67" x="611.238281"/>
      <use xlink:href="#LiberationSans-20" x="666.853516"/>
      <use xlink:href="#LiberationSans-28" x="694.636719"/>
      <use xlink:href="#LiberationSans-53" x="727.9375"/>
      <use xlink:href="#LiberationSans-29" x="794.636719"/>
     </g>
    </g>
   </g>
  </g>
 </g>
 <defs>
  <clipPath id="p92e348b10a">
   <rect x="64.28" y="23.16" width="362.275" height="215.68"/>
  </clipPath>
  <clipPath id="p13f5119f6b">
   <rect x="490.925" y="23.16" width="362.275" height="215.68"/>
  </clipPath>
 </defs>
</svg>
