<?xml version="1.0" encoding="utf-8" standalone="no"?>
<!DOCTYPE svg PUBLIC "-//W3C//DTD SVG 1.1//EN"
  "http://www.w3.org/Graphics/SVG/1.1/DTD/svg11.dtd">
<svg xmlns:xlink="http://www.w3.org/1999/xlink" width="432pt" height="288pt" viewBox="0 0 432 288" xmlns="http://www.w3.org/2000/svg" version="1.1">
 <metadata>
  <rdf:RDF xmlns:dc="http://purl.org/dc/elements/1.1/" xmlns:cc="http://creativecommons.org/ns#" xmlns:rdf="http://www.w3.org/1999/02/22-rdf-syntax-ns#">
   <cc:Work>
    <dc:type rdf:resource="http://purl.org/dc/dcmitype/StillImage"/>
    <dc:date>2024-02-06T04:39:46.542166</dc:date>
    <dc:format>image/svg+xml</dc:format>
    <dc:creator>
     <cc:Agent>
      <dc:title>Matplotlib v3.7.4, https://matplotlib.org/</dc:title>
     </cc:Agent>
    </dc:creator>
   </cc:Work>
  </rdf:RDF>
 </metadata>
 <defs>
  <style type="text/css">*{stroke-linejoin: round; stroke-linecap: butt}</style>
 </defs>
 <g id="figure_1">
  <g id="patch_1">
   <path d="M 0 288 
L 432 288 
L 432 0 
L 0 0 
L 0 288 
z
" style="fill: none"/>
  </g>
  <g id="axes_1">
   <g id="patch_2">
    <path d="M 64.28 238.84 
L 421.2 238.84 
L 421.2 10.8 
L 64.28 10.8 
L 64.28 238.84 
z
" style="fill: none"/>
   </g>
   <g id="patch_3">
    <path d="M 80.503636 238.84 
L 85.495524 238.84 
L 85.495524 209.490431 
L 80.503636 209.490431 
z
" clip-path="url(#p16bf2355e9)" style="fill: #c0d9ff"/>
   </g>
   <g id="patch_4">
    <path d="M 113.78289 238.84 
L 118.774779 238.84 
L 118.774779 164.964401 
L 113.78289 164.964401 
z
" clip-path="url(#p16bf2355e9)" style="fill: #c0d9ff"/>
   </g>
   <g id="patch_5">
    <path d="M 147.062145 238.84 
L 152.054033 238.84 
L 152.054033 70.679608 
L 147.062145 70.679608 
z
" clip-path="url(#p16bf2355e9)" style="fill: #c0d9ff"/>
   </g>
   <g id="patch_6">
    <path d="M 180.341399 238.84 
L 185.333287 238.84 
L 185.333287 62.005607 
L 180.341399 62.005607 
z
" clip-path="url(#p16bf2355e9)" style="fill: #c0d9ff"/>
   </g>
   <g id="patch_7">
    <path d="M 213.620653 238.84 
L 218.612541 238.84 
L 218.612541 123.491205 
L 213.620653 123.491205 
z
" clip-path="url(#p16bf2355e9)" style="fill: #c0d9ff"/>
   </g>
   <g id="patch_8">
    <path d="M 246.899907 238.84 
L 251.891795 238.84 
L 251.891795 176.312593 
L 246.899907 176.312593 
z
" clip-path="url(#p16bf2355e9)" style="fill: #c0d9ff"/>
   </g>
   <g id="patch_9">
    <path d="M 280.179161 238.84 
L 285.171049 238.84 
L 285.171049 206.686433 
L 280.179161 206.686433 
z
" clip-path="url(#p16bf2355e9)" style="fill: #c0d9ff"/>
   </g>
   <g id="patch_10">
    <path d="M 313.458415 238.84 
L 318.450303 238.84 
L 318.450303 213.17276 
L 313.458415 213.17276 
z
" clip-path="url(#p16bf2355e9)" style="fill: #c0d9ff"/>
   </g>
   <g id="patch_11">
    <path d="M 346.737669 238.84 
L 351.729557 238.84 
L 351.729557 218.169136 
L 346.737669 218.169136 
z
" clip-path="url(#p16bf2355e9)" style="fill: #c0d9ff"/>
   </g>
   <g id="patch_12">
    <path d="M 380.016923 238.84 
L 385.008811 238.84 
L 385.008811 218.591923 
L 380.016923 218.591923 
z
" clip-path="url(#p16bf2355e9)" style="fill: #c0d9ff"/>
   </g>
   <g id="patch_13">
    <path d="M 85.495524 238.84 
L 90.487413 238.84 
L 90.487413 210.86489 
L 85.495524 210.86489 
z
" clip-path="url(#p16bf2355e9)" style="fill: #bfc1ff"/>
   </g>
   <g id="patch_14">
    <path d="M 118.774779 238.84 
L 123.766667 238.84 
L 123.766667 177.747099 
L 118.774779 177.747099 
z
" clip-path="url(#p16bf2355e9)" style="fill: #bfc1ff"/>
   </g>
   <g id="patch_15">
    <path d="M 152.054033 238.84 
L 157.045921 238.84 
L 157.045921 87.371438 
L 152.054033 87.371438 
z
" clip-path="url(#p16bf2355e9)" style="fill: #bfc1ff"/>
   </g>
   <g id="patch_16">
    <path d="M 185.333287 238.84 
L 190.325175 238.84 
L 190.325175 100.138664 
L 185.333287 100.138664 
z
" clip-path="url(#p16bf2355e9)" style="fill: #bfc1ff"/>
   </g>
   <g id="patch_17">
    <path d="M 218.612541 238.84 
L 223.604429 238.84 
L 223.604429 159.299557 
L 218.612541 159.299557 
z
" clip-path="url(#p16bf2355e9)" style="fill: #bfc1ff"/>
   </g>
   <g id="patch_18">
    <path d="M 251.891795 238.84 
L 256.883683 238.84 
L 256.883683 189.373458 
L 251.891795 189.373458 
z
" clip-path="url(#p16bf2355e9)" style="fill: #bfc1ff"/>
   </g>
   <g id="patch_19">
    <path d="M 285.171049 238.84 
L 290.162937 238.84 
L 290.162937 210.928327 
L 285.171049 210.928327 
z
" clip-path="url(#p16bf2355e9)" style="fill: #bfc1ff"/>
   </g>
   <g id="patch_20">
    <path d="M 318.450303 238.84 
L 323.442191 238.84 
L 323.442191 213.958651 
L 318.450303 213.958651 
z
" clip-path="url(#p16bf2355e9)" style="fill: #bfc1ff"/>
   </g>
   <g id="patch_21">
    <path d="M 351.729557 238.84 
L 356.721445 238.84 
L 356.721445 218.962094 
L 351.729557 218.962094 
z
" clip-path="url(#p16bf2355e9)" style="fill: #bfc1ff"/>
   </g>
   <g id="patch_22">
    <path d="M 385.008811 238.84 
L 390.000699 238.84 
L 390.000699 217.207498 
L 385.008811 217.207498 
z
" clip-path="url(#p16bf2355e9)" style="fill: #bfc1ff"/>
   </g>
   <g id="patch_23">
    <path d="M 90.487413 238.84 
L 95.479301 238.84 
L 95.479301 208.255499 
L 90.487413 208.255499 
z
" clip-path="url(#p16bf2355e9)" style="fill: #e3bfff"/>
   </g>
   <g id="patch_24">
    <path d="M 123.766667 238.84 
L 128.758555 238.84 
L 128.758555 164.129222 
L 123.766667 164.129222 
z
" clip-path="url(#p16bf2355e9)" style="fill: #e3bfff"/>
   </g>
   <g id="patch_25">
    <path d="M 157.045921 238.84 
L 162.037809 238.84 
L 162.037809 63.263857 
L 157.045921 63.263857 
z
" clip-path="url(#p16bf2355e9)" style="fill: #e3bfff"/>
   </g>
   <g id="patch_26">
    <path d="M 190.325175 238.84 
L 195.317063 238.84 
L 195.317063 61.291729 
L 190.325175 61.291729 
z
" clip-path="url(#p16bf2355e9)" style="fill: #e3bfff"/>
   </g>
   <g id="patch_27">
    <path d="M 223.604429 238.84 
L 228.596317 238.84 
L 228.596317 122.248818 
L 223.604429 122.248818 
z
" clip-path="url(#p16bf2355e9)" style="fill: #e3bfff"/>
   </g>
   <g id="patch_28">
    <path d="M 256.883683 238.84 
L 261.875571 238.84 
L 261.875571 181.380295 
L 256.883683 181.380295 
z
" clip-path="url(#p16bf2355e9)" style="fill: #e3bfff"/>
   </g>
   <g id="patch_29">
    <path d="M 290.162937 238.84 
L 295.154825 238.84 
L 295.154825 208.417006 
L 290.162937 208.417006 
z
" clip-path="url(#p16bf2355e9)" style="fill: #e3bfff"/>
   </g>
   <g id="patch_30">
    <path d="M 323.442191 238.84 
L 328.434079 238.84 
L 328.434079 212.051505 
L 323.442191 212.051505 
z
" clip-path="url(#p16bf2355e9)" style="fill: #e3bfff"/>
   </g>
   <g id="patch_31">
    <path d="M 356.721445 238.84 
L 361.713333 238.84 
L 361.713333 218.573187 
L 356.721445 218.573187 
z
" clip-path="url(#p16bf2355e9)" style="fill: #e3bfff"/>
   </g>
   <g id="patch_32">
    <path d="M 390.000699 238.84 
L 394.992587 238.84 
L 394.992587 218.51091 
L 390.000699 218.51091 
z
" clip-path="url(#p16bf2355e9)" style="fill: #e3bfff"/>
   </g>
   <g id="patch_33">
    <path d="M 95.479301 238.84 
L 100.471189 238.84 
L 100.471189 211.052361 
L 95.479301 211.052361 
z
" clip-path="url(#p16bf2355e9)" style="fill: #ffbfe6"/>
   </g>
   <g id="patch_34">
    <path d="M 128.758555 238.84 
L 133.750443 238.84 
L 133.750443 163.003756 
L 128.758555 163.003756 
z
" clip-path="url(#p16bf2355e9)" style="fill: #ffbfe6"/>
   </g>
   <g id="patch_35">
    <path d="M 162.037809 238.84 
L 167.029697 238.84 
L 167.029697 80.970828 
L 162.037809 80.970828 
z
" clip-path="url(#p16bf2355e9)" style="fill: #ffbfe6"/>
   </g>
   <g id="patch_36">
    <path d="M 195.317063 238.84 
L 200.308951 238.84 
L 200.308951 99.677319 
L 195.317063 99.677319 
z
" clip-path="url(#p16bf2355e9)" style="fill: #ffbfe6"/>
   </g>
   <g id="patch_37">
    <path d="M 228.596317 238.84 
L 233.588205 238.84 
L 233.588205 159.315481 
L 228.596317 159.315481 
z
" clip-path="url(#p16bf2355e9)" style="fill: #ffbfe6"/>
   </g>
   <g id="patch_38">
    <path d="M 261.875571 238.84 
L 266.867459 238.84 
L 266.867459 192.507613 
L 261.875571 192.507613 
z
" clip-path="url(#p16bf2355e9)" style="fill: #ffbfe6"/>
   </g>
   <g id="patch_39">
    <path d="M 295.154825 238.84 
L 300.146713 238.84 
L 300.146713 212.684613 
L 295.154825 212.684613 
z
" clip-path="url(#p16bf2355e9)" style="fill: #ffbfe6"/>
   </g>
   <g id="patch_40">
    <path d="M 328.434079 238.84 
L 333.425967 238.84 
L 333.425967 214.676009 
L 328.434079 214.676009 
z
" clip-path="url(#p16bf2355e9)" style="fill: #ffbfe6"/>
   </g>
   <g id="patch_41">
    <path d="M 361.713333 238.84 
L 366.705221 238.84 
L 366.705221 217.714641 
L 361.713333 217.714641 
z
" clip-path="url(#p16bf2355e9)" style="fill: #ffbfe6"/>
   </g>
   <g id="patch_42">
    <path d="M 394.992587 238.84 
L 399.984476 238.84 
L 399.984476 218.961954 
L 394.992587 218.961954 
z
" clip-path="url(#p16bf2355e9)" style="fill: #ffbfe6"/>
   </g>
   <g id="patch_43">
    <path d="M 100.471189 238.84 
L 105.463077 238.84 
L 105.463077 213.835155 
L 100.471189 213.835155 
z
" clip-path="url(#p16bf2355e9)" style="fill: #ffbfc4"/>
   </g>
   <g id="patch_44">
    <path d="M 133.750443 238.84 
L 138.742331 238.84 
L 138.742331 183.401714 
L 133.750443 183.401714 
z
" clip-path="url(#p16bf2355e9)" style="fill: #ffbfc4"/>
   </g>
   <g id="patch_45">
    <path d="M 167.029697 238.84 
L 172.021585 238.84 
L 172.021585 76.404513 
L 167.029697 76.404513 
z
" clip-path="url(#p16bf2355e9)" style="fill: #ffbfc4"/>
   </g>
   <g id="patch_46">
    <path d="M 200.308951 238.84 
L 205.300839 238.84 
L 205.300839 39.411029 
L 200.308951 39.411029 
z
" clip-path="url(#p16bf2355e9)" style="fill: #ffbfc4"/>
   </g>
   <g id="patch_47">
    <path d="M 233.588205 238.84 
L 238.580093 238.84 
L 238.580093 85.591714 
L 233.588205 85.591714 
z
" clip-path="url(#p16bf2355e9)" style="fill: #ffbfc4"/>
   </g>
   <g id="patch_48">
    <path d="M 266.867459 238.84 
L 271.859347 238.84 
L 271.859347 161.022926 
L 266.867459 161.022926 
z
" clip-path="url(#p16bf2355e9)" style="fill: #ffbfc4"/>
   </g>
   <g id="patch_49">
    <path d="M 300.146713 238.84 
L 305.138601 238.84 
L 305.138601 198.921097 
L 300.146713 198.921097 
z
" clip-path="url(#p16bf2355e9)" style="fill: #ffbfc4"/>
   </g>
   <g id="patch_50">
    <path d="M 333.425967 238.84 
L 338.417855 238.84 
L 338.417855 206.53687 
L 333.425967 206.53687 
z
" clip-path="url(#p16bf2355e9)" style="fill: #ffbfc4"/>
   </g>
   <g id="patch_51">
    <path d="M 366.705221 238.84 
L 371.69711 238.84 
L 371.69711 213.919237 
L 366.705221 213.919237 
z
" clip-path="url(#p16bf2355e9)" style="fill: #ffbfc4"/>
   </g>
   <g id="patch_52">
    <path d="M 399.984476 238.84 
L 404.976364 238.84 
L 404.976364 216.622272 
L 399.984476 216.622272 
z
" clip-path="url(#p16bf2355e9)" style="fill: #ffbfc4"/>
   </g>
   <g id="matplotlib.axis_1">
    <g id="xtick_1">
     <g id="line2d_1">
      <defs>
       <path id="m39f08626a0" d="M 0 0 
L 0 3.5 
" style="stroke: #000000; stroke-width: 1.5"/>
      </defs>
      <g>
       <use xlink:href="#m39f08626a0" x="92.983357" y="238.84" style="stroke: #000000; stroke-width: 1.5"/>
      </g>
     </g>
     <g id="text_1">
      <!-- 1 -->
      <g transform="translate(89.0907 255.985625) scale(0.14 -0.14)">
       <defs>
        <path id="LiberationSans-31" d="M 488 0 
L 488 478 
L 1609 478 
L 1609 3866 
L 616 3156 
L 616 3688 
L 1656 4403 
L 2175 4403 
L 2175 478 
L 3247 478 
L 3247 0 
L 488 0 
z
" transform="scale(0.015625)"/>
       </defs>
       <use xlink:href="#LiberationSans-31"/>
      </g>
     </g>
    </g>
    <g id="xtick_2">
     <g id="line2d_2">
      <g>
       <use xlink:href="#m39f08626a0" x="126.262611" y="238.84" style="stroke: #000000; stroke-width: 1.5"/>
      </g>
     </g>
     <g id="text_2">
      <!-- 2 -->
      <g transform="translate(122.369954 255.985625) scale(0.14 -0.14)">
       <defs>
        <path id="LiberationSans-32" d="M 322 0 
L 322 397 
Q 481 763 711 1042 
Q 941 1322 1194 1548 
Q 1447 1775 1695 1969 
Q 1944 2163 2144 2356 
Q 2344 2550 2467 2762 
Q 2591 2975 2591 3244 
Q 2591 3606 2378 3806 
Q 2166 4006 1788 4006 
Q 1428 4006 1195 3811 
Q 963 3616 922 3263 
L 347 3316 
Q 409 3844 795 4156 
Q 1181 4469 1788 4469 
Q 2453 4469 2811 4155 
Q 3169 3841 3169 3263 
Q 3169 3006 3051 2753 
Q 2934 2500 2703 2247 
Q 2472 1994 1819 1463 
Q 1459 1169 1246 933 
Q 1034 697 941 478 
L 3238 478 
L 3238 0 
L 322 0 
z
" transform="scale(0.015625)"/>
       </defs>
       <use xlink:href="#LiberationSans-32"/>
      </g>
     </g>
    </g>
    <g id="xtick_3">
     <g id="line2d_3">
      <g>
       <use xlink:href="#m39f08626a0" x="159.541865" y="238.84" style="stroke: #000000; stroke-width: 1.5"/>
      </g>
     </g>
     <g id="text_3">
      <!-- 3 -->
      <g transform="translate(155.649209 255.985625) scale(0.14 -0.14)">
       <defs>
        <path id="LiberationSans-33" d="M 3278 1216 
Q 3278 606 2890 271 
Q 2503 -63 1784 -63 
Q 1116 -63 717 239 
Q 319 541 244 1131 
L 825 1184 
Q 938 403 1784 403 
Q 2209 403 2451 612 
Q 2694 822 2694 1234 
Q 2694 1594 2417 1795 
Q 2141 1997 1619 1997 
L 1300 1997 
L 1300 2484 
L 1606 2484 
Q 2069 2484 2323 2686 
Q 2578 2888 2578 3244 
Q 2578 3597 2370 3801 
Q 2163 4006 1753 4006 
Q 1381 4006 1151 3815 
Q 922 3625 884 3278 
L 319 3322 
Q 381 3863 767 4166 
Q 1153 4469 1759 4469 
Q 2422 4469 2789 4161 
Q 3156 3853 3156 3303 
Q 3156 2881 2920 2617 
Q 2684 2353 2234 2259 
L 2234 2247 
Q 2728 2194 3003 1916 
Q 3278 1638 3278 1216 
z
" transform="scale(0.015625)"/>
       </defs>
       <use xlink:href="#LiberationSans-33"/>
      </g>
     </g>
    </g>
    <g id="xtick_4">
     <g id="line2d_4">
      <g>
       <use xlink:href="#m39f08626a0" x="192.821119" y="238.84" style="stroke: #000000; stroke-width: 1.5"/>
      </g>
     </g>
     <g id="text_4">
      <!-- 4 -->
      <g transform="translate(188.928463 255.985625) scale(0.14 -0.14)">
       <defs>
        <path id="LiberationSans-34" d="M 2753 997 
L 2753 0 
L 2222 0 
L 2222 997 
L 147 997 
L 147 1434 
L 2163 4403 
L 2753 4403 
L 2753 1441 
L 3372 1441 
L 3372 997 
L 2753 997 
z
M 2222 3769 
Q 2216 3750 2134 3603 
Q 2053 3456 2013 3397 
L 884 1734 
L 716 1503 
L 666 1441 
L 2222 1441 
L 2222 3769 
z
" transform="scale(0.015625)"/>
       </defs>
       <use xlink:href="#LiberationSans-34"/>
      </g>
     </g>
    </g>
    <g id="xtick_5">
     <g id="line2d_5">
      <g>
       <use xlink:href="#m39f08626a0" x="226.100373" y="238.84" style="stroke: #000000; stroke-width: 1.5"/>
      </g>
     </g>
     <g id="text_5">
      <!-- 5 -->
      <g transform="translate(222.207717 255.985625) scale(0.14 -0.14)">
       <defs>
        <path id="LiberationSans-35" d="M 3291 1434 
Q 3291 738 2877 337 
Q 2463 -63 1728 -63 
Q 1113 -63 734 206 
Q 356 475 256 984 
L 825 1050 
Q 1003 397 1741 397 
Q 2194 397 2450 670 
Q 2706 944 2706 1422 
Q 2706 1838 2448 2094 
Q 2191 2350 1753 2350 
Q 1525 2350 1328 2278 
Q 1131 2206 934 2034 
L 384 2034 
L 531 4403 
L 3034 4403 
L 3034 3925 
L 1044 3925 
L 959 2528 
Q 1325 2809 1869 2809 
Q 2519 2809 2905 2428 
Q 3291 2047 3291 1434 
z
" transform="scale(0.015625)"/>
       </defs>
       <use xlink:href="#LiberationSans-35"/>
      </g>
     </g>
    </g>
    <g id="xtick_6">
     <g id="line2d_6">
      <g>
       <use xlink:href="#m39f08626a0" x="259.379627" y="238.84" style="stroke: #000000; stroke-width: 1.5"/>
      </g>
     </g>
     <g id="text_6">
      <!-- 6 -->
      <g transform="translate(255.486971 255.985625) scale(0.14 -0.14)">
       <defs>
        <path id="LiberationSans-36" d="M 3278 1441 
Q 3278 744 2900 340 
Q 2522 -63 1856 -63 
Q 1113 -63 719 490 
Q 325 1044 325 2100 
Q 325 3244 734 3856 
Q 1144 4469 1900 4469 
Q 2897 4469 3156 3572 
L 2619 3475 
Q 2453 4013 1894 4013 
Q 1413 4013 1148 3564 
Q 884 3116 884 2266 
Q 1038 2550 1316 2698 
Q 1594 2847 1953 2847 
Q 2563 2847 2920 2465 
Q 3278 2084 3278 1441 
z
M 2706 1416 
Q 2706 1894 2472 2153 
Q 2238 2413 1819 2413 
Q 1425 2413 1183 2183 
Q 941 1953 941 1550 
Q 941 1041 1192 716 
Q 1444 391 1838 391 
Q 2244 391 2475 664 
Q 2706 938 2706 1416 
z
" transform="scale(0.015625)"/>
       </defs>
       <use xlink:href="#LiberationSans-36"/>
      </g>
     </g>
    </g>
    <g id="xtick_7">
     <g id="line2d_7">
      <g>
       <use xlink:href="#m39f08626a0" x="292.658881" y="238.84" style="stroke: #000000; stroke-width: 1.5"/>
      </g>
     </g>
     <g id="text_7">
      <!-- 7 -->
      <g transform="translate(288.766225 255.985625) scale(0.14 -0.14)">
       <defs>
        <path id="LiberationSans-37" d="M 3238 3947 
Q 2563 2916 2284 2331 
Q 2006 1747 1867 1178 
Q 1728 609 1728 0 
L 1141 0 
Q 1141 844 1498 1776 
Q 1856 2709 2694 3925 
L 328 3925 
L 328 4403 
L 3238 4403 
L 3238 3947 
z
" transform="scale(0.015625)"/>
       </defs>
       <use xlink:href="#LiberationSans-37"/>
      </g>
     </g>
    </g>
    <g id="xtick_8">
     <g id="line2d_8">
      <g>
       <use xlink:href="#m39f08626a0" x="325.938135" y="238.84" style="stroke: #000000; stroke-width: 1.5"/>
      </g>
     </g>
     <g id="text_8">
      <!-- 8 -->
      <g transform="translate(322.045479 255.985625) scale(0.14 -0.14)">
       <defs>
        <path id="LiberationSans-38" d="M 3281 1228 
Q 3281 619 2893 278 
Q 2506 -63 1781 -63 
Q 1075 -63 676 271 
Q 278 606 278 1222 
Q 278 1653 525 1947 
Q 772 2241 1156 2303 
L 1156 2316 
Q 797 2400 589 2681 
Q 381 2963 381 3341 
Q 381 3844 757 4156 
Q 1134 4469 1769 4469 
Q 2419 4469 2795 4162 
Q 3172 3856 3172 3334 
Q 3172 2956 2962 2675 
Q 2753 2394 2391 2322 
L 2391 2309 
Q 2813 2241 3047 1952 
Q 3281 1663 3281 1228 
z
M 2588 3303 
Q 2588 4050 1769 4050 
Q 1372 4050 1164 3862 
Q 956 3675 956 3303 
Q 956 2925 1170 2726 
Q 1384 2528 1775 2528 
Q 2172 2528 2380 2711 
Q 2588 2894 2588 3303 
z
M 2697 1281 
Q 2697 1691 2453 1898 
Q 2209 2106 1769 2106 
Q 1341 2106 1100 1882 
Q 859 1659 859 1269 
Q 859 359 1788 359 
Q 2247 359 2472 579 
Q 2697 800 2697 1281 
z
" transform="scale(0.015625)"/>
       </defs>
       <use xlink:href="#LiberationSans-38"/>
      </g>
     </g>
    </g>
    <g id="xtick_9">
     <g id="line2d_9">
      <g>
       <use xlink:href="#m39f08626a0" x="359.217389" y="238.84" style="stroke: #000000; stroke-width: 1.5"/>
      </g>
     </g>
     <g id="text_9">
      <!-- 9 -->
      <g transform="translate(355.324733 255.985625) scale(0.14 -0.14)">
       <defs>
        <path id="LiberationSans-39" d="M 3256 2291 
Q 3256 1156 2842 546 
Q 2428 -63 1663 -63 
Q 1147 -63 836 154 
Q 525 372 391 856 
L 928 941 
Q 1097 391 1672 391 
Q 2156 391 2422 841 
Q 2688 1291 2700 2125 
Q 2575 1844 2272 1673 
Q 1969 1503 1606 1503 
Q 1013 1503 656 1909 
Q 300 2316 300 2988 
Q 300 3678 687 4073 
Q 1075 4469 1766 4469 
Q 2500 4469 2878 3925 
Q 3256 3381 3256 2291 
z
M 2644 2834 
Q 2644 3366 2400 3689 
Q 2156 4013 1747 4013 
Q 1341 4013 1106 3736 
Q 872 3459 872 2988 
Q 872 2506 1106 2226 
Q 1341 1947 1741 1947 
Q 1984 1947 2193 2058 
Q 2403 2169 2523 2372 
Q 2644 2575 2644 2834 
z
" transform="scale(0.015625)"/>
       </defs>
       <use xlink:href="#LiberationSans-39"/>
      </g>
     </g>
    </g>
    <g id="xtick_10">
     <g id="line2d_10">
      <g>
       <use xlink:href="#m39f08626a0" x="392.496643" y="238.84" style="stroke: #000000; stroke-width: 1.5"/>
      </g>
     </g>
     <g id="text_10">
      <!-- 10 -->
      <g transform="translate(384.711331 255.985625) scale(0.14 -0.14)">
       <defs>
        <path id="LiberationSans-30" d="M 3309 2203 
Q 3309 1100 2920 518 
Q 2531 -63 1772 -63 
Q 1013 -63 631 515 
Q 250 1094 250 2203 
Q 250 3338 620 3903 
Q 991 4469 1791 4469 
Q 2569 4469 2939 3897 
Q 3309 3325 3309 2203 
z
M 2738 2203 
Q 2738 3156 2517 3584 
Q 2297 4013 1791 4013 
Q 1272 4013 1045 3591 
Q 819 3169 819 2203 
Q 819 1266 1048 831 
Q 1278 397 1778 397 
Q 2275 397 2506 840 
Q 2738 1284 2738 2203 
z
" transform="scale(0.015625)"/>
       </defs>
       <use xlink:href="#LiberationSans-31"/>
       <use xlink:href="#LiberationSans-30" x="55.615234"/>
      </g>
     </g>
    </g>
    <g id="text_11">
     <!-- Layer -->
     <g transform="translate(222.73 274.485625) scale(0.16 -0.16)">
      <defs>
       <path id="LiberationSans-4c" d="M 525 0 
L 525 4403 
L 1122 4403 
L 1122 488 
L 3347 488 
L 3347 0 
L 525 0 
z
" transform="scale(0.015625)"/>
       <path id="LiberationSans-61" d="M 1294 -63 
Q 784 -63 528 206 
Q 272 475 272 944 
Q 272 1469 617 1750 
Q 963 2031 1731 2050 
L 2491 2063 
L 2491 2247 
Q 2491 2659 2316 2837 
Q 2141 3016 1766 3016 
Q 1388 3016 1216 2887 
Q 1044 2759 1009 2478 
L 422 2531 
Q 566 3444 1778 3444 
Q 2416 3444 2737 3151 
Q 3059 2859 3059 2306 
L 3059 850 
Q 3059 600 3125 473 
Q 3191 347 3375 347 
Q 3456 347 3559 369 
L 3559 19 
Q 3347 -31 3125 -31 
Q 2813 -31 2670 133 
Q 2528 297 2509 647 
L 2491 647 
Q 2275 259 1989 98 
Q 1703 -63 1294 -63 
z
M 1422 359 
Q 1731 359 1972 500 
Q 2213 641 2352 886 
Q 2491 1131 2491 1391 
L 2491 1669 
L 1875 1656 
Q 1478 1650 1273 1575 
Q 1069 1500 959 1344 
Q 850 1188 850 934 
Q 850 659 998 509 
Q 1147 359 1422 359 
z
" transform="scale(0.015625)"/>
       <path id="LiberationSans-79" d="M 597 -1328 
Q 366 -1328 209 -1294 
L 209 -872 
Q 328 -891 472 -891 
Q 997 -891 1303 -119 
L 1356 16 
L 16 3381 
L 616 3381 
L 1328 1513 
Q 1344 1469 1366 1408 
Q 1388 1347 1506 1000 
Q 1625 653 1634 613 
L 1853 1228 
L 2594 3381 
L 3188 3381 
L 1888 0 
Q 1678 -541 1497 -805 
Q 1316 -1069 1095 -1198 
Q 875 -1328 597 -1328 
z
" transform="scale(0.015625)"/>
       <path id="LiberationSans-65" d="M 863 1572 
Q 863 991 1103 675 
Q 1344 359 1806 359 
Q 2172 359 2392 506 
Q 2613 653 2691 878 
L 3184 738 
Q 2881 -63 1806 -63 
Q 1056 -63 664 384 
Q 272 831 272 1713 
Q 272 2550 664 2997 
Q 1056 3444 1784 3444 
Q 3275 3444 3275 1647 
L 3275 1572 
L 863 1572 
z
M 2694 2003 
Q 2647 2538 2422 2783 
Q 2197 3028 1775 3028 
Q 1366 3028 1127 2754 
Q 888 2481 869 2003 
L 2694 2003 
z
" transform="scale(0.015625)"/>
       <path id="LiberationSans-72" d="M 444 0 
L 444 2594 
Q 444 2950 425 3381 
L 956 3381 
Q 981 2806 981 2691 
L 994 2691 
Q 1128 3125 1303 3284 
Q 1478 3444 1797 3444 
Q 1909 3444 2025 3413 
L 2025 2897 
Q 1913 2928 1725 2928 
Q 1375 2928 1190 2626 
Q 1006 2325 1006 1763 
L 1006 0 
L 444 0 
z
" transform="scale(0.015625)"/>
      </defs>
      <use xlink:href="#LiberationSans-4c"/>
      <use xlink:href="#LiberationSans-61" x="55.615234"/>
      <use xlink:href="#LiberationSans-79" x="111.230469"/>
      <use xlink:href="#LiberationSans-65" x="161.230469"/>
      <use xlink:href="#LiberationSans-72" x="216.845703"/>
     </g>
    </g>
   </g>
   <g id="matplotlib.axis_2">
    <g id="ytick_1">
     <g id="line2d_11">
      <defs>
       <path id="m585c5303d9" d="M 0 0 
L -3.5 0 
" style="stroke: #000000; stroke-width: 1.5"/>
      </defs>
      <g>
       <use xlink:href="#m585c5303d9" x="64.28" y="238.84" style="stroke: #000000; stroke-width: 1.5"/>
      </g>
     </g>
     <g id="text_12">
      <!-- 0 -->
      <g transform="translate(49.494687 243.912812) scale(0.14 -0.14)">
       <use xlink:href="#LiberationSans-30"/>
      </g>
     </g>
    </g>
    <g id="ytick_2">
     <g id="line2d_12">
      <g>
       <use xlink:href="#m585c5303d9" x="64.28" y="207.034428" style="stroke: #000000; stroke-width: 1.5"/>
      </g>
     </g>
     <g id="text_13">
      <!-- 2 -->
      <g transform="translate(49.494687 212.107241) scale(0.14 -0.14)">
       <use xlink:href="#LiberationSans-32"/>
      </g>
     </g>
    </g>
    <g id="ytick_3">
     <g id="line2d_13">
      <g>
       <use xlink:href="#m585c5303d9" x="64.28" y="175.228857" style="stroke: #000000; stroke-width: 1.5"/>
      </g>
     </g>
     <g id="text_14">
      <!-- 4 -->
      <g transform="translate(49.494687 180.301669) scale(0.14 -0.14)">
       <use xlink:href="#LiberationSans-34"/>
      </g>
     </g>
    </g>
    <g id="ytick_4">
     <g id="line2d_14">
      <g>
       <use xlink:href="#m585c5303d9" x="64.28" y="143.423285" style="stroke: #000000; stroke-width: 1.5"/>
      </g>
     </g>
     <g id="text_15">
      <!-- 6 -->
      <g transform="translate(49.494687 148.496098) scale(0.14 -0.14)">
       <use xlink:href="#LiberationSans-36"/>
      </g>
     </g>
    </g>
    <g id="ytick_5">
     <g id="line2d_15">
      <g>
       <use xlink:href="#m585c5303d9" x="64.28" y="111.617714" style="stroke: #000000; stroke-width: 1.5"/>
      </g>
     </g>
     <g id="text_16">
      <!-- 8 -->
      <g transform="translate(49.494687 116.690526) scale(0.14 -0.14)">
       <use xlink:href="#LiberationSans-38"/>
      </g>
     </g>
    </g>
    <g id="ytick_6">
     <g id="line2d_16">
      <g>
       <use xlink:href="#m585c5303d9" x="64.28" y="79.812142" style="stroke: #000000; stroke-width: 1.5"/>
      </g>
     </g>
     <g id="text_17">
      <!-- 10 -->
      <g transform="translate(41.709375 84.884955) scale(0.14 -0.14)">
       <use xlink:href="#LiberationSans-31"/>
       <use xlink:href="#LiberationSans-30" x="55.615234"/>
      </g>
     </g>
    </g>
    <g id="ytick_7">
     <g id="line2d_17">
      <g>
       <use xlink:href="#m585c5303d9" x="64.28" y="48.006571" style="stroke: #000000; stroke-width: 1.5"/>
      </g>
     </g>
     <g id="text_18">
      <!-- 12 -->
      <g transform="translate(41.709375 53.079383) scale(0.14 -0.14)">
       <use xlink:href="#LiberationSans-31"/>
       <use xlink:href="#LiberationSans-32" x="55.615234"/>
      </g>
     </g>
    </g>
    <g id="ytick_8">
     <g id="line2d_18">
      <g>
       <use xlink:href="#m585c5303d9" x="64.28" y="16.200999" style="stroke: #000000; stroke-width: 1.5"/>
      </g>
     </g>
     <g id="text_19">
      <!-- 14 -->
      <g transform="translate(41.709375 21.273812) scale(0.14 -0.14)">
       <use xlink:href="#LiberationSans-31"/>
       <use xlink:href="#LiberationSans-34" x="55.615234"/>
      </g>
     </g>
    </g>
    <g id="text_20">
     <!-- Bias Magnitude -->
     <g transform="translate(34.389375 179.96125) rotate(-90) scale(0.16 -0.16)">
      <defs>
       <path id="LiberationSans-42" d="M 3931 1241 
Q 3931 653 3503 326 
Q 3075 0 2313 0 
L 525 0 
L 525 4403 
L 2125 4403 
Q 3675 4403 3675 3334 
Q 3675 2944 3456 2678 
Q 3238 2413 2838 2322 
Q 3363 2259 3647 1970 
Q 3931 1681 3931 1241 
z
M 3075 3263 
Q 3075 3619 2831 3772 
Q 2588 3925 2125 3925 
L 1122 3925 
L 1122 2531 
L 2125 2531 
Q 2603 2531 2839 2711 
Q 3075 2891 3075 3263 
z
M 3328 1288 
Q 3328 2066 2234 2066 
L 1122 2066 
L 1122 478 
L 2281 478 
Q 2828 478 3078 681 
Q 3328 884 3328 1288 
z
" transform="scale(0.015625)"/>
       <path id="LiberationSans-69" d="M 428 4100 
L 428 4638 
L 991 4638 
L 991 4100 
L 428 4100 
z
M 428 0 
L 428 3381 
L 991 3381 
L 991 0 
L 428 0 
z
" transform="scale(0.015625)"/>
       <path id="LiberationSans-73" d="M 2969 934 
Q 2969 456 2608 196 
Q 2247 -63 1597 -63 
Q 966 -63 623 145 
Q 281 353 178 794 
L 675 891 
Q 747 619 972 492 
Q 1197 366 1597 366 
Q 2025 366 2223 497 
Q 2422 628 2422 891 
Q 2422 1091 2284 1216 
Q 2147 1341 1841 1422 
L 1438 1528 
Q 953 1653 748 1773 
Q 544 1894 428 2066 
Q 313 2238 313 2488 
Q 313 2950 642 3192 
Q 972 3434 1603 3434 
Q 2163 3434 2492 3237 
Q 2822 3041 2909 2606 
L 2403 2544 
Q 2356 2769 2151 2889 
Q 1947 3009 1603 3009 
Q 1222 3009 1040 2893 
Q 859 2778 859 2544 
Q 859 2400 934 2306 
Q 1009 2213 1156 2147 
Q 1303 2081 1775 1966 
Q 2222 1853 2419 1758 
Q 2616 1663 2730 1547 
Q 2844 1431 2906 1279 
Q 2969 1128 2969 934 
z
" transform="scale(0.015625)"/>
       <path id="LiberationSans-20" transform="scale(0.015625)"/>
       <path id="LiberationSans-4d" d="M 4269 0 
L 4269 2938 
Q 4269 3425 4297 3875 
Q 4144 3316 4022 3000 
L 2884 0 
L 2466 0 
L 1313 3000 
L 1138 3531 
L 1034 3875 
L 1044 3528 
L 1056 2938 
L 1056 0 
L 525 0 
L 525 4403 
L 1309 4403 
L 2481 1350 
Q 2544 1166 2601 955 
Q 2659 744 2678 650 
Q 2703 775 2783 1029 
Q 2863 1284 2891 1350 
L 4041 4403 
L 4806 4403 
L 4806 0 
L 4269 0 
z
" transform="scale(0.015625)"/>
       <path id="LiberationSans-67" d="M 1713 -1328 
Q 1159 -1328 831 -1111 
Q 503 -894 409 -494 
L 975 -413 
Q 1031 -647 1223 -773 
Q 1416 -900 1728 -900 
Q 2569 -900 2569 84 
L 2569 628 
L 2563 628 
Q 2403 303 2125 139 
Q 1847 -25 1475 -25 
Q 853 -25 561 387 
Q 269 800 269 1684 
Q 269 2581 583 3007 
Q 897 3434 1538 3434 
Q 1897 3434 2161 3270 
Q 2425 3106 2569 2803 
L 2575 2803 
Q 2575 2897 2587 3128 
Q 2600 3359 2613 3381 
L 3147 3381 
Q 3128 3213 3128 2681 
L 3128 97 
Q 3128 -1328 1713 -1328 
z
M 2569 1691 
Q 2569 2103 2456 2401 
Q 2344 2700 2139 2858 
Q 1934 3016 1675 3016 
Q 1244 3016 1047 2703 
Q 850 2391 850 1691 
Q 850 997 1034 694 
Q 1219 391 1666 391 
Q 1931 391 2137 547 
Q 2344 703 2456 995 
Q 2569 1288 2569 1691 
z
" transform="scale(0.015625)"/>
       <path id="LiberationSans-6e" d="M 2578 0 
L 2578 2144 
Q 2578 2478 2512 2662 
Q 2447 2847 2303 2928 
Q 2159 3009 1881 3009 
Q 1475 3009 1240 2731 
Q 1006 2453 1006 1959 
L 1006 0 
L 444 0 
L 444 2659 
Q 444 3250 425 3381 
L 956 3381 
Q 959 3366 962 3297 
Q 966 3228 970 3139 
Q 975 3050 981 2803 
L 991 2803 
Q 1184 3153 1439 3298 
Q 1694 3444 2072 3444 
Q 2628 3444 2886 3167 
Q 3144 2891 3144 2253 
L 3144 0 
L 2578 0 
z
" transform="scale(0.015625)"/>
       <path id="LiberationSans-74" d="M 1731 25 
Q 1453 -50 1163 -50 
Q 488 -50 488 716 
L 488 2972 
L 97 2972 
L 97 3381 
L 509 3381 
L 675 4138 
L 1050 4138 
L 1050 3381 
L 1675 3381 
L 1675 2972 
L 1050 2972 
L 1050 838 
Q 1050 594 1129 495 
Q 1209 397 1406 397 
Q 1519 397 1731 441 
L 1731 25 
z
" transform="scale(0.015625)"/>
       <path id="LiberationSans-75" d="M 981 3381 
L 981 1238 
Q 981 903 1047 718 
Q 1113 534 1256 453 
Q 1400 372 1678 372 
Q 2084 372 2318 650 
Q 2553 928 2553 1422 
L 2553 3381 
L 3116 3381 
L 3116 722 
Q 3116 131 3134 0 
L 2603 0 
Q 2600 16 2597 84 
Q 2594 153 2589 242 
Q 2584 331 2578 578 
L 2569 578 
Q 2375 228 2120 82 
Q 1866 -63 1488 -63 
Q 931 -63 673 214 
Q 416 491 416 1128 
L 416 3381 
L 981 3381 
z
" transform="scale(0.015625)"/>
       <path id="LiberationSans-64" d="M 2566 544 
Q 2409 219 2151 78 
Q 1894 -63 1513 -63 
Q 872 -63 570 368 
Q 269 800 269 1675 
Q 269 3444 1513 3444 
Q 1897 3444 2153 3303 
Q 2409 3163 2566 2856 
L 2572 2856 
L 2566 3234 
L 2566 4638 
L 3128 4638 
L 3128 697 
Q 3128 169 3147 0 
L 2609 0 
Q 2600 50 2589 231 
Q 2578 413 2578 544 
L 2566 544 
z
M 859 1694 
Q 859 984 1046 678 
Q 1234 372 1656 372 
Q 2134 372 2350 703 
Q 2566 1034 2566 1731 
Q 2566 2403 2350 2715 
Q 2134 3028 1663 3028 
Q 1238 3028 1048 2714 
Q 859 2400 859 1694 
z
" transform="scale(0.015625)"/>
      </defs>
      <use xlink:href="#LiberationSans-42"/>
      <use xlink:href="#LiberationSans-69" x="66.699219"/>
      <use xlink:href="#LiberationSans-61" x="88.916016"/>
      <use xlink:href="#LiberationSans-73" x="144.53125"/>
      <use xlink:href="#LiberationSans-20" x="194.53125"/>
      <use xlink:href="#LiberationSans-4d" x="222.314453"/>
      <use xlink:href="#LiberationSans-61" x="305.615234"/>
      <use xlink:href="#LiberationSans-67" x="361.230469"/>
      <use xlink:href="#LiberationSans-6e" x="416.845703"/>
      <use xlink:href="#LiberationSans-69" x="472.460938"/>
      <use xlink:href="#LiberationSans-74" x="494.677734"/>
      <use xlink:href="#LiberationSans-75" x="522.460938"/>
      <use xlink:href="#LiberationSans-64" x="578.076172"/>
      <use xlink:href="#LiberationSans-65" x="633.691406"/>
     </g>
    </g>
   </g>
   <g id="LineCollection_1">
    <path d="M 82.99958 211.964522 
L 82.99958 207.01634 
" clip-path="url(#p16bf2355e9)" style="fill: none; stroke: #000000; stroke-width: 1.5"/>
    <path d="M 116.278834 182.240705 
L 116.278834 147.688096 
" clip-path="url(#p16bf2355e9)" style="fill: none; stroke: #000000; stroke-width: 1.5"/>
    <path d="M 149.558089 85.900042 
L 149.558089 55.459173 
" clip-path="url(#p16bf2355e9)" style="fill: none; stroke: #000000; stroke-width: 1.5"/>
    <path d="M 182.837343 78.396107 
L 182.837343 45.615108 
" clip-path="url(#p16bf2355e9)" style="fill: none; stroke: #000000; stroke-width: 1.5"/>
    <path d="M 216.116597 143.825729 
L 216.116597 103.15668 
" clip-path="url(#p16bf2355e9)" style="fill: none; stroke: #000000; stroke-width: 1.5"/>
    <path d="M 249.395851 191.101453 
L 249.395851 161.523733 
" clip-path="url(#p16bf2355e9)" style="fill: none; stroke: #000000; stroke-width: 1.5"/>
    <path d="M 282.675105 212.091362 
L 282.675105 201.281505 
" clip-path="url(#p16bf2355e9)" style="fill: none; stroke: #000000; stroke-width: 1.5"/>
    <path d="M 315.954359 218.26049 
L 315.954359 208.085031 
" clip-path="url(#p16bf2355e9)" style="fill: none; stroke: #000000; stroke-width: 1.5"/>
    <path d="M 349.233613 221.854248 
L 349.233613 214.484023 
" clip-path="url(#p16bf2355e9)" style="fill: none; stroke: #000000; stroke-width: 1.5"/>
    <path d="M 382.512867 220.560652 
L 382.512867 216.623194 
" clip-path="url(#p16bf2355e9)" style="fill: none; stroke: #000000; stroke-width: 1.5"/>
   </g>
   <g id="line2d_19">
    <defs>
     <path id="m701942103e" d="M 2 0 
L -2 -0 
" style="stroke: #000000"/>
    </defs>
    <g clip-path="url(#p16bf2355e9)">
     <use xlink:href="#m701942103e" x="82.99958" y="211.964522" style="stroke: #000000"/>
     <use xlink:href="#m701942103e" x="116.278834" y="182.240705" style="stroke: #000000"/>
     <use xlink:href="#m701942103e" x="149.558089" y="85.900042" style="stroke: #000000"/>
     <use xlink:href="#m701942103e" x="182.837343" y="78.396107" style="stroke: #000000"/>
     <use xlink:href="#m701942103e" x="216.116597" y="143.825729" style="stroke: #000000"/>
     <use xlink:href="#m701942103e" x="249.395851" y="191.101453" style="stroke: #000000"/>
     <use xlink:href="#m701942103e" x="282.675105" y="212.091362" style="stroke: #000000"/>
     <use xlink:href="#m701942103e" x="315.954359" y="218.26049" style="stroke: #000000"/>
     <use xlink:href="#m701942103e" x="349.233613" y="221.854248" style="stroke: #000000"/>
     <use xlink:href="#m701942103e" x="382.512867" y="220.560652" style="stroke: #000000"/>
    </g>
   </g>
   <g id="line2d_20">
    <g clip-path="url(#p16bf2355e9)">
     <use xlink:href="#m701942103e" x="82.99958" y="207.01634" style="stroke: #000000"/>
     <use xlink:href="#m701942103e" x="116.278834" y="147.688096" style="stroke: #000000"/>
     <use xlink:href="#m701942103e" x="149.558089" y="55.459173" style="stroke: #000000"/>
     <use xlink:href="#m701942103e" x="182.837343" y="45.615108" style="stroke: #000000"/>
     <use xlink:href="#m701942103e" x="216.116597" y="103.15668" style="stroke: #000000"/>
     <use xlink:href="#m701942103e" x="249.395851" y="161.523733" style="stroke: #000000"/>
     <use xlink:href="#m701942103e" x="282.675105" y="201.281505" style="stroke: #000000"/>
     <use xlink:href="#m701942103e" x="315.954359" y="208.085031" style="stroke: #000000"/>
     <use xlink:href="#m701942103e" x="349.233613" y="214.484023" style="stroke: #000000"/>
     <use xlink:href="#m701942103e" x="382.512867" y="216.623194" style="stroke: #000000"/>
    </g>
   </g>
   <g id="LineCollection_2">
    <path d="M 87.991469 213.279089 
L 87.991469 208.45069 
" clip-path="url(#p16bf2355e9)" style="fill: none; stroke: #000000; stroke-width: 1.5"/>
    <path d="M 121.270723 189.654408 
L 121.270723 165.839789 
" clip-path="url(#p16bf2355e9)" style="fill: none; stroke: #000000; stroke-width: 1.5"/>
    <path d="M 154.549977 96.394929 
L 154.549977 78.347946 
" clip-path="url(#p16bf2355e9)" style="fill: none; stroke: #000000; stroke-width: 1.5"/>
    <path d="M 187.829231 115.795664 
L 187.829231 84.481664 
" clip-path="url(#p16bf2355e9)" style="fill: none; stroke: #000000; stroke-width: 1.5"/>
    <path d="M 221.108485 175.469669 
L 221.108485 143.129446 
" clip-path="url(#p16bf2355e9)" style="fill: none; stroke: #000000; stroke-width: 1.5"/>
    <path d="M 254.387739 199.969301 
L 254.387739 178.777615 
" clip-path="url(#p16bf2355e9)" style="fill: none; stroke: #000000; stroke-width: 1.5"/>
    <path d="M 287.666993 216.582883 
L 287.666993 205.273771 
" clip-path="url(#p16bf2355e9)" style="fill: none; stroke: #000000; stroke-width: 1.5"/>
    <path d="M 320.946247 217.104555 
L 320.946247 210.812747 
" clip-path="url(#p16bf2355e9)" style="fill: none; stroke: #000000; stroke-width: 1.5"/>
    <path d="M 354.225501 223.191414 
L 354.225501 214.732773 
" clip-path="url(#p16bf2355e9)" style="fill: none; stroke: #000000; stroke-width: 1.5"/>
    <path d="M 387.504755 218.884021 
L 387.504755 215.530976 
" clip-path="url(#p16bf2355e9)" style="fill: none; stroke: #000000; stroke-width: 1.5"/>
   </g>
   <g id="line2d_21">
    <g clip-path="url(#p16bf2355e9)">
     <use xlink:href="#m701942103e" x="87.991469" y="213.279089" style="stroke: #000000"/>
     <use xlink:href="#m701942103e" x="121.270723" y="189.654408" style="stroke: #000000"/>
     <use xlink:href="#m701942103e" x="154.549977" y="96.394929" style="stroke: #000000"/>
     <use xlink:href="#m701942103e" x="187.829231" y="115.795664" style="stroke: #000000"/>
     <use xlink:href="#m701942103e" x="221.108485" y="175.469669" style="stroke: #000000"/>
     <use xlink:href="#m701942103e" x="254.387739" y="199.969301" style="stroke: #000000"/>
     <use xlink:href="#m701942103e" x="287.666993" y="216.582883" style="stroke: #000000"/>
     <use xlink:href="#m701942103e" x="320.946247" y="217.104555" style="stroke: #000000"/>
     <use xlink:href="#m701942103e" x="354.225501" y="223.191414" style="stroke: #000000"/>
     <use xlink:href="#m701942103e" x="387.504755" y="218.884021" style="stroke: #000000"/>
    </g>
   </g>
   <g id="line2d_22">
    <g clip-path="url(#p16bf2355e9)">
     <use xlink:href="#m701942103e" x="87.991469" y="208.45069" style="stroke: #000000"/>
     <use xlink:href="#m701942103e" x="121.270723" y="165.839789" style="stroke: #000000"/>
     <use xlink:href="#m701942103e" x="154.549977" y="78.347946" style="stroke: #000000"/>
     <use xlink:href="#m701942103e" x="187.829231" y="84.481664" style="stroke: #000000"/>
     <use xlink:href="#m701942103e" x="221.108485" y="143.129446" style="stroke: #000000"/>
     <use xlink:href="#m701942103e" x="254.387739" y="178.777615" style="stroke: #000000"/>
     <use xlink:href="#m701942103e" x="287.666993" y="205.273771" style="stroke: #000000"/>
     <use xlink:href="#m701942103e" x="320.946247" y="210.812747" style="stroke: #000000"/>
     <use xlink:href="#m701942103e" x="354.225501" y="214.732773" style="stroke: #000000"/>
     <use xlink:href="#m701942103e" x="387.504755" y="215.530976" style="stroke: #000000"/>
    </g>
   </g>
   <g id="LineCollection_3">
    <path d="M 92.983357 210.612297 
L 92.983357 205.898702 
" clip-path="url(#p16bf2355e9)" style="fill: none; stroke: #000000; stroke-width: 1.5"/>
    <path d="M 126.262611 178.910055 
L 126.262611 149.34839 
" clip-path="url(#p16bf2355e9)" style="fill: none; stroke: #000000; stroke-width: 1.5"/>
    <path d="M 159.541865 75.909866 
L 159.541865 50.617847 
" clip-path="url(#p16bf2355e9)" style="fill: none; stroke: #000000; stroke-width: 1.5"/>
    <path d="M 192.821119 83.103345 
L 192.821119 39.480114 
" clip-path="url(#p16bf2355e9)" style="fill: none; stroke: #000000; stroke-width: 1.5"/>
    <path d="M 226.100373 151.697007 
L 226.100373 92.80063 
" clip-path="url(#p16bf2355e9)" style="fill: none; stroke: #000000; stroke-width: 1.5"/>
    <path d="M 259.379627 196.730462 
L 259.379627 166.030127 
" clip-path="url(#p16bf2355e9)" style="fill: none; stroke: #000000; stroke-width: 1.5"/>
    <path d="M 292.658881 214.486084 
L 292.658881 202.347927 
" clip-path="url(#p16bf2355e9)" style="fill: none; stroke: #000000; stroke-width: 1.5"/>
    <path d="M 325.938135 216.995028 
L 325.938135 207.107983 
" clip-path="url(#p16bf2355e9)" style="fill: none; stroke: #000000; stroke-width: 1.5"/>
    <path d="M 359.217389 221.674584 
L 359.217389 215.47179 
" clip-path="url(#p16bf2355e9)" style="fill: none; stroke: #000000; stroke-width: 1.5"/>
    <path d="M 392.496643 220.673589 
L 392.496643 216.348231 
" clip-path="url(#p16bf2355e9)" style="fill: none; stroke: #000000; stroke-width: 1.5"/>
   </g>
   <g id="line2d_23">
    <g clip-path="url(#p16bf2355e9)">
     <use xlink:href="#m701942103e" x="92.983357" y="210.612297" style="stroke: #000000"/>
     <use xlink:href="#m701942103e" x="126.262611" y="178.910055" style="stroke: #000000"/>
     <use xlink:href="#m701942103e" x="159.541865" y="75.909866" style="stroke: #000000"/>
     <use xlink:href="#m701942103e" x="192.821119" y="83.103345" style="stroke: #000000"/>
     <use xlink:href="#m701942103e" x="226.100373" y="151.697007" style="stroke: #000000"/>
     <use xlink:href="#m701942103e" x="259.379627" y="196.730462" style="stroke: #000000"/>
     <use xlink:href="#m701942103e" x="292.658881" y="214.486084" style="stroke: #000000"/>
     <use xlink:href="#m701942103e" x="325.938135" y="216.995028" style="stroke: #000000"/>
     <use xlink:href="#m701942103e" x="359.217389" y="221.674584" style="stroke: #000000"/>
     <use xlink:href="#m701942103e" x="392.496643" y="220.673589" style="stroke: #000000"/>
    </g>
   </g>
   <g id="line2d_24">
    <g clip-path="url(#p16bf2355e9)">
     <use xlink:href="#m701942103e" x="92.983357" y="205.898702" style="stroke: #000000"/>
     <use xlink:href="#m701942103e" x="126.262611" y="149.34839" style="stroke: #000000"/>
     <use xlink:href="#m701942103e" x="159.541865" y="50.617847" style="stroke: #000000"/>
     <use xlink:href="#m701942103e" x="192.821119" y="39.480114" style="stroke: #000000"/>
     <use xlink:href="#m701942103e" x="226.100373" y="92.80063" style="stroke: #000000"/>
     <use xlink:href="#m701942103e" x="259.379627" y="166.030127" style="stroke: #000000"/>
     <use xlink:href="#m701942103e" x="292.658881" y="202.347927" style="stroke: #000000"/>
     <use xlink:href="#m701942103e" x="325.938135" y="207.107983" style="stroke: #000000"/>
     <use xlink:href="#m701942103e" x="359.217389" y="215.47179" style="stroke: #000000"/>
     <use xlink:href="#m701942103e" x="392.496643" y="216.348231" style="stroke: #000000"/>
    </g>
   </g>
   <g id="LineCollection_4">
    <path d="M 97.975245 213.192039 
L 97.975245 208.912683 
" clip-path="url(#p16bf2355e9)" style="fill: none; stroke: #000000; stroke-width: 1.5"/>
    <path d="M 131.254499 176.638472 
L 131.254499 149.36904 
" clip-path="url(#p16bf2355e9)" style="fill: none; stroke: #000000; stroke-width: 1.5"/>
    <path d="M 164.533753 94.358723 
L 164.533753 67.582933 
" clip-path="url(#p16bf2355e9)" style="fill: none; stroke: #000000; stroke-width: 1.5"/>
    <path d="M 197.813007 112.490596 
L 197.813007 86.864043 
" clip-path="url(#p16bf2355e9)" style="fill: none; stroke: #000000; stroke-width: 1.5"/>
    <path d="M 231.092261 177.602701 
L 231.092261 141.028261 
" clip-path="url(#p16bf2355e9)" style="fill: none; stroke: #000000; stroke-width: 1.5"/>
    <path d="M 264.371515 204.472597 
L 264.371515 180.542629 
" clip-path="url(#p16bf2355e9)" style="fill: none; stroke: #000000; stroke-width: 1.5"/>
    <path d="M 297.650769 217.219077 
L 297.650769 208.150149 
" clip-path="url(#p16bf2355e9)" style="fill: none; stroke: #000000; stroke-width: 1.5"/>
    <path d="M 330.930023 218.378272 
L 330.930023 210.973747 
" clip-path="url(#p16bf2355e9)" style="fill: none; stroke: #000000; stroke-width: 1.5"/>
    <path d="M 364.209277 221.541667 
L 364.209277 213.887614 
" clip-path="url(#p16bf2355e9)" style="fill: none; stroke: #000000; stroke-width: 1.5"/>
    <path d="M 397.488531 221.898179 
L 397.488531 216.025728 
" clip-path="url(#p16bf2355e9)" style="fill: none; stroke: #000000; stroke-width: 1.5"/>
   </g>
   <g id="line2d_25">
    <g clip-path="url(#p16bf2355e9)">
     <use xlink:href="#m701942103e" x="97.975245" y="213.192039" style="stroke: #000000"/>
     <use xlink:href="#m701942103e" x="131.254499" y="176.638472" style="stroke: #000000"/>
     <use xlink:href="#m701942103e" x="164.533753" y="94.358723" style="stroke: #000000"/>
     <use xlink:href="#m701942103e" x="197.813007" y="112.490596" style="stroke: #000000"/>
     <use xlink:href="#m701942103e" x="231.092261" y="177.602701" style="stroke: #000000"/>
     <use xlink:href="#m701942103e" x="264.371515" y="204.472597" style="stroke: #000000"/>
     <use xlink:href="#m701942103e" x="297.650769" y="217.219077" style="stroke: #000000"/>
     <use xlink:href="#m701942103e" x="330.930023" y="218.378272" style="stroke: #000000"/>
     <use xlink:href="#m701942103e" x="364.209277" y="221.541667" style="stroke: #000000"/>
     <use xlink:href="#m701942103e" x="397.488531" y="221.898179" style="stroke: #000000"/>
    </g>
   </g>
   <g id="line2d_26">
    <g clip-path="url(#p16bf2355e9)">
     <use xlink:href="#m701942103e" x="97.975245" y="208.912683" style="stroke: #000000"/>
     <use xlink:href="#m701942103e" x="131.254499" y="149.36904" style="stroke: #000000"/>
     <use xlink:href="#m701942103e" x="164.533753" y="67.582933" style="stroke: #000000"/>
     <use xlink:href="#m701942103e" x="197.813007" y="86.864043" style="stroke: #000000"/>
     <use xlink:href="#m701942103e" x="231.092261" y="141.028261" style="stroke: #000000"/>
     <use xlink:href="#m701942103e" x="264.371515" y="180.542629" style="stroke: #000000"/>
     <use xlink:href="#m701942103e" x="297.650769" y="208.150149" style="stroke: #000000"/>
     <use xlink:href="#m701942103e" x="330.930023" y="210.973747" style="stroke: #000000"/>
     <use xlink:href="#m701942103e" x="364.209277" y="213.887614" style="stroke: #000000"/>
     <use xlink:href="#m701942103e" x="397.488531" y="216.025728" style="stroke: #000000"/>
    </g>
   </g>
   <g id="LineCollection_5">
    <path d="M 102.967133 216.060268 
L 102.967133 211.610041 
" clip-path="url(#p16bf2355e9)" style="fill: none; stroke: #000000; stroke-width: 1.5"/>
    <path d="M 136.246387 191.348209 
L 136.246387 175.45522 
" clip-path="url(#p16bf2355e9)" style="fill: none; stroke: #000000; stroke-width: 1.5"/>
    <path d="M 169.525641 95.419386 
L 169.525641 57.38964 
" clip-path="url(#p16bf2355e9)" style="fill: none; stroke: #000000; stroke-width: 1.5"/>
    <path d="M 202.804895 57.163011 
L 202.804895 21.659048 
" clip-path="url(#p16bf2355e9)" style="fill: none; stroke: #000000; stroke-width: 1.5"/>
    <path d="M 236.084149 115.500467 
L 236.084149 55.682962 
" clip-path="url(#p16bf2355e9)" style="fill: none; stroke: #000000; stroke-width: 1.5"/>
    <path d="M 269.363403 191.806028 
L 269.363403 130.239824 
" clip-path="url(#p16bf2355e9)" style="fill: none; stroke: #000000; stroke-width: 1.5"/>
    <path d="M 302.642657 217.769228 
L 302.642657 180.072965 
" clip-path="url(#p16bf2355e9)" style="fill: none; stroke: #000000; stroke-width: 1.5"/>
    <path d="M 335.921911 220.037267 
L 335.921911 193.036472 
" clip-path="url(#p16bf2355e9)" style="fill: none; stroke: #000000; stroke-width: 1.5"/>
    <path d="M 369.201166 222.211186 
L 369.201166 205.627287 
" clip-path="url(#p16bf2355e9)" style="fill: none; stroke: #000000; stroke-width: 1.5"/>
    <path d="M 402.48042 221.562082 
L 402.48042 211.682462 
" clip-path="url(#p16bf2355e9)" style="fill: none; stroke: #000000; stroke-width: 1.5"/>
   </g>
   <g id="line2d_27">
    <g clip-path="url(#p16bf2355e9)">
     <use xlink:href="#m701942103e" x="102.967133" y="216.060268" style="stroke: #000000"/>
     <use xlink:href="#m701942103e" x="136.246387" y="191.348209" style="stroke: #000000"/>
     <use xlink:href="#m701942103e" x="169.525641" y="95.419386" style="stroke: #000000"/>
     <use xlink:href="#m701942103e" x="202.804895" y="57.163011" style="stroke: #000000"/>
     <use xlink:href="#m701942103e" x="236.084149" y="115.500467" style="stroke: #000000"/>
     <use xlink:href="#m701942103e" x="269.363403" y="191.806028" style="stroke: #000000"/>
     <use xlink:href="#m701942103e" x="302.642657" y="217.769228" style="stroke: #000000"/>
     <use xlink:href="#m701942103e" x="335.921911" y="220.037267" style="stroke: #000000"/>
     <use xlink:href="#m701942103e" x="369.201166" y="222.211186" style="stroke: #000000"/>
     <use xlink:href="#m701942103e" x="402.48042" y="221.562082" style="stroke: #000000"/>
    </g>
   </g>
   <g id="line2d_28">
    <g clip-path="url(#p16bf2355e9)">
     <use xlink:href="#m701942103e" x="102.967133" y="211.610041" style="stroke: #000000"/>
     <use xlink:href="#m701942103e" x="136.246387" y="175.45522" style="stroke: #000000"/>
     <use xlink:href="#m701942103e" x="169.525641" y="57.38964" style="stroke: #000000"/>
     <use xlink:href="#m701942103e" x="202.804895" y="21.659048" style="stroke: #000000"/>
     <use xlink:href="#m701942103e" x="236.084149" y="55.682962" style="stroke: #000000"/>
     <use xlink:href="#m701942103e" x="269.363403" y="130.239824" style="stroke: #000000"/>
     <use xlink:href="#m701942103e" x="302.642657" y="180.072965" style="stroke: #000000"/>
     <use xlink:href="#m701942103e" x="335.921911" y="193.036472" style="stroke: #000000"/>
     <use xlink:href="#m701942103e" x="369.201166" y="205.627287" style="stroke: #000000"/>
     <use xlink:href="#m701942103e" x="402.48042" y="211.682462" style="stroke: #000000"/>
    </g>
   </g>
   <g id="line2d_29"/>
   <g id="line2d_30"/>
   <g id="line2d_31"/>
   <g id="line2d_32"/>
   <g id="line2d_33"/>
   <g id="patch_53">
    <path d="M 64.28 238.84 
L 64.28 10.8 
" style="fill: none; stroke: #000000; stroke-width: 1.5; stroke-linejoin: miter; stroke-linecap: square"/>
   </g>
   <g id="patch_54">
    <path d="M 64.28 238.84 
L 421.2 238.84 
" style="fill: none; stroke: #000000; stroke-width: 1.5; stroke-linejoin: miter; stroke-linecap: square"/>
   </g>
   <g id="legend_1">
    <g id="patch_55">
     <path d="M 317.045625 106.33125 
L 412.8 106.33125 
Q 415.2 106.33125 415.2 103.93125 
L 415.2 19.2 
Q 415.2 16.8 412.8 16.8 
L 317.045625 16.8 
Q 314.645625 16.8 314.645625 19.2 
L 314.645625 103.93125 
Q 314.645625 106.33125 317.045625 106.33125 
z
" style="fill: #ffffff; opacity: 0.8; stroke: #cccccc; stroke-linejoin: miter"/>
    </g>
    <g id="patch_56">
     <path d="M 319.445625 30.29625 
L 343.445625 30.29625 
L 343.445625 21.89625 
L 319.445625 21.89625 
z
" style="fill: #c0d9ff"/>
    </g>
    <g id="text_21">
     <!-- Parity -->
     <g transform="translate(353.045625 30.29625) scale(0.12 -0.12)">
      <defs>
       <path id="LiberationSans-50" d="M 3931 3078 
Q 3931 2453 3523 2084 
Q 3116 1716 2416 1716 
L 1122 1716 
L 1122 0 
L 525 0 
L 525 4403 
L 2378 4403 
Q 3119 4403 3525 4056 
Q 3931 3709 3931 3078 
z
M 3331 3072 
Q 3331 3925 2306 3925 
L 1122 3925 
L 1122 2188 
L 2331 2188 
Q 3331 2188 3331 3072 
z
" transform="scale(0.015625)"/>
      </defs>
      <use xlink:href="#LiberationSans-50"/>
      <use xlink:href="#LiberationSans-61" x="66.699219"/>
      <use xlink:href="#LiberationSans-72" x="122.314453"/>
      <use xlink:href="#LiberationSans-69" x="155.615234"/>
      <use xlink:href="#LiberationSans-74" x="177.832031"/>
      <use xlink:href="#LiberationSans-79" x="205.615234"/>
     </g>
    </g>
    <g id="patch_57">
     <path d="M 319.445625 47.4825 
L 343.445625 47.4825 
L 343.445625 39.0825 
L 319.445625 39.0825 
z
" style="fill: #bfc1ff"/>
    </g>
    <g id="text_22">
     <!-- Value -->
     <g transform="translate(353.045625 47.4825) scale(0.12 -0.12)">
      <defs>
       <path id="LiberationSans-56" d="M 2444 0 
L 1825 0 
L 28 4403 
L 656 4403 
L 1875 1303 
L 2138 525 
L 2400 1303 
L 3613 4403 
L 4241 4403 
L 2444 0 
z
" transform="scale(0.015625)"/>
       <path id="LiberationSans-6c" d="M 431 0 
L 431 4638 
L 994 4638 
L 994 0 
L 431 0 
z
" transform="scale(0.015625)"/>
      </defs>
      <use xlink:href="#LiberationSans-56"/>
      <use xlink:href="#LiberationSans-61" x="59.324219"/>
      <use xlink:href="#LiberationSans-6c" x="114.939453"/>
      <use xlink:href="#LiberationSans-75" x="137.15625"/>
      <use xlink:href="#LiberationSans-65" x="192.771484"/>
     </g>
    </g>
    <g id="patch_58">
     <path d="M 319.445625 64.66875 
L 343.445625 64.66875 
L 343.445625 56.26875 
L 319.445625 56.26875 
z
" style="fill: #e3bfff"/>
    </g>
    <g id="text_23">
     <!-- Prime -->
     <g transform="translate(353.045625 64.66875) scale(0.12 -0.12)">
      <defs>
       <path id="LiberationSans-6d" d="M 2400 0 
L 2400 2144 
Q 2400 2634 2265 2821 
Q 2131 3009 1781 3009 
Q 1422 3009 1212 2734 
Q 1003 2459 1003 1959 
L 1003 0 
L 444 0 
L 444 2659 
Q 444 3250 425 3381 
L 956 3381 
Q 959 3366 962 3297 
Q 966 3228 970 3139 
Q 975 3050 981 2803 
L 991 2803 
Q 1172 3163 1406 3303 
Q 1641 3444 1978 3444 
Q 2363 3444 2586 3291 
Q 2809 3138 2897 2803 
L 2906 2803 
Q 3081 3144 3329 3294 
Q 3578 3444 3931 3444 
Q 4444 3444 4676 3166 
Q 4909 2888 4909 2253 
L 4909 0 
L 4353 0 
L 4353 2144 
Q 4353 2634 4218 2821 
Q 4084 3009 3734 3009 
Q 3366 3009 3161 2736 
Q 2956 2463 2956 1959 
L 2956 0 
L 2400 0 
z
" transform="scale(0.015625)"/>
      </defs>
      <use xlink:href="#LiberationSans-50"/>
      <use xlink:href="#LiberationSans-72" x="66.699219"/>
      <use xlink:href="#LiberationSans-69" x="100"/>
      <use xlink:href="#LiberationSans-6d" x="122.216797"/>
      <use xlink:href="#LiberationSans-65" x="205.517578"/>
     </g>
    </g>
    <g id="patch_59">
     <path d="M 319.445625 81.855 
L 343.445625 81.855 
L 343.445625 73.455 
L 319.445625 73.455 
z
" style="fill: #ffbfe6"/>
    </g>
    <g id="text_24">
     <!-- Fibonacci -->
     <g transform="translate(353.045625 81.855) scale(0.12 -0.12)">
      <defs>
       <path id="LiberationSans-46" d="M 1122 3916 
L 1122 2278 
L 3578 2278 
L 3578 1784 
L 1122 1784 
L 1122 0 
L 525 0 
L 525 4403 
L 3653 4403 
L 3653 3916 
L 1122 3916 
z
" transform="scale(0.015625)"/>
       <path id="LiberationSans-62" d="M 3291 1706 
Q 3291 -63 2047 -63 
Q 1663 -63 1408 76 
Q 1153 216 994 525 
L 988 525 
Q 988 428 975 229 
Q 963 31 956 0 
L 413 0 
Q 431 169 431 697 
L 431 4638 
L 994 4638 
L 994 3316 
Q 994 3113 981 2838 
L 994 2838 
Q 1150 3163 1408 3303 
Q 1666 3444 2047 3444 
Q 2688 3444 2989 3012 
Q 3291 2581 3291 1706 
z
M 2700 1688 
Q 2700 2397 2512 2703 
Q 2325 3009 1903 3009 
Q 1428 3009 1211 2684 
Q 994 2359 994 1653 
Q 994 988 1206 670 
Q 1419 353 1897 353 
Q 2322 353 2511 667 
Q 2700 981 2700 1688 
z
" transform="scale(0.015625)"/>
       <path id="LiberationSans-6f" d="M 3291 1694 
Q 3291 806 2900 371 
Q 2509 -63 1766 -63 
Q 1025 -63 647 389 
Q 269 841 269 1694 
Q 269 3444 1784 3444 
Q 2559 3444 2925 3017 
Q 3291 2591 3291 1694 
z
M 2700 1694 
Q 2700 2394 2492 2711 
Q 2284 3028 1794 3028 
Q 1300 3028 1079 2704 
Q 859 2381 859 1694 
Q 859 1025 1076 689 
Q 1294 353 1759 353 
Q 2266 353 2483 678 
Q 2700 1003 2700 1694 
z
" transform="scale(0.015625)"/>
       <path id="LiberationSans-63" d="M 859 1706 
Q 859 1031 1071 706 
Q 1284 381 1713 381 
Q 2013 381 2214 543 
Q 2416 706 2463 1044 
L 3031 1006 
Q 2966 519 2616 228 
Q 2266 -63 1728 -63 
Q 1019 -63 645 385 
Q 272 834 272 1694 
Q 272 2547 647 2995 
Q 1022 3444 1722 3444 
Q 2241 3444 2583 3175 
Q 2925 2906 3013 2434 
L 2434 2391 
Q 2391 2672 2212 2837 
Q 2034 3003 1706 3003 
Q 1259 3003 1059 2706 
Q 859 2409 859 1706 
z
" transform="scale(0.015625)"/>
      </defs>
      <use xlink:href="#LiberationSans-46"/>
      <use xlink:href="#LiberationSans-69" x="61.083984"/>
      <use xlink:href="#LiberationSans-62" x="83.300781"/>
      <use xlink:href="#LiberationSans-6f" x="138.916016"/>
      <use xlink:href="#LiberationSans-6e" x="194.53125"/>
      <use xlink:href="#LiberationSans-61" x="250.146484"/>
      <use xlink:href="#LiberationSans-63" x="305.761719"/>
      <use xlink:href="#LiberationSans-63" x="355.761719"/>
      <use xlink:href="#LiberationSans-69" x="405.761719"/>
     </g>
    </g>
    <g id="patch_60">
     <path d="M 319.445625 99.04125 
L 343.445625 99.04125 
L 343.445625 90.64125 
L 319.445625 90.64125 
z
" style="fill: #ffbfc4"/>
    </g>
    <g id="text_25">
     <!-- Multiples 3 -->
     <g transform="translate(353.045625 99.04125) scale(0.12 -0.12)">
      <defs>
       <path id="LiberationSans-70" d="M 3291 1706 
Q 3291 -63 2047 -63 
Q 1266 -63 997 525 
L 981 525 
Q 994 500 994 -6 
L 994 -1328 
L 431 -1328 
L 431 2691 
Q 431 3213 413 3381 
L 956 3381 
Q 959 3369 965 3292 
Q 972 3216 980 3056 
Q 988 2897 988 2838 
L 1000 2838 
Q 1150 3150 1397 3295 
Q 1644 3441 2047 3441 
Q 2672 3441 2981 3022 
Q 3291 2603 3291 1706 
z
M 2700 1694 
Q 2700 2400 2509 2703 
Q 2319 3006 1903 3006 
Q 1569 3006 1380 2865 
Q 1191 2725 1092 2426 
Q 994 2128 994 1650 
Q 994 984 1206 668 
Q 1419 353 1897 353 
Q 2316 353 2508 661 
Q 2700 969 2700 1694 
z
" transform="scale(0.015625)"/>
      </defs>
      <use xlink:href="#LiberationSans-4d"/>
      <use xlink:href="#LiberationSans-75" x="83.300781"/>
      <use xlink:href="#LiberationSans-6c" x="138.916016"/>
      <use xlink:href="#LiberationSans-74" x="161.132812"/>
      <use xlink:href="#LiberationSans-69" x="188.916016"/>
      <use xlink:href="#LiberationSans-70" x="211.132812"/>
      <use xlink:href="#LiberationSans-6c" x="266.748047"/>
      <use xlink:href="#LiberationSans-65" x="288.964844"/>
      <use xlink:href="#LiberationSans-73" x="344.580078"/>
      <use xlink:href="#LiberationSans-20" x="394.580078"/>
      <use xlink:href="#LiberationSans-33" x="422.363281"/>
     </g>
    </g>
   </g>
  </g>
 </g>
 <defs>
  <clipPath id="p16bf2355e9">
   <rect x="64.28" y="10.8" width="356.92" height="228.04"/>
  </clipPath>
 </defs>
</svg>
